<?xml version="1.0" encoding="utf-8"?>
<!-- Generator: Adobe Illustrator 16.0.0, SVG Export Plug-In . SVG Version: 6.00 Build 0)  -->
<!DOCTYPE svg PUBLIC "-//W3C//DTD SVG 1.1//EN" "http://www.w3.org/Graphics/SVG/1.1/DTD/svg11.dtd">
<svg version="1.1" xmlns="http://www.w3.org/2000/svg" xmlns:xlink="http://www.w3.org/1999/xlink" x="0px" y="0px" width="260px"
	 height="220px" viewBox="0 0 260 220" enable-background="new 0 0 260 220" xml:space="preserve">
<g id="others">
	<g>
		<ellipse fill="#D4F5FF" cx="146.394" cy="211.207" rx="54.728" ry="6.791"/>
	</g>
	<g>
		<rect x="143.05" y="113.387" fill="#7669C4" width="7.269" height="27.732"/>
	</g>
	<g>
		<path fill="#2C1A4D" d="M180.501,211.443c-0.613,0-1.189-0.379-1.41-0.989l-24.458-67.578c-0.282-0.779,0.121-1.64,0.899-1.921
			c0.78-0.283,1.639,0.12,1.921,0.899l24.458,67.578c0.282,0.779-0.121,1.64-0.899,1.921
			C180.843,211.415,180.671,211.443,180.501,211.443z"/>
	</g>
	<g>
		<path fill="#2C1A4D" d="M112.89,211.443c-0.169,0-0.342-0.028-0.51-0.09c-0.779-0.281-1.182-1.142-0.9-1.921l24.458-67.578
			c0.282-0.779,1.144-1.184,1.921-0.899c0.778,0.281,1.182,1.142,0.899,1.921L114.3,210.454
			C114.079,211.064,113.503,211.443,112.89,211.443z"/>
	</g>
	<g>
		<path fill="#2C1A4D" d="M146.695,211.443c-0.828,0-1.5-0.672-1.5-1.5v-67.578c0-0.828,0.672-1.5,1.5-1.5s1.5,0.672,1.5,1.5v67.578
			C148.195,210.771,147.523,211.443,146.695,211.443z"/>
	</g>
	<g>
		<path fill="#7669C4" d="M177.158,124.855c1.748,1.336,2.087,3.859,0.753,5.609l-0.854,1.119c-1.334,1.748-3.856,2.088-5.604,0.752
			l-19.228-14.682c-1.748-1.334-2.087-3.859-0.753-5.607l0.854-1.121c1.334-1.747,3.856-2.087,5.604-0.751L177.158,124.855z"/>
	</g>
	<g>
		<g>
			<path fill="#5D439C" d="M151.378,112.199c-1.207,1.74-0.853,4.158,0.847,5.455l19.228,14.682
				c1.686,1.287,4.081,1.006,5.447-0.584L151.378,112.199z"/>
		</g>
	</g>
	<g>
		<path fill="#2C1A4D" d="M173.871,134.402c-1.16,0-2.259-0.371-3.178-1.073l-19.228-14.682c-2.301-1.756-2.744-5.058-0.988-7.359
			l0.854-1.12c1-1.31,2.523-2.061,4.18-2.061c1.16,0,2.259,0.371,3.178,1.073l19.229,14.681c2.3,1.757,2.742,5.059,0.988,7.36
			l-0.855,1.12C177.051,133.651,175.527,134.402,173.871,134.402z M155.511,110.608c-0.871,0-1.67,0.392-2.192,1.076l-0.853,1.119
			c-0.921,1.207-0.688,2.937,0.518,3.856l19.228,14.683c1.167,0.892,2.966,0.644,3.852-0.518l0.855-1.119
			c0.919-1.205,0.687-2.937-0.519-3.857l-19.229-14.681C156.691,110.802,156.118,110.608,155.511,110.608z"/>
	</g>
	<g>
		<g>
			<path fill="#7B72D3" d="M178.746,110.481c0.87,0.671,1.036,1.939,0.369,2.814l-0.145,0.189c-0.667,0.875-1.925,1.041-2.795,0.367
				l-11.284-8.729c-0.87-0.672-1.036-1.939-0.369-2.814l0.146-0.191c0.667-0.875,1.925-1.041,2.795-0.367L178.746,110.481z"/>
		</g>
		<g>
			<path fill="#2C1A4D" d="M177.388,115.266c-0.666,0-1.297-0.216-1.824-0.623l-11.284-8.729c-1.306-1.008-1.554-2.898-0.552-4.212
				l0.147-0.193c0.568-0.745,1.435-1.174,2.377-1.174c0.666,0,1.297,0.216,1.824,0.624l11.282,8.73
				c1.306,1.007,1.554,2.897,0.552,4.211l-0.145,0.189C179.196,114.838,178.33,115.266,177.388,115.266z M166.252,102.335
				c-0.312,0-0.6,0.142-0.788,0.388l-0.147,0.193c-0.33,0.433-0.245,1.082,0.187,1.415l11.285,8.729
				c0.219,0.17,0.447,0.205,0.6,0.205c0.312,0,0.6-0.141,0.788-0.388l0.145-0.189c0.331-0.435,0.246-1.083-0.186-1.416
				l-11.283-8.731C166.633,102.371,166.404,102.335,166.252,102.335z"/>
		</g>
	</g>
	<g>
		<path fill="#7669C4" d="M157.698,107.694c1.748,1.336,2.087,3.858,0.753,5.608l-3.073,4.029c-1.334,1.748-3.856,2.088-5.604,0.752
			l-19.228-14.678c-1.748-1.336-2.087-3.859-0.753-5.609l3.074-4.029c1.334-1.75,3.856-2.088,5.604-0.754L157.698,107.694z"/>
	</g>
	<g>
		<path fill="#FFFFFF" d="M155.221,112.182c-0.262,0-0.525-0.082-0.75-0.251l-13.948-10.482c-0.552-0.415-0.663-1.199-0.248-1.75
			c0.414-0.552,1.2-0.663,1.75-0.249l13.948,10.482c0.552,0.415,0.663,1.199,0.248,1.75
			C155.976,112.01,155.601,112.182,155.221,112.182z"/>
	</g>
	<g>
		<path fill="#FFFFFF" d="M175.312,129.174c-0.265,0-0.532-0.084-0.759-0.257l-4.413-3.377c-0.548-0.42-0.652-1.204-0.233-1.753
			c0.42-0.547,1.205-0.651,1.753-0.233l4.413,3.377c0.548,0.42,0.652,1.204,0.233,1.753
			C176.06,129.005,175.688,129.174,175.312,129.174z"/>
	</g>
	<g>
		<path fill="#FFFFFF" d="M166.099,122.123c-0.265,0-0.532-0.084-0.759-0.257l-5.4-4.131c-0.548-0.42-0.652-1.204-0.233-1.753
			c0.42-0.547,1.205-0.651,1.753-0.233l5.4,4.131c0.548,0.42,0.652,1.204,0.233,1.753
			C166.847,121.954,166.475,122.123,166.099,122.123z"/>
	</g>
	<g>
		<path fill="#2C1A4D" d="M169.235,118.832c-0.27,0-0.542-0.087-0.771-0.267c-0.543-0.427-0.638-1.212-0.212-1.755l6.819-8.689
			c0.428-0.542,1.212-0.639,1.755-0.211c0.543,0.426,0.638,1.212,0.212,1.755l-6.819,8.688
			C169.973,118.668,169.606,118.832,169.235,118.832z"/>
	</g>
	<g>
		<path fill="#2C1A4D" d="M162.934,105.523c-0.268,0-0.536-0.085-0.765-0.262c-0.546-0.422-0.646-1.208-0.223-1.753l3.578-4.621
			c0.423-0.546,1.208-0.645,1.754-0.223c0.546,0.422,0.646,1.208,0.223,1.753l-3.578,4.621
			C163.677,105.357,163.307,105.523,162.934,105.523z"/>
	</g>
	<g>
		<path fill="#2C1A4D" d="M156.197,144.514h-19.104c-0.828,0-1.5-0.672-1.5-1.5s0.672-1.5,1.5-1.5h19.104c0.828,0,1.5,0.672,1.5,1.5
			S157.025,144.514,156.197,144.514z"/>
	</g>
	<g>
		<path fill="#2C1A4D" d="M182.658,117.791c-0.268,0-0.537-0.086-0.766-0.263l-3.652-2.834c-0.545-0.423-0.645-1.208-0.221-1.754
			c0.423-0.545,1.207-0.643,1.754-0.221l3.652,2.834c0.545,0.423,0.645,1.208,0.221,1.754
			C183.4,117.625,183.031,117.791,182.658,117.791z"/>
	</g>
	<g>
		<g>
			<path fill="#D4F5FF" d="M232.371,51.215c-2.854,2.854-6.009,6.91-8.986,7.789c-6.391,1.881-11.961-1.637-11.961,1.936
				c0,5.236,19.65,9.799,18.703,1.488c-0.794-6.963,4.85-2.184,5.489-4.393C237.152,52.727,234.237,49.348,232.371,51.215z"/>
		</g>
		<g>
			<path fill="#D4F5FF" d="M220.626,31.279c-11.532,0-20.914,9.382-20.914,20.914s9.382,20.914,20.914,20.914
				s20.914-9.382,20.914-20.914S232.158,31.279,220.626,31.279z M220.626,70.607c-10.087,0-18.298-8.156-18.404-18.219
				c0.176,0.396,0.365,0.73,0.544,1.005c0.914,1.402,2.3,2.345,3.447,2.345c0.923,0,1.519-0.607,1.519-1.549
				c0-1.157,0.834-1.61,2.194-2.252c1.308-0.617,2.936-1.385,2.936-3.449c0-2.716-1.803-3.228-2.996-3.566
				c-0.478-0.136-0.929-0.265-1.127-0.478c-0.373-0.4-0.633-1.557-0.862-2.576c-0.196-0.874-0.382-1.68-0.661-2.254
				c3.362-3.581,8.123-5.835,13.411-5.835c1.113,0,2.198,0.116,3.257,0.306c-0.739,1.271-3.655,6.669-0.265,7.421
				c3.848,0.855,6.412,4.275,6.84,6.84s4.702,2.992,4.702,0.428c0-1.921,1.199-4.081,1.801-5.045
				c1.321,2.537,2.079,5.412,2.079,8.465C239.04,62.347,230.779,70.607,220.626,70.607z"/>
		</g>
		<g>
			<path fill="#D4F5FF" d="M218.81,52.949c0.568,0,1.22-0.091,1.938-0.271c1.369-0.343,2.239-1.013,2.587-1.993
				c0.699-1.969-1.092-4.39-1.14-4.448c-0.033-0.056-0.829-1.356-2.154-1.356c-0.936,0-1.837,0.642-2.68,1.906
				c-1.316,1.976-1.718,3.769-1.102,4.921C216.562,52.274,217.251,52.949,218.81,52.949z"/>
		</g>
	</g>
	<g>
		<g>
			<rect x="143.05" y="113.387" fill="#5D439C" width="3.646" height="27.732"/>
		</g>
	</g>
	<g>
		<path fill="#2C1A4D" d="M151.568,142.369H141.8v-29.418h9.769V142.369z M144.3,139.869h4.769v-24.418H144.3V139.869z"/>
	</g>
	<g>
		<g>
			<path fill="#5D439C" d="M130.877,96.377l-1.084,1.42c-1.334,1.75-0.995,4.273,0.753,5.609l19.228,14.678
				c1.748,1.336,4.271,0.996,5.604-0.752l0.975-1.279L130.877,96.377z"/>
		</g>
	</g>
	<g>
		<path fill="#2C1A4D" d="M152.192,120.15c-1.16,0-2.259-0.371-3.178-1.073L129.788,104.4c-2.3-1.757-2.743-5.06-0.989-7.361
			l3.074-4.03c0.999-1.31,2.522-2.061,4.18-2.061c1.16,0,2.259,0.371,3.178,1.072l19.227,14.681c2.299,1.757,2.742,5.059,0.988,7.36
			l-3.073,4.029C155.372,119.399,153.849,120.15,152.192,120.15z M136.053,93.448c-0.871,0-1.67,0.393-2.191,1.077l-3.074,4.03
			c-0.92,1.206-0.688,2.937,0.518,3.858l19.228,14.678c1.168,0.892,2.968,0.644,3.852-0.518l3.073-4.028
			c0.92-1.206,0.688-2.937-0.518-3.857l-19.227-14.68C137.233,93.642,136.66,93.448,136.053,93.448z"/>
	</g>
	<g>
		<path fill="#7669C4" d="M139.058,90.502c1.748,1.334,2.087,3.859,0.753,5.607l-5.926,7.771c-1.334,1.75-3.856,2.088-5.604,0.754
			l-29.26-22.344c-1.748-1.334-2.087-3.859-0.753-5.607l5.927-7.771c1.334-1.75,3.856-2.088,5.604-0.754L139.058,90.502z"/>
	</g>
	<g>
		<g>
			<path fill="#5D439C" d="M100.565,72.678l-2.298,4.006c-1.334,1.748-0.995,4.273,0.753,5.607l29.26,22.344
				c1.748,1.334,4.271,0.996,5.604-0.754l2.115-3.766L100.565,72.678z"/>
		</g>
	</g>
	<g>
		<path fill="#2C1A4D" d="M130.699,106.7c-1.16,0-2.258-0.371-3.177-1.072l-29.26-22.344c-1.11-0.848-1.825-2.082-2.012-3.476
			s0.177-2.773,1.024-3.884l5.926-7.771c0.999-1.31,2.522-2.062,4.18-2.062c1.159,0,2.258,0.371,3.177,1.072l29.259,22.344
			c1.11,0.848,1.825,2.082,2.013,3.476c0.187,1.394-0.177,2.773-1.024,3.884l-5.926,7.771
			C133.88,105.949,132.356,106.7,130.699,106.7z M107.38,68.593c-0.871,0-1.67,0.393-2.192,1.077l-5.927,7.771
			c-0.443,0.581-0.633,1.303-0.535,2.035c0.098,0.732,0.472,1.379,1.052,1.821l29.26,22.344c1.167,0.892,2.967,0.644,3.852-0.518
			l5.926-7.771c0.443-0.581,0.633-1.303,0.534-2.035c-0.098-0.732-0.472-1.379-1.052-1.821L109.04,69.152
			C108.561,68.786,107.987,68.593,107.38,68.593z"/>
	</g>
	<g>
		<path fill="#FFFFFF" d="M134.457,94.461c-0.329,0-0.661-0.108-0.938-0.33l-11.859-9.514c-0.646-0.518-0.75-1.462-0.231-2.108
			c0.518-0.647,1.461-0.75,2.108-0.231l11.859,9.514c0.646,0.518,0.75,1.462,0.231,2.108
			C135.332,94.269,134.896,94.461,134.457,94.461z"/>
	</g>
	<g>
		<path fill="#FFFFFF" d="M116.117,80c-0.313,0-0.629-0.098-0.899-0.3l-8.656-6.498c-0.663-0.498-0.796-1.438-0.299-2.1
			c0.498-0.663,1.437-0.797,2.1-0.299l8.656,6.498c0.663,0.498,0.796,1.438,0.299,2.1C117.023,79.793,116.573,80,116.117,80z"/>
	</g>
	<g>
		<path fill="#2C1A4D" d="M94.23,83.225c-0.264,0-0.531-0.083-0.757-0.256c-0.549-0.419-0.655-1.203-0.236-1.752l13.947-18.287
			c0.419-0.549,1.204-0.654,1.752-0.236c0.549,0.419,0.655,1.203,0.236,1.752L95.226,82.732
			C94.979,83.055,94.607,83.225,94.23,83.225z"/>
	</g>
	<g>
		<path fill="#2C1A4D" d="M146.685,144.16c-5.869,0-10.644-4.775-10.644-10.645s4.774-10.645,10.644-10.645
			s10.644,4.775,10.644,10.645S152.554,144.16,146.685,144.16z M146.685,125.371c-4.49,0-8.144,3.653-8.144,8.145
			s3.653,8.145,8.144,8.145s8.144-3.653,8.144-8.145S151.175,125.371,146.685,125.371z"/>
	</g>
</g>
<g id="stars1">
	<path fill="#2C1A4D" d="M206.466,94.67h-1.439v-1.438c0-0.829-0.672-1.5-1.5-1.5s-1.5,0.671-1.5,1.5v1.438h-1.438
		c-0.828,0-1.5,0.671-1.5,1.5s0.672,1.5,1.5,1.5h1.438v1.439c0,0.829,0.672,1.5,1.5,1.5s1.5-0.671,1.5-1.5V97.67h1.439
		c0.828,0,1.5-0.671,1.5-1.5S207.294,94.67,206.466,94.67z"/>
	<path fill="#2C1A4D" d="M75.282,150.723h-1.438v-1.439c0-0.828-0.671-1.5-1.5-1.5s-1.5,0.672-1.5,1.5v1.439h-1.439
		c-0.829,0-1.5,0.672-1.5,1.5s0.671,1.5,1.5,1.5h1.439v1.438c0,0.828,0.671,1.5,1.5,1.5s1.5-0.672,1.5-1.5v-1.438h1.438
		c0.829,0,1.5-0.672,1.5-1.5S76.111,150.723,75.282,150.723z"/>
	<path fill="#2C1A4D" d="M115.358,36.158h-1.438v-1.438c0-0.829-0.671-1.5-1.5-1.5s-1.5,0.671-1.5,1.5v1.438h-1.439
		c-0.829,0-1.5,0.671-1.5,1.5s0.671,1.5,1.5,1.5h1.439v1.439c0,0.829,0.671,1.5,1.5,1.5s1.5-0.671,1.5-1.5v-1.439h1.438
		c0.829,0,1.5-0.671,1.5-1.5S116.187,36.158,115.358,36.158z"/>
	<g>
		<circle fill="#FFFFFF" cx="63.312" cy="94.941" r="1.564"/>
		<path fill="#2C1A4D" d="M63.312,91.377c-1.965,0-3.564,1.599-3.564,3.564s1.599,3.564,3.564,3.564
			c1.966,0,3.565-1.599,3.565-3.564S65.278,91.377,63.312,91.377z M63.312,96.506c-0.863,0-1.564-0.702-1.564-1.564
			s0.702-1.564,1.564-1.564c0.863,0,1.565,0.702,1.565,1.564S64.176,96.506,63.312,96.506z"/>
	</g>
</g>
<g id="stars2">
	<path fill="#2C1A4D" d="M35.1,65.229h-2.775v-2.775c0-0.829-0.671-1.5-1.5-1.5s-1.5,0.671-1.5,1.5v2.775H26.55
		c-0.829,0-1.5,0.671-1.5,1.5s0.671,1.5,1.5,1.5h2.774v2.773c0,0.829,0.671,1.5,1.5,1.5s1.5-0.671,1.5-1.5v-2.773H35.1
		c0.829,0,1.5-0.671,1.5-1.5S35.928,65.229,35.1,65.229z"/>
	<path fill="#2C1A4D" d="M107.771,120.799h-2.775v-2.775c0-0.828-0.671-1.5-1.5-1.5s-1.5,0.672-1.5,1.5v2.775h-2.774
		c-0.829,0-1.5,0.672-1.5,1.5s0.671,1.5,1.5,1.5h2.774v2.773c0,0.828,0.671,1.5,1.5,1.5s1.5-0.672,1.5-1.5v-2.773h2.775
		c0.829,0,1.5-0.672,1.5-1.5S108.6,120.799,107.771,120.799z"/>
	<g>
		<circle fill="#FFFFFF" cx="212.076" cy="145.382" r="1.565"/>
		<path fill="#2C1A4D" d="M212.076,141.816c-1.966,0-3.564,1.6-3.564,3.566c0,1.966,1.599,3.564,3.564,3.564
			s3.565-1.599,3.565-3.564C215.642,143.416,214.042,141.816,212.076,141.816z M212.076,146.947c-0.862,0-1.564-0.702-1.564-1.564
			c0-0.863,0.702-1.566,1.564-1.566c0.863,0,1.565,0.703,1.565,1.566C213.642,146.245,212.939,146.947,212.076,146.947z"/>
	</g>
</g>
<g id="stars3">
	<path fill="#2C1A4D" d="M23.878,119.088h-1.438v-1.438c0-0.828-0.671-1.5-1.5-1.5s-1.5,0.672-1.5,1.5v1.438H18
		c-0.829,0-1.5,0.672-1.5,1.5s0.671,1.5,1.5,1.5h1.439v1.439c0,0.828,0.671,1.5,1.5,1.5s1.5-0.672,1.5-1.5v-1.439h1.438
		c0.829,0,1.5-0.672,1.5-1.5S24.707,119.088,23.878,119.088z"/>
	<g>
		<circle fill="#FFFFFF" cx="163.344" cy="63.308" r="1.565"/>
		<path fill="#2C1A4D" d="M163.344,59.742c-1.966,0-3.565,1.6-3.565,3.566c0,1.965,1.6,3.564,3.565,3.564s3.564-1.599,3.564-3.564
			C166.908,61.342,165.31,59.742,163.344,59.742z M163.344,64.873c-0.863,0-1.565-0.702-1.565-1.564
			c0-0.864,0.702-1.566,1.565-1.566c0.862,0,1.564,0.703,1.564,1.566C164.908,64.171,164.206,64.873,163.344,64.873z"/>
	</g>
	<g>
		<circle fill="#FFFFFF" cx="239.436" cy="104.345" r="1.564"/>
		<path fill="#2C1A4D" d="M239.436,100.781c-1.966,0-3.565,1.599-3.565,3.564s1.6,3.564,3.565,3.564s3.564-1.599,3.564-3.564
			S241.401,100.781,239.436,100.781z M239.436,105.91c-0.863,0-1.565-0.702-1.565-1.564c0-0.863,0.702-1.564,1.565-1.564
			c0.862,0,1.564,0.702,1.564,1.564C241,105.208,240.298,105.91,239.436,105.91z"/>
	</g>
</g>
<g id="kometa">
	<path fill="#2C1A4D" d="M90.647,10.107c-0.564-0.606-1.514-0.642-2.12-0.078l-33.62,31.237c-0.607,0.564-0.642,1.513-0.078,2.12
		c0.296,0.318,0.697,0.479,1.1,0.479c0.365,0,0.732-0.133,1.021-0.401l33.62-31.237C91.176,11.663,91.21,10.714,90.647,10.107z"/>
</g>
</svg>
