<?xml version="1.0" encoding="utf-8"?>
<!-- Generator: Adobe Illustrator 16.0.0, SVG Export Plug-In . SVG Version: 6.00 Build 0)  -->
<!DOCTYPE svg PUBLIC "-//W3C//DTD SVG 1.1//EN" "http://www.w3.org/Graphics/SVG/1.1/DTD/svg11.dtd">
<svg version="1.1" id="astronomia" xmlns="http://www.w3.org/2000/svg" xmlns:xlink="http://www.w3.org/1999/xlink" x="0px" y="0px"
	 width="260px" height="220px" viewBox="0 0 260 220" enable-background="new 0 0 260 220" xml:space="preserve">
<g id="kometa">
	<path fill="#2C1A4D" d="M134.635-33.758c-0.564-0.606-1.514-0.642-2.119-0.078L98.896-2.6c-0.607,0.564-0.643,1.514-0.078,2.12
		C99.112-0.161,99.514,0,99.917,0c0.365,0,0.732-0.133,1.021-0.401l33.619-31.237C135.164-32.202,135.197-33.151,134.635-33.758z"/>
</g>
<path class="white-element" d="M81.876,85.398L28.1,143.21l-66.458-61.813l53.773-57.815c0,0,23.547,32.105,31.717,39.849
	C56.039,71.874,81.876,85.398,81.876,85.398z"/>
<rect  class="white-element" x="84.037" y="-11.33" transform="matrix(-0.7395 -0.6731 0.6731 -0.7395 175.4262 64.5561)"  width="32.333" height="19.332"/>
<g id="others">
	<g>
		<ellipse fill="#D4F5FF" cx="146.395" cy="211.207" rx="54.729" ry="6.791"/>
	</g>
	<g>
		<rect x="143.05" y="113.387" fill="#7669C4" width="7.269" height="27.732"/>
	</g>
	<g>
		<path fill="#2C1A4D" d="M180.501,211.443c-0.612,0-1.188-0.379-1.41-0.989l-24.458-67.578c-0.281-0.778,0.121-1.64,0.899-1.921
			c0.78-0.283,1.639,0.12,1.921,0.898l24.458,67.578c0.282,0.777-0.121,1.641-0.899,1.922
			C180.843,211.415,180.671,211.443,180.501,211.443z"/>
	</g>
	<g>
		<path fill="#2C1A4D" d="M112.89,211.443c-0.169,0-0.342-0.028-0.51-0.09c-0.779-0.281-1.182-1.145-0.9-1.922l24.458-67.578
			c0.283-0.778,1.146-1.186,1.922-0.898c0.777,0.281,1.184,1.143,0.898,1.921L114.3,210.454
			C114.079,211.064,113.503,211.443,112.89,211.443z"/>
	</g>
	<g>
		<path fill="#2C1A4D" d="M146.695,211.443c-0.828,0-1.5-0.672-1.5-1.5v-67.578c0-0.828,0.672-1.5,1.5-1.5s1.5,0.672,1.5,1.5v67.578
			C148.195,210.771,147.523,211.443,146.695,211.443z"/>
	</g>
	<g>
		<path fill="#7669C4" d="M177.158,124.855c1.748,1.336,2.087,3.856,0.753,5.606l-0.854,1.119c-1.334,1.748-3.854,2.088-5.604,0.752
			l-19.229-14.685c-1.748-1.334-2.086-3.856-0.752-5.604l0.854-1.121c1.334-1.747,3.855-2.087,5.604-0.751L177.158,124.855z"/>
	</g>
	<g>
		<g>
			<path fill="#5D439C" d="M151.378,112.199c-1.207,1.74-0.853,4.158,0.847,5.455l19.229,14.682
				c1.687,1.287,4.081,1.006,5.446-0.584L151.378,112.199z"/>
		</g>
	</g>
	<g>
		<path fill="#2C1A4D" d="M173.871,134.402c-1.16,0-2.26-0.371-3.178-1.073l-19.229-14.683c-2.301-1.756-2.743-5.06-0.987-7.358
			l0.854-1.12c1-1.31,2.521-2.061,4.183-2.061c1.157,0,2.258,0.371,3.178,1.073l19.229,14.681c2.301,1.757,2.742,5.059,0.988,7.357
			l-0.855,1.12C177.051,133.65,175.527,134.402,173.871,134.402z M155.512,110.607c-0.871,0-1.671,0.393-2.193,1.076l-0.853,1.117
			c-0.921,1.207-0.688,2.938,0.519,3.856l19.229,14.683c1.167,0.895,2.968,0.646,3.854-0.518l0.854-1.119
			c0.919-1.205,0.688-2.938-0.52-3.855l-19.229-14.683C156.691,110.802,156.118,110.607,155.512,110.607z"/>
	</g>
	<g>
		<g>
			<path fill="#7B72D3" d="M178.746,110.481c0.87,0.671,1.036,1.939,0.369,2.814l-0.145,0.189c-0.67,0.875-1.928,1.041-2.798,0.367
				l-11.282-8.729c-0.869-0.672-1.035-1.939-0.369-2.814l0.146-0.191c0.667-0.875,1.925-1.041,2.795-0.367L178.746,110.481z"/>
		</g>
		<g>
			<path fill="#2C1A4D" d="M177.389,115.266c-0.666,0-1.298-0.216-1.824-0.623l-11.285-8.729c-1.305-1.008-1.553-2.898-0.551-4.212
				l0.146-0.193c0.568-0.745,1.436-1.174,2.377-1.174c0.666,0,1.297,0.216,1.824,0.624l11.281,8.73
				c1.307,1.006,1.555,2.897,0.553,4.211l-0.145,0.188C179.195,114.838,178.33,115.266,177.389,115.266z M166.252,102.335
				c-0.313,0-0.6,0.142-0.788,0.388l-0.147,0.193c-0.33,0.433-0.242,1.082,0.188,1.415l11.285,8.729
				c0.219,0.17,0.446,0.205,0.601,0.205c0.313,0,0.602-0.144,0.787-0.391l0.146-0.188c0.33-0.437,0.246-1.082-0.186-1.416
				l-11.283-8.73C166.633,102.371,166.404,102.335,166.252,102.335z"/>
		</g>
	</g>
	<g>
		<path fill="#7669C4" d="M157.698,107.694c1.747,1.336,2.087,3.858,0.753,5.608l-3.073,4.029c-1.334,1.748-3.856,2.088-5.604,0.752
			l-19.228-14.678c-1.748-1.336-2.087-3.859-0.753-5.609l3.074-4.029c1.334-1.75,3.855-2.088,5.604-0.754L157.698,107.694z"/>
	</g>
	<g>
		<path fill="#FFFFFF" d="M155.221,112.182c-0.262,0-0.525-0.082-0.75-0.25l-13.947-10.48c-0.553-0.415-0.664-1.199-0.248-1.75
			c0.414-0.552,1.199-0.663,1.75-0.249l13.947,10.482c0.553,0.415,0.663,1.199,0.248,1.75
			C155.977,112.01,155.602,112.182,155.221,112.182z"/>
	</g>
	<g>
		<path fill="#FFFFFF" d="M175.313,129.174c-0.266,0-0.533-0.084-0.76-0.257l-4.412-3.377c-0.549-0.42-0.65-1.204-0.231-1.753
			c0.42-0.547,1.202-0.651,1.753-0.232l4.413,3.377c0.548,0.42,0.649,1.203,0.231,1.752
			C176.061,129.005,175.688,129.174,175.313,129.174z"/>
	</g>
	<g>
		<path fill="#FFFFFF" d="M166.1,122.123c-0.266,0-0.533-0.084-0.76-0.257l-5.4-4.132c-0.547-0.42-0.649-1.203-0.23-1.752
			c0.42-0.547,1.205-0.651,1.753-0.233l5.397,4.131c0.551,0.42,0.652,1.204,0.234,1.753
			C166.848,121.954,166.475,122.123,166.1,122.123z"/>
	</g>
	<g>
		<path fill="#2C1A4D" d="M169.234,118.832c-0.271,0-0.541-0.087-0.771-0.268c-0.543-0.426-0.638-1.211-0.212-1.754l6.817-8.689
			c0.43-0.542,1.214-0.639,1.757-0.211c0.543,0.426,0.638,1.212,0.212,1.755l-6.819,8.688
			C169.973,118.668,169.605,118.832,169.234,118.832z"/>
	</g>
	<g>
		<path fill="#2C1A4D" d="M162.934,105.523c-0.268,0-0.535-0.085-0.765-0.262c-0.546-0.422-0.646-1.208-0.224-1.753l3.578-4.621
			c0.424-0.546,1.209-0.645,1.754-0.223c0.547,0.422,0.646,1.208,0.224,1.753l-3.578,4.621
			C163.677,105.357,163.307,105.523,162.934,105.523z"/>
	</g>
	<g>
		<path fill="#2C1A4D" d="M156.197,144.514h-19.104c-0.827,0-1.5-0.672-1.5-1.5s0.673-1.5,1.5-1.5h19.104c0.828,0,1.5,0.672,1.5,1.5
			S157.025,144.514,156.197,144.514z"/>
	</g>
	<g>
		<path fill="#2C1A4D" d="M182.658,117.791c-0.268,0-0.537-0.086-0.766-0.264l-3.652-2.834c-0.545-0.422-0.645-1.207-0.221-1.754
			c0.422-0.545,1.207-0.645,1.754-0.223l3.649,2.834c0.548,0.426,0.646,1.208,0.224,1.756
			C183.4,117.625,183.031,117.791,182.658,117.791z"/>
	</g>
	<g>
		<g>
			<path fill="#D4F5FF" d="M232.371,51.215c-2.854,2.854-6.01,6.91-8.986,7.789c-6.391,1.881-11.961-1.637-11.961,1.936
				c0,5.236,19.65,9.799,18.703,1.488c-0.794-6.963,4.85-2.184,5.489-4.393C237.152,52.727,234.236,49.348,232.371,51.215z"/>
		</g>
		<g>
			<path fill="#D4F5FF" d="M220.626,31.279c-11.532,0-20.914,9.382-20.914,20.914c0,11.532,9.382,20.914,20.914,20.914
				s20.914-9.382,20.914-20.914C241.54,40.661,232.158,31.279,220.626,31.279z M220.626,70.607
				c-10.087,0-18.298-8.156-18.403-18.219c0.176,0.396,0.364,0.73,0.543,1.005c0.914,1.402,2.301,2.345,3.447,2.345
				c0.924,0,1.52-0.607,1.52-1.549c0-1.157,0.834-1.61,2.193-2.252c1.309-0.617,2.936-1.385,2.936-3.449
				c0-2.716-1.803-3.228-2.993-3.566c-0.479-0.136-0.931-0.265-1.127-0.478c-0.373-0.4-0.636-1.557-0.862-2.576
				c-0.193-0.874-0.382-1.68-0.661-2.254c3.362-3.581,8.123-5.835,13.411-5.835c1.113,0,2.198,0.116,3.258,0.306
				c-0.738,1.271-3.654,6.669-0.266,7.421c3.85,0.855,6.412,4.275,6.84,6.84c0.43,2.565,4.702,2.992,4.702,0.428
				c0-1.921,1.196-4.081,1.801-5.045c1.321,2.537,2.079,5.412,2.079,8.465C239.04,62.347,230.779,70.607,220.626,70.607z"/>
		</g>
		<g>
			<path fill="#D4F5FF" d="M218.811,52.949c0.567,0,1.219-0.091,1.938-0.271c1.369-0.343,2.237-1.013,2.587-1.993
				c0.699-1.969-1.092-4.39-1.141-4.448c-0.032-0.056-0.828-1.356-2.153-1.356c-0.937,0-1.837,0.642-2.681,1.906
				c-1.315,1.976-1.719,3.769-1.104,4.921C216.563,52.274,217.251,52.949,218.811,52.949z"/>
		</g>
	</g>
	<g>
		<g>
			<rect x="143.05" y="113.387" fill="#5D439C" width="3.646" height="27.732"/>
		</g>
	</g>
	<g>
		<path fill="#2C1A4D" d="M151.568,142.369H141.8v-29.418h9.769V142.369L151.568,142.369z M144.3,139.869h4.769v-24.418H144.3
			V139.869z"/>
	</g>
	<g>
		<g>
			<path fill="#5D439C" d="M130.877,96.377l-1.084,1.42c-1.334,1.75-0.995,4.273,0.753,5.609l19.228,14.678
				c1.748,1.336,4.271,0.996,5.604-0.752l0.976-1.279L130.877,96.377z"/>
		</g>
	</g>
	<g>
		<path fill="#2C1A4D" d="M152.191,120.15c-1.159,0-2.258-0.371-3.178-1.073L129.788,104.4c-2.3-1.757-2.743-5.06-0.989-7.361
			l3.074-4.03c0.999-1.31,2.521-2.061,4.18-2.061c1.16,0,2.26,0.371,3.178,1.072l19.229,14.681c2.299,1.757,2.742,5.059,0.985,7.359
			l-3.07,4.027C155.372,119.398,153.85,120.15,152.191,120.15z M136.053,93.448c-0.871,0-1.67,0.393-2.191,1.077l-3.071,4.03
			c-0.92,1.206-0.688,2.937,0.521,3.858l19.228,14.678c1.168,0.892,2.968,0.644,3.853-0.518l3.072-4.028
			c0.92-1.206,0.688-2.937-0.518-3.857l-19.229-14.68C137.232,93.642,136.66,93.448,136.053,93.448z"/>
	</g>
	<g>
		<path fill="#7669C4" d="M139.059,90.502c1.748,1.334,2.086,3.859,0.752,5.607l-5.926,7.771c-1.334,1.75-3.856,2.088-5.604,0.754
			L99.021,82.29c-1.748-1.334-2.087-3.859-0.753-5.607l5.927-7.771c1.334-1.75,3.856-2.088,5.604-0.754L139.059,90.502z"/>
	</g>
	<g>
		<g>
			<path fill="#5D439C" d="M100.565,72.678l-2.298,4.006c-1.334,1.748-0.995,4.273,0.753,5.607l29.26,22.344
				c1.748,1.334,4.271,0.996,5.604-0.754l2.115-3.766L100.565,72.678z"/>
		</g>
	</g>
	<g>
		<path fill="#2C1A4D" d="M130.699,106.7c-1.16,0-2.258-0.371-3.177-1.072l-29.26-22.344c-1.11-0.848-1.825-2.082-2.012-3.476
			s0.177-2.773,1.024-3.884l5.926-7.771c0.999-1.31,2.522-2.062,4.18-2.062c1.159,0,2.258,0.371,3.177,1.072l29.259,22.344
			c1.107,0.848,1.824,2.082,2.013,3.476c0.187,1.394-0.177,2.773-1.024,3.884l-5.926,7.771
			C133.88,105.949,132.355,106.7,130.699,106.7z M107.38,68.593c-0.871,0-1.67,0.393-2.192,1.077l-5.927,7.771
			c-0.443,0.581-0.633,1.303-0.535,2.035s0.472,1.379,1.052,1.821l29.26,22.344c1.167,0.892,2.967,0.644,3.853-0.518l5.926-7.771
			c0.442-0.581,0.635-1.303,0.533-2.035c-0.098-0.732-0.472-1.379-1.052-1.821L109.04,69.152
			C108.561,68.786,107.987,68.593,107.38,68.593z"/>
	</g>
	<g>
		<path fill="#FFFFFF" d="M134.457,94.461c-0.329,0-0.661-0.108-0.938-0.33l-11.859-9.514c-0.646-0.518-0.75-1.462-0.231-2.108
			c0.518-0.647,1.461-0.75,2.108-0.231l11.859,9.514c0.646,0.518,0.75,1.462,0.229,2.108
			C135.332,94.269,134.896,94.461,134.457,94.461z"/>
	</g>
	<g>
		<path fill="#FFFFFF" d="M116.117,80c-0.313,0-0.629-0.098-0.899-0.3l-8.656-6.498c-0.663-0.498-0.796-1.438-0.299-2.1
			c0.498-0.663,1.437-0.797,2.1-0.299l8.656,6.498c0.663,0.498,0.796,1.438,0.299,2.1C117.023,79.793,116.573,80,116.117,80z"/>
	</g>
	<g>
		<path fill="#2C1A4D" d="M94.23,83.225c-0.264,0-0.531-0.083-0.757-0.256c-0.549-0.419-0.655-1.203-0.236-1.752l13.947-18.287
			c0.419-0.549,1.204-0.654,1.752-0.236c0.549,0.419,0.655,1.203,0.236,1.752L95.226,82.732
			C94.979,83.055,94.607,83.225,94.23,83.225z"/>
	</g>
	<g>
		<path fill="#2C1A4D" d="M146.686,144.16c-5.869,0-10.645-4.775-10.645-10.645c0-5.871,4.773-10.646,10.645-10.646
			c5.869,0,10.646,4.773,10.646,10.646C157.329,139.385,152.555,144.16,146.686,144.16z M146.686,125.371
			c-4.49,0-8.145,3.652-8.145,8.145c0,4.493,3.652,8.146,8.145,8.146c4.49,0,8.146-3.653,8.146-8.146
			C154.83,129.023,151.175,125.371,146.686,125.371z"/>
	</g>
</g>
<g id="star1">
	<path fill="#2C1A4D" d="M206.466,94.67h-1.438v-1.438c0-0.829-0.672-1.5-1.5-1.5c-0.826,0-1.5,0.671-1.5,1.5v1.438h-1.438
		c-0.826,0-1.5,0.671-1.5,1.5s0.674,1.5,1.5,1.5h1.438v1.439c0,0.829,0.674,1.5,1.5,1.5c0.828,0,1.5-0.671,1.5-1.5V97.67h1.438
		c0.828,0,1.5-0.671,1.5-1.5S207.294,94.67,206.466,94.67z"/>
</g>
<g id="star2">
	<path fill="#2C1A4D" d="M75.282,150.723h-1.438v-1.438c0-0.828-0.671-1.5-1.5-1.5c-0.829,0-1.5,0.672-1.5,1.5v1.438h-1.439
		c-0.829,0-1.5,0.672-1.5,1.5s0.671,1.5,1.5,1.5h1.439v1.438c0,0.828,0.671,1.5,1.5,1.5c0.829,0,1.5-0.672,1.5-1.5v-1.438h1.438
		c0.829,0,1.5-0.672,1.5-1.5S76.111,150.723,75.282,150.723z"/>
</g>
<g id="star3">
	<path fill="#2C1A4D" d="M115.358,36.158h-1.438V34.72c0-0.829-0.671-1.5-1.5-1.5s-1.5,0.671-1.5,1.5v1.438h-1.439
		c-0.829,0-1.5,0.671-1.5,1.5c0,0.829,0.671,1.5,1.5,1.5h1.439v1.439c0,0.829,0.671,1.5,1.5,1.5s1.5-0.671,1.5-1.5v-1.439h1.438
		c0.829,0,1.5-0.671,1.5-1.5C116.858,36.829,116.187,36.158,115.358,36.158z"/>
</g>
<g id="star4">
	<circle fill="#FFFFFF" cx="63.312" cy="94.941" r="1.564"/>
	<path fill="#2C1A4D" d="M63.312,91.377c-1.965,0-3.564,1.599-3.564,3.564c0,1.965,1.599,3.564,3.564,3.564
		c1.966,0,3.565-1.599,3.565-3.564C66.877,92.976,65.278,91.377,63.312,91.377z M63.312,96.506c-0.863,0-1.564-0.702-1.564-1.564
		c0-0.862,0.702-1.564,1.564-1.564c0.863,0,1.565,0.702,1.565,1.564C64.877,95.804,64.176,96.506,63.312,96.506z"/>
</g>
<g id="star8">
	<circle fill="#FFFFFF" cx="212.076" cy="145.382" r="1.565"/>
	<path fill="#2C1A4D" d="M212.076,141.816c-1.967,0-3.564,1.6-3.564,3.563s1.6,3.563,3.564,3.563c1.964,0,3.564-1.599,3.564-3.563
		C215.643,143.416,214.042,141.816,212.076,141.816z M212.076,146.947c-0.862,0-1.564-0.702-1.564-1.564
		c0-0.863,0.702-1.566,1.564-1.566c0.863,0,1.564,0.703,1.564,1.566C213.643,146.245,212.939,146.947,212.076,146.947z"/>
</g>
<g id="star6">
	<circle fill="#FFFFFF" cx="163.344" cy="63.308" r="1.565"/>
	<path fill="#2C1A4D" d="M163.344,59.742c-1.966,0-3.564,1.6-3.564,3.566c0,1.965,1.602,3.564,3.564,3.564
		c1.965,0,3.564-1.599,3.564-3.564C166.908,61.342,165.311,59.742,163.344,59.742z M163.344,64.873
		c-0.863,0-1.564-0.702-1.564-1.564c0-0.864,0.701-1.566,1.564-1.566c0.862,0,1.564,0.703,1.564,1.566
		C164.908,64.171,164.206,64.873,163.344,64.873z"/>
</g>
<g id="star5">
	<circle fill="#FFFFFF" cx="239.436" cy="104.345" r="1.564"/>
	<path fill="#2C1A4D" d="M239.436,100.781c-1.965,0-3.563,1.599-3.563,3.563c0,1.965,1.602,3.564,3.563,3.564
		c1.965,0,3.564-1.598,3.564-3.563C243,102.38,241.4,100.781,239.436,100.781z M239.436,105.91c-0.86,0-1.563-0.702-1.563-1.564
		c0-0.863,0.702-1.564,1.563-1.564c0.862,0,1.564,0.702,1.564,1.564C241,105.208,240.298,105.91,239.436,105.91z"/>
</g>
<line fill="none" x1="-64.833" y1="-31.5" x2="103.497" y2="-31.5"/>
<line fill="none" x1="-4.366" y1="97.892" x2="114.906" y2="-13.697"/>

<g id="star1-opt" display="none">
	<path display="inline" fill="#2C1A4D" d="M189.334,120.984h-1.438v-1.438c0-0.83-0.672-1.5-1.5-1.5s-1.5,0.67-1.5,1.5v1.438h-1.438
		c-0.826,0-1.5,0.671-1.5,1.5c0,0.828,0.674,1.5,1.5,1.5h1.438v1.438c0,0.828,0.672,1.5,1.5,1.5s1.5-0.672,1.5-1.5v-1.438h1.438
		c0.828,0,1.5-0.672,1.5-1.5C190.834,121.655,190.162,120.984,189.334,120.984z"/>
</g>
<g id="star2-opt" display="none">
	<path display="inline" fill="#2C1A4D" d="M58.15,177.037h-1.438V175.6c0-0.828-0.671-1.5-1.5-1.5s-1.5,0.672-1.5,1.5v1.438h-1.439
		c-0.829,0-1.5,0.672-1.5,1.5s0.671,1.5,1.5,1.5h1.439v1.438c0,0.828,0.671,1.5,1.5,1.5s1.5-0.672,1.5-1.5v-1.438h1.438
		c0.829,0,1.5-0.672,1.5-1.5S58.979,177.037,58.15,177.037z"/>
</g>
<g id="star3-opt" display="none">
	<path display="inline" fill="#2C1A4D" d="M98.226,62.473h-1.438v-1.438c0-0.829-0.671-1.5-1.5-1.5s-1.5,0.671-1.5,1.5v1.438h-1.439
		c-0.829,0-1.5,0.671-1.5,1.5c0,0.829,0.671,1.5,1.5,1.5h1.439v1.439c0,0.829,0.671,1.5,1.5,1.5s1.5-0.671,1.5-1.5v-1.439h1.438
		c0.829,0,1.5-0.671,1.5-1.5C99.726,63.144,99.055,62.473,98.226,62.473z"/>
</g>
<g id="star4-opt" display="none">
	<circle display="inline" fill="#FFFFFF" cx="46.18" cy="121.255" r="1.563"/>
	<path display="inline" fill="#2C1A4D" d="M46.18,117.691c-1.965,0-3.564,1.6-3.564,3.563s1.599,3.563,3.564,3.563
		c1.966,0,3.565-1.6,3.565-3.563S48.146,117.691,46.18,117.691z M46.18,122.82c-0.863,0-1.564-0.701-1.564-1.564
		c0-0.861,0.702-1.563,1.564-1.563c0.863,0,1.565,0.701,1.565,1.563C47.745,122.119,47.044,122.82,46.18,122.82z"/>
</g>
<g id="star7">
	<path fill="#2C1A4D" d="M43.976,117.398h-1.438v-1.438c0-0.83-0.672-1.5-1.5-1.5c-0.827,0-1.5,0.67-1.5,1.5v1.438H38.1
		c-0.826,0-1.5,0.672-1.5,1.5c0,0.83,0.674,1.5,1.5,1.5h1.438v1.439c0,0.828,0.673,1.5,1.5,1.5c0.828,0,1.5-0.672,1.5-1.5v-1.439
		h1.438c0.828,0,1.5-0.67,1.5-1.5C45.476,118.07,44.804,117.398,43.976,117.398z"/>
</g>
<g id="star9">
	<path fill="#2C1A4D" d="M104.852,118.292h-1.786v-1.741c0-1.006-0.834-1.816-1.862-1.816c-1.027,0-1.862,0.812-1.862,1.816v1.741
		h-1.784c-1.026,0-1.862,0.813-1.862,1.815c0,1.006,0.836,1.817,1.862,1.817h1.784v1.743c0,1.004,0.835,1.816,1.862,1.816
		c1.028,0,1.862-0.813,1.862-1.816v-1.743h1.786c1.028,0,1.862-0.813,1.862-1.817S105.88,118.292,104.852,118.292z"/>
</g>
<g id="star10">
	<path fill="#2C1A4D" d="M45.756,66.867H43.97v-1.741c0-1.006-0.834-1.817-1.862-1.817c-1.027,0-1.862,0.812-1.862,1.817v1.741
		h-1.784c-1.026,0-1.862,0.813-1.862,1.816c0,1.005,0.836,1.817,1.862,1.817h1.784v1.743c0,1.004,0.835,1.817,1.862,1.817
		c1.028,0,1.862-0.813,1.862-1.817V70.5h1.786c1.028,0,1.862-0.813,1.862-1.817C47.619,67.679,46.785,66.867,45.756,66.867z"/>
</g>
</svg>
