<?xml version="1.0" encoding="utf-8"?>
<!-- Generator: Adobe Illustrator 16.0.0, SVG Export Plug-In . SVG Version: 6.00 Build 0)  -->
<!DOCTYPE svg PUBLIC "-//W3C//DTD SVG 1.1//EN" "http://www.w3.org/Graphics/SVG/1.1/DTD/svg11.dtd">
<svg version="1.1" id="biologia" xmlns="http://www.w3.org/2000/svg" xmlns:xlink="http://www.w3.org/1999/xlink" x="0px" y="0px"
	 width="260px" height="220px" viewBox="0 0 260 220" enable-background="new 0 0 260 220" xml:space="preserve">
<g id="others">
	<g>
		<g>
			<path fill="#D4F5FF" d="M181.563,142.42c-0.828,0-1.5-0.672-1.5-1.5v-1.5c0-0.828,0.672-1.5,1.5-1.5s1.5,0.672,1.5,1.5v1.5
				C183.063,141.748,182.391,142.42,181.563,142.42z"/>
		</g>
		<g>
			<path fill="#D4F5FF" d="M174.146,191.043h-3.026c-0.828,0-1.5-0.672-1.5-1.5s0.672-1.5,1.5-1.5h3.026c0.828,0,1.5,0.672,1.5,1.5
				S174.975,191.043,174.146,191.043z M167.085,191.043h-3.026c-0.828,0-1.5-0.672-1.5-1.5s0.672-1.5,1.5-1.5h3.026
				c0.828,0,1.5,0.672,1.5,1.5S167.913,191.043,167.085,191.043z M160.023,191.043h-3.025c-0.828,0-1.5-0.672-1.5-1.5
				s0.672-1.5,1.5-1.5h3.025c0.828,0,1.5,0.672,1.5,1.5S160.854,191.043,160.023,191.043z M152.963,191.043h-3.025
				c-0.828,0-1.5-0.672-1.5-1.5s0.672-1.5,1.5-1.5h3.025c0.828,0,1.5,0.672,1.5,1.5S153.791,191.043,152.963,191.043z
				 M178.098,190.479c-0.563,0-1.104-0.317-1.356-0.861c-0.354-0.75-0.03-1.645,0.72-1.995c0.688-0.322,1.287-0.817,1.734-1.435
				c0.49-0.67,1.428-0.813,2.099-0.326c0.668,0.49,0.813,1.43,0.325,2.099c-0.745,1.021-1.742,1.842-2.885,2.377
				C178.527,190.432,178.313,190.479,178.098,190.479z M181.563,184.786c-0.828,0-1.5-0.672-1.5-1.5v-3.026
				c0-0.828,0.672-1.5,1.5-1.5s1.5,0.672,1.5,1.5v3.026C183.063,184.114,182.391,184.786,181.563,184.786z M181.563,177.727
				c-0.828,0-1.5-0.672-1.5-1.5V173.2c0-0.828,0.672-1.5,1.5-1.5s1.5,0.672,1.5,1.5v3.026
				C183.063,177.055,182.391,177.727,181.563,177.727z M181.563,170.664c-0.828,0-1.5-0.672-1.5-1.5v-3.025
				c0-0.828,0.672-1.5,1.5-1.5s1.5,0.672,1.5,1.5v3.025C183.063,169.992,182.391,170.664,181.563,170.664z M181.563,163.604
				c-0.828,0-1.5-0.672-1.5-1.5v-3.024c0-0.828,0.672-1.5,1.5-1.5s1.5,0.672,1.5,1.5v3.024
				C183.063,162.932,182.391,163.604,181.563,163.604z M181.563,156.542c-0.828,0-1.5-0.672-1.5-1.5v-3.026
				c0-0.828,0.672-1.5,1.5-1.5s1.5,0.672,1.5,1.5v3.026C183.063,155.87,182.391,156.542,181.563,156.542z M181.563,149.48
				c-0.828,0-1.5-0.672-1.5-1.5v-3.025c0-0.828,0.672-1.5,1.5-1.5s1.5,0.672,1.5,1.5v3.025
				C183.063,148.811,182.391,149.48,181.563,149.48z"/>
		</g>
		<g>
			<path fill="#D4F5FF" d="M145.885,191.043h-1.5c-0.828,0-1.5-0.672-1.5-1.5s0.672-1.5,1.5-1.5h1.5c0.828,0,1.5,0.672,1.5,1.5
				S146.713,191.043,145.885,191.043z"/>
		</g>
	</g>
	<g>
		<ellipse fill="#D4F5FF" cx="85.948" cy="210.676" rx="65.413" ry="5.264"/>
	</g>
	<g>
		<path fill="#2C1A4D" d="M69.537,190.119c-19.361,0-35.112-15.752-35.112-35.113c0-19.359,15.751-35.111,35.112-35.111
			c0.829,0,1.5,0.672,1.5,1.5s-0.671,1.5-1.5,1.5c-17.707,0-32.112,14.405-32.112,32.111c0,17.707,14.405,32.113,32.112,32.113
			c0.829,0,1.5,0.672,1.5,1.5S70.366,190.119,69.537,190.119z"/>
	</g>
	<g>
		<path fill="#649941" d="M89.906,171.379L57.268,88.061c-0.802-2.049,0.217-4.381,2.266-5.184l5.586-2.189
			c2.049-0.803,4.382,0.217,5.184,2.266l32.64,83.317"/>
	</g>
	<g>
		<g>
			<path fill="#517E34" d="M59.533,82.877c-2.049,0.803-3.068,3.135-2.266,5.184l32.639,83.318l6.567-2.572L62.614,81.67
				L59.533,82.877z"/>
		</g>
	</g>
	<g>
		<path fill="#2C1A4D" d="M89.907,172.629c-0.5,0-0.971-0.301-1.165-0.794L56.104,88.517c-1.055-2.696,0.279-5.748,2.974-6.804
			l5.586-2.189c1.303-0.51,2.729-0.481,4.016,0.082c1.288,0.563,2.278,1.59,2.788,2.892l32.64,83.318
			c0.251,0.643-0.065,1.367-0.708,1.619c-0.645,0.252-1.368-0.064-1.62-0.707L69.14,83.41c-0.266-0.68-0.785-1.217-1.46-1.513
			c-0.675-0.296-1.422-0.311-2.103-0.045l-5.586,2.189c-1.412,0.553-2.111,2.152-1.558,3.564l32.639,83.318
			c0.251,0.644-0.065,1.368-0.708,1.62C90.212,172.602,90.058,172.629,89.907,172.629z"/>
	</g>
	<g>
		<g>
			<path fill="#70BC28" d="M58.097,88.809c-2.048,0.803-3.067,3.135-2.265,5.184l26.626,67.971c0.803,2.05,3.135,3.068,5.184,2.267
				l6.242-2.444l-29.3-75.516L58.097,88.809z"/>
		</g>
		<g>
			<path fill="#98D84C" d="M102.012,154.303L75.386,86.332c-0.803-2.049-3.135-3.068-5.184-2.266l-5.618,2.201l29.3,75.516
				l5.863-2.297C101.795,158.684,102.813,156.352,102.012,154.303z"/>
		</g>
	</g>
	<g>
		<path fill="#2C1A4D" d="M86.193,165.753c-2.149,0-4.117-1.34-4.899-3.334L54.667,94.448c-1.055-2.695,0.278-5.748,2.973-6.804
			l12.105-4.742c0.611-0.239,1.251-0.36,1.905-0.36c2.149,0,4.117,1.34,4.899,3.334l26.626,67.972
			c1.055,2.694-0.279,5.746-2.973,6.803l-12.105,4.742C87.487,165.632,86.846,165.753,86.193,165.753z M71.651,85.042
			c-0.34,0-0.674,0.063-0.993,0.188l-12.105,4.742c-1.412,0.553-2.11,2.152-1.557,3.564l26.626,67.97
			c0.532,1.358,2.185,2.1,3.563,1.559l12.105-4.741c1.411-0.554,2.109-2.151,1.557-3.564l-26.626-67.97
			C73.812,85.744,72.78,85.042,71.651,85.042z"/>
	</g>
	<g>
		<path fill="#FFFFFF" d="M96.992,156.855c-0.664,0-1.29-0.399-1.546-1.057l-12.02-30.684c-0.334-0.854,0.086-1.817,0.94-2.151
			c0.854-0.336,1.817,0.087,2.151,0.94l12.02,30.684c0.334,0.854-0.086,1.816-0.94,2.151
			C97.398,156.818,97.193,156.855,96.992,156.855z"/>
	</g>
	<g>
		<path fill="#FFFFFF" d="M76.017,103.313c-0.664,0-1.29-0.4-1.546-1.056l-4.922-12.566c-0.334-0.854,0.086-1.817,0.94-2.151
			c0.854-0.336,1.817,0.086,2.151,0.94l4.922,12.566c0.334,0.854-0.086,1.817-0.94,2.151
			C76.423,103.276,76.218,103.313,76.017,103.313z"/>
	</g>
	<g>
		<circle fill="#95CC46" cx="66.344" cy="121.543" r="11"/>
	</g>
	<g>
		<g>
			<path fill="#63A022" d="M61.511,131.207c-5.468-2.646-7.755-9.227-5.108-14.693c1.341-2.771,3.694-4.721,6.399-5.629
				l7.285,20.742C67.385,132.617,64.304,132.561,61.511,131.207z"/>
		</g>
	</g>
	<g>
		<path fill="#2C1A4D" d="M66.344,133.793c-3.258,0-6.324-1.266-8.635-3.561c-2.321-2.308-3.604-5.379-3.615-8.65
			c-0.01-3.273,1.254-6.354,3.56-8.674c2.316-2.331,5.402-3.615,8.689-3.615c3.258,0,6.325,1.264,8.635,3.561
			c2.321,2.307,3.605,5.377,3.615,8.649c0.01,3.272-1.254,6.354-3.561,8.674C72.717,132.509,69.631,133.793,66.344,133.793z
			 M66.344,111.793c-2.616,0-5.072,1.021-6.916,2.877c-1.835,1.848-2.842,4.299-2.833,6.903c0.008,2.604,1.03,5.051,2.876,6.886
			c1.839,1.827,4.28,2.834,6.873,2.834c2.616,0,5.072-1.021,6.916-2.877c1.836-1.848,2.842-4.299,2.834-6.902
			c-0.008-2.604-1.03-5.052-2.877-6.887C71.378,112.8,68.937,111.793,66.344,111.793z"/>
	</g>
	<g>
		<path fill="#FFFFFF" d="M70.22,126.885c-0.406,0-0.81-0.162-1.106-0.486c-0.56-0.608-0.519-1.559,0.091-2.117
			c0.785-0.721,1.228-1.703,1.248-2.771c0.039-2.124-1.66-3.886-3.785-3.925c-0.828-0.016-1.487-0.699-1.472-1.527
			c0.015-0.828,0.67-1.479,1.527-1.473c3.779,0.07,6.797,3.201,6.729,6.98c-0.035,1.867-0.844,3.662-2.219,4.924
			C70.946,126.754,70.583,126.885,70.22,126.885z"/>
	</g>
	<g>
		<path fill="#517E34" d="M66.345,121.691c-0.039,0-0.076-0.018-0.104-0.043c-0.059-0.061-0.059-0.152-0.001-0.211
			c0.028-0.027,0.065-0.043,0.104-0.043c0.04,0,0.077,0.016,0.105,0.043c0.027,0.025,0.043,0.063,0.043,0.104
			c0,0.039-0.015,0.076-0.043,0.104C66.423,121.676,66.386,121.691,66.345,121.691z"/>
		<path fill="#2C1A4D" d="M66.345,123.691c-0.573,0-1.112-0.226-1.518-0.629c-0.831-0.832-0.837-2.189-0.013-3.027
			c0.883-0.852,2.219-0.814,3.025-0.036c0.431,0.431,0.654,0.97,0.654,1.544c0,0.563-0.224,1.105-0.616,1.505
			C67.476,123.458,66.92,123.691,66.345,123.691z M65.024,120.244c-0.338,0.345-0.531,0.814-0.531,1.299
			c0,0.486,0.198,0.964,0.543,1.309c0.743,0.722,1.902,0.693,2.593,0.024c0.001-0.001,0.003-0.002,0.004-0.004l-1.183-1.226
			l1.244,1.16c0.681-0.76,0.656-1.881-0.039-2.572C66.956,119.533,65.721,119.541,65.024,120.244z"/>
	</g>
	<g>
		<path fill="#95CC46" d="M76.343,189.543c-0.001-2.828-1.082-5.654-3.245-7.803c-4.309-4.281-11.275-4.26-15.556,0.049
			c-2.132,2.145-3.195,4.949-3.195,7.754c0,0-0.001,0-0.001,15h21.999L76.343,189.543z"/>
	</g>
	<g>
		<g>
			<path fill="#63A022" d="M57.542,181.789c-2.132,2.145-3.195,4.949-3.195,7.754c0,0-0.001,0-0.001,15h10.999v-25.998
				C62.517,178.545,59.691,179.625,57.542,181.789z"/>
		</g>
	</g>
	<g>
		<path fill="#2C1A4D" d="M77.594,205.793H53.095v-14.375c0-0.809,0-1.418,0.042-1.875h-0.041c0-3.26,1.264-6.326,3.559-8.635
			c2.316-2.331,5.402-3.615,8.689-3.615c3.258,0,6.325,1.266,8.635,3.561c2.33,2.313,3.613,5.399,3.614,8.689L77.594,205.793z
			 M55.595,203.293h19.499l-0.001-13.75c-0.001-2.618-1.022-5.074-2.876-6.916c-1.839-1.827-4.28-2.834-6.873-2.834
			c-2.616,0-5.072,1.021-6.916,2.877c-1.826,1.838-2.832,4.278-2.832,6.873C55.596,189.581,55.595,190.229,55.595,203.293z"/>
	</g>
	<g>
		<path fill="#FFFFFF" d="M71.343,196.203c-0.917,0-1.661-0.743-1.661-1.66v-5c0-1.166-0.455-2.259-1.279-3.078
			c-0.542-0.538-1.21-0.924-1.936-1.115c-0.887-0.232-1.415-1.144-1.181-2.029c0.235-0.887,1.141-1.412,2.03-1.182
			c1.289,0.342,2.474,1.022,3.427,1.973c1.455,1.443,2.258,3.373,2.259,5.433v5.001C73.003,195.46,72.26,196.203,71.343,196.203z"/>
	</g>
	<g>
		<path fill="#98D84C" d="M134.555,205.41c0,2.201-1.8,4-4,4h-89c-2.2,0-4-1.799-4-4l0,0c0-2.199,1.8-4,4-4h89
			C132.755,201.41,134.555,203.211,134.555,205.41L134.555,205.41z"/>
	</g>
	<g>
		<g>
			<path fill="#98D84C" d="M130.555,201.41H85.872v8h44.683c2.2,0,4-1.799,4-4C134.555,203.211,132.755,201.41,130.555,201.41z"/>
		</g>
		<g>
			<path fill="#70BC28" d="M41.555,201.41c-2.2,0-4,1.801-4,4c0,2.201,1.8,4,4,4h44.317v-8H41.555z"/>
		</g>
	</g>
	<g>
		<path fill="#2C1A4D" d="M130.555,210.66h-89c-2.895,0-5.25-2.355-5.25-5.25s2.355-5.25,5.25-5.25h89c2.896,0,5.25,2.355,5.25,5.25
			S133.449,210.66,130.555,210.66z M41.555,202.66c-1.516,0-2.75,1.232-2.75,2.75c0,1.517,1.234,2.75,2.75,2.75h89
			c1.519,0,2.75-1.233,2.75-2.75c0-1.518-1.231-2.75-2.75-2.75H41.555z"/>
	</g>
	<g>
		<path fill="#2C1A4D" d="M121.296,191.043H77.343c-0.829,0-1.5-0.672-1.5-1.5s0.671-1.5,1.5-1.5h43.953c0.829,0,1.5,0.672,1.5,1.5
			S122.125,191.043,121.296,191.043z"/>
	</g>
	<g>
		<path fill="#2C1A4D" d="M87.43,173.807c-0.497,0-0.966-0.298-1.162-0.787c-0.256-0.641,0.057-1.367,0.698-1.623l18.212-7.265
			c0.642-0.256,1.368,0.058,1.624,0.698c0.256,0.641-0.057,1.368-0.698,1.624l-18.212,7.264
			C87.741,173.777,87.584,173.807,87.43,173.807z"/>
	</g>
	<g>
		<path fill="#2C1A4D" d="M54.543,85.922c-0.497,0-0.966-0.298-1.162-0.788c-0.256-0.641,0.057-1.368,0.698-1.624l15.251-6.082
			c0.642-0.255,1.368,0.057,1.624,0.698s-0.057,1.368-0.698,1.624l-15.251,6.082C54.854,85.894,54.697,85.922,54.543,85.922z"/>
	</g>
	<g>
		<path fill="#517E34" d="M64.949,189.689c-0.039,0-0.076-0.018-0.104-0.043c-0.059-0.059-0.059-0.152,0-0.209
			c0.027-0.029,0.064-0.045,0.104-0.045c0.04,0,0.077,0.016,0.104,0.043c0.028,0.027,0.044,0.064,0.044,0.104
			s-0.015,0.076-0.043,0.104C65.026,189.674,64.989,189.689,64.949,189.689z"/>
		<path fill="#2C1A4D" d="M64.949,191.689c-0.56,0-1.09-0.215-1.494-0.604c-0.417-0.401-0.655-0.965-0.655-1.543
			c0-0.562,0.224-1.106,0.617-1.506c0.801-0.817,2.237-0.826,3.05-0.015c0.415,0.429,0.63,0.959,0.63,1.52s-0.215,1.092-0.605,1.495
			C66.04,191.475,65.509,191.689,64.949,191.689z M63.601,188.275c-0.34,0.379-0.503,0.812-0.503,1.266
			c0,0.482,0.184,0.938,0.518,1.284c0.745,0.747,1.965,0.713,2.655,0.015c0.338-0.345,0.53-0.814,0.53-1.298
			c0-0.5-0.207-0.985-0.566-1.333c-0.693-0.671-1.876-0.672-2.569-0.001c-0.001,0.001-0.003,0.003-0.005,0.005l1.184,1.225
			L63.601,188.275z"/>
	</g>
	<g>
		<path fill="#517E34" d="M64.949,189.689c-0.039,0-0.076-0.018-0.104-0.043c-0.059-0.059-0.059-0.152,0-0.209
			c0.027-0.029,0.064-0.045,0.104-0.045c0.04,0,0.077,0.016,0.104,0.043c0.028,0.027,0.044,0.064,0.044,0.104
			s-0.015,0.076-0.043,0.104C65.026,189.674,64.989,189.689,64.949,189.689z"/>
		<path fill="#2C1A4D" d="M64.949,191.689c-0.56,0-1.09-0.215-1.494-0.604c-0.417-0.401-0.655-0.965-0.655-1.543
			c0-0.562,0.224-1.106,0.617-1.506c0.801-0.817,2.237-0.826,3.05-0.015c0.415,0.429,0.63,0.959,0.63,1.52s-0.215,1.092-0.605,1.495
			C66.04,191.475,65.509,191.689,64.949,191.689z M63.601,188.275c-0.34,0.379-0.503,0.812-0.503,1.266
			c0,0.482,0.184,0.938,0.518,1.284c0.745,0.747,1.965,0.713,2.655,0.015c0.338-0.345,0.53-0.814,0.53-1.298
			c0-0.5-0.207-0.985-0.566-1.333c-0.693-0.671-1.876-0.672-2.569-0.001c-0.001,0.001-0.003,0.003-0.005,0.005l1.184,1.225
			L63.601,188.275z"/>
	</g>
	<g>
		<path fill="#2C1A4D" d="M112.805,190.166c-0.69,0-1.25-0.561-1.25-1.25v-2.449c0-0.638-0.818-1.197-1.75-1.197H91.671
			c-0.932,0-1.75,0.562-1.75,1.197v2.449c0,0.689-0.56,1.25-1.25,1.25s-1.25-0.561-1.25-1.25v-2.449c0-2.039,1.907-3.697,4.25-3.697
			h18.134c2.343,0,4.25,1.658,4.25,3.697v2.449C114.055,189.605,113.495,190.166,112.805,190.166z"/>
	</g>
	<g>
		<path fill="#FFFFFF" d="M128.805,207.07h-7c-0.917,0-1.661-0.743-1.661-1.66s0.744-1.66,1.661-1.66h7
			c0.917,0,1.661,0.743,1.661,1.66S129.722,207.07,128.805,207.07z"/>
	</g>
</g>
<g id="monitor">
	<g>
		<path fill="#2C1A4D" d="M229.559,133.92h-1.436c-0.828,0-1.5-0.672-1.5-1.5s0.672-1.5,1.5-1.5h1.436
			c0.451,0,0.903-0.036,1.344-0.105c0.82-0.144,1.59,0.426,1.721,1.242c0.132,0.816-0.424,1.588-1.242,1.719
			C230.781,133.871,230.169,133.92,229.559,133.92z M224.09,133.92h-3.023c-0.828,0-1.5-0.672-1.5-1.5s0.672-1.5,1.5-1.5h3.023
			c0.828,0,1.5,0.672,1.5,1.5S224.918,133.92,224.09,133.92z M217.033,133.92h-3.025c-0.828,0-1.5-0.672-1.5-1.5s0.672-1.5,1.5-1.5
			h3.025c0.828,0,1.5,0.672,1.5,1.5S217.861,133.92,217.033,133.92z M209.977,133.92h-3.024c-0.828,0-1.5-0.672-1.5-1.5
			s0.672-1.5,1.5-1.5h3.024c0.828,0,1.5,0.672,1.5,1.5S210.805,133.92,209.977,133.92z M202.918,133.92h-3.023
			c-0.828,0-1.5-0.672-1.5-1.5s0.672-1.5,1.5-1.5h3.023c0.828,0,1.5,0.672,1.5,1.5S203.746,133.92,202.918,133.92z M195.859,133.92
			h-3.023c-0.828,0-1.5-0.672-1.5-1.5s0.672-1.5,1.5-1.5h3.023c0.828,0,1.5,0.672,1.5,1.5S196.688,133.92,195.859,133.92z
			 M188.803,133.92h-3.023c-0.827,0-1.5-0.672-1.5-1.5s0.673-1.5,1.5-1.5h3.023c0.828,0,1.5,0.672,1.5,1.5
			S189.631,133.92,188.803,133.92z M181.745,133.92h-3.024c-0.828,0-1.5-0.672-1.5-1.5s0.672-1.5,1.5-1.5h3.024
			c0.828,0,1.5,0.672,1.5,1.5S182.573,133.92,181.745,133.92z M174.688,133.92h-3.022c-0.828,0-1.5-0.672-1.5-1.5s0.672-1.5,1.5-1.5
			h3.022c0.828,0,1.5,0.672,1.5,1.5S175.516,133.92,174.688,133.92z M167.631,133.92h-3.025c-0.828,0-1.5-0.672-1.5-1.5
			s0.672-1.5,1.5-1.5h3.025c0.828,0,1.5,0.672,1.5,1.5S168.459,133.92,167.631,133.92z M160.573,133.92h-3.025
			c-0.827,0-1.5-0.672-1.5-1.5s0.673-1.5,1.5-1.5h3.025c0.827,0,1.5,0.672,1.5,1.5S161.4,133.92,160.573,133.92z M153.516,133.92
			h-3.022c-0.828,0-1.5-0.672-1.5-1.5s0.672-1.5,1.5-1.5h3.022c0.828,0,1.5,0.672,1.5,1.5S154.344,133.92,153.516,133.92z
			 M146.458,133.92h-3.024c-0.828,0-1.5-0.672-1.5-1.5s0.672-1.5,1.5-1.5h3.024c0.828,0,1.5,0.672,1.5,1.5
			S147.286,133.92,146.458,133.92z M139.4,133.92h-3.024c-0.828,0-1.5-0.672-1.5-1.5s0.672-1.5,1.5-1.5h3.024
			c0.828,0,1.5,0.672,1.5,1.5S140.229,133.92,139.4,133.92z M132.346,133.908c-0.025,0-0.051-0.001-0.076-0.002
			c-1.164-0.059-2.307-0.291-3.396-0.695c-0.777-0.287-1.173-1.15-0.886-1.927c0.288-0.777,1.153-1.177,1.928-0.886
			c0.803,0.297,1.646,0.47,2.504,0.512c0.827,0.041,1.465,0.744,1.424,1.572C133.803,133.284,133.141,133.908,132.346,133.908z
			 M234.887,132.372c-0.496,0-0.982-0.246-1.269-0.697c-0.443-0.698-0.236-1.626,0.464-2.069c0.727-0.461,1.378-1.024,1.938-1.682
			c0.539-0.629,1.483-0.704,2.115-0.166c0.631,0.538,0.704,1.485,0.166,2.115c-0.755,0.883-1.634,1.646-2.613,2.266
			C235.438,132.297,235.161,132.372,234.887,132.372z M125.989,131.191c-0.369,0-0.739-0.135-1.028-0.407
			c-0.846-0.798-1.565-1.714-2.137-2.722c-0.409-0.723-0.156-1.639,0.565-2.045c0.722-0.41,1.637-0.154,2.044,0.563
			c0.424,0.748,0.958,1.427,1.585,2.02c0.603,0.567,0.631,1.519,0.062,2.12C126.786,131.034,126.388,131.191,125.989,131.191z
			 M239.104,126.896c-0.146,0-0.299-0.021-0.449-0.068c-0.789-0.248-1.229-1.09-0.979-1.881c0.257-0.814,0.388-1.665,0.388-2.527
			c0-0.828,0.672-1.521,1.5-1.521s1.5,0.651,1.5,1.479v0.041c0,1.168-0.179,2.321-0.524,3.429
			C240.333,126.488,239.741,126.896,239.104,126.896z M122.894,125.014c-0.755,0-1.405-0.568-1.489-1.336
			c-0.046-0.418-0.069-0.843-0.068-1.26v-1.927c0-0.828,0.671-1.5,1.5-1.5s1.5,0.672,1.5,1.5v1.929c0,0.314,0.017,0.625,0.051,0.93
			c0.09,0.823-0.504,1.564-1.327,1.655C123.004,125.011,122.948,125.014,122.894,125.014z M239.559,119.846
			c-0.828,0-1.5-0.672-1.5-1.5v-3.022c0-0.828,0.672-1.5,1.5-1.5s1.5,0.672,1.5,1.5v3.022
			C241.059,119.174,240.387,119.846,239.559,119.846z M122.836,117.959c-0.829,0-1.5-0.672-1.5-1.5v-3.023
			c0-0.828,0.671-1.5,1.5-1.5s1.5,0.672,1.5,1.5v3.023C124.336,117.287,123.665,117.959,122.836,117.959z M239.559,112.789
			c-0.828,0-1.5-0.672-1.5-1.5v-3.025c0-0.829,0.672-1.5,1.5-1.5s1.5,0.671,1.5,1.5v3.025
			C241.059,112.117,240.387,112.789,239.559,112.789z M122.836,110.9c-0.829,0-1.5-0.67-1.5-1.5v-3.025c0-0.829,0.671-1.5,1.5-1.5
			s1.5,0.671,1.5,1.5v3.025C124.336,110.23,123.665,110.9,122.836,110.9z M239.559,105.731c-0.828,0-1.5-0.671-1.5-1.5v-3.024
			c0-0.829,0.672-1.5,1.5-1.5s1.5,0.671,1.5,1.5v3.024C241.059,105.06,240.387,105.731,239.559,105.731z M122.836,103.844
			c-0.829,0-1.5-0.671-1.5-1.5V99.32c0-0.829,0.671-1.5,1.5-1.5s1.5,0.671,1.5,1.5v3.024
			C124.336,103.172,123.665,103.844,122.836,103.844z M239.559,98.674c-0.828,0-1.5-0.671-1.5-1.5v-3.025c0-0.829,0.672-1.5,1.5-1.5
			s1.5,0.671,1.5,1.5v3.025C241.059,98.002,240.387,98.674,239.559,98.674z M122.836,96.786c-0.829,0-1.5-0.671-1.5-1.5v-3.024
			c0-0.829,0.671-1.5,1.5-1.5s1.5,0.671,1.5,1.5v3.024C124.336,96.115,123.665,96.786,122.836,96.786z M239.559,91.616
			c-0.828,0-1.5-0.671-1.5-1.5v-3.024c0-0.829,0.672-1.5,1.5-1.5s1.5,0.671,1.5,1.5v3.024
			C241.059,90.945,240.387,91.616,239.559,91.616z M122.836,89.729c-0.829,0-1.5-0.671-1.5-1.5v-3.025c0-0.829,0.671-1.5,1.5-1.5
			s1.5,0.671,1.5,1.5v3.025C124.336,89.058,123.665,89.729,122.836,89.729z M239.559,84.559c-0.828,0-1.5-0.671-1.5-1.5v-3.024
			c0-0.829,0.672-1.5,1.5-1.5s1.5,0.671,1.5,1.5v3.024C241.059,83.887,240.387,84.559,239.559,84.559z M122.836,82.671
			c-0.829,0-1.5-0.671-1.5-1.5v-3.024c0-0.829,0.671-1.5,1.5-1.5s1.5,0.671,1.5,1.5v3.024C124.336,82,123.665,82.671,122.836,82.671
			z M239.559,77.501c-0.828,0-1.5-0.671-1.5-1.5v-3.025c0-0.829,0.672-1.5,1.5-1.5s1.5,0.671,1.5,1.5v3.025
			C241.059,76.83,240.387,77.501,239.559,77.501z M122.836,75.614c-0.829,0-1.5-0.671-1.5-1.5V71.09c0-0.829,0.671-1.5,1.5-1.5
			s1.5,0.671,1.5,1.5v3.024C124.336,74.942,123.665,75.614,122.836,75.614z M239.559,70.444c-0.828,0-1.5-0.671-1.5-1.5v-3.025
			c0-0.829,0.672-1.5,1.5-1.5s1.5,0.671,1.5,1.5v3.025C241.059,69.772,240.387,70.444,239.559,70.444z M122.836,68.557
			c-0.829,0-1.5-0.671-1.5-1.5v-3.025c0-0.829,0.671-1.5,1.5-1.5s1.5,0.671,1.5,1.5v3.025
			C124.336,67.885,123.665,68.557,122.836,68.557z M239.559,63.386c-0.828,0-1.5-0.671-1.5-1.5v-1.908
			c0.002-0.323-0.018-0.638-0.052-0.947c-0.093-0.823,0.5-1.565,1.323-1.658c0.822-0.093,1.564,0.5,1.656,1.324
			c0.05,0.429,0.072,0.861,0.072,1.285v1.904C241.059,62.715,240.387,63.386,239.559,63.386z M122.836,61.489
			c-0.829,0-1.5-0.661-1.5-1.49v-0.021c0-1.159,0.174-2.305,0.518-3.404c0.246-0.792,1.088-1.232,1.878-0.985
			c0.791,0.247,1.232,1.088,0.985,1.879c-0.252,0.811-0.381,1.655-0.381,2.511C124.336,60.807,123.665,61.489,122.836,61.489z
			 M238.256,56.558c-0.521,0-1.027-0.272-1.305-0.758c-0.426-0.746-0.959-1.423-1.588-2.014c-0.604-0.567-0.635-1.517-0.067-2.121
			c0.565-0.604,1.519-0.633,2.12-0.067c0.85,0.796,1.568,1.71,2.143,2.717c0.41,0.72,0.158,1.636-0.562,2.046
			C238.764,56.495,238.508,56.558,238.256,56.558z M125.221,55.015c-0.344,0-0.689-0.117-0.971-0.357
			c-0.631-0.537-0.708-1.483-0.171-2.114c0.753-0.885,1.631-1.65,2.609-2.273c0.7-0.445,1.626-0.239,2.071,0.46
			c0.445,0.699,0.239,1.626-0.46,2.071c-0.726,0.461-1.376,1.028-1.935,1.685C126.067,54.835,125.645,55.015,125.221,55.015z
			 M232.982,52.086c-0.172,0-0.349-0.03-0.519-0.092c-0.806-0.295-1.647-0.466-2.506-0.506c-0.827-0.039-1.467-0.741-1.429-1.569
			c0.037-0.828,0.713-1.47,1.568-1.428c1.162,0.055,2.305,0.286,3.397,0.687c0.778,0.286,1.177,1.147,0.892,1.925
			C234.168,51.71,233.594,52.086,232.982,52.086z M131.23,51.608c-0.724,0-1.358-0.523-1.479-1.259
			c-0.133-0.818,0.422-1.588,1.239-1.721c0.604-0.098,1.224-0.148,1.843-0.149h1.416c0.828,0,1.5,0.671,1.5,1.5s-0.672,1.5-1.5,1.5
			h-1.415c-0.457,0-0.916,0.038-1.359,0.11C131.393,51.602,131.313,51.608,131.23,51.608z M225.998,51.479h-3.023
			c-0.828,0-1.5-0.671-1.5-1.5s0.672-1.5,1.5-1.5h3.023c0.828,0,1.5,0.671,1.5,1.5S226.826,51.479,225.998,51.479z M218.939,51.479
			h-3.023c-0.828,0-1.5-0.671-1.5-1.5s0.672-1.5,1.5-1.5h3.023c0.828,0,1.5,0.671,1.5,1.5S219.77,51.479,218.939,51.479z
			 M211.883,51.479h-3.023c-0.827,0-1.5-0.671-1.5-1.5s0.673-1.5,1.5-1.5h3.023c0.828,0,1.5,0.671,1.5,1.5
			S212.711,51.479,211.883,51.479z M204.826,51.479h-3.025c-0.828,0-1.5-0.671-1.5-1.5s0.672-1.5,1.5-1.5h3.025
			c0.828,0,1.5,0.671,1.5,1.5S205.654,51.479,204.826,51.479z M197.77,51.479h-3.024c-0.828,0-1.5-0.671-1.5-1.5s0.672-1.5,1.5-1.5
			h3.024c0.828,0,1.5,0.671,1.5,1.5S198.598,51.479,197.77,51.479z M190.711,51.479h-3.023c-0.828,0-1.5-0.671-1.5-1.5
			s0.672-1.5,1.5-1.5h3.023c0.828,0,1.5,0.671,1.5,1.5S191.539,51.479,190.711,51.479z M183.652,51.479h-3.023
			c-0.828,0-1.5-0.671-1.5-1.5s0.672-1.5,1.5-1.5h3.023c0.828,0,1.5,0.671,1.5,1.5S184.48,51.479,183.652,51.479z M176.596,51.479
			h-3.022c-0.828,0-1.5-0.671-1.5-1.5s0.672-1.5,1.5-1.5h3.022c0.828,0,1.5,0.671,1.5,1.5S177.424,51.479,176.596,51.479z
			 M169.538,51.479h-3.024c-0.828,0-1.5-0.671-1.5-1.5s0.672-1.5,1.5-1.5h3.024c0.828,0,1.5,0.671,1.5,1.5
			S170.366,51.479,169.538,51.479z M162.48,51.479h-3.024c-0.828,0-1.5-0.671-1.5-1.5s0.672-1.5,1.5-1.5h3.024
			c0.828,0,1.5,0.671,1.5,1.5S163.309,51.479,162.48,51.479z M155.424,51.479h-3.025c-0.828,0-1.5-0.671-1.5-1.5s0.672-1.5,1.5-1.5
			h3.025c0.828,0,1.5,0.671,1.5,1.5S156.252,51.479,155.424,51.479z M148.366,51.479h-3.025c-0.827,0-1.5-0.671-1.5-1.5
			s0.673-1.5,1.5-1.5h3.025c0.827,0,1.5,0.671,1.5,1.5S149.193,51.479,148.366,51.479z M141.309,51.479h-3.022
			c-0.828,0-1.5-0.671-1.5-1.5s0.672-1.5,1.5-1.5h3.022c0.828,0,1.5,0.671,1.5,1.5S142.137,51.479,141.309,51.479z"/>
	</g>
</g>
<g id="baqteria1">
	<g>
		<path fill="#D4F5FF" d="M179.598,79.204c0.031,0.002,0.063,0.003,0.09,0.003c0.787,0,1.449-0.615,1.496-1.412
			c0.049-0.827-0.582-1.537-1.41-1.585l-3.279-0.192c-0.115-0.68-0.299-1.35-0.537-2.002l3.447-2.749
			c0.648-0.516,0.758-1.46,0.238-2.107c-0.514-0.646-1.457-0.756-2.105-0.238l-3.023,2.411c-0.295-0.4-0.604-0.791-0.953-1.158
			c-0.242-0.253-0.496-0.489-0.756-0.716l1.846-4.854c0.293-0.774-0.096-1.641-0.869-1.936c-0.773-0.29-1.641,0.095-1.938,0.869
			l-1.615,4.249c-0.926-0.435-1.904-0.737-2.928-0.903l-0.018-2.318c-0.008-0.828-0.691-1.494-1.514-1.488
			c-0.828,0.007-1.494,0.683-1.486,1.512l0.018,2.202c-2.449,0.257-4.74,1.308-6.545,3.032c-2.732,2.616-3.953,6.4-3.25,10.18
			l0.115,0.516c0.643,2.953-0.277,5.961-2.459,8.045c-0.777,0.744-1.658,1.32-2.629,1.724l-1.959-2.204
			c-0.555-0.62-1.5-0.676-2.119-0.125s-0.676,1.498-0.123,2.117l1.252,1.409c-0.916,0.482-1.766,1.091-2.523,1.819
			c-0.104,0.099-0.195,0.207-0.293,0.309l-3.813-2.785c-0.669-0.488-1.604-0.343-2.099,0.326c-0.486,0.669-0.342,1.607,0.328,2.096
			l3.793,2.771c-0.414,0.757-0.729,1.562-0.959,2.396l-2.738-0.502c-0.812-0.15-1.596,0.39-1.744,1.205
			c-0.149,0.814,0.391,1.597,1.205,1.746l2.878,0.528c0.002,1.392,0.248,2.748,0.735,4.013l-3.689,1.545
			c-0.766,0.32-1.125,1.198-0.807,1.963c0.24,0.575,0.8,0.921,1.387,0.921c0.191,0,0.389-0.037,0.576-0.116l4.002-1.675
			c0.273,0.367,0.564,0.726,0.888,1.062c0.44,0.462,0.92,0.869,1.422,1.242l-2.625,2.948c-0.551,0.618-0.496,1.565,0.123,2.117
			c0.285,0.255,0.644,0.38,0.996,0.38c0.414,0,0.826-0.17,1.121-0.503l3.084-3.463c0.996,0.376,2.047,0.608,3.135,0.688l0.33,2.724
			c0.095,0.761,0.74,1.317,1.488,1.317c0.062,0,0.12-0.005,0.184-0.012c0.822-0.102,1.406-0.848,1.308-1.671l-0.31-2.534
			c2.072-0.406,3.99-1.396,5.545-2.884c2.613-2.501,3.859-6.133,3.332-9.716c-0.026-0.177-0.057-0.354-0.092-0.528l-0.058-0.695
			l-0.028-0.191c-0.642-2.982,0.078-5.416,2.194-7.439c0.897-0.859,2.427-1.778,3.632-2.185l0.258-0.111
			c1.662-0.507,3.201-1.409,4.459-2.614c0.594-0.568,1.106-1.189,1.547-1.846l2.83,1.434c0.217,0.11,0.447,0.162,0.676,0.162
			c0.548,0,1.074-0.301,1.341-0.822c0.375-0.738,0.078-1.642-0.66-2.016l-2.862-1.451c0.262-0.785,0.43-1.594,0.512-2.41
			L179.598,79.204z M147.385,104.488c-1.654,0-3-1.344-3-3c0-1.654,1.346-2.998,3-2.998c1.656,0,3,1.344,3,2.998
			C150.385,103.145,149.041,104.488,147.385,104.488z M150.814,95.215c0-1.336,1.084-2.42,2.42-2.42c1.334,0,2.42,1.084,2.42,2.42
			s-1.086,2.42-2.42,2.42C151.898,97.635,150.814,96.551,150.814,95.215z M156.654,105.674c-1.656,0-3-1.344-3-2.998
			c0-1.656,1.344-3,3-3c1.654,0,3,1.344,3,3C159.654,104.33,158.309,105.674,156.654,105.674z M158.801,89.605
			c-1.336,0-2.42-1.084-2.42-2.42c0-1.334,1.084-2.418,2.42-2.418c1.334,0,2.42,1.084,2.42,2.418
			C161.221,88.521,160.135,89.605,158.801,89.605z M161.801,79.518c-1.656,0-3-1.344-3-3c0-1.654,1.344-2.998,3-2.998
			c1.654,0,3,1.344,3,2.998C164.801,78.174,163.455,79.518,161.801,79.518z M168.154,84.516c-1.334,0-2.42-1.084-2.42-2.42
			c0-1.334,1.086-2.418,2.42-2.418c1.336,0,2.42,1.084,2.42,2.418C170.574,83.432,169.49,84.516,168.154,84.516z M170.574,77.781
			c-1.334,0-2.42-1.084-2.42-2.42c0-1.336,1.086-2.42,2.42-2.42c1.336,0,2.42,1.084,2.42,2.42
			C172.994,76.697,171.91,77.781,170.574,77.781z"/>
	</g>
</g>
<g id="baqteria2">
	<g>
		<path fill="#D4F5FF" d="M199.727,73.038l-1.596-0.579c-0.029-0.472-0.123-0.927-0.289-1.348l1.256-1.076
			c0.42-0.359,0.469-0.99,0.109-1.41c-0.359-0.421-0.99-0.466-1.41-0.109l-1.107,0.949c-0.557-0.504-1.232-0.873-1.988-1.043
			l-0.002-0.225c-0.006-0.55-0.451-0.992-1-0.992c-0.004,0-0.008,0-0.01,0c-0.553,0.004-0.996,0.455-0.99,1.008l0.002,0.23
			c-0.607,0.146-1.158,0.42-1.641,0.788l-0.867-1.155c-0.33-0.443-0.957-0.531-1.396-0.2c-0.441,0.331-0.531,0.958-0.199,1.399
			l1.162,1.552c-0.266,0.552-0.426,1.161-0.438,1.811l-1.023,0.204c-0.543,0.107-0.895,0.634-0.785,1.176
			c0.094,0.476,0.512,0.805,0.979,0.805c0.063,0,0.131-0.006,0.196-0.02l1.047-0.208c0.283,0.607,0.705,1.132,1.22,1.552
			l-0.531,1.331c-0.204,0.513,0.046,1.095,0.56,1.299c0.121,0.049,0.246,0.071,0.371,0.071c0.396,0,0.771-0.238,0.929-0.63
			l0.471-1.179c0.317,0.072,0.646,0.119,0.983,0.119c0.601,0,1.171-0.122,1.691-0.339l0.366,0.491c0.197,0.263,0.496,0.4,0.802,0.4
			c0.209,0,0.42-0.065,0.6-0.2c0.441-0.331,0.531-0.958,0.199-1.399l-0.351-0.468c0.31-0.351,0.576-0.739,0.763-1.175l1.241,0.45
			c0.111,0.04,0.228,0.06,0.341,0.06c0.409,0,0.793-0.252,0.94-0.659C200.514,73.801,200.246,73.227,199.727,73.038z"/>
	</g>
</g>
<g id="baqteria3">
	<g>
		<path fill="#D4F5FF" d="M231.033,94.408c-0.334-0.759-1.219-1.104-1.977-0.772l-5.193,2.275c-0.691-1.275-1.574-2.433-2.604-3.442
			l1.205-2.604c0.35-0.752,0.021-1.644-0.729-1.991c-0.75-0.348-1.645-0.021-1.992,0.731l-0.904,1.954
			c-1.842-1.166-3.955-1.94-6.23-2.176v-5.035c0-0.828-0.672-1.5-1.5-1.5c-0.827,0-1.5,0.672-1.5,1.5v5.035
			c-1.479,0.153-2.896,0.532-4.213,1.099l-1.061-2.139c-0.369-0.742-1.271-1.044-2.012-0.677c-0.742,0.368-1.045,1.269-0.676,2.011
			l1.131,2.279c-0.957,0.675-1.826,1.463-2.594,2.344l-5.371-3.522c-0.689-0.455-1.623-0.262-2.076,0.432
			c-0.455,0.692-0.262,1.622,0.432,2.076l5.283,3.465c-0.65,1.164-1.141,2.428-1.451,3.76h-3.01c-0.828,0-1.5,0.672-1.5,1.5
			c0,0.828,0.672,1.5,1.5,1.5h2.633c-0.002,0.099-0.016,0.195-0.016,0.295c0,2.147,0.48,4.181,1.324,6.017l-2.449,0.881
			c-0.779,0.28-1.186,1.14-0.904,1.919c0.221,0.611,0.797,0.992,1.412,0.992c0.168,0,0.34-0.028,0.508-0.09l2.994-1.076
			c1.057,1.417,2.361,2.633,3.855,3.584l-1.668,2.988c-0.404,0.725-0.146,1.639,0.576,2.041c0.23,0.129,0.48,0.19,0.729,0.19
			c0.525,0,1.037-0.276,1.313-0.771l1.738-3.11c1.58,0.594,3.283,0.935,5.068,0.935c0.25,0,0.492-0.023,0.736-0.037l1.369,4.84
			c0.188,0.66,0.789,1.092,1.443,1.092c0.135,0,0.271-0.018,0.408-0.057c0.797-0.228,1.262-1.056,1.035-1.853l-1.271-4.49
			c2.369-0.631,4.502-1.844,6.23-3.481l1.928,2.156c0.295,0.33,0.705,0.5,1.119,0.5c0.355,0,0.713-0.127,0.998-0.384
			c0.617-0.553,0.672-1.5,0.119-2.118l-2.188-2.447c0.9-1.303,1.584-2.762,2.021-4.324l3.082,0.371
			c0.062,0.007,0.121,0.011,0.182,0.011c0.748,0,1.396-0.56,1.488-1.32c0.098-0.823-0.488-1.57-1.313-1.669l-2.939-0.354
			c0.02-0.311,0.047-0.62,0.047-0.936c0-1.432-0.215-2.812-0.604-4.118l5.254-2.303C231.02,96.05,231.365,95.166,231.033,94.408z
			 M212.291,101.485c-1.656,0-3-1.344-3-3c0-1.654,1.344-2.998,3-2.998c1.654,0,3,1.344,3,2.998
			C215.291,100.142,213.945,101.485,212.291,101.485z"/>
	</g>
</g>
<g id="baqteria4">
	<g>
		<path fill="#D4F5FF" d="M183.553,101.058l-3.117,0.535c-0.5-0.698-1.166-1.293-1.98-1.711c-0.045-0.023-0.096-0.04-0.143-0.062
			l0.543-1.91c0.152-0.531-0.154-1.084-0.688-1.235c-0.533-0.155-1.086,0.157-1.236,0.688l-0.549,1.932
			c-0.158-0.014-0.316-0.028-0.475-0.028c-0.873,0-1.707,0.21-2.459,0.577l-1.635-1.871c-0.363-0.415-0.996-0.459-1.412-0.095
			c-0.416,0.363-0.457,0.995-0.094,1.411l1.52,1.74c-0.352,0.376-0.654,0.804-0.898,1.278c-0.379,0.742-0.564,1.542-0.596,2.351
			l-1.371,0.235c-0.545,0.094-0.91,0.61-0.816,1.154c0.084,0.487,0.506,0.831,0.984,0.831c0.057,0,0.113-0.005,0.17-0.015
			l1.313-0.226c0.264,0.783,0.696,1.473,1.252,2.056l-1.796,1.671c-0.403,0.377-0.428,1.01-0.051,1.413
			c0.196,0.212,0.465,0.318,0.731,0.318c0.244,0,0.488-0.09,0.683-0.269l2.073-1.931c0.647,0.309,1.354,0.487,2.068,0.53
			l0.653,2.732c0.108,0.459,0.521,0.768,0.972,0.768c0.077,0,0.155-0.009,0.233-0.025c0.537-0.129,0.866-0.668,0.739-1.205
			l-0.6-2.51c1.252-0.39,2.327-1.213,3.043-2.347l1.493,0.752c0.146,0.072,0.3,0.106,0.449,0.106c0.364,0,0.719-0.201,0.896-0.551
			c0.248-0.493,0.049-1.095-0.445-1.343l-1.637-0.822c0.174-0.844,0.146-1.701-0.063-2.513l2.578-0.442
			c0.545-0.094,0.91-0.61,0.816-1.154S184.1,100.967,183.553,101.058z"/>
	</g>
</g>
<g id="Layer_6">
</g>
</svg>
