<?xml version="1.0" encoding="utf-8"?>
<!-- Generator: Adobe Illustrator 16.0.0, SVG Export Plug-In . SVG Version: 6.00 Build 0)  -->
<!DOCTYPE svg PUBLIC "-//W3C//DTD SVG 1.1//EN" "http://www.w3.org/Graphics/SVG/1.1/DTD/svg11.dtd">
<svg version="1.1" id="fizika" xmlns="http://www.w3.org/2000/svg" xmlns:xlink="http://www.w3.org/1999/xlink" x="0px" y="0px"
	 width="260px" height="220px" viewBox="0 0 260 220" enable-background="new 0 0 260 220" xml:space="preserve">
<g id="bubble1-newton">
	<g>
		<g>
			<g>
				<circle fill="#5A6AB1" cx="69.593" cy="159.952" r="9.586"/>
			</g>
			<g>
				<path fill="#4354A5" d="M60.049,159.952c0,5.295,4.292,9.586,9.586,9.586v-19.17C64.341,150.368,60.049,154.659,60.049,159.952z
					"/>
			</g>
		</g>
		<g>
			<path fill="#2C1A4D" d="M69.636,150.818c-0.69,0-1.25-0.56-1.25-1.25v-35.764c0-0.689,0.56-1.25,1.25-1.25
				c0.69,0,1.25,0.561,1.25,1.25v35.764C70.886,150.26,70.327,150.818,69.636,150.818z"/>
		</g>
		<g>
			<path fill="#2C1A4D" d="M69.636,170.788c-5.976,0-10.837-4.86-10.837-10.836c0-5.974,4.861-10.834,10.837-10.834
				c5.975,0,10.835,4.86,10.835,10.834C80.471,165.928,75.611,170.788,69.636,170.788z M69.636,151.618
				c-4.597,0-8.337,3.737-8.337,8.334s3.74,8.336,8.337,8.336c4.596,0,8.335-3.739,8.335-8.336S74.232,151.618,69.636,151.618z"/>
		</g>
		<g>
			<path fill="#FFFFFF" d="M75.507,161.202c-0.69,0-1.25-0.56-1.25-1.25c0-2.548-2.073-4.621-4.621-4.621
				c-0.69,0-1.25-0.56-1.25-1.25s0.56-1.25,1.25-1.25c3.927,0,7.121,3.194,7.121,7.121
				C76.757,160.643,76.198,161.202,75.507,161.202z"/>
		</g>
	</g>
</g>
<g id="bubble2-newton">
	<g>
		<g>
			<circle fill="#5A6AB1" cx="153.466" cy="159.952" r="9.586"/>
		</g>
		<g>
			<path fill="#2C1A4D" d="M153.467,150.818c-0.689,0-1.25-0.56-1.25-1.25v-35.764c0-0.689,0.561-1.25,1.25-1.25
				c0.69,0,1.25,0.561,1.25,1.25v35.764C154.717,150.26,154.158,150.818,153.467,150.818z"/>
		</g>
		<g>
			<path fill="#4354A5" d="M144.049,159.952c0,5.295,4.292,9.586,9.586,9.586v-19.17
				C148.341,150.368,144.049,154.659,144.049,159.952z"/>
		</g>
		<g>
			<path fill="#2C1A4D" d="M153.467,170.788c-5.976,0-10.837-4.86-10.837-10.836c0-5.974,4.861-10.834,10.837-10.834
				c5.975,0,10.836,4.86,10.836,10.834C164.303,165.928,159.441,170.788,153.467,170.788z M153.467,151.618
				c-4.597,0-8.337,3.737-8.337,8.334s3.74,8.336,8.337,8.336c4.596,0,8.336-3.739,8.336-8.336S158.063,151.618,153.467,151.618z"/>
		</g>
		<g>
			<path fill="#FFFFFF" d="M159.337,161.202c-0.69,0-1.25-0.56-1.25-1.25c0-2.548-2.073-4.621-4.62-4.621
				c-0.689,0-1.25-0.56-1.25-1.25s0.561-1.25,1.25-1.25c3.926,0,7.12,3.194,7.12,7.121
				C160.587,160.643,160.027,161.202,159.337,161.202z"/>
		</g>
	</g>
</g>
<g id="Others">
	<g>
		<g>
			<ellipse fill="#D6EFF9" cx="111.327" cy="209.872" rx="86.884" ry="6.476"/>
		</g>
		<g>
			<path fill="#D6EFF9" stroke="#D6EFF9" stroke-width="0.4744" stroke-miterlimit="10" d="M174.654,143.443
				c-0.024,0.18-0.103,0.205-0.256,0.205H163.92c-0.18,0-0.23-0.078-0.23-0.23v-16.41c0-0.18,0.053-0.23,0.207-0.23h10.168
				c0.18,0,0.205,0.025,0.256,0.181l0.258,2.104c0.025,0.129,0,0.23-0.18,0.23h-7.551v3.725h6.832c0.127,0,0.18,0.051,0.18,0.181
				v2.155c0,0.154-0.078,0.181-0.18,0.181h-6.832v5.6h8.012c0.154,0,0.182,0.077,0.154,0.206L174.654,143.443z"/>
			<path fill="#D6EFF9" stroke="#D6EFF9" stroke-width="0.4744" stroke-miterlimit="10" d="M177.604,133.3h12.533
				c0.129,0,0.153,0.052,0.153,0.181v1.85c0,0.18-0.024,0.205-0.205,0.205H177.63c-0.153,0-0.231-0.053-0.231-0.205v-1.85
				C177.398,133.325,177.477,133.3,177.604,133.3z M177.604,138.357h12.508c0.127,0,0.181,0.024,0.181,0.205v1.823
				c0,0.181-0.077,0.205-0.229,0.205h-12.431c-0.153,0-0.229-0.052-0.229-0.205v-1.85
				C177.398,138.385,177.477,138.357,177.604,138.357z"/>
			<path fill="#D6EFF9" stroke="#D6EFF9" stroke-width="0.4744" stroke-miterlimit="10" d="M212.654,135.971v7.473
				c0,0.154-0.104,0.205-0.23,0.205h-2.697c-0.151,0-0.229-0.075-0.229-0.229v-7.345c0-1.49-0.564-2.595-2.186-2.595
				c-0.976,0-1.897,0.438-2.771,1.182c0.077,0.311,0.129,0.797,0.129,1.311v7.447c0,0.153-0.052,0.229-0.205,0.229h-2.695
				c-0.182,0-0.258-0.051-0.258-0.229v-7.345c0-1.722-0.771-2.595-2.184-2.595c-0.977,0-1.799,0.438-2.646,1.104v8.858
				c0,0.13-0.052,0.205-0.205,0.205h-2.748c-0.152,0-0.205-0.075-0.205-0.229v-9.502c0-1.025-0.053-2.08-0.104-2.543
				c-0.025-0.128,0.025-0.205,0.18-0.205h2.414c0.154,0,0.205,0.053,0.282,0.153c0.077,0.229,0.154,0.797,0.181,1.131
				c1.231-1.002,2.518-1.541,3.955-1.541c1.438,0,2.594,0.487,3.363,1.798c1.258-1.002,2.619-1.798,4.571-1.798
				C210.215,130.911,212.654,132.041,212.654,135.971z"/>
			<path fill="#D6EFF9" stroke="#D6EFF9" stroke-width="0.4744" stroke-miterlimit="10" d="M226.003,143.084
				c0,0.128-0.026,0.18-0.129,0.23c-0.873,0.437-1.874,0.59-3.21,0.59c-4.288,0-6.395-2.85-6.395-6.42
				c0-3.801,2.723-6.573,6.934-6.573c1.438,0,2.285,0.282,2.697,0.462c0.103,0.077,0.151,0.129,0.151,0.283l-0.024,2.08
				c0,0.152-0.104,0.18-0.204,0.127c-0.669-0.281-1.361-0.461-2.414-0.461c-2.363,0-3.878,1.565-3.878,3.979
				c0,2.801,1.771,3.955,3.801,3.955c1.207,0,1.9-0.206,2.49-0.486c0.129-0.025,0.181,0.023,0.181,0.127V143.084L226.003,143.084z"
				/>
			<path fill="#D6EFF9" stroke="#D6EFF9" stroke-width="0.4744" stroke-miterlimit="10" d="M228.363,135.1
				c-0.104,0-0.12-0.045-0.12-0.135v-0.912c0-0.091,0.016-0.136,0.075-0.181c0.644-0.494,1.689-1.349,2.994-2.649
				c1.211-1.183,1.631-1.871,1.631-2.845c0-1.003-0.703-1.721-1.945-1.721c-0.913,0-1.781,0.313-2.484,0.718
				c-0.074,0.045-0.136,0.016-0.136-0.09v-1.242c0-0.074,0.017-0.104,0.075-0.148c0.748-0.436,1.796-0.777,2.949-0.777
				c2.215,0,3.353,1.406,3.353,3.054c0,1.212-0.479,2.142-1.526,3.22c-1.047,1.077-1.812,1.734-2.381,2.245
				c0.779-0.017,1.782-0.03,2.666-0.03h1.75c0.105,0,0.135,0.016,0.12,0.104l-0.329,1.271c-0.016,0.09-0.061,0.119-0.15,0.119
				H228.363L228.363,135.1z"/>
		</g>
		<g>
			<g>
				<path fill="#2C1A4D" d="M183.51,114.068H38.353c-1.104,0-2-0.896-2-2c0-1.104,0.896-2,2-2H183.51c1.104,0,2,0.896,2,2
					S184.613,114.068,183.51,114.068z"/>
			</g>
			<g>
				<g>
					<g>
						<circle fill="#5A6AB1" cx="111.551" cy="159.952" r="9.586"/>
					</g>
					<g>
						<path fill="#2C1A4D" d="M111.552,150.818c-0.69,0-1.25-0.56-1.25-1.25v-35.764c0-0.689,0.56-1.25,1.25-1.25
							c0.69,0,1.25,0.561,1.25,1.25v35.764C112.802,150.26,112.243,150.818,111.552,150.818z"/>
					</g>
					<g>
						<path fill="#4354A5" d="M102.049,159.952c0,5.295,4.292,9.586,9.586,9.586v-19.17
							C106.341,150.368,102.049,154.659,102.049,159.952z"/>
					</g>
					<g>
						<path fill="#2C1A4D" d="M111.552,170.788c-5.976,0-10.838-4.86-10.838-10.836c0-5.974,4.862-10.834,10.838-10.834
							c5.975,0,10.835,4.86,10.835,10.834C122.387,165.928,117.527,170.788,111.552,170.788z M111.552,151.618
							c-4.598,0-8.338,3.737-8.338,8.334s3.74,8.336,8.338,8.336c4.596,0,8.335-3.739,8.335-8.336S116.148,151.618,111.552,151.618z
							"/>
					</g>
					<g>
						<path fill="#FFFFFF" d="M117.422,161.202c-0.69,0-1.25-0.56-1.25-1.25c0-2.548-2.073-4.621-4.62-4.621
							c-0.69,0-1.25-0.56-1.25-1.25s0.56-1.25,1.25-1.25c3.926,0,7.12,3.194,7.12,7.121
							C118.672,160.643,118.113,161.202,117.422,161.202z"/>
					</g>
				</g>
				<g>
					<g>
						<circle fill="#5A6AB1" cx="132.509" cy="159.952" r="9.586"/>
					</g>
					<g>
						<path fill="#2C1A4D" d="M132.51,150.818c-0.689,0-1.25-0.56-1.25-1.25v-35.764c0-0.689,0.561-1.25,1.25-1.25
							c0.69,0,1.25,0.561,1.25,1.25v35.764C133.76,150.26,133.201,150.818,132.51,150.818z"/>
					</g>
					<g>
						<path fill="#4354A5" d="M123.049,159.952c0,5.295,4.292,9.586,9.586,9.586v-19.17
							C127.341,150.368,123.049,154.659,123.049,159.952z"/>
					</g>
					<g>
						<path fill="#2C1A4D" d="M132.51,170.788c-5.976,0-10.838-4.86-10.838-10.836c0-5.974,4.862-10.834,10.838-10.834
							c5.975,0,10.836,4.86,10.836,10.834C143.346,165.928,138.484,170.788,132.51,170.788z M132.51,151.618
							c-4.598,0-8.338,3.737-8.338,8.334s3.74,8.336,8.338,8.336c4.596,0,8.336-3.739,8.336-8.336S137.105,151.618,132.51,151.618z"
							/>
					</g>
					<g>
						<path fill="#FFFFFF" d="M138.38,161.202c-0.69,0-1.25-0.56-1.25-1.25c0-2.548-2.073-4.621-4.62-4.621
							c-0.689,0-1.25-0.56-1.25-1.25s0.561-1.25,1.25-1.25c3.926,0,7.12,3.194,7.12,7.121
							C139.63,160.643,139.07,161.202,138.38,161.202z"/>
					</g>
				</g>
				<g>
					<g>
						<circle fill="#5A6AB1" cx="90.593" cy="159.952" r="9.586"/>
					</g>
					<g>
						<path fill="#2C1A4D" d="M90.594,150.818c-0.69,0-1.25-0.56-1.25-1.25v-35.764c0-0.689,0.56-1.25,1.25-1.25
							c0.69,0,1.25,0.561,1.25,1.25v35.764C91.844,150.26,91.285,150.818,90.594,150.818z"/>
					</g>
					<g>
						<path fill="#4354A5" d="M81.049,159.952c0,5.295,4.292,9.586,9.586,9.586v-19.17
							C85.341,150.368,81.049,154.659,81.049,159.952z"/>
					</g>
					<g>
						<path fill="#FFFFFF" d="M96.464,161.202c-0.69,0-1.25-0.56-1.25-1.25c0-2.548-2.073-4.621-4.62-4.621
							c-0.69,0-1.25-0.56-1.25-1.25s0.56-1.25,1.25-1.25c3.926,0,7.12,3.194,7.12,7.121
							C97.714,160.643,97.155,161.202,96.464,161.202z"/>
					</g>
					<g>
						<path fill="#2C1A4D" d="M90.594,170.788c-5.976,0-10.838-4.86-10.838-10.836c0-5.974,4.862-10.834,10.838-10.834
							c5.975,0,10.835,4.86,10.835,10.834C101.429,165.928,96.569,170.788,90.594,170.788z M90.594,151.618
							c-4.598,0-8.338,3.737-8.338,8.334s3.74,8.336,8.338,8.336c4.596,0,8.335-3.739,8.335-8.336S95.19,151.618,90.594,151.618z"/>
					</g>
				</g>
			</g>
			<g>
				<path fill="#2C1A4D" d="M41.694,185.919c-0.69,0-1.25-0.56-1.25-1.25v-72.021c0-0.69,0.56-1.25,1.25-1.25s1.25,0.56,1.25,1.25
					v72.021C42.944,185.359,42.384,185.919,41.694,185.919z"/>
			</g>
			<g>
				<path fill="#2C1A4D" d="M180.594,185.919c-0.689,0-1.25-0.56-1.25-1.25v-72.021c0-0.69,0.561-1.25,1.25-1.25
					c0.69,0,1.25,0.56,1.25,1.25v72.021C181.844,185.359,181.284,185.919,180.594,185.919z"/>
			</g>
			<g>
				<path fill="#2C1A4D" d="M44.428,209.507c-1.381,0-2.5-1.118-2.5-2.5v-5.584c0-1.381,1.119-2.5,2.5-2.5
					c1.381,0,2.5,1.119,2.5,2.5v5.584C46.928,208.389,45.809,209.507,44.428,209.507z"/>
			</g>
			<g>
				<path fill="#2C1A4D" d="M179.08,209.507c-1.381,0-2.5-1.118-2.5-2.5v-5.584c0-1.381,1.119-2.5,2.5-2.5s2.5,1.119,2.5,2.5v5.584
					C181.58,208.389,180.461,209.507,179.08,209.507z"/>
			</g>
			<g>
				<g opacity="0.3">
					<path fill="#154DF9" d="M43.916,185.909c-2.731,0-4.964,2.233-4.964,4.965v4.965c0,2.729,2.232,4.964,4.964,4.964h67.637
						v-14.894H43.916z"/>
				</g>
			</g>
			<g>
				<g opacity="0.3">
					<path fill="#7CB8F9" d="M111.551,185.909v14.894h67.637c2.732,0,4.965-2.234,4.965-4.964v-4.965
						c0-2.731-2.232-4.965-4.965-4.965H111.551z"/>
				</g>
			</g>
			<g>
				<path fill="#2C1A4D" d="M179.188,202.053H43.916c-3.426,0-6.214-2.787-6.214-6.214v-4.965c0-3.427,2.788-6.215,6.214-6.215
					h135.271c3.426,0,6.213,2.788,6.213,6.215v4.965C185.4,199.266,182.613,202.053,179.188,202.053z M43.916,187.159
					c-2.048,0-3.714,1.666-3.714,3.715v4.965c0,2.048,1.666,3.714,3.714,3.714h135.271c2.047,0,3.713-1.666,3.713-3.714v-4.965
					c0-2.049-1.666-3.715-3.713-3.715H43.916z"/>
			</g>
			<g>
				<path fill="#85B5E1" d="M111.479,196.958H45.256c-2.138,0-3.462-1.799-3.462-3.465v-2.33c0-0.828,0.671-1.5,1.5-1.5
					s1.5,0.672,1.5,1.5v2.33c0.001,0.017,0.025,0.465,0.462,0.465h66.223c0.829,0,1.5,0.672,1.5,1.5
					S112.308,196.958,111.479,196.958z"/>
			</g>
			<g opacity="0.3">
				<path fill="#415EAB" d="M167.217,196.958h-48.742c-0.829,0-1.5-0.672-1.5-1.5s0.671-1.5,1.5-1.5h48.742
					c0.828,0,1.5,0.672,1.5,1.5S168.045,196.958,167.217,196.958z"/>
			</g>
			<g>
				<path fill="#FFFFFF" d="M180.15,197.339c-0.828,0-1.5-0.672-1.5-1.5v-2.528c0-1.899-0.104-1.899-2.793-1.899h-3.306
					c-0.827,0-1.5-0.672-1.5-1.5s0.673-1.5,1.5-1.5h3.306c2.58,0,5.793,0,5.793,4.899v2.528
					C181.65,196.667,180.979,197.339,180.15,197.339z"/>
			</g>
		</g>
	</g>
</g>
<g id="atomi">
	<g>
		<g>
			<path fill="#D6EFF9" d="M65.767,100.606c-1.292,0-2.47-0.296-3.504-0.879c-3.34-1.885-4.77-6.506-4.027-13.015
				c0.704-6.157,3.263-13.399,7.208-20.391C72.377,54.033,82.017,45.45,88.886,45.45c1.292,0,2.47,0.296,3.504,0.879
				c3.34,1.885,4.77,6.506,4.027,13.014c-0.703,6.158-3.263,13.399-7.207,20.39C82.275,92.022,72.635,100.606,65.767,100.606z
				 M88.886,47.822c-5.957,0-14.947,8.271-21.376,19.666c-3.792,6.721-6.249,13.645-6.917,19.494
				c-0.619,5.421,0.415,9.313,2.835,10.679c0.674,0.38,1.461,0.573,2.339,0.573c5.957,0,14.947-8.271,21.378-19.668
				c3.792-6.72,6.248-13.643,6.916-19.492c0.619-5.421-0.415-9.313-2.835-10.679C90.551,48.016,89.764,47.822,88.886,47.822z"/>
		</g>
		<g>
			<path fill="#D6EFF9" d="M90.178,99.745c-6.905,0-16.643-7.713-24.232-19.191c-4.427-6.695-7.491-13.738-8.626-19.831
				c-1.2-6.439-0.1-11.15,3.099-13.266c1.15-0.761,2.515-1.146,4.057-1.146c6.906,0,16.644,7.713,24.233,19.191
				c4.427,6.696,7.49,13.738,8.625,19.832c1.2,6.438,0.099,11.149-3.1,13.265C93.084,99.359,91.72,99.745,90.178,99.745z
				 M64.476,48.684c-1.069,0-1.994,0.253-2.749,0.752c-2.319,1.533-3.076,5.488-2.076,10.852c1.079,5.789,4.017,12.521,8.273,18.958
				c7.057,10.674,16.208,18.128,22.253,18.128c1.068,0,1.993-0.253,2.748-0.752c2.319-1.533,3.076-5.488,2.077-10.853
				c-1.079-5.787-4.017-12.521-8.272-18.957C79.674,56.138,70.522,48.684,64.476,48.684z"/>
		</g>
		<g>
			<path fill="#D6EFF9" d="M79.687,86.721C79.686,86.721,79.687,86.721,79.687,86.721c-0.961,0-1.934-0.02-2.917-0.06
				c-17.175-0.702-30.385-7.239-30.073-14.884c0.295-7.21,12.184-12.443,28.27-12.443c0.96,0,1.934,0.02,2.917,0.06
				c8.02,0.328,15.524,1.965,21.13,4.609c5.924,2.795,9.1,6.444,8.942,10.275C107.661,81.487,95.771,86.721,79.687,86.721z
				 M74.966,61.706c-14.052,0-25.67,4.562-25.9,10.168c-0.222,5.438,10.896,11.727,27.8,12.416
				c15.338,0.633,28.475-4.133,28.719-10.108c0.114-2.777-2.65-5.705-7.584-8.033c-5.325-2.513-12.504-4.069-20.214-4.384
				C76.835,61.726,75.895,61.706,74.966,61.706z"/>
		</g>
		<g>
			<circle fill="#2C1A4D" cx="77.327" cy="73.027" r="4.685"/>
		</g>
		<g>
			<circle fill="#2C1A4D" cx="91.808" cy="47.362" r="2.949"/>
		</g>
		<g>
			<circle fill="#2C1A4D" cx="48.198" cy="73.47" r="2.949"/>
		</g>
		<g>
			<circle fill="#2C1A4D" cx="93.579" cy="97.61" r="2.949"/>
		</g>
	</g>
</g>
<g id="cecxli">
</g>
</svg>
