<?xml version="1.0" encoding="utf-8"?>
<!-- Generator: Adobe Illustrator 16.0.0, SVG Export Plug-In . SVG Version: 6.00 Build 0)  -->
<!DOCTYPE svg PUBLIC "-//W3C//DTD SVG 1.1//EN" "http://www.w3.org/Graphics/SVG/1.1/DTD/svg11.dtd">
<svg version="1.1" id="injineria" xmlns="http://www.w3.org/2000/svg" xmlns:xlink="http://www.w3.org/1999/xlink" x="0px" y="0px"
	 width="260px" height="220px" viewBox="0 0 260 220" enable-background="new 0 0 260 220" xml:space="preserve">
<g id="borblis_mrgvali_foni">
	<g>
		<path fill="#D6EFF9" d="M230.039,78.827c-0.582,0-1.104-0.407-1.225-0.999c-4.676-22.851-25.026-39.436-48.391-39.436
			c-4.434,0-8.824,0.587-13.055,1.743c-0.666,0.183-1.354-0.21-1.536-0.876s0.21-1.354,0.876-1.535
			c4.441-1.215,9.061-1.832,13.715-1.832c24.547,0,45.926,17.426,50.84,41.434c0.139,0.677-0.3,1.337-0.976,1.476
			C230.206,78.819,230.122,78.827,230.039,78.827z"/>
	</g>
	<g>
		<g>
			<path fill="#D6EFF9" d="M136.395,114.063c-0.435,0-0.854-0.227-1.086-0.631c-4.432-7.774-6.771-16.646-6.771-25.646
				c0-1.815,0.095-3.648,0.283-5.448c0.071-0.688,0.687-1.189,1.373-1.113c0.687,0.071,1.186,0.687,1.117,1.373
				c-0.182,1.714-0.271,3.46-0.271,5.188c0,8.569,2.229,17.01,6.441,24.407c0.345,0.604,0.134,1.363-0.467,1.705
				C136.816,114.011,136.605,114.063,136.395,114.063z"/>
		</g>
		<g>
			<path fill="#D6EFF9" d="M132.941,71.4c-0.146,0-0.293-0.025-0.438-0.078c-0.646-0.24-0.979-0.96-0.733-1.607
				c3.736-10.063,10.715-18.927,19.645-24.959c0.572-0.386,1.35-0.236,1.734,0.337c0.388,0.571,0.234,1.349-0.336,1.735
				c-8.5,5.742-15.144,14.179-18.701,23.758C133.926,71.089,133.448,71.4,132.941,71.4z"/>
		</g>
	</g>
	<g>
		<g>
			<path fill="#D6EFF9" d="M173.604,139.218c-0.056,0-0.109-0.004-0.168-0.011c-3.387-0.457-6.735-1.252-9.961-2.365
				c-0.65-0.226-0.998-0.938-0.771-1.59s0.938-0.998,1.59-0.773c3.064,1.063,6.257,1.816,9.479,2.25
				c0.687,0.096,1.164,0.725,1.071,1.406C174.757,138.762,174.221,139.218,173.604,139.218z"/>
		</g>
		<g>
			<path fill="#D6EFF9" d="M155.5,133.126c-0.209,0-0.42-0.052-0.615-0.162c-2.965-1.681-5.777-3.664-8.361-5.896
				c-0.521-0.451-0.58-1.241-0.129-1.764c0.453-0.521,1.242-0.58,1.766-0.132c2.459,2.125,5.138,4.015,7.96,5.612
				c0.604,0.341,0.813,1.104,0.472,1.704C156.359,132.898,155.936,133.126,155.5,133.126z"/>
		</g>
	</g>
	<g>
		<path fill="#D6EFF9" d="M187.15,139.23c-0.616,0-1.152-0.457-1.236-1.086c-0.091-0.686,0.391-1.313,1.074-1.402
			c2.924-0.389,5.822-1.042,8.619-1.944c0.66-0.214,1.359,0.147,1.574,0.806c0.211,0.658-0.148,1.361-0.809,1.573
			c-2.938,0.948-5.984,1.636-9.061,2.044C187.262,139.229,187.206,139.23,187.15,139.23z M213.326,127.534
			c-0.354,0-0.704-0.148-0.951-0.438c-0.448-0.521-0.387-1.313,0.139-1.763c7.516-6.429,12.877-14.833,15.508-24.305
			c0.188-0.665,0.875-1.055,1.539-0.869c0.666,0.185,1.057,0.873,0.869,1.539c-2.764,9.952-8.396,18.782-16.291,25.534
			C213.902,127.436,213.613,127.534,213.326,127.534z"/>
	</g>
	<g>
		<g>
			<path fill="#D6EFF9" d="M200.195,51.978c-0.199,0-0.4-0.047-0.59-0.147c-5.857-3.133-12.489-4.788-19.182-4.788
				c-3.557,0-7.083,0.458-10.479,1.36c-0.662,0.177-1.353-0.219-1.528-0.887c-0.178-0.667,0.222-1.353,0.888-1.529
				c3.605-0.958,7.35-1.444,11.121-1.444c7.1,0,14.141,1.758,20.359,5.083c0.607,0.326,0.838,1.083,0.513,1.692
				C201.073,51.738,200.643,51.978,200.195,51.978z"/>
		</g>
		<g>
			<path fill="#D6EFF9" d="M221.96,82.812c-0.608,0-1.144-0.445-1.233-1.066c-1.518-10.207-6.824-19.389-14.938-25.853
				c-0.54-0.43-0.63-1.216-0.199-1.756c0.431-0.54,1.22-0.631,1.757-0.199c8.614,6.859,14.245,16.604,15.855,27.44
				c0.102,0.683-0.37,1.318-1.055,1.42C222.083,82.808,222.021,82.812,221.96,82.812z"/>
		</g>
	</g>
	<g>
		<g>
			<path fill="#D6EFF9" d="M143.945,109.843c-0.434,0-0.855-0.226-1.086-0.63c-2.572-4.501-4.295-9.375-5.119-14.487
				c-0.11-0.682,0.353-1.323,1.035-1.434c0.685-0.108,1.322,0.354,1.433,1.035c0.776,4.814,2.399,9.405,4.821,13.646
				c0.343,0.6,0.135,1.363-0.465,1.705C144.368,109.79,144.154,109.843,143.945,109.843z"/>
		</g>
		<g>
			<path fill="#D6EFF9" d="M146.363,64.471c-0.254,0-0.51-0.077-0.731-0.236c-0.56-0.404-0.687-1.186-0.28-1.745
				c3.032-4.2,6.754-7.79,11.061-10.672c0.57-0.383,1.352-0.23,1.732,0.344c0.383,0.574,0.229,1.351-0.345,1.734
				c-4.058,2.716-7.565,6.1-10.423,10.057C147.133,64.291,146.751,64.471,146.363,64.471z"/>
		</g>
	</g>
	<g>
		<path fill="#D6EFF9" d="M173.962,130.53c-0.063,0-0.128-0.005-0.192-0.015c-8.086-1.25-15.625-4.771-21.807-10.183
			c-0.52-0.454-0.572-1.244-0.117-1.767c0.455-0.52,1.244-0.569,1.764-0.114c5.824,5.097,12.93,8.413,20.543,9.59
			c0.685,0.104,1.15,0.744,1.047,1.426C175.1,130.089,174.566,130.53,173.962,130.53z"/>
	</g>
	<g>
		<g>
			<path fill="#D6EFF9" d="M215.104,112.723c-0.242,0-0.486-0.07-0.705-0.219c-0.566-0.39-0.715-1.168-0.322-1.736
				c2.764-4.04,4.755-8.482,5.917-13.215c0.161-0.671,0.843-1.079,1.512-0.916c0.671,0.165,1.081,0.842,0.916,1.512
				c-1.231,5.022-3.351,9.743-6.28,14.031C215.895,112.532,215.502,112.723,215.104,112.723z"/>
		</g>
		<g>
			<path fill="#D6EFF9" d="M186.802,130.544c-0.606,0-1.14-0.442-1.233-1.062c-0.104-0.686,0.365-1.32,1.05-1.424
				c4.825-0.735,9.435-2.318,13.692-4.705c0.604-0.338,1.363-0.121,1.701,0.479c0.338,0.604,0.122,1.363-0.479,1.702
				c-4.524,2.532-9.416,4.214-14.54,4.993C186.928,130.539,186.863,130.544,186.802,130.544z"/>
		</g>
	</g>
</g>
<g id="Others">
	<g>
		<g>
			<g>
				<path fill="#D6EFF9" d="M168.105,194.818h-1.5c-0.828,0-1.5-0.672-1.5-1.5c0-0.827,0.672-1.5,1.5-1.5h1.5
					c0.828,0,1.5,0.673,1.5,1.5C169.605,194.146,168.934,194.818,168.105,194.818z"/>
			</g>
			<g>
				<path fill="#D6EFF9" d="M162.542,194.818h-3.047c-0.829,0-1.5-0.672-1.5-1.5c0-0.827,0.671-1.5,1.5-1.5h3.047
					c0.829,0,1.5,0.673,1.5,1.5C164.042,194.146,163.371,194.818,162.542,194.818z M155.432,194.818h-3.047
					c-0.828,0-1.5-0.672-1.5-1.5c0-0.827,0.672-1.5,1.5-1.5h3.047c0.83,0,1.5,0.673,1.5,1.5
					C156.932,194.146,156.26,194.818,155.432,194.818z M148.32,194.818h-3.047c-0.828,0-1.5-0.672-1.5-1.5
					c0-0.827,0.672-1.5,1.5-1.5h3.047c0.83,0,1.5,0.673,1.5,1.5C149.82,194.146,149.148,194.818,148.32,194.818z M141.21,194.818
					h-3.047c-0.829,0-1.5-0.672-1.5-1.5c0-0.827,0.671-1.5,1.5-1.5h3.047c0.829,0,1.5,0.673,1.5,1.5
					C142.71,194.146,142.039,194.818,141.21,194.818z M134.1,194.818h-3.048c-0.829,0-1.5-0.672-1.5-1.5c0-0.827,0.671-1.5,1.5-1.5
					h3.048c0.828,0,1.5,0.673,1.5,1.5C135.6,194.146,134.928,194.818,134.1,194.818z M126.989,194.818h-3.048
					c-0.829,0-1.5-0.672-1.5-1.5c0-0.827,0.671-1.5,1.5-1.5h3.048c0.829,0,1.5,0.673,1.5,1.5
					C128.489,194.146,127.817,194.818,126.989,194.818z M119.878,194.818h-3.048c-0.829,0-1.5-0.672-1.5-1.5
					c0-0.827,0.671-1.5,1.5-1.5h3.048c0.829,0,1.5,0.673,1.5,1.5C121.378,194.146,120.707,194.818,119.878,194.818z
					 M112.767,194.818h-3.048c-0.829,0-1.5-0.672-1.5-1.5c0-0.827,0.671-1.5,1.5-1.5h3.048c0.829,0,1.5,0.673,1.5,1.5
					C114.267,194.146,113.596,194.818,112.767,194.818z M105.656,194.818h-3.047c-0.829,0-1.5-0.672-1.5-1.5
					c0-0.827,0.671-1.5,1.5-1.5h3.047c0.829,0,1.5,0.673,1.5,1.5C107.156,194.146,106.485,194.818,105.656,194.818z M98.545,194.818
					h-3.047c-0.829,0-1.5-0.672-1.5-1.5c0-0.827,0.671-1.5,1.5-1.5h3.047c0.829,0,1.5,0.673,1.5,1.5
					C100.045,194.146,99.374,194.818,98.545,194.818z M91.435,194.818H91.32c-0.929,0-1.989-0.09-3.15-0.271
					c-0.819-0.127-1.38-0.895-1.253-1.712c0.126-0.815,0.892-1.374,1.711-1.253c1.01,0.156,1.916,0.234,2.692,0.234h0.114
					c0.829,0,1.5,0.672,1.5,1.5S92.263,194.818,91.435,194.818z M84.436,193.675c-0.139,0-0.281-0.021-0.421-0.061
					c-1.092-0.319-2.114-0.679-3.036-1.065c-0.764-0.32-1.123-1.201-0.801-1.965c0.322-0.764,1.2-1.123,1.964-0.801
					c0.818,0.344,1.731,0.664,2.715,0.951c0.795,0.23,1.251,1.063,1.019,1.861C85.684,193.25,85.085,193.675,84.436,193.675z
					 M77.949,190.803c-0.242,0-0.488-0.059-0.716-0.183l-2.676-1.458c-0.728-0.396-0.996-1.309-0.6-2.035s1.306-0.996,2.035-0.6
					l2.676,1.457c0.728,0.396,0.996,1.309,0.6,2.035C78.995,190.52,78.48,190.803,77.949,190.803z M71.705,187.4
					c-0.243,0-0.489-0.062-0.717-0.186l-2.676-1.459c-0.727-0.396-0.995-1.309-0.599-2.033c0.396-0.729,1.308-0.994,2.035-0.602
					l2.676,1.459c0.727,0.396,0.995,1.311,0.599,2.035C72.751,187.118,72.236,187.4,71.705,187.4z M65.461,183.997
					c-0.242,0-0.488-0.06-0.716-0.183l-2.676-1.459c-0.728-0.396-0.996-1.31-0.6-2.035c0.396-0.727,1.306-0.995,2.035-0.602
					l2.676,1.461c0.728,0.396,0.996,1.307,0.6,2.032C66.507,183.714,65.993,183.997,65.461,183.997z"/>
			</g>
			<g>
				<path fill="#D6EFF9" d="M59.217,180.594c-0.243,0-0.488-0.059-0.716-0.183l-1.317-0.718c-0.728-0.396-0.996-1.311-0.599-2.035
					c0.396-0.729,1.306-0.994,2.035-0.6l1.317,0.717c0.728,0.396,0.996,1.309,0.599,2.035
					C60.263,180.313,59.749,180.594,59.217,180.594z"/>
			</g>
		</g>
		<g>
			<ellipse fill="#D6EFF9" cx="180.129" cy="211.585" rx="53.707" ry="5.265"/>
		</g>
		<g>
			<g>
				<ellipse fill="#D1EDF8" cx="58.541" cy="166.098" rx="38.252" ry="3.75"/>
			</g>
			<g>
				<path fill="#D1EDF8" d="M58.541,170.348c-0.388,0-38.752-0.05-38.752-4.25c0-4.201,38.365-4.25,38.752-4.25
					s38.752,0.049,38.752,4.25C97.293,170.298,58.929,170.348,58.541,170.348z M58.541,162.848c-23.318,0-37.128,1.942-37.759,3.286
					c0.631,1.271,14.44,3.214,37.759,3.214s37.128-1.941,37.759-3.287C95.669,164.79,81.859,162.848,58.541,162.848z"/>
			</g>
		</g>
		<g>
			<path fill="#66C7F1" d="M32.473,123.387c-1.844,1.2-3.352,3.982-3.352,6.184v31.922c0,2.197,1.8,4,4,4h50.214c2.2,0,4-1.803,4-4
				V129.57c0-2.199-1.508-4.981-3.352-6.185l-22.402-14.59c-1.844-1.2-4.86-1.2-6.704,0L32.473,123.387z"/>
		</g>
		<g>
			<g>
				<path fill="#4FB2E5" d="M32.473,123.387c-1.844,1.2-3.352,3.982-3.352,6.184v31.922c0,2.197,1.8,4,4,4h21.102c2.2,0,4-1.803,4-4
					V110.62c0-2.2-1.508-3.018-3.352-1.817L32.473,123.387z"/>
			</g>
		</g>
		<g>
			<path fill="#2C1A4D" d="M94.552,131.372c-0.233,0-0.468-0.063-0.678-0.2l-32.967-21.334c-1.427-0.924-3.931-0.924-5.357,0
				l-32.967,21.334c-0.579,0.373-1.354,0.209-1.729-0.371c-0.375-0.578-0.209-1.354,0.37-1.729l32.967-21.334
				c2.264-1.465,5.811-1.465,8.074,0l32.967,21.334c0.58,0.375,0.745,1.146,0.37,1.729
				C95.363,131.171,94.962,131.372,94.552,131.372z"/>
		</g>
		<g>
			<g>
				<path fill="#AEDFE9" d="M41.544,142.268c-1.1,0-2,0.899-2,2v20.416h7.776v-22.416H41.544z"/>
			</g>
			<g>
				<path fill="#D1EDF8" d="M55.095,144.268c0-1.101-0.9-2-2-2H47.32v22.416h7.775V144.268z"/>
			</g>
		</g>
		<g>
			<path fill="#2C1A4D" d="M55.095,165.934c-0.69,0-1.25-0.561-1.25-1.25v-20.416c0-0.406-0.343-0.75-0.75-0.75H41.544
				c-0.407,0-0.75,0.344-0.75,0.75v20.416c0,0.689-0.56,1.25-1.25,1.25s-1.25-0.561-1.25-1.25v-20.416c0-1.793,1.458-3.25,3.25-3.25
				h11.551c1.792,0,3.25,1.457,3.25,3.25v20.416C56.345,165.373,55.786,165.934,55.095,165.934z"/>
		</g>
		<g>
			<path fill="#2C1A4D" d="M75.577,143.518h-7.825c-1.792,0-3.25-1.459-3.25-3.25v-8.146c0-1.792,1.458-3.25,3.25-3.25h7.825
				c1.792,0,3.25,1.458,3.25,3.25v8.146C78.827,142.059,77.369,143.518,75.577,143.518z M67.752,131.372
				c-0.407,0-0.75,0.344-0.75,0.75v8.146c0,0.405,0.343,0.75,0.75,0.75h7.825c0.407,0,0.75-0.345,0.75-0.75v-8.146
				c0-0.406-0.343-0.75-0.75-0.75H67.752z"/>
		</g>
		<g>
			<path fill="#2C1A4D" d="M34.651,123.003c-0.829,0-1.5-0.672-1.5-1.5v-8.291c0-0.828,0.671-1.5,1.5-1.5s1.5,0.672,1.5,1.5v8.291
				C36.151,122.331,35.48,123.003,34.651,123.003z"/>
		</g>
		<g>
			<path fill="#FFFFFF" d="M80.694,162.085H75.51c-0.917,0-1.661-0.743-1.661-1.66s0.744-1.659,1.661-1.659h5.184
				c0.184,0,0.339-0.156,0.339-0.341v-8.041c0-0.917,0.744-1.659,1.661-1.659s1.661,0.742,1.661,1.659v8.041
				C84.354,160.443,82.712,162.085,80.694,162.085z"/>
		</g>
		<g>
			<path fill="#2C1A4D" d="M83.335,166.739H33.121c-2.895,0-5.25-2.355-5.25-5.25v-35.921c0-0.689,0.56-1.25,1.25-1.25
				s1.25,0.561,1.25,1.25v35.921c0,1.517,1.234,2.75,2.75,2.75h50.214c1.516,0,2.75-1.233,2.75-2.75v-35.921
				c0-0.689,0.56-1.25,1.25-1.25s1.25,0.561,1.25,1.25v35.921C88.585,164.384,86.23,166.739,83.335,166.739z"/>
		</g>
		<g>
			<path fill="#FFFFFF" d="M79.285,127.906c-0.298,0-0.599-0.08-0.871-0.249l-10.959-6.771c-0.78-0.479-1.022-1.505-0.54-2.284
				c0.482-0.777,1.505-1.022,2.285-0.539l10.959,6.771c0.78,0.48,1.022,1.505,0.54,2.285
				C80.385,127.626,79.841,127.906,79.285,127.906z"/>
		</g>
		<g>
			<path fill="#2C1A4D" d="M180.447,212.23c-0.828,0-1.5-0.672-1.5-1.5V87.741c0-0.828,0.672-1.5,1.5-1.5s1.5,0.672,1.5,1.5V210.73
				C181.947,211.561,181.275,212.23,180.447,212.23z"/>
		</g>
	</g>
</g>
<g id="wind-will">
	<g>
		<path fill="#DCDBDB" d="M232.467,113.126l-48.744-29.814c0,0-3.385,6.286,6.553,11.716
			C200.215,100.454,232.467,113.126,232.467,113.126z"/>
	</g>
	<g>
		<path fill="#DCDBDB" d="M130.328,113.911l49.297-28.826c0,0-3.609-6.152-13.115,0.048
			C157.004,91.332,130.328,113.911,130.328,113.911z"/>
	</g>
	<g>
		<path fill="#DCDBDB" d="M195.91,23.595l-16.646,55.85c0,0,6.723,1.916,9.504-9.317C191.549,58.891,195.91,23.595,195.91,23.595z"
			/>
	</g>
	<g>
		<g>
			<path fill="#B5B6B6" d="M190.313,95.404c2.063,1.08,5.084,2.453,8.568,3.942l2.456-5.095l-17.774-10.438
				C183.563,83.813,180.283,90.16,190.313,95.404z"/>
		</g>
		<g>
			<path fill="#B5B6B6" d="M166.105,84.743c-1.942,1.293-4.617,3.288-7.623,5.64l3.031,4.755l17.703-10.558
				C179.219,84.581,175.559,78.46,166.105,84.743z"/>
		</g>
		<g>
			<path fill="#B5B6B6" d="M188.768,70.128c0.572-2.312,1.211-5.649,1.865-9.481l-5.359-1.36l-6.01,20.16
				C179.264,79.445,185.986,81.361,188.768,70.128z"/>
		</g>
		<g>
			<path fill="#DCDBDB" d="M195.91,23.595l-10.637,35.69l5.356,1.36C193.159,45.856,195.91,23.595,195.91,23.595z"/>
		</g>
	</g>
	<g>
		<path fill="#2C1A4D" d="M195.213,22.528c0.273-0.192,0.617-0.268,0.961-0.192c0.635,0.142,1.059,0.759,0.977,1.423
			c-0.178,1.443-4.401,35.501-7.172,46.686c-1.063,4.312-2.834,7.344-5.246,9.016c-2.912,2.016-5.685,1.258-5.801,1.225
			c-0.324-0.092-0.602-0.315-0.764-0.623c-0.161-0.305-0.197-0.666-0.098-0.998l16.646-55.846
			C194.803,22.925,194.982,22.688,195.213,22.528z M183.338,77.322c1.889-1.308,3.307-3.834,4.219-7.513
			c1.527-6.179,3.564-19.875,5.066-30.791l-11.695,39.234C181.596,78.177,182.449,77.938,183.338,77.322z"/>
	</g>
	<g>
		<path fill="#2C1A4D" d="M183.025,82.241c0.113-0.077,0.238-0.137,0.371-0.174c0.321-0.09,0.672-0.04,0.963,0.135l48.746,29.813
			c0.557,0.342,0.769,1.064,0.483,1.67c-0.276,0.604-0.964,0.879-1.567,0.643c-1.32-0.518-32.438-12.758-42.332-18.159
			c-4.066-2.223-6.57-4.888-7.442-7.922c-0.899-3.125,0.33-5.461,0.383-5.563C182.727,82.507,182.863,82.354,183.025,82.241z
			 M218.703,106.202l-34.248-20.944c-0.227,1.847,0.355,5.326,6.406,8.632C196.325,96.873,208.766,102.133,218.703,106.202z"/>
	</g>
	<g>
		<path fill="#2C1A4D" d="M164.452,84.979L164.452,84.979c0.495-0.343,0.96-0.656,1.39-0.936c3.891-2.538,7.376-3.456,10.361-2.731
			c3.078,0.748,4.436,3.011,4.492,3.106c0.174,0.297,0.226,0.657,0.14,0.993c-0.085,0.335-0.292,0.627-0.593,0.792l-49.297,28.829
			c-0.564,0.329-1.28,0.159-1.647-0.39c-0.368-0.554-0.263-1.304,0.239-1.728C129.779,112.708,154.066,92.17,164.452,84.979z
			 M177.626,84.773c-1.438-1.117-4.657-2.33-10.448,1.448c-5.236,3.411-15.832,11.932-24.193,18.807L177.626,84.773z"/>
	</g>
	<g>
		<ellipse fill="#DCDBDB" cx="181.096" cy="81.725" rx="4.002" ry="4.124"/>
		<path fill="#2C1A4D" d="M178.168,77.231c2.402-1.663,5.672-1,7.285,1.477c1.615,2.476,0.973,5.848-1.43,7.51
			c-2.403,1.664-5.672,1.003-7.285-1.476C175.123,82.266,175.766,78.895,178.168,77.231z M182.629,84.079
			c1.26-0.872,1.596-2.637,0.75-3.934c-0.848-1.299-2.557-1.645-3.816-0.772c-1.258,0.872-1.596,2.636-0.75,3.933
			C179.659,84.603,181.371,84.95,182.629,84.079z"/>
	</g>
</g>
<g id="light-back">
	<path fill="#190A00" d="M67.752,131.372c-0.407,0-0.75,0.344-0.75,0.75v8.146c0,0.405,0.343,0.75,0.75,0.75h7.825
		c0.407,0,0.75-0.345,0.75-0.75v-8.146c0-0.406-0.343-0.75-0.75-0.75H67.752z"/>
</g>
<g id="light">
	<path fill="#F9D136" d="M67.752,131.371c-0.407,0-0.75,0.344-0.75,0.75v8.146c0,0.402,0.343,0.75,0.75,0.75h7.826
		c0.406,0,0.75-0.348,0.75-0.75v-8.146c0-0.406-0.344-0.75-0.75-0.75H67.752z"/>
</g>
</svg>
