<?xml version="1.0" encoding="utf-8"?>
<!-- Generator: Adobe Illustrator 16.0.0, SVG Export Plug-In . SVG Version: 6.00 Build 0)  -->
<!DOCTYPE svg PUBLIC "-//W3C//DTD SVG 1.1//EN" "http://www.w3.org/Graphics/SVG/1.1/DTD/svg11.dtd">
<svg version="1.1" id="qimia" xmlns="http://www.w3.org/2000/svg" xmlns:xlink="http://www.w3.org/1999/xlink" x="0px" y="0px"
	 width="260px" height="220px" viewBox="0 0 260 220" enable-background="new 0 0 260 220" xml:space="preserve">
<g id="bubble1-wrap">
	<g id="bubble1">
		<circle fill="none" stroke="#FAA437" stroke-width="1.8977" stroke-miterlimit="10" cx="134.286" cy="159.019" r="9.27"/>
	</g>
</g>
<g id="bubble2-wrap">
	<g id="bubble2">
		<circle fill="#FAA437" cx="150.421" cy="159.456" r="5.058"/>
	</g>
</g>
<g id="bubble3">
	<circle fill="#FAA437" cx="135.762" cy="139.792" r="3.423"/>
</g>
<g id="bubble4">
	<circle fill="none" stroke="#FAA437" stroke-width="1.8977" stroke-miterlimit="10" cx="139.693" cy="119.005" r="3.423"/>
</g>
<g id="bubble5">
	<circle fill="#FAA437" cx="137.499" cy="83.276" r="3.424"/>
</g>
<g id="bubble6">
	<circle fill="none" stroke="#FAA437" stroke-width="1.8977" stroke-miterlimit="10" cx="140.251" cy="70.688" r="2.305"/>
</g>
<g id="Others">
	<g>
		<ellipse fill="#D6EFF9" cx="140.344" cy="210.581" rx="90.489" ry="6.742"/>
	</g>
	<g>
		<g>
			<g>
				<path fill="#8AA83E" d="M199.922,179.466c-1.044,0-1.898,0.854-1.898,1.896l-0.024,26.472c-0.001,1.043,0.853,1.897,1.896,1.899
					l4.61,0.004v-30.266L199.922,179.466z"/>
			</g>
			<g>
				<path fill="#96B53C" d="M209.032,179.477l-4.528-0.006v30.268l4.501,0.004c1.044,0,1.897-0.854,1.899-1.896l0.022-26.471
					C210.93,180.331,210.076,179.477,209.032,179.477z"/>
			</g>
		</g>
		<g>
			<path fill="#2C1A4D" d="M209.007,210.991l-9.114-0.009c-0.838,0-1.629-0.328-2.224-0.926c-0.595-0.596-0.922-1.386-0.921-2.225
				l0.053-55.998c0.002-1.734,1.414-3.145,3.147-3.145l9.112,0.008c0.84,0.001,1.629,0.328,2.225,0.926
				c0.595,0.596,0.922,1.386,0.921,2.225l-0.052,55.998C212.152,209.581,210.74,210.991,209.007,210.991z M199.949,151.189
				c-0.356,0-0.648,0.291-0.648,0.646l-0.053,55.998c0,0.23,0.119,0.387,0.189,0.457c0.071,0.07,0.227,0.191,0.457,0.191l9.11,0.008
				l-0.001,1.25l0.002-1.25c0.352,0,0.646-0.297,0.646-0.646l0.053-55.998c0-0.23-0.119-0.386-0.189-0.457
				c-0.072-0.07-0.227-0.19-0.457-0.19L199.949,151.189z"/>
		</g>
		<g>
			<path fill="#2C1A4D" d="M212.298,151.202L212.298,151.202l-15.589-0.015c-0.689,0-1.25-0.561-1.249-1.25
				c0.001-0.69,0.562-1.25,1.25-1.25h0.001l15.588,0.015c0.69,0.001,1.25,0.562,1.249,1.251S212.986,151.202,212.298,151.202z"/>
		</g>
		<g>
			
				<line fill="none" stroke="#2C1A4D" stroke-width="3" stroke-linecap="round" stroke-miterlimit="10" x1="198.534" y1="160.639" x2="201.538" y2="160.641"/>
			
				<line fill="none" stroke="#2C1A4D" stroke-width="3" stroke-linecap="round" stroke-miterlimit="10" x1="198.523" y1="171.086" x2="201.527" y2="171.088"/>
			
				<line fill="none" stroke="#2C1A4D" stroke-width="3" stroke-linecap="round" stroke-miterlimit="10" x1="198.516" y1="181.535" x2="201.52" y2="181.537"/>
			
				<line fill="none" stroke="#2C1A4D" stroke-width="3" stroke-linecap="round" stroke-miterlimit="10" x1="198.505" y1="191.982" x2="201.509" y2="191.984"/>
		</g>
		<g>
			<path fill="#FFFFFF" d="M205.85,206.58c0,0,0,0-0.002,0c-1.048-0.001-1.896-0.852-1.896-1.898l0.019-20.644
				c0-1.047,0.85-1.896,1.896-1.896c0.001,0,0.001,0,0.002,0c1.048,0,1.896,0.851,1.896,1.898l-0.019,20.643
				C207.746,205.73,206.896,206.58,205.85,206.58z"/>
		</g>
		<g opacity="0.2">
			<g>
				<path fill="#2C1A4D" d="M205.878,171.611c-0.001,0-0.002,0-0.004,0c-1.048-0.002-1.896-0.854-1.894-1.901l0.02-10.498
					c0.002-1.047,0.852-1.894,1.896-1.894c0.002,0,0.002,0,0.004,0c1.049,0.002,1.896,0.853,1.895,1.9l-0.02,10.498
					C207.773,170.766,206.925,171.611,205.878,171.611z"/>
			</g>
		</g>
	</g>
	<g>
		<g>
			<g>
				
					<rect x="52.014" y="149.462" transform="matrix(-0.8566 -0.516 0.516 -0.8566 18.1631 317.1068)" fill="#B7E5FA" width="2.271" height="13.135"/>
			</g>
		</g>
		<g>
			<g>
				
					<rect x="70.085" y="154.901" transform="matrix(-0.5163 -0.8564 0.8564 -0.5163 -17.3967 302.2471)" fill="#B7E5FA" width="13.134" height="2.27"/>
			</g>
		</g>
		<g>
			<g>
				<path fill="#B7E5FA" d="M74.29,151.546H55.884l-9.203-15.94l9.203-15.938H74.29l9.202,15.938L74.29,151.546z M57.195,149.271
					h15.783l7.892-13.666l-7.892-13.668H57.195l-7.892,13.668L57.195,149.271z"/>
			</g>
		</g>
		<g>
			<g>
				<polygon fill="#B7E5FA" points="48.647,137.117 30.898,137.117 30.898,134.848 47.336,134.848 55.229,121.178 48.833,109.828 
					50.799,108.694 57.849,121.18 				"/>
			</g>
		</g>
		<g>
			<g>
				<polygon fill="#B7E5FA" points="99.259,136.74 81.509,136.74 72.305,120.802 81.509,104.863 99.914,104.863 108.789,120.232 
					106.822,121.369 98.604,107.134 82.82,107.134 74.928,120.802 82.82,134.469 99.259,134.469 				"/>
			</g>
		</g>
		<g>
			<g>
				<polygon fill="#B7E5FA" points="74.29,122.314 56.54,122.314 56.54,120.042 72.978,120.042 80.87,106.375 74.66,95.903 
					77.285,95.428 83.492,106.375 				"/>
			</g>
		</g>
		<g>
			<g>
				<circle fill="#B7E5FA" cx="56.54" cy="150.41" r="3.854"/>
			</g>
		</g>
		<g>
			<g>
				<circle fill="#B7E5FA" cx="49.758" cy="161.658" r="3.854"/>
			</g>
		</g>
		<g>
			<g>
				<circle fill="#B7E5FA" cx="80.038" cy="161.658" r="3.854"/>
			</g>
		</g>
		<g>
			<g>
				
					<rect x="40.235" y="129.712" transform="matrix(-0.0355 -0.9994 0.9994 -0.0355 -93.0969 182.194)" fill="#B7E5FA" width="2.269" height="12.618"/>
			</g>
		</g>
		<g>
			<g>
				<path fill="#B7E5FA" d="M33.533,139.325c-1.699,1.278-4.116,0.94-5.397-0.761c-1.28-1.699-0.942-4.115,0.758-5.398
					c1.7-1.277,4.117-0.939,5.398,0.762C35.572,135.627,35.232,138.043,33.533,139.325z"/>
			</g>
		</g>
		<g>
			<g>
				<path fill="#B7E5FA" d="M96.212,139.325c1.7,1.278,4.115,0.94,5.396-0.761c1.281-1.699,0.942-4.115-0.757-5.398
					c-1.701-1.277-4.119-0.939-5.398,0.762C94.173,135.627,94.513,138.043,96.212,139.325z"/>
			</g>
		</g>
		<g>
			<g>
				<circle fill="#B7E5FA" cx="81.118" cy="106.375" r="3.854"/>
			</g>
		</g>
		<g>
			<g>
				<circle fill="#B7E5FA" cx="73.635" cy="150.41" r="3.854"/>
			</g>
		</g>
		<g>
			<g>
				<circle fill="#B7E5FA" cx="73.635" cy="120.802" r="3.854"/>
			</g>
		</g>
		<g>
			<g>
				<circle fill="#B7E5FA" cx="56.54" cy="120.802" r="3.854"/>
			</g>
		</g>
		<g>
			<g>
				<circle fill="#B7E5FA" cx="47.992" cy="135.605" r="3.855"/>
			</g>
		</g>
		<g>
			<g>
				<circle fill="#B7E5FA" cx="82.181" cy="135.605" r="3.854"/>
			</g>
		</g>
		<g>
			<g>
				<circle fill="#B7E5FA" cx="99.259" cy="105.998" r="3.854"/>
			</g>
		</g>
		<g>
			<g>
				<circle fill="#B7E5FA" cx="107.807" cy="120.802" r="3.854"/>
			</g>
		</g>
		<g>
			<g>
				<circle fill="#B7E5FA" cx="48.796" cy="107.924" r="3.854"/>
			</g>
		</g>
		<g>
			<g>
				<circle fill="#B7E5FA" cx="74.031" cy="92.782" r="3.854"/>
			</g>
		</g>
	</g>
	<g>
		<g>
			<g>
				<path fill="#B7E5FA" d="M194.912,120.525h-18.405l-9.204-15.939l9.204-15.939h18.405l9.201,15.939L194.912,120.525z
					 M177.818,118.253H193.6l7.894-13.667L193.6,90.918h-15.781l-7.894,13.668L177.818,118.253z"/>
			</g>
		</g>
		<g>
			<g>
				<polyline fill="#B7E5FA" points="167.96,103.828 175.854,90.158 178.473,90.16 169.271,106.1 				"/>
			</g>
		</g>
		<g>
			<g>
				<polyline fill="#B7E5FA" points="203.441,76.114 195.551,89.782 203.441,103.451 202.133,105.723 192.928,89.782 
					202.133,73.844 				"/>
			</g>
		</g>
		<g>
			<g>
				<polygon fill="#B7E5FA" points="194.912,91.296 177.162,91.296 177.162,89.022 193.602,89.022 201.493,75.355 204.113,75.355 
									"/>
			</g>
		</g>
		<g>
			<g>
				<circle fill="#B7E5FA" cx="177.163" cy="119.391" r="3.854"/>
			</g>
		</g>
		<g>
			<g>
				<path fill="#B7E5FA" d="M202.909,79.028c2.028-0.645,3.149-2.812,2.504-4.841c-0.646-2.027-2.812-3.148-4.84-2.504
					s-3.151,2.812-2.507,4.842C198.715,78.551,200.882,79.673,202.909,79.028z"/>
			</g>
		</g>
		<g>
			<g>
				<circle fill="#B7E5FA" cx="194.257" cy="119.391" r="3.854"/>
			</g>
		</g>
		<g>
			<g>
				<circle fill="#B7E5FA" cx="194.257" cy="89.782" r="3.854"/>
			</g>
		</g>
		<g>
			<g>
				<circle fill="#B7E5FA" cx="177.163" cy="89.782" r="3.854"/>
			</g>
		</g>
		<g>
			<g>
				<path fill="#B7E5FA" d="M172.471,104.586c0,2.129-1.727,3.854-3.854,3.854c-2.13,0-3.854-1.726-3.854-3.854
					c0-2.126,1.725-3.854,3.854-3.854C170.744,100.732,172.471,102.46,172.471,104.586z"/>
			</g>
		</g>
		<g>
			<g>
				<path fill="#B7E5FA" d="M206.658,104.586c0,2.129-1.727,3.854-3.854,3.854c-2.13,0-3.854-1.726-3.854-3.854
					c0-2.126,1.726-3.854,3.854-3.854S206.658,102.46,206.658,104.586z"/>
			</g>
		</g>
	</g>
	<g>
		<g>
			<g>
				<polyline fill="#B7E5FA" points="229.059,120.816 221.167,134.482 229.059,148.152 227.748,150.424 218.544,134.482 
					227.748,118.545 				"/>
			</g>
		</g>
		<g>
			<g>
				<polygon fill="#B7E5FA" points="220.527,135.997 202.777,135.997 202.777,133.725 219.217,133.725 227.109,120.057 
					229.73,120.057 				"/>
			</g>
		</g>
		<g>
			<g>
				<path fill="#B7E5FA" d="M228.525,123.73c2.029-0.646,3.148-2.813,2.504-4.842c-0.646-2.027-2.812-3.148-4.842-2.505
					c-2.025,0.646-3.149,2.812-2.506,4.843C224.331,123.253,226.497,124.374,228.525,123.73z"/>
			</g>
		</g>
		<g>
			<g>
				<path fill="#B7E5FA" d="M205.73,138.154c2.029-0.645,3.15-2.812,2.504-4.84c-0.646-2.027-2.812-3.148-4.84-2.504
					c-2.027,0.644-3.15,2.813-2.506,4.842C201.536,137.678,203.704,138.799,205.73,138.154z"/>
			</g>
		</g>
		<g>
			<g>
				<circle fill="#B7E5FA" cx="219.874" cy="134.485" r="3.854"/>
			</g>
		</g>
		<g>
			<g>
				<path fill="#B7E5FA" d="M232.273,149.287c0,2.129-1.726,3.855-3.854,3.855c-2.127,0-3.854-1.728-3.854-3.855
					c0-2.125,1.727-3.854,3.854-3.854C230.549,145.434,232.273,147.162,232.273,149.287z"/>
			</g>
		</g>
	</g>
	<g>
		<g>
			<g>
				<path fill="#FDB61D" d="M69.681,57.579c-0.028,0.34-0.048,0.68-0.048,1.023c0,8.479,8.882,15.352,19.839,15.352
					c0.13,0,0.258-0.008,0.387-0.01l8.507-16.365H69.681z"/>
			</g>
			<g>
				<path fill="#F9D136" d="M109.311,58.603c0-0.344-0.02-0.684-0.049-1.023H89.859v16.365c6.687-0.1,12.566-2.752,16.063-6.758
					c0.699-0.801,8.979,6.502,14.232,10.657c1.813-2.152,4.053-3.879,5.596-6.303C120.718,66.805,109.311,59.295,109.311,58.603z"/>
			</g>
		</g>
		<g opacity="0.6">
			<rect x="78.109" y="57.661" fill="#E48C2C" width="4.744" height="14.15"/>
		</g>
		<g>
			<path fill="#2C1A4D" d="M82.722,211.637h-9.271c-1.048,0-1.897-0.85-1.897-1.896s0.85-1.897,1.897-1.897h9.271
				c1.048,0,1.897,0.851,1.897,1.897S83.77,211.637,82.722,211.637z"/>
		</g>
		<g>
			<path fill="#2C1A4D" d="M77.666,210.989c-0.69,0-1.25-0.56-1.25-1.25V52.149c0-0.69,0.56-1.25,1.25-1.25s1.25,0.56,1.25,1.25
				v157.59C78.916,210.43,78.356,210.989,77.666,210.989z"/>
		</g>
		<g>
			<path fill="#2C1A4D" d="M123.907,81.933c-0.63,0-1.263-0.202-1.795-0.618l-16.754-13.082c-0.544-0.425-0.641-1.211-0.216-1.755
				c0.425-0.544,1.211-0.641,1.754-0.216l16.755,13.082c0.187,0.146,0.466,0.11,0.611-0.075l2.801-3.812
				c0.168-0.216,0.133-0.496-0.054-0.643l-17.734-13.847c-0.544-0.425-0.641-1.211-0.216-1.755c0.425-0.544,1.211-0.641,1.754-0.216
				l17.736,13.848c1.276,0.999,1.503,2.848,0.507,4.122l-2.801,3.812C125.661,81.538,124.786,81.933,123.907,81.933z"/>
		</g>
		<g>
			<path fill="#2C1A4D" d="M89.859,75.204c-12.277,0-22.266-9.988-22.266-22.266c0-10.628,7.358-19.624,17.645-21.781v-9.346
				c0-1.62,1.317-2.938,2.936-2.938h3.371c1.619,0,2.936,1.318,2.936,2.938v9.346c10.287,2.158,17.645,11.153,17.645,21.781
				C112.125,65.216,102.136,75.204,89.859,75.204z M88.173,21.374c-0.236,0-0.436,0.2-0.436,0.438v11.449l-1.051,0.169
				c-9.615,1.551-16.594,9.755-16.594,19.508c0,10.898,8.867,19.766,19.766,19.766s19.766-8.867,19.766-19.766
				c0-9.753-6.979-17.958-16.594-19.508l-1.051-0.169V21.812c0-0.237-0.2-0.438-0.436-0.438H88.173z"/>
		</g>
		<g>
			<path fill="#FFFFFF" d="M93.873,69.147c-0.86,0-1.639-0.588-1.845-1.461c-0.241-1.021,0.39-2.043,1.41-2.284
				c5.8-1.373,9.851-6.495,9.851-12.456c0-1.048,0.85-1.897,1.897-1.897s1.897,0.85,1.897,1.897c0,7.729-5.252,14.369-12.772,16.149
				C94.165,69.131,94.018,69.147,93.873,69.147z"/>
		</g>
		<g opacity="0.2">
			<path fill="#2C1A4D" d="M103.362,47.714c-0.669,0-1.318-0.354-1.664-0.982c-1.898-3.445-5.232-5.782-9.147-6.414
				c-1.035-0.166-1.738-1.141-1.571-2.175c0.167-1.034,1.14-1.735,2.176-1.571c5.075,0.818,9.4,3.854,11.867,8.329
				c0.506,0.918,0.172,2.072-0.746,2.578C103.985,47.638,103.671,47.714,103.362,47.714z"/>
		</g>
		<g>
			<path fill="#2C1A4D" d="M112.903,52.464H66.868c-1.104,0-2-0.896-2-2s0.896-2,2-2h46.035c1.104,0,2,0.896,2,2
				S114.007,52.464,112.903,52.464z"/>
		</g>
		<g>
			<path fill="#2C1A4D" d="M120.082,78.681c-0.246,0-0.493-0.072-0.71-0.222c-0.568-0.393-0.71-1.172-0.317-1.739l7.689-11.118
				c0.392-0.568,1.171-0.709,1.739-0.317c0.568,0.393,0.71,1.172,0.317,1.739l-7.689,11.118
				C120.869,78.492,120.479,78.681,120.082,78.681z"/>
		</g>
		<g>
			<path fill="#2C1A4D" d="M130.584,69.195c-0.251,0-0.504-0.075-0.725-0.232l-5.041-3.592c-0.562-0.4-0.693-1.181-0.292-1.743
				c0.4-0.562,1.181-0.693,1.744-0.292l5.041,3.592c0.563,0.4,0.693,1.181,0.293,1.743
				C131.359,69.013,130.975,69.195,130.584,69.195z"/>
		</g>
		<g>
			<path fill="#FFFFFF" d="M118.01,72.083c-0.326,0-0.653-0.105-0.929-0.323l-4.67-3.688c-0.65-0.513-0.761-1.456-0.248-2.106
				c0.513-0.651,1.457-0.762,2.107-0.247l4.67,3.688c0.65,0.513,0.761,1.456,0.248,2.106
				C118.893,71.888,118.454,72.083,118.01,72.083z"/>
		</g>
	</g>
	<g>
		<g>
			<g>
				<path fill="#2C1A4D" d="M98.742,211.239c-0.141,0-0.284-0.021-0.425-0.063c-0.795-0.233-1.249-1.069-1.014-1.862l10.956-37.08
					c0.235-0.795,1.07-1.248,1.863-1.015c0.795,0.234,1.249,1.069,1.014,1.863l-10.956,37.08
					C99.987,210.816,99.39,211.239,98.742,211.239z"/>
			</g>
			<g>
				<path fill="#2C1A4D" d="M179.645,211.239c-0.647,0-1.246-0.423-1.438-1.075l-10.956-37.08c-0.234-0.794,0.221-1.629,1.016-1.863
					c0.793-0.234,1.629,0.219,1.862,1.014l10.955,37.08c0.233,0.795-0.219,1.629-1.015,1.863
					C179.928,211.221,179.784,211.239,179.645,211.239z"/>
			</g>
		</g>
		<g>
			<g>
				<path fill="#FAA437" d="M168.23,159.663h-33.865l4.58,31.043c0.082,0,0.164,0.006,0.246,0.006
					c16.078,0,29.111-13.032,29.111-29.108C168.305,160.95,168.273,160.305,168.23,159.663z"/>
			</g>
			<g>
				<path fill="#F68925" d="M110.154,159.663c-0.041,0.642-0.071,1.287-0.071,1.938c0,15.994,12.9,28.972,28.862,29.104v-31.043
					H110.154z"/>
			</g>
		</g>
		<g>
			<path fill="#FFFFFF" d="M122.821,181.422c-0.475,0-0.949-0.177-1.317-0.531c-5.034-4.855-7.806-11.371-7.805-18.345
				c0-1.048,0.85-1.897,1.897-1.897l0,0c1.048,0,1.898,0.851,1.897,1.897c0,5.935,2.359,11.479,6.645,15.612
				c0.754,0.729,0.776,1.93,0.048,2.684C123.814,181.229,123.318,181.422,122.821,181.422z"/>
		</g>
		<g>
			<path fill="#FFFFFF" d="M149.172,185.825c-0.714,0-1.396-0.404-1.72-1.095c-0.445-0.947-0.036-2.078,0.913-2.522
				c7.609-3.563,12.525-11.282,12.525-19.662c0-0.78-0.043-1.567-0.129-2.337c-0.115-1.042,0.637-1.979,1.68-2.095
				c1.039-0.117,1.979,0.638,2.094,1.679c0.1,0.907,0.15,1.834,0.15,2.753c0,9.847-5.774,18.913-14.711,23.101
				C149.716,185.768,149.441,185.825,149.172,185.825z"/>
		</g>
		<g opacity="0.6">
			<path fill="#E48C2C" d="M164.895,178.402h-51.406c-1.31,0-2.372-1.063-2.372-2.373c0-1.309,1.062-2.371,2.372-2.371h51.406
				c1.311,0,2.373,1.063,2.373,2.371C167.268,177.34,166.205,178.402,164.895,178.402z"/>
		</g>
		<g>
			<path fill="#2C1A4D" d="M150.887,94.692h-23.389c-0.69,0-1.25-0.56-1.25-1.25s0.56-1.25,1.25-1.25h23.389
				c0.689,0,1.25,0.56,1.25,1.25S151.577,94.692,150.887,94.692z"/>
		</g>
		<g>
			<path fill="#2C1A4D" d="M172.48,174.659h-66.577c-1.104,0-2-0.896-2-2s0.896-2,2-2h66.577c1.104,0,2,0.896,2,2
				S173.586,174.659,172.48,174.659z"/>
		</g>
		<g>
			<path fill="#2C1A4D" d="M152.255,211.637H126.13c-1.048,0-1.897-0.85-1.897-1.896s0.85-1.897,1.897-1.897h26.125
				c1.048,0,1.897,0.851,1.897,1.897S153.303,211.637,152.255,211.637z"/>
		</g>
		<g>
			<path fill="#2C1A4D" d="M139.191,193.292c-16.953,0-30.746-13.793-30.746-30.746c0-11.919,6.992-22.866,17.812-27.892
				c0.297-0.15,1.987-1.406,2.203-3.291c0.29-2.539,0.211-6.254,0.211-6.293V95.128c0-1.646,1.567-2.936,3.566-2.936h13.906
				c2,0,3.566,1.289,3.566,2.936v29.916c-0.003,0.095-0.154,3.401,0.294,6.343c0.247,1.622,1.665,3.01,2.004,3.219
				c10.87,4.965,17.929,15.942,17.929,27.94C169.939,179.499,156.146,193.292,139.191,193.292z M132.24,94.692
				c-0.674,0-1.047,0.336-1.067,0.438v29.913c0.003,0.131,0.083,3.895-0.228,6.604c-0.323,2.838-2.631,4.811-3.634,5.274
				c-9.94,4.616-16.364,14.675-16.364,25.624c0,15.575,12.671,28.246,28.247,28.246c15.574,0,28.246-12.671,28.246-28.246
				c0-11.021-6.484-21.107-16.519-25.693c-0.801-0.367-2.979-2.42-3.386-5.088c-0.488-3.195-0.328-6.637-0.321-6.781l-0.001-29.854
				c-0.021-0.1-0.395-0.436-1.066-0.436H132.24z"/>
		</g>
		<g>
			<path fill="#2C1A4D" d="M139.191,209.896c-0.551,0-1-0.447-1-1v-3.371c0-0.553,0.449-1,1-1c0.553,0,1,0.447,1,1v3.371
				C140.191,209.448,139.745,209.896,139.191,209.896z"/>
		</g>
		<g opacity="0.2">
			<path fill="#2C1A4D" d="M159.592,152.607c-0.654,0-1.291-0.338-1.643-0.944c-2.278-3.92-5.65-6.981-9.752-8.858
				c-0.953-0.436-1.373-1.562-0.938-2.515s1.564-1.373,2.516-0.937c4.82,2.203,8.781,5.801,11.455,10.402
				c0.526,0.906,0.219,2.067-0.688,2.594C160.244,152.525,159.916,152.607,159.592,152.607z"/>
		</g>
		<g opacity="0.2">
			<path fill="#2C1A4D" d="M142.563,126.814c-1.047,0-1.896-0.851-1.896-1.897V99.341c0-1.048,0.85-1.897,1.896-1.897
				s1.897,0.85,1.897,1.897v25.576C144.461,125.965,143.611,126.814,142.563,126.814z"/>
		</g>
	</g>
</g>
<g id="cecxli">
	<path fill="#FAA437" d="M143.398,200.311c0,3.258-0.957,5.898-4.213,5.898c-3.258,0-4.213-2.641-4.213-5.898
		c0-3.256,4.213-5.897,4.213-5.897S143.398,197.053,143.398,200.311z"/>
	<circle opacity="0.6" fill="#E48C2C" enable-background="new    " cx="139.186" cy="202.418" r="2.95"/>
</g>
</svg>
