<?xml version="1.0" encoding="utf-8"?>
<!-- Generator: Adobe Illustrator 16.0.0, SVG Export Plug-In . SVG Version: 6.00 Build 0)  -->
<!DOCTYPE svg PUBLIC "-//W3C//DTD SVG 1.1//EN" "http://www.w3.org/Graphics/SVG/1.1/DTD/svg11.dtd">
<svg version="1.1" xmlns="http://www.w3.org/2000/svg" xmlns:xlink="http://www.w3.org/1999/xlink" x="0px" y="0px" width="260px"
	 height="220px" viewBox="0 0 260 220" enable-background="new 0 0 260 220" xml:space="preserve">
<g id="bubble1">
	<circle fill="none" stroke="#FAA437" stroke-width="1.8977" stroke-miterlimit="10" cx="133.286" cy="160.019" r="9.27"/>
</g>
<g id="bubble2">
	<circle fill="#FAA437" cx="150.421" cy="159.456" r="5.057"/>
</g>
<g id="bubble3">
	<circle fill="#FAA437" cx="135.761" cy="139.792" r="3.423"/>
</g>
<g id="bubble4">
	<circle fill="none" stroke="#FAA437" stroke-width="1.8977" stroke-miterlimit="10" cx="139.694" cy="119.005" r="3.423"/>
</g>
<g id="bubble5">
	<circle fill="#FAA437" cx="137.499" cy="83.276" r="3.424"/>
</g>
<g id="bubble6">
	<circle fill="none" stroke="#FAA437" stroke-width="1.8977" stroke-miterlimit="10" cx="140.251" cy="70.688" r="2.305"/>
</g>
<g id="Others">
	<g>
		<ellipse fill="#D6EFF9" cx="140.344" cy="210.581" rx="90.489" ry="6.742"/>
	</g>
	<g>
		<g>
			<g>
				<path fill="#8AA83E" d="M199.922,179.466c-1.044,0-1.898,0.854-1.899,1.896l-0.024,26.471c-0.001,1.043,0.852,1.898,1.896,1.9
					l4.61,0.004V179.47L199.922,179.466z"/>
			</g>
			<g>
				<path fill="#96B53C" d="M209.032,179.476l-4.528-0.006v30.268l4.501,0.004c1.044,0,1.898-0.854,1.899-1.896l0.023-26.471
					C210.929,180.331,210.076,179.476,209.032,179.476z"/>
			</g>
		</g>
		<g>
			<path fill="#2C1A4D" d="M209.007,210.991l-9.114-0.008c-0.839-0.001-1.629-0.329-2.224-0.926
				c-0.595-0.596-0.922-1.386-0.921-2.225l0.053-55.998c0.002-1.734,1.414-3.145,3.147-3.145l9.113,0.008
				c0.839,0.001,1.629,0.329,2.224,0.926c0.595,0.596,0.922,1.386,0.921,2.225l-0.052,55.998
				C212.152,209.581,210.74,210.991,209.007,210.991z M199.949,151.19c-0.356,0-0.648,0.29-0.648,0.646l-0.053,55.998
				c0,0.231,0.119,0.386,0.19,0.457s0.226,0.191,0.456,0.191l9.111,0.008l-0.001,1.25l0.002-1.25c0.351,0,0.647-0.296,0.647-0.646
				l0.052-55.998c0-0.231-0.119-0.386-0.19-0.457s-0.226-0.191-0.456-0.191L199.949,151.19z"/>
		</g>
		<g>
			<path fill="#2C1A4D" d="M212.298,151.202L212.298,151.202l-15.589-0.014c-0.69-0.001-1.25-0.561-1.249-1.251
				s0.561-1.249,1.25-1.249h0.001l15.588,0.014c0.69,0.001,1.25,0.561,1.249,1.251S212.987,151.202,212.298,151.202z"/>
		</g>
		<g>
			
				<line fill="none" stroke="#2C1A4D" stroke-width="3" stroke-linecap="round" stroke-miterlimit="10" x1="198.534" y1="160.638" x2="201.538" y2="160.64"/>
			
				<line fill="none" stroke="#2C1A4D" stroke-width="3" stroke-linecap="round" stroke-miterlimit="10" x1="198.524" y1="171.086" x2="201.528" y2="171.088"/>
			
				<line fill="none" stroke="#2C1A4D" stroke-width="3" stroke-linecap="round" stroke-miterlimit="10" x1="198.515" y1="181.535" x2="201.519" y2="181.537"/>
			
				<line fill="none" stroke="#2C1A4D" stroke-width="3" stroke-linecap="round" stroke-miterlimit="10" x1="198.505" y1="191.983" x2="201.509" y2="191.985"/>
		</g>
		<g>
			<path fill="#FFFFFF" d="M205.85,206.58c-0.001,0-0.001,0-0.002,0c-1.048-0.001-1.896-0.851-1.896-1.899l0.018-20.643
				c0.001-1.047,0.851-1.896,1.897-1.896c0.001,0,0.001,0,0.002,0c1.048,0.001,1.896,0.851,1.896,1.899l-0.018,20.643
				C207.746,205.731,206.896,206.58,205.85,206.58z"/>
		</g>
		<g opacity="0.2">
			<g>
				<path fill="#2C1A4D" d="M205.878,171.611c-0.001,0-0.002,0-0.004,0c-1.048-0.002-1.896-0.853-1.894-1.901l0.02-10.498
					c0.002-1.047,0.851-1.894,1.897-1.894c0.001,0,0.002,0,0.004,0c1.048,0.002,1.896,0.853,1.894,1.901l-0.02,10.498
					C207.773,170.765,206.925,171.611,205.878,171.611z"/>
			</g>
		</g>
	</g>
	<g>
		<g>
			<g>
				
					<rect x="52.014" y="149.466" transform="matrix(0.8565 0.5161 -0.5161 0.8565 88.1559 -5.0437)" fill="#B7E5FA" width="2.271" height="13.135"/>
			</g>
		</g>
		<g>
			<g>
				
					<rect x="70.08" y="154.899" transform="matrix(0.5163 0.8564 -0.8564 0.5163 170.7066 9.835)" fill="#B7E5FA" width="13.135" height="2.27"/>
			</g>
		</g>
		<g>
			<g>
				<path fill="#B7E5FA" d="M74.29,151.546H55.884l-9.203-15.94l9.203-15.939H74.29l9.202,15.939L74.29,151.546z M57.195,149.271
					h15.783l7.892-13.665l-7.892-13.668H57.195l-7.892,13.668L57.195,149.271z"/>
			</g>
		</g>
		<g>
			<g>
				<polygon fill="#B7E5FA" points="48.647,137.117 30.898,137.117 30.898,134.848 47.336,134.848 55.229,121.178 48.833,109.828 
					50.799,108.694 57.849,121.18 				"/>
			</g>
		</g>
		<g>
			<g>
				<polygon fill="#B7E5FA" points="99.259,136.74 81.509,136.74 72.305,120.802 81.509,104.863 99.914,104.863 108.789,120.232 
					106.822,121.369 98.604,107.134 82.82,107.134 74.928,120.802 82.82,134.469 99.259,134.469 				"/>
			</g>
		</g>
		<g>
			<g>
				<polygon fill="#B7E5FA" points="74.29,122.315 56.54,122.315 56.54,120.042 72.978,120.042 80.87,106.375 74.66,95.903 
					77.285,95.428 83.492,106.375 				"/>
			</g>
		</g>
		<g>
			<g>
				<circle fill="#B7E5FA" cx="56.54" cy="150.41" r="3.854"/>
			</g>
		</g>
		<g>
			<g>
				<circle fill="#B7E5FA" cx="49.758" cy="161.658" r="3.854"/>
			</g>
		</g>
		<g>
			<g>
				<circle fill="#B7E5FA" cx="80.038" cy="161.658" r="3.854"/>
			</g>
		</g>
		<g>
			<g>
				
					<rect x="40.239" y="129.711" transform="matrix(0.0355 0.9994 -0.9994 0.0355 175.839 89.8436)" fill="#B7E5FA" width="2.269" height="12.618"/>
			</g>
		</g>
		<g>
			<g>
				<path fill="#B7E5FA" d="M33.533,139.325c-1.699,1.279-4.116,0.941-5.397-0.76c-1.28-1.7-0.942-4.116,0.758-5.399
					c1.7-1.277,4.117-0.939,5.398,0.762C35.572,135.627,35.232,138.043,33.533,139.325z"/>
			</g>
		</g>
		<g>
			<g>
				<path fill="#B7E5FA" d="M96.212,139.325c1.7,1.279,4.115,0.941,5.396-0.76c1.281-1.7,0.942-4.116-0.757-5.399
					c-1.701-1.277-4.119-0.939-5.398,0.762C94.173,135.627,94.513,138.043,96.212,139.325z"/>
			</g>
		</g>
		<g>
			<g>
				<circle fill="#B7E5FA" cx="81.118" cy="106.375" r="3.854"/>
			</g>
		</g>
		<g>
			<g>
				<circle fill="#B7E5FA" cx="73.635" cy="150.41" r="3.854"/>
			</g>
		</g>
		<g>
			<g>
				<circle fill="#B7E5FA" cx="73.635" cy="120.802" r="3.854"/>
			</g>
		</g>
		<g>
			<g>
				<circle fill="#B7E5FA" cx="56.54" cy="120.802" r="3.854"/>
			</g>
		</g>
		<g>
			<g>
				<circle fill="#B7E5FA" cx="47.992" cy="135.605" r="3.855"/>
			</g>
		</g>
		<g>
			<g>
				<circle fill="#B7E5FA" cx="82.181" cy="135.605" r="3.854"/>
			</g>
		</g>
		<g>
			<g>
				<circle fill="#B7E5FA" cx="99.259" cy="105.998" r="3.854"/>
			</g>
		</g>
		<g>
			<g>
				<circle fill="#B7E5FA" cx="107.807" cy="120.802" r="3.854"/>
			</g>
		</g>
		<g>
			<g>
				<circle fill="#B7E5FA" cx="48.796" cy="107.924" r="3.854"/>
			</g>
		</g>
		<g>
			<g>
				<circle fill="#B7E5FA" cx="74.031" cy="92.782" r="3.854"/>
			</g>
		</g>
	</g>
	<g>
		<g>
			<g>
				<path fill="#B7E5FA" d="M194.912,120.526h-18.405l-9.204-15.94l9.204-15.939h18.405l9.202,15.939L194.912,120.526z
					 M177.819,118.253h15.781l7.893-13.667l-7.893-13.668h-15.781l-7.894,13.668L177.819,118.253z"/>
			</g>
		</g>
		<g>
			<g>
				<polyline fill="#B7E5FA" points="167.96,103.828 175.853,90.158 178.473,90.16 169.271,106.1 				"/>
			</g>
		</g>
		<g>
			<g>
				<polyline fill="#B7E5FA" points="203.442,76.114 195.551,89.782 203.442,103.451 202.133,105.723 192.928,89.782 
					202.133,73.844 				"/>
			</g>
		</g>
		<g>
			<g>
				<polygon fill="#B7E5FA" points="194.912,91.296 177.162,91.296 177.162,89.022 193.601,89.022 201.493,75.355 204.114,75.355 
									"/>
			</g>
		</g>
		<g>
			<g>
				<circle fill="#B7E5FA" cx="177.163" cy="119.391" r="3.854"/>
			</g>
		</g>
		<g>
			<g>
				<path fill="#B7E5FA" d="M202.909,79.028c2.029-0.645,3.149-2.812,2.504-4.841c-0.646-2.027-2.812-3.148-4.84-2.504
					s-3.151,2.812-2.507,4.842C198.715,78.551,200.882,79.673,202.909,79.028z"/>
			</g>
		</g>
		<g>
			<g>
				<circle fill="#B7E5FA" cx="194.257" cy="119.391" r="3.854"/>
			</g>
		</g>
		<g>
			<g>
				<circle fill="#B7E5FA" cx="194.257" cy="89.782" r="3.854"/>
			</g>
		</g>
		<g>
			<g>
				<circle fill="#B7E5FA" cx="177.163" cy="89.782" r="3.854"/>
			</g>
		</g>
		<g>
			<g>
				<path fill="#B7E5FA" d="M172.47,104.586c0,2.129-1.726,3.854-3.854,3.854c-2.13,0-3.855-1.726-3.855-3.854
					c0-2.126,1.726-3.854,3.855-3.854C170.744,100.732,172.47,102.46,172.47,104.586z"/>
			</g>
		</g>
		<g>
			<g>
				<path fill="#B7E5FA" d="M206.658,104.586c0,2.129-1.726,3.854-3.854,3.854c-2.129,0-3.854-1.726-3.854-3.854
					c0-2.126,1.726-3.854,3.854-3.854C204.933,100.732,206.658,102.46,206.658,104.586z"/>
			</g>
		</g>
	</g>
	<g>
		<g>
			<g>
				<polyline fill="#B7E5FA" points="229.059,120.816 221.167,134.483 229.059,148.152 227.748,150.424 218.544,134.483 
					227.748,118.545 				"/>
			</g>
		</g>
		<g>
			<g>
				<polygon fill="#B7E5FA" points="220.528,135.997 202.777,135.997 202.777,133.725 219.217,133.725 227.11,120.057 
					229.73,120.057 				"/>
			</g>
		</g>
		<g>
			<g>
				<path fill="#B7E5FA" d="M228.525,123.73c2.029-0.645,3.149-2.812,2.505-4.842c-0.646-2.027-2.812-3.148-4.842-2.504
					c-2.026,0.645-3.15,2.812-2.506,4.842C224.331,123.253,226.497,124.374,228.525,123.73z"/>
			</g>
		</g>
		<g>
			<g>
				<path fill="#B7E5FA" d="M205.731,138.155c2.029-0.645,3.15-2.812,2.504-4.841c-0.646-2.027-2.812-3.148-4.84-2.504
					s-3.151,2.814-2.506,4.842C201.536,137.678,203.704,138.799,205.731,138.155z"/>
			</g>
		</g>
		<g>
			<g>
				<circle fill="#B7E5FA" cx="219.874" cy="134.485" r="3.854"/>
			</g>
		</g>
		<g>
			<g>
				<path fill="#B7E5FA" d="M232.274,149.287c0,2.129-1.726,3.855-3.854,3.855c-2.127,0-3.854-1.727-3.854-3.855
					c0-2.125,1.727-3.854,3.854-3.854C230.549,145.434,232.274,147.162,232.274,149.287z"/>
			</g>
		</g>
	</g>
	<g>
		<g>
			<g>
				<path fill="#FDB61D" d="M69.681,57.579c-0.028,0.34-0.048,0.68-0.048,1.023c0,8.479,8.882,15.352,19.839,15.352
					c0.13,0,0.258-0.008,0.387-0.01l8.507-16.365H69.681z"/>
			</g>
			<g>
				<path fill="#F9D136" d="M109.311,58.603c0-0.344-0.02-0.684-0.049-1.023H89.859v16.365c6.687-0.1,12.566-2.752,16.063-6.758
					c0.699-0.801,8.979,6.502,14.232,10.657c1.813-2.152,4.053-3.879,5.596-6.303C120.718,66.805,109.311,59.295,109.311,58.603z"/>
			</g>
		</g>
		<g opacity="0.6">
			<rect x="78.109" y="57.661" fill="#E48C2C" width="4.744" height="14.15"/>
		</g>
		<g>
			<path fill="#2C1A4D" d="M82.722,211.637h-9.271c-1.048,0-1.897-0.85-1.897-1.897s0.85-1.897,1.897-1.897h9.271
				c1.048,0,1.897,0.85,1.897,1.897S83.77,211.637,82.722,211.637z"/>
		</g>
		<g>
			<path fill="#2C1A4D" d="M77.666,210.989c-0.69,0-1.25-0.56-1.25-1.25V52.149c0-0.69,0.56-1.25,1.25-1.25s1.25,0.56,1.25,1.25
				v157.59C78.916,210.43,78.356,210.989,77.666,210.989z"/>
		</g>
		<g>
			<path fill="#2C1A4D" d="M123.907,81.933c-0.63,0-1.263-0.202-1.795-0.618l-16.754-13.082c-0.544-0.425-0.641-1.211-0.216-1.755
				c0.425-0.544,1.211-0.641,1.754-0.216l16.755,13.082c0.187,0.146,0.466,0.11,0.611-0.075l2.801-3.812
				c0.168-0.216,0.133-0.496-0.054-0.643l-17.734-13.847c-0.544-0.425-0.641-1.211-0.216-1.755s1.211-0.641,1.754-0.216
				l17.736,13.848c1.276,0.999,1.503,2.848,0.507,4.122l-2.801,3.812C125.661,81.538,124.786,81.933,123.907,81.933z"/>
		</g>
		<g>
			<path fill="#2C1A4D" d="M89.859,75.204c-12.277,0-22.266-9.988-22.266-22.266c0-10.628,7.358-19.624,17.645-21.781v-9.346
				c0-1.62,1.317-2.938,2.936-2.938h3.371c1.619,0,2.936,1.318,2.936,2.938v9.346c10.287,2.158,17.645,11.153,17.645,21.781
				C112.125,65.216,102.136,75.204,89.859,75.204z M88.173,21.374c-0.236,0-0.436,0.2-0.436,0.438v11.449l-1.051,0.169
				c-9.615,1.551-16.594,9.755-16.594,19.508c0,10.898,8.867,19.766,19.766,19.766s19.766-8.867,19.766-19.766
				c0-9.753-6.979-17.958-16.594-19.508l-1.051-0.169V21.812c0-0.237-0.2-0.438-0.436-0.438H88.173z"/>
		</g>
		<g>
			<path fill="#FFFFFF" d="M93.873,69.147c-0.86,0-1.639-0.588-1.845-1.461c-0.241-1.021,0.39-2.043,1.41-2.284
				c5.8-1.373,9.851-6.495,9.851-12.456c0-1.048,0.85-1.897,1.897-1.897s1.897,0.85,1.897,1.897c0,7.729-5.252,14.369-12.772,16.149
				C94.165,69.131,94.018,69.147,93.873,69.147z"/>
		</g>
		<g opacity="0.2">
			<path fill="#2C1A4D" d="M103.362,47.714c-0.669,0-1.318-0.354-1.664-0.982c-1.898-3.445-5.232-5.782-9.147-6.414
				c-1.035-0.166-1.738-1.141-1.571-2.175c0.167-1.034,1.14-1.735,2.176-1.571c5.075,0.818,9.4,3.854,11.867,8.329
				c0.506,0.918,0.172,2.072-0.746,2.578C103.985,47.638,103.671,47.714,103.362,47.714z"/>
		</g>
		<g>
			<path fill="#2C1A4D" d="M112.903,52.464H66.868c-1.104,0-2-0.896-2-2s0.896-2,2-2h46.035c1.104,0,2,0.896,2,2
				S114.007,52.464,112.903,52.464z"/>
		</g>
		<g>
			<path fill="#2C1A4D" d="M120.082,78.681c-0.246,0-0.493-0.072-0.71-0.222c-0.568-0.393-0.71-1.172-0.317-1.739l7.689-11.118
				c0.392-0.568,1.171-0.709,1.739-0.317c0.568,0.393,0.71,1.172,0.317,1.739l-7.689,11.118
				C120.869,78.492,120.479,78.681,120.082,78.681z"/>
		</g>
		<g>
			<path fill="#2C1A4D" d="M130.584,69.195c-0.251,0-0.504-0.075-0.725-0.232l-5.041-3.592c-0.562-0.4-0.693-1.181-0.292-1.743
				c0.4-0.562,1.181-0.693,1.744-0.292l5.041,3.592c0.562,0.4,0.693,1.181,0.292,1.743
				C131.359,69.013,130.975,69.195,130.584,69.195z"/>
		</g>
		<g>
			<path fill="#FFFFFF" d="M118.01,72.083c-0.326,0-0.653-0.105-0.929-0.323l-4.67-3.688c-0.65-0.513-0.761-1.456-0.248-2.106
				c0.513-0.651,1.457-0.762,2.107-0.247l4.67,3.688c0.65,0.513,0.761,1.456,0.248,2.106
				C118.893,71.888,118.454,72.083,118.01,72.083z"/>
		</g>
	</g>
	<g>
		<g>
			<g>
				<path fill="#2C1A4D" d="M98.742,211.239c-0.141,0-0.284-0.02-0.425-0.062c-0.795-0.234-1.249-1.069-1.014-1.863l10.956-37.08
					c0.235-0.795,1.07-1.248,1.863-1.014c0.795,0.234,1.249,1.069,1.014,1.863l-10.956,37.08
					C99.987,210.817,99.39,211.239,98.742,211.239z"/>
			</g>
			<g>
				<path fill="#2C1A4D" d="M179.644,211.239c-0.647,0-1.245-0.422-1.438-1.075l-10.956-37.08c-0.234-0.794,0.22-1.629,1.015-1.863
					c0.794-0.234,1.629,0.219,1.863,1.014l10.955,37.08c0.234,0.794-0.219,1.629-1.014,1.863
					C179.928,211.22,179.784,211.239,179.644,211.239z"/>
			</g>
		</g>
		<g>
			<g>
				<path fill="#FAA437" d="M168.231,159.663h-33.866l4.58,31.043c0.083,0,0.164,0.006,0.247,0.006
					c16.077,0,29.111-13.033,29.111-29.109C168.304,160.95,168.273,160.304,168.231,159.663z"/>
			</g>
			<g>
				<path fill="#F68925" d="M110.154,159.663c-0.041,0.641-0.071,1.287-0.071,1.939c0,15.994,12.9,28.971,28.862,29.104v-31.043
					H110.154z"/>
			</g>
		</g>
		<g>
			<path fill="#FFFFFF" d="M122.821,181.422c-0.475,0-0.949-0.177-1.317-0.531c-5.034-4.856-7.806-11.371-7.805-18.345
				c0-1.048,0.85-1.897,1.897-1.897l0,0c1.048,0,1.898,0.85,1.897,1.897c0,5.935,2.359,11.479,6.645,15.612
				c0.754,0.729,0.776,1.93,0.048,2.684C123.814,181.228,123.318,181.422,122.821,181.422z"/>
		</g>
		<g>
			<path fill="#FFFFFF" d="M149.172,185.825c-0.714,0-1.397-0.404-1.72-1.094c-0.445-0.948-0.036-2.078,0.913-2.523
				c7.609-3.564,12.525-11.282,12.525-19.662c0-0.781-0.043-1.567-0.128-2.337c-0.115-1.042,0.637-1.979,1.679-2.095
				c1.04-0.117,1.979,0.638,2.094,1.679c0.1,0.907,0.15,1.834,0.15,2.753c0,9.846-5.774,18.913-14.71,23.1
				C149.716,185.768,149.442,185.825,149.172,185.825z"/>
		</g>
		<g opacity="0.6">
			<path fill="#E48C2C" d="M164.895,178.402h-51.406c-1.31,0-2.372-1.062-2.372-2.372s1.062-2.372,2.372-2.372h51.406
				c1.31,0,2.373,1.062,2.373,2.372S166.205,178.402,164.895,178.402z"/>
		</g>
		<g>
			<path fill="#2C1A4D" d="M150.886,94.692h-23.388c-0.69,0-1.25-0.56-1.25-1.25s0.56-1.25,1.25-1.25h23.388
				c0.69,0,1.25,0.56,1.25,1.25S151.577,94.692,150.886,94.692z"/>
		</g>
		<g>
			<path fill="#2C1A4D" d="M172.481,174.659h-66.577c-1.104,0-2-0.896-2-2s0.896-2,2-2h66.577c1.104,0,2,0.896,2,2
				S173.586,174.659,172.481,174.659z"/>
		</g>
		<g>
			<path fill="#2C1A4D" d="M152.255,211.637H126.13c-1.048,0-1.897-0.85-1.897-1.897s0.85-1.897,1.897-1.897h26.125
				c1.048,0,1.897,0.85,1.897,1.897S153.303,211.637,152.255,211.637z"/>
		</g>
		<g>
			<path fill="#2C1A4D" d="M139.192,193.292c-16.953,0-30.746-13.793-30.746-30.746c0-11.919,6.992-22.867,17.812-27.892
				c0.297-0.15,1.987-1.406,2.203-3.291c0.29-2.539,0.211-6.254,0.211-6.292l0-29.943c0-1.646,1.567-2.936,3.567-2.936h13.905
				c2,0,3.567,1.289,3.567,2.936v29.916c-0.003,0.094-0.155,3.401,0.294,6.343c0.247,1.622,1.665,3.01,2.004,3.219
				c10.87,4.965,17.928,15.942,17.928,27.94C169.939,179.499,156.146,193.292,139.192,193.292z M132.24,94.692
				c-0.674,0-1.047,0.336-1.067,0.438v29.913c0.003,0.131,0.083,3.894-0.227,6.603c-0.324,2.838-2.632,4.811-3.635,5.275
				c-9.94,4.616-16.364,14.675-16.364,25.624c0,15.575,12.671,28.246,28.246,28.246s28.246-12.671,28.246-28.246
				c0-11.022-6.484-21.107-16.518-25.693c-0.801-0.368-2.979-2.42-3.386-5.089c-0.488-3.194-0.328-6.636-0.321-6.78l-0.001-29.855
				c-0.021-0.1-0.394-0.436-1.067-0.436H132.24z"/>
		</g>
		<g>
			<path fill="#2C1A4D" d="M139.192,209.896c-0.552,0-1-0.447-1-1v-3.371c0-0.553,0.448-1,1-1s1,0.447,1,1v3.371
				C140.192,209.448,139.745,209.896,139.192,209.896z"/>
		</g>
		<g opacity="0.2">
			<path fill="#2C1A4D" d="M159.592,152.608c-0.654,0-1.291-0.339-1.643-0.945c-2.278-3.92-5.65-6.982-9.752-8.858
				c-0.953-0.436-1.373-1.562-0.937-2.515c0.436-0.953,1.564-1.373,2.515-0.937c4.82,2.203,8.781,5.801,11.455,10.403
				c0.527,0.906,0.219,2.067-0.687,2.594C160.244,152.525,159.916,152.608,159.592,152.608z"/>
		</g>
		<g opacity="0.2">
			<path fill="#2C1A4D" d="M142.563,126.814c-1.048,0-1.897-0.85-1.897-1.897V99.341c0-1.048,0.85-1.897,1.897-1.897
				s1.897,0.85,1.897,1.897v25.576C144.461,125.965,143.611,126.814,142.563,126.814z"/>
		</g>
	</g>
</g>
<g id="cecxli">
	<path fill="#FAA437" d="M143.398,200.311c0,3.258-0.956,5.898-4.213,5.898s-4.213-2.641-4.213-5.898s4.213-5.898,4.213-5.898
		S143.398,197.053,143.398,200.311z"/>
	<circle opacity="0.6" fill="#E48C2C" cx="139.185" cy="202.418" r="2.95"/>
</g>
</svg>
