<?xml version="1.0" standalone="no"?>
<!DOCTYPE svg PUBLIC "-//W3C//DTD SVG 20010904//EN"
 "http://www.w3.org/TR/2001/REC-SVG-20010904/DTD/svg10.dtd">
<svg version="1.0" xmlns="http://www.w3.org/2000/svg"
 width="16.000000pt" height="16.000000pt" viewBox="0 0 16.000000 16.000000"
 preserveAspectRatio="xMidYMid meet">
<metadata>
Created by potrace 1.11, written by Peter Selinger 2001-2013
</metadata>
<g transform="translate(0.000000,16.000000) scale(0.001067,-0.001067)"
fill="#000000" stroke="none">
<path d="M7398 12895 c-2 -1 -57 -5 -123 -9 -117 -7 -142 -9 -255 -21 -151
-17 -142 -15 -230 -30 -14 -2 -43 -7 -66 -9 -23 -3 -108 -19 -190 -36 -82 -17
-160 -33 -174 -36 -140 -27 -514 -140 -685 -207 -44 -17 -82 -32 -85 -32 -3
-1 -17 -7 -32 -13 -15 -6 -67 -28 -115 -47 -194 -80 -574 -277 -733 -379 -44
-29 -286 -190 -320 -213 -67 -46 -308 -233 -346 -268 -6 -5 -40 -35 -75 -65
-433 -374 -825 -841 -1134 -1354 -82 -137 -275 -506 -275 -527 0 -7 -6 -20
-13 -28 -7 -9 -26 -50 -42 -91 -16 -41 -32 -79 -36 -85 -8 -12 -112 -291 -145
-390 -54 -164 -142 -493 -158 -595 -3 -19 -12 -66 -20 -105 -15 -73 -24 -127
-32 -185 -3 -19 -7 -46 -9 -60 -5 -25 -17 -119 -20 -152 -1 -10 -46 -48 -104
-88 -314 -216 -669 -490 -860 -665 -217 -197 -400 -382 -506 -510 -22 -26 -45
-53 -50 -59 -30 -32 -150 -192 -202 -271 -129 -193 -211 -356 -272 -540 -56
-169 -73 -259 -77 -420 -5 -211 29 -370 121 -560 193 -401 605 -698 1222 -879
49 -15 98 -28 109 -31 10 -2 57 -13 104 -24 104 -25 167 -39 200 -45 14 -2 43
-7 65 -11 22 -4 49 -9 60 -11 11 -2 40 -7 65 -10 25 -3 52 -7 60 -9 8 -2 38
-7 65 -10 28 -3 64 -8 80 -10 17 -3 53 -7 80 -10 28 -3 68 -7 90 -10 22 -2 78
-7 125 -11 47 -3 105 -7 130 -10 96 -8 364 -17 550 -18 l194 -1 55 -65 c102
-120 115 -134 291 -311 223 -224 404 -383 615 -538 33 -25 76 -56 95 -71 30
-22 182 -123 310 -206 246 -158 645 -352 1015 -492 158 -59 557 -177 665 -196
14 -2 43 -9 65 -14 22 -6 56 -13 75 -16 19 -3 46 -8 60 -11 34 -7 68 -13 114
-20 21 -4 48 -8 60 -11 11 -2 48 -7 81 -10 33 -4 63 -8 67 -11 4 -2 35 -6 70
-8 35 -3 72 -7 83 -9 18 -3 155 -14 285 -22 61 -4 524 -3 580 1 91 6 226 17
260 20 77 8 137 15 165 20 17 2 53 7 80 11 28 3 59 8 70 10 11 2 36 7 55 10
80 13 199 36 255 49 33 8 71 16 85 19 40 7 189 45 265 68 39 12 75 23 80 24 6
1 69 21 140 44 264 86 630 244 874 377 63 35 116 63 118 63 9 0 257 156 388
243 145 98 429 316 511 392 6 5 46 42 89 80 230 205 525 524 689 745 22 30 43
57 46 60 34 31 259 372 360 545 110 190 335 652 354 730 2 6 8 21 13 35 41
100 128 361 172 515 49 176 123 521 137 645 3 25 7 55 9 66 2 12 7 48 10 80 4
33 9 68 11 79 2 11 7 60 10 109 3 49 7 98 9 108 4 19 -10 25 -19 9 -8 -13 -76
-52 -76 -43 0 4 31 27 68 51 129 86 484 351 522 391 3 3 48 41 100 85 194 163
411 371 542 520 23 27 50 56 58 65 8 9 33 38 55 65 21 28 42 52 46 55 14 10
171 234 223 320 72 115 165 311 204 425 44 133 63 216 77 350 6 52 6 213 1
245 -3 14 -7 46 -10 71 -8 60 -41 186 -66 249 -77 194 -205 371 -372 510 -43
36 -84 70 -92 77 -59 51 -332 206 -441 250 -17 7 -50 21 -75 31 -195 82 -551
179 -830 226 -19 3 -44 8 -56 10 -12 2 -45 7 -74 11 -29 4 -62 9 -74 11 -33 7
-85 13 -161 20 -38 3 -77 8 -86 9 -15 3 -136 13 -234 20 -120 9 -280 16 -403
20 -74 2 -135 5 -136 7 -59 79 -408 438 -541 555 -376 331 -762 592 -1204 812
-172 86 -326 155 -465 207 -50 19 -100 38 -111 44 -29 13 -322 107 -375 120
-25 6 -56 15 -70 21 -14 5 -34 11 -45 13 -11 3 -60 14 -110 26 -49 12 -99 24
-110 26 -11 2 -42 8 -70 14 -85 17 -99 20 -134 26 -18 3 -43 8 -55 10 -11 2
-37 7 -56 10 -19 3 -46 7 -60 10 -32 5 -70 10 -195 24 -149 16 -183 19 -265
26 -73 6 -597 14 -602 9z m5158 -2700 c65 -3 130 -8 144 -10 14 -2 57 -7 95
-10 70 -7 295 -40 344 -50 162 -36 210 -47 286 -70 226 -66 407 -152 554 -262
51 -38 156 -146 174 -179 7 -12 20 -36 31 -55 98 -173 84 -375 -44 -638 -33
-68 -103 -188 -132 -226 -4 -5 -43 -57 -85 -115 -143 -191 -368 -426 -614
-640 -95 -83 -128 -110 -133 -110 -2 0 -6 37 -10 83 -3 45 -8 91 -10 102 -2
11 -7 49 -11 85 -4 36 -8 67 -10 70 -2 3 -6 25 -9 50 -5 40 -45 252 -61 320
-6 30 -12 57 -19 89 -3 13 -12 47 -20 75 -8 28 -17 62 -20 76 -12 62 -107 355
-169 520 -92 245 -240 554 -370 775 -67 113 -69 118 -56 126 7 4 16 6 19 4 4
-2 60 -7 126 -10z m-10507 -3223 c1 -38 3 -79 6 -93 2 -13 6 -60 10 -104 6
-75 28 -254 40 -320 3 -16 7 -43 10 -60 3 -16 7 -39 9 -50 2 -11 6 -38 10 -60
4 -22 18 -85 31 -140 13 -55 26 -111 29 -125 22 -115 148 -509 206 -650 18
-41 33 -82 35 -90 14 -61 249 -545 338 -695 23 -40 31 -62 24 -67 -6 -4 -14
-5 -17 -3 -3 2 -78 6 -165 10 -88 3 -173 8 -189 10 -16 2 -65 7 -109 10 -44 4
-88 8 -96 10 -9 1 -43 6 -76 9 -111 13 -349 57 -469 87 -394 99 -694 258 -831
441 -77 103 -100 171 -100 298 0 111 4 139 35 229 98 293 354 628 781 1026
133 125 461 395 479 395 4 0 8 -31 9 -68z"/>
</g>
</svg>
