<?xml version="1.0" encoding="utf-8"?>
<!-- Generator: Adobe Illustrator 21.0.2, SVG Export Plug-In . SVG Version: 6.00 Build 0)  -->
<svg version="1.1" id="Layer_1" xmlns="http://www.w3.org/2000/svg" xmlns:xlink="http://www.w3.org/1999/xlink" x="0px" y="0px"
	 viewBox="0 0 44 72" xml:space="preserve">
<style type="text/css">
<!-- 	.st0{fill:#FFFFFF;}
	.st1{fill:#98D84D;} -->
</style>
<rect fill="#FFFFFF" x="0.9" y="1.7" width="41.5" height="68.9"/>
<path class="category-color" d="M41,69V3H3.1v66H41 M44,72H0.1V0H44V72L44,72L44,72z"/>
<path class="category-color" d="M28,34L17.5,23.6c-0.5-0.5-1.4-0.5-2,0s-0.5,1.4,0,2L26,36L15.6,46.5c-0.5,0.5-0.5,1.4,0,2
	c0.3,0.3,0.6,0.4,1,0.4s0.7-0.1,1-0.4L28,38l2-2L28,34z"/>
</svg>
