<?xml version="1.0" encoding="utf-8"?>
<!-- Generator: Adobe Illustrator 16.0.0, SVG Export Plug-In . SVG Version: 6.00 Build 0)  -->
<!DOCTYPE svg PUBLIC "-//W3C//DTD SVG 1.1//EN" "http://www.w3.org/Graphics/SVG/1.1/DTD/svg11.dtd">
<svg version="1.1" id="Layer_1" xmlns="http://www.w3.org/2000/svg" xmlns:xlink="http://www.w3.org/1999/xlink" x="0px" y="0px"
	 width="43.855px" height="47px" viewBox="0 0 43.855 47" enable-background="new 0 0 43.855 47" xml:space="preserve">
<path fill="#98D84D" d="M40.855,44V3H3v41H40.855 M43.855,47H0V0h43.855V47L43.855,47L43.855,47z"/>
<path fill="#98D84D" d="M27.864,22.305L17.402,11.843c-0.549-0.549-1.438-0.549-1.987,0s-0.549,1.438,0,1.987l10.462,10.46
	L15.415,34.753c-0.549,0.549-0.549,1.438,0,1.987c0.274,0.274,0.634,0.411,0.994,0.411c0.36,0,0.719-0.137,0.994-0.411
	l10.462-10.462l1.987-1.987L27.864,22.305z"/>
</svg>
