<?xml version="1.0" encoding="utf-8"?>
<!-- Generator: Adobe Illustrator 16.0.0, SVG Export Plug-In . SVG Version: 6.00 Build 0)  -->
<!DOCTYPE svg PUBLIC "-//W3C//DTD SVG 1.1//EN" "http://www.w3.org/Graphics/SVG/1.1/DTD/svg11.dtd">
<svg version="1.1" id="Layer_1" xmlns="http://www.w3.org/2000/svg" xmlns:xlink="http://www.w3.org/1999/xlink" x="0px" y="0px"
	 width="22.438px" height="96.506px" viewBox="207.281 269.237 22.438 96.506"
	 enable-background="new 207.281 269.237 22.438 96.506" xml:space="preserve">
<path fill="#FFFFFF" d="M229.279,353.465c-0.586-0.586-1.535-0.586-2.121,0L220,360.622v-89.885c0-0.829-0.671-1.5-1.5-1.5
	s-1.5,0.671-1.5,1.5v89.885l-7.158-7.157c-0.586-0.586-1.536-0.586-2.121,0c-0.586,0.586-0.586,1.535,0,2.121l9.719,9.718
	c0.293,0.293,0.677,0.439,1.061,0.439s0.768-0.146,1.061-0.439l9.719-9.718C229.865,355,229.865,354.051,229.279,353.465z"/>
</svg>
