<?xml version="1.0" encoding="utf-8"?>
<!-- Generator: Adobe Illustrator 16.0.0, SVG Export Plug-In . SVG Version: 6.00 Build 0)  -->
<!DOCTYPE svg PUBLIC "-//W3C//DTD SVG 1.1//EN" "http://www.w3.org/Graphics/SVG/1.1/DTD/svg11.dtd">
<svg version="1.1" id="Layer_1" xmlns="http://www.w3.org/2000/svg" xmlns:xlink="http://www.w3.org/1999/xlink" x="0px" y="0px"
	 width="97.613px" height="18.601px" viewBox="0 0 97.613 18.601" enable-background="new 0 0 97.613 18.601" xml:space="preserve">
<g>
	<g>
		<g>
			<g>
				<path fill="#646997" d="M1.547,17.975c-0.665,0-1.123-0.074-1.547-0.147v-2.061c0.295,0.11,0.701,0.183,1.141,0.183
					c0.868,0,1.362-0.369,1.362-1.711v-12.5h2.396v12.59C4.899,16.374,4.068,17.975,1.547,17.975z"/>
				<path fill="#646997" d="M13.752,14.183c0-0.424,0.019-1.124,0.107-1.639l-0.037-0.019c-0.535,1.085-1.599,1.842-3.09,1.842
					c-2.079,0-2.743-1.327-2.743-2.926V6.819C7.546,6.745,6.937,6.669,6.405,6.636V5.163C7.62,5.016,9.075,4.96,10.345,4.997v5.872
					c0,0.956,0.259,1.527,1.123,1.527c1.196,0,2.134-1.361,2.134-2.963V5.016h2.341v7.343c0.443,0.074,1.067,0.149,1.603,0.185
					v1.473C16.385,14.164,14.967,14.22,13.752,14.183z"/>
				<path fill="#646997" d="M30.629,14.164V8.366c0-0.977-0.218-1.583-1.085-1.583c-1.03,0-2.097,1.214-2.097,3.001v4.38h-2.318
					V8.366c0-0.902-0.185-1.583-1.089-1.583c-1.085,0-2.097,1.289-2.097,3.001v4.38h-2.341V6.819
					c-0.439-0.074-1.063-0.149-1.599-0.183V5.163c1.16-0.147,2.596-0.203,3.811-0.166c0,0.441-0.037,1.122-0.111,1.658h0.019
					c0.554-1.125,1.658-1.842,3.02-1.842c1.617,0,2.3,0.956,2.521,1.842c0.425-0.905,1.436-1.842,2.979-1.842
					c1.772,0,2.747,0.977,2.747,3.057v6.295H30.629z"/>
				<path fill="#646997" d="M34.531,6.636V5.163c1.159-0.147,2.559-0.203,3.773-0.166c0,0.458-0.019,1.067-0.093,1.543h0.037
					c0.514-1.065,1.492-1.709,2.873-1.709c2.171,0,3.349,1.564,3.349,4.272c0,3.184-1.654,5.189-4.822,5.189
					c-0.443,0-0.794-0.019-1.178-0.072v4.381H36.13V6.819C35.69,6.745,35.063,6.669,34.531,6.636z M40.438,6.764
					c-1.233,0-1.968,1.434-1.968,3.001v2.54c0.365,0.109,0.753,0.165,1.233,0.165c1.344,0,2.3-0.846,2.3-3.111
					C42.004,7.646,41.506,6.764,40.438,6.764z"/>
				<path fill="#646997" d="M48.72,14.367c-0.882,0-1.765-0.094-2.536-0.295l0.144-2.228c0.702,0.242,1.695,0.443,2.6,0.443
					c1.211,0,2.152-0.498,2.152-1.639c0-2.375-5.213-1.289-5.213-5.374c0-2.21,1.75-3.74,4.732-3.74
					c0.702,0,1.511,0.094,2.245,0.224l-0.126,2.097c-0.701-0.202-1.473-0.331-2.226-0.331c-1.385,0-2.082,0.625-2.082,1.508
					c0,2.23,5.228,1.399,5.228,5.285C53.638,12.652,51.776,14.367,48.72,14.367z"/>
				<path fill="#646997" d="M58.736,14.351c-2.027,0-2.651-0.74-2.651-2.874V6.837h-1.583V5.016h1.565V2.2l2.355-0.629v3.445h2.226
					v1.822h-2.226v4.013c0,1.18,0.276,1.508,1.085,1.508c0.388,0,0.809-0.054,1.141-0.146v1.896
					C60.062,14.256,59.379,14.351,58.736,14.351z"/>
				<path fill="#646997" d="M67.461,14.183c0-0.532,0.018-1.087,0.088-1.565l-0.015-0.019c-0.442,1.03-1.565,1.752-2.928,1.752
					c-1.657,0-2.614-0.941-2.614-2.413c0-2.191,2.175-3.353,5.284-3.353V8.089c0-0.958-0.462-1.453-1.787-1.453
					c-0.827,0-1.932,0.273-2.706,0.714l-0.2-1.966c0.92-0.334,2.098-0.572,3.275-0.572c2.946,0,3.773,1.176,3.773,3.184v4.362
					c0.442,0.074,1.07,0.149,1.602,0.185v1.473C70.074,14.164,68.656,14.22,67.461,14.183z M67.276,10.116
					c-2.485,0-3.039,0.715-3.039,1.453c0,0.589,0.406,0.975,1.089,0.975c1.159,0,1.95-1.102,1.95-2.211V10.116z"/>
				<path fill="#646997" d="M75.185,6.856h0.036c0.443-1.161,1.329-2.171,2.91-2.043L78.02,7.131
					c-1.694-0.349-2.536,0.757-2.536,3.297v3.736h-2.341V6.819c-0.443-0.074-1.067-0.149-1.603-0.183V5.163
					c1.159-0.147,2.581-0.203,3.811-0.166C75.351,5.475,75.295,6.211,75.185,6.856z"/>
				<path fill="#646997" d="M83.181,14.351c-2.022,0-2.646-0.74-2.646-2.874V6.837h-1.588V5.016h1.569V2.2l2.355-0.629v3.445h2.227
					v1.822h-2.227v4.013c0,1.18,0.276,1.508,1.085,1.508c0.388,0,0.809-0.054,1.142-0.146v1.896
					C84.511,14.256,83.827,14.351,83.181,14.351z"/>
			</g>
		</g>
		<path fill="#646997" d="M91.938,1.506c-0.543-0.212-1.163-0.342-1.794-0.342c-1.337,0-2.297,0.842-2.297,2.355
			c0,1.435,0.783,2.278,2.156,2.278c0.317,0,0.602-0.042,0.86-0.122V3.321h1.304v3.229c-0.673,0.27-1.503,0.419-2.315,0.419
			c-2.145,0-3.419-1.262-3.419-3.326C86.434,1.515,87.877,0,90.226,0c0.668,0,1.333,0.124,1.912,0.293L91.938,1.506z"/>
		<path fill="#646997" d="M97.572,4.582h-3.086c-0.012,0.936,0.45,1.386,1.373,1.386c0.491,0,1.022-0.11,1.455-0.312l0.118,0.993
			c-0.532,0.209-1.159,0.319-1.783,0.319c-1.584,0-2.467-0.792-2.467-2.545c0-1.525,0.842-2.646,2.337-2.646
			c1.451,0,2.094,0.99,2.094,2.225C97.613,4.172,97.603,4.373,97.572,4.582z M95.479,2.717c-0.532,0-0.901,0.393-0.972,0.993h1.832
			C96.358,3.09,96.019,2.717,95.479,2.717z"/>
	</g>
</g>
</svg>
