<?xml version="1.0" encoding="utf-8"?>
<!-- Generator: Adobe Illustrator 21.0.2, SVG Export Plug-In . SVG Version: 6.00 Build 0)  -->
<svg version="1.1" id="Layer_1" xmlns="http://www.w3.org/2000/svg" xmlns:xlink="http://www.w3.org/1999/xlink" x="0px" y="0px"
	 viewBox="0 0 283.5 198.4" style="enable-background:new 0 0 283.5 198.4;" xml:space="preserve">
<style type="text/css">
	.st0{fill:#5FBAE9;}
	.st1{fill:#198DC2;}
	.st2{fill:#2C1A4D;}
	.st3{fill:#F78C1E;}
	.st4{fill:#E37B25;}
	.st5{fill:#CE3729;}
	.st6{fill:#FEDA00;}
	.st7{fill:none;}
	.st8{fill:#FCB017;}
	.st9{fill:#FFF2BC;}
</style>
<g class='planet_3_sub'>
	<circle class="st6" cx="206.8" cy="99.8" r="28.6"/>
	<g>
		<path class="st7" d="M241.3,88.7c-0.7-2.2-3.9-3.7-9.6-3.9c2.2,3.7,3.6,7.9,4.1,12.4C239.8,93.9,241.9,90.7,241.3,88.7z"/>
		<path class="st7" d="M171.2,110.6c0.7,2.2,4.7,3.6,10.7,3.9c-2.3-3.9-3.7-8.4-4-13.2C173.1,104.9,170.5,108.4,171.2,110.6z"/>
		<path class="st8" d="M214.8,75.9c8.4,4.6,14,13.2,14,23c0,1-0.1,2.1-0.2,3.1c1.2-0.7,2.4-1.4,3.5-2.1c0,0,0,0,0,0
			C232.1,88.7,224.9,79.2,214.8,75.9z"/>
		<path class="st8" d="M206.2,125c0.2,0,0.5,0,0.7,0c12.3,0,22.5-8.8,24.8-20.4c-1.3,0.8-2.7,1.5-4.1,2.3
			C224.5,116,216.3,123,206.2,125z"/>
		<path class="st6" d="M214.8,75.9c-2.5-0.8-5.2-1.3-8-1.3c-13.9,0-25.2,11.3-25.2,25.2c0,5.5,1.8,10.5,4.7,14.7
			c6.8-0.3,14.9-1.9,23.1-4.4c7.1-2.2,13.7-5,19.2-8.1c0.1-1,0.2-2,0.2-3.1C228.8,89.1,223.2,80.5,214.8,75.9z M200.3,86.8
			c-0.2,0.1-6.1,2.8-5.7,10c0,0.8-0.6,1.5-1.4,1.6c0,0-0.1,0-0.1,0c-0.8,0-1.5-0.6-1.5-1.4c-0.5-9.3,7.2-12.8,7.5-13
			c0.8-0.3,1.7,0,2,0.8C201.4,85.5,201,86.4,200.3,86.8z"/>
		<path class="st6" d="M227.5,106.8c-5,2.6-10.8,4.9-16.9,6.8c-7.4,2.3-14.6,3.8-21.1,4.4c4.4,4.2,10.2,6.8,16.7,6.9
			C216.3,123,224.5,116,227.5,106.8z"/>
		<path class="st2" d="M206.9,125c-0.2,0-0.5,0-0.7,0c-6.4-0.2-12.3-2.8-16.7-6.9c-1.7,0.2-3.4,0.2-4.9,0.3
			c5.3,6.4,13.3,10.5,22.3,10.5c15.3,0,27.9-11.9,28.9-26.9c-1.3,0.9-2.7,1.8-4.2,2.7C229.4,116.2,219.2,125,206.9,125z"/>
		<path class="st2" d="M244.9,87.6c-1.3-4.2-7-6.5-15.9-6.6c-5.3-6.3-13.3-10.2-22.1-10.2c-14.9,0-27.2,11.3-28.8,25.8
			c-8.1,5.4-11.9,10.8-10.5,15.2c1.3,4.2,6.6,6.4,15.3,6.6c0.3,0,0.6,0,0.8,0c0.3,0,0.6,0,0.9,0c1.6,0,3.2-0.1,4.9-0.3
			c6.5-0.6,13.7-2.1,21.1-4.4c6.1-1.9,11.9-4.3,16.9-6.8c1.4-0.7,2.8-1.5,4.1-2.3c1.5-0.9,2.9-1.8,4.2-2.7c0.1-0.1,0.2-0.1,0.3-0.2
			C243.2,96.6,246.2,91.7,244.9,87.6z M171.2,110.6c-0.7-2.2,1.9-5.7,6.7-9.4c0.2,4.8,1.7,9.3,4,13.2
			C175.9,114.3,171.9,112.8,171.2,110.6z M228.6,101.9c-5.4,3.1-12,5.9-19.2,8.1c-8.2,2.6-16.3,4.1-23.1,4.4
			c-3-4.1-4.7-9.2-4.7-14.7c0-13.9,11.3-25.2,25.2-25.2c2.8,0,5.5,0.5,8,1.3c10,3.3,17.3,12.8,17.3,23.9c0,0,0,0,0,0
			C231,100.5,229.9,101.2,228.6,101.9z M235.8,97.2c-0.4-4.5-1.8-8.7-4.1-12.4c5.6,0.2,8.9,1.7,9.6,3.9
			C241.9,90.7,239.8,93.9,235.8,97.2z"/>
		<path class="st9" d="M199,84c-0.3,0.1-8,3.6-7.5,13c0,0.8,0.7,1.4,1.5,1.4c0,0,0.1,0,0.1,0c0.8,0,1.5-0.8,1.4-1.6
			c-0.4-7.2,5.5-9.9,5.7-10c0.8-0.3,1.1-1.2,0.8-2C200.7,84,199.8,83.6,199,84z"/>
	</g>
</g>
<g class='planet_1'>
	<circle class="st0" cx="67" cy="98.6" r="27.8"/>
	<g>
		<path class="st0" d="M67,124c14,0,25.5-11.4,25.5-25.5c0-1.2-0.1-2.4-0.3-3.6c-0.5,0.3-1.1,0.5-1.7,0.5c-0.2,0-0.4,0-0.7-0.1
			l-28.6-5.9c-1.8-0.4-2.9-2.1-2.6-3.9c0.4-1.8,2.1-2.9,3.9-2.6l28.1,5.8C86.7,79.7,77.6,73.1,67,73.1c-13.9,0-25.2,11.1-25.4,24.9
			l22,4.5c1.8,0.4,2.9,2.1,2.6,3.9c-0.3,1.6-1.7,2.6-3.2,2.6c-0.2,0-0.4,0-0.7-0.1l-19.9-4.1C45.1,115.9,55.1,124,67,124z"/>
		<path class="st1" d="M62.9,109.1c1.5,0,2.9-1.1,3.2-2.6c0.4-1.8-0.8-3.5-2.6-3.9l-22-4.5c0,0.2,0,0.4,0,0.5c0,2.2,0.3,4.3,0.8,6.4
			l19.9,4.1C62.4,109.1,62.6,109.1,62.9,109.1z"/>
		<path class="st1" d="M58.6,85.7c-0.4,1.8,0.8,3.5,2.6,3.9l28.6,5.9c0.2,0,0.4,0.1,0.7,0.1c0.6,0,1.2-0.2,1.7-0.5
			c-0.3-2.1-0.9-4.2-1.7-6.1l-28.1-5.8C60.7,82.8,58.9,83.9,58.6,85.7z"/>
		<path class="st2" d="M67,69.3c-16.2,0-29.3,13.1-29.3,29.3c0,16.2,13.1,29.3,29.3,29.3c16.2,0,29.3-13.1,29.3-29.3
			C96.3,82.4,83.1,69.3,67,69.3z M41.5,98.6c0-0.2,0-0.4,0-0.5C41.8,84.3,53.1,73.1,67,73.1c10.6,0,19.7,6.5,23.5,15.8
			c0.8,1.9,1.4,4,1.7,6.1c0.2,1.2,0.3,2.4,0.3,3.6c0,14-11.4,25.5-25.5,25.5c-11.8,0-21.8-8.1-24.7-19.1
			C41.8,102.9,41.5,100.8,41.5,98.6z"/>
	</g>
</g>
<g class='planet_2'>
	<circle class="st3" cx="135" cy="100.6" r="27.8"/>
	<g>
		<path class="st3" d="M154.6,83.5c-4.7-5.5-11.6-9-19.4-9c-13.9,0-25.2,11.1-25.4,24.9c0,0.2,0,0.4,0,0.5c0,2.2,0.3,4.3,0.8,6.4
			c2,7.7,7.5,14,14.7,17.1C153.5,119.3,155.8,96.5,154.6,83.5z M127.3,108.3c-3,0-5.4-2.4-5.4-5.4c0-3,2.4-5.4,5.4-5.4
			c3,0,5.4,2.4,5.4,5.4C132.8,105.9,130.3,108.3,127.3,108.3z M140.3,91.6c-1.7,0-3.2-1.4-3.2-3.2c0-1.7,1.4-3.2,3.2-3.2
			c1.7,0,3.2,1.4,3.2,3.2C143.5,90.2,142,91.6,140.3,91.6z M143.7,109.7c0-1.3,1.1-2.4,2.4-2.4c1.3,0,2.4,1.1,2.4,2.4
			c0,1.3-1.1,2.4-2.4,2.4C144.8,112.1,143.7,111.1,143.7,109.7z"/>
		<path class="st4" d="M160.4,96.4c-0.3-2.1-0.9-4.2-1.7-6.1c-1-2.5-2.4-4.8-4.1-6.8c1.1,13-1.1,35.8-29.4,39.8c3.1,1.3,6.4,2,10,2
			c14,0,25.5-11.4,25.5-25.5C160.7,98.7,160.6,97.6,160.4,96.4z"/>
		<circle class="st5" cx="127.3" cy="102.9" r="5.4"/>
		<circle class="st5" cx="140.3" cy="88.4" r="3.2"/>
		<circle class="st5" cx="146.1" cy="109.7" r="2.4"/>
		<path class="st2" d="M135.2,70.7c-16.2,0-29.3,13.1-29.3,29.3c0,16.2,13.1,29.3,29.3,29.3c16.2,0,29.3-13.1,29.3-29.3
			C164.5,83.8,151.4,70.7,135.2,70.7z M135.2,125.4c-3.5,0-6.9-0.7-10-2c-7.2-3.1-12.7-9.4-14.7-17.1c-0.5-2-0.8-4.2-0.8-6.4
			c0-0.2,0-0.4,0-0.5c0.3-13.8,11.6-24.9,25.4-24.9c7.8,0,14.7,3.5,19.4,9c1.7,2,3.1,4.3,4.1,6.8c0.8,1.9,1.4,4,1.7,6.1
			c0.2,1.2,0.3,2.4,0.3,3.6C160.7,114,149.3,125.4,135.2,125.4z"/>
	</g>
</g>
<g class='planet_3'>
	<circle class="st6" cx="206.8" cy="99.8" r="28.6"/>
	<g>
		<path class="st7" d="M241.3,88.7c-0.7-2.2-3.9-3.7-9.6-3.9c2.2,3.7,3.6,7.9,4.1,12.4C239.8,93.9,241.9,90.7,241.3,88.7z"/>
		<path class="st7" d="M171.2,110.6c0.7,2.2,4.7,3.6,10.7,3.9c-2.3-3.9-3.7-8.4-4-13.2C173.1,104.9,170.5,108.4,171.2,110.6z"/>
		<path class="st8" d="M214.8,75.9c8.4,4.6,14,13.2,14,23c0,1-0.1,2.1-0.2,3.1c1.2-0.7,2.4-1.4,3.5-2.1c0,0,0,0,0,0
			C232.1,88.7,224.9,79.2,214.8,75.9z"/>
		<path class="st8" d="M206.2,125c0.2,0,0.5,0,0.7,0c12.3,0,22.5-8.8,24.8-20.4c-1.3,0.8-2.7,1.5-4.1,2.3
			C224.5,116,216.3,123,206.2,125z"/>
		<path class="st6" d="M214.8,75.9c-2.5-0.8-5.2-1.3-8-1.3c-13.9,0-25.2,11.3-25.2,25.2c0,5.5,1.8,10.5,4.7,14.7
			c6.8-0.3,14.9-1.9,23.1-4.4c7.1-2.2,13.7-5,19.2-8.1c0.1-1,0.2-2,0.2-3.1C228.8,89.1,223.2,80.5,214.8,75.9z M200.3,86.8
			c-0.2,0.1-6.1,2.8-5.7,10c0,0.8-0.6,1.5-1.4,1.6c0,0-0.1,0-0.1,0c-0.8,0-1.5-0.6-1.5-1.4c-0.5-9.3,7.2-12.8,7.5-13
			c0.8-0.3,1.7,0,2,0.8C201.4,85.5,201,86.4,200.3,86.8z"/>
		<path class="st6" d="M227.5,106.8c-5,2.6-10.8,4.9-16.9,6.8c-7.4,2.3-14.6,3.8-21.1,4.4c4.4,4.2,10.2,6.8,16.7,6.9
			C216.3,123,224.5,116,227.5,106.8z"/>
		<path class="st2" d="M206.9,125c-0.2,0-0.5,0-0.7,0c-6.4-0.2-12.3-2.8-16.7-6.9c-1.7,0.2-3.4,0.2-4.9,0.3
			c5.3,6.4,13.3,10.5,22.3,10.5c15.3,0,27.9-11.9,28.9-26.9c-1.3,0.9-2.7,1.8-4.2,2.7C229.4,116.2,219.2,125,206.9,125z"/>
		<path class="st2" d="M244.9,87.6c-1.3-4.2-7-6.5-15.9-6.6c-5.3-6.3-13.3-10.2-22.1-10.2c-14.9,0-27.2,11.3-28.8,25.8
			c-8.1,5.4-11.9,10.8-10.5,15.2c1.3,4.2,6.6,6.4,15.3,6.6c0.3,0,0.6,0,0.8,0c0.3,0,0.6,0,0.9,0c1.6,0,3.2-0.1,4.9-0.3
			c6.5-0.6,13.7-2.1,21.1-4.4c6.1-1.9,11.9-4.3,16.9-6.8c1.4-0.7,2.8-1.5,4.1-2.3c1.5-0.9,2.9-1.8,4.2-2.7c0.1-0.1,0.2-0.1,0.3-0.2
			C243.2,96.6,246.2,91.7,244.9,87.6z M171.2,110.6c-0.7-2.2,1.9-5.7,6.7-9.4c0.2,4.8,1.7,9.3,4,13.2
			C175.9,114.3,171.9,112.8,171.2,110.6z M228.6,101.9c-5.4,3.1-12,5.9-19.2,8.1c-8.2,2.6-16.3,4.1-23.1,4.4
			c-3-4.1-4.7-9.2-4.7-14.7c0-13.9,11.3-25.2,25.2-25.2c2.8,0,5.5,0.5,8,1.3c10,3.3,17.3,12.8,17.3,23.9c0,0,0,0,0,0
			C231,100.5,229.9,101.2,228.6,101.9z M235.8,97.2c-0.4-4.5-1.8-8.7-4.1-12.4c5.6,0.2,8.9,1.7,9.6,3.9
			C241.9,90.7,239.8,93.9,235.8,97.2z"/>
		<path class="st9" d="M199,84c-0.3,0.1-8,3.6-7.5,13c0,0.8,0.7,1.4,1.5,1.4c0,0,0.1,0,0.1,0c0.8,0,1.5-0.8,1.4-1.6
			c-0.4-7.2,5.5-9.9,5.7-10c0.8-0.3,1.1-1.2,0.8-2C200.7,84,199.8,83.6,199,84z"/>
	</g>
</g>
<g class='planet_1_sub'>
	<circle class="st0" cx="67" cy="98.6" r="27.8"/>
	<g>
		<path class="st0" d="M67,124c14,0,25.5-11.4,25.5-25.5c0-1.2-0.1-2.4-0.3-3.6c-0.5,0.3-1.1,0.5-1.7,0.5c-0.2,0-0.4,0-0.7-0.1
			l-28.6-5.9c-1.8-0.4-2.9-2.1-2.6-3.9c0.4-1.8,2.1-2.9,3.9-2.6l28.1,5.8C86.7,79.7,77.6,73.1,67,73.1c-13.9,0-25.2,11.1-25.4,24.9
			l22,4.5c1.8,0.4,2.9,2.1,2.6,3.9c-0.3,1.6-1.7,2.6-3.2,2.6c-0.2,0-0.4,0-0.7-0.1l-19.9-4.1C45.1,115.9,55.1,124,67,124z"/>
		<path class="st1" d="M62.9,109.1c1.5,0,2.9-1.1,3.2-2.6c0.4-1.8-0.8-3.5-2.6-3.9l-22-4.5c0,0.2,0,0.4,0,0.5c0,2.2,0.3,4.3,0.8,6.4
			l19.9,4.1C62.4,109.1,62.6,109.1,62.9,109.1z"/>
		<path class="st1" d="M58.6,85.7c-0.4,1.8,0.8,3.5,2.6,3.9l28.6,5.9c0.2,0,0.4,0.1,0.7,0.1c0.6,0,1.2-0.2,1.7-0.5
			c-0.3-2.1-0.9-4.2-1.7-6.1l-28.1-5.8C60.7,82.8,58.9,83.9,58.6,85.7z"/>
		<path class="st2" d="M67,69.3c-16.2,0-29.3,13.1-29.3,29.3c0,16.2,13.1,29.3,29.3,29.3c16.2,0,29.3-13.1,29.3-29.3
			C96.3,82.4,83.1,69.3,67,69.3z M41.5,98.6c0-0.2,0-0.4,0-0.5C41.8,84.3,53.1,73.1,67,73.1c10.6,0,19.7,6.5,23.5,15.8
			c0.8,1.9,1.4,4,1.7,6.1c0.2,1.2,0.3,2.4,0.3,3.6c0,14-11.4,25.5-25.5,25.5c-11.8,0-21.8-8.1-24.7-19.1
			C41.8,102.9,41.5,100.8,41.5,98.6z"/>
	</g>
</g>
</svg>
