<?xml version="1.0" encoding="utf-8"?>
<!-- Generator: Adobe Illustrator 16.0.0, SVG Export Plug-In . SVG Version: 6.00 Build 0)  -->
<!DOCTYPE svg PUBLIC "-//W3C//DTD SVG 1.1//EN" "http://www.w3.org/Graphics/SVG/1.1/DTD/svg11.dtd">
<svg version="1.1" id="Layer_1" xmlns="http://www.w3.org/2000/svg" xmlns:xlink="http://www.w3.org/1999/xlink" x="0px" y="0px"
	 width="204px" height="214px" viewBox="-12 -25.143 204 214" enable-background="new -12 -25.143 204 214" xml:space="preserve">
<g>
	<g>
		<g>
			<path fill="#FFDB01" d="M162.701,169.746l-4.031-7.332l-5.734,0.676l-5.859,7.66c-0.33,0.6,0.929,0.328,1.592,0.328l13.43-0.238
				C162.76,170.84,163.03,170.348,162.701,169.746z"/>
		</g>
	</g>
	<g>
		<g>
			<path fill="#FF8C03" d="M100.222-4.224c-1.213-1.188-2.871-1.923-4.704-1.923c-3.711,0-6.721,3.009-6.721,6.721
				c0,2.739,1.641,5.093,3.99,6.139C100.872,5.7,100.67-1.306,100.222-4.224z"/>
		</g>
		<g>
			<path fill="#FF8C03" d="M100.322,5.272l-1.888,1.352C99.141,6.283,99.779,5.827,100.322,5.272z"/>
		</g>
		<g>
			<path fill="#FF8C03" d="M95.518,7.297c1.027,0,1.998-0.238,2.869-0.65l-5.432,0.141C93.746,7.114,94.611,7.297,95.518,7.297z"/>
		</g>
		<g>
			<path fill="#E57B07" d="M98.402,6.647l0.032-0.023c-0.017,0.006-0.032,0.016-0.048,0.023H98.402z"/>
		</g>
		<g>
			<path fill="#E57B07" d="M91.485,6.826l1.47-0.038c-0.057-0.024-0.111-0.05-0.168-0.075C92.374,6.765,91.945,6.807,91.485,6.826z"
				/>
		</g>
		<g>
			<path fill="#E57B07" d="M100.222-4.224c0.448,2.918,0.65,9.924-7.435,10.937c0.057,0.025,0.111,0.051,0.168,0.075l5.432-0.141
				c0.016-0.007,0.031-0.017,0.048-0.023l1.888-1.352c1.186-1.212,1.918-2.868,1.918-4.698
				C102.24-1.306,101.467-3.003,100.222-4.224z"/>
		</g>
	</g>
	<g>
		<path fill="#4D58BC" d="M111.76,49.917c0,9.271-8.707,20.262-20.469,20.262S69.994,59.188,69.994,49.917
			c0-9.27,9.535-13.308,21.297-13.308S111.76,40.647,111.76,49.917z"/>
	</g>
	<g>
		<polygon fill="#49BDFF" points="25.064,128.506 27.578,129.48 20.631,142.527 16.472,140.676 		"/>
	</g>
	<g>
		<path fill="#4D58BC" d="M102.317,66.716c0.169,0.426,0.071,1.068,0.071,1.542l0,0c0,2.363-2.209,3.899-6.324,4.872
			c-3.139,0.744-7.492,0.635-11.107-0.057c-2.711-0.518-5.771-2.453-5.771-4.815l0,0c0-0.496-0.025-1.098,0.159-1.541
			c0,0,8.396,3.841,11.193,3.841C93.483,70.559,102.317,66.716,102.317,66.716z"/>
	</g>
	<g>
		<path fill="#FFCD5E" d="M97.137,63.046c-1.262,1.625-2.537,2.513-3.783,2.653c-0.779,0.081-1.367-0.151-1.684-0.321v-2.012
			c1.305-0.507,2.273-2.175,2.273-2.875c0-0.835-1.359-1.518-3.027-1.518s-3.027,0.674-3.027,1.518c0,0.708,0.969,2.368,2.27,2.875
			v2.012c-0.316,0.182-0.902,0.411-1.682,0.321c-1.254-0.14-2.521-1.028-3.783-2.653c-2.652-3.409-3.362-6.069-3.557-7.241
			c0-0.011,0.008-0.02,0.008-0.026c0.098-0.196,0.187-0.402,0.275-0.597c0.107-0.238,0.193-0.49,0.283-0.734
			c0.034-0.108,0.07-0.208,0.1-0.312c0.096-0.321,0.194-0.648,0.264-0.969c0.188-0.85,0.268-1.722,0.348-2.555
			c0.09-0.887,0.168-1.731,0.364-2.556c0.06-0.248,0.132-0.478,0.211-0.707c0.021-0.046,0.037-0.083,0.046-0.126
			c0.07-0.195,0.15-0.38,0.239-0.56c0.019-0.025,0.026-0.053,0.044-0.079c0.107-0.206,0.216-0.39,0.337-0.569
			c0.136-0.186,0.275-0.363,0.419-0.523l1.055-0.194l0.124-0.081c2.202-1.382,5.628-1.41,5.663-1.41
			c0.034,0,3.453,0.019,5.661,1.402l0.126,0.077l1.055,0.197c0.292,0.312,0.541,0.683,0.764,1.102
			c0.008,0.025,0.027,0.053,0.035,0.079c0.088,0.18,0.168,0.373,0.24,0.569c0.018,0.044,0.033,0.077,0.044,0.123
			c0.081,0.231,0.151,0.472,0.212,0.712c0.195,0.825,0.277,1.667,0.363,2.552c0.08,0.835,0.172,1.698,0.346,2.557
			c0.072,0.321,0.161,0.639,0.26,0.967c0.036,0.106,0.061,0.215,0.096,0.311c0.09,0.248,0.177,0.49,0.285,0.729
			c0.088,0.206,0.176,0.4,0.275,0.603c0,0.009,0.01,0.02,0.01,0.02C100.499,56.977,99.789,59.63,97.137,63.046z"/>
	</g>
	<g>
		<ellipse fill="#FFAB03" cx="95.67" cy="54.179" rx="3.612" ry="5.169"/>
	</g>
	<g>
		<polygon fill="#FFAB03" points="156.998,162.414 158.515,170.479 162.701,170.479 158.525,162.305 		"/>
	</g>
	<g>
		<path fill="#FFAB03" d="M80.596,52.822c-0.063,0.275-0.144,0.551-0.224,0.826c-0.036,0.114-0.071,0.228-0.116,0.345
			c-0.035,0.106-0.078,0.213-0.121,0.319c-0.135,0.327-0.276,0.656-0.445,0.984l-0.106,0.213c-0.203,0.375-0.424,0.738-0.667,1.083
			c-0.229,0.338-0.406,0.507-0.541,0.525c-0.176,0.035-0.468-0.222-0.734-0.622c-1.537-2.297-1.794-5.271-1.847-7.871
			c-0.009-0.329-0.009-0.595,0.053-0.835c0.054-0.204,0.158-0.417,0.337-0.681c1.208-1.812,3.463-3.018,5.883-3.16
			c0.18-0.011,0.338-0.02,0.498-0.02c0.346,0,0.631,0.027,0.871,0.064c-0.027,0.015-0.045,0.052-0.071,0.07l-0.161,0.158
			c-0.026,0.029-0.053,0.064-0.088,0.099c-0.187,0.187-0.363,0.375-0.525,0.585c-0.016,0.027-0.035,0.055-0.049,0.07
			c-0.182,0.24-0.339,0.49-0.483,0.756c-0.017,0.035-0.032,0.07-0.053,0.104c-0.131,0.261-0.268,0.525-0.372,0.817
			c-0.125,0.338-0.24,0.685-0.318,1.038c-0.214,0.925-0.312,1.858-0.4,2.755C80.834,51.27,80.756,52.061,80.596,52.822z"/>
	</g>
	<g>
		<path fill="#FFAB03" d="M104.19,56.496c-0.267,0.4-0.567,0.651-0.734,0.622c-0.128-0.018-0.304-0.187-0.536-0.498
			c-0.244-0.345-0.459-0.71-0.664-1.083l-0.105-0.211c-0.17-0.338-0.321-0.668-0.453-1.004c-0.035-0.097-0.078-0.193-0.114-0.301
			c-0.045-0.115-0.079-0.238-0.116-0.354c-0.078-0.277-0.159-0.543-0.223-0.817c-0.169-0.773-0.24-1.553-0.318-2.381
			c-0.088-0.901-0.177-1.836-0.398-2.757c-0.089-0.362-0.197-0.71-0.32-1.039c-0.105-0.294-0.24-0.56-0.373-0.815
			c-0.017-0.037-0.035-0.072-0.055-0.106c-0.15-0.275-0.309-0.525-0.487-0.764c-0.017-0.026-0.034-0.044-0.044-0.072
			c-0.16-0.211-0.338-0.408-0.523-0.595c-0.025-0.026-0.052-0.062-0.08-0.09l-0.16-0.156c-0.024-0.029-0.043-0.055-0.07-0.073
			c0.336-0.052,0.782-0.079,1.348-0.044c2.424,0.142,4.677,1.359,5.884,3.16c0.181,0.266,0.285,0.479,0.338,0.683
			c0.063,0.231,0.063,0.506,0.054,0.833C105.983,51.234,105.726,54.199,104.19,56.496z"/>
	</g>
	<g>
		<path fill="#EA9807" d="M105.003,55.927c0,0-3.567-5.521-4.573-4.871s2.273,6.732,3.017,6.732S105.003,55.927,105.003,55.927z"/>
	</g>
	<g>
		<path fill="#EA9807" d="M75.354,48.48c0,0,5.773-2.531,6.779-1.881c1.005,0.65-3.112,11.446-3.854,11.393
			C75.447,57.789,75.354,48.48,75.354,48.48z"/>
	</g>
	<g>
		<polygon fill="#4D58BC" points="56.188,185.121 61.408,176.082 66.627,185.121 		"/>
	</g>
	<g>
		<g>
			<path fill="#FFDB01" d="M159.144,141.92c0.003-1.113-1.053-1.902-2.169-1.904c-0.258-1.064-0.455-1.014-1.6-1.016
				c-0.818,0.002-1.1,0.221-1.541,0.844c-0.283-0.092-0.586-0.139-0.898-0.139c-1.689,0-2.854,0.836-2.854,2.523
				c0,1.436,0.99,2.512,2.322,2.842c0.295,0.369-0.049,1.393,0.402,1.561l1.018,3.025c0.198,0.836,0.521,0.834,0.72,0l1.211-4.064
				c0.614-0.215,1.864-1.254,2.022-1.893C158.886,143.693,159.144,143.029,159.144,141.92z"/>
		</g>
	</g>
	<g>
		<g>
			<path fill="#49BEFE" d="M159.232,54.348c-0.051,0-0.1-0.004-0.15-0.015l-6.465-1.335c-0.401-0.083-0.66-0.476-0.576-0.877
				c0.082-0.402,0.474-0.663,0.877-0.578l6.464,1.334c0.033,0.007,0.06,0.028,0.091,0.039c-0.853-2.23-3.007-3.818-5.538-3.818
				c-3.222,0-5.84,2.572-5.924,5.773l5.148,1.065c0.401,0.083,0.659,0.476,0.577,0.877c-0.072,0.351-0.383,0.593-0.728,0.593
				c-0.05,0-0.1-0.006-0.15-0.017l-4.685-0.968c0.629,2.604,2.965,4.54,5.761,4.54c3.276,0,5.933-2.656,5.933-5.933
				c0-0.321-0.032-0.635-0.082-0.944C159.646,54.245,159.449,54.348,159.232,54.348z"/>
		</g>
		<g>
			<path fill="#168DC1" d="M153.009,57.407c0.345,0,0.655-0.243,0.728-0.593c0.082-0.402-0.176-0.795-0.577-0.877l-5.148-1.065
				c-0.002,0.053-0.009,0.105-0.009,0.158c0,0.481,0.064,0.945,0.172,1.393l4.685,0.968
				C152.909,57.401,152.959,57.407,153.009,57.407z"/>
		</g>
		<g>
			<path fill="#168DC1" d="M159.382,52.877l-6.464-1.334c-0.403-0.084-0.795,0.176-0.877,0.578
				c-0.084,0.402,0.175,0.795,0.576,0.877l6.465,1.335c0.051,0.011,0.1,0.015,0.15,0.015c0.217,0,0.414-0.103,0.553-0.263
				c-0.064-0.406-0.17-0.795-0.312-1.169C159.441,52.905,159.415,52.885,159.382,52.877z"/>
		</g>
	</g>
	<g>
		<g>
			<path fill="#FE2C63" d="M147.23-2.434c0,0,0.204-0.554,2.867-5.929c2.642-5.337,1.317-11.992,1.317-11.992
				s-7.999,2.114-10.64,7.45c-2.664,5.377-3.039,7.376-3.039,7.376s-1.963-1.06-4.924,4.92c0,0,1.591,0.447,5.133-0.154l3.904,1.711
				c1.669,3.182,2.446,4.953,2.446,4.953C147.256-0.076,147.23-2.434,147.23-2.434z"/>
		</g>
		<g>
			<path fill="#FF0051" d="M141.344,2.34l-0.807,1.665c-0.366,0.74-1.262,1.04-2,0.676l-1.382-0.685
				c-0.737-0.365-1.04-1.261-0.674-1.999l0.81-1.665"/>
		</g>
		<g>
			<line fill="#FF0051" x1="137.736" y1="-5.528" x2="147.738" y2="-0.576"/>
		</g>
	</g>
	<g>
		<path fill="#C10C4D" d="M149.984-19.89c0,0,0.126,5.291-2.057,9.19c-2.182,3.901-3.714,6.13-3.714,6.13l-1.477,6.826l2.247,3.336
			l1.553-6.763l3.352-6.791l1.914-8.494l-1.043-3.897L149.984-19.89z"/>
	</g>
	<g>
		<path fill="#26E552" d="M98.82,158.127c0,0-2.519,7.258,6.12,7.336C104.94,165.463,102.441,158.268,98.82,158.127z"/>
	</g>
	<g>
		<path fill="#26E552" d="M113.456,156.586c0,0-8.013-0.918-8.347,6.566C105.109,163.152,111.32,162.088,113.456,156.586z"/>
	</g>
	<g>
		<g>
			<path fill="#FFB103" d="M22.479,33.638c-1.074-1.202-2.378-2.195-3.848-2.902c-0.818-0.266-1.674-0.444-2.556-0.534
				c4.431,1.814,7.555,6.163,7.555,11.245c0,6.71-5.44,12.151-12.151,12.151c-0.568,0-1.124-0.053-1.671-0.128
				c0.964,0.29,1.976,0.466,3.023,0.512c0.171,0.007,0.341,0.02,0.515,0.02c6.76,0,12.239-5.478,12.239-12.239
				C25.585,38.639,24.406,35.797,22.479,33.638z"/>
		</g>
		<g>
			<path fill="#FFDB01" d="M23.63,41.446c0-5.082-3.124-9.431-7.555-11.245c-0.405-0.042-0.816-0.07-1.233-0.07
				c-6.76,0-12.238,5.48-12.238,12.238c0,4.865,2.844,9.054,6.953,11.028c0.082,0.026,0.168,0.046,0.251,0.072
				c0.547,0.075,1.103,0.128,1.671,0.128C18.189,53.597,23.63,48.156,23.63,41.446z"/>
		</g>
	</g>
	<g>
		<path fill="#2C1A4D" d="M-4.35,78.457c2.09,0,3.664,0.588,4.723,1.764c1.057,1.176,1.586,2.851,1.586,5.023v13.881
			c0,2.174-0.549,3.842-1.645,5.004c-1.096,1.164-2.688,1.746-4.778,1.746s-3.683-0.582-4.779-1.746
			c-1.097-1.162-1.644-2.83-1.644-5.004v-3.719c0-1.228,0.172-2.27,0.518-3.125c0.345-0.857,0.799-1.554,1.361-2.09
			c0.562-0.537,1.207-0.934,1.936-1.189c0.729-0.256,1.477-0.383,2.244-0.383c1.176,0,2.032,0.293,2.568,0.881v-4.549
			c0-0.977-0.199-1.664-0.6-2.062c-0.398-0.398-0.934-0.598-1.604-0.598s-1.206,0.201-1.606,0.601
			c-0.398,0.4-0.599,1.091-0.599,2.071v1.316h-3.987v-1.035c0-2.173,0.527-3.848,1.586-5.023
			C-8.013,79.045-6.439,78.457-4.35,78.457z M-2.26,95.127c0-0.967-0.199-1.655-0.6-2.062c-0.398-0.408-0.934-0.611-1.604-0.611
			s-1.206,0.203-1.606,0.611c-0.398,0.407-0.599,1.096-0.599,2.062v4.239c0,0.968,0.2,1.655,0.599,2.062
			c0.4,0.407,0.936,0.61,1.606,0.61s1.206-0.203,1.604-0.61c0.4-0.407,0.6-1.095,0.6-2.062V95.127z"/>
		<path fill="#2C1A4D" d="M15.322,78.457c2.09,0,3.682,0.588,4.779,1.764c1.096,1.176,1.644,2.851,1.644,5.023v13.881
			c0,2.174-0.548,3.842-1.644,5.004c-1.098,1.164-2.689,1.746-4.779,1.746s-3.684-0.582-4.779-1.746
			c-1.096-1.162-1.645-2.83-1.645-5.004V96.02h4.219v3.375c0,0.971,0.199,1.654,0.6,2.051c0.399,0.396,0.934,0.594,1.605,0.594
			c0.67,0,1.205-0.197,1.605-0.594c0.398-0.396,0.6-1.08,0.6-2.051V84.976c0-0.972-0.201-1.661-0.6-2.071
			c-0.4-0.408-0.936-0.613-1.605-0.613c-0.672,0-1.206,0.205-1.605,0.613c-0.4,0.41-0.6,1.1-0.6,2.071v2.569H8.898v-2.301
			c0-2.173,0.549-3.848,1.645-5.023S13.232,78.457,15.322,78.457z"/>
		<path fill="#2C1A4D" d="M41.359,87.238c-0.088,0.512-0.228,0.99-0.418,1.438c-0.189,0.447-0.431,0.831-0.722,1.15
			c-0.291,0.32-0.64,0.557-1.045,0.709c0.405,0.154,0.754,0.397,1.045,0.729c0.291,0.333,0.532,0.722,0.722,1.169
			c0.19,0.447,0.33,0.928,0.418,1.438c0.09,0.512,0.133,1.022,0.133,1.534v3.719c0,2.174-0.546,3.842-1.639,5.004
			c-1.093,1.164-2.681,1.746-4.765,1.746c-2.059,0-3.64-0.582-4.745-1.746c-1.105-1.162-1.658-2.83-1.658-5.004v-20.4h4.218v20.635
			c0,0.971,0.198,1.659,0.595,2.068c0.396,0.408,0.926,0.611,1.591,0.611s1.194-0.203,1.592-0.611
			c0.396-0.409,0.595-1.098,0.595-2.068V95.11c0-0.97-0.195-1.658-0.586-2.067c-0.391-0.408-0.913-0.613-1.567-0.613h-0.34v-3.827
			h0.34c0.654,0,1.177-0.198,1.567-0.593c0.391-0.396,0.586-1.079,0.586-2.049v-0.613c0-0.306-0.121-0.65-0.359-1.033
			s-0.509-0.811-0.811-1.283c-0.303-0.472-0.573-0.981-0.812-1.53c-0.239-0.549-0.358-1.155-0.358-1.819v-0.957h4.219v0.959
			c0,0.562,0.119,1.023,0.357,1.381s0.51,0.723,0.812,1.093s0.572,0.786,0.812,1.246c0.238,0.46,0.357,1.073,0.357,1.841v0.46
			C41.492,86.216,41.449,86.727,41.359,87.238z"/>
		<path fill="#2C1A4D" d="M55.277,88.619c0.764,0,1.51,0.127,2.236,0.383c0.726,0.256,1.369,0.652,1.93,1.189
			c0.561,0.536,1.014,1.232,1.357,2.09c0.344,0.855,0.517,1.897,0.517,3.125v3.719c0,2.174-0.548,3.842-1.644,5.004
			c-1.098,1.164-2.689,1.746-4.779,1.746s-3.684-0.582-4.779-1.746c-1.096-1.162-1.645-2.83-1.645-5.004V85.244
			c0-2.173,0.533-3.848,1.597-5.023c1.064-1.176,2.628-1.764,4.692-1.764c0.384,0,0.787,0.025,1.209,0.076
			c0.421,0.052,0.862,0.096,1.322,0.135c0.46,0.038,0.926,0.057,1.399,0.057s0.94-0.051,1.399-0.152v3.719
			c-0.332,0.104-0.741,0.16-1.227,0.173c-0.486,0.013-0.984,0.007-1.496-0.019s-0.99-0.059-1.438-0.096
			c-0.447-0.039-0.799-0.059-1.055-0.059c-0.639,0-1.164,0.199-1.572,0.598c-0.409,0.398-0.613,1.086-0.613,2.062l0.025,4.549
			C53.25,88.912,54.104,88.619,55.277,88.619z M57.1,95.127c0-0.967-0.201-1.655-0.6-2.062c-0.4-0.408-0.936-0.611-1.605-0.611
			c-0.672,0-1.206,0.203-1.605,0.611c-0.4,0.407-0.6,1.096-0.6,2.062v4.239c0,0.968,0.199,1.655,0.6,2.062
			c0.399,0.407,0.934,0.61,1.605,0.61c0.67,0,1.205-0.203,1.605-0.61c0.398-0.407,0.6-1.095,0.6-2.062V95.127z"/>
		<path fill="#2C1A4D" d="M68.258,105.605v-20.4c0-2.172,0.549-3.847,1.648-5.023c1.1-1.175,2.685-1.764,4.755-1.764
			c2.097,0,3.694,0.589,4.794,1.764c1.099,1.177,1.648,2.852,1.648,5.023v20.4h-4.219V84.938c0-0.972-0.197-1.662-0.594-2.07
			c-0.396-0.409-0.939-0.614-1.63-0.614c-0.665,0-1.195,0.205-1.591,0.614c-0.396,0.408-0.595,1.099-0.595,2.07v20.668H68.258z"/>
		<path fill="#2C1A4D" d="M94.429,78.457c2.09,0,3.683,0.588,4.778,1.764s1.645,2.851,1.645,5.023v13.881
			c0,2.174-0.549,3.842-1.645,5.004c-1.096,1.164-2.688,1.746-4.778,1.746s-3.683-0.582-4.779-1.746
			c-1.097-1.162-1.644-2.83-1.644-5.004V96.02h4.218v3.375c0,0.971,0.2,1.654,0.599,2.051c0.4,0.396,0.936,0.594,1.606,0.594
			s1.206-0.197,1.604-0.594c0.4-0.396,0.6-1.08,0.6-2.051V84.976c0-0.972-0.199-1.661-0.6-2.071
			c-0.398-0.408-0.934-0.613-1.604-0.613s-1.206,0.205-1.606,0.613c-0.398,0.41-0.599,1.1-0.599,2.071v2.569h-4.218v-2.301
			c0-2.173,0.547-3.848,1.644-5.023S92.339,78.457,94.429,78.457z"/>
		<path fill="#2C1A4D" d="M107.791,105.605v-20.4c0-2.172,0.531-3.847,1.592-5.023c1.061-1.175,2.627-1.764,4.697-1.764
			c0.384,0,0.787,0.026,1.209,0.077c0.421,0.052,0.862,0.096,1.322,0.134c0.46,0.039,0.926,0.059,1.399,0.059
			s0.94-0.052,1.399-0.154v3.72c-0.332,0.103-0.741,0.16-1.227,0.173c-0.486,0.014-0.979,0.006-1.477-0.02s-0.978-0.057-1.438-0.096
			c-0.461-0.039-0.818-0.058-1.074-0.058c-0.639,0-1.164,0.206-1.572,0.616c-0.409,0.41-0.613,1.104-0.613,2.079v4.505
			c0.281-0.253,0.633-0.461,1.055-0.626c0.422-0.164,0.926-0.247,1.515-0.247c0.767,0,1.515,0.128,2.243,0.383
			c0.729,0.256,1.374,0.656,1.937,1.205c0.562,0.549,1.017,1.25,1.361,2.104c0.345,0.855,0.518,1.883,0.518,3.081v10.253h-4.218
			V95.061c0-0.971-0.199-1.654-0.595-2.051c-0.396-0.396-0.939-0.595-1.63-0.595c-0.665,0-1.195,0.198-1.592,0.595
			s-0.594,1.08-0.594,2.051v10.545H107.791z"/>
		<path fill="#2C1A4D" d="M127.539,105.605v-20.4c0-2.172,0.551-3.847,1.649-5.023c1.099-1.175,2.685-1.764,4.755-1.764
			c2.096,0,3.693,0.589,4.793,1.764c1.1,1.177,1.649,2.852,1.649,5.023v20.4h-4.218V84.938c0-0.972-0.199-1.662-0.595-2.07
			c-0.396-0.409-0.939-0.614-1.63-0.614c-0.665,0-1.195,0.205-1.592,0.614c-0.396,0.408-0.594,1.099-0.594,2.07v20.668H127.539z"/>
		<path fill="#2C1A4D" d="M147.287,101.541h4.065v4.064h-4.065V101.541z"/>
		<path fill="#2C1A4D" d="M164.793,78.457c2.09,0,3.663,0.588,4.721,1.764s1.587,2.851,1.587,5.023v13.881
			c0,2.174-0.548,3.842-1.644,5.004c-1.098,1.164-2.689,1.746-4.779,1.746s-3.684-0.582-4.779-1.746
			c-1.096-1.162-1.645-2.83-1.645-5.004v-3.719c0-1.228,0.174-2.27,0.519-3.125c0.345-0.857,0.798-1.554,1.36-2.09
			c0.562-0.537,1.209-0.934,1.938-1.189s1.477-0.383,2.243-0.383c1.175,0,2.032,0.293,2.569,0.881v-4.549
			c0-0.977-0.201-1.664-0.6-2.062c-0.4-0.398-0.936-0.598-1.605-0.598c-0.672,0-1.206,0.201-1.605,0.601
			c-0.4,0.4-0.6,1.091-0.6,2.071v1.316h-3.988v-1.035c0-2.173,0.529-3.848,1.587-5.023S162.703,78.457,164.793,78.457z
			 M166.883,95.127c0-0.967-0.201-1.655-0.6-2.062c-0.4-0.408-0.936-0.611-1.605-0.611c-0.672,0-1.206,0.203-1.605,0.611
			c-0.4,0.407-0.6,1.096-0.6,2.062v4.239c0,0.968,0.199,1.655,0.6,2.062c0.399,0.407,0.934,0.61,1.605,0.61
			c0.67,0,1.205-0.203,1.605-0.61c0.398-0.407,0.6-1.095,0.6-2.062V95.127z"/>
		<path fill="#2C1A4D" d="M184.464,78.457c2.09,0,3.683,0.588,4.778,1.764s1.645,2.851,1.645,5.023v13.881
			c0,2.174-0.549,3.842-1.645,5.004c-1.096,1.164-2.688,1.746-4.778,1.746s-3.683-0.582-4.779-1.746
			c-1.097-1.162-1.644-2.83-1.644-5.004V96.02h4.218v3.375c0,0.971,0.2,1.654,0.599,2.051c0.4,0.396,0.936,0.594,1.606,0.594
			s1.206-0.197,1.604-0.594c0.4-0.396,0.6-1.08,0.6-2.051V84.976c0-0.972-0.199-1.661-0.6-2.071
			c-0.398-0.408-0.934-0.613-1.604-0.613s-1.206,0.205-1.606,0.613c-0.398,0.41-0.599,1.1-0.599,2.071v2.569h-4.218v-2.301
			c0-2.173,0.547-3.848,1.644-5.023S182.374,78.457,184.464,78.457z"/>
	</g>
	<g>
		<path fill="#2C1A4D" d="M160.804,72.931c-0.241,0-0.464-0.159-0.532-0.402c-1.141-4.029-2.646-7.989-4.479-11.771
			c-0.133-0.275-0.019-0.606,0.257-0.739c0.275-0.133,0.605-0.019,0.739,0.257c1.859,3.84,3.39,7.861,4.547,11.952
			c0.083,0.294-0.088,0.6-0.382,0.683C160.904,72.924,160.854,72.931,160.804,72.931z"/>
	</g>
	<g>
		<path fill="#2C1A4D" d="M148.709,48.733c-0.166,0-0.331-0.075-0.44-0.218c-3.077-4.044-6.594-7.777-10.452-11.096
			c-0.232-0.199-0.259-0.548-0.06-0.78c0.199-0.231,0.548-0.258,0.78-0.059c3.918,3.369,7.488,7.159,10.612,11.265
			c0.185,0.243,0.138,0.59-0.105,0.775C148.944,48.696,148.826,48.733,148.709,48.733z"/>
	</g>
	<g>
		<path fill="#2C1A4D" d="M20.568,73.045c-0.049,0-0.1-0.006-0.149-0.021c-0.295-0.083-0.466-0.388-0.383-0.683
			c6.32-22.48,23.177-40.765,45.091-48.912c15.434-5.736,32.565-6.096,48.241-1.01c0.29,0.094,0.449,0.406,0.355,0.697
			c-0.095,0.291-0.407,0.45-0.697,0.355c-15.437-5.009-32.312-4.656-47.515,0.995C43.929,32.491,27.326,50.5,21.101,72.642
			C21.032,72.886,20.811,73.045,20.568,73.045z"/>
	</g>
	<g>
		<path fill="#2C1A4D" d="M116.821,3.138c-0.053,0-0.106-0.007-0.16-0.023c-4.482-1.352-9.207-2.344-14.043-2.951
			c-0.303-0.038-0.518-0.314-0.479-0.618c0.038-0.304,0.316-0.521,0.618-0.48c4.896,0.614,9.683,1.62,14.225,2.989
			c0.292,0.088,0.458,0.397,0.369,0.689C117.279,2.983,117.06,3.138,116.821,3.138z"/>
	</g>
	<g>
		<path fill="#2C1A4D" d="M20.562,31.173c-0.13,0-0.26-0.045-0.365-0.138c-0.229-0.202-0.252-0.551-0.05-0.781
			C37.05,11.031,61.376-0.578,86.888-1.596c0.331-0.027,0.562,0.226,0.575,0.531s-0.226,0.562-0.53,0.575
			C61.721,0.515,37.682,11.988,20.978,30.985C20.868,31.109,20.716,31.173,20.562,31.173z"/>
	</g>
	<g>
		<path fill="#2C1A4D" d="M-0.511,72.76c-0.04,0-0.079-0.004-0.119-0.013c-0.299-0.065-0.487-0.36-0.422-0.659
			C0.413,65.39,2.628,58.836,5.53,52.61c0.129-0.278,0.462-0.396,0.734-0.268c0.277,0.129,0.397,0.458,0.269,0.735
			C3.665,59.23,1.477,65.706,0.028,72.325C-0.027,72.584-0.257,72.76-0.511,72.76z"/>
	</g>
	<g>
		<path fill="#2C1A4D" d="M182.048,73.012c-0.254,0-0.482-0.176-0.539-0.434c-4.433-20.062-15.535-38.306-31.263-51.372
			c-0.235-0.195-0.268-0.544-0.072-0.779c0.195-0.236,0.545-0.266,0.779-0.072c15.916,13.223,27.15,31.685,31.636,51.985
			c0.066,0.298-0.122,0.593-0.421,0.659C182.128,73.008,182.088,73.012,182.048,73.012z"/>
	</g>
	<g>
		<path fill="#2C1A4D" d="M138.072,72.704c-0.215,0-0.419-0.125-0.509-0.336c-3.137-7.336-8.048-13.917-14.202-19.032
			c-0.235-0.195-0.268-0.544-0.072-0.779c0.195-0.236,0.545-0.266,0.779-0.072c6.289,5.226,11.308,11.951,14.513,19.448
			c0.12,0.281-0.011,0.606-0.291,0.726C138.219,72.689,138.146,72.704,138.072,72.704z"/>
	</g>
	<g>
		<path fill="#2C1A4D" d="M43.52,72.704c-0.073,0-0.146-0.014-0.218-0.044c-0.28-0.12-0.411-0.445-0.291-0.727
			c3.207-7.498,8.226-14.223,14.513-19.447c0.234-0.194,0.584-0.165,0.779,0.072c0.195,0.235,0.163,0.583-0.072,0.779
			c-6.153,5.114-11.064,11.695-14.202,19.032C43.938,72.578,43.734,72.704,43.52,72.704z"/>
	</g>
	<g>
		<path fill="#2C1A4D" d="M152.796,62.396c-3.803,0-7.089-2.583-7.991-6.281c-0.521-2.137-0.181-4.349,0.961-6.229
			s2.946-3.203,5.083-3.725c0.644-0.157,1.303-0.236,1.959-0.236c3.803,0,7.09,2.583,7.994,6.28
			c1.076,4.412-1.635,8.876-6.044,9.954C154.114,62.316,153.453,62.396,152.796,62.396z M152.808,47.901
			c-0.499,0-1,0.061-1.49,0.181c-1.623,0.396-2.995,1.401-3.863,2.83c-0.867,1.429-1.127,3.11-0.729,4.734
			c0.686,2.811,3.183,4.774,6.071,4.774c0.5,0,1.002-0.061,1.493-0.181c3.351-0.819,5.411-4.212,4.593-7.565
			C158.195,49.864,155.697,47.901,152.808,47.901z"/>
	</g>
	<g>
		<path fill="#2C1A4D" d="M94.781,8.532c-4.902,0-8.891-3.988-8.891-8.89c0-4.901,3.988-8.888,8.891-8.888
			c4.901,0,8.89,3.987,8.89,8.888C103.671,4.544,99.683,8.532,94.781,8.532z M94.781-7.27c-3.812,0-6.914,3.101-6.914,6.913
			c0,3.812,3.102,6.914,6.914,6.914s6.913-3.102,6.913-6.914C101.694-4.169,98.594-7.27,94.781-7.27z"/>
	</g>
	<g>
		<path fill="#2C1A4D" d="M67.104,17.446c-1.569,0-2.846-1.276-2.846-2.844c0-1.569,1.276-2.846,2.846-2.846
			s2.846,1.276,2.846,2.846C69.95,16.17,68.674,17.446,67.104,17.446z M67.104,12.546c-1.133,0-2.055,0.922-2.055,2.056
			c0,1.133,0.922,2.054,2.055,2.054s2.055-0.921,2.055-2.054C69.159,13.469,68.237,12.546,67.104,12.546z"/>
	</g>
	<g>
		<path fill="#2C1A4D" d="M157.309,14.382c-1.34,0-2.431-1.09-2.431-2.43s1.091-2.43,2.431-2.43s2.431,1.09,2.431,2.43
			S158.648,14.382,157.309,14.382z M157.309,10.312c-0.904,0-1.64,0.736-1.64,1.64s0.735,1.64,1.64,1.64s1.64-0.736,1.64-1.64
			S158.213,10.312,157.309,10.312z"/>
	</g>
	<g>
		<path fill="#2C1A4D" d="M171.383,126.351c-1.188,0-2.153-0.966-2.153-2.153c0-1.187,0.966-2.151,2.153-2.151
			s2.153,0.965,2.153,2.151C173.536,125.385,172.57,126.351,171.383,126.351z M171.383,122.837c-0.751,0-1.362,0.61-1.362,1.36
			c0,0.751,0.611,1.362,1.362,1.362s1.362-0.611,1.362-1.362C172.745,123.447,172.134,122.837,171.383,122.837z"/>
	</g>
	<g>
		<path fill="#168DC1" d="M41.75,22.269c-0.623,0-1.13-0.507-1.13-1.131c0-0.623,0.507-1.129,1.13-1.129
			c0.624,0,1.132,0.506,1.132,1.129C42.882,21.762,42.374,22.269,41.75,22.269z M41.75,20.798c-0.188,0-0.339,0.152-0.339,0.339
			c0,0.188,0.151,0.341,0.339,0.341c0.188,0,0.341-0.153,0.341-0.341C42.091,20.951,41.938,20.798,41.75,20.798z"/>
	</g>
	<g>
		<ellipse fill="#AFD1EF" cx="160.803" cy="46.362" rx="1.051" ry="1.051"/>
		<path fill="#2C1A4D" d="M160.803,47.809c-0.689,0-1.287-0.492-1.419-1.169c-0.074-0.381,0.004-0.767,0.221-1.088
			c0.216-0.32,0.544-0.536,0.922-0.609c0.783-0.151,1.548,0.374,1.697,1.142c0.153,0.782-0.36,1.543-1.144,1.697
			C160.986,47.8,160.894,47.809,160.803,47.809z M160.806,45.706c-0.042,0-0.085,0.004-0.128,0.013
			c-0.173,0.033-0.32,0.131-0.418,0.276c-0.099,0.146-0.134,0.321-0.101,0.494c0.069,0.349,0.415,0.591,0.77,0.518
			c0.355-0.069,0.589-0.415,0.52-0.77C161.388,45.929,161.118,45.706,160.806,45.706z"/>
	</g>
	<g>
		<g>
			<circle fill="#2C1A4D" cx="38.361" cy="59.428" r="0.819"/>
		</g>
		<g>
			<path fill="#FF0051" d="M38.361,60.642c-0.67,0-1.215-0.544-1.215-1.214s0.545-1.214,1.215-1.214
				c0.669,0,1.214,0.544,1.214,1.214S39.03,60.642,38.361,60.642z M38.361,59.004c-0.233,0-0.424,0.19-0.424,0.424
				s0.19,0.424,0.424,0.424s0.423-0.19,0.423-0.424S38.595,59.004,38.361,59.004z"/>
		</g>
	</g>
	<g>
		<g>
			<path fill="#E95064" d="M120.758-12.302c-0.218,0-0.396-0.177-0.396-0.395v-2.907c0-0.218,0.178-0.395,0.396-0.395
				s0.396,0.177,0.396,0.395v2.907C121.153-12.479,120.976-12.302,120.758-12.302z"/>
		</g>
		<g>
			<path fill="#E95064" d="M122.212-13.755h-2.908c-0.218,0-0.396-0.177-0.396-0.395s0.178-0.395,0.396-0.395h2.908
				c0.218,0,0.396,0.177,0.396,0.395S122.43-13.755,122.212-13.755z"/>
		</g>
	</g>
	<g>
		<g>
			<path fill="#49BEFE" d="M53.736,48.3c-0.437,0-0.79-0.354-0.79-0.791v-4.584c0-0.437,0.354-0.791,0.79-0.791
				s0.79,0.354,0.79,0.791v4.584C54.526,47.946,54.173,48.3,53.736,48.3z"/>
		</g>
		<g>
			<path fill="#49BEFE" d="M56.027,46.009h-4.584c-0.437,0-0.79-0.354-0.79-0.791s0.354-0.791,0.79-0.791h4.584
				c0.437,0,0.79,0.354,0.79,0.791S56.464,46.009,56.027,46.009z"/>
		</g>
	</g>
	<g>
		<g>
			<path fill="#26E552" d="M72.177,156.12c-0.437,0-0.79-0.354-0.79-0.79v-4.584c0-0.437,0.354-0.79,0.79-0.79s0.79,0.354,0.79,0.79
				v4.584C72.967,155.767,72.613,156.12,72.177,156.12z"/>
		</g>
		<g>
			<path fill="#26E552" d="M74.47,153.829h-4.584c-0.437,0-0.79-0.354-0.79-0.79s0.354-0.79,0.79-0.79h4.584
				c0.437,0,0.79,0.354,0.79,0.79S74.906,153.829,74.47,153.829z"/>
		</g>
	</g>
	<g>
		<g>
			<path fill="#2C1A4D" d="M101.214,122.88c-0.102,0-0.202-0.039-0.279-0.116c-0.154-0.154-0.154-0.404,0-0.559l2.403-2.402
				c0.154-0.154,0.404-0.154,0.559,0s0.154,0.404,0,0.559l-2.403,2.402C101.416,122.841,101.315,122.88,101.214,122.88z"/>
		</g>
		<g>
			<path fill="#2C1A4D" d="M103.617,122.88c-0.102,0-0.202-0.039-0.279-0.116l-2.403-2.402c-0.154-0.154-0.154-0.404,0-0.559
				s0.404-0.154,0.559,0l2.403,2.402c0.154,0.154,0.154,0.404,0,0.559C103.819,122.841,103.719,122.88,103.617,122.88z"/>
		</g>
	</g>
	<g>
		<g>
			<rect x="119.001" y="66.833" fill="#FFDB01" width="3.513" height="0.79"/>
		</g>
		<g>
			<rect x="120.362" y="65.471" fill="#FFDB01" width="0.791" height="3.512"/>
		</g>
	</g>
	<g>
		<g>
			<g>
				<path fill="#2C1A4D" d="M144.533,7.538c-0.006,0-0.012,0-0.018,0c-0.383-0.007-0.727-0.234-0.884-0.582
					c-0.008-0.019-0.81-1.793-2.345-4.737l-4.817-2.387c-3.359,0.561-5.631,0.809-5.729,0.82c-0.367,0.035-0.71-0.121-0.917-0.417
					c-0.206-0.296-0.235-0.681-0.075-1.004c2.453-4.953,5.051-6.913,6.085-7.539c0.253-0.892,0.994-3.096,3.003-7.153
					c2.81-5.674,10.928-7.875,11.272-7.966c0.484-0.128,0.987,0.126,1.171,0.591c0.128,0.325,3.121,8.028,0.316,13.693
					c-2.011,4.058-3.314,5.983-3.871,6.725c0.128,1.202,0.144,4.455-2.307,9.407C145.252,7.326,144.908,7.538,144.533,7.538z
					 M136.621-2.183c0.151,0,0.302,0.035,0.438,0.103l5.393,2.671c0.187,0.093,0.34,0.242,0.437,0.427
					c0.673,1.283,1.212,2.354,1.617,3.18c1.718-4.291,1.225-6.639,1.218-6.666c-0.07-0.313,0.014-0.651,0.229-0.889
					c0.009-0.011,1.34-1.549,3.873-6.663c1.915-3.867,0.567-9.166-0.085-11.224c-2.065,0.702-7.216,2.79-9.132,6.659
					c-2.533,5.114-2.95,7.105-2.954,7.125c-0.063,0.317-0.28,0.589-0.577,0.718c-0.017,0.008-2.25,1.07-4.664,5.191
					c1.028-0.14,2.423-0.344,4.043-0.619C136.511-2.179,136.566-2.183,136.621-2.183z"/>
			</g>
			<g>
				<path fill="#2C1A4D" d="M139.039,5.622c-0.42,0-0.845-0.094-1.245-0.291l-1.703-0.843c-0.676-0.334-1.181-0.912-1.422-1.627
					c-0.242-0.715-0.19-1.481,0.146-2.157l0.992-2.042c0.239-0.49,0.831-0.694,1.32-0.457c0.491,0.239,0.695,0.83,0.457,1.321
					l-0.996,2.049c-0.104,0.209-0.119,0.439-0.047,0.654c0.072,0.214,0.224,0.388,0.427,0.488l1.701,0.842
					c0.42,0.206,0.929,0.032,1.135-0.384l0.993-2.042c0.239-0.49,0.829-0.694,1.321-0.456c0.49,0.239,0.694,0.83,0.456,1.32
					l-0.996,2.047C141.085,5.042,140.081,5.622,139.039,5.622z"/>
			</g>
			<g>
				<path fill="#2C1A4D" d="M146.685-1.707c-0.147,0-0.297-0.033-0.438-0.103l-10.001-4.953c-0.489-0.242-0.689-0.835-0.447-1.324
					c0.243-0.489,0.836-0.689,1.324-0.447l10.001,4.953c0.489,0.242,0.689,0.835,0.447,1.324
					C147.398-1.909,147.049-1.707,146.685-1.707z"/>
			</g>
		</g>
		<g>
			<path fill="#2C1A4D" d="M130.641,28.457c-0.085,0-0.171-0.018-0.253-0.057c-0.296-0.139-0.423-0.493-0.283-0.789l6.537-13.877
				c0.139-0.297,0.493-0.423,0.789-0.284s0.423,0.493,0.283,0.789l-6.537,13.877C131.076,28.332,130.862,28.457,130.641,28.457z"/>
		</g>
		<g>
			<path fill="#2C1A4D" d="M125.117,18.536c-0.089,0-0.179-0.02-0.263-0.062c-0.294-0.145-0.414-0.5-0.269-0.794l3.307-6.684
				c0.146-0.294,0.505-0.414,0.794-0.269c0.294,0.145,0.414,0.5,0.269,0.794l-3.307,6.684
				C125.545,18.415,125.335,18.536,125.117,18.536z"/>
		</g>
		<g>
			<path fill="#2C1A4D" d="M122.601,34.396c-0.115,0-0.232-0.025-0.344-0.079c-0.393-0.19-0.557-0.663-0.367-1.056l12.066-24.935
				c0.19-0.393,0.661-0.558,1.057-0.367c0.393,0.19,0.557,0.663,0.367,1.056l-12.066,24.935
				C123.177,34.231,122.895,34.396,122.601,34.396z"/>
		</g>
	</g>
	<g>
		<g>
			<path fill="#2C1A4D" d="M13.346,56.028c-7.866,0-14.266-6.399-14.266-14.265c0-7.867,6.399-14.266,14.266-14.266
				s14.266,6.399,14.266,14.266C27.611,49.629,21.212,56.028,13.346,56.028z M13.346,29.473c-6.776,0-12.289,5.514-12.289,12.291
				c0,6.776,5.513,12.289,12.289,12.289s12.289-5.513,12.289-12.289C25.635,34.986,20.122,29.473,13.346,29.473z"/>
		</g>
		<g>
			<path fill="#2C1A4D" d="M1.999,50.905c-0.142,0-0.281-0.001-0.419-0.003c-4.281-0.069-6.885-1.196-7.529-3.257
				c-0.72-2.302,1.291-5.095,5.663-7.863l1.057,1.669c-4.058,2.57-5.14,4.625-4.833,5.604c0.345,1.104,2.519,1.821,5.674,1.872
				c3.699,0.07,8.272-0.722,12.992-2.198c4.72-1.477,8.955-3.465,11.927-5.597c2.564-1.84,3.943-3.668,3.599-4.771
				c-0.307-0.982-2.374-2.056-7.188-1.85l-0.084-1.975c5.19-0.216,8.437,0.928,9.158,3.235c0.645,2.061-0.854,4.469-4.332,6.966
				c-3.139,2.252-7.573,4.34-12.489,5.878C10.453,50.097,5.789,50.905,1.999,50.905z"/>
		</g>
	</g>
	<g>
		<path fill="#2C1A4D" d="M90.998,74.434c-2.018,0-4.156-0.195-6.189-0.584c-3.152-0.603-6.413-2.859-6.413-5.592l-0.001-0.157
			c-0.003-0.51-0.006-1.145,0.221-1.688l1.459,0.608c-0.104,0.248-0.101,0.704-0.099,1.071v0.165c0,1.83,2.652,3.566,5.13,4.039
			c3.713,0.711,7.944,0.737,10.776,0.064c5.717-1.351,5.717-3.422,5.717-4.103c0-0.135,0.007-0.282,0.014-0.434
			c0.014-0.279,0.032-0.661-0.029-0.817l1.469-0.583c0.188,0.475,0.163,1.007,0.14,1.477c-0.006,0.125-0.013,0.246-0.013,0.356
			c0,2.693-2.268,4.539-6.933,5.641C94.741,74.256,92.925,74.434,90.998,74.434z"/>
	</g>
	<g>
		<g>
			<g>
				<path fill="#FA133F" d="M52.236,139.201c-0.287,0.016-0.58,0.037-0.881,0.074c-0.339,0.301-2.066,0.771-2.066,0.771l4.633,9.057
					c0,0,1.129-0.326,2.1-0.986c0.727-0.496,1.578-1.328,2.339-2.709c0.538-0.975,1.029-2.219,1.399-3.82
					c0.029-0.129,0.062-0.246,0.093-0.371c-1.246-0.65-2.562-1.275-4.058-1.658C54.718,139.283,53.551,139.129,52.236,139.201z"/>
			</g>
			<g>
				<path fill="#FA133F" d="M79.013,127.758c0,0-1.573,0.48-2.245,1.023c-0.744,0.607-1.68,1.502-2.324,2.611
					c-0.217,0.373-0.404,0.766-0.535,1.18c-0.277,0.881-0.219,0.943-0.379,2.287c0.678,0.393,1.458,0.734,2.496,0.93
					c0.34,0.066,0.68,0.119,1.016,0.172c1.733,0.264,2.611,0.35,3.784,0.379c1.135,0.027,2.259-0.643,2.259-0.643L79.013,127.758z"
					/>
			</g>
			<g>
				<path fill="#FA133F" d="M67.428,133.568c-1.021,0-1.898,0.07-2.671,0.266c-1.192,0.301-2.127,0.906-2.907,2.066
					c-0.777,1.152-1.406,2.844-1.997,5.316c2.071,1.076,3.966,2.191,6.234,2.266c0.647,0.02,1.322-0.039,2.044-0.215
					c0.561-0.137,1.056-0.316,1.501-0.529c1.137-0.547,1.568-1.668,2.116-2.559c0.832-1.352,1.474-2.629,1.652-4.137
					c-1.669-0.967-2.7-2.24-5.252-2.443C67.92,133.58,67.684,133.568,67.428,133.568z"/>
			</g>
		</g>
		<g>
			<g>
				<path fill="#2C1A4D" d="M65.543,143.845c-2.627,0-4.906-1.44-6.985-2.754c-2.819-1.782-5.484-3.464-8.858-1.924
					c-0.499,0.226-1.083,0.006-1.31-0.489c-0.226-0.497-0.007-1.083,0.489-1.31c4.352-1.98,7.742,0.161,10.734,2.053
					c2.803,1.771,5.223,3.307,8.273,1.91c3.114-1.42,3.592-4.348,4.145-7.737c0.561-3.435,1.195-7.328,5.236-9.171
					c0.497-0.229,1.083-0.007,1.31,0.489c0.226,0.497,0.007,1.083-0.489,1.31c-3.081,1.404-3.557,4.317-4.106,7.69
					c-0.562,3.449-1.2,7.359-5.274,9.217C67.597,143.636,66.544,143.845,65.543,143.845z"/>
			</g>
		</g>
		<g>
			<g>
				<path fill="#2C1A4D" d="M54.057,149.709c-0.376,0-0.734-0.215-0.9-0.578c-0.226-0.497-0.007-1.083,0.489-1.31
					c3.38-1.54,3.855-4.653,4.358-7.949c0.513-3.357,1.095-7.163,5.115-8.996c4.07-1.855,7.441,0.224,10.416,2.061
					c2.907,1.796,5.418,3.348,8.498,1.941c0.497-0.228,1.083-0.006,1.31,0.489c0.226,0.497,0.007,1.083-0.489,1.31
					c-4.044,1.842-7.396-0.23-10.356-2.06c-2.922-1.805-5.446-3.364-8.558-1.943c-3.049,1.391-3.481,4.22-3.982,7.496
					c-0.534,3.5-1.14,7.466-5.491,9.45C54.333,149.681,54.193,149.709,54.057,149.709z"/>
			</g>
		</g>
		<g>
			<path fill="#2C1A4D" d="M81.354,136.848c-0.255,0-0.498-0.146-0.611-0.394l-4.692-10.289c-0.154-0.337-0.005-0.735,0.333-0.89
				c0.333-0.153,0.734-0.007,0.89,0.333l4.692,10.289c0.154,0.337,0.005,0.735-0.333,0.89
				C81.543,136.828,81.448,136.848,81.354,136.848z"/>
		</g>
		<g>
			<path fill="#2C1A4D" d="M77.518,136.435c-0.149,0-0.293-0.086-0.359-0.231l-3.268-7.164c-0.091-0.198-0.003-0.433,0.195-0.523
				c0.2-0.09,0.434-0.003,0.523,0.195l3.268,7.164c0.091,0.198,0.003,0.433-0.195,0.523
				C77.628,136.423,77.572,136.435,77.518,136.435z"/>
		</g>
		<g>
			<path fill="#2C1A4D" d="M71.271,139.903c-0.149,0-0.293-0.086-0.359-0.231l-3.735-8.193c-0.091-0.198-0.003-0.433,0.195-0.523
				c0.202-0.09,0.433-0.004,0.523,0.195l3.735,8.193c0.091,0.198,0.003,0.433-0.195,0.523
				C71.381,139.892,71.325,139.903,71.271,139.903z"/>
		</g>
		<g>
			<path fill="#2C1A4D" d="M68.623,142.654c-0.255,0-0.499-0.146-0.611-0.394L63.32,131.97c-0.154-0.337-0.005-0.735,0.333-0.89
				c0.333-0.153,0.736-0.006,0.89,0.333l4.691,10.291c0.154,0.337,0.005,0.735-0.333,0.89
				C68.812,142.635,68.717,142.654,68.623,142.654z"/>
		</g>
		<g>
			<path fill="#2C1A4D" d="M65.209,143.167c-0.149,0-0.293-0.086-0.359-0.231l-4.115-9.02c-0.091-0.198-0.003-0.433,0.195-0.523
				c0.197-0.091,0.433-0.003,0.523,0.195l4.115,9.02c0.091,0.198,0.003,0.433-0.195,0.523
				C65.32,143.155,65.264,143.167,65.209,143.167z"/>
		</g>
		<g>
			<path fill="#2C1A4D" d="M57.61,145.47c-0.149,0-0.293-0.086-0.359-0.231l-3.235-7.096c-0.091-0.198-0.003-0.433,0.195-0.523
				c0.201-0.09,0.433-0.003,0.523,0.195l3.235,7.096c0.091,0.198,0.003,0.433-0.195,0.523
				C57.721,145.458,57.665,145.47,57.61,145.47z"/>
		</g>
		<g>
			<path fill="#2C1A4D" d="M55.164,148.662c-0.255,0-0.498-0.146-0.611-0.394l-4.596-10.076c-0.154-0.337-0.005-0.735,0.333-0.89
				c0.334-0.153,0.734-0.007,0.89,0.333l4.596,10.076c0.154,0.337,0.005,0.735-0.333,0.89
				C55.353,148.643,55.258,148.662,55.164,148.662z"/>
		</g>
	</g>
	<g>
		<g>
			<path fill="#2C1A4D" d="M104.428,166.922c-0.003,0-0.006,0-0.009,0c-9.516-0.089-9.553-9.559-9.553-9.654
				c0.002-0.262,0.108-0.513,0.296-0.696c0.188-0.185,0.405-0.266,0.702-0.284c2.868,0.027,5.169,0.909,6.837,2.622
				c2.754,2.827,2.717,6.87,2.715,7.041C105.406,166.49,104.966,166.922,104.428,166.922z M96.928,158.325
				c0.276,1.954,1.45,6,6.428,6.557c-0.164-1.184-0.649-3.144-2.081-4.605C100.195,159.175,98.736,158.521,96.928,158.325z"/>
		</g>
		<g>
			<path fill="#2C1A4D" d="M104.565,164.141L104.565,164.141c-0.006,0-0.037,0-0.043,0c-0.543-0.01-0.977-0.455-0.972-0.998
				c0.072-7.555,6.338-9.551,9.641-9.551c0.264,0,0.52,0.105,0.705,0.293s0.291,0.441,0.289,0.705
				C114.112,162.129,108.104,164.141,104.565,164.141z M112.146,155.655c-1.956,0.281-6.003,1.465-6.557,6.437
				C107.571,161.835,111.594,160.692,112.146,155.655z"/>
		</g>
		<g>
			<path fill="#2C1A4D" d="M104.486,174.561c-0.002,0-0.003,0-0.005,0c-0.546-0.003-0.986-0.447-0.983-0.993l0.053-10.42
				c0.003-0.544,0.445-0.983,0.988-0.983c0.002,0,0.003,0,0.005,0c0.546,0.003,0.986,0.447,0.983,0.993l-0.053,10.42
				C105.472,174.121,105.029,174.561,104.486,174.561z"/>
		</g>
	</g>
	<g>
		<g>
			<g>
				<path fill="#2C1A4D" d="M16.064,140.786c-0.129,0-0.261-0.031-0.382-0.099c-0.382-0.212-0.521-0.692-0.309-1.074l6.944-12.527
					c0.432-0.767,1.402-1.046,2.171-0.622l3.053,1.692c0.769,0.428,1.048,1.401,0.622,2.171l-2.404,4.44
					c-0.208,0.383-0.685,0.526-1.072,0.318c-0.384-0.208-0.526-0.688-0.318-1.072l2.408-4.445l-3.052-1.721l-6.969,12.531
					C16.612,140.64,16.343,140.786,16.064,140.786z"/>
			</g>
			<g>
				<path fill="#2C1A4D" d="M18.485,144.507c-0.165,0-0.328-0.042-0.477-0.125l-2.231-1.235c-0.231-0.129-0.398-0.34-0.471-0.596
					c-0.072-0.253-0.041-0.52,0.088-0.748l0.731-1.318c0.106-0.192,0.348-0.259,0.537-0.154c0.191,0.106,0.26,0.347,0.154,0.537
					l-0.732,1.32c-0.035,0.062-0.026,0.12-0.018,0.148c0.008,0.03,0.031,0.085,0.094,0.119l2.231,1.236
					c0.062,0.036,0.119,0.025,0.148,0.018c0.029-0.009,0.082-0.031,0.115-0.092l0.734-1.323c0.106-0.191,0.346-0.257,0.538-0.153
					c0.19,0.106,0.259,0.347,0.153,0.538l-0.733,1.32c-0.126,0.229-0.335,0.396-0.589,0.47
					C18.669,144.494,18.577,144.507,18.485,144.507z"/>
			</g>
			<g>
				<path fill="#2C1A4D" d="M20.528,143.261c-0.131,0-0.264-0.032-0.386-0.101c-0.381-0.214-0.517-0.695-0.303-1.076l4.535-8.08
					c0.215-0.381,0.698-0.514,1.076-0.303c0.381,0.214,0.517,0.695,0.303,1.076l-4.535,8.08
					C21.073,143.116,20.805,143.261,20.528,143.261z"/>
			</g>
			<g>
				<g>
					<path fill="#2C1A4D" d="M26.703,128.989c-0.063,0-0.128-0.016-0.188-0.048c-0.192-0.104-0.264-0.343-0.16-0.535l3.015-5.588
						c0.104-0.192,0.344-0.264,0.535-0.16c0.192,0.104,0.264,0.343,0.16,0.535l-3.015,5.588
						C26.979,128.914,26.844,128.989,26.703,128.989z"/>
				</g>
				<g>
					<path fill="#2C1A4D" d="M24.562,127.804c-0.063,0-0.128-0.016-0.188-0.048c-0.192-0.104-0.264-0.344-0.16-0.535l3.016-5.588
						c0.104-0.192,0.345-0.264,0.535-0.16c0.192,0.104,0.264,0.344,0.16,0.535l-3.016,5.588
						C24.839,127.729,24.703,127.804,24.562,127.804z"/>
				</g>
			</g>
			<g>
				<path fill="#2C1A4D" d="M30.179,123.952c-0.129,0-0.261-0.031-0.382-0.099l-2.98-1.652c-0.382-0.212-0.521-0.692-0.309-1.074
					c0.211-0.382,0.691-0.522,1.074-0.309l2.98,1.652c0.382,0.212,0.521,0.692,0.309,1.074
					C30.727,123.806,30.457,123.952,30.179,123.952z"/>
			</g>
			<g>
				<path fill="#2C1A4D" d="M21.53,143.815c-0.129,0-0.261-0.031-0.382-0.099l-6.468-3.586c-0.382-0.212-0.521-0.693-0.309-1.074
					c0.212-0.382,0.69-0.522,1.074-0.309l6.468,3.586c0.382,0.212,0.521,0.693,0.309,1.074
					C22.078,143.669,21.809,143.815,21.53,143.815z"/>
			</g>
		</g>
		<g>
			<g>
				<path fill="#2C1A4D" d="M27.149,149.576c-0.165,0-0.333-0.042-0.486-0.129c-0.475-0.27-0.642-0.872-0.372-1.347
					c4.331-7.634-1.344-11.552-1.588-11.715c-0.453-0.304-0.575-0.917-0.271-1.371c0.303-0.453,0.916-0.574,1.371-0.271
					c0.074,0.051,7.434,5.121,2.207,14.332C27.828,149.396,27.493,149.576,27.149,149.576z"/>
			</g>
		</g>
		<g>
			<path fill="#2C1A4D" d="M30.045,149.768H12.143c-0.546,0-0.988-0.442-0.988-0.988s0.442-0.988,0.988-0.988h17.902
				c0.546,0,0.988,0.442,0.988,0.988S30.591,149.768,30.045,149.768z"/>
		</g>
	</g>
	<g>
		<g>
			<path fill="#2C1A4D" d="M66.163,185.682c-0.005,0-0.013,0-0.02,0H54.312c-0.353,0-0.679-0.188-0.855-0.494s-0.177-0.683,0-0.988
				l5.916-10.244c0.177-0.306,0.503-0.494,0.855-0.494l0,0c0.353,0,0.679,0.188,0.855,0.494l5.828,10.094
				c0.149,0.173,0.239,0.398,0.239,0.645C67.151,185.239,66.709,185.682,66.163,185.682z M56.024,183.705h8.408l-4.204-7.28
				L56.024,183.705z"/>
		</g>
		<g>
			<g>
				<line fill="#9D97AB" x1="74.154" y1="180.994" x2="68.136" y2="180.994"/>
			</g>
			<g>
				<path fill="#2C1A4D" d="M74.154,181.784h-6.019c-0.437,0-0.79-0.354-0.79-0.79s0.354-0.79,0.79-0.79h6.019
					c0.437,0,0.79,0.354,0.79,0.79S74.591,181.784,74.154,181.784z"/>
			</g>
		</g>
		<g>
			<path fill="#2C1A4D" d="M59.268,180.552H51.6c-0.306,0-0.554-0.248-0.554-0.554s0.248-0.554,0.554-0.554h7.668
				c0.306,0,0.554,0.248,0.554,0.554S59.573,180.552,59.268,180.552z"/>
		</g>
		<g>
			<g>
				<line fill="#9D97AB" x1="72.091" y1="177.205" x2="66.072" y2="177.205"/>
			</g>
			<g>
				<path fill="#2C1A4D" d="M72.091,177.995h-6.019c-0.437,0-0.79-0.354-0.79-0.79s0.354-0.79,0.79-0.79h6.019
					c0.437,0,0.79,0.354,0.79,0.79S72.527,177.995,72.091,177.995z"/>
			</g>
		</g>
	</g>
	<g>
		<g>
			<path fill="#49BEFE" d="M128.044,135.36c-1.044,0-2.085-0.422-2.842-1.251l-2.887-3.171c-0.367-0.403-0.338-1.028,0.065-1.396
				c0.403-0.368,1.027-0.337,1.396,0.065l2.887,3.17c0.69,0.758,1.873,0.813,2.636,0.123c0.404-0.366,1.028-0.337,1.396,0.067
				s0.337,1.028-0.067,1.396C129.893,135.031,128.967,135.36,128.044,135.36z"/>
		</g>
		<g>
			<path fill="#FE2C63" d="M130.847,133.467c-0.269,0-0.536-0.109-0.73-0.323c-0.367-0.404-0.338-1.029,0.065-1.396
				c0.368-0.335,0.583-0.793,0.606-1.29s-0.148-0.974-0.483-1.342l-2.887-3.17c-0.367-0.403-0.338-1.028,0.065-1.396
				c0.404-0.368,1.028-0.337,1.396,0.065l2.887,3.17c0.69,0.758,1.044,1.74,0.996,2.765s-0.492,1.969-1.25,2.658
				C131.322,133.382,131.084,133.467,130.847,133.467z"/>
		</g>
		<g>
			<path fill="#2C1A4D" d="M127.844,135.99c-1.293,0-2.581-0.522-3.517-1.55l-3.811-4.184c-0.367-0.403-0.338-1.028,0.065-1.396
				c0.403-0.368,1.027-0.338,1.396,0.065l3.811,4.184c1.03,1.13,2.792,1.213,3.925,0.186c1.13-1.03,1.212-2.791,0.182-3.922
				l-3.811-4.186c-0.367-0.403-0.338-1.028,0.065-1.396c0.404-0.369,1.028-0.337,1.396,0.065l3.811,4.186
				c1.764,1.936,1.623,4.947-0.312,6.713C130.132,135.583,128.986,135.99,127.844,135.99z"/>
		</g>
		<g>
			<g>
				<path fill="#FE2C63" d="M124.853,123.965c-0.116,0-0.229-0.055-0.302-0.156c-0.027-0.037-0.03-0.039-0.094-0.064
					c-0.105-0.043-0.264-0.107-0.412-0.314c-0.15-0.207-0.163-0.377-0.172-0.492c-0.004-0.07-0.004-0.072-0.03-0.107
					c-0.028-0.041-0.03-0.041-0.095-0.066c-0.098-0.041-0.262-0.107-0.412-0.312c-0.12-0.164-0.084-0.398,0.082-0.52
					c0.165-0.119,0.398-0.084,0.52,0.082c0.024,0.035,0.028,0.037,0.092,0.062c0.1,0.039,0.267,0.107,0.416,0.318
					c0.148,0.205,0.162,0.385,0.17,0.49c0.006,0.07,0.006,0.074,0.031,0.111c0.025,0.033,0.027,0.033,0.091,0.062
					c0.099,0.037,0.265,0.105,0.417,0.316c0.119,0.166,0.081,0.398-0.086,0.52C125.004,123.941,124.928,123.965,124.853,123.965z"/>
			</g>
		</g>
		<g>
			<g>
				<path fill="#FE2C63" d="M125.91,123.016c-0.113,0-0.228-0.055-0.3-0.154c-0.026-0.037-0.03-0.039-0.096-0.064
					c-0.104-0.043-0.263-0.109-0.413-0.316c-0.148-0.205-0.16-0.377-0.17-0.49c-0.005-0.07-0.005-0.074-0.031-0.111
					c-0.023-0.033-0.027-0.035-0.091-0.062c-0.101-0.039-0.267-0.107-0.417-0.316c-0.119-0.168-0.08-0.398,0.087-0.52
					c0.167-0.119,0.399-0.08,0.519,0.088c0.025,0.035,0.027,0.035,0.093,0.062c0.099,0.039,0.265,0.107,0.413,0.314
					c0.148,0.209,0.162,0.379,0.17,0.49c0.004,0.07,0.004,0.076,0.031,0.111c0.025,0.035,0.027,0.035,0.092,0.062
					c0.107,0.043,0.264,0.109,0.415,0.316c0.12,0.166,0.083,0.398-0.084,0.518C126.062,122.992,125.986,123.016,125.91,123.016z"/>
			</g>
		</g>
		<g>
			<g>
				<path fill="#49BEFE" d="M119.309,128.746c-0.114,0-0.229-0.051-0.303-0.152c-0.025-0.035-0.03-0.039-0.094-0.064
					c-0.104-0.043-0.261-0.107-0.41-0.312c-0.151-0.209-0.164-0.381-0.172-0.494c-0.006-0.07-0.006-0.074-0.03-0.107
					c-0.028-0.039-0.03-0.041-0.095-0.066c-0.098-0.041-0.262-0.107-0.412-0.312c-0.12-0.166-0.084-0.398,0.082-0.52
					c0.165-0.119,0.398-0.084,0.52,0.08c0.024,0.035,0.028,0.037,0.092,0.062c0.1,0.043,0.265,0.111,0.416,0.32
					c0.147,0.203,0.161,0.383,0.17,0.49c0.004,0.068,0.004,0.074,0.03,0.109c0.024,0.035,0.028,0.035,0.092,0.062
					c0.1,0.041,0.265,0.109,0.416,0.318c0.12,0.166,0.082,0.398-0.085,0.52C119.461,128.727,119.384,128.746,119.309,128.746z"/>
			</g>
		</g>
		<g>
			<g>
				<path fill="#49BEFE" d="M120.367,127.799c-0.113,0-0.229-0.053-0.302-0.152c-0.026-0.037-0.03-0.039-0.095-0.064
					c-0.105-0.045-0.264-0.109-0.412-0.316c-0.148-0.205-0.162-0.377-0.17-0.492c-0.005-0.07-0.005-0.074-0.031-0.109
					c-0.024-0.033-0.028-0.035-0.093-0.061c-0.099-0.041-0.265-0.111-0.415-0.32c-0.119-0.166-0.082-0.398,0.087-0.518
					c0.166-0.117,0.397-0.08,0.519,0.086c0.024,0.035,0.025,0.037,0.091,0.062c0.099,0.041,0.265,0.109,0.414,0.316
					s0.163,0.377,0.169,0.492c0.006,0.068,0.006,0.072,0.031,0.107c0.026,0.035,0.029,0.037,0.094,0.064
					c0.105,0.043,0.265,0.109,0.414,0.316c0.12,0.166,0.083,0.398-0.083,0.518C120.519,127.775,120.443,127.799,120.367,127.799z"/>
			</g>
		</g>
	</g>
	<g>
		<path fill="#49BDFF" d="M66.3,49.917c0.583-2.018,1.132-4.948,4.377-5.976l-0.916,11.759C66.496,54.686,66.3,53.517,66.3,49.917z"
			/>
	</g>
	<g>
		<path fill="#49BDFF" d="M116.82,49.154c0-3.585-2.457-6.62-5.029-7.646l-0.031,15.303C114.349,55.798,116.82,52.751,116.82,49.154
			"/>
	</g>
	<g>
		<path fill="#49BDFF" d="M69.761,47.781v-0.272c0,0,3.302-10.27,21.296-11.316c17.993-1.048,21.091,12.914,21.091,12.914V48.18
			c0,0-2.205-17.512-17.935-18.193C74.139,29.118,69.761,47.781,69.761,47.781z"/>
	</g>
	<g>
		<path fill="#2C1A4D" d="M112.147,50.095c-0.546,0-0.988-0.442-0.988-0.988c0-7.551-10.132-11.501-20.141-11.501h-0.206
			c-0.546,0-0.988-0.442-0.988-0.988s0.442-0.988,0.988-0.988h0.206c15.195,0,22.117,6.986,22.117,13.477
			C113.136,49.652,112.693,50.095,112.147,50.095z"/>
	</g>
	<g>
		<path fill="#2C1A4D" d="M70.677,57.8c-0.097,0-0.195-0.015-0.293-0.045c-3.788-1.175-6.333-4.632-6.333-8.601
			c0-3.948,2.526-7.399,6.287-8.588c0.519-0.163,1.075,0.124,1.24,0.644c0.164,0.52-0.124,1.075-0.645,1.24
			c-2.935,0.928-4.906,3.622-4.906,6.704c0,3.098,1.986,5.796,4.942,6.714c0.521,0.162,0.812,0.715,0.65,1.236
			C71.489,57.528,71.099,57.8,70.677,57.8z"/>
	</g>
	<g>
		<path fill="#2C1A4D" d="M110.682,57.78c-0.43,0-0.824-0.281-0.949-0.714c-0.151-0.524,0.15-1.072,0.675-1.224
			c2.973-0.859,5.012-3.518,5.072-6.616c0.059-3.08-1.861-5.813-4.777-6.801c-0.517-0.175-0.793-0.736-0.618-1.252
			c0.175-0.518,0.735-0.794,1.253-0.619c3.734,1.265,6.193,4.766,6.117,8.711c-0.077,3.969-2.688,7.375-6.498,8.476
			C110.864,57.767,110.771,57.78,110.682,57.78z"/>
	</g>
	<g>
		<path fill="#2C1A4D" d="M69.761,49.995c-0.546,0-0.988-0.442-0.988-0.988c0-6.443,6.996-13.377,22.356-13.377h0.206
			c0.546,0,0.988,0.442,0.988,0.988s-0.442,0.988-0.988,0.988h-0.206c-10.128,0-20.38,3.917-20.38,11.402
			C70.749,49.553,70.307,49.995,69.761,49.995z"/>
	</g>
	<g>
		<path fill="#2C1A4D" d="M86.633,33.72c-0.437,0-0.79-0.354-0.79-0.791v-4.494c0-0.437,0.354-0.791,0.79-0.791
			s0.79,0.354,0.79,0.791v4.494C87.423,33.366,87.069,33.72,86.633,33.72z"/>
	</g>
	<g>
		<path fill="#2C1A4D" d="M94.801,33.72c-0.437,0-0.79-0.354-0.79-0.791v-4.494c0-0.437,0.354-0.791,0.79-0.791
			s0.79,0.354,0.79,0.791v4.494C95.591,33.366,95.237,33.72,94.801,33.72z"/>
	</g>
	<g>
		<rect x="113.415" y="36.733" fill="#2C1A4D" width="1.58" height="7.208"/>
	</g>
	<g>
		<path fill="#FE2C63" d="M116.166,35.441c0,1.083-0.877,1.958-1.961,1.958l0,0c-1.084,0-1.959-0.875-1.959-1.958l0,0
			c0-1.083,0.875-1.961,1.959-1.961l0,0C115.289,33.48,116.166,34.357,116.166,35.441L116.166,35.441z"/>
		<path fill="#2C1A4D" d="M114.205,38.111c-1.473,0-2.67-1.198-2.67-2.67c0-1.474,1.197-2.672,2.67-2.672
			c1.474,0,2.672,1.199,2.672,2.672C116.877,36.913,115.679,38.111,114.205,38.111z M114.205,34.191
			c-0.688,0-1.248,0.561-1.248,1.25c0,0.688,0.561,1.247,1.248,1.247c0.689,0,1.25-0.56,1.25-1.247
			C115.455,34.752,114.895,34.191,114.205,34.191z"/>
	</g>
	<g>
		<g>
			<path fill="#FFCD5E" d="M95.646,66.007v3.708c0,0-5.341,1.445-9.194,0v-3.708"/>
			<path fill="#2C1A4D" d="M90.562,71.15c-1.446,0-2.996-0.173-4.387-0.694l-0.513-0.192v-4.256h1.58v3.14
				c2.778,0.822,6.253,0.233,7.614-0.058v-3.082h1.58v4.313l-0.584,0.158C95.703,70.519,93.323,71.15,90.562,71.15z"/>
		</g>
		<g>
			<path fill="#2C1A4D" d="M107.46,47.434c-0.101-0.371-0.269-0.745-0.543-1.153c-1.466-2.192-4.172-3.655-7.055-3.824
				c-2.326-0.134-3.274,0.558-3.595,0.905c-2.423-1.046-5.219-1.066-5.352-1.066c-0.134,0-2.928,0.02-5.353,1.057
				c-0.319-0.345-1.276-1.037-3.595-0.905c-2.883,0.169-5.59,1.641-7.054,3.826c-0.276,0.415-0.452,0.778-0.541,1.153
				c-0.114,0.442-0.105,0.894-0.097,1.234c0.051,2.823,0.345,6.049,2.102,8.678c0.568,0.845,1.25,1.296,1.971,1.296
				c0.08,0,0.16-0.011,0.248-0.017c0.666-0.099,1.117-0.551,1.438-0.979c0.436,1.384,1.27,3.301,2.866,5.53
				c0.239,0.29,0.439,0.712,0.959,1.233c1.428,1.696,2.938,2.644,4.492,2.796c0.149,0.015,0.3,0.026,0.45,0.026
				c0.934,0,1.668-0.301,2.113-0.54c0.514,0.281,1.411,0.637,2.555,0.521c1.553-0.16,3.062-1.098,4.492-2.794
				c0.023,0.009,0.996-1.23,0.968-1.243c1.604-2.229,2.429-4.146,2.866-5.53c0.328,0.428,0.771,0.879,1.436,0.979
				c0.08,0.005,0.162,0.017,0.25,0.017c0.708,0,1.402-0.452,1.969-1.296c1.751-2.629,2.041-5.854,2.104-8.678
				C107.564,48.315,107.574,47.878,107.46,47.434z M80.596,52.821c-0.062,0.277-0.144,0.552-0.224,0.828
				c-0.036,0.114-0.071,0.228-0.114,0.343c-0.037,0.108-0.08,0.215-0.123,0.321c-0.135,0.327-0.275,0.656-0.445,0.984l-0.106,0.213
				c-0.203,0.375-0.424,0.736-0.667,1.083c-0.229,0.338-0.406,0.507-0.541,0.525c-0.176,0.035-0.468-0.222-0.734-0.624
				c-1.537-2.297-1.794-5.271-1.847-7.87c-0.009-0.327-0.009-0.595,0.053-0.833c0.054-0.206,0.159-0.417,0.337-0.683
				c1.208-1.812,3.463-3.018,5.883-3.16c0.18-0.009,0.338-0.02,0.498-0.02c0.346,0,0.631,0.029,0.871,0.064
				c-0.026,0.017-0.045,0.053-0.071,0.071l-0.159,0.158c-0.028,0.029-0.055,0.064-0.09,0.099c-0.186,0.185-0.363,0.373-0.524,0.583
				c-0.017,0.028-0.036,0.055-0.05,0.072c-0.182,0.24-0.339,0.488-0.481,0.756c-0.019,0.033-0.034,0.07-0.054,0.104
				c-0.132,0.261-0.268,0.523-0.373,0.817c-0.125,0.336-0.239,0.685-0.318,1.038c-0.213,0.925-0.312,1.856-0.399,2.753
				C80.834,51.27,80.756,52.061,80.596,52.821z M97.139,63.046c-1.264,1.625-2.539,2.511-3.785,2.653
				c-0.779,0.079-1.367-0.152-1.684-0.321v-2.014c1.305-0.505,2.273-2.173,2.273-2.873c0-0.835-1.359-1.52-3.027-1.52
				s-3.027,0.676-3.027,1.52c0,0.708,0.969,2.368,2.27,2.873v2.014c-0.316,0.18-0.902,0.411-1.682,0.321
				c-1.254-0.142-2.521-1.028-3.783-2.653c-2.652-3.409-3.361-6.069-3.557-7.241c0-0.013,0.008-0.02,0.008-0.027
				c0.098-0.197,0.188-0.4,0.275-0.595c0.109-0.24,0.193-0.49,0.283-0.736c0.035-0.106,0.07-0.206,0.1-0.312
				c0.098-0.32,0.196-0.646,0.264-0.968c0.188-0.852,0.268-1.722,0.348-2.557c0.09-0.887,0.17-1.729,0.364-2.556
				c0.062-0.248,0.132-0.477,0.211-0.705c0.021-0.047,0.037-0.083,0.046-0.126c0.072-0.195,0.15-0.38,0.239-0.562
				c0.021-0.023,0.026-0.053,0.044-0.077c0.107-0.206,0.216-0.391,0.337-0.569c0.136-0.187,0.275-0.363,0.419-0.523l1.055-0.196
				l0.124-0.079c2.202-1.384,5.628-1.412,5.663-1.412c0.034,0,3.453,0.019,5.662,1.403l0.125,0.079l1.055,0.195
				c0.292,0.314,0.541,0.685,0.764,1.104c0.01,0.023,0.027,0.053,0.035,0.077c0.09,0.182,0.168,0.375,0.24,0.569
				c0.02,0.046,0.035,0.079,0.045,0.125c0.08,0.229,0.15,0.47,0.212,0.71c0.194,0.826,0.276,1.667,0.364,2.554
				c0.08,0.835,0.17,1.696,0.344,2.557c0.072,0.319,0.161,0.639,0.26,0.966c0.036,0.108,0.061,0.215,0.098,0.312
				c0.088,0.248,0.175,0.488,0.283,0.729c0.088,0.204,0.176,0.398,0.277,0.603c0,0.007,0.008,0.02,0.008,0.02
				C100.5,56.977,99.789,59.63,97.139,63.046z M104.19,56.494c-0.266,0.402-0.567,0.652-0.734,0.624
				c-0.126-0.018-0.304-0.187-0.536-0.498c-0.244-0.347-0.459-0.712-0.662-1.085l-0.107-0.211c-0.17-0.336-0.319-0.667-0.453-1.002
				c-0.033-0.099-0.078-0.194-0.114-0.303c-0.045-0.114-0.079-0.237-0.114-0.354c-0.08-0.277-0.161-0.542-0.225-0.817
				c-0.169-0.771-0.24-1.553-0.318-2.379c-0.088-0.903-0.176-1.837-0.398-2.759c-0.089-0.36-0.195-0.71-0.32-1.037
				c-0.105-0.294-0.238-0.56-0.373-0.817c-0.017-0.035-0.035-0.07-0.053-0.104c-0.151-0.275-0.31-0.527-0.489-0.766
				c-0.017-0.026-0.034-0.044-0.044-0.07c-0.16-0.213-0.336-0.41-0.523-0.595c-0.025-0.028-0.052-0.062-0.078-0.09l-0.162-0.158
				c-0.024-0.027-0.043-0.053-0.07-0.071c0.336-0.054,0.782-0.079,1.348-0.044c2.424,0.142,4.677,1.359,5.886,3.158
				c0.179,0.268,0.284,0.479,0.339,0.685c0.061,0.229,0.061,0.506,0.051,0.832C105.986,51.234,105.728,54.197,104.19,56.494z"/>
		</g>
		<g>
			<path fill="#2C1A4D" d="M85.988,52.147c1.045,0,1.891,0.846,1.891,1.893c0,1.041-0.846,1.887-1.891,1.887
				c-1.041,0-1.887-0.846-1.887-1.887C84.102,52.993,84.947,52.147,85.988,52.147z"/>
		</g>
		<g>
			<path fill="#2C1A4D" d="M95.831,52.147c1.048,0,1.893,0.846,1.893,1.893c0,1.041-0.845,1.887-1.893,1.887
				c-1.041,0-1.888-0.846-1.888-1.887C93.943,52.993,94.79,52.147,95.831,52.147z"/>
		</g>
	</g>
	<g>
		<path fill="#A78FE2" d="M89.57,61.767c-0.316,0-0.579-0.25-0.592-0.568c-0.003-0.07-0.015-0.704,0.495-1.153
			c0.398-0.351,0.966-0.465,1.683-0.345c0.322,0.055,0.54,0.361,0.484,0.684c-0.055,0.323-0.361,0.54-0.684,0.485
			c-0.333-0.058-0.588-0.034-0.7,0.065c-0.084,0.074-0.095,0.213-0.095,0.214c0.014,0.327-0.24,0.603-0.567,0.617
			C89.587,61.767,89.578,61.767,89.57,61.767z"/>
	</g>
	<g>
		<path fill="#A78FE2" d="M85.079,54.736c-0.007,0-0.014,0-0.021,0c-0.217-0.011-0.384-0.194-0.374-0.411
			c0.02-0.438,0.277-1.268,1.111-1.268c0.218,0,0.396,0.177,0.396,0.395s-0.178,0.395-0.396,0.395c-0.289,0-0.322,0.51-0.322,0.515
			C85.462,54.572,85.287,54.736,85.079,54.736z"/>
	</g>
	<g>
		<path fill="#A78FE2" d="M94.621,54.431c-0.006,0-0.012,0-0.019,0c-0.218-0.01-0.387-0.195-0.376-0.413
			c0.02-0.438,0.278-1.266,1.111-1.266c0.218,0,0.396,0.177,0.396,0.395s-0.178,0.395-0.396,0.395c-0.29,0-0.322,0.507-0.322,0.512
			C95.006,54.266,94.831,54.431,94.621,54.431z"/>
	</g>
	<g>
		<g>
			<path fill="#FFDB01" d="M15.434,121.313h-4.176c-0.218,0-0.396-0.178-0.396-0.396s0.178-0.396,0.396-0.396h4.176
				c0.218,0,0.396,0.178,0.396,0.396S15.651,121.313,15.434,121.313z"/>
		</g>
		<g>
			<path fill="#FFDB01" d="M13.346,123.401c-0.218,0-0.396-0.178-0.396-0.396v-4.178c0-0.218,0.178-0.396,0.396-0.396
				s0.396,0.178,0.396,0.396v4.178C13.741,123.224,13.563,123.401,13.346,123.401z"/>
		</g>
	</g>
	<g>
		<g>
			<g>
				<path fill="#2C1A4D" d="M43.874,167.417c-0.038,0-0.078-0.006-0.117-0.018c-0.208-0.064-0.325-0.286-0.261-0.495l2.421-7.826
					c0.064-0.207,0.282-0.323,0.495-0.261c0.208,0.064,0.325,0.286,0.261,0.495l-2.421,7.826
					C44.199,167.308,44.043,167.417,43.874,167.417z"/>
			</g>
			<g>
				<path fill="#2C1A4D" d="M42.429,162.159c-0.96,0-1.741-0.78-1.741-1.739c0-0.96,0.781-1.741,1.741-1.741
					c0.959,0,1.74,0.781,1.74,1.741C44.169,161.379,43.388,162.159,42.429,162.159z M42.429,159.47c-0.524,0-0.95,0.426-0.95,0.95
					c0,0.523,0.426,0.948,0.95,0.948c0.523,0,0.949-0.425,0.949-0.948C43.378,159.896,42.952,159.47,42.429,159.47z"/>
			</g>
			<g>
				<path fill="#2C1A4D" d="M47.801,167.159c-0.96,0-1.741-0.78-1.741-1.739s0.781-1.739,1.741-1.739
					c0.958,0,1.738,0.78,1.738,1.739S48.759,167.159,47.801,167.159z M47.801,164.472c-0.524,0-0.95,0.425-0.95,0.948
					s0.426,0.948,0.95,0.948c0.522,0,0.947-0.425,0.947-0.948S48.323,164.472,47.801,164.472z"/>
			</g>
		</g>
	</g>
	<g>
		<g>
			<path fill="#2C1A4D" d="M59.262,119.946c-0.102,0-0.202-0.039-0.279-0.116c-0.154-0.154-0.154-0.404,0-0.559l3.285-3.283
				c0.154-0.154,0.404-0.154,0.559,0s0.154,0.404,0,0.559l-3.285,3.283C59.464,119.907,59.363,119.946,59.262,119.946z"/>
		</g>
		<g>
			<path fill="#2C1A4D" d="M61.511,120.548c-0.175,0-0.334-0.116-0.382-0.292l-1.214-4.486c-0.057-0.211,0.068-0.428,0.278-0.485
				c0.214-0.054,0.428,0.068,0.485,0.278l1.214,4.486c0.057,0.211-0.068,0.428-0.278,0.485
				C61.579,120.543,61.545,120.548,61.511,120.548z"/>
		</g>
		<g>
			<path fill="#2C1A4D" d="M63.188,118.726c-0.023,0-0.048-0.002-0.071-0.007l-4.568-0.842c-0.215-0.04-0.356-0.246-0.317-0.46
				s0.248-0.362,0.46-0.317l4.568,0.842c0.215,0.04,0.356,0.246,0.317,0.46C63.541,118.592,63.375,118.726,63.188,118.726z"/>
		</g>
	</g>
	<g>
		<g>
			<path fill="#2C1A4D" d="M93.754,135.255c-0.207,0-0.382-0.161-0.395-0.371c-0.014-0.218,0.152-0.405,0.37-0.419l4.379-0.271
				c0.224,0,0.406,0.152,0.419,0.37c0.014,0.218-0.152,0.405-0.37,0.419l-4.379,0.271C93.771,135.254,93.762,135.255,93.754,135.255
				z"/>
		</g>
		<g>
			<path fill="#2C1A4D" d="M93.576,132.37c-0.208,0-0.382-0.162-0.395-0.371c-0.014-0.218,0.152-0.405,0.37-0.419l4.378-0.268
				c0.236,0.005,0.406,0.153,0.419,0.37c0.014,0.218-0.152,0.405-0.37,0.419l-4.378,0.268
				C93.592,132.369,93.584,132.37,93.576,132.37z"/>
		</g>
	</g>
	<g>
		<g>
			<path fill="#2C1A4D" d="M129.365,166.714c-0.669,0-1.214-0.546-1.214-1.216c0-0.669,0.545-1.214,1.214-1.214
				s1.214,0.545,1.214,1.214C130.579,166.168,130.034,166.714,129.365,166.714z M129.365,165.075c-0.233,0-0.423,0.189-0.423,0.423
				c0,0.234,0.189,0.425,0.423,0.425s0.423-0.19,0.423-0.425C129.788,165.265,129.599,165.075,129.365,165.075z"/>
		</g>
		<g>
			<path fill="#2C1A4D" d="M129.365,171.065c-0.669,0-1.214-0.544-1.214-1.212c0-0.669,0.545-1.214,1.214-1.214
				s1.214,0.545,1.214,1.214C130.579,170.521,130.034,171.065,129.365,171.065z M129.365,169.431c-0.233,0-0.423,0.189-0.423,0.423
				c0,0.232,0.189,0.421,0.423,0.421s0.423-0.188,0.423-0.421C129.788,169.62,129.599,169.431,129.365,169.431z"/>
		</g>
		<g>
			<g>
				<g>
					<path fill="#2C1A4D" d="M131.599,168.071h-4.466c-0.218,0-0.396-0.178-0.396-0.396s0.178-0.396,0.396-0.396h4.466
						c0.218,0,0.396,0.178,0.396,0.396S131.816,168.071,131.599,168.071z"/>
				</g>
			</g>
		</g>
	</g>
	<g>
		<g>
			<g>
				<path fill="#2C1A4D" d="M162.015,171.828l-15.538-0.006c-0.667,0-1.22-0.289-1.518-0.793c-0.304-0.514-0.286-1.156,0.049-1.764
					l6.26-11.371c0.263-0.479,0.863-0.652,1.342-0.389c0.478,0.263,0.652,0.863,0.389,1.342l-6.054,10.997l14.6,0.007l-6.046-11.005
					c-0.263-0.478-0.088-1.078,0.391-1.342c0.476-0.263,1.077-0.087,1.342,0.391l6.254,11.375c0.333,0.609,0.35,1.253,0.045,1.766
					C163.231,171.539,162.68,171.828,162.015,171.828z"/>
			</g>
			<g>
				<path fill="#2C1A4D" d="M156.364,159.359C156.364,159.359,156.364,159.359,156.364,159.359
					c-0.546-0.001-0.988-0.443-0.988-0.989l0.003-5.09c0.001-0.545,0.443-0.987,0.988-0.987c0,0,0,0,0.001,0
					c0.545,0.001,0.987,0.443,0.987,0.989l-0.003,5.09C157.352,158.917,156.909,159.359,156.364,159.359z"/>
			</g>
			<g>
				<path fill="#2C1A4D" d="M152.133,159.359L152.133,159.359c-0.546-0.001-0.988-0.443-0.988-0.988l0.002-5.092
					c0.001-0.546,0.442-0.988,0.988-0.988l0,0c0.546,0.001,0.988,0.443,0.988,0.988l-0.002,5.092
					C153.12,158.917,152.679,159.359,152.133,159.359z"/>
			</g>
			<g>
				<path fill="#2C1A4D" d="M158.983,163.007h-9.31c-0.327,0-0.593-0.266-0.593-0.593s0.266-0.593,0.593-0.593h9.31
					c0.327,0,0.593,0.266,0.593,0.593S159.311,163.007,158.983,163.007z"/>
			</g>
			<g>
				<path fill="#2C1A4D" d="M158.215,154.166L158.215,154.166l-7.892-0.002c-0.546,0-0.988-0.443-0.988-0.988
					c0-0.546,0.442-0.988,0.988-0.988l0,0l7.892,0.002c0.546,0,0.988,0.443,0.988,0.988
					C159.203,153.724,158.761,154.166,158.215,154.166z"/>
			</g>
		</g>
		<g>
			<g>
				<path fill="#2C1A4D" d="M154.074,150.655c-0.431,0-0.733-0.354-0.897-1.054l-1.47-3.467c-0.391-0.179-0.74-0.438-1.029-0.758
					c-1.521-0.457-2.565-1.853-2.563-3.456c0-1.989,1.621-3.609,3.612-3.609c0.233,0,0.466,0.023,0.693,0.069
					c0.56-0.604,1.353-0.956,2.187-0.958c1.244,0.003,2.333,0.764,2.774,1.894c1.222,0.201,2.157,1.264,2.156,2.539
					c0,1.27-0.935,2.332-2.152,2.534c-0.235,0.549-0.661,0.994-1.203,1.256l-1.218,3.99
					C154.911,149.862,154.724,150.655,154.074,150.655z M151.727,139.419c-1.382,0-2.505,1.123-2.505,2.503
					c-0.002,1.154,0.779,2.153,1.9,2.43l0.183,0.045l0.117,0.147c0.235,0.295,0.545,0.519,0.896,0.647l0.226,0.083l1.506,3.57
					l1.231-4.041l0.267-0.093c0.446-0.153,0.779-0.517,0.892-0.973l0.104-0.417l0.43-0.004c0.804-0.005,1.457-0.661,1.457-1.462
					c0.001-0.808-0.656-1.465-1.466-1.466l-0.435-0.001l-0.103-0.423c-0.203-0.844-0.952-1.435-1.82-1.436
					c-0.615,0.001-1.174,0.29-1.53,0.794l-0.233,0.329l-0.385-0.122C152.222,139.456,151.976,139.419,151.727,139.419z"/>
			</g>
			<g>
				<path fill="#FFFFFF" d="M151.611,143.364c-0.327,0-0.593-0.266-0.593-0.593c0-1.238,1.011-2.248,2.253-2.251h0.001
					c0.327,0,0.592,0.265,0.593,0.592s-0.264,0.593-0.592,0.594c-0.59,0.001-1.069,0.479-1.069,1.065
					C152.204,143.099,151.938,143.364,151.611,143.364z"/>
			</g>
		</g>
		<g>
			<g>
				<circle fill="#FFDB01" cx="149.843" cy="134.459" r="1.175"/>
			</g>
			<g>
				<path fill="#2C1A4D" d="M149.845,136.028h-0.039c-0.417-0.009-0.807-0.181-1.097-0.483c-0.291-0.305-0.445-0.703-0.437-1.122
					c0.021-0.861,0.712-1.535,1.573-1.535c0.456,0.011,0.848,0.185,1.137,0.489c0.289,0.304,0.441,0.701,0.431,1.12
					C151.395,135.341,150.691,136.028,149.845,136.028z M149.861,133.679c-0.444,0-0.788,0.335-0.798,0.763
					c-0.005,0.207,0.072,0.405,0.217,0.557c0.144,0.15,0.337,0.235,0.544,0.239l0.021,0.396v-0.395c0.42,0,0.769-0.341,0.777-0.761
					c0.006-0.209-0.069-0.406-0.212-0.557C150.266,133.77,150.071,133.684,149.861,133.679L149.861,133.679z"/>
			</g>
		</g>
	</g>
	<g>
		<path fill="#2C1A4D" d="M7.614,137.837c-0.196,0-0.387-0.105-0.486-0.291c-4.142-7.663-7.196-15.856-9.077-24.353
			c-0.066-0.298,0.122-0.593,0.421-0.659c0.292-0.065,0.594,0.121,0.659,0.421c1.859,8.395,4.877,16.491,8.97,24.065
			c0.146,0.269,0.046,0.604-0.224,0.749C7.794,137.815,7.703,137.837,7.614,137.837z"/>
	</g>
	<g>
		<path fill="#2C1A4D" d="M48.982,177.62c-0.082,0-0.165-0.019-0.244-0.057c-11.097-5.446-20.898-12.912-29.132-22.19
			c-0.202-0.229-0.182-0.578,0.047-0.781c0.229-0.201,0.578-0.183,0.781,0.047c8.138,9.171,17.824,16.549,28.792,21.931
			c0.273,0.135,0.387,0.467,0.253,0.741C49.383,177.506,49.187,177.62,48.982,177.62z"/>
	</g>
	<g>
		<path fill="#2C1A4D" d="M90.312,187.175c-5.961,0-11.92-0.558-17.714-1.656c-0.3-0.058-0.497-0.347-0.44-0.647
			c0.058-0.299,0.345-0.488,0.647-0.44c5.726,1.087,11.615,1.637,17.507,1.637c17.665,0,34.862-4.954,49.732-14.326
			c0.261-0.162,0.603-0.085,0.763,0.173c0.163,0.259,0.086,0.6-0.173,0.763C125.588,182.161,108.187,187.175,90.312,187.175z"/>
	</g>
	<g>
		<path fill="#2C1A4D" d="M164.246,151.198c-0.12,0-0.24-0.039-0.342-0.118c-0.24-0.189-0.282-0.537-0.094-0.777
			c8.579-10.925,14.693-23.839,17.685-37.346c0.065-0.3,0.368-0.484,0.659-0.421c0.299,0.066,0.487,0.361,0.421,0.659
			c-3.026,13.668-9.214,26.736-17.894,37.791C164.572,151.125,164.41,151.198,164.246,151.198z"/>
	</g>
	<g>
		<path fill="#2C1A4D" d="M153.7,129.421c-0.103,0-0.206-0.029-0.299-0.089c-0.257-0.166-0.331-0.508-0.165-0.765
			c3.305-5.121,5.707-10.629,7.141-16.369c0.074-0.297,0.37-0.475,0.671-0.403c0.297,0.074,0.477,0.375,0.403,0.671
			c-1.464,5.859-3.914,11.478-7.285,16.701C154.061,129.331,153.882,129.421,153.7,129.421z"/>
	</g>
	<g>
		<path fill="#2C1A4D" d="M23.096,120.364c-0.217,0-0.424-0.129-0.512-0.343c-1.015-2.461-1.853-5.003-2.49-7.556
			c-0.073-0.296,0.106-0.597,0.403-0.671c0.299-0.07,0.596,0.106,0.671,0.403c0.624,2.5,1.444,4.99,2.439,7.401
			c0.116,0.282-0.019,0.605-0.301,0.723C23.237,120.351,23.166,120.364,23.096,120.364z"/>
	</g>
	<g>
		<path fill="#2C1A4D" d="M90.312,166.376c-20.078,0-38.847-7.932-52.847-22.332c-0.213-0.219-0.208-0.569,0.011-0.782
			c0.221-0.213,0.57-0.207,0.782,0.011c13.791,14.185,32.277,21.996,52.054,21.996c0.306,0,0.554,0.248,0.554,0.554
			S90.618,166.376,90.312,166.376z"/>
	</g>
	<g>
		<path fill="#2C1A4D" d="M117.746,161.058c-0.219,0-0.426-0.131-0.513-0.346c-0.115-0.283,0.021-0.606,0.305-0.721
			c9.205-3.727,17.427-9.218,24.438-16.321c0.215-0.218,0.565-0.22,0.782-0.005c0.218,0.215,0.22,0.564,0.005,0.782
			c-7.117,7.211-15.464,12.786-24.809,16.569C117.886,161.044,117.815,161.058,117.746,161.058z"/>
	</g>
	<g>
		<path fill="#2C1A4D" d="M54.666,130.37c-0.139,0-0.277-0.052-0.385-0.156c-5.011-4.847-8.943-10.54-11.686-16.921
			c-0.121-0.281,0.009-0.606,0.289-0.727c0.28-0.123,0.605,0.009,0.727,0.289c2.686,6.246,6.534,11.818,11.439,16.563
			c0.22,0.212,0.226,0.562,0.013,0.782C54.955,130.313,54.811,130.37,54.666,130.37z"/>
	</g>
	<g>
		<path fill="#2C1A4D" d="M90.59,144.903c-3.51,0-7.021-0.352-10.435-1.043c-0.3-0.061-0.493-0.353-0.433-0.651
			c0.061-0.301,0.363-0.497,0.651-0.433c3.343,0.677,6.779,1.02,10.216,1.02c9.938,0,19.571-2.854,27.86-8.252
			c0.255-0.167,0.598-0.094,0.766,0.162c0.166,0.256,0.094,0.599-0.162,0.766C110.585,141.987,100.742,144.903,90.59,144.903z"/>
	</g>
	<g>
		<path fill="#2C1A4D" d="M132.834,122.991c-0.11,0-0.223-0.033-0.319-0.102c-0.249-0.177-0.309-0.521-0.133-0.771
			c2.1-2.972,3.886-6.182,5.308-9.541c0.12-0.282,0.444-0.411,0.726-0.294c0.281,0.119,0.413,0.444,0.294,0.726
			c-1.453,3.432-3.278,6.711-5.423,9.748C133.178,122.909,133.007,122.991,132.834,122.991z"/>
	</g>
	<g>
		<path fill="#2C1A4D" d="M142.539,130.905c-0.141,0-0.273-0.076-0.345-0.201l-1.492-2.65c-0.106-0.19-0.039-0.432,0.15-0.539
			c0.188-0.105,0.431-0.04,0.539,0.15l0.949,1.688l1.371-7.794c0.033-0.189,0.198-0.327,0.39-0.327h6.586
			c0.218,0,0.396,0.178,0.396,0.396s-0.178,0.396-0.396,0.396h-6.254l-1.505,8.556c-0.029,0.164-0.158,0.293-0.323,0.321
			C142.583,130.903,142.562,130.905,142.539,130.905z"/>
	</g>
	<g>
		<path fill="#FC639A" d="M144.028-13.685c-0.156,0-0.314-0.046-0.452-0.143c-0.357-0.25-0.444-0.743-0.194-1.101
			c1.213-1.732,3.263-2.488,3.35-2.519c0.413-0.148,0.864,0.065,1.012,0.475c0.148,0.41-0.063,0.862-0.473,1.011
			c-0.03,0.011-1.678,0.631-2.594,1.939C144.523-13.803,144.277-13.685,144.028-13.685z"/>
	</g>
	<g>
		<path fill="#FFF2BB" d="M6.575,41.122c-0.418,0-0.767-0.328-0.788-0.75c-0.234-4.6,3.541-6.316,3.702-6.387
			c0.398-0.177,0.865,0.005,1.042,0.405c0.175,0.398-0.005,0.863-0.401,1.04c-0.121,0.055-2.941,1.371-2.765,4.862
			c0.022,0.436-0.312,0.807-0.749,0.83C6.603,41.122,6.589,41.122,6.575,41.122z"/>
	</g>
	<g>
		<circle fill="#CE3428" cx="92.489" cy="0.878" r="1.517"/>
	</g>
	<g>
		<circle fill="#CE3428" cx="96.11" cy="-3.148" r="0.884"/>
	</g>
	<g>
		<circle fill="#CE3428" cx="97.735" cy="2.794" r="0.667"/>
	</g>
	<g>
		<path fill="#FFF2BB" d="M151.922,168.509c-0.092,0-0.184-0.021-0.271-0.065c-0.291-0.149-0.406-0.507-0.257-0.798l1.168-2.277
			c0.148-0.292,0.508-0.407,0.798-0.257c0.291,0.149,0.406,0.507,0.257,0.798l-1.168,2.277
			C152.345,168.392,152.137,168.509,151.922,168.509z"/>
	</g>
	<g>
		<path fill="#A4F4B3" d="M101.078,162.319c-0.142,0-0.279-0.077-0.351-0.212c-0.378-0.723-0.985-1.17-1.756-1.736
			c-0.176-0.129-0.213-0.377-0.084-0.553c0.129-0.178,0.378-0.213,0.553-0.084c0.818,0.602,1.525,1.121,1.988,2.006
			c0.101,0.193,0.026,0.433-0.167,0.534C101.203,162.305,101.141,162.319,101.078,162.319z"/>
	</g>
	<g>
		<path fill="#A4F4B3" d="M107.013,160.3c-0.088,0-0.176-0.029-0.249-0.089c-0.17-0.138-0.195-0.387-0.058-0.556
			c0.639-0.786,1.189-1.465,2.103-1.887c0.198-0.095,0.434-0.007,0.524,0.192c0.092,0.198,0.006,0.433-0.192,0.524
			c-0.747,0.346-1.221,0.93-1.821,1.668C107.241,160.25,107.127,160.3,107.013,160.3z"/>
	</g>
	<g>
		<circle fill="#FF6B06" cx="93.881" cy="62.78" r="0.332"/>
	</g>
	<g>
		<circle fill="#FF6B06" cx="93.217" cy="64.289" r="0.332"/>
	</g>
	<g>
		<circle fill="#FFA506" cx="95.67" cy="62.2" r="0.332"/>
	</g>
	<g>
		<circle fill="#FF6B06" cx="94.979" cy="64.058" r="0.333"/>
	</g>
	<g>
		<circle fill="#FF6B06" cx="87.859" cy="62.78" r="0.332"/>
	</g>
	<g>
		<circle fill="#FF6B06" cx="86.862" cy="64.058" r="0.332"/>
	</g>
	<g>
		<circle fill="#FF6B06" cx="88.958" cy="64.058" r="0.333"/>
	</g>
	<g>
		<circle fill="#FFA506" cx="85.796" cy="62.339" r="0.333"/>
	</g>
	<g>
		<path fill="#2C1A4D" d="M90.929,71.262c-12.217,0-22.156-9.939-22.156-22.157c0-12.217,9.939-22.155,22.156-22.155
			s22.156,9.938,22.156,22.155C113.085,61.322,103.146,71.262,90.929,71.262z M90.929,28.925c-11.127,0-20.18,9.053-20.18,20.18
			c0,11.128,9.053,20.181,20.18,20.181s20.18-9.053,20.18-20.181C111.108,37.978,102.056,28.925,90.929,28.925z"/>
	</g>
	<g opacity="0.5">
		<g>
			<path fill="#FFFFFF" d="M72.639,49.271c-0.437,0-0.79-0.354-0.79-0.791c0-2.47,1.436-4.661,4.152-6.338
				c0.371-0.229,0.858-0.114,1.088,0.258c0.229,0.372,0.113,0.858-0.258,1.088c-2.258,1.393-3.402,3.072-3.402,4.992
				C73.429,48.917,73.075,49.271,72.639,49.271z"/>
		</g>
		<g>
			<path fill="#FFFFFF" d="M78.602,42.497c-0.309,0-0.602-0.182-0.729-0.485c-0.169-0.402,0.021-0.866,0.423-1.035
				c3.054-1.281,6.599-2.012,10.835-2.234c1.123-0.061,4.04-0.15,6.826,0.295c0.431,0.069,0.725,0.474,0.655,0.905
				c-0.069,0.432-0.481,0.724-0.905,0.655c-2.709-0.433-5.652-0.321-6.493-0.278c-4.052,0.213-7.423,0.904-10.307,2.114
				C78.808,42.477,78.704,42.497,78.602,42.497z"/>
		</g>
	</g>
	<g opacity="0.5">
		<path fill="#FFFFFF" d="M99.066,66.343c-0.28,0-0.552-0.149-0.695-0.413c-0.209-0.384-0.066-0.863,0.317-1.072
			c2.771-1.506,4.569-3.24,5.395-4.14c0.294-0.322,0.796-0.343,1.116-0.048c0.322,0.295,0.344,0.795,0.048,1.117
			c-0.892,0.972-2.831,2.844-5.805,4.46C99.323,66.312,99.193,66.343,99.066,66.343z"/>
	</g>
</g>
</svg>
