<?xml version="1.0" encoding="utf-8"?>
<!-- Generator: Adobe Illustrator 16.0.0, SVG Export Plug-In . SVG Version: 6.00 Build 0)  -->
<!DOCTYPE svg PUBLIC "-//W3C//DTD SVG 1.1//EN" "http://www.w3.org/Graphics/SVG/1.1/DTD/svg11.dtd">
<svg version="1.1" id="Layer_1" xmlns="http://www.w3.org/2000/svg" xmlns:xlink="http://www.w3.org/1999/xlink" x="0px" y="0px"
	 width="180px" height="187.824px" viewBox="0 3.705 180 187.824" enable-background="new 0 3.705 180 187.824"
	 xml:space="preserve">
<g>
	<g>
		<path fill="#FFDB01" d="M154.858,176.01l-3.597-6.54l-5.116,0.602l-5.226,6.834c-0.296,0.535,0.827,0.292,1.419,0.292
			l11.981-0.212C154.91,176.986,155.15,176.546,154.858,176.01z"/>
	</g>
</g>
<g>
	<g>
		<path fill="#FF8C03" d="M99.122,20.814c-1.083-1.061-2.563-1.716-4.198-1.716c-3.31,0-5.994,2.685-5.994,5.996
			c0,2.443,1.463,4.542,3.559,5.477C99.7,29.667,99.521,23.417,99.122,20.814z"/>
	</g>
	<g>
		<path fill="#FF8C03" d="M99.21,29.285l-1.685,1.206C98.157,30.186,98.725,29.78,99.21,29.285z"/>
	</g>
	<g>
		<path fill="#FF8C03" d="M94.924,31.092c0.916,0,1.783-0.212,2.56-0.58l-4.845,0.126C93.344,30.929,94.116,31.092,94.924,31.092z"
			/>
	</g>
	<g>
		<path fill="#E57B07" d="M97.498,30.511l0.027-0.021c-0.013,0.007-0.027,0.014-0.042,0.021L97.498,30.511z"/>
	</g>
	<g>
		<path fill="#E57B07" d="M91.328,30.671l1.311-0.033c-0.05-0.022-0.099-0.045-0.15-0.067C92.12,30.617,91.738,30.654,91.328,30.671
			z"/>
	</g>
	<g>
		<path fill="#E57B07" d="M99.122,20.814c0.399,2.603,0.578,8.853-6.634,9.757c0.052,0.022,0.101,0.045,0.15,0.067l4.845-0.126
			c0.015-0.007,0.029-0.014,0.042-0.021l1.685-1.206c1.058-1.082,1.711-2.559,1.711-4.191
			C100.921,23.417,100.23,21.903,99.122,20.814z"/>
	</g>
</g>
<g>
	<path fill="#4D58BC" d="M109.415,69.112c0,8.27-7.769,18.075-18.26,18.075c-10.493,0-19-9.805-19-18.075s8.506-11.872,19-11.872
		C101.646,57.24,109.415,60.842,109.415,69.112z"/>
</g>
<g>
	<polygon fill="#49BDFF" points="32.075,139.222 34.318,140.09 28.118,151.729 24.409,150.077 	"/>
</g>
<g>
	<path fill="#4D58BC" d="M100.99,84.099c0.15,0.38,0.062,0.953,0.062,1.376l0,0c0,2.107-1.97,3.477-5.641,4.345
		c-2.799,0.664-6.684,0.567-9.907-0.05c-2.419-0.462-5.149-2.188-5.149-4.295l0,0c0-0.444-0.023-0.981,0.143-1.376
		c0,0,7.489,3.426,9.984,3.426C93.11,87.525,100.99,84.099,100.99,84.099z"/>
</g>
<g>
	<path fill="#FFCD5E" d="M96.369,80.824c-1.125,1.45-2.264,2.242-3.374,2.368c-0.696,0.071-1.218-0.136-1.503-0.286v-1.797
		c1.165-0.451,2.029-1.939,2.029-2.564c0-0.744-1.213-1.354-2.701-1.354c-1.488,0-2.701,0.601-2.701,1.354
		c0,0.632,0.865,2.114,2.027,2.564v1.797c-0.285,0.16-0.807,0.366-1.5,0.286c-1.12-0.126-2.251-0.918-3.376-2.368
		c-2.366-3.041-3-5.415-3.173-6.459c0-0.01,0.007-0.017,0.007-0.023c0.088-0.176,0.167-0.357,0.246-0.53
		c0.096-0.214,0.174-0.438,0.252-0.657c0.032-0.095,0.064-0.184,0.09-0.278c0.085-0.286,0.174-0.578,0.235-0.865
		c0.167-0.759,0.239-1.535,0.309-2.279c0.081-0.792,0.151-1.545,0.326-2.28c0.055-0.222,0.118-0.427,0.189-0.63
		c0.018-0.042,0.032-0.074,0.04-0.113c0.063-0.175,0.134-0.341,0.214-0.501c0.017-0.022,0.023-0.048,0.04-0.069
		c0.095-0.183,0.191-0.349,0.3-0.508c0.12-0.166,0.247-0.325,0.373-0.466l0.941-0.174l0.111-0.071c1.963-1.234,5.02-1.26,5.051-1.26
		s3.08,0.017,5.051,1.251l0.113,0.07l0.94,0.174c0.259,0.279,0.482,0.61,0.679,0.984c0.009,0.021,0.026,0.047,0.033,0.069
		c0.078,0.16,0.149,0.333,0.213,0.507c0.018,0.04,0.031,0.07,0.041,0.112c0.071,0.204,0.135,0.419,0.188,0.634
		c0.175,0.737,0.247,1.487,0.325,2.277c0.071,0.746,0.153,1.514,0.308,2.282c0.064,0.286,0.144,0.569,0.232,0.862
		c0.031,0.096,0.055,0.191,0.085,0.278c0.08,0.221,0.158,0.437,0.256,0.651c0.078,0.181,0.156,0.354,0.245,0.537
		c0,0.006,0.009,0.017,0.009,0.017C99.368,75.409,98.735,77.777,96.369,80.824z"/>
</g>
<g>
	<ellipse fill="#FFAB03" cx="95.061" cy="72.914" rx="3.221" ry="4.611"/>
</g>
<g>
	<polygon fill="#FFAB03" points="149.769,169.47 151.123,176.664 154.859,176.664 151.134,169.371 	"/>
</g>
<g>
	<path fill="#FFAB03" d="M81.614,71.703c-0.058,0.246-0.128,0.492-0.2,0.738c-0.032,0.103-0.063,0.203-0.104,0.307
		c-0.031,0.096-0.07,0.192-0.109,0.287c-0.119,0.291-0.246,0.584-0.397,0.876l-0.095,0.191c-0.181,0.334-0.378,0.657-0.594,0.965
		c-0.205,0.302-0.364,0.454-0.483,0.469c-0.159,0.032-0.418-0.198-0.656-0.555c-1.371-2.049-1.6-4.702-1.647-7.021
		c-0.008-0.293-0.008-0.531,0.047-0.746c0.047-0.183,0.141-0.372,0.3-0.609c1.079-1.615,3.09-2.692,5.249-2.818
		c0.16-0.008,0.3-0.018,0.444-0.018c0.309,0,0.563,0.024,0.778,0.057c-0.024,0.016-0.041,0.046-0.064,0.063l-0.144,0.141
		c-0.023,0.026-0.047,0.057-0.079,0.087c-0.165,0.167-0.323,0.334-0.468,0.522c-0.014,0.025-0.032,0.05-0.045,0.063
		c-0.16,0.215-0.301,0.437-0.429,0.674c-0.016,0.032-0.029,0.064-0.048,0.095c-0.117,0.232-0.238,0.468-0.332,0.728
		c-0.111,0.3-0.215,0.61-0.284,0.925c-0.19,0.827-0.28,1.658-0.357,2.458C81.825,70.319,81.756,71.024,81.614,71.703z"/>
</g>
<g>
	<path fill="#FFAB03" d="M102.661,74.981c-0.238,0.357-0.506,0.58-0.654,0.555c-0.114-0.015-0.271-0.167-0.478-0.444
		c-0.219-0.308-0.411-0.634-0.594-0.967l-0.095-0.188c-0.151-0.302-0.286-0.595-0.403-0.896c-0.031-0.088-0.069-0.172-0.104-0.269
		c-0.039-0.102-0.069-0.212-0.104-0.316c-0.068-0.247-0.142-0.483-0.196-0.728c-0.152-0.689-0.216-1.387-0.285-2.123
		c-0.078-0.806-0.159-1.639-0.355-2.461c-0.08-0.322-0.176-0.634-0.286-0.927c-0.093-0.261-0.215-0.5-0.333-0.728
		c-0.014-0.032-0.03-0.063-0.049-0.095c-0.135-0.245-0.275-0.467-0.434-0.681c-0.015-0.023-0.031-0.04-0.04-0.063
		c-0.145-0.188-0.302-0.364-0.467-0.531c-0.021-0.023-0.046-0.055-0.071-0.08l-0.143-0.14c-0.021-0.026-0.039-0.048-0.062-0.065
		c0.3-0.047,0.697-0.071,1.201-0.041c2.162,0.128,4.172,1.214,5.25,2.818c0.16,0.239,0.253,0.429,0.302,0.611
		c0.056,0.206,0.056,0.452,0.048,0.744C104.261,70.288,104.031,72.932,102.661,74.981z"/>
</g>
<g>
	<path fill="#EA9807" d="M103.386,74.474c0,0-3.185-4.926-4.081-4.346c-0.896,0.581,2.029,6.006,2.691,6.006
		C102.66,76.135,103.386,74.474,103.386,74.474z"/>
</g>
<g>
	<path fill="#EA9807" d="M76.938,67.831c0,0,5.15-2.259,6.047-1.68c0.897,0.58-2.777,10.212-3.438,10.164
		C77.021,76.135,76.938,67.831,76.938,67.831z"/>
</g>
<g>
	<polygon fill="#4D58BC" points="59.84,189.726 64.495,181.663 69.152,189.727 	"/>
</g>
<g>
	<g>
		<path fill="#FFDB01" d="M151.685,151.188c0.001-0.995-0.94-1.698-1.936-1.699c-0.231-0.95-0.407-0.906-1.429-0.906
			c-0.729,0-0.98,0.197-1.373,0.75c-0.254-0.078-0.523-0.121-0.803-0.121c-1.506,0-2.544,0.745-2.544,2.251
			c0,1.279,0.882,2.243,2.071,2.535c0.263,0.33-0.044,1.242,0.358,1.39l0.909,2.7c0.175,0.747,0.464,0.746,0.642,0l1.078-3.625
			c0.55-0.189,1.665-1.117,1.806-1.686C151.455,152.77,151.685,152.178,151.685,151.188z"/>
	</g>
</g>
<g>
	<g>
		<path fill="#49BEFE" d="M151.763,73.066c-0.045,0-0.088-0.004-0.135-0.014l-5.767-1.191c-0.358-0.075-0.59-0.425-0.515-0.784
			c0.074-0.358,0.423-0.59,0.782-0.515l5.768,1.191c0.028,0.005,0.054,0.025,0.081,0.034c-0.762-1.991-2.683-3.407-4.941-3.407
			c-2.874,0-5.209,2.294-5.284,5.15l4.592,0.95c0.359,0.074,0.59,0.424,0.517,0.783c-0.065,0.312-0.342,0.528-0.649,0.528
			c-0.045,0-0.09-0.004-0.135-0.013l-4.179-0.864c0.56,2.323,2.646,4.05,5.139,4.05c2.924,0,5.293-2.369,5.293-5.292
			c0-0.288-0.029-0.567-0.074-0.842C152.133,72.973,151.958,73.066,151.763,73.066z"/>
	</g>
	<g>
		<path fill="#168DC1" d="M146.212,75.792c0.308,0,0.584-0.215,0.649-0.528c0.073-0.359-0.157-0.709-0.517-0.783l-4.592-0.95
			c-0.002,0.048-0.008,0.095-0.008,0.142c0,0.429,0.058,0.843,0.153,1.242l4.179,0.864
			C146.122,75.788,146.167,75.792,146.212,75.792z"/>
	</g>
	<g>
		<path fill="#168DC1" d="M151.897,71.754l-5.768-1.191c-0.359-0.075-0.708,0.157-0.782,0.515c-0.075,0.359,0.156,0.709,0.515,0.784
			l5.767,1.191c0.047,0.01,0.09,0.014,0.135,0.014c0.194,0,0.369-0.092,0.492-0.235c-0.057-0.361-0.149-0.709-0.277-1.043
			C151.951,71.779,151.926,71.759,151.897,71.754z"/>
	</g>
</g>
<g>
	<g>
		<path fill="#FE2C63" d="M141.058,22.411c0,0,0.181-0.494,2.556-5.289c2.356-4.762,1.176-10.697,1.176-10.697
			s-7.135,1.885-9.492,6.646c-2.376,4.795-2.712,6.579-2.712,6.579s-1.749-0.944-4.392,4.389c0,0,1.42,0.399,4.579-0.137
			l3.483,1.526c1.487,2.838,2.183,4.419,2.183,4.419C141.08,24.513,141.058,22.411,141.058,22.411z"/>
	</g>
	<g>
		<path fill="#FF0051" d="M135.806,26.671l-0.722,1.483c-0.325,0.661-1.125,0.929-1.784,0.604l-1.231-0.61
			c-0.659-0.325-0.929-1.125-0.604-1.783l0.723-1.485"/>
	</g>
	<g>
		<line fill="#FF0051" x1="132.586" y1="19.65" x2="141.51" y2="24.069"/>
	</g>
</g>
<g>
	<path fill="#C10C4D" d="M143.514,6.839c0,0,0.11,4.719-1.836,8.199c-1.947,3.479-3.314,5.467-3.314,5.467l-1.315,6.089l2.005,2.976
		l1.385-6.032l2.989-6.058l1.706-7.579l-0.928-3.476L143.514,6.839z"/>
</g>
<g>
	<path fill="#26E552" d="M97.871,165.646c0,0-2.248,6.475,5.459,6.544C103.33,172.19,101.101,165.77,97.871,165.646z"/>
</g>
<g>
	<path fill="#26E552" d="M110.927,164.271c0,0-7.148-0.82-7.447,5.857C103.48,170.128,109.022,169.18,110.927,164.271z"/>
</g>
<g>
	<g>
		<path fill="#FFB103" d="M29.767,54.59c-0.957-1.073-2.122-1.959-3.433-2.589c-0.73-0.237-1.494-0.396-2.28-0.476
			c3.952,1.617,6.739,5.497,6.739,10.032c0,5.986-4.852,10.839-10.839,10.839c-0.507,0-1.003-0.046-1.491-0.114
			c0.86,0.26,1.763,0.417,2.698,0.457c0.152,0.008,0.303,0.019,0.459,0.019c6.029,0,10.918-4.889,10.918-10.918
			C32.539,59.051,31.488,56.515,29.767,54.59z"/>
	</g>
	<g>
		<path fill="#FFDB01" d="M30.793,61.556c0-4.535-2.787-8.415-6.739-10.032c-0.361-0.038-0.728-0.062-1.1-0.062
			c-6.03,0-10.918,4.888-10.918,10.918c0,4.339,2.537,8.076,6.203,9.836c0.074,0.023,0.15,0.042,0.223,0.064
			c0.488,0.068,0.984,0.114,1.491,0.114C25.942,72.395,30.793,67.542,30.793,61.556z"/>
	</g>
</g>
<g>
	<path fill="#2C1A4D" d="M5.833,94.571c1.864,0,3.267,0.526,4.211,1.575c0.943,1.048,1.415,2.542,1.415,4.479v12.385
		c0,1.938-0.489,3.427-1.467,4.464c-0.979,1.038-2.398,1.557-4.264,1.557c-1.864,0-3.285-0.519-4.262-1.557
		C0.488,116.437,0,114.948,0,113.01v-3.318c0-1.095,0.153-2.024,0.461-2.788c0.309-0.765,0.714-1.386,1.215-1.864
		c0.502-0.479,1.078-0.832,1.729-1.062c0.649-0.227,1.317-0.341,2.001-0.341c1.048,0,1.812,0.263,2.292,0.786v-4.058
		c0-0.87-0.18-1.484-0.536-1.84c-0.356-0.356-0.834-0.533-1.433-0.533c-0.599,0-1.075,0.177-1.432,0.534
		c-0.356,0.358-0.535,0.974-0.535,1.85v1.174H0.205v-0.925c0-1.938,0.472-3.432,1.416-4.479C2.564,95.096,3.968,94.571,5.833,94.571
		z M7.698,109.442c0-0.862-0.18-1.477-0.536-1.838c-0.356-0.366-0.834-0.547-1.433-0.547c-0.599,0-1.075,0.181-1.432,0.547
		c-0.356,0.361-0.535,0.976-0.535,1.838v3.782c0,0.863,0.178,1.477,0.535,1.841c0.357,0.362,0.833,0.543,1.432,0.543
		c0.598,0,1.077-0.181,1.433-0.543c0.356-0.364,0.536-0.978,0.536-1.841V109.442z"/>
	<path fill="#2C1A4D" d="M23.381,94.571c1.866,0,3.285,0.526,4.264,1.575c0.977,1.048,1.467,2.542,1.467,4.479v12.385
		c0,1.938-0.49,3.427-1.467,4.464c-0.979,1.038-2.398,1.557-4.264,1.557c-1.864,0-3.285-0.519-4.263-1.557
		c-0.979-1.037-1.467-2.526-1.467-4.464v-2.772h3.763v3.012c0,0.867,0.179,1.477,0.534,1.829c0.356,0.354,0.834,0.529,1.433,0.529
		s1.075-0.176,1.432-0.529c0.356-0.353,0.536-0.962,0.536-1.829v-12.863c0-0.866-0.179-1.48-0.536-1.848
		c-0.357-0.363-0.834-0.546-1.432-0.546s-1.076,0.183-1.433,0.546c-0.355,0.367-0.534,0.981-0.534,1.848v2.294h-3.763v-2.055
		c0-1.938,0.488-3.432,1.467-4.479C20.095,95.096,21.516,94.571,23.381,94.571z"/>
	<path fill="#2C1A4D" d="M46.609,102.406c-0.08,0.456-0.204,0.885-0.373,1.282c-0.168,0.398-0.384,0.74-0.645,1.026
		c-0.259,0.286-0.569,0.495-0.932,0.633c0.363,0.136,0.673,0.354,0.932,0.649c0.26,0.297,0.476,0.645,0.645,1.044
		c0.169,0.399,0.293,0.827,0.373,1.283s0.119,0.912,0.119,1.368v3.318c0,1.938-0.488,3.427-1.463,4.464
		c-0.974,1.038-2.39,1.557-4.25,1.557c-1.835,0-3.248-0.519-4.232-1.557c-0.987-1.037-1.48-2.526-1.48-4.464v-18.2h3.763v18.408
		c0,0.866,0.177,1.48,0.531,1.845s0.827,0.545,1.419,0.545c0.593,0,1.066-0.181,1.42-0.545c0.354-0.364,0.531-0.979,0.531-1.845
		v-3.79c0-0.865-0.174-1.48-0.523-1.846c-0.349-0.362-0.814-0.545-1.398-0.545h-0.303v-3.415h0.303c0.583,0,1.049-0.177,1.398-0.53
		c0.349-0.352,0.523-0.962,0.523-1.826v-0.546c0-0.275-0.108-0.581-0.32-0.923c-0.213-0.342-0.454-0.723-0.723-1.145
		c-0.269-0.421-0.511-0.876-0.724-1.365c-0.214-0.49-0.32-1.032-0.32-1.624V94.81h3.762v0.856c0,0.502,0.106,0.912,0.321,1.231
		c0.212,0.318,0.454,0.644,0.724,0.974c0.269,0.332,0.51,0.703,0.722,1.113c0.213,0.409,0.321,0.958,0.321,1.641v0.412
		C46.728,101.493,46.688,101.949,46.609,102.406z"/>
	<path fill="#2C1A4D" d="M59.024,103.637c0.682,0,1.348,0.114,1.996,0.341c0.648,0.229,1.221,0.582,1.723,1.062
		c0.5,0.479,0.902,1.1,1.209,1.864c0.307,0.764,0.461,1.693,0.461,2.788v3.318c0,1.938-0.488,3.427-1.467,4.464
		c-0.978,1.038-2.398,1.557-4.263,1.557s-3.286-0.519-4.264-1.557c-0.978-1.037-1.466-2.526-1.466-4.464v-12.385
		c0-1.938,0.475-3.432,1.424-4.479c0.95-1.049,2.345-1.575,4.186-1.575c0.343,0,0.702,0.024,1.078,0.07
		c0.375,0.044,0.769,0.086,1.18,0.119c0.41,0.033,0.826,0.051,1.248,0.051c0.422,0,0.838-0.044,1.249-0.137v3.319
		c-0.297,0.09-0.663,0.141-1.094,0.154c-0.434,0.01-0.878,0.005-1.335-0.018c-0.456-0.023-0.883-0.052-1.282-0.085
		c-0.4-0.037-0.714-0.052-0.941-0.052c-0.57,0-1.039,0.177-1.402,0.533c-0.365,0.355-0.547,0.97-0.547,1.84l0.023,4.058
		C57.217,103.9,57.978,103.637,59.024,103.637z M60.65,109.442c0-0.862-0.179-1.477-0.535-1.838
		c-0.357-0.366-0.834-0.547-1.432-0.547c-0.6,0-1.076,0.181-1.433,0.547c-0.356,0.361-0.534,0.976-0.534,1.838v3.782
		c0,0.863,0.178,1.477,0.534,1.841c0.356,0.362,0.833,0.543,1.433,0.543c0.598,0,1.075-0.181,1.432-0.543
		c0.356-0.364,0.535-0.978,0.535-1.841V109.442z"/>
	<path fill="#2C1A4D" d="M70.603,118.791v-18.2c0-1.938,0.491-3.431,1.472-4.481c0.98-1.048,2.395-1.573,4.242-1.573
		c1.869,0,3.295,0.525,4.275,1.573c0.98,1.051,1.471,2.544,1.471,4.481v18.2h-3.763v-18.438c0-0.866-0.177-1.484-0.531-1.848
		c-0.353-0.366-0.838-0.55-1.453-0.55c-0.593,0-1.067,0.184-1.42,0.55c-0.353,0.363-0.53,0.981-0.53,1.848v18.438H70.603z"/>
	<path fill="#2C1A4D" d="M93.95,94.571c1.866,0,3.286,0.526,4.265,1.575c0.977,1.048,1.467,2.542,1.467,4.479v12.385
		c0,1.938-0.49,3.427-1.467,4.464c-0.979,1.038-2.398,1.557-4.265,1.557c-1.864,0-3.284-0.519-4.262-1.557
		c-0.978-1.037-1.468-2.526-1.468-4.464v-2.772h3.764v3.012c0,0.867,0.177,1.477,0.534,1.829c0.357,0.354,0.833,0.529,1.432,0.529
		c0.601,0,1.077-0.176,1.433-0.529c0.358-0.353,0.535-0.962,0.535-1.829v-12.863c0-0.866-0.177-1.48-0.535-1.848
		c-0.355-0.363-0.832-0.546-1.433-0.546c-0.599,0-1.074,0.183-1.432,0.546c-0.357,0.367-0.534,0.981-0.534,1.848v2.294H88.22v-2.055
		c0-1.938,0.49-3.432,1.468-4.479C90.666,95.096,92.086,94.571,93.95,94.571z"/>
	<path fill="#2C1A4D" d="M105.872,118.791v-18.2c0-1.938,0.474-3.431,1.42-4.481c0.945-1.048,2.343-1.573,4.19-1.573
		c0.343,0,0.701,0.023,1.077,0.069c0.377,0.046,0.771,0.085,1.18,0.121c0.41,0.033,0.827,0.051,1.25,0.051
		c0.421,0,0.837-0.046,1.247-0.137v3.316c-0.295,0.094-0.66,0.145-1.094,0.154c-0.434,0.014-0.872,0.008-1.317-0.015
		c-0.443-0.023-0.872-0.052-1.282-0.089c-0.411-0.032-0.729-0.051-0.958-0.051c-0.57,0-1.038,0.185-1.402,0.552
		c-0.365,0.366-0.548,0.984-0.548,1.854v4.021c0.251-0.227,0.564-0.414,0.941-0.56c0.376-0.146,0.826-0.221,1.351-0.221
		c0.685,0,1.351,0.114,2.002,0.341c0.649,0.229,1.225,0.587,1.727,1.076c0.5,0.49,0.907,1.115,1.215,1.876
		c0.307,0.764,0.462,1.68,0.462,2.749v9.147h-3.762v-9.408c0-0.866-0.179-1.477-0.531-1.83c-0.353-0.353-0.839-0.531-1.454-0.531
		c-0.594,0-1.066,0.179-1.419,0.531c-0.354,0.354-0.531,0.964-0.531,1.83v9.408H105.872z"/>
	<path fill="#2C1A4D" d="M123.488,118.791v-18.2c0-1.938,0.491-3.431,1.473-4.481c0.98-1.048,2.395-1.573,4.241-1.573
		c1.87,0,3.295,0.525,4.277,1.573c0.979,1.051,1.47,2.544,1.47,4.481v18.2h-3.763v-18.438c0-0.866-0.178-1.484-0.53-1.848
		c-0.354-0.366-0.839-0.55-1.454-0.55c-0.594,0-1.066,0.184-1.418,0.55c-0.355,0.363-0.532,0.981-0.532,1.848v18.438H123.488z"/>
	<path fill="#2C1A4D" d="M141.107,115.164h3.624v3.627h-3.624V115.164z"/>
	<path fill="#2C1A4D" d="M156.721,94.571c1.865,0,3.269,0.526,4.214,1.575c0.941,1.048,1.414,2.542,1.414,4.479v12.385
		c0,1.938-0.489,3.427-1.468,4.464c-0.978,1.038-2.398,1.557-4.263,1.557c-1.863,0-3.284-0.519-4.264-1.557
		c-0.977-1.037-1.466-2.526-1.466-4.464v-3.318c0-1.095,0.154-2.024,0.461-2.788c0.308-0.765,0.714-1.386,1.216-1.864
		c0.502-0.479,1.076-0.832,1.726-1.062c0.651-0.227,1.318-0.341,2.002-0.341c1.05,0,1.814,0.263,2.293,0.786v-4.058
		c0-0.87-0.18-1.484-0.535-1.84c-0.357-0.356-0.834-0.533-1.433-0.533c-0.598,0-1.076,0.177-1.433,0.534
		c-0.355,0.358-0.533,0.974-0.533,1.85v1.174h-3.559v-0.925c0-1.938,0.471-3.432,1.416-4.479
		C153.453,95.096,154.858,94.571,156.721,94.571z M158.587,109.442c0-0.862-0.18-1.477-0.535-1.838
		c-0.357-0.366-0.834-0.547-1.433-0.547c-0.598,0-1.076,0.181-1.433,0.547c-0.355,0.361-0.533,0.976-0.533,1.838v3.782
		c0,0.863,0.178,1.477,0.533,1.841c0.356,0.362,0.835,0.543,1.433,0.543c0.599,0,1.075-0.181,1.433-0.543
		c0.355-0.364,0.535-0.978,0.535-1.841V109.442z"/>
	<path fill="#2C1A4D" d="M174.27,94.571c1.864,0,3.285,0.526,4.262,1.575c0.979,1.048,1.468,2.542,1.468,4.479v12.385
		c0,1.938-0.489,3.427-1.468,4.464c-0.977,1.038-2.397,1.557-4.262,1.557s-3.286-0.519-4.264-1.557
		c-0.978-1.037-1.467-2.526-1.467-4.464v-2.772h3.763v3.012c0,0.867,0.178,1.477,0.535,1.829c0.356,0.354,0.833,0.529,1.433,0.529
		c0.598,0,1.074-0.176,1.433-0.529c0.355-0.353,0.534-0.962,0.534-1.829v-12.863c0-0.866-0.179-1.48-0.534-1.848
		c-0.358-0.363-0.835-0.546-1.433-0.546c-0.6,0-1.076,0.183-1.433,0.546c-0.357,0.367-0.535,0.981-0.535,1.848v2.294h-3.763v-2.055
		c0-1.938,0.489-3.432,1.467-4.479C170.984,95.096,172.406,94.571,174.27,94.571z"/>
</g>
<g>
	<path fill="#2C1A4D" d="M153.165,89.614c-0.201,0-0.388-0.133-0.445-0.338c-1.017-3.596-2.363-7.131-4-10.506
		c-0.11-0.23-0.014-0.508,0.216-0.62c0.234-0.112,0.509-0.014,0.62,0.216c1.659,3.424,3.023,7.009,4.058,10.657
		c0.069,0.247-0.075,0.503-0.321,0.573C153.249,89.608,153.208,89.614,153.165,89.614z"/>
</g>
<g>
	<path fill="#2C1A4D" d="M142.376,68.027c-0.141,0-0.277-0.063-0.37-0.184c-2.743-3.606-5.883-6.938-9.328-9.904
		c-0.195-0.167-0.217-0.46-0.048-0.654c0.165-0.196,0.458-0.216,0.653-0.049c3.495,3.008,6.678,6.388,9.461,10.046
		c0.154,0.203,0.116,0.495-0.087,0.65C142.571,67.996,142.473,68.027,142.376,68.027z"/>
</g>
<g>
	<path fill="#2C1A4D" d="M28.063,89.715c-0.042,0-0.083-0.005-0.125-0.018c-0.248-0.069-0.391-0.326-0.322-0.573
		c5.636-20.044,20.667-36.349,40.208-43.613c13.76-5.116,29.038-5.436,43.017-0.902c0.243,0.08,0.377,0.341,0.297,0.585
		c-0.078,0.244-0.341,0.377-0.584,0.298c-13.782-4.471-28.842-4.155-42.407,0.888C48.883,53.542,34.066,69.615,28.51,89.377
		C28.451,89.581,28.265,89.715,28.063,89.715z"/>
</g>
<g>
	<path fill="#2C1A4D" d="M113.929,27.351c-0.046,0-0.09-0.006-0.134-0.019c-4.001-1.207-8.219-2.093-12.533-2.634
		c-0.255-0.031-0.435-0.264-0.402-0.518c0.032-0.253,0.27-0.437,0.517-0.402c4.366,0.547,8.635,1.443,12.686,2.665
		c0.246,0.075,0.386,0.334,0.311,0.578C114.312,27.222,114.128,27.351,113.929,27.351z"/>
</g>
<g>
	<path fill="#2C1A4D" d="M28.058,52.36c-0.109,0-0.22-0.039-0.307-0.115c-0.193-0.17-0.211-0.463-0.042-0.655
		c15.073-17.142,36.767-27.495,59.519-28.404c0.24-0.008,0.472,0.189,0.481,0.446c0.01,0.256-0.188,0.471-0.444,0.482
		c-22.5,0.898-43.952,11.136-58.86,28.089C28.314,52.307,28.186,52.36,28.058,52.36z"/>
</g>
<g>
	<path fill="#2C1A4D" d="M9.259,89.459c-0.032,0-0.066-0.003-0.1-0.01c-0.25-0.055-0.409-0.302-0.354-0.553
		c1.307-5.975,3.281-11.819,5.868-17.369c0.109-0.232,0.385-0.333,0.616-0.225c0.233,0.108,0.333,0.384,0.226,0.617
		c-2.559,5.488-4.512,11.267-5.804,17.176C9.665,89.312,9.471,89.459,9.259,89.459z"/>
</g>
<g>
	<path fill="#2C1A4D" d="M172.117,89.686c-0.214,0-0.405-0.147-0.454-0.364c-3.952-17.902-13.86-34.185-27.897-45.846
		c-0.196-0.165-0.222-0.457-0.06-0.654c0.164-0.197,0.457-0.223,0.653-0.061c14.195,11.794,24.213,28.258,28.211,46.36
		c0.055,0.25-0.103,0.498-0.353,0.553C172.183,89.683,172.15,89.686,172.117,89.686z"/>
</g>
<g>
	<path fill="#2C1A4D" d="M132.888,89.409c-0.182,0-0.354-0.106-0.428-0.282c-2.802-6.549-7.186-12.423-12.679-16.987
		c-0.198-0.164-0.226-0.456-0.06-0.653c0.163-0.197,0.457-0.223,0.652-0.061c5.607,4.658,10.08,10.652,12.939,17.336
		c0.1,0.235-0.01,0.508-0.245,0.609C133.01,89.397,132.948,89.409,132.888,89.409z"/>
</g>
<g>
	<path fill="#2C1A4D" d="M48.538,89.409c-0.061,0-0.123-0.012-0.183-0.038c-0.235-0.101-0.345-0.374-0.244-0.609
		c2.858-6.684,7.333-12.678,12.939-17.336c0.196-0.162,0.489-0.136,0.651,0.061c0.165,0.197,0.137,0.49-0.06,0.653
		c-5.493,4.564-9.876,10.438-12.678,16.987C48.889,89.303,48.718,89.409,48.538,89.409z"/>
</g>
<g>
	<path fill="#2C1A4D" d="M146.022,80.192c-3.366,0-6.278-2.288-7.077-5.563c-0.464-1.893-0.162-3.851,0.85-5.517
		c1.01-1.665,2.61-2.837,4.502-3.298c0.569-0.14,1.153-0.21,1.735-0.21c3.368,0,6.279,2.288,7.079,5.563
		c0.955,3.906-1.448,7.859-5.354,8.815C147.188,80.121,146.605,80.192,146.022,80.192z M146.032,67.26
		c-0.449,0-0.901,0.056-1.342,0.164c-1.463,0.357-2.697,1.263-3.479,2.548c-0.782,1.287-1.016,2.801-0.659,4.263
		c0.619,2.531,2.867,4.3,5.47,4.3c0.451,0,0.902-0.055,1.345-0.163c3.017-0.738,4.872-3.793,4.137-6.811
		C150.883,69.03,148.635,67.26,146.032,67.26z"/>
</g>
<g>
	<path fill="#2C1A4D" d="M94.266,32.14c-4.343,0-7.876-3.534-7.876-7.877c0-4.344,3.533-7.877,7.876-7.877
		c4.344,0,7.879,3.534,7.879,7.877C102.145,28.606,98.61,32.14,94.266,32.14z M94.266,18.043c-3.429,0-6.22,2.79-6.22,6.22
		c0,3.43,2.791,6.22,6.22,6.22c3.431,0,6.222-2.791,6.222-6.22C100.488,20.833,97.697,18.043,94.266,18.043z"/>
</g>
<g>
	<path fill="#2C1A4D" d="M69.578,40.124c-1.389,0-2.519-1.128-2.519-2.517c0-1.387,1.13-2.517,2.519-2.517
		c1.387,0,2.518,1.129,2.518,2.517C72.096,38.996,70.965,40.124,69.578,40.124z M69.578,35.753c-1.024,0-1.856,0.832-1.856,1.854
		c0,1.023,0.832,1.855,1.856,1.855c1.022,0,1.854-0.832,1.854-1.855C71.432,36.585,70.6,35.753,69.578,35.753z"/>
</g>
<g>
	<path fill="#2C1A4D" d="M150.048,37.391c-1.185,0-2.147-0.963-2.147-2.146c0-1.184,0.963-2.147,2.147-2.147
		c1.184,0,2.147,0.963,2.147,2.147C152.195,36.427,151.231,37.391,150.048,37.391z M150.048,33.76c-0.819,0-1.484,0.666-1.484,1.484
		c0,0.818,0.665,1.483,1.484,1.483c0.817,0,1.483-0.666,1.483-1.483C151.531,34.426,150.865,33.76,150.048,33.76z"/>
</g>
<g>
	<path fill="#2C1A4D" d="M162.603,137.277c-1.048,0-1.901-0.853-1.901-1.899c0-1.046,0.854-1.897,1.901-1.897
		c1.047,0,1.899,0.852,1.899,1.897C164.503,136.424,163.65,137.277,162.603,137.277z M162.603,134.143
		c-0.683,0-1.237,0.554-1.237,1.234s0.555,1.236,1.237,1.236c0.682,0,1.235-0.556,1.235-1.236S163.285,134.143,162.603,134.143z"/>
</g>
<g>
	<path fill="#168DC1" d="M46.96,44.426c-0.543,0-0.987-0.443-0.987-0.987c0-0.544,0.444-0.988,0.987-0.988
		c0.544,0,0.987,0.443,0.987,0.988C47.947,43.983,47.504,44.426,46.96,44.426z M46.96,43.114c-0.179,0-0.325,0.145-0.325,0.325
		c0,0.179,0.146,0.325,0.325,0.325s0.326-0.146,0.326-0.325C47.285,43.259,47.139,43.114,46.96,43.114z"/>
</g>
<g>
	<ellipse fill="#AFD1EF" cx="153.164" cy="65.94" rx="0.938" ry="0.938"/>
	<path fill="#2C1A4D" d="M153.163,67.21c-0.604,0-1.128-0.432-1.245-1.026c-0.065-0.333,0.003-0.671,0.193-0.953
		c0.189-0.281,0.478-0.472,0.809-0.537c0.696-0.138,1.358,0.328,1.49,1.001c0.065,0.333-0.002,0.672-0.191,0.953
		c-0.189,0.281-0.478,0.472-0.812,0.538C153.325,67.202,153.243,67.21,153.163,67.21z M153.165,65.333
		c-0.038,0-0.078,0.003-0.118,0.012c-0.158,0.031-0.295,0.122-0.387,0.256c-0.089,0.134-0.123,0.296-0.09,0.455
		c0.063,0.321,0.377,0.544,0.711,0.479c0.159-0.031,0.298-0.122,0.388-0.257c0.09-0.134,0.123-0.295,0.092-0.455
		C153.704,65.539,153.455,65.333,153.165,65.333z"/>
</g>
<g>
	<g>
		<circle fill="#2C1A4D" cx="43.934" cy="77.597" r="0.731"/>
	</g>
	<g>
		<path fill="#FF0051" d="M43.934,78.658c-0.583,0-1.06-0.476-1.06-1.062c0-0.585,0.477-1.062,1.06-1.062
			c0.586,0,1.063,0.477,1.063,1.062C44.997,78.182,44.52,78.658,43.934,78.658z M43.934,77.197c-0.22,0-0.398,0.18-0.398,0.399
			c0,0.22,0.178,0.399,0.398,0.399c0.221,0,0.399-0.179,0.399-0.399C44.333,77.377,44.155,77.197,43.934,77.197z"/>
	</g>
</g>
<g>
	<g>
		<path fill="#E95064" d="M117.441,13.587c-0.183,0-0.332-0.147-0.332-0.331v-2.594c0-0.183,0.149-0.332,0.332-0.332
			s0.331,0.148,0.331,0.332v2.594C117.772,13.439,117.624,13.587,117.441,13.587z"/>
	</g>
	<g>
		<path fill="#E95064" d="M118.738,12.29h-2.595c-0.184,0-0.33-0.149-0.33-0.332s0.146-0.331,0.33-0.331h2.595
			c0.184,0,0.331,0.148,0.331,0.331S118.922,12.29,118.738,12.29z"/>
	</g>
</g>
<g>
	<g>
		<path fill="#49BEFE" d="M57.653,67.627c-0.366,0-0.664-0.297-0.664-0.663v-4.089c0-0.366,0.297-0.663,0.664-0.663
			c0.365,0,0.662,0.296,0.662,0.663v4.089C58.315,67.33,58.018,67.627,57.653,67.627z"/>
	</g>
	<g>
		<path fill="#49BEFE" d="M59.696,65.583h-4.089c-0.367,0-0.663-0.298-0.663-0.663c0-0.366,0.296-0.663,0.663-0.663h4.089
			c0.367,0,0.663,0.297,0.663,0.663C60.359,65.285,60.063,65.583,59.696,65.583z"/>
	</g>
</g>
<g>
	<g>
		<path fill="#26E552" d="M74.103,163.813c-0.367,0-0.664-0.297-0.664-0.662v-4.089c0-0.367,0.297-0.664,0.664-0.664
			c0.366,0,0.663,0.297,0.663,0.664v4.089C74.766,163.516,74.469,163.813,74.103,163.813z"/>
	</g>
	<g>
		<path fill="#26E552" d="M76.148,161.767h-4.09c-0.366,0-0.662-0.295-0.662-0.662c0-0.366,0.296-0.663,0.662-0.663h4.09
			c0.366,0,0.662,0.297,0.662,0.663C76.81,161.472,76.514,161.767,76.148,161.767z"/>
	</g>
</g>
<g>
	<g>
		<path fill="#2C1A4D" d="M66.449,130.991c-0.084,0-0.169-0.032-0.234-0.098c-0.129-0.13-0.129-0.338,0-0.467l1.558-1.56
			c0.13-0.13,0.34-0.13,0.469,0c0.129,0.129,0.129,0.339,0,0.469l-1.559,1.558C66.618,130.959,66.534,130.991,66.449,130.991z"/>
	</g>
	<g>
		<path fill="#2C1A4D" d="M68.007,130.991c-0.084,0-0.169-0.032-0.234-0.098l-1.558-1.558c-0.129-0.13-0.129-0.34,0-0.469
			c0.129-0.13,0.339-0.13,0.468,0l1.559,1.56c0.129,0.129,0.129,0.337,0,0.467C68.177,130.959,68.092,130.991,68.007,130.991z"/>
	</g>
</g>
<g>
	<g>
		<rect x="115.874" y="84.224" fill="#FFDB01" width="3.134" height="0.663"/>
	</g>
	<g>
		<rect x="117.109" y="82.988" fill="#FFDB01" width="0.663" height="3.133"/>
	</g>
</g>
<g>
	<g>
		<g>
			<path fill="#2C1A4D" d="M138.65,31.254c-0.005,0-0.011,0-0.016,0c-0.32-0.006-0.607-0.197-0.74-0.489
				c-0.008-0.016-0.725-1.606-2.102-4.244l-4.329-2.145c-3.007,0.504-5.102,0.732-5.123,0.734c-0.305,0.031-0.596-0.103-0.77-0.35
				c-0.171-0.249-0.195-0.57-0.062-0.841c2.2-4.439,4.524-6.173,5.426-6.715c0.219-0.778,0.874-2.742,2.682-6.392
				c2.496-5.04,9.716-6.999,10.021-7.079c0.407-0.107,0.827,0.105,0.981,0.495c0.115,0.29,2.778,7.14,0.285,12.174
				c-1.809,3.651-2.975,5.361-3.46,6.007c0.116,1.045,0.146,3.945-2.052,8.384C139.252,31.076,138.965,31.254,138.65,31.254z
				 M131.591,22.687c0.127,0,0.254,0.029,0.368,0.086l4.812,2.384c0.155,0.078,0.284,0.203,0.366,0.357
				c0.629,1.2,1.125,2.191,1.494,2.942c1.591-3.912,1.141-6.057,1.135-6.079c-0.066-0.268,0.005-0.55,0.189-0.754
				c0.009-0.01,1.198-1.383,3.463-5.956c1.737-3.508,0.49-8.302-0.088-10.104c-1.812,0.612-6.496,2.483-8.229,5.984
				c-2.266,4.574-2.637,6.353-2.639,6.37c-0.054,0.266-0.236,0.495-0.485,0.602c-0.016,0.008-2.055,0.975-4.239,4.747
				c0.927-0.125,2.211-0.312,3.714-0.567C131.499,22.69,131.545,22.687,131.591,22.687z"/>
		</g>
		<g>
			<path fill="#2C1A4D" d="M133.75,29.543c-0.366,0-0.738-0.082-1.089-0.254l-1.52-0.751c-0.59-0.293-1.03-0.798-1.242-1.423
				c-0.21-0.624-0.164-1.292,0.127-1.883l0.889-1.822c0.199-0.412,0.696-0.582,1.106-0.383c0.411,0.201,0.582,0.696,0.382,1.107
				l-0.889,1.828c-0.098,0.198-0.113,0.418-0.044,0.623c0.068,0.206,0.214,0.371,0.407,0.466l1.518,0.751
				c0.404,0.199,0.888,0.034,1.083-0.367l0.887-1.821c0.201-0.411,0.697-0.583,1.108-0.382c0.411,0.2,0.582,0.696,0.382,1.107
				l-0.888,1.825C135.535,29.038,134.659,29.543,133.75,29.543z"/>
		</g>
		<g>
			<path fill="#2C1A4D" d="M140.57,23.006c-0.124,0-0.249-0.027-0.366-0.086l-8.923-4.418c-0.411-0.203-0.578-0.7-0.376-1.11
				c0.204-0.411,0.7-0.579,1.111-0.375l8.921,4.418c0.411,0.203,0.579,0.701,0.375,1.11
				C141.169,22.837,140.874,23.006,140.57,23.006z"/>
		</g>
	</g>
	<g>
		<path fill="#2C1A4D" d="M126.257,49.936c-0.071,0-0.144-0.015-0.211-0.046c-0.248-0.118-0.355-0.414-0.238-0.662l5.831-12.38
			c0.117-0.248,0.41-0.355,0.663-0.239c0.248,0.117,0.354,0.414,0.235,0.662l-5.83,12.38
			C126.622,49.831,126.443,49.936,126.257,49.936z"/>
	</g>
	<g>
		<path fill="#2C1A4D" d="M121.329,41.086c-0.075,0-0.148-0.017-0.221-0.052c-0.247-0.122-0.347-0.419-0.225-0.666l2.95-5.962
			c0.122-0.246,0.419-0.347,0.666-0.226c0.245,0.122,0.347,0.42,0.226,0.667l-2.951,5.961
			C121.687,40.985,121.511,41.086,121.329,41.086z"/>
	</g>
	<g>
		<path fill="#2C1A4D" d="M119.085,55.223c-0.098,0-0.196-0.021-0.289-0.066c-0.329-0.159-0.467-0.555-0.307-0.885l10.765-22.244
			c0.161-0.329,0.554-0.469,0.886-0.308c0.329,0.16,0.467,0.555,0.307,0.885l-10.765,22.244
			C119.566,55.086,119.331,55.223,119.085,55.223z"/>
	</g>
</g>
<g>
	<g>
		<path fill="#2C1A4D" d="M21.62,74.511c-6.988,0-12.674-5.686-12.674-12.673c0-6.989,5.686-12.674,12.674-12.674
			c6.987,0,12.672,5.685,12.672,12.674C34.293,68.825,28.608,74.511,21.62,74.511z M21.62,50.82
			c-6.075,0-11.016,4.943-11.016,11.018s4.941,11.017,11.016,11.017c6.074,0,11.016-4.942,11.016-11.017S27.695,50.82,21.62,50.82z"
			/>
	</g>
	<g>
		<path fill="#2C1A4D" d="M11.496,69.941c-0.124,0-0.248,0-0.372-0.002c-3.793-0.062-6.098-1.054-6.666-2.868
			c-0.634-2.028,1.15-4.498,5.029-6.955l0.887,1.4c-3.001,1.9-4.702,3.887-4.335,5.06c0.316,1.007,2.275,1.661,5.112,1.707
			c3.249,0.055,7.389-0.644,11.605-1.963c4.216-1.319,8.001-3.095,10.656-5c2.307-1.656,3.545-3.309,3.229-4.316
			c-0.368-1.176-2.907-1.843-6.465-1.687l-0.07-1.655c4.592-0.194,7.481,0.815,8.118,2.848c0.567,1.815-0.763,3.944-3.846,6.156
			c-2.796,2.006-6.748,3.866-11.128,5.236C19.028,69.22,14.872,69.941,11.496,69.941z"/>
	</g>
</g>
<g>
	<path fill="#2C1A4D" d="M90.893,90.942c-1.796,0-3.703-0.174-5.514-0.521c-2.795-0.535-5.688-2.531-5.688-4.946v-0.138
		c-0.003-0.452-0.005-1.016,0.193-1.493l1.224,0.509c-0.097,0.231-0.093,0.645-0.092,0.978l0.001,0.145
		c0,1.653,2.384,3.219,4.611,3.644c3.318,0.635,7.096,0.657,9.63,0.056c3.453-0.816,5.132-2.027,5.132-3.7
		c0-0.12,0.004-0.25,0.011-0.385c0.013-0.252,0.03-0.599-0.027-0.746l1.231-0.488c0.163,0.414,0.141,0.884,0.121,1.299
		c-0.006,0.113-0.012,0.221-0.012,0.321c0,2.378-2.011,4.011-6.151,4.99C94.225,90.783,92.609,90.942,90.893,90.942z"/>
</g>
<g>
	<g>
		<g>
			<path fill="#FA133F" d="M57.25,147.607c-0.245,0.015-0.494,0.034-0.752,0.065c-0.287,0.258-1.761,0.657-1.761,0.657l3.951,7.726
				c0,0,0.963-0.275,1.792-0.842c0.619-0.422,1.346-1.131,1.995-2.309c0.458-0.832,0.879-1.893,1.193-3.26
				c0.026-0.111,0.053-0.21,0.079-0.318c-1.062-0.554-2.184-1.088-3.461-1.413C59.368,147.678,58.371,147.548,57.25,147.607z"/>
		</g>
		<g>
			<path fill="#FA133F" d="M80.093,137.847c0,0-1.342,0.409-1.915,0.875c-0.635,0.515-1.433,1.279-1.984,2.226
				c-0.183,0.317-0.343,0.652-0.456,1.005c-0.236,0.753-0.187,0.807-0.323,1.95c0.578,0.337,1.244,0.628,2.129,0.795
				c0.291,0.057,0.581,0.104,0.866,0.146c1.479,0.225,2.228,0.299,3.229,0.324c0.967,0.022,1.927-0.549,1.927-0.549L80.093,137.847z
				"/>
		</g>
		<g>
			<path fill="#FA133F" d="M70.211,142.803c-0.872,0-1.621,0.062-2.28,0.228c-1.017,0.257-1.813,0.773-2.479,1.763
				c-0.662,0.983-1.199,2.426-1.704,4.533c1.768,0.92,3.384,1.871,5.318,1.934c0.553,0.019,1.129-0.035,1.744-0.183
				c0.479-0.117,0.901-0.271,1.281-0.45c0.968-0.468,1.338-1.424,1.806-2.185c0.709-1.152,1.256-2.243,1.409-3.528
				c-1.423-0.823-2.303-1.91-4.479-2.086C70.63,142.814,70.427,142.803,70.211,142.803z"/>
		</g>
	</g>
	<g>
		<g>
			<path fill="#2C1A4D" d="M68.603,151.556c-2.238,0-4.181-1.229-5.951-2.348c-2.409-1.521-4.683-2.96-7.571-1.643
				c-0.418,0.189-0.908,0.005-1.098-0.41c-0.189-0.417-0.006-0.907,0.41-1.098c3.707-1.689,6.594,0.139,9.144,1.75
				c2.395,1.514,4.461,2.821,7.071,1.632c2.663-1.215,3.071-3.716,3.544-6.611c0.476-2.926,1.019-6.243,4.458-7.812
				c0.417-0.189,0.907-0.007,1.098,0.41c0.189,0.417,0.005,0.907-0.411,1.099c-2.635,1.2-3.042,3.69-3.511,6.569
				c-0.479,2.939-1.024,6.271-4.492,7.854C70.351,151.377,69.455,151.556,68.603,151.556z"/>
		</g>
	</g>
	<g>
		<g>
			<path fill="#2C1A4D" d="M58.803,156.558c-0.314,0-0.615-0.181-0.755-0.485c-0.189-0.414-0.004-0.907,0.411-1.097
				c2.89-1.317,3.296-3.978,3.727-6.792c0.437-2.86,0.933-6.104,4.355-7.664c3.47-1.581,6.34,0.192,8.873,1.757
				c2.483,1.535,4.628,2.857,7.261,1.658c0.417-0.19,0.908-0.007,1.098,0.41c0.19,0.415,0.006,0.907-0.41,1.098
				c-3.439,1.565-6.297-0.199-8.82-1.757c-2.496-1.541-4.65-2.875-7.314-1.658c-2.607,1.189-2.977,3.606-3.405,6.405
				c-0.455,2.982-0.972,6.362-4.676,8.051C59.035,156.533,58.918,156.558,58.803,156.558z"/>
		</g>
	</g>
	<g>
		<path fill="#2C1A4D" d="M82.092,145.592c-0.214,0-0.418-0.123-0.513-0.33l-4.003-8.778c-0.129-0.281-0.005-0.616,0.279-0.746
			c0.285-0.129,0.618-0.003,0.746,0.28l4.002,8.776c0.13,0.282,0.006,0.617-0.278,0.747
			C82.249,145.575,82.169,145.592,82.092,145.592z"/>
	</g>
	<g>
		<path fill="#2C1A4D" d="M78.817,145.242c-0.125,0-0.246-0.071-0.301-0.194l-2.787-6.11c-0.076-0.165-0.002-0.363,0.164-0.438
			c0.164-0.074,0.362-0.003,0.438,0.165l2.788,6.109c0.076,0.167,0.002,0.362-0.165,0.438
			C78.91,145.232,78.863,145.242,78.817,145.242z"/>
	</g>
	<g>
		<path fill="#2C1A4D" d="M73.488,148.201c-0.125,0-0.246-0.072-0.303-0.193L70,141.021c-0.076-0.168-0.003-0.364,0.166-0.441
			c0.165-0.074,0.362-0.002,0.438,0.166l3.187,6.986c0.075,0.167,0.002,0.363-0.165,0.439
			C73.58,148.193,73.534,148.201,73.488,148.201z"/>
	</g>
	<g>
		<path fill="#2C1A4D" d="M71.231,150.542c-0.214,0-0.419-0.122-0.512-0.329l-4.003-8.776c-0.129-0.283-0.005-0.617,0.28-0.746
			c0.283-0.128,0.617-0.003,0.746,0.279l4.002,8.776c0.128,0.282,0.003,0.616-0.279,0.746
			C71.388,150.527,71.309,150.542,71.231,150.542z"/>
	</g>
	<g>
		<path fill="#2C1A4D" d="M68.319,150.985c-0.125,0-0.246-0.072-0.303-0.193l-3.51-7.693c-0.076-0.167-0.002-0.362,0.164-0.44
			c0.167-0.073,0.364-0.001,0.439,0.165l3.51,7.692c0.076,0.168,0.003,0.365-0.164,0.441
			C68.411,150.976,68.364,150.985,68.319,150.985z"/>
	</g>
	<g>
		<path fill="#2C1A4D" d="M61.836,152.951c-0.125,0-0.246-0.071-0.301-0.193l-2.763-6.056c-0.075-0.167-0.002-0.364,0.166-0.438
			c0.164-0.075,0.363-0.004,0.438,0.164l2.761,6.055c0.075,0.167,0.002,0.364-0.165,0.438
			C61.929,152.941,61.882,152.951,61.836,152.951z"/>
	</g>
	<g>
		<path fill="#2C1A4D" d="M59.748,155.669c-0.214,0-0.418-0.123-0.512-0.328l-3.92-8.599c-0.129-0.283-0.004-0.618,0.279-0.745
			c0.285-0.13,0.618-0.005,0.746,0.277l3.92,8.599c0.128,0.283,0.004,0.617-0.279,0.745
			C59.906,155.654,59.827,155.669,59.748,155.669z"/>
	</g>
</g>
<g>
	<g>
		<path fill="#2C1A4D" d="M102.875,173.437c-0.003,0-0.007,0-0.01,0c-8.435-0.077-8.471-8.474-8.469-8.558
			c0-0.22,0.091-0.43,0.247-0.584c0.157-0.153,0.346-0.232,0.59-0.236c2.545,0.022,4.584,0.805,6.062,2.322
			c2.439,2.506,2.408,6.091,2.406,6.242C103.694,173.074,103.325,173.437,102.875,173.437z M96.12,165.762
			c0.232,1.74,1.266,5.491,5.858,5.968c-0.139-1.054-0.566-2.86-1.88-4.203C99.114,166.52,97.778,165.929,96.12,165.762z"/>
	</g>
	<g>
		<path fill="#2C1A4D" d="M102.995,170.957L102.995,170.957c-0.005,0-0.033,0-0.037,0c-0.456-0.009-0.818-0.382-0.813-0.837
			c0.063-6.698,5.619-8.469,8.547-8.469c0.224,0,0.436,0.09,0.593,0.245c0.155,0.158,0.242,0.371,0.24,0.591
			C111.444,170.861,103.342,170.957,102.995,170.957z M109.819,163.378c-1.74,0.237-5.495,1.278-5.971,5.865
			C105.614,169.028,109.347,168.024,109.819,163.378z"/>
	</g>
	<g>
		<path fill="#2C1A4D" d="M102.926,180.252c-0.001,0-0.003,0-0.004,0c-0.457-0.002-0.827-0.375-0.826-0.833l0.049-9.295
			c0.002-0.456,0.372-0.825,0.827-0.825c0.001,0,0.003,0,0.004,0c0.457,0.003,0.827,0.375,0.825,0.833l-0.048,9.296
			C103.751,179.884,103.382,180.252,102.926,180.252z"/>
	</g>
</g>
<g>
	<g>
		<g>
			<path fill="#2C1A4D" d="M24.045,150.132c-0.108,0-0.219-0.026-0.32-0.083c-0.32-0.178-0.435-0.582-0.258-0.9l6.195-11.176
				c0.371-0.664,1.213-0.904,1.879-0.538l2.726,1.512c0.664,0.369,0.906,1.212,0.538,1.878l-2.147,3.96
				c-0.174,0.322-0.577,0.441-0.898,0.267c-0.322-0.173-0.441-0.575-0.267-0.896l2.149-3.966c0.018-0.034,0.009-0.068-0.019-0.084
				l-2.722-1.51c-0.027-0.015-0.064-0.004-0.08,0.023l-6.194,11.172C24.505,150.01,24.278,150.132,24.045,150.132z"/>
		</g>
		<g>
			<path fill="#2C1A4D" d="M26.204,153.474c-0.143,0-0.286-0.036-0.414-0.108l-1.991-1.103c-0.203-0.114-0.347-0.297-0.41-0.519
				c-0.063-0.22-0.035-0.453,0.077-0.651l0.651-1.176c0.09-0.16,0.293-0.216,0.451-0.13c0.161,0.091,0.218,0.292,0.129,0.451
				l-0.653,1.178c-0.027,0.047-0.032,0.098-0.019,0.147c0.016,0.05,0.049,0.093,0.095,0.117l1.991,1.105
				c0.047,0.023,0.098,0.03,0.147,0.017c0.05-0.015,0.092-0.048,0.117-0.093l0.653-1.179c0.09-0.162,0.295-0.217,0.451-0.128
				c0.16,0.087,0.218,0.288,0.129,0.448l-0.653,1.179c-0.109,0.2-0.292,0.345-0.514,0.41
				C26.365,153.463,26.283,153.474,26.204,153.474z"/>
		</g>
		<g>
			<path fill="#2C1A4D" d="M28.028,152.34c-0.111,0-0.222-0.026-0.324-0.085c-0.32-0.179-0.433-0.582-0.254-0.901l4.048-7.209
				c0.177-0.32,0.584-0.434,0.901-0.254c0.319,0.18,0.434,0.583,0.253,0.903l-4.047,7.208
				C28.485,152.218,28.26,152.34,28.028,152.34z"/>
		</g>
		<g>
			<g>
				<path fill="#2C1A4D" d="M33.535,139.631c-0.054,0-0.107-0.014-0.156-0.041c-0.162-0.086-0.222-0.286-0.136-0.449l2.69-4.984
					c0.087-0.163,0.29-0.219,0.449-0.135c0.161,0.087,0.222,0.287,0.136,0.449l-2.69,4.985
					C33.767,139.568,33.653,139.631,33.535,139.631z"/>
			</g>
			<g>
				<path fill="#2C1A4D" d="M31.627,138.573c-0.055,0-0.108-0.013-0.158-0.038c-0.16-0.089-0.22-0.288-0.134-0.45l2.691-4.985
					c0.087-0.163,0.291-0.221,0.448-0.135c0.162,0.086,0.222,0.287,0.135,0.449l-2.69,4.987
					C31.858,138.51,31.744,138.573,31.627,138.573z"/>
			</g>
		</g>
		<g>
			<path fill="#2C1A4D" d="M36.637,135.117c-0.108,0-0.219-0.027-0.322-0.084l-2.657-1.474c-0.32-0.178-0.435-0.581-0.257-0.902
				c0.177-0.32,0.579-0.436,0.901-0.257l2.657,1.475c0.321,0.177,0.436,0.58,0.258,0.9
				C37.095,134.995,36.868,135.117,36.637,135.117z"/>
		</g>
		<g>
			<path fill="#2C1A4D" d="M28.921,152.836c-0.108,0-0.219-0.027-0.321-0.083l-5.77-3.2c-0.32-0.177-0.436-0.581-0.257-0.9
				c0.177-0.319,0.58-0.436,0.901-0.258l5.771,3.199c0.319,0.177,0.436,0.581,0.258,0.901
				C29.382,152.714,29.155,152.836,28.921,152.836z"/>
		</g>
	</g>
	<g>
		<g>
			<path fill="#2C1A4D" d="M33.935,157.965c-0.138,0-0.279-0.034-0.409-0.107c-0.397-0.227-0.537-0.732-0.312-1.131
				c3.888-6.853-1.213-10.376-1.433-10.522c-0.379-0.253-0.482-0.768-0.227-1.149c0.255-0.38,0.769-0.48,1.149-0.228
				c2.297,1.538,5.663,6.176,1.953,12.719C34.504,157.814,34.223,157.965,33.935,157.965z"/>
		</g>
	</g>
	<g>
		<path fill="#2C1A4D" d="M36.516,158.135h-15.97c-0.458,0-0.829-0.371-0.829-0.828s0.371-0.829,0.829-0.829h15.97
			c0.458,0,0.83,0.372,0.83,0.829S36.974,158.135,36.516,158.135z"/>
	</g>
</g>
<g>
	<g>
		<path fill="#2C1A4D" d="M68.734,190.174c-0.003,0-0.008,0-0.013,0l0,0l-10.554-0.001c-0.296,0-0.571-0.159-0.719-0.415
			c-0.147-0.257-0.147-0.572,0.001-0.827l5.277-9.14c0.147-0.257,0.421-0.413,0.717-0.413l0,0c0.296,0,0.569,0.156,0.717,0.413
			l5.212,9.026c0.119,0.143,0.191,0.327,0.191,0.527C69.563,189.802,69.191,190.174,68.734,190.174z M59.601,188.516l7.685,0.001
			l-3.843-6.654L59.601,188.516z"/>
	</g>
	<g>
		<g>
			<line fill="#9D97AB" x1="75.867" y1="186.046" x2="70.498" y2="186.046"/>
		</g>
		<g>
			<path fill="#2C1A4D" d="M75.867,186.709h-5.369c-0.367,0-0.663-0.297-0.663-0.663c0-0.367,0.296-0.663,0.663-0.663h5.369
				c0.366,0,0.662,0.296,0.662,0.663C76.53,186.412,76.234,186.709,75.867,186.709z"/>
		</g>
	</g>
	<g>
		<path fill="#2C1A4D" d="M62.587,185.62L62.587,185.62l-6.842-0.001c-0.256,0-0.464-0.207-0.464-0.464s0.208-0.463,0.464-0.463l0,0
			l6.842,0.001c0.256,0,0.463,0.206,0.463,0.463S62.843,185.62,62.587,185.62z"/>
	</g>
	<g>
		<g>
			<line fill="#9D97AB" x1="74.027" y1="182.665" x2="68.657" y2="182.665"/>
		</g>
		<g>
			<path fill="#2C1A4D" d="M74.027,183.327h-5.37c-0.366,0-0.662-0.296-0.662-0.662c0-0.367,0.296-0.662,0.662-0.662h5.37
				c0.366,0,0.662,0.295,0.662,0.662C74.689,183.031,74.393,183.327,74.027,183.327z"/>
		</g>
	</g>
</g>
<g>
	<g>
		<path fill="#49BEFE" d="M123.94,145.281c-0.917,0-1.832-0.37-2.496-1.099l-2.575-2.828c-0.307-0.339-0.283-0.862,0.055-1.172
			c0.339-0.307,0.862-0.281,1.171,0.056l2.576,2.828c0.635,0.7,1.723,0.75,2.426,0.114c0.339-0.307,0.863-0.283,1.17,0.058
			c0.308,0.338,0.282,0.86-0.057,1.17C125.564,144.992,124.753,145.281,123.94,145.281z"/>
	</g>
	<g>
		<path fill="#FE2C63" d="M126.44,143.594c-0.224,0-0.448-0.092-0.611-0.271c-0.309-0.338-0.284-0.863,0.055-1.17
			c0.698-0.637,0.749-1.724,0.112-2.424l-2.575-2.828c-0.308-0.339-0.283-0.863,0.055-1.173c0.339-0.305,0.861-0.282,1.172,0.057
			l2.574,2.829c1.251,1.375,1.151,3.511-0.222,4.764C126.841,143.523,126.64,143.594,126.44,143.594z"/>
	</g>
	<g>
		<path fill="#2C1A4D" d="M123.761,145.845c-1.139,0-2.272-0.46-3.098-1.365l-3.399-3.733c-0.308-0.338-0.283-0.862,0.056-1.17
			c0.337-0.309,0.861-0.284,1.17,0.055l3.398,3.733c0.938,1.029,2.544,1.104,3.575,0.166c1.03-0.939,1.104-2.542,0.167-3.571
			l-3.4-3.734c-0.308-0.338-0.281-0.863,0.055-1.17c0.341-0.309,0.863-0.284,1.172,0.055l3.398,3.734
			c1.553,1.704,1.431,4.356-0.275,5.912C125.778,145.484,124.767,145.844,123.761,145.845z"/>
	</g>
	<g>
		<g>
			<path fill="#FE2C63" d="M121.094,135.168c-0.104,0-0.206-0.047-0.27-0.138c-0.026-0.032-0.028-0.035-0.085-0.058
				c-0.093-0.039-0.234-0.098-0.367-0.28c-0.135-0.186-0.145-0.338-0.153-0.438c-0.004-0.063-0.004-0.066-0.026-0.098
				c-0.026-0.035-0.028-0.035-0.085-0.059c-0.088-0.036-0.233-0.096-0.367-0.276c-0.108-0.15-0.076-0.357,0.073-0.465
				c0.147-0.108,0.354-0.076,0.462,0.072c0.021,0.031,0.025,0.032,0.083,0.056c0.09,0.035,0.238,0.098,0.37,0.284
				c0.134,0.184,0.146,0.343,0.152,0.438c0.005,0.062,0.005,0.065,0.028,0.098c0.021,0.032,0.023,0.032,0.081,0.056
				c0.088,0.036,0.236,0.096,0.372,0.283c0.106,0.149,0.072,0.357-0.077,0.465C121.228,135.148,121.16,135.168,121.094,135.168z"/>
		</g>
	</g>
	<g>
		<g>
			<path fill="#FE2C63" d="M122.037,134.323c-0.103,0-0.201-0.048-0.268-0.139c-0.023-0.031-0.027-0.033-0.086-0.057
				c-0.093-0.038-0.234-0.099-0.367-0.281c-0.134-0.184-0.144-0.337-0.152-0.439c-0.005-0.062-0.005-0.064-0.028-0.1
				c-0.02-0.028-0.022-0.03-0.081-0.054c-0.089-0.035-0.239-0.096-0.371-0.283c-0.105-0.149-0.071-0.357,0.077-0.462
				c0.149-0.105,0.357-0.072,0.463,0.077c0.022,0.031,0.025,0.032,0.082,0.055c0.088,0.036,0.236,0.098,0.369,0.281
				c0.134,0.187,0.144,0.338,0.152,0.439c0.004,0.062,0.004,0.065,0.026,0.097c0.023,0.031,0.024,0.033,0.082,0.057
				c0.096,0.038,0.235,0.098,0.37,0.282c0.108,0.148,0.074,0.355-0.074,0.463C122.172,134.301,122.104,134.323,122.037,134.323z"/>
		</g>
	</g>
	<g>
		<g>
			<path fill="#49BEFE" d="M116.147,139.436c-0.103,0-0.202-0.047-0.269-0.137c-0.023-0.034-0.027-0.035-0.085-0.058
				c-0.093-0.04-0.231-0.096-0.365-0.279c-0.135-0.186-0.146-0.339-0.154-0.44c-0.005-0.062-0.005-0.064-0.027-0.097
				c-0.023-0.034-0.026-0.036-0.085-0.06c-0.086-0.036-0.231-0.095-0.365-0.277c-0.106-0.147-0.075-0.354,0.071-0.464
				c0.148-0.107,0.357-0.075,0.465,0.071c0.021,0.033,0.026,0.034,0.081,0.057c0.089,0.036,0.235,0.098,0.37,0.284
				c0.132,0.184,0.146,0.343,0.153,0.438c0.004,0.063,0.004,0.066,0.026,0.099c0.022,0.03,0.024,0.031,0.081,0.055
				c0.091,0.037,0.237,0.099,0.371,0.285c0.108,0.146,0.074,0.354-0.074,0.462C116.283,139.417,116.216,139.436,116.147,139.436z"/>
		</g>
	</g>
	<g>
		<g>
			<path fill="#49BEFE" d="M117.093,138.591c-0.102,0-0.205-0.05-0.27-0.139c-0.022-0.032-0.027-0.034-0.084-0.056
				c-0.095-0.04-0.236-0.099-0.368-0.283c-0.134-0.183-0.145-0.337-0.152-0.438c-0.003-0.063-0.003-0.065-0.026-0.098
				c-0.022-0.031-0.027-0.033-0.083-0.057c-0.089-0.035-0.237-0.097-0.37-0.283c-0.107-0.147-0.073-0.355,0.078-0.463
				c0.146-0.104,0.353-0.071,0.461,0.078c0.022,0.03,0.022,0.031,0.081,0.054c0.089,0.036,0.237,0.099,0.37,0.28
				c0.134,0.187,0.144,0.339,0.15,0.44c0.006,0.061,0.006,0.064,0.027,0.098c0.024,0.031,0.027,0.033,0.085,0.057
				c0.093,0.037,0.234,0.097,0.368,0.281c0.107,0.149,0.074,0.356-0.073,0.465C117.226,138.569,117.159,138.591,117.093,138.591z"/>
		</g>
	</g>
</g>
<g>
	<path fill="#49BDFF" d="M68.861,69.112c0.519-1.8,1.01-4.415,3.904-5.331L71.948,74.27C69.034,73.366,68.861,72.322,68.861,69.112z
		"/>
</g>
<g>
	<path fill="#49BDFF" d="M113.928,68.431c0-3.199-2.192-5.905-4.487-6.822l-0.026,13.653
		C111.723,74.358,113.928,71.641,113.928,68.431"/>
</g>
<g>
	<path fill="#49BDFF" d="M71.948,67.208v-0.243c0,0,2.944-9.162,18.996-10.097c16.052-0.933,18.814,11.521,18.814,11.521v-0.826
		c0,0-1.966-15.623-15.997-16.229C75.854,50.558,71.948,67.208,71.948,67.208z"/>
</g>
<g>
	<path fill="#2C1A4D" d="M109.759,69.217c-0.457,0-0.827-0.371-0.827-0.829c0-6.77-9.065-10.312-18.02-10.312h-0.185
		c-0.458,0-0.828-0.371-0.828-0.828s0.37-0.829,0.828-0.829h0.185c5.038,0,9.766,1.026,13.317,2.89
		c4.159,2.185,6.359,5.325,6.359,9.079C110.588,68.846,110.218,69.217,109.759,69.217z"/>
</g>
<g>
	<path fill="#2C1A4D" d="M72.764,76.092c-0.081,0-0.164-0.012-0.246-0.038c-3.357-1.042-5.612-4.106-5.612-7.623
		c0-3.498,2.24-6.556,5.572-7.612c0.435-0.138,0.9,0.104,1.039,0.54c0.139,0.436-0.104,0.902-0.539,1.041
		c-2.641,0.835-4.415,3.259-4.415,6.031c0,2.787,1.787,5.214,4.447,6.041c0.437,0.136,0.68,0.6,0.544,1.037
		C73.445,75.864,73.117,76.092,72.764,76.092z"/>
</g>
<g>
	<path fill="#2C1A4D" d="M108.45,76.074c-0.357,0-0.688-0.237-0.794-0.599c-0.127-0.44,0.126-0.899,0.566-1.026
		c2.674-0.774,4.508-3.166,4.562-5.953c0.053-2.771-1.674-5.229-4.296-6.116c-0.434-0.147-0.667-0.617-0.52-1.05
		c0.146-0.434,0.615-0.667,1.05-0.52c3.31,1.12,5.49,4.222,5.423,7.718c-0.07,3.517-2.385,6.536-5.759,7.512
		C108.606,76.063,108.527,76.074,108.45,76.074z"/>
</g>
<g>
	<path fill="#2C1A4D" d="M71.948,69.13c-0.458,0-0.829-0.371-0.829-0.829c0-3.749,2.238-6.875,6.474-9.04
		c3.585-1.833,8.35-2.842,13.415-2.842h0.185c0.457,0,0.83,0.371,0.83,0.829s-0.373,0.828-0.83,0.828h-0.185
		c-9.061,0-18.232,3.512-18.232,10.226C72.776,68.759,72.406,69.13,71.948,69.13z"/>
</g>
<g>
	<path fill="#2C1A4D" d="M86.999,54.62c-0.366,0-0.663-0.297-0.663-0.663v-4.01c0-0.366,0.297-0.663,0.663-0.663
		c0.366,0,0.663,0.297,0.663,0.663v4.01C87.662,54.323,87.365,54.62,86.999,54.62z"/>
</g>
<g>
	<path fill="#2C1A4D" d="M94.285,54.62c-0.366,0-0.663-0.297-0.663-0.663v-4.01c0-0.366,0.297-0.663,0.663-0.663
		s0.663,0.297,0.663,0.663v4.01C94.948,54.323,94.651,54.62,94.285,54.62z"/>
</g>
<g>
	<rect x="110.932" y="57.35" fill="#2C1A4D" width="1.325" height="6.431"/>
</g>
<g>
	<path fill="#FE2C63" d="M113.344,56.197c0,0.966-0.781,1.748-1.749,1.748l0,0c-0.967,0-1.746-0.782-1.746-1.748l0,0
		c0-0.966,0.779-1.748,1.746-1.748l0,0C112.562,54.449,113.344,55.231,113.344,56.197L113.344,56.197z"/>
	<path fill="#2C1A4D" d="M111.594,58.541c-1.292,0-2.345-1.052-2.345-2.344c0-1.293,1.053-2.345,2.345-2.345
		c1.293,0,2.347,1.052,2.347,2.345C113.941,57.49,112.887,58.541,111.594,58.541z M111.594,55.045c-0.635,0-1.149,0.517-1.149,1.152
		s0.515,1.151,1.149,1.151c0.636,0,1.152-0.517,1.152-1.151S112.23,55.045,111.594,55.045z"/>
</g>
<g>
	<g>
		<path fill="#FFCD5E" d="M95.039,83.466v3.307c0,0-4.763,1.291-8.201,0v-3.307"/>
		<path fill="#2C1A4D" d="M90.504,88.011c-1.286,0-2.664-0.154-3.9-0.618l-0.429-0.162v-3.766h1.325v2.832
			c2.52,0.759,5.681,0.209,6.878-0.05v-2.782h1.324v3.814l-0.489,0.133C95.08,87.449,92.961,88.011,90.504,88.011z"/>
	</g>
	<g>
		<path fill="#2C1A4D" d="M105.577,66.898c-0.089-0.332-0.239-0.666-0.483-1.029c-1.308-1.955-3.721-3.261-6.294-3.411
			c-2.075-0.12-2.919,0.499-3.207,0.807c-2.16-0.934-4.654-0.95-4.773-0.95s-2.612,0.016-4.774,0.944
			c-0.286-0.309-1.139-0.928-3.208-0.81c-2.57,0.152-4.985,1.466-6.292,3.414c-0.246,0.371-0.402,0.695-0.483,1.028
			c-0.101,0.396-0.093,0.798-0.084,1.102c0.045,2.518,0.306,5.396,1.875,7.741c0.507,0.755,1.114,1.159,1.757,1.159
			c0.071,0,0.142-0.011,0.221-0.018c0.594-0.088,0.997-0.492,1.284-0.872c0.388,1.235,1.133,2.945,2.556,4.933
			c0.214,0.259,0.392,0.636,0.855,1.1c1.273,1.513,2.622,2.36,4.008,2.495c0.133,0.014,0.268,0.022,0.401,0.022
			c0.833,0,1.489-0.267,1.885-0.481c0.46,0.251,1.259,0.569,2.279,0.465c1.387-0.142,2.731-0.98,4.007-2.493
			c0.021,0.009,0.89-1.096,0.863-1.108c1.432-1.988,2.167-3.697,2.558-4.933c0.291,0.38,0.688,0.784,1.28,0.872
			c0.072,0.007,0.145,0.018,0.224,0.018c0.631,0,1.249-0.404,1.756-1.159c1.562-2.345,1.821-5.223,1.876-7.741
			C105.672,67.683,105.68,67.294,105.577,66.898z M81.614,71.703c-0.056,0.246-0.128,0.491-0.2,0.737
			c-0.032,0.103-0.063,0.204-0.102,0.308c-0.033,0.096-0.071,0.19-0.111,0.285c-0.119,0.293-0.245,0.585-0.397,0.878l-0.095,0.192
			c-0.181,0.333-0.378,0.656-0.594,0.965c-0.205,0.302-0.364,0.452-0.483,0.467c-0.159,0.033-0.418-0.197-0.656-0.554
			c-1.371-2.049-1.6-4.701-1.647-7.021c-0.008-0.292-0.008-0.531,0.047-0.744c0.047-0.183,0.142-0.372,0.3-0.609
			c1.079-1.617,3.09-2.692,5.249-2.818c0.16-0.008,0.3-0.018,0.444-0.018c0.309,0,0.563,0.024,0.778,0.057
			c-0.023,0.014-0.041,0.046-0.064,0.063l-0.143,0.14c-0.024,0.025-0.047,0.057-0.079,0.087c-0.166,0.167-0.324,0.334-0.468,0.523
			c-0.014,0.024-0.033,0.05-0.046,0.063c-0.16,0.214-0.301,0.437-0.427,0.674c-0.017,0.03-0.031,0.063-0.048,0.093
			c-0.118,0.232-0.238,0.468-0.333,0.729c-0.111,0.3-0.214,0.61-0.284,0.925c-0.189,0.825-0.28,1.658-0.356,2.458
			C81.825,70.319,81.756,71.024,81.614,71.703z M96.371,80.824c-1.127,1.449-2.266,2.241-3.376,2.366
			c-0.696,0.072-1.218-0.134-1.503-0.285v-1.796c1.165-0.452,2.029-1.94,2.029-2.564c0-0.746-1.213-1.354-2.701-1.354
			c-1.488,0-2.701,0.601-2.701,1.354c0,0.632,0.865,2.113,2.027,2.564v1.796c-0.285,0.16-0.807,0.366-1.5,0.285
			c-1.12-0.125-2.251-0.917-3.376-2.366c-2.366-3.042-2.998-5.415-3.173-6.459c0-0.01,0.007-0.018,0.007-0.023
			c0.088-0.176,0.168-0.358,0.246-0.532c0.097-0.213,0.174-0.436,0.252-0.656c0.034-0.096,0.064-0.183,0.09-0.278
			c0.087-0.285,0.174-0.578,0.235-0.864c0.167-0.76,0.239-1.536,0.309-2.28c0.081-0.792,0.153-1.543,0.326-2.28
			c0.055-0.221,0.118-0.426,0.189-0.63c0.018-0.042,0.032-0.073,0.04-0.113c0.064-0.174,0.134-0.34,0.214-0.5
			c0.018-0.022,0.023-0.048,0.04-0.069c0.095-0.185,0.191-0.349,0.3-0.508c0.12-0.167,0.247-0.325,0.373-0.467l0.941-0.175
			l0.111-0.071c1.963-1.233,5.02-1.258,5.051-1.258s3.08,0.017,5.052,1.25l0.112,0.07l0.94,0.175
			c0.259,0.277,0.482,0.61,0.679,0.984c0.011,0.021,0.026,0.047,0.033,0.069c0.079,0.16,0.149,0.333,0.213,0.507
			c0.019,0.04,0.032,0.07,0.042,0.111c0.07,0.205,0.134,0.418,0.188,0.634c0.173,0.736,0.245,1.487,0.325,2.277
			c0.07,0.747,0.151,1.514,0.306,2.282c0.065,0.286,0.144,0.571,0.232,0.863c0.031,0.096,0.055,0.19,0.086,0.278
			c0.079,0.221,0.157,0.436,0.255,0.649c0.078,0.183,0.156,0.356,0.246,0.538c0,0.008,0.008,0.018,0.008,0.018
			C99.37,75.409,98.735,77.776,96.371,80.824z M102.661,74.98c-0.237,0.357-0.506,0.581-0.654,0.554
			c-0.112-0.015-0.271-0.165-0.478-0.442c-0.219-0.31-0.411-0.634-0.592-0.967l-0.097-0.189c-0.151-0.301-0.285-0.594-0.403-0.895
			c-0.03-0.088-0.069-0.173-0.104-0.271c-0.039-0.102-0.069-0.212-0.102-0.316c-0.07-0.247-0.144-0.482-0.198-0.728
			c-0.152-0.689-0.216-1.385-0.285-2.123c-0.078-0.806-0.157-1.639-0.354-2.461c-0.081-0.322-0.176-0.635-0.287-0.925
			c-0.093-0.263-0.214-0.5-0.332-0.729c-0.015-0.033-0.031-0.062-0.049-0.094c-0.135-0.245-0.275-0.469-0.435-0.681
			c-0.015-0.023-0.031-0.04-0.04-0.063c-0.145-0.19-0.3-0.365-0.467-0.532c-0.021-0.022-0.046-0.054-0.07-0.079l-0.144-0.14
			c-0.021-0.026-0.039-0.049-0.062-0.065c0.3-0.047,0.697-0.071,1.201-0.041c2.162,0.127,4.172,1.212,5.251,2.818
			c0.16,0.239,0.253,0.427,0.302,0.611c0.055,0.205,0.055,0.451,0.047,0.742C104.262,70.288,104.032,72.931,102.661,74.98z"/>
	</g>
	<g>
		<circle fill="#2C1A4D" cx="86.425" cy="72.788" r="1.686"/>
	</g>
	<g>
		<path fill="#2C1A4D" d="M95.203,71.102c0.936,0,1.689,0.754,1.689,1.688c0,0.93-0.754,1.684-1.689,1.684
			c-0.928,0-1.683-0.754-1.683-1.684C93.52,71.856,94.275,71.102,95.203,71.102z"/>
	</g>
</g>
<g>
	<path fill="#A78FE2" d="M89.618,79.651c-0.265,0-0.484-0.208-0.496-0.477c-0.002-0.061-0.013-0.612,0.431-1.003
		c0.347-0.306,0.846-0.408,1.475-0.3c0.27,0.045,0.452,0.301,0.406,0.572c-0.046,0.271-0.305,0.453-0.572,0.407
		c-0.306-0.052-0.545-0.028-0.651,0.066c-0.089,0.077-0.095,0.215-0.095,0.216c0.012,0.274-0.201,0.506-0.477,0.518
		C89.633,79.651,89.625,79.651,89.618,79.651z"/>
</g>
<g>
	<path fill="#A78FE2" d="M85.612,73.391c-0.005,0-0.01,0-0.016,0c-0.183-0.009-0.322-0.163-0.314-0.346
		c0.019-0.383,0.244-1.111,0.97-1.111c0.183,0,0.332,0.148,0.332,0.331c0,0.184-0.149,0.332-0.332,0.332
		c-0.278,0-0.308,0.475-0.308,0.48C85.934,73.254,85.788,73.391,85.612,73.391z"/>
</g>
<g>
	<path fill="#A78FE2" d="M94.125,73.118c-0.006,0-0.01,0-0.015,0c-0.185-0.009-0.325-0.163-0.316-0.346
		c0.017-0.384,0.242-1.11,0.971-1.11c0.184,0,0.33,0.148,0.33,0.331s-0.146,0.331-0.33,0.331c-0.279,0-0.311,0.473-0.311,0.478
		C94.447,72.98,94.301,73.118,94.125,73.118z"/>
</g>
<g>
	<g>
		<path fill="#FFDB01" d="M23.483,132.782h-3.726c-0.183,0-0.331-0.148-0.331-0.332c0-0.183,0.148-0.331,0.331-0.331h3.726
			c0.183,0,0.332,0.148,0.332,0.331C23.815,132.634,23.666,132.782,23.483,132.782z"/>
	</g>
	<g>
		<path fill="#FFDB01" d="M21.62,134.644c-0.184,0-0.331-0.148-0.331-0.331v-3.725c0-0.184,0.147-0.332,0.331-0.332
			c0.183,0,0.332,0.148,0.332,0.332v3.725C21.952,134.495,21.803,134.644,21.62,134.644z"/>
	</g>
</g>
<g>
	<g>
		<g>
			<path fill="#2C1A4D" d="M48.853,173.91c-0.032,0-0.065-0.004-0.097-0.015c-0.174-0.053-0.273-0.239-0.22-0.414l2.161-6.981
				c0.054-0.176,0.238-0.276,0.414-0.219c0.174,0.054,0.272,0.238,0.219,0.413l-2.16,6.983
				C49.126,173.82,48.995,173.91,48.853,173.91z"/>
		</g>
		<g>
			<path fill="#2C1A4D" d="M47.565,169.221c-0.844,0-1.531-0.686-1.531-1.529c0-0.845,0.687-1.532,1.531-1.532
				s1.529,0.688,1.529,1.532C49.094,168.535,48.409,169.221,47.565,169.221z M47.565,166.823c-0.479,0-0.869,0.389-0.869,0.868
				c0,0.478,0.389,0.866,0.869,0.866c0.477,0,0.867-0.389,0.867-0.866C48.432,167.212,48.042,166.823,47.565,166.823z"/>
		</g>
		<g>
			<path fill="#2C1A4D" d="M52.356,173.681c-0.844,0-1.531-0.687-1.531-1.531s0.687-1.528,1.531-1.528s1.531,0.684,1.531,1.528
				S53.2,173.681,52.356,173.681z M52.356,171.282c-0.479,0-0.869,0.391-0.869,0.867c0,0.479,0.389,0.869,0.869,0.869
				s0.868-0.39,0.868-0.869C53.224,171.673,52.836,171.282,52.356,171.282z"/>
		</g>
	</g>
</g>
<g>
	<g>
		<path fill="#2C1A4D" d="M99.977,133.302c-0.085,0-0.169-0.032-0.233-0.096c-0.13-0.13-0.13-0.341,0-0.47l2.931-2.93
			c0.129-0.131,0.338-0.131,0.468,0c0.13,0.129,0.13,0.338,0,0.468l-2.931,2.932C100.147,133.27,100.063,133.302,99.977,133.302z"/>
	</g>
	<g>
		<path fill="#2C1A4D" d="M101.983,133.838c-0.146,0-0.279-0.097-0.318-0.245l-1.083-4c-0.049-0.178,0.058-0.359,0.233-0.407
			c0.179-0.046,0.358,0.058,0.406,0.232l1.082,4.002c0.049,0.176-0.056,0.357-0.232,0.407
			C102.041,133.834,102.013,133.838,101.983,133.838z"/>
	</g>
	<g>
		<path fill="#2C1A4D" d="M103.481,132.214c-0.021,0-0.041-0.004-0.062-0.007l-4.074-0.751c-0.181-0.034-0.299-0.205-0.266-0.386
			c0.033-0.182,0.203-0.299,0.387-0.266l4.074,0.751c0.182,0.034,0.3,0.207,0.267,0.386
			C103.777,132.102,103.638,132.214,103.481,132.214z"/>
	</g>
</g>
<g>
	<g>
		<path fill="#2C1A4D" d="M93.351,145.217c-0.174,0-0.318-0.135-0.33-0.311c-0.012-0.182,0.128-0.34,0.311-0.35l3.904-0.239
			c0.184-0.019,0.341,0.128,0.352,0.31c0.01,0.184-0.128,0.34-0.312,0.352l-3.903,0.238
			C93.366,145.217,93.358,145.217,93.351,145.217z"/>
	</g>
	<g>
		<path fill="#2C1A4D" d="M93.193,142.647c-0.175,0-0.32-0.136-0.33-0.312c-0.012-0.184,0.127-0.339,0.31-0.351l3.904-0.24
			c0.18-0.018,0.339,0.129,0.353,0.312c0.01,0.182-0.128,0.339-0.312,0.35l-3.904,0.24C93.206,142.647,93.2,142.647,93.193,142.647z
			"/>
	</g>
</g>
<g>
	<g>
		<path fill="#2C1A4D" d="M125.119,173.282c-0.586,0-1.061-0.477-1.061-1.061c0-0.585,0.475-1.062,1.061-1.062
			s1.062,0.477,1.062,1.062C126.18,172.806,125.705,173.282,125.119,173.282z M125.119,171.823c-0.22,0-0.398,0.179-0.398,0.399
			c0,0.22,0.179,0.397,0.398,0.397c0.222,0,0.398-0.178,0.398-0.397C125.517,172.001,125.341,171.823,125.119,171.823z"/>
	</g>
	<g>
		<path fill="#2C1A4D" d="M125.119,177.167c-0.586,0-1.061-0.476-1.061-1.061c0-0.587,0.475-1.063,1.061-1.063
			s1.062,0.477,1.062,1.063C126.18,176.692,125.705,177.167,125.119,177.167z M125.119,175.706c-0.22,0-0.398,0.178-0.398,0.4
			c0,0.22,0.179,0.399,0.398,0.399c0.222,0,0.398-0.18,0.398-0.399C125.517,175.884,125.341,175.706,125.119,175.706z"/>
	</g>
	<g>
		<g>
			<g>
				<path fill="#2C1A4D" d="M127.112,174.494h-3.984c-0.184,0-0.333-0.147-0.333-0.331c0-0.185,0.149-0.331,0.333-0.331h3.984
					c0.184,0,0.33,0.146,0.33,0.331C127.442,174.347,127.296,174.494,127.112,174.494z"/>
			</g>
		</g>
	</g>
</g>
<g>
	<g>
		<g>
			<path fill="#2C1A4D" d="M154.246,177.813l-13.86-0.005c-0.577,0-1.054-0.247-1.31-0.681c-0.262-0.441-0.244-0.995,0.044-1.52
				l5.584-10.144c0.221-0.401,0.728-0.546,1.125-0.325c0.401,0.22,0.547,0.724,0.327,1.124l-5.443,9.886l13.199,0.008l-5.434-9.894
				c-0.221-0.401-0.075-0.906,0.326-1.125c0.402-0.22,0.906-0.074,1.127,0.326l5.579,10.146c0.287,0.526,0.303,1.082,0.041,1.522
				C155.296,177.566,154.819,177.813,154.246,177.813z"/>
		</g>
		<g>
			<path fill="#2C1A4D" d="M149.205,166.693c0,0,0,0-0.002,0c-0.457,0-0.827-0.371-0.827-0.83l0.003-4.541
				c0-0.456,0.371-0.828,0.828-0.828l0,0c0.457,0,0.827,0.372,0.827,0.829l-0.002,4.541
				C150.032,166.322,149.662,166.693,149.205,166.693z"/>
		</g>
		<g>
			<path fill="#2C1A4D" d="M145.43,166.693L145.43,166.693c-0.457,0-0.83-0.371-0.83-0.829l0.002-4.544
				c0-0.457,0.372-0.828,0.829-0.828l0,0c0.458,0,0.827,0.371,0.827,0.828l-0.001,4.544
				C146.258,166.322,145.887,166.693,145.43,166.693z"/>
		</g>
		<g>
			<path fill="#2C1A4D" d="M151.541,169.967h-8.305c-0.273,0-0.496-0.223-0.496-0.497s0.223-0.497,0.496-0.497h8.305
				c0.275,0,0.497,0.223,0.497,0.497S151.816,169.967,151.541,169.967z"/>
		</g>
		<g>
			<path fill="#2C1A4D" d="M150.856,162.06L150.856,162.06l-7.04-0.001c-0.458,0-0.829-0.372-0.829-0.83
				c0-0.457,0.371-0.828,0.829-0.828l0,0l7.04,0.001c0.458,0,0.829,0.371,0.829,0.829
				C151.685,161.688,151.314,162.06,150.856,162.06z"/>
		</g>
	</g>
	<g>
		<g>
			<path fill="#2C1A4D" d="M147.161,158.95L147.161,158.95c-0.528-0.002-0.7-0.623-0.764-0.879l-1.324-3.147
				c-0.351-0.159-0.665-0.389-0.925-0.678c-1.347-0.402-2.275-1.638-2.273-3.057c0-1.759,1.433-3.19,3.193-3.19
				c0.214,0,0.425,0.021,0.628,0.063c0.495-0.542,1.199-0.857,1.94-0.857c1.104,0,2.067,0.678,2.451,1.685
				c0.475,0.072,0.911,0.294,1.254,0.639c0.43,0.428,0.664,0.996,0.664,1.601c0,1.125-0.831,2.064-1.911,2.234
				c-0.207,0.494-0.591,0.895-1.078,1.126l-1.088,3.571C147.88,158.26,147.717,158.95,147.161,158.95z M145.068,148.928
				c-1.25,0-2.266,1.015-2.266,2.262c-0.001,1.043,0.705,1.945,1.719,2.196l0.153,0.038l0.098,0.123
				c0.215,0.267,0.494,0.469,0.812,0.586l0.189,0.068l1.369,3.248l1.119-3.669l0.225-0.075c0.407-0.141,0.71-0.472,0.814-0.891
				l0.085-0.351l0.362-0.001c0.731-0.003,1.327-0.602,1.327-1.335c0.001-0.356-0.137-0.692-0.389-0.945
				c-0.254-0.252-0.59-0.392-0.947-0.393h-0.365l-0.086-0.354c-0.183-0.768-0.864-1.303-1.652-1.303c-0.55,0-1.069,0.269-1.389,0.72
				l-0.196,0.278l-0.323-0.104C145.52,148.961,145.297,148.928,145.068,148.928z"/>
		</g>
		<g>
			<path fill="#FFFFFF" d="M144.966,152.444c-0.274,0-0.498-0.223-0.498-0.497c0-1.088,0.887-1.974,1.978-1.977h0.001
				c0.274,0,0.497,0.223,0.498,0.497c0,0.274-0.223,0.497-0.498,0.497c-0.542,0.001-0.984,0.442-0.984,0.982
				C145.462,152.221,145.24,152.444,144.966,152.444z"/>
		</g>
	</g>
	<g>
		<g>
			<path fill="#FFDB01" d="M144.435,144.556c-0.012,0.579-0.492,1.036-1.073,1.022c-0.578-0.014-1.036-0.493-1.023-1.071
				c0.015-0.581,0.494-1.039,1.074-1.023C143.99,143.496,144.451,143.976,144.435,144.556z"/>
		</g>
		<g>
			<path fill="#2C1A4D" d="M143.389,145.909h-0.035c-0.367-0.009-0.711-0.16-0.965-0.427c-0.255-0.267-0.391-0.614-0.383-0.983
				c0.02-0.756,0.625-1.348,1.379-1.348c0.404,0.008,0.748,0.159,1.001,0.427c0.255,0.267,0.39,0.617,0.379,0.986
				C144.752,145.306,144.134,145.909,143.389,145.909z M143.405,143.814c-0.412,0-0.726,0.308-0.734,0.701
				c-0.005,0.19,0.065,0.372,0.199,0.511c0.131,0.138,0.31,0.218,0.5,0.223l0.02,0.33v-0.33c0.385,0,0.705-0.312,0.714-0.699
				c0.005-0.193-0.064-0.374-0.196-0.515C143.774,143.898,143.597,143.82,143.405,143.814L143.405,143.814z"/>
		</g>
	</g>
</g>
<g>
	<path fill="#2C1A4D" d="M16.508,147.514c-0.166,0-0.326-0.088-0.409-0.243c-3.693-6.833-6.417-14.14-8.095-21.717
		c-0.055-0.25,0.103-0.497,0.353-0.553c0.247-0.054,0.499,0.103,0.553,0.353c1.658,7.493,4.352,14.719,8.005,21.477
		c0.122,0.225,0.038,0.506-0.188,0.628C16.658,147.496,16.582,147.514,16.508,147.514z"/>
</g>
<g>
	<path fill="#2C1A4D" d="M53.411,183.004c-0.069,0-0.138-0.015-0.205-0.047c-9.894-4.857-18.635-11.515-25.979-19.789
		c-0.17-0.191-0.152-0.485,0.039-0.654c0.193-0.172,0.485-0.152,0.656,0.038c7.261,8.185,15.907,14.769,25.693,19.573
		c0.23,0.112,0.325,0.39,0.212,0.62C53.748,182.91,53.582,183.004,53.411,183.004z"/>
</g>
<g>
	<path fill="#2C1A4D" d="M90.282,191.53c-5.313,0-10.627-0.497-15.797-1.478c-0.252-0.05-0.418-0.292-0.369-0.544
		c0.047-0.251,0.29-0.418,0.542-0.368c5.114,0.971,10.37,1.462,15.625,1.462c15.762,0,31.107-4.421,44.38-12.785
		c0.217-0.139,0.504-0.071,0.64,0.145c0.138,0.217,0.071,0.503-0.146,0.639C121.736,187.058,106.219,191.53,90.282,191.53z"/>
</g>
<g>
	<path fill="#2C1A4D" d="M156.235,159.435c-0.1,0-0.199-0.032-0.286-0.1c-0.201-0.158-0.235-0.449-0.078-0.651
		c7.656-9.752,13.112-21.275,15.782-33.327c0.055-0.251,0.308-0.405,0.553-0.354c0.25,0.057,0.408,0.305,0.353,0.554
		c-2.698,12.187-8.217,23.841-15.957,33.701C156.509,159.374,156.373,159.435,156.235,159.435z"/>
</g>
<g>
	<path fill="#2C1A4D" d="M146.827,140.006c-0.085,0-0.172-0.023-0.25-0.074c-0.215-0.139-0.276-0.425-0.137-0.641
		c2.947-4.57,5.092-9.484,6.374-14.611c0.061-0.249,0.312-0.4,0.562-0.337c0.248,0.062,0.4,0.313,0.338,0.562
		c-1.306,5.225-3.491,10.234-6.495,14.891C147.131,139.932,146.981,140.006,146.827,140.006z"/>
</g>
<g>
	<path fill="#2C1A4D" d="M30.319,131.927c-0.183,0-0.356-0.107-0.429-0.287c-0.903-2.187-1.65-4.451-2.221-6.735
		c-0.062-0.248,0.088-0.499,0.337-0.562c0.246-0.062,0.5,0.088,0.562,0.337c0.561,2.24,1.294,4.462,2.179,6.604
		c0.097,0.238-0.017,0.51-0.252,0.608C30.437,131.915,30.377,131.927,30.319,131.927z"/>
</g>
<g>
	<path fill="#2C1A4D" d="M90.282,172.973c-17.906,0-34.641-7.072-47.124-19.912c-0.178-0.185-0.175-0.478,0.009-0.657
		c0.184-0.179,0.477-0.173,0.655,0.009c12.306,12.66,28.806,19.633,46.459,19.633c0.257,0,0.464,0.208,0.464,0.464
		C90.746,172.766,90.539,172.973,90.282,172.973z"/>
</g>
<g>
	<path fill="#2C1A4D" d="M114.754,168.228c-0.184,0-0.357-0.108-0.43-0.289c-0.097-0.237,0.019-0.509,0.255-0.604
		c8.216-3.325,15.555-8.226,21.811-14.565c0.18-0.183,0.474-0.185,0.657-0.004c0.182,0.179,0.183,0.473,0.003,0.656
		c-6.346,6.429-13.789,11.399-22.123,14.773C114.871,168.219,114.812,168.228,114.754,168.228z"/>
</g>
<g>
	<path fill="#2C1A4D" d="M58.482,140.854c-0.117,0-0.232-0.043-0.321-0.13c-4.471-4.324-7.974-9.399-10.42-15.086
		c-0.101-0.236,0.007-0.509,0.243-0.61c0.233-0.1,0.509,0.008,0.61,0.243c2.396,5.573,5.83,10.548,10.211,14.787
		c0.185,0.178,0.188,0.471,0.01,0.654C58.725,140.808,58.603,140.854,58.482,140.854z"/>
</g>
<g>
	<path fill="#2C1A4D" d="M90.53,153.82c-3.133,0-6.263-0.313-9.305-0.931c-0.251-0.052-0.413-0.296-0.361-0.548
		c0.05-0.251,0.297-0.413,0.546-0.362c2.98,0.606,6.049,0.912,9.12,0.912c8.869,0,17.47-2.547,24.869-7.367
		c0.215-0.139,0.502-0.079,0.642,0.136c0.14,0.214,0.079,0.502-0.136,0.643C108.355,151.22,99.58,153.82,90.53,153.82z"/>
</g>
<g>
	<path fill="#2C1A4D" d="M128.214,134.272c-0.093,0-0.186-0.029-0.267-0.086c-0.211-0.147-0.261-0.437-0.112-0.646
		c1.877-2.659,3.473-5.525,4.737-8.518c0.1-0.235,0.372-0.347,0.609-0.247c0.234,0.099,0.345,0.373,0.245,0.608
		c-1.293,3.055-2.918,5.978-4.834,8.69C128.504,134.202,128.359,134.272,128.214,134.272z"/>
</g>
<g>
	<path fill="#2C1A4D" d="M44.792,145.302c-0.118,0-0.229-0.063-0.288-0.17l-0.926-1.644c-0.09-0.159-0.034-0.362,0.126-0.451
		c0.156-0.089,0.36-0.034,0.451,0.128l0.472,0.834l0.809-4.597c0.028-0.158,0.165-0.274,0.326-0.274h4.086
		c0.184,0,0.331,0.148,0.331,0.33c0,0.185-0.147,0.333-0.331,0.333H46.04l-0.921,5.235c-0.024,0.14-0.133,0.246-0.271,0.27
		C44.829,145.3,44.81,145.302,44.792,145.302z"/>
</g>
<g>
	<path fill="#FC639A" d="M138.2,12.331c-0.132,0-0.266-0.039-0.379-0.12c-0.3-0.209-0.372-0.623-0.163-0.923
		c1.074-1.535,2.892-2.203,2.969-2.231c0.343-0.123,0.725,0.054,0.848,0.398c0.125,0.344-0.054,0.723-0.396,0.848l0,0
		c-0.015,0.005-1.506,0.561-2.335,1.745C138.615,12.233,138.409,12.331,138.2,12.331z"/>
</g>
<g>
	<path fill="#FFF2BB" d="M15.58,61.224c-0.351,0-0.643-0.275-0.662-0.629c-0.207-4.075,3.136-5.594,3.278-5.656
		c0.336-0.15,0.725,0.005,0.874,0.339c0.146,0.334-0.005,0.725-0.337,0.873l0,0c-0.109,0.049-2.651,1.232-2.491,4.377
		c0.018,0.366-0.263,0.677-0.629,0.696C15.602,61.224,15.592,61.224,15.58,61.224z"/>
</g>
<g>
	<circle fill="#CE3428" cx="92.223" cy="25.365" r="1.352"/>
</g>
<g>
	<path fill="#CE3428" d="M96.242,21.773c0,0.435-0.354,0.788-0.789,0.788c-0.433,0-0.788-0.353-0.788-0.788
		c0-0.436,0.355-0.789,0.788-0.789C95.888,20.985,96.242,21.337,96.242,21.773z"/>
</g>
<g>
	<circle fill="#CE3428" cx="96.903" cy="27.075" r="0.595"/>
</g>
<g>
	<path fill="#FFF2BB" d="M145.242,174.876c-0.075,0-0.154-0.019-0.227-0.055c-0.244-0.127-0.341-0.427-0.216-0.67l1.041-2.031
		c0.124-0.245,0.424-0.342,0.669-0.217c0.244,0.124,0.34,0.426,0.217,0.669l-1.041,2.033
		C145.596,174.777,145.423,174.876,145.242,174.876z"/>
</g>
<g>
	<path fill="#A4F4B3" d="M99.885,169.365c-0.119,0-0.233-0.066-0.295-0.179c-0.34-0.652-0.884-1.05-1.569-1.554
		c-0.149-0.109-0.181-0.316-0.072-0.464s0.315-0.18,0.462-0.071c0.728,0.533,1.354,0.991,1.769,1.782
		c0.084,0.162,0.021,0.361-0.142,0.447C99.989,169.352,99.936,169.365,99.885,169.365z"/>
</g>
<g>
	<path fill="#A4F4B3" d="M105.178,167.564c-0.075,0-0.146-0.024-0.208-0.075c-0.143-0.116-0.165-0.322-0.049-0.466
		c0.569-0.7,1.061-1.307,1.869-1.679c0.165-0.074,0.362-0.003,0.439,0.164c0.076,0.165,0.004,0.361-0.163,0.438
		c-0.667,0.309-1.093,0.832-1.632,1.494C105.369,167.521,105.275,167.564,105.178,167.564z"/>
</g>
<g>
	<circle fill="#FF6B06" cx="93.465" cy="80.588" r="0.296"/>
</g>
<g>
	<circle fill="#FF6B06" cx="92.872" cy="81.933" r="0.296"/>
</g>
<g>
	<circle fill="#FFA506" cx="95.061" cy="80.069" r="0.296"/>
</g>
<g>
	<circle fill="#FF6B06" cx="94.444" cy="81.726" r="0.297"/>
</g>
<g>
	<circle fill="#FF6B06" cx="88.093" cy="80.588" r="0.297"/>
</g>
<g>
	<circle fill="#FF6B06" cx="87.204" cy="81.726" r="0.296"/>
</g>
<g>
	<circle fill="#FF6B06" cx="89.073" cy="81.726" r="0.296"/>
</g>
<g>
	<circle fill="#FFA506" cx="86.252" cy="80.194" r="0.297"/>
</g>
<g>
	<path fill="#2C1A4D" d="M90.831,88.1c-10.869,0-19.711-8.844-19.711-19.713c0-10.869,8.843-19.711,19.711-19.711
		c10.87,0,19.713,8.843,19.713,19.711C110.544,79.256,101.701,88.1,90.831,88.1z M90.831,50.333
		c-9.955,0-18.055,8.099-18.055,18.054c0,9.956,8.1,18.056,18.055,18.056s18.055-8.1,18.055-18.056
		C108.885,58.432,100.786,50.333,90.831,50.333z"/>
</g>
<g opacity="0.5">
	<g>
		<path fill="#FFFFFF" d="M74.515,68.494c-0.367,0-0.663-0.296-0.663-0.662c0-2.188,1.273-4.131,3.685-5.62
			c0.312-0.191,0.72-0.095,0.912,0.216c0.192,0.311,0.096,0.72-0.215,0.912c-2.028,1.252-3.058,2.763-3.058,4.492
			C75.177,68.198,74.881,68.494,74.515,68.494z"/>
	</g>
	<g>
		<path fill="#FFFFFF" d="M79.833,62.449c-0.259,0-0.505-0.153-0.609-0.406c-0.143-0.338,0.016-0.726,0.353-0.868
			c2.719-1.139,5.875-1.79,9.653-1.99c1.003-0.054,3.603-0.132,6.079,0.264c0.363,0.058,0.608,0.398,0.551,0.759
			c-0.057,0.361-0.398,0.606-0.758,0.549c-2.42-0.387-5.052-0.287-5.802-0.249c-3.623,0.191-6.635,0.809-9.211,1.889
			C80.006,62.433,79.919,62.449,79.833,62.449z"/>
	</g>
</g>
<g opacity="0.5">
	<path fill="#FFFFFF" d="M98.09,83.723c-0.236,0-0.462-0.125-0.582-0.347c-0.177-0.322-0.057-0.724,0.265-0.898
		c2.472-1.343,4.083-2.896,4.824-3.701c0.248-0.271,0.669-0.287,0.937-0.039c0.269,0.247,0.287,0.667,0.039,0.936
		c-0.973,1.059-2.659,2.605-5.167,3.968C98.304,83.697,98.196,83.723,98.09,83.723z"/>
</g>
<g>
	<path fill="#2C1A4D" d="M142.874,130.404h-0.063l0,0h-4.729h-0.472c-0.456,0-0.818,0.045-1.163,0.146
		c-0.214,0.063-0.423,0.148-0.639,0.269l-0.066,0.027c-0.128,0.053-0.187,0.198-0.135,0.325l0.001,0.001
		c0.03,0.071,0.09,0.117,0.157,0.14c0.054,0.017,0.113,0.019,0.168-0.005l0.084-0.037c0.251-0.14,0.466-0.232,0.688-0.288
		c0.193-0.049,0.396-0.076,0.651-0.083v5.637c0,0.021,0.009,0.027,0.012,0.042v0.104c0.001,0.147,0.117,0.264,0.266,0.264l0,0
		c0.145,0,0.264-0.116,0.264-0.264v-0.126c0-0.009,0.005-0.011,0.005-0.02v-5.637h1.802h1.686v0.008v3.824v0.315
		c0,0.507,0.043,0.877,0.165,1.238l0.244,0.502c0.032,0.067,0.088,0.114,0.152,0.134c0.064,0.022,0.136,0.021,0.201-0.01h0.001
		c0.057-0.028,0.096-0.075,0.121-0.131c0.031-0.067,0.035-0.147,0-0.221l-0.042-0.089c-0.055-0.096-0.104-0.192-0.139-0.286
		c-0.122-0.315-0.159-0.637-0.159-1.111v-4.167l0.94-0.002c0.137,0,0.248-0.112,0.248-0.25
		C143.122,130.515,143.01,130.404,142.874,130.404z"/>
</g>
</svg>
