<?xml version="1.0" encoding="utf-8"?>
<!-- Generator: Adobe Illustrator 16.0.0, SVG Export Plug-In . SVG Version: 6.00 Build 0)  -->
<!DOCTYPE svg PUBLIC "-//W3C//DTD SVG 1.1//EN" "http://www.w3.org/Graphics/SVG/1.1/DTD/svg11.dtd">
<svg version="1.1" id="Layer_1" xmlns="http://www.w3.org/2000/svg" xmlns:xlink="http://www.w3.org/1999/xlink" x="0px" y="0px"
	 width="20.872px" height="20.968px" viewBox="213.827 211.721 20.872 20.968"
	 enable-background="new 213.827 211.721 20.872 20.968" xml:space="preserve">
<path fill="#343B72" d="M234.366,230.765l-5.853-5.908c1.103-1.413,1.661-3.077,1.661-4.948c0-2.254-0.809-4.207-2.403-5.803
	c-1.578-1.582-3.52-2.384-5.771-2.384c-2.25,0.001-4.2,0.803-5.795,2.385c-1.578,1.597-2.377,3.549-2.378,5.802
	c0,2.256,0.801,4.201,2.379,5.781c1.594,1.598,3.543,2.407,5.797,2.407c1.863,0,3.518-0.555,4.923-1.65l5.852,5.907
	c0.222,0.223,0.491,0.335,0.799,0.335c0.306,0,0.58-0.117,0.785-0.331c0.224-0.216,0.338-0.482,0.338-0.793
	C234.698,231.26,234.583,230.983,234.366,230.765z M226.171,224.124c-1.143,1.144-2.546,1.725-4.171,1.725
	c-1.633,0-3.048-0.588-4.206-1.749c-1.143-1.145-1.723-2.555-1.722-4.191c0-1.637,0.579-3.056,1.721-4.213
	c1.158-1.146,2.571-1.727,4.201-1.727h0.008c1.632,0,3.039,0.581,4.181,1.725c1.158,1.16,1.746,2.578,1.746,4.214
	C227.929,221.537,227.349,222.943,226.171,224.124z"/>
</svg>
