<?xml version="1.0" encoding="utf-8"?>
<!-- Generator: Adobe Illustrator 16.0.0, SVG Export Plug-In . SVG Version: 6.00 Build 0)  -->
<!DOCTYPE svg PUBLIC "-//W3C//DTD SVG 1.1//EN" "http://www.w3.org/Graphics/SVG/1.1/DTD/svg11.dtd">
<svg version="1.1" id="Layer_1" xmlns="http://www.w3.org/2000/svg" xmlns:xlink="http://www.w3.org/1999/xlink" x="0px" y="0px"
	 width="21px" height="21px" viewBox="0 0 21 21" enable-background="new 0 0 21 21" xml:space="preserve">
<g>
	<path fill="none" d="M12.456,3.954c-1.152-1.154-2.57-1.74-4.214-1.74H8.233c-1.645,0-3.07,0.586-4.238,1.741
		C2.844,5.122,2.259,6.552,2.259,8.203c0,1.649,0.584,3.072,1.737,4.227c1.169,1.171,2.596,1.765,4.241,1.765
		c1.638,0,3.054-0.585,4.207-1.739c1.188-1.19,1.771-2.609,1.771-4.252C14.216,6.553,13.624,5.123,12.456,3.954z"/>
	<path fill="#2C1A4D" d="M20.567,19.095l-5.884-5.938c1.114-1.413,1.679-3.078,1.679-4.953c0-2.239-0.804-4.18-2.39-5.769
		c-1.568-1.57-3.498-2.368-5.735-2.369C6,0.066,4.063,0.863,2.478,2.436C0.909,4.024,0.114,5.965,0.114,8.203
		c0,2.242,0.795,4.175,2.364,5.746C4.062,15.537,6,16.343,8.237,16.343c1.869,0,3.525-0.562,4.929-1.669l5.884,5.94
		c0.214,0.212,0.471,0.32,0.764,0.32c0.294,0,0.549-0.109,0.75-0.318c0.214-0.206,0.322-0.461,0.322-0.756
		C20.886,19.566,20.778,19.309,20.567,19.095z M12.444,12.455c-1.153,1.154-2.569,1.739-4.207,1.739
		c-1.645,0-3.072-0.594-4.241-1.765c-1.153-1.154-1.737-2.577-1.737-4.227c0-1.651,0.585-3.081,1.736-4.248
		C5.163,2.8,6.588,2.214,8.233,2.214h0.009c1.645,0,3.062,0.586,4.214,1.74c1.168,1.169,1.76,2.599,1.76,4.249
		C14.216,9.846,13.632,11.265,12.444,12.455z"/>
</g>
</svg>
