<?xml version="1.0" encoding="utf-8"?>
<!-- Generator: Adobe Illustrator 16.0.0, SVG Export Plug-In . SVG Version: 6.00 Build 0)  -->
<!DOCTYPE svg PUBLIC "-//W3C//DTD SVG 1.1//EN" "http://www.w3.org/Graphics/SVG/1.1/DTD/svg11.dtd">
<svg version="1.1" id="Layer_1" xmlns="http://www.w3.org/2000/svg" xmlns:xlink="http://www.w3.org/1999/xlink" x="0px" y="0px"
	 width="19.41px" height="20.423px" viewBox="480.317 291.388 19.41 20.423" enable-background="new 480.317 291.388 19.41 20.423"
	 xml:space="preserve">
<path fill="#71737F" d="M496.054,304.462c-1.125,0-2.12,0.519-2.795,1.316l-5.694-3.326c0.062-0.269,0.103-0.544,0.103-0.831
	c0-0.328-0.057-0.64-0.138-0.942l5.725-3.262c0.675,0.801,1.673,1.322,2.8,1.322c2.025,0,3.674-1.648,3.674-3.675
	c0-2.026-1.648-3.675-3.674-3.675c-2.027,0-3.676,1.648-3.676,3.675c0,0.325,0.056,0.634,0.136,0.935l-5.728,3.264
	c-0.675-0.797-1.67-1.315-2.794-1.315c-2.026,0-3.675,1.648-3.675,3.674c0,2.027,1.648,3.677,3.675,3.677
	c1.165,0,2.192-0.556,2.866-1.404l5.656,3.304c-0.08,0.302-0.137,0.612-0.137,0.938c0,2.027,1.648,3.676,3.676,3.676
	c2.025,0,3.674-1.648,3.674-3.676C499.728,306.11,498.079,304.462,496.054,304.462z M496.054,292.988
	c1.144,0,2.074,0.931,2.074,2.075c0,1.145-0.931,2.076-2.074,2.076c-0.71,0-1.337-0.359-1.712-0.905l-0.07-0.123
	c-0.182-0.309-0.294-0.664-0.294-1.048C493.978,293.919,494.909,292.988,496.054,292.988z M483.992,303.698
	c-1.145,0-2.075-0.932-2.075-2.077c0-1.144,0.931-2.075,2.075-2.075c0.707,0,1.331,0.357,1.706,0.898l0.105,0.184
	c0.163,0.296,0.264,0.631,0.264,0.992C486.067,302.767,485.137,303.698,483.992,303.698z M496.054,310.212
	c-1.145,0-2.076-0.932-2.076-2.076c0-0.344,0.093-0.664,0.241-0.95l0.143-0.243c0.377-0.531,0.993-0.881,1.692-0.881
	c1.144,0,2.074,0.931,2.074,2.074C498.128,309.28,497.197,310.212,496.054,310.212z"/>
</svg>
