<?xml version="1.0" encoding="utf-8"?>
<!-- Generator: Adobe Illustrator 16.0.0, SVG Export Plug-In . SVG Version: 6.00 Build 0)  -->
<!DOCTYPE svg PUBLIC "-//W3C//DTD SVG 1.1//EN" "http://www.w3.org/Graphics/SVG/1.1/DTD/svg11.dtd">
<svg version="1.1" id="Layer_1" xmlns="http://www.w3.org/2000/svg" xmlns:xlink="http://www.w3.org/1999/xlink" x="0px" y="0px"
	 width="21px" height="21px" viewBox="0 0 21 21" enable-background="new 0 0 21 21" xml:space="preserve">
<g>
	<path fill="none" d="M5.98,9.646L5.864,9.442C5.521,8.948,4.951,8.623,4.306,8.623c-1.048,0-1.9,0.852-1.9,1.898
		c0,1.048,0.853,1.9,1.9,1.9c1.047,0,1.898-0.853,1.898-1.9C6.204,10.204,6.118,9.909,5.98,9.646z"/>
	<path fill="none" d="M14.904,4.981c0.343,0.498,0.916,0.826,1.565,0.826c1.047,0,1.898-0.852,1.898-1.899s-0.852-1.899-1.898-1.899
		c-1.048,0-1.9,0.852-1.9,1.899c0,0.342,0.098,0.659,0.257,0.936L14.904,4.981z"/>
	<path fill="none" d="M16.469,15.193c-0.638,0-1.201,0.318-1.545,0.802l-0.15,0.256c-0.127,0.254-0.205,0.537-0.205,0.84
		c0,1.048,0.853,1.9,1.9,1.9c1.047,0,1.898-0.853,1.898-1.9C18.367,16.045,17.516,15.193,16.469,15.193z"/>
	<path fill="#2C1A4D" d="M16.469,13.193c-1.135,0-2.149,0.496-2.863,1.271l-5.477-3.198c0.047-0.242,0.075-0.49,0.075-0.745
		c0-0.296-0.04-0.582-0.103-0.859l5.5-3.133c0.713,0.779,1.729,1.277,2.867,1.277c2.149,0,3.898-1.75,3.898-3.899
		s-1.749-3.899-3.898-3.899c-2.151,0-3.9,1.75-3.9,3.899c0,0.293,0.039,0.577,0.1,0.852L7.166,7.894
		c-0.713-0.775-1.727-1.271-2.86-1.271c-2.151,0-3.9,1.749-3.9,3.898c0,2.151,1.75,3.9,3.9,3.9c1.175,0,2.218-0.534,2.933-1.359
		l5.432,3.172c-0.062,0.277-0.102,0.562-0.102,0.857c0,2.15,1.75,3.9,3.9,3.9c2.149,0,3.898-1.75,3.898-3.9
		C20.367,14.942,18.618,13.193,16.469,13.193z M16.469,2.008c1.047,0,1.898,0.852,1.898,1.899s-0.852,1.899-1.898,1.899
		c-0.649,0-1.222-0.328-1.565-0.826l-0.079-0.138c-0.159-0.277-0.257-0.594-0.257-0.936C14.568,2.86,15.421,2.008,16.469,2.008z
		 M4.306,12.422c-1.048,0-1.9-0.853-1.9-1.9c0-1.047,0.853-1.898,1.9-1.898c0.646,0,1.215,0.325,1.558,0.819L5.98,9.646
		c0.138,0.263,0.224,0.558,0.224,0.875C6.204,11.569,5.353,12.422,4.306,12.422z M16.469,18.992c-1.048,0-1.9-0.853-1.9-1.9
		c0-0.303,0.078-0.586,0.205-0.84l0.15-0.256c0.345-0.483,0.907-0.802,1.545-0.802c1.047,0,1.898,0.852,1.898,1.898
		C18.367,18.14,17.516,18.992,16.469,18.992z"/>
</g>
</svg>
