<?xml version="1.0" encoding="utf-8"?>
<!-- Generator: Adobe Illustrator 19.2.0, SVG Export Plug-In . SVG Version: 6.00 Build 0)  -->
<svg version="1.1" id="Isolation_Mode" xmlns="http://www.w3.org/2000/svg" xmlns:xlink="http://www.w3.org/1999/xlink" x="0px"
	 y="0px" viewBox="0 0 710.3 386.2" style="enable-background:new 0 0 710.3 386.2;" xml:space="preserve">
<style type="text/css">
	.st0{fill:#EDEDED;}
</style>
<g>
	<path class="st0" d="M17.7,122.5l-5.1-11.6L0,112.3l7.5-10.2L0,91.9l12.6,1.4l5.1-11.6l5.1,11.6l12.6-1.4l-7.5,10.2l7.5,10.2
		l-12.6-1.4L17.7,122.5z M13.2,109.9l4.5,10.2l4.5-10.2l11.1,1.2l-6.6-9l6.6-9l-11.1,1.2l-4.5-10.2l-4.5,10.2L2.1,93.1l6.6,9l-6.6,9
		L13.2,109.9z"/>
</g>
<g>
	<polygon class="st0" points="95.2,300.5 98.4,307.8 106.4,307 101.6,313.4 106.4,319.9 98.4,319.1 95.2,326.4 91.9,319.1 
		83.9,319.9 88.7,313.4 83.9,307 91.9,307.8 	"/>
</g>
<g>
	<path class="st0" d="M62.9,249.4c-3.5,0-6.3,2.8-6.3,6.3c0,3.5,2.8,6.3,6.3,6.3c3.5,0,6.3-2.8,6.3-6.3
		C69.2,252.2,66.4,249.4,62.9,249.4z"/>
</g>
<g>
	<path class="st0" d="M175,47c6.1,0,11.1-5,11.1-11.1c0-6.1-5-11.1-11.1-11.1c-6.1,0-11.1,5-11.1,11.1C163.8,42,168.8,47,175,47z
		 M175,26.3c5.3,0,9.6,4.3,9.6,9.6c0,5.3-4.3,9.6-9.6,9.6c-5.3,0-9.6-4.3-9.6-9.6C165.4,30.6,169.7,26.3,175,26.3z"/>
</g>
<g>
	<path class="st0" d="M493.1,227.7c-3.5,0-6.3,2.8-6.3,6.3c0,3.5,2.8,6.3,6.3,6.3c3.5,0,6.3-2.8,6.3-6.3
		C499.4,230.6,496.6,227.7,493.1,227.7z"/>
</g>
<g>
	<path class="st0" d="M392.7,319.9l1.6-0.3c24.3-4.5,40.6-14.8,47.1-30c6.5-15.1,2.7-34-10.9-54.6l-0.9-1.4l0.2-1.6
		c3.1-32.7-3.7-65.1-19.8-93.7l-1.7-3.1l2.6-2.5c6.4-6.1,10.4-14,11.7-22.7c3.1-21.3-11.8-41.2-33.2-44.3c-1.8-0.3-3.6-0.4-5.4-0.4
		c-10.5,0-20.7,4.3-28.1,11.8l-2.5,2.6l-3.1-1.8c-6-3.5-11.5-6.3-16.7-8.5c-12.9-5.5-26.5-9.3-40.3-11.3c-7.5-1.1-15-1.6-22.5-1.6
		c-46.4,0-90.6,20.3-121.1,55.6l-1.1,1.2l-1.6,0.3c-24.3,4.4-40.5,14.7-47,29.9c-6.4,15-2.7,33.8,10.8,54.4l0.9,1.4l-0.2,1.6
		c-2.5,25.4,1.2,51.4,10.7,75.2c15.9,39.7,46.3,70.8,85.6,87.6c12.9,5.5,26.3,9.3,40,11.3l0.3,0c7.5,1.1,15,1.6,22.5,1.6
		c46.4,0,90.5-20.2,121-55.5L392.7,319.9z M430,235.4l6,12.2c7.7,15.7,9.1,29.7,4,41.5c-5.1,11.8-16.1,20.5-32.8,25.7l-12.9,4
		l7.7-11.1c6.4-9.2,11.7-18.6,15.8-28.2c4.1-9.7,7.3-20.1,9.5-30.9L430,235.4z M354.3,81.5l1.9-2.4c7.1-7.7,17.2-12,27.5-12
		c1.8,0,3.5,0.1,5.3,0.4c9.9,1.4,18.7,6.6,24.7,14.7c6,8,8.6,17.9,7.1,27.8c-1.4,9.7-6.5,18.4-14.4,24.5c-1.9,1.4-3.9,2.7-6,3.7
		c-0.1,0.1-0.2,0.1-0.4,0.2c-2.2,1.1-4.5,1.9-6.9,2.6c-1.2,0.3-2.3,0.4-3.3,0.6l-0.8,0.1c-0.2,0-0.4,0.1-0.7,0.1l-0.1,0
		c-0.7,0.1-1.5,0.3-2.5,0.4c-0.7,0-1.4,0.1-2.2,0.1c-1.8,0-3.6-0.1-5.4-0.4c-9.9-1.4-18.7-6.6-24.7-14.7c-6-8-8.6-17.9-7.1-27.8
		c0.4-2.4,1-4.5,1.5-6.2c0.3-1,0.6-1.7,0.9-2.4c0.3-0.7,0.6-1.3,0.9-1.9l0.3-0.6C351.4,85.6,352.8,83.4,354.3,81.5z M270.6,58.1
		c7.5,0,15,0.5,22.4,1.6c13.7,2,27.2,5.7,39.9,11.2c4.9,2.1,10,4.6,15.4,7.7l4,2.3l-2.3,4c-1.9,3.2-3.3,6.7-4.2,10.3
		c-0.3,1.2-0.5,2.4-0.7,3.7c-1.5,10.3,1.2,20.6,7.4,29c6.3,8.4,15.4,13.8,25.8,15.3c1.6,0.2,3.4,0.3,5.3,0.3l0.5,0l0.7,0
		c0.2,0,0.3,0,0.5,0c1.8-0.1,3.7-0.3,5.4-0.6c0.3-0.1,0.7-0.1,1.1-0.2c2.1-0.4,3.8-0.9,5.3-1.5c0.1,0,0.2-0.1,0.4-0.1
		c1.6-0.6,3.3-1.4,5.2-2.4c0.2-0.1,0.4-0.2,0.7-0.3l3.9-2.1l2.2,4c23.3,42.5,25.9,94.3,6.9,138.6c-5.8,13.5-13.6,26.3-23.2,38
		l-1.1,1.4l-1.8,0.3c-7.4,1.1-15.6,1.7-24.2,1.7c-38,0-83.2-10.4-127.2-29.2c-12-5.1-24.2-11.1-36.4-17.9l-3.6-2l1.5-3.8
		c1.1-2.6,1.7-4.9,2-7c1.1-7.9-0.9-15.8-5.7-22.2c-4.8-6.4-11.8-10.6-19.7-11.7c-1.4-0.2-2.8-0.3-4.1-0.3c-7.6,0-15,3-20.7,8.4
		l-3,2.9l-3.2-2.7c-13.3-11.4-24-22.9-31.9-34l-1-1.5l0.2-1.8c1.8-14.9,5.7-29.5,11.6-43.2C149.9,95.9,207.1,58.1,270.6,58.1z
		 M172.7,284.5c-1.3,0-2.7-0.1-4-0.3c-7.5-1.1-14.1-5-18.7-11.1c-4.6-6.1-6.5-13.5-5.4-21c2-13.9,14.1-24.4,28.1-24.4
		c1.3,0,2.7,0.1,4,0.3c7.5,1.1,14.1,5,18.7,11.1c4.6,6.1,6.5,13.5,5.4,21C198.8,274,186.8,284.5,172.7,284.5z M111.1,197.8
		l-5.9-12.2c-7.5-15.5-8.9-29.8-3.9-41.4c5-11.8,16.1-20.5,32.8-25.8l12.9-4.1l-7.7,11.1c-6.4,9.2-11.7,18.7-15.8,28.3
		c-4.2,9.9-7.5,20.2-9.7,30.8L111.1,197.8z M381.7,329.5c-29.5,29-70,45.6-111.1,45.6c-7.4,0-14.9-0.5-22.3-1.6l-0.9-0.1
		c-13.4-2-26.5-5.7-39.1-11.1c-38.9-16.6-69-47.4-84.8-86.7c-7.9-19.8-11.8-40.5-11.4-61.7l0.2-12.4l7.9,9.6
		c6.9,8.4,15.4,16.9,25.2,25.3l2.8,2.4l-1.8,3.3c-1.8,3.3-2.9,6.6-3.4,9.9c-2.3,16.3,9.1,31.5,25.4,33.9c1.4,0.2,2.8,0.3,4.2,0.3
		c8.7,0,17-3.9,22.8-10.7l2.4-2.9l3.3,1.8c12.3,6.8,24.7,12.9,37,18.1c31.5,13.5,63.7,22.8,93.2,27c11.8,1.7,23.3,2.6,34,2.6
		c4.3,0,8.6-0.1,12.7-0.4l12.4-0.9L381.7,329.5z"/>
</g>
<g>
	<path class="st0" d="M201.4,308.6c-6.4,0-11.6,5.2-11.6,11.6c0,6.4,5.2,11.6,11.6,11.6c6.4,0,11.6-5.2,11.6-11.6
		C213,313.8,207.8,308.6,201.4,308.6z M201.4,330.2c-5.5,0-10-4.5-10-10c0-5.5,4.5-10,10-10c5.5,0,10,4.5,10,10
		C211.4,325.7,206.9,330.2,201.4,330.2z"/>
</g>
<g>
	<path class="st0" d="M422.7,347.4c-0.9-0.1-1.9-0.2-2.8-0.2c-9.9,0-18.4,7.4-19.8,17.2c-1.6,11.1,5.9,21,16.9,22.6
		c1,0.1,2,0.2,3,0.2c10,0,18.2-7.2,19.6-17.1c0.8-5.3-0.6-10.5-3.8-14.8C432.7,351,428,348.2,422.7,347.4z M438.1,369.8
		c-1.3,9.3-8.8,15.8-18.1,15.8c-0.9,0-1.9-0.1-2.8-0.2c-5-0.7-9.3-3.2-12.2-7.1c-2.9-3.9-4.1-8.8-3.4-13.7c1.3-9,9.1-15.8,18.2-15.8
		c0.9,0,1.7,0.1,2.6,0.2C432.5,350.4,439.6,359.8,438.1,369.8z"/>
</g>
<g>
	<path class="st0" d="M301.2,264.6l0.5,0c3.3,0,6-2.6,6.2-5.9c0.1-1.7-0.4-3.3-1.6-4.6c-1.1-1.3-2.6-2-4.3-2.1l-0.5,0
		c-3.3,0-6,2.6-6.2,5.9c-0.1,1.7,0.4,3.3,1.5,4.6C298,263.7,299.5,264.5,301.2,264.6z"/>
</g>
<g>
	<path class="st0" d="M229.3,153c13.8,0,25.1-11.3,25.1-25.1c0-13.8-11.3-25.1-25.1-25.1c-13.8,0-25.1,11.3-25.1,25.1
		C204.2,141.8,215.5,153,229.3,153z M229.3,104.4c13,0,23.5,10.6,23.5,23.5c0,13-10.6,23.5-23.5,23.5s-23.5-10.6-23.5-23.5
		C205.7,114.9,216.3,104.4,229.3,104.4z"/>
</g>
<g>
	<path class="st0" d="M355.7,267.2l0.9,0c6,0,11.1-4.8,11.5-10.8c0.2-3.1-0.8-6.1-2.8-8.4c-2-2.3-4.8-3.7-7.9-3.9l-0.9,0
		c-6,0-11.1,4.8-11.5,10.8C344.6,261.2,349.4,266.8,355.7,267.2z M346.5,255c0.4-5.3,4.8-9.4,10.3-9.4l0.3,0
		c2.7,0.2,5.1,1.4,6.9,3.4c1.8,2,2.6,4.6,2.5,7.2c-0.4,5.3-4.8,9.4-10,9.4l-0.7,0C350.4,265.3,346.2,260.5,346.5,255z"/>
</g>
<g>
	<path class="st0" d="M670.4,58l-81.1,58l-0.5,0.4c-0.5-8.2-3.6-15.8-8.5-21.9l0.4-0.3L710.3,1.9L709.7,1L580.1,93.4l-0.4,0.3
		c-5.8-6.9-14-11.8-23.3-13.3l0.6-0.4l81.2-58.1l-0.6-0.9l-82.1,58.8l-0.6,0.5c-1.6-0.2-3.2-0.3-4.9-0.3c-21.5,0-39,17.5-39,39
		c0,21.5,17.5,39,39,39c21.5,0,39-17.5,39-39c0-0.4,0-0.8,0-1.2l0.5-0.4L671,58.9L670.4,58z M549.9,155.2c-20,0-36.3-16.3-36.3-36.3
		c0-20,16.3-36.3,36.3-36.3c19.8,0,36,16,36.3,35.7l-0.2,0.1l0.2,0.3c0,0.1,0,0.1,0,0.2C586.2,138.9,569.9,155.2,549.9,155.2z"/>
</g>
<g>
	<path class="st0" d="M538.8,312.2l-13.5-22.5l0.3-0.3l45.8-35.8l16.5,24.6L538.8,312.2z M526.6,290l12.5,20.8l47.4-32.8l-15.3-22.9
		L526.6,290z"/>
</g>
<g>
	<path class="st0" d="M618.7,248.5l-17.1-21.4l33.2-40.6l16.3,15.3L618.7,248.5z M602.9,227.1l15.7,19.7l31.2-45l-14.9-13.9
		L602.9,227.1z"/>
</g>
<g>
	
		<rect x="615.2" y="217.7" transform="matrix(0.7695 -0.6386 0.6386 0.7695 -5.2502 446.302)" class="st0" width="1" height="25.5"/>
</g>
<g>
	
		<rect x="621.8" y="209.4" transform="matrix(0.7346 -0.6785 0.6785 0.7346 14.8035 481.0519)" class="st0" width="1" height="24.3"/>
</g>
<g>
	
		<rect x="627.2" y="202.7" transform="matrix(0.7039 -0.7103 0.7103 0.7039 33.5344 509.327)" class="st0" width="1" height="23.5"/>
</g>
<g>
	
		<rect x="631.9" y="196.7" transform="matrix(0.6548 -0.7558 0.7558 0.6548 61.0466 549.8155)" class="st0" width="1" height="22.7"/>
</g>
<g>
	
		<rect x="637.8" y="190.3" transform="matrix(0.6786 -0.7345 0.7345 0.6786 57.5936 533.423)" class="st0" width="1" height="21.2"/>
</g>
<g>
	<rect x="599.8" y="215.1" transform="matrix(0.6331 -0.774 0.774 0.6331 62.9217 563.968)" class="st0" width="53.2" height="1"/>
</g>
<g>
	
		<rect x="571.9" y="257.3" transform="matrix(0.8305 -0.5571 0.5571 0.8305 -54.114 364.8434)" class="st0" width="1" height="28.1"/>
</g>
<g>
	
		<rect x="563.9" y="263.4" transform="matrix(0.8169 -0.5768 0.5768 0.8169 -56.4987 376.2948)" class="st0" width="1" height="27.5"/>
</g>
<g>
	
		<rect x="556.6" y="269.1" transform="matrix(0.8333 -0.5529 0.5529 0.8333 -63.3238 355.1313)" class="st0" width="1" height="27"/>
</g>
<g>
	
		<rect x="548.1" y="275.6" transform="matrix(0.8023 -0.5969 0.5969 0.8023 -63.9194 384.5783)" class="st0" width="1" height="26.3"/>
</g>
<g>
	
		<rect x="539" y="282.7" transform="matrix(0.8417 -0.5399 0.5399 0.8417 -74.1584 338.0705)" class="st0" width="1" height="25.7"/>
</g>
<path class="st0" d="M614,255.7l-8.6-10.8l5.4-7.1l-3.3-4.1l-5.5,7.1l-4.2-5.2l0.4-0.4l-0.7,0l0,0l0,0l-17.4,1v15.7l4.1,6.3
	l-6.6,5.9l3.5,5.3l6.7-5.8l6,9.2L614,255.7z"/>
</svg>
