<?xml version="1.0" encoding="utf-8"?>
<!-- Generator: Adobe Illustrator 16.0.0, SVG Export Plug-In . SVG Version: 6.00 Build 0)  -->
<!DOCTYPE svg PUBLIC "-//W3C//DTD SVG 1.1//EN" "http://www.w3.org/Graphics/SVG/1.1/DTD/svg11.dtd">
<svg version="1.1" id="Isolation_Mode" xmlns="http://www.w3.org/2000/svg" xmlns:xlink="http://www.w3.org/1999/xlink" x="0px"
	 y="0px" width="710.305px" height="386.215px" viewBox="0 0 710.305 386.215" enable-background="new 0 0 710.305 386.215"
	 xml:space="preserve">
<g>
	<path fill="#F7F7F7" d="M17.693,122.509l-5.107-11.583l-12.585,1.368l7.478-10.214L0.001,91.865l12.585,1.369l5.107-11.583
		L22.8,93.234l12.585-1.369l-7.479,10.215l7.479,10.214l-12.584-1.368L17.693,122.509z M13.207,109.852l4.487,10.178l4.486-10.178
		l11.06,1.202l-6.571-8.975l6.571-8.976l-11.06,1.203l-4.486-10.178l-4.487,10.178L2.148,93.104l6.569,8.976l-6.569,8.975
		L13.207,109.852z"/>
</g>
<g>
	<polygon fill="#F7F7F7" points="95.162,300.491 98.4,307.835 106.382,306.969 101.639,313.445 106.382,319.924 98.4,319.055 
		95.162,326.4 91.924,319.055 83.943,319.924 88.684,313.445 83.943,306.969 91.924,307.835 	"/>
</g>
<g>
	<path fill="#F7F7F7" d="M62.935,249.358c-3.481,0-6.313,2.836-6.313,6.322c0,3.483,2.832,6.319,6.313,6.319
		c3.482,0,6.314-2.836,6.314-6.319C69.25,252.194,66.418,249.358,62.935,249.358z"/>
</g>
<g>
	<path fill="#F7F7F7" d="M174.959,47.003c6.127,0,11.111-4.984,11.111-11.111c0-6.126-4.984-11.11-11.111-11.11
		c-6.125,0-11.109,4.984-11.109,11.11C163.849,42.02,168.834,47.003,174.959,47.003z M174.959,26.326
		c5.271,0,9.559,4.289,9.559,9.56c0,5.27-4.287,9.557-9.559,9.557c-5.27,0-9.558-4.287-9.558-9.557
		C165.401,30.615,169.689,26.326,174.959,26.326z"/>
</g>
<g>
	<path fill="#F7F7F7" d="M493.081,227.735c-3.481,0-6.313,2.837-6.313,6.322c0,3.484,2.832,6.319,6.313,6.319
		c3.48,0,6.313-2.835,6.313-6.319C499.395,230.572,496.562,227.735,493.081,227.735z"/>
</g>
<g>
	<path fill="#F7F7F7" d="M392.658,319.917l1.595-0.293c24.338-4.465,40.628-14.842,47.11-30.009
		c6.453-15.109,2.694-33.994-10.872-54.608l-0.891-1.354l0.153-1.613c3.1-32.699-3.737-65.092-19.771-93.681l-1.744-3.111
		l2.575-2.468c6.403-6.135,10.448-13.973,11.696-22.668c3.062-21.346-11.825-41.206-33.185-44.27
		c-1.771-0.255-3.585-0.384-5.389-0.384c-10.501,0-20.743,4.307-28.1,11.815l-2.511,2.562l-3.101-1.807
		c-5.98-3.489-11.45-6.281-16.718-8.535c-12.937-5.531-26.501-9.341-40.317-11.324c-7.452-1.068-15.036-1.609-22.542-1.609
		c-46.433,0-90.573,20.271-121.106,55.614l-1.063,1.231l-1.602,0.29c-24.272,4.392-40.536,14.737-47.029,29.918
		c-6.394,14.969-2.66,33.771,10.791,54.376l0.889,1.357l-0.162,1.615c-2.53,25.409,1.181,51.415,10.729,75.21
		c15.892,39.668,46.293,70.769,85.606,87.575c12.854,5.498,26.328,9.29,40.045,11.277l0.289,0.038
		c7.452,1.066,15.035,1.607,22.541,1.607c46.392,0,90.503-20.238,121.022-55.527L392.658,319.917z M429.959,235.372l5.964,12.168
		c7.715,15.738,9.068,29.691,4.021,41.473c-5.064,11.838-16.104,20.502-32.81,25.748l-12.863,4.041l7.702-11.066
		c6.372-9.155,11.678-18.647,15.769-28.21c4.14-9.693,7.348-20.08,9.529-30.872L429.959,235.372z M354.345,81.488l1.924-2.442
		c7.138-7.664,17.167-12.049,27.532-12.049c1.762,0,3.546,0.127,5.302,0.377c9.923,1.421,18.704,6.63,24.73,14.667
		c6.023,8.038,8.561,17.926,7.14,27.843c-1.395,9.744-6.495,18.431-14.358,24.459c-1.868,1.432-3.871,2.692-5.954,3.746
		c-0.101,0.061-0.246,0.142-0.416,0.223c-2.182,1.078-4.502,1.947-6.896,2.583c-1.18,0.309-2.297,0.448-3.282,0.572l-0.808,0.105
		c-0.2,0.03-0.44,0.078-0.685,0.126l-0.101,0.02c-0.726,0.143-1.534,0.302-2.47,0.352c-0.705,0.044-1.444,0.067-2.193,0.067
		c-1.754,0-3.555-0.13-5.353-0.388c-9.916-1.415-18.697-6.621-24.728-14.659c-6.025-8.037-8.564-17.924-7.148-27.841
		c0.359-2.376,0.979-4.456,1.535-6.175c0.307-0.956,0.57-1.703,0.857-2.421c0.263-0.678,0.58-1.305,0.86-1.857l0.288-0.576
		C351.449,85.618,352.83,83.417,354.345,81.488z M270.593,58.115c7.452,0,14.982,0.537,22.378,1.596
		c13.72,1.971,27.157,5.746,39.938,11.219c4.936,2.105,9.961,4.638,15.363,7.743l4.021,2.311l-2.338,4.004
		c-1.887,3.229-3.289,6.704-4.175,10.328c-0.292,1.159-0.533,2.404-0.72,3.702c-1.48,10.323,1.161,20.621,7.438,28.996
		c6.276,8.374,15.421,13.801,25.75,15.283c1.642,0.232,3.371,0.345,5.287,0.345l0.481-0.002l0.744,0.002
		c0.162,0,0.323-0.001,0.484-0.007c1.843-0.071,3.659-0.265,5.399-0.578c0.328-0.064,0.703-0.145,1.086-0.233
		c2.071-0.44,3.759-0.904,5.313-1.462c0.104-0.04,0.236-0.086,0.387-0.133c1.631-0.61,3.334-1.412,5.193-2.447
		c0.209-0.121,0.438-0.234,0.699-0.345l3.879-2.113l2.207,4.028c23.269,42.453,25.851,94.254,6.907,138.561
		c-5.777,13.479-13.575,26.26-23.178,37.988l-1.129,1.379l-1.763,0.259c-7.447,1.101-15.601,1.657-24.231,1.657
		c-38.016,0-83.191-10.36-127.208-29.176c-11.985-5.129-24.242-11.133-36.429-17.85l-3.589-1.978l1.547-3.796
		c1.071-2.623,1.713-4.862,2.022-7.047c1.132-7.896-0.888-15.774-5.688-22.182c-4.801-6.405-11.794-10.557-19.693-11.687
		c-1.366-0.198-2.76-0.297-4.14-0.297c-7.632,0-14.968,2.979-20.654,8.388l-3.019,2.873l-3.161-2.718
		c-13.258-11.41-23.982-22.854-31.872-34.014l-1.029-1.455l0.218-1.768c1.838-14.938,5.736-29.457,11.589-43.152
		C149.906,95.886,207.087,58.115,270.593,58.115z M172.746,284.479c-1.342,0-2.699-0.096-4.035-0.285
		c-7.492-1.073-14.124-5.008-18.673-11.075c-4.55-6.071-6.465-13.54-5.393-21.028c1.989-13.884,14.061-24.353,28.078-24.353
		c1.343,0,2.697,0.098,4.027,0.287c7.494,1.068,14.127,5,18.678,11.071c4.55,6.068,6.464,13.537,5.391,21.031
		C198.84,274.012,186.77,284.479,172.746,284.479z M111.098,197.813l-5.919-12.152c-7.525-15.452-8.873-29.779-3.893-41.432
		c5.048-11.829,16.096-20.508,32.838-25.798l12.885-4.073l-7.716,11.093c-6.413,9.222-11.729,18.737-15.8,28.28
		c-4.221,9.859-7.472,20.237-9.662,30.846L111.098,197.813z M381.654,329.488c-29.508,29.004-69.997,45.639-111.083,45.639
		c-7.428,0-14.934-0.534-22.311-1.59l-0.859-0.133c-13.389-1.992-26.537-5.724-39.079-11.088
		c-38.914-16.626-69.022-47.423-84.78-86.709c-7.936-19.776-11.77-40.543-11.394-61.729l0.222-12.442l7.932,9.588
		c6.932,8.376,15.394,16.873,25.151,25.26l2.815,2.423l-1.77,3.265c-1.807,3.34-2.917,6.576-3.395,9.897
		c-2.337,16.332,9.054,31.521,25.391,33.863c1.396,0.2,2.816,0.302,4.225,0.302c8.729,0,17.034-3.887,22.783-10.663l2.438-2.875
		l3.303,1.824c12.299,6.796,24.734,12.894,36.964,18.114c31.511,13.477,63.737,22.826,93.191,27.041
		c11.805,1.695,23.254,2.553,34.035,2.553c4.339,0,8.604-0.143,12.678-0.419l12.429-0.854L381.654,329.488z"/>
</g>
<g>
	<path fill="#F7F7F7" d="M201.369,308.561c-6.387,0-11.583,5.197-11.583,11.584c0,6.388,5.196,11.586,11.583,11.586
		c6.388,0,11.585-5.198,11.585-11.586C212.955,313.758,207.757,308.561,201.369,308.561z M201.369,330.178
		c-5.532,0-10.033-4.5-10.033-10.033c0-5.53,4.5-10.03,10.033-10.03c5.531,0,10.031,4.5,10.031,10.03
		C211.4,325.678,206.9,330.178,201.369,330.178z"/>
</g>
<g>
	<path fill="#F7F7F7" d="M422.684,347.418c-0.948-0.135-1.905-0.203-2.844-0.203c-9.863,0-18.364,7.383-19.772,17.176
		c-1.583,11.088,5.861,21.019,16.948,22.607c1.005,0.145,2.02,0.217,3.014,0.217c9.962,0,18.227-7.211,19.649-17.147
		c0.758-5.278-0.593-10.544-3.807-14.829C432.656,350.952,427.972,348.176,422.684,347.418z M438.146,369.838
		c-1.327,9.312-8.768,15.817-18.093,15.817c-0.932,0-1.877-0.067-2.812-0.2c-4.99-0.713-9.339-3.238-12.243-7.109
		c-2.9-3.873-4.105-8.75-3.394-13.738c1.285-9.032,9.129-15.844,18.243-15.844c0.87,0,1.748,0.062,2.609,0.186
		C432.55,350.402,439.587,359.772,438.146,369.838z"/>
</g>
<g>
	<path fill="#F7F7F7" d="M301.19,264.614l0.49,0.02c3.285-0.037,6.015-2.619,6.231-5.908c0.109-1.685-0.442-3.31-1.56-4.582
		c-1.108-1.264-2.638-2.018-4.301-2.125l-0.544-0.021c-3.279,0.037-6.003,2.608-6.216,5.884c-0.115,1.695,0.437,3.321,1.549,4.592
		C297.954,263.742,299.498,264.502,301.19,264.614z"/>
</g>
<g>
	<path fill="#F7F7F7" d="M229.293,153.029c13.84,0,25.099-11.259,25.099-25.098c0-13.838-11.259-25.096-25.099-25.096
		c-13.837,0-25.095,11.258-25.095,25.096C204.198,141.77,215.456,153.029,229.293,153.029z M229.293,104.387
		c12.983,0,23.546,10.562,23.546,23.544c0,12.983-10.562,23.546-23.546,23.546s-23.545-10.562-23.545-23.546
		C205.748,114.949,216.309,104.387,229.293,104.387z"/>
</g>
<g>
	<path fill="#F7F7F7" d="M355.736,267.223l0.897,0.031c6.035-0.037,11.073-4.789,11.47-10.82c0.212-3.084-0.794-6.064-2.835-8.394
		c-2.021-2.308-4.823-3.696-7.889-3.916l-0.912-0.03c-6.035,0.034-11.08,4.777-11.473,10.801
		C344.576,261.231,349.394,266.762,355.736,267.223z M346.53,255.008c0.354-5.332,4.802-9.354,10.346-9.354l0.341,0.011
		c2.692,0.188,5.136,1.399,6.89,3.416c1.757,2,2.63,4.572,2.455,7.245c-0.359,5.262-4.756,9.384-10.007,9.384l-0.656-0.017
		C350.371,265.322,346.174,260.529,346.53,255.008z"/>
</g>
<g>
	<path fill="#F7F7F7" d="M670.379,58.028l-81.071,58.038l-0.514,0.367c-0.516-8.238-3.597-15.787-8.456-21.861l0.438-0.313
		L710.305,1.879L709.679,1L580.093,93.422l-0.441,0.314c-5.846-6.908-14.043-11.76-23.347-13.312l0.612-0.438l81.201-58.131
		l-0.628-0.878l-82.084,58.764l-0.646,0.461c-1.604-0.201-3.23-0.317-4.889-0.317c-21.507,0-39.004,17.498-39.004,39.005
		c0,21.508,17.497,39.007,39.004,39.007c21.509,0,39.008-17.499,39.008-39.007c0-0.392-0.018-0.78-0.029-1.169l0.53-0.379
		l81.626-58.436L670.379,58.028z M549.872,155.199c-20.021,0-36.31-16.288-36.31-36.308c0-20.019,16.288-36.306,36.31-36.306
		c19.827,0,35.982,15.978,36.293,35.732l-0.19,0.136l0.2,0.28c0,0.053,0.005,0.104,0.005,0.158
		C586.18,138.91,569.892,155.199,549.872,155.199z"/>
</g>
<g>
	<path fill="#F7F7F7" d="M538.781,312.223l-13.532-22.463l0.35-0.272l45.77-35.774l16.467,24.571L538.781,312.223z M526.563,290.002
		l12.524,20.795l47.367-32.773l-15.32-22.858L526.563,290.002z"/>
</g>
<g>
	<path fill="#F7F7F7" d="M618.707,248.501l-17.089-21.429l33.167-40.603l16.342,15.252L618.707,248.501z M602.903,227.081
		l15.747,19.747l31.162-44.963l-14.929-13.934L602.903,227.081z"/>
</g>
<g>
	
		<rect x="602.93" y="229.908" transform="matrix(-0.6386 -0.7695 0.7695 -0.6386 831.5697 851.3299)" fill="#F7F7F7" width="25.502" height="1"/>
</g>
<g>
	
		<rect x="610.121" y="221.111" transform="matrix(-0.6785 -0.7346 0.7346 -0.6785 881.7401 829.1008)" fill="#F7F7F7" width="24.339" height="1"/>
</g>
<g>
	
		<rect x="615.95" y="213.936" transform="matrix(-0.7103 -0.7039 0.7039 -0.7103 922.5651 808.5784)" fill="#F7F7F7" width="23.458" height="0.999"/>
</g>
<g>
	
		<rect x="621.083" y="207.58" transform="matrix(-0.7558 -0.6548 0.6548 -0.7558 974.1556 779.4526)" fill="#F7F7F7" width="22.671" height="1"/>
</g>
<g>
	
		<rect x="627.741" y="200.392" transform="matrix(-0.7345 -0.6786 0.6786 -0.7345 970.8612 781.631)" fill="#F7F7F7" width="21.192" height="0.999"/>
</g>
<g>
	
		<rect x="625.893" y="188.979" transform="matrix(-0.774 -0.6331 0.6331 -0.774 974.759 779.03)" fill="#F7F7F7" width="0.998" height="53.194"/>
</g>
<g>
	
		<rect x="558.329" y="270.855" transform="matrix(-0.5571 -0.8305 0.8305 -0.5571 665.8527 897.8406)" fill="#F7F7F7" width="28.055" height="0.999"/>
</g>
<g>
	
		<rect x="550.716" y="276.636" transform="matrix(-0.5768 -0.8169 0.8169 -0.5768 663.5925 898.0797)" fill="#F7F7F7" width="27.459" height="0.999"/>
</g>
<g>
	
		<rect x="543.64" y="282.079" transform="matrix(-0.5529 -0.8333 0.8333 -0.5529 629.6803 903.0383)" fill="#F7F7F7" width="26.959" height="1.001"/>
</g>
<g>
	
		<rect x="535.481" y="288.281" transform="matrix(-0.5969 -0.8023 0.8023 -0.5969 644.4338 901.3354)" fill="#F7F7F7" width="26.316" height="1.001"/>
</g>
<g>
	
		<rect x="526.698" y="295" transform="matrix(-0.5399 -0.8417 0.8417 -0.5399 582.1066 909.2003)" fill="#F7F7F7" width="25.711" height="1"/>
</g>
<g>
	<polygon fill="#FFFFFF" points="597.569,246.622 600.959,250.792 610.812,237.799 607.538,233.695 	"/>
</g>
<g>
	<polygon fill="#FFFFFF" points="593.675,258.46 589.765,253.223 577.688,264.045 581.228,269.328 	"/>
</g>
<g>
	<polygon fill="#FFFFFF" points="580.178,236.178 580.178,251.833 593.922,272.682 614.021,255.742 597.569,235.157 
		595.485,237.501 607.538,252.876 593.922,265.948 582.716,250.792 598.254,235.157 	"/>
</g>
</svg>
