<?xml version="1.0" encoding="utf-8"?>
<!-- Generator: Adobe Illustrator 16.0.0, SVG Export Plug-In . SVG Version: 6.00 Build 0)  -->
<!DOCTYPE svg PUBLIC "-//W3C//DTD SVG 1.1//EN" "http://www.w3.org/Graphics/SVG/1.1/DTD/svg11.dtd">
<svg version="1.1" id="Isolation_Mode" xmlns="http://www.w3.org/2000/svg" xmlns:xlink="http://www.w3.org/1999/xlink" x="0px"
	 y="0px" width="672.337px" height="423.074px" viewBox="-64.366 -76.476 672.337 423.074"
	 enable-background="new -64.366 -76.476 672.337 423.074" xml:space="preserve">
<g>
	<g>
		<path fill="#F7F7F7" d="M372.887,146.993c-7.932,0-14.174-2.403-18.556-7.143c-9.473-10.253-8-28.945-7.292-37.929
			c0.135-1.732,0.242-3.1,0.242-3.992c0-0.771,0.052-1.969,0.118-3.525c0.6-13.948,2.422-56.393-20.329-79.143
			c-9.745-9.747-13.494-19.174-11.144-28.022c2.942-11.077,15.47-20.386,34.363-25.537c5.567-1.52,12.277-2.323,19.404-2.323
			c32.803,0,70.452,16.816,77.745,64.014c5.071,32.827-6.021,68.894-29.673,96.478C403.206,136.854,386.43,146.993,372.887,146.993z
			 M369.696-39.372c-6.917,0-13.691,0.809-19.075,2.279c-18.182,4.957-30.701,14.173-33.486,24.653
			c-2.227,8.387,1.413,17.412,10.82,26.819c23.141,23.138,21.298,65.994,20.694,80.079c-0.066,1.534-0.117,2.713-0.117,3.472
			c0,0.938-0.109,2.329-0.249,4.089c-0.693,8.806-2.137,27.131,6.965,36.983c4.136,4.473,10.07,6.74,17.641,6.74
			c13.183,0,29.606-9.974,43.932-26.684c23.418-27.311,34.404-63.004,29.389-95.476c-3.441-22.263-13.646-39.095-30.334-50.03
			C398.708-37.692,379.573-39.372,369.696-39.372z"/>
	</g>
	<g>
		<path fill="#F7F7F7" d="M352.919-37.795c-11.353-5.313-17.945-30.248-18.222-31.308l1.21-0.313
			c0.066,0.254,6.72,25.425,17.541,30.491L352.919-37.795z"/>
	</g>
	<g>
		<path fill="#F7F7F7" d="M370.103-39.554l-0.882-0.882c1.476-1.478,3.355-8.193-0.76-16.042
			c-5.358-10.222-4.73-18.009-4.702-18.334l1.243,0.109c-0.006,0.078-0.61,7.772,4.563,17.646
			C373.896-48.797,372.018-41.468,370.103-39.554z"/>
	</g>
	<g>
		<path fill="#F7F7F7" d="M392.61-36.815c-0.191-0.592-4.626-14.667,1.533-27.115l1.119,0.553
			c-5.932,11.984-1.512,26.037-1.467,26.178L392.61-36.815z"/>
	</g>
	<g>
		<path fill="#F7F7F7" d="M410.716-30.178l-1.066-0.651c0.129-0.208,12.761-20.906,13.876-30.224l1.238,0.148
			C423.617-51.317,411.241-31.037,410.716-30.178z"/>
	</g>
	<g>
		<path fill="#F7F7F7" d="M429.542-15.733l-1.051-0.673c0.259-0.404,6.563-9.9,25.26-7.672l-0.148,1.239
			C435.691-24.977,429.602-15.825,429.542-15.733z"/>
	</g>
	<g>
		<path fill="#F7F7F7" d="M446.797,5.096c-2.896,0-5.503-0.906-5.663-0.964l0.417-1.176c0.053,0.019,5.444,1.888,8.937,0.147
			c1.265-0.63,2.138-1.683,2.595-3.124l1.189,0.376c-0.562,1.778-1.648,3.079-3.232,3.867
			C449.729,4.875,448.227,5.096,446.797,5.096z"/>
	</g>
	<g>
		<path fill="#F7F7F7" d="M446.614,22.846v-1.248c7.417,0,20.146-10.091,20.273-10.193l0.778,0.974
			C467.131,12.808,454.464,22.846,446.614,22.846z"/>
	</g>
	<g>
		<path fill="#F7F7F7" d="M466.066,50.477c-3.917-2.746-14.713-9.238-17.601-6.357l-0.882-0.882
			c4.137-4.137,17.669,5.146,19.199,6.217L466.066,50.477z"/>
	</g>
	<g>
		<path fill="#F7F7F7" d="M446.348,61.484l-1.043-0.687c2.29-3.482,9.417-2.522,16.967-1.506c6.58,0.885,13.388,1.803,15.78-0.59
			l0.883,0.882c-2.83,2.831-9.628,1.914-16.828,0.943C455.272,59.608,448.207,58.655,446.348,61.484z"/>
	</g>
	<g>
		<path fill="#F7F7F7" d="M467.828,87.563c-1.955,0-4.271-2.643-7.187-5.97c-3.66-4.177-8.217-9.377-12.644-9.523
			c-1.803-0.052-3.42,0.685-5.01,2.274l-0.882-0.882c1.82-1.821,3.821-2.732,5.932-2.639c4.969,0.164,9.722,5.589,13.542,9.947
			c2.418,2.76,4.873,5.597,6.294,5.543c0.182-0.01,0.457-0.073,0.765-0.508l1.018,0.72c-0.458,0.65-1.037,0.999-1.718,1.034
			C467.903,87.562,467.865,87.563,467.828,87.563z"/>
	</g>
	<g>
		<path fill="#F7F7F7" d="M450.895,95.07c-1.302-3.2-5.453-11.661-8.987-12.377c-0.791-0.157-1.499,0.094-2.181,0.774l-0.882-0.884
			c0.984-0.984,2.095-1.361,3.311-1.113c4.91,0.995,9.693,12.634,9.895,13.129L450.895,95.07z"/>
	</g>
	<g>
		<path fill="#F7F7F7" d="M440.2,107.174c-1.605-3.328-4.897-8.637-6.902-8.724c-0.277-0.005-0.681,0.063-1.125,0.813l-1.073-0.638
			c0.728-1.226,1.627-1.449,2.254-1.423c3.401,0.147,7.516,8.479,7.973,9.428L440.2,107.174z"/>
	</g>
	<g>
		<path fill="#F7F7F7" d="M433.04,117.333c-0.801-0.336-7.848-3.365-8.755-6.405c-0.201-0.676-0.104-1.335,0.281-1.907l1.034,0.699
			c-0.177,0.262-0.215,0.533-0.12,0.851c0.628,2.101,6.018,4.762,8.042,5.61L433.04,117.333z"/>
	</g>
	<g>
		<path fill="#F7F7F7" d="M423.5,129.561c-2.395-1.127-9.069-4.054-11.156-4.054v-1.248c2.791,0,11.324,4.002,11.687,4.174
			L423.5,129.561z"/>
	</g>
	<g>
		<path fill="#F7F7F7" d="M427.844,141.686c-0.33,0-0.648-0.189-1.941-0.992c-3.508-2.173-12.839-7.959-22.626-6.855l-0.139-1.241
			c10.23-1.149,19.814,4.8,23.423,7.036c0.606,0.377,1.232,0.765,1.396,0.818L427.844,141.686z"/>
	</g>
	<g>
		<path fill="#F7F7F7" d="M407.603,150.915c-2.206-3.447-8.682-12.254-11.934-11.618l-0.237-1.226
			c4.708-0.897,12.364,10.831,13.223,12.171L407.603,150.915z"/>
	</g>
	<g>
		<path fill="#F7F7F7" d="M384.418,155.193l-1.183-0.389c1.135-3.451,2.305-8.758,1.342-9.757c-0.052-0.051-0.169-0.172-0.579-0.055
			l-0.343-1.199c0.941-0.27,1.509,0.064,1.822,0.389C387.301,146.079,384.917,153.689,384.418,155.193z"/>
	</g>
	<g>
		<path fill="#F7F7F7" d="M366.211,156.093l-1.148-0.487c0.359-0.85,3.554-8.34,4.895-9.679l0.882,0.882
			C369.954,147.695,367.587,152.847,366.211,156.093z"/>
	</g>
	<g>
		<path fill="#F7F7F7" d="M344.556,158.421l-0.65-1.065c0.142-0.085,14.058-8.654,14.058-14.726h1.248
			C359.21,149.399,345.154,158.055,344.556,158.421z"/>
	</g>
	<g>
		<path fill="#F7F7F7" d="M332.074,145.23l-0.175-1.236c5.253-0.734,18.885-3.85,18.885-9.393h1.247
			C352.031,142.359,332.887,145.116,332.074,145.23z"/>
	</g>
	<g>
		<path fill="#F7F7F7" d="M347.98,127.111c-0.446-1.568-7.475-2.053-13.734-1.605l-0.091-1.244
			c13.346-0.964,14.856,1.921,15.026,2.509L347.98,127.111z"/>
	</g>
	<g>
		<path fill="#F7F7F7" d="M344.198,113.198c-5.851,0-16.661-7.642-17.158-7.996l0.724-1.016c3.55,2.524,13.615,8.816,17.506,7.625
			c0.643-0.197,1.067-0.598,1.3-1.223l1.172,0.436c-0.374,1.001-1.08,1.667-2.105,1.982
			C345.204,113.137,344.72,113.198,344.198,113.198z"/>
	</g>
	<g>
		<path fill="#F7F7F7" d="M346.705,93.617c-5.645,0-22.28-11.456-25.781-13.912l0.716-1.021
			c8.501,5.964,22.974,14.929,25.612,13.601c0.084-0.042,0.241-0.122,0.252-0.516l1.249,0.032c-0.025,0.943-0.525,1.39-0.94,1.599
			C347.518,93.547,347.144,93.617,346.705,93.617z"/>
	</g>
	<g>
		<path fill="#F7F7F7" d="M348.752,75.458h-1.249c0-1.884-10.361-8.109-20.377-13.036l0.549-1.12
			C347.737,71.17,348.752,74.826,348.752,75.458z"/>
	</g>
	<g>
		<path fill="#F7F7F7" d="M339.926,53.922c-4.543,0-10.186-1.897-10.511-2.008l0.4-1.181c2.892,0.984,10.999,3.108,13.741,1.143
			c0.61-0.438,0.909-1.063,0.909-1.912c0-5.048-18.941-11.461-26.24-13.507l0.338-1.202c2.779,0.779,27.151,7.806,27.151,14.709
			c0,1.262-0.481,2.247-1.43,2.926C343.228,53.647,341.656,53.922,339.926,53.922z"/>
	</g>
	<g>
		<path fill="#F7F7F7" d="M324.555,26.32c-2.439,0-4.588-0.309-5.066-0.382l0.189-1.234c2.695,0.416,10.037,0.95,11.62-1.539
			c0.62-0.977,0.279-2.449-1.015-4.371c-6.126-9.116-16.553-6.418-16.993-6.299l-0.329-1.205c0.118-0.031,11.726-3.062,18.358,6.808
			c1.596,2.372,1.944,4.302,1.031,5.738C331.076,25.841,327.59,26.32,324.555,26.32z"/>
	</g>
	<g>
		<path fill="#F7F7F7" d="M311.911-6.226c-4.6,0-10.798-5.292-11.091-5.544l0.813-0.946c2.081,1.791,8.188,6.193,11.448,5.062
			c1.137-0.396,1.851-1.434,2.187-3.176c1.778-9.242-2.685-21.638-2.731-21.763l1.173-0.428c0.19,0.521,4.626,12.848,2.783,22.425
			c-0.422,2.187-1.432,3.573-3.004,4.12C312.997-6.302,312.466-6.226,311.911-6.226z"/>
	</g>
	<g>
		<path fill="#F7F7F7" d="M331.211-30.173c-8.929-14.271-7.877-15.411-7.375-15.957c0.362-0.391,0.915-0.363,1.302-0.165
			l-0.573,1.109c0.055-0.001,0.205-0.078,0.233-0.163c-0.092,0.283-0.162,2.312,7.473,14.514L331.211-30.173z"/>
	</g>
	<g>
		<path fill="#F7F7F7" d="M368.569,130.577c-0.001,0-0.003,0-0.005,0c-1.479,0-2.612-0.383-3.366-1.14
			c-6.975-6.976-6.055-36.873-5.24-63.252c0.242-7.87,0.472-15.301,0.472-21.603c0-15.599-9.205-25.829-16.602-34.049
			c-5.501-6.11-10.251-11.389-10.251-17.38c0-6.611,16.982-14.298,38.875-14.298c3.814,0,7.667,0.235,11.45,0.7
			c26.901,3.299,41.341,36.919,41.483,37.259c12.271,32.975,0.312,60.797-11.878,78.334c-6.838,9.834-15.655,19.013-24.832,25.846
			C380.618,126.995,373.103,130.577,368.569,130.577z M372.451-19.896c-22.619,0-37.627,7.854-37.627,13.05
			c0,5.512,4.602,10.625,9.931,16.545c7.54,8.379,16.922,18.807,16.922,34.884c0,6.32-0.229,13.762-0.472,21.641
			c-0.766,24.833-1.719,55.737,4.874,62.331c0.514,0.513,1.35,0.774,2.486,0.774c0,0,0.002,0,0.003,0
			c8.208,0.001,28.885-13.271,43.914-34.893c12.021-17.293,23.815-44.717,11.743-77.162c-0.131-0.309-14.296-33.269-40.474-36.48
			C380.016-19.664,376.214-19.896,372.451-19.896z"/>
	</g>
	<g>
		<path fill="#F7F7F7" d="M408.128,38.067c0.195,27.533,1.126,39.652,7.404,33.376c6.273-6.273,8.01-40.281,2.523-45.764
			C412.577,20.196,408.06,27.866,408.128,38.067z"/>
	</g>
</g>
<g>
	<g>
		<path fill="#F7F7F7" d="M432.436,252.659c-4.88,0-9.357-4.273-11.408-10.887c-2.038-6.577-1.395-15.065,4.638-19.201
			c13.729-9.409,15.187-12.332,15.244-12.453l0.132-0.197c0.704-0.704,2.065-1.126,3.645-1.126c2.691,0,6.277,1.242,8.268,4.728
			c2.261,3.959,3.053,11.901-6.008,27.258C441.151,250.599,435.856,252.659,432.436,252.659z M441.99,210.742
			c-0.415,0.766-2.787,4.066-15.619,12.86c-5.509,3.777-6.055,11.662-4.152,17.802c1.885,6.081,5.896,10.01,10.217,10.01
			c4.439,0,9.084-3.896,13.435-11.264c8.758-14.843,8.097-22.334,5.999-26.006c-1.725-3.021-4.841-4.098-7.183-4.098
			C443.526,210.043,442.486,210.315,441.99,210.742z"/>
	</g>
	<g>
		<path fill="#F7F7F7" d="M430.839,242.969v-1.248c3.098,0,7.02-2.638,10.491-7.061c3.174-4.044,5.307-8.764,5.306-11.744
			c0-1.955-0.885-2.906-2.704-2.906v-1.248c2.512,0,3.951,1.514,3.952,4.154c0.001,3.29-2.187,8.202-5.573,12.514
			C438.55,240.221,434.367,242.969,430.839,242.969z"/>
	</g>
	<g>
		<path fill="#F7F7F7" d="M441.69,262.723c-0.001,0-0.001,0-0.003,0c-4.406,0-10.724-2.952-19.311-9.023
			c-8.493-6.005-12.004-13.239-10.435-21.503c2.671-14.068,19.993-26.871,28.16-28.871c14.829-3.629,34.349-7.955,43.113-7.955
			c4.613,0,9.594,2.229,14.408,4.386c4.805,2.151,9.771,4.374,14.325,4.374c3.931,0,8.149-2.359,13.032-5.09
			c6.283-3.515,13.405-7.498,21.993-7.498c8.605,0,11.42,2.544,14.142,5.005c2.129,1.926,4.33,3.916,9.505,4.856
			c1.478,0.27,2.893,0.406,4.208,0.406c4.542,0,7.566-1.58,10.767-3.249c2.73-1.425,5.554-2.898,9.45-3.456
			c8.143-1.164,12.926,12.918,12.926,17.261c0,0.5-0.057,0.89-0.174,1.189c-0.265,0.67-0.776,0.742-0.984,0.742
			c-0.375,0-0.758-0.202-1.175-0.618c-0.968-0.968-1.845-2.02-2.692-3.035c-2.525-3.029-5.14-6.162-10.719-7.754
			c-0.597-0.172-1.135-0.259-1.598-0.259c-1.98,0-2.621,1.553-3.582,4.294c-1.008,2.873-2.262,6.444-6.475,7.99
			c-0.79,0.29-1.698,0.437-2.7,0.437c-4.587,0-10.709-2.972-17.188-6.116c-6.401-3.108-13.022-6.321-17.814-6.321
			c-5.569,0-10.598,5.915-15.461,11.635c-4.206,4.949-8.178,9.622-12.564,10.784c-0.811,0.214-1.728,0.325-2.725,0.325
			c-4.745,0-10.853-2.377-17.319-4.896c-6.428-2.501-13.077-5.087-18.137-5.087c-0.553,0-1.086,0.031-1.582,0.094
			c-9.86,1.233-16.585,17.401-21.035,28.101l-0.906,2.175c-0.707,1.68-1.267,3.547-1.804,5.352
			C449.674,256.966,447.955,262.723,441.69,262.723z M483.215,196.619c-8.642,0-28.054,4.307-42.816,7.918
			c-7.899,1.937-24.651,14.305-27.23,27.894c-1.469,7.74,1.872,14.554,9.932,20.252c8.368,5.917,14.448,8.794,18.59,8.794h0.001
			c5.336,0.001,6.78-4.835,8.45-10.434c0.549-1.839,1.117-3.739,1.85-5.482l0.904-2.167c4.561-10.965,11.452-27.537,22.032-28.86
			c0.546-0.068,1.132-0.103,1.736-0.103c5.295,0,12.054,2.629,18.591,5.173c6.354,2.472,12.354,4.81,16.866,4.81
			c0.889,0,1.698-0.095,2.405-0.284c4.008-1.062,7.857-5.591,11.935-10.385c5.047-5.937,10.265-12.075,16.41-12.075
			c5.08,0,11.831,3.276,18.359,6.445c6.069,2.947,12.348,5.993,16.646,5.993c0.855,0,1.618-0.12,2.271-0.359
			c3.66-1.343,4.757-4.471,5.725-7.231c0.926-2.637,1.799-5.128,4.761-5.128c0.588,0,1.222,0.101,1.942,0.305
			c5.946,1.698,8.686,4.98,11.334,8.157c0.866,1.038,1.686,2.02,2.615,2.949c0.066,0.066,0.123,0.114,0.167,0.152
			c0.248-1.096-0.493-5.517-2.885-10.021c-1.401-2.64-4.444-7.188-8.582-6.586c-3.684,0.524-6.411,1.948-9.049,3.324
			c-3.194,1.668-6.495,3.392-11.344,3.392c-1.39,0-2.882-0.145-4.434-0.427c-5.524-1.005-7.86-3.115-10.117-5.158
			c-2.663-2.409-5.181-4.684-13.305-4.684c-8.262,0-15.232,3.898-21.384,7.341c-5.036,2.815-9.385,5.248-13.643,5.248
			c-4.819,0-9.91-2.279-14.835-4.484C492.417,198.793,487.562,196.619,483.215,196.619z"/>
	</g>
</g>
<g>
	<g>
		<path fill="#F7F7F7" d="M108.924,291.909c-31.202,0-59.81-22.405-74.085-35.759c-19.542-18.282-33.161-38.699-33.161-45.59
			c0-2.952-2.155-8.634-5.135-16.498c-9.427-24.874-26.976-71.168-9.746-121.725C5.861,16.387,24.058-2.469,71.456-15.391
			c9.094-2.48,20.514-3.847,32.156-3.847c16.612,0,48.795,2.827,77.696,21.765c28.161,18.449,45.376,46.822,51.169,84.329
			c4.451,28.822,1.582,58.565-8.527,88.404c-8.872,26.187-22.952,50.981-40.722,71.705
			C159.099,275.108,131.322,291.909,108.924,291.909z M103.613-17.991c-11.536,0-22.839,1.351-31.829,3.802
			C24.888-1.403,6.875,17.283-12.023,72.738c-17.083,50.133,0.361,96.155,9.732,120.879c3.028,7.989,5.216,13.761,5.216,16.941
			c0,11.333,50.758,80.102,105.999,80.102c22.039,0,49.46-16.638,73.357-44.508c17.667-20.605,31.667-45.257,40.487-71.292
			c10.045-29.647,12.897-59.193,8.476-87.814c-5.737-37.143-22.769-65.229-50.62-83.475
			C151.994-15.19,120.085-17.991,103.613-17.991z"/>
	</g>
	<g>
		<path fill="#F7F7F7" d="M75.881-15.329c-7.875-3.687-15.33-13.54-22.16-29.282c-5.062-11.664-7.874-22.401-7.902-22.509
			l1.208-0.313c0.109,0.423,11.218,42.467,29.383,50.974L75.881-15.329z"/>
	</g>
	<g>
		<path fill="#F7F7F7" d="M103.992-18.174l-0.882-0.882c2.522-2.52,5.758-13.913-1.189-27.161
			c-8.85-16.887-7.817-29.72-7.768-30.258l1.243,0.111c-0.011,0.128-1.037,13.027,7.631,29.566
			C110.132-33.245,107.104-21.284,103.992-18.174z"/>
	</g>
	<g>
		<path fill="#F7F7F7" d="M142.11-13.451c-0.077-0.24-7.639-24.228,2.527-44.776l1.118,0.553
			c-9.936,20.086-2.533,43.604-2.458,43.84L142.11-13.451z"/>
	</g>
	<g>
		<path fill="#F7F7F7" d="M171.473-2.506l-1.065-0.651c0.212-0.347,21.262-34.841,23.135-50.42l1.24,0.148
			C192.876-37.58,172.345-3.932,171.473-2.506z"/>
	</g>
	<g>
		<path fill="#F7F7F7" d="M202.772,21.512l-1.051-0.674c0.103-0.163,10.782-16.249,41.613-12.572l-0.147,1.239
			C213.177,5.922,202.873,21.355,202.772,21.512z"/>
	</g>
	<g>
		<path fill="#F7F7F7" d="M231.817,55.955c-4.733,0-9.008-1.488-9.271-1.582l0.417-1.176c0.091,0.031,9.201,3.198,15.17,0.227
			c2.21-1.099,3.737-2.932,4.533-5.442l1.189,0.378c-0.904,2.847-2.643,4.928-5.17,6.185
			C236.564,55.597,234.136,55.955,231.817,55.955z"/>
	</g>
	<g>
		<path fill="#F7F7F7" d="M231.515,85.467v-1.248c12.481,0,33.759-16.87,33.972-17.039l0.779,0.975
			C265.381,68.861,244.429,85.467,231.515,85.467z"/>
	</g>
	<g>
		<path fill="#F7F7F7" d="M264.099,131.489c-6.594-4.622-24.8-15.521-29.8-10.526l-0.882-0.883
			c6.757-6.758,30.396,9.685,31.399,10.389L264.099,131.489z"/>
	</g>
	<g>
		<path fill="#F7F7F7" d="M230.731,149.903l-1.043-0.685c3.666-5.575,15.393-3.993,27.808-2.323
			c11.043,1.487,22.464,3.024,26.586-1.097l0.883,0.882c-4.558,4.556-15.768,3.05-27.636,1.451
			C245.841,146.585,233.963,144.988,230.731,149.903z"/>
	</g>
	<g>
		<path fill="#F7F7F7" d="M266.786,193.085c-3.062,0-6.854-4.329-11.632-9.784c-6.138-7.008-13.779-15.729-21.322-15.978
			c-3.086-0.129-5.909,1.173-8.637,3.902l-0.882-0.882c2.945-2.945,6.166-4.368,9.561-4.269c8.083,0.267,15.921,9.214,22.219,16.404
			c4.212,4.81,8.197,9.358,10.689,9.358c0.034,0,0.07-0.001,0.104-0.004c0.604-0.03,1.123-0.364,1.585-1.015l1.019,0.718
			c-0.687,0.973-1.541,1.491-2.539,1.544C266.897,193.083,266.842,193.085,266.786,193.085z"/>
	</g>
	<g>
		<path fill="#F7F7F7" d="M239.012,205.829c-0.079-0.193-7.947-19.355-15.243-20.831c-1.452-0.296-2.76,0.163-3.997,1.398
			l-0.882-0.882c1.533-1.533,3.262-2.116,5.126-1.741c7.95,1.609,15.82,20.772,16.152,21.585L239.012,205.829z"/>
	</g>
	<g>
		<path fill="#F7F7F7" d="M221.223,225.926c-1.952-4.04-7.879-14.567-11.835-14.738c-0.847-0.021-1.602,0.472-2.244,1.554
			l-1.074-0.637c0.886-1.494,2.025-2.199,3.371-2.164c5.414,0.233,12.155,13.888,12.904,15.444L221.223,225.926z"/>
	</g>
	<g>
		<path fill="#F7F7F7" d="M209.107,242.621c-0.524-0.22-12.842-5.432-14.321-10.385c-0.303-1.017-0.163-1.967,0.415-2.823
			l1.035,0.699c-0.364,0.539-0.447,1.117-0.253,1.767c1.088,3.646,10.191,8.16,13.606,9.594L209.107,242.621z"/>
	</g>
	<g>
		<path fill="#F7F7F7" d="M193.259,262.958c-0.144-0.067-14.452-6.779-18.727-6.779v-1.248c4.551,0,18.659,6.618,19.258,6.898
			L193.259,262.958z"/>
	</g>
	<g>
		<path fill="#F7F7F7" d="M200.307,283.084c-0.433,0-1.025-0.356-3.017-1.589c-5.868-3.636-21.455-13.286-37.873-11.461
			l-0.139-1.239c16.858-1.866,32.704,7.94,38.67,11.639c1.114,0.691,2.166,1.341,2.426,1.407L200.307,283.084z"/>
	</g>
	<g>
		<path fill="#F7F7F7" d="M166.995,298.623c-3.711-5.796-14.589-20.618-20.268-19.505l-0.234-1.226
			c7.667-1.441,20.989,19.178,21.552,20.058L166.995,298.623z"/>
	</g>
	<g>
		<path fill="#F7F7F7" d="M127.701,305.831l-1.185-0.39c1.792-5.432,3.954-14.75,2.141-16.638c-0.193-0.202-0.545-0.44-1.376-0.202
			l-0.344-1.199c1.362-0.392,2.175,0.075,2.619,0.536C132.485,290.985,128.199,304.321,127.701,305.831z"/>
	</g>
	<g>
		<path fill="#F7F7F7" d="M97.445,307.293l-1.149-0.487c0.237-0.56,5.837-13.753,8.044-15.961l0.882,0.882
			C103.532,293.42,99.035,303.537,97.445,307.293z"/>
	</g>
	<g>
		<path fill="#F7F7F7" d="M61.585,310.97l-0.651-1.066c0.236-0.144,23.583-14.507,23.583-24.838h1.248
			C85.764,296.092,62.572,310.369,61.585,310.97z"/>
	</g>
	<g>
		<path fill="#F7F7F7" d="M11.838,280.656l-0.172-1.235c0.317-0.044,31.747-4.562,31.747-16.028h1.248
			C44.662,275.935,13.178,280.471,11.838,280.656z"/>
	</g>
	<g>
		<path fill="#F7F7F7" d="M11.007,230.544c-0.945-3.316-14.774-3.584-23.267-2.968l-0.09-1.245
			c2.352-0.168,23.028-1.502,24.558,3.873L11.007,230.544z"/>
	</g>
	<g>
		<path fill="#F7F7F7" d="M-7.329,202.118c-9.547,0-27.431-12.647-28.252-13.232l0.724-1.017
			c0.213,0.151,21.476,15.18,29.472,12.746c1.198-0.369,1.992-1.117,2.429-2.287l1.169,0.437c-0.573,1.537-1.661,2.561-3.232,3.044
			C-5.712,202.02-6.488,202.118-7.329,202.118z"/>
	</g>
	<g>
		<path fill="#F7F7F7" d="M-15.306,171.351c-9.414,0-39.023-20.569-42.592-23.073l0.717-1.021
			c10.227,7.174,37.889,25.234,43.014,22.648c0.269-0.133,0.627-0.406,0.65-1.218l1.248,0.034c-0.038,1.363-0.749,2.001-1.337,2.299
			C-14.058,171.245-14.63,171.351-15.306,171.351z"/>
	</g>
	<g>
		<path fill="#F7F7F7" d="M-19.235,138.88h-1.249c0-3.833-20.934-15.559-34.128-22.051l0.549-1.12
			C-50.495,117.463-19.235,133.01-19.235,138.88z"/>
	</g>
	<g>
		<path fill="#F7F7F7" d="M-28.392,99.971c-7.451,0-16.816-3.147-17.354-3.331l0.402-1.181c0.175,0.061,17.561,5.906,23.23,1.846
			c1.134-0.812,1.686-1.962,1.686-3.515c0-8.655-31.717-19.433-43.938-22.856l0.336-1.202c1.832,0.513,44.851,12.691,44.851,24.058
			c0,1.957-0.742,3.482-2.208,4.53C-23.074,99.528-25.6,99.971-28.392,99.971z"/>
	</g>
	<g>
		<path fill="#F7F7F7" d="M-23.046,64.222c-4.271,0-7.987-0.559-8.312-0.609l0.189-1.234c0.165,0.025,16.423,2.468,19.737-2.747
			c1.13-1.778,0.562-4.375-1.689-7.721c-10.376-15.428-28.531-10.69-28.714-10.64l-0.328-1.205
			c0.189-0.052,19.206-5.018,30.078,11.15c2.551,3.795,3.125,6.852,1.706,9.086C-12.391,63.469-18.09,64.222-23.046,64.222z"/>
	</g>
	<g>
		<path fill="#F7F7F7" d="M4.847,28.23c-7.463,0-17.668-8.708-18.149-9.121l0.814-0.946c0.125,0.108,12.699,10.835,19.446,8.491
			c2.011-0.7,3.325-2.581,3.903-5.591c2.98-15.479-4.479-36.201-4.554-36.408l1.171-0.428c0.078,0.211,7.652,21.255,4.608,37.071
			c-0.67,3.479-2.257,5.678-4.721,6.534C6.581,28.106,5.734,28.23,4.847,28.23z"/>
	</g>
	<g>
		<path fill="#F7F7F7" d="M39.971-2.501c-14.685-23.462-12.965-25.33-12.318-26.033c0.518-0.562,1.293-0.382,1.671-0.187
			l-0.574,1.109c-0.066-0.032-0.183-0.056-0.221-0.051c-0.114,0.191-1.119,2.742,12.5,24.501L39.971-2.501z"/>
	</g>
	<g>
		<ellipse fill="#F7F7F7" cx="58.168" cy="16.272" rx="3.093" ry="2.504"/>
	</g>
	<g>
		<ellipse fill="#F7F7F7" cx="104.78" cy="16.272" rx="3.095" ry="2.504"/>
	</g>
	<g>
		<ellipse fill="#F7F7F7" cx="43.593" cy="65.71" rx="3.091" ry="4.622"/>
	</g>
	<g>
		<path fill="#F7F7F7" d="M127.228,75.087c0,1.383-1.077,2.502-2.413,2.502c-1.333,0-2.419-1.12-2.419-2.502
			c0-1.384,1.086-2.507,2.419-2.507C126.151,72.579,127.228,73.702,127.228,75.087z"/>
	</g>
	<g>
		<path fill="#F7F7F7" d="M159.018,125.017c0,0.873-0.869,1.58-1.95,1.58c-1.079,0-1.956-0.708-1.956-1.58
			c0-0.874,0.879-1.586,1.956-1.586C158.148,123.432,159.018,124.143,159.018,125.017z"/>
	</g>
	<g>
		<ellipse fill="#F7F7F7" cx="198.551" cy="147.618" rx="3.091" ry="2.507"/>
	</g>
	<g>
		<ellipse fill="#F7F7F7" cx="151.503" cy="38.281" rx="3.094" ry="2.503"/>
	</g>
	<g>
		<ellipse fill="#F7F7F7" cx="198.117" cy="38.281" rx="3.095" ry="2.503"/>
	</g>
	<g>
		<path fill="#F7F7F7" d="M137.74,85.602c0,1.379-0.88,2.503-1.952,2.503c-1.076,0-1.954-1.122-1.954-2.503
			c0-1.381,0.877-2.505,1.954-2.505C136.861,83.096,137.74,84.219,137.74,85.602z"/>
	</g>
	<g>
		<ellipse fill="#F7F7F7" cx="38.494" cy="105.786" rx="2.979" ry="3.636"/>
	</g>
	<g>
		<ellipse fill="#F7F7F7" cx="117.771" cy="133.806" rx="2.456" ry="1.99"/>
	</g>
	<g>
		<path fill="#F7F7F7" d="M46.286,166.298c0,2.559-1.382,4.623-3.096,4.623c-1.704,0-3.092-2.064-3.092-4.623
			c0-2.547,1.386-4.616,3.092-4.616C44.905,161.683,46.286,163.751,46.286,166.298z"/>
	</g>
	<g>
		<ellipse fill="#F7F7F7" cx="124.415" cy="175.677" rx="2.415" ry="2.502"/>
	</g>
	<g>
		<ellipse fill="#F7F7F7" cx="142.978" cy="77.2" rx="3.098" ry="4.622"/>
	</g>
	<g>
		<ellipse fill="#F7F7F7" cx="156.477" cy="70.204" rx="2.416" ry="2.502"/>
	</g>
	<g>
		<ellipse fill="#F7F7F7" cx="137.881" cy="117.281" rx="2.978" ry="3.632"/>
	</g>
	<g>
		<path fill="#F7F7F7" d="M151.892,128.927c0,1.099-1.101,1.991-2.458,1.991s-2.456-0.893-2.456-1.991
			c0-1.095,1.098-1.989,2.456-1.989C150.79,126.937,151.892,127.831,151.892,128.927z"/>
	</g>
	<g>
		<path fill="#F7F7F7" d="M145.672,177.792c0,2.556-1.386,4.62-3.091,4.62c-1.714,0-3.096-2.064-3.096-4.62
			c0-2.55,1.382-4.619,3.096-4.619C144.286,173.173,145.672,175.242,145.672,177.792z"/>
	</g>
	<g>
		<path fill="#F7F7F7" d="M158.49,170.797c0,1.382-1.08,2.506-2.417,2.506c-1.332,0-2.415-1.121-2.415-2.506
			c0-1.383,1.08-2.508,2.415-2.508C157.411,168.289,158.49,169.412,158.49,170.797z"/>
	</g>
	<g>
		<ellipse fill="#F7F7F7" cx="134.907" cy="163.482" rx="3.092" ry="4.621"/>
	</g>
	<g>
		<path fill="#F7F7F7" d="M150.819,156.485c0,1.383-1.079,2.503-2.418,2.503c-1.33,0-2.413-1.118-2.413-2.503
			c0-1.385,1.083-2.505,2.413-2.505C149.74,153.98,150.819,155.101,150.819,156.485z"/>
	</g>
	<g>
		<path fill="#F7F7F7" d="M132.79,203.555c0,2.007-1.333,3.635-2.978,3.635c-1.651,0-2.985-1.628-2.985-3.635
			c0-2.004,1.332-3.637,2.985-3.637C131.459,199.918,132.79,201.549,132.79,203.555z"/>
	</g>
	<g>
		<path fill="#F7F7F7" d="M143.818,215.206c0,1.095-1.101,1.984-2.456,1.984c-1.358,0-2.458-0.89-2.458-1.984
			c0-1.102,1.101-1.99,2.458-1.99C142.717,213.215,143.818,214.104,143.818,215.206z"/>
	</g>
	<g>
		<path fill="#F7F7F7" d="M103.738,255.881c0,2.553-1.383,4.625-3.094,4.625c-1.71,0-3.093-2.072-3.093-4.625
			c0-2.552,1.383-4.617,3.093-4.617C102.355,251.264,103.738,253.33,103.738,255.881z"/>
	</g>
	<g>
		<path fill="#F7F7F7" d="M150.416,257.076c0,1.381-1.078,2.501-2.415,2.501c-1.333,0-2.415-1.117-2.415-2.501
			c0-1.386,1.08-2.51,2.415-2.51C149.338,254.566,150.416,255.688,150.416,257.076z"/>
	</g>
	<g>
		<path fill="#F7F7F7" d="M158.62,225.601c0,0.874-0.87,1.583-1.954,1.583c-1.076,0-1.951-0.706-1.951-1.583
			c0-0.874,0.876-1.579,1.951-1.579C157.75,224.022,158.62,224.727,158.62,225.601z"/>
	</g>
	<g>
		<path fill="#F7F7F7" d="M137.337,186.194c0,1.383-0.873,2.504-1.948,2.504c-1.083,0-1.954-1.119-1.954-2.504
			c0-1.381,0.871-2.503,1.954-2.503C136.463,183.691,137.337,184.812,137.337,186.194z"/>
	</g>
	<g>
		<ellipse fill="#F7F7F7" cx="38.096" cy="206.374" rx="2.979" ry="3.637"/>
	</g>
	<g>
		<ellipse fill="#F7F7F7" cx="18.449" cy="42.887" rx="3.095" ry="4.621"/>
	</g>
	<g>
		<path fill="#F7F7F7" d="M68.225,44.074c0,1.387-1.08,2.504-2.419,2.504c-1.332,0-2.415-1.117-2.415-2.504
			c0-1.382,1.081-2.504,2.415-2.504C67.145,41.57,68.225,42.692,68.225,44.074z"/>
	</g>
	<g>
		<path fill="#F7F7F7" d="M146.458,70.96c0,1.387-0.871,2.504-1.95,2.504c-1.079,0-1.951-1.119-1.951-2.504
			c0-1.38,0.873-2.503,1.951-2.503C145.587,68.457,146.458,69.58,146.458,70.96z"/>
	</g>
	<g>
		<path fill="#F7F7F7" d="M16.334,82.96c0,2.009-1.333,3.634-2.984,3.634c-1.646,0-2.979-1.625-2.979-3.634
			c0-2.006,1.333-3.639,2.979-3.639C15.002,79.323,16.334,80.955,16.334,82.96z"/>
	</g>
	<g>
		<path fill="#F7F7F7" d="M61.221,102.795c0,1.095-1.097,1.989-2.458,1.989c-1.354,0-2.458-0.895-2.458-1.989
			c0-1.099,1.104-1.991,2.458-1.991C60.124,100.804,61.221,101.697,61.221,102.795z"/>
	</g>
	<g>
		<path fill="#F7F7F7" d="M21.146,143.474c0,2.558-1.386,4.623-3.095,4.623c-1.71,0-3.093-2.065-3.093-4.623
			c0-2.546,1.382-4.616,3.093-4.616C19.759,138.858,21.146,140.928,21.146,143.474z"/>
	</g>
	<g>
		<ellipse fill="#F7F7F7" cx="65.409" cy="144.667" rx="2.418" ry="2.502"/>
	</g>
	<g>
		<path fill="#F7F7F7" d="M120.929,54.377c0,2.552-1.382,4.622-3.091,4.622c-1.715,0-3.097-2.07-3.097-4.622
			c0-2.553,1.382-4.624,3.097-4.624C119.545,49.754,120.929,51.824,120.929,54.377z"/>
	</g>
	<g>
		<path fill="#F7F7F7" d="M115.717,94.453c0,2.007-1.333,3.631-2.98,3.631c-1.646,0-2.979-1.625-2.979-3.631
			c0-2.008,1.332-3.64,2.979-3.64C114.385,90.813,115.717,92.445,115.717,94.453z"/>
	</g>
	<g>
		<path fill="#F7F7F7" d="M120.53,154.968c0,2.555-1.382,4.62-3.093,4.62s-3.095-2.065-3.095-4.62c0-2.551,1.386-4.62,3.095-4.62
			C119.147,150.348,120.53,152.417,120.53,154.968z"/>
	</g>
	<g>
		<path fill="#F7F7F7" d="M112.856,140.66c0,2.552-1.386,4.621-3.095,4.621c-1.71,0-3.088-2.068-3.088-4.621
			c0-2.556,1.377-4.623,3.088-4.623C111.47,136.037,112.856,138.104,112.856,140.66z"/>
	</g>
	<g>
		<ellipse fill="#F7F7F7" cx="104.665" cy="180.731" rx="2.981" ry="3.635"/>
	</g>
	<g>
		<path fill="#F7F7F7" d="M146.058,171.554c0,1.381-0.872,2.503-1.952,2.503c-1.077,0-1.95-1.12-1.95-2.503s0.872-2.502,1.95-2.502
			C145.188,169.052,146.058,170.173,146.058,171.554z"/>
	</g>
	<g>
		<ellipse fill="#F7F7F7" cx="12.952" cy="183.548" rx="2.978" ry="3.638"/>
	</g>
	<g>
		<ellipse fill="#F7F7F7" cx="100.013" cy="29.65" rx="3.094" ry="4.621"/>
	</g>
	<g>
		<path fill="#F7F7F7" d="M149.79,30.836c0,1.387-1.087,2.508-2.419,2.508c-1.33,0-2.416-1.121-2.416-2.508
			c0-1.38,1.084-2.502,2.416-2.502C148.703,28.333,149.79,29.456,149.79,30.836z"/>
	</g>
	<g>
		<path fill="#F7F7F7" d="M194.163,49.54c0,1.386-0.88,2.508-1.952,2.508c-1.082,0-1.953-1.122-1.953-2.508
			c0-1.381,0.871-2.502,1.953-2.502C193.284,47.037,194.163,48.157,194.163,49.54z"/>
	</g>
	<g>
		<path fill="#F7F7F7" d="M131.755,77.906c0,2.01-1.33,3.637-2.978,3.637c-1.644,0-2.979-1.627-2.979-3.637
			c0-2.004,1.333-3.63,2.979-3.63C130.424,74.276,131.755,75.902,131.755,77.906z"/>
	</g>
	<g>
		<path fill="#F7F7F7" d="M142.789,89.556c0,1.101-1.103,1.99-2.461,1.99c-1.355,0-2.456-0.889-2.456-1.99
			c0-1.095,1.101-1.987,2.456-1.987C141.686,87.569,142.789,88.461,142.789,89.556z"/>
	</g>
	<g>
		<ellipse fill="#F7F7F7" cx="133.476" cy="138.428" rx="3.097" ry="4.622"/>
	</g>
	<g>
		<path fill="#F7F7F7" d="M149.392,131.43c0,1.383-1.083,2.504-2.415,2.504c-1.335,0-2.421-1.122-2.421-2.504
			c0-1.379,1.086-2.503,2.421-2.503C148.308,128.927,149.392,130.05,149.392,131.43z"/>
	</g>
	<g>
		<ellipse fill="#F7F7F7" cx="165.536" cy="32.956" rx="3.093" ry="4.623"/>
	</g>
	<g>
		<ellipse fill="#F7F7F7" cx="160.438" cy="73.03" rx="2.979" ry="3.635"/>
	</g>
	<g>
		<path fill="#F7F7F7" d="M168.233,133.545c0,2.559-1.388,4.622-3.096,4.622c-1.711,0-3.092-2.063-3.092-4.622
			c0-2.547,1.38-4.618,3.092-4.618C166.845,128.927,168.233,130.998,168.233,133.545z"/>
	</g>
	<g>
		<path fill="#F7F7F7" d="M160.558,119.235c0,2.554-1.385,4.622-3.089,4.622c-1.715,0-3.094-2.068-3.094-4.622
			c0-2.552,1.379-4.622,3.094-4.622C159.173,114.614,160.558,116.683,160.558,119.235z"/>
	</g>
	<g>
		<ellipse fill="#F7F7F7" cx="152.372" cy="159.312" rx="2.979" ry="3.631"/>
	</g>
	<g>
		<path fill="#F7F7F7" d="M193.761,150.134c0,1.381-0.872,2.503-1.948,2.503c-1.087,0-1.954-1.123-1.954-2.503
			c0-1.383,0.866-2.505,1.954-2.505C192.887,147.629,193.761,148.75,193.761,150.134z"/>
	</g>
	<g>
		<ellipse fill="#F7F7F7" cx="128.379" cy="178.502" rx="2.979" ry="3.633"/>
	</g>
	<g>
		<path fill="#F7F7F7" d="M89.121,61.224c0,1.383-1.08,2.503-2.418,2.503c-1.332,0-2.411-1.121-2.411-2.503
			c0-1.38,1.077-2.504,2.411-2.504C88.04,58.72,89.121,59.844,89.121,61.224z"/>
	</g>
	<g>
		<path fill="#F7F7F7" d="M82.12,119.948c0,1.098-1.096,1.99-2.459,1.99c-1.356,0-2.455-0.893-2.455-1.99
			c0-1.097,1.098-1.989,2.455-1.989C81.024,117.959,82.12,118.851,82.12,119.948z"/>
	</g>
	<g>
		<path fill="#F7F7F7" d="M88.725,161.819c0,1.382-1.085,2.501-2.419,2.501c-1.33,0-2.41-1.119-2.41-2.501
			c0-1.384,1.079-2.506,2.41-2.506C87.641,159.313,88.725,160.435,88.725,161.819z"/>
	</g>
	<g>
		<path fill="#F7F7F7" d="M107.963,63.343c0,2.552-1.38,4.623-3.095,4.623c-1.704,0-3.091-2.071-3.091-4.623
			s1.386-4.623,3.091-4.623C106.583,58.72,107.963,60.791,107.963,63.343z"/>
	</g>
	<g>
		<ellipse fill="#F7F7F7" cx="99.773" cy="103.419" rx="2.978" ry="3.635"/>
	</g>
	<g>
		<ellipse fill="#F7F7F7" cx="104.47" cy="163.934" rx="3.095" ry="4.623"/>
	</g>
	<g>
		<path fill="#F7F7F7" d="M99.896,149.625c0,2.552-1.386,4.62-3.095,4.62c-1.709,0-3.097-2.067-3.097-4.62
			c0-2.555,1.388-4.625,3.097-4.625C98.511,145.001,99.896,147.071,99.896,149.625z"/>
	</g>
	<g>
		<path fill="#F7F7F7" d="M94.682,189.7c0,2.006-1.33,3.63-2.98,3.63c-1.644,0-2.975-1.624-2.975-3.63
			c0-2.013,1.33-3.638,2.975-3.638C93.349,186.062,94.682,187.687,94.682,189.7z"/>
	</g>
	<g>
		<path fill="#F7F7F7" d="M108.352,57.103c0,1.383-0.877,2.504-1.951,2.504s-1.953-1.121-1.953-2.504c0-1.38,0.88-2.503,1.953-2.503
			C107.475,54.599,108.352,55.722,108.352,57.103z"/>
	</g>
	<g>
		<ellipse fill="#F7F7F7" cx="79.729" cy="40.519" rx="3.093" ry="4.623"/>
	</g>
	<g>
		<path fill="#F7F7F7" d="M77.61,80.594c0,2.007-1.332,3.636-2.982,3.636c-1.646,0-2.98-1.627-2.98-3.636
			c0-2.005,1.332-3.637,2.98-3.637C76.278,76.957,77.61,78.586,77.61,80.594z"/>
	</g>
	<g>
		<ellipse fill="#F7F7F7" cx="79.33" cy="141.107" rx="3.094" ry="4.623"/>
	</g>
	<g>
		<ellipse fill="#F7F7F7" cx="71.658" cy="126.8" rx="3.092" ry="4.622"/>
	</g>
	<g>
		<path fill="#F7F7F7" d="M69.54,166.875c0,2.006-1.335,3.633-2.979,3.633c-1.646,0-2.98-1.627-2.98-3.633
			c0-2.011,1.332-3.636,2.98-3.636C68.205,163.239,69.54,164.864,69.54,166.875z"/>
	</g>
	<g>
		<path fill="#F7F7F7" d="M107.951,157.697c0,1.38-0.873,2.504-1.949,2.504c-1.08,0-1.953-1.122-1.953-2.504
			c0-1.385,0.873-2.508,1.953-2.508C107.076,155.189,107.951,156.311,107.951,157.697z"/>
	</g>
	<g>
		<ellipse fill="#F7F7F7" cx="90.672" cy="64.051" rx="2.978" ry="3.635"/>
	</g>
	<g>
		<path fill="#F7F7F7" d="M98.463,124.57c0,2.552-1.38,4.622-3.095,4.622c-1.7,0-3.09-2.07-3.09-4.622
			c0-2.553,1.388-4.622,3.09-4.622C97.083,119.948,98.463,122.017,98.463,124.57z"/>
	</g>
	<g>
		<ellipse fill="#F7F7F7" cx="90.273" cy="164.641" rx="2.979" ry="3.636"/>
	</g>
	<g>
		<path fill="#F7F7F7" d="M68.568,137.686c0,1.38-1.079,2.505-2.416,2.505c-1.332,0-2.416-1.123-2.416-2.505
			c0-1.385,1.081-2.508,2.416-2.508C67.489,135.18,68.568,136.301,68.568,137.686z"/>
	</g>
	<g>
		<ellipse fill="#F7F7F7" cx="59.109" cy="196.402" rx="2.457" ry="1.99"/>
	</g>
	<g>
		<path fill="#F7F7F7" d="M68.166,238.271c0,1.383-1.077,2.503-2.417,2.503c-1.332,0-2.408-1.12-2.408-2.503
			s1.075-2.502,2.408-2.502C67.087,235.769,68.166,236.889,68.166,238.271z"/>
	</g>
	<g>
		<ellipse fill="#F7F7F7" cx="84.314" cy="139.802" rx="3.093" ry="4.62"/>
	</g>
	<g>
		<ellipse fill="#F7F7F7" cx="79.218" cy="179.876" rx="2.977" ry="3.631"/>
	</g>
	<g>
		<path fill="#F7F7F7" d="M87.01,240.387c0,2.555-1.379,4.624-3.095,4.624c-1.7,0-3.09-2.069-3.09-4.624
			c0-2.55,1.389-4.618,3.09-4.618C85.629,235.769,87.01,237.837,87.01,240.387z"/>
	</g>
	<g>
		<ellipse fill="#F7F7F7" cx="76.243" cy="226.078" rx="3.094" ry="4.622"/>
	</g>
	<g>
		<ellipse fill="#F7F7F7" cx="71.145" cy="266.151" rx="2.979" ry="3.633"/>
	</g>
	<g>
		<path fill="#F7F7F7" d="M87.796,133.563c0,1.384-0.871,2.506-1.954,2.506c-1.073,0-1.947-1.119-1.947-2.506
			c0-1.382,0.873-2.506,1.947-2.506C86.925,131.057,87.796,132.18,87.796,133.563z"/>
	</g>
	<g>
		<path fill="#F7F7F7" d="M62.267,116.978c0,2.552-1.386,4.622-3.096,4.622c-1.7,0-3.091-2.07-3.091-4.622s1.388-4.622,3.091-4.622
			C60.881,112.354,62.267,114.424,62.267,116.978z"/>
	</g>
	<g>
		<path fill="#F7F7F7" d="M57.053,157.052c0,2.005-1.333,3.631-2.973,3.631c-1.649,0-2.982-1.626-2.982-3.631
			c0-2.005,1.333-3.635,2.982-3.635C55.719,153.417,57.053,155.044,57.053,157.052z"/>
	</g>
	<g>
		<ellipse fill="#F7F7F7" cx="58.774" cy="217.564" rx="3.094" ry="4.623"/>
	</g>
	<g>
		<ellipse fill="#F7F7F7" cx="51.101" cy="203.253" rx="3.096" ry="4.622"/>
	</g>
	<g>
		<ellipse fill="#F7F7F7" cx="46.004" cy="243.327" rx="2.98" ry="3.633"/>
	</g>
	<g>
		<ellipse fill="#F7F7F7" cx="85.445" cy="234.151" rx="1.952" ry="2.503"/>
	</g>
	<g>
		<path fill="#F7F7F7" d="M73.099,140.51c0,2.005-1.336,3.636-2.979,3.636c-1.649,0-2.98-1.631-2.98-3.636
			c0-2.008,1.33-3.635,2.98-3.635C71.762,136.875,73.099,138.502,73.099,140.51z"/>
	</g>
	<g>
		<ellipse fill="#F7F7F7" cx="74.813" cy="201.021" rx="3.095" ry="4.624"/>
	</g>
	<g>
		<ellipse fill="#F7F7F7" cx="206.666" cy="192.077" rx="2.978" ry="3.633"/>
	</g>
	<g>
		<path fill="#F7F7F7" d="M190.72,173.165c0,1.379-1.08,2.503-2.412,2.503c-1.335,0-2.419-1.121-2.419-2.503
			c0-1.387,1.083-2.509,2.419-2.509C189.639,170.656,190.72,171.777,190.72,173.165z"/>
	</g>
	<g>
		<path fill="#F7F7F7" d="M209.562,175.278c0,2.555-1.379,4.622-3.093,4.622c-1.705,0-3.091-2.067-3.091-4.622
			c0-2.552,1.385-4.622,3.091-4.622C208.18,170.656,209.562,172.726,209.562,175.278z"/>
	</g>
	<g>
		<path fill="#F7F7F7" d="M196.679,201.041c0,2.006-1.332,3.638-2.984,3.638c-1.638,0-2.978-1.632-2.978-3.638
			c0-2.007,1.338-3.633,2.978-3.633C195.347,197.408,196.679,199.034,196.679,201.041z"/>
	</g>
	<g>
		<ellipse fill="#F7F7F7" cx="168.557" cy="178.217" rx="2.979" ry="3.637"/>
	</g>
	<g>
		<ellipse fill="#F7F7F7" cx="192.272" cy="175.986" rx="2.98" ry="3.636"/>
	</g>
	<g>
		<path fill="#F7F7F7" d="M163.564,207.748c0,1.096-1.097,1.99-2.453,1.99c-1.365,0-2.461-0.895-2.461-1.99s1.096-1.986,2.461-1.986
			C162.467,205.761,163.564,206.652,163.564,207.748z"/>
	</g>
	<g>
		<path fill="#F7F7F7" d="M184.197,191.222c0,2.005-1.334,3.631-2.98,3.631c-1.645,0-2.98-1.626-2.98-3.631
			c0-2.008,1.336-3.638,2.98-3.638C182.862,187.584,184.197,189.214,184.197,191.222z"/>
	</g>
	<g>
		<ellipse fill="#F7F7F7" cx="153.101" cy="214.599" rx="3.093" ry="4.621"/>
	</g>
	<g>
		<ellipse fill="#F7F7F7" cx="176.815" cy="212.37" rx="3.092" ry="4.62"/>
	</g>
	<g>
		<path fill="#F7F7F7" d="M88.931,113.406c0,2.008-1.338,3.638-2.981,3.638c-1.648,0-2.981-1.63-2.981-3.638
			c0-2.005,1.332-3.635,2.981-3.635C87.594,109.772,88.931,111.401,88.931,113.406z"/>
	</g>
	<g>
		<ellipse fill="#F7F7F7" cx="67.59" cy="94.489" rx="2.417" ry="2.502"/>
	</g>
	<g>
		<ellipse fill="#F7F7F7" cx="85.752" cy="96.607" rx="3.094" ry="4.624"/>
	</g>
	<g>
		<ellipse fill="#F7F7F7" cx="72.984" cy="122.372" rx="2.978" ry="3.633"/>
	</g>
	<g>
		<ellipse fill="#F7F7F7" cx="47.842" cy="99.545" rx="2.978" ry="3.634"/>
	</g>
	<g>
		<ellipse fill="#F7F7F7" cx="71.556" cy="97.316" rx="2.978" ry="3.635"/>
	</g>
	<g>
		<path fill="#F7F7F7" d="M42.848,129.081c0,1.096-1.104,1.985-2.46,1.985s-2.456-0.888-2.456-1.985c0-1.101,1.1-1.989,2.456-1.989
			S42.848,127.979,42.848,129.081z"/>
	</g>
	<g>
		<ellipse fill="#F7F7F7" cx="60.5" cy="112.551" rx="2.978" ry="3.637"/>
	</g>
	<g>
		<path fill="#F7F7F7" d="M35.476,135.928c0,2.552-1.384,4.622-3.095,4.622c-1.71,0-3.093-2.07-3.093-4.622
			c0-2.547,1.383-4.618,3.093-4.618C34.092,131.31,35.476,133.38,35.476,135.928z"/>
	</g>
	<g>
		<path fill="#F7F7F7" d="M59.191,133.699c0,2.552-1.386,4.623-3.096,4.623c-1.71,0-3.089-2.071-3.089-4.623
			c0-2.55,1.377-4.618,3.089-4.618C57.806,129.081,59.191,131.149,59.191,133.699z"/>
	</g>
	<g>
		<ellipse fill="#F7F7F7" cx="69.718" cy="241.098" rx="2.978" ry="3.633"/>
	</g>
	<g>
		<path fill="#F7F7F7" d="M85.966,226.21c0,1.099-1.103,1.987-2.457,1.987c-1.357,0-2.461-0.889-2.461-1.987
			c0-1.101,1.103-1.99,2.461-1.99C84.865,224.22,85.966,225.11,85.966,226.21z"/>
	</g>
	<g>
		<ellipse fill="#F7F7F7" cx="184.966" cy="88.907" rx="3.095" ry="2.503"/>
	</g>
	<g>
		<ellipse fill="#F7F7F7" cx="20.736" cy="130.979" rx="3.093" ry="2.504"/>
	</g>
</g>
<g>
	<g>
		<g>
			<g enable-background="new    ">
				<path fill="#F7F7F7" d="M167.638,132.325c-0.039,1.792,0.982,3.094,3.024,3.094c0.765,0,1.689-0.129,2.552-0.553
					c0.059-0.022,0.118,0,0.118,0.104v1.73c0,0.147-0.021,0.191-0.118,0.254c-0.785,0.405-1.727,0.599-3.063,0.599
					c-3.671,0-4.986-2.667-4.986-5.354c0-3.008,1.688-5.439,4.751-5.439c2.964,0,4.163,2.411,4.163,4.182
					c0,0.96-0.099,1.173-0.177,1.237c-0.256,0.128-0.963,0.147-2.081,0.147H167.638L167.638,132.325z M170.899,130.662
					c0.767,0,0.884-0.084,0.903-0.17c0-0.021,0-0.106,0-0.171c-0.02-0.427-0.412-1.707-2.001-1.707c-1.354,0-2.022,1.003-2.16,2.048
					H170.899z"/>
				<path fill="#F7F7F7" d="M176.705,129.446c0-0.746-0.039-1.897-0.078-2.304c-0.02-0.106,0.02-0.171,0.138-0.171h1.826
					c0.136,0,0.195,0.042,0.234,0.15c0.059,0.213,0.099,0.575,0.138,0.875c0.844-0.789,1.964-1.237,3.042-1.237
					c1.59,0,3.319,0.896,3.319,4.416v5.975c0,0.126-0.059,0.19-0.177,0.19h-2.062c-0.117,0-0.176-0.064-0.176-0.19v-5.996
					c0-1.429-0.53-2.262-1.748-2.262c-0.766,0-1.511,0.427-2.042,0.96v7.317c0,0.128-0.059,0.17-0.157,0.17h-2.103
					c-0.098,0-0.156-0.064-0.156-0.19v-7.704H176.705z"/>
				<path fill="#F7F7F7" d="M188.069,132.262c0-3.092,2.121-5.503,5.576-5.503c0.491,0,0.825,0.043,1.179,0.15v-4.628
					c0-0.106,0.039-0.15,0.138-0.15h2.16c0.099,0,0.117,0.043,0.117,0.129v12.605c0,0.47,0.021,1.089,0.059,1.409
					c0,0.107-0.02,0.149-0.119,0.191c-1.275,0.704-2.709,1.087-4.045,1.087C190.169,137.551,188.069,135.823,188.069,132.262z
					 M194.823,128.956c-0.295-0.128-0.727-0.213-1.219-0.213c-1.805,0-3.042,1.215-3.042,3.391c0,2.41,1.336,3.327,2.867,3.327
					c0.51,0,1.021-0.064,1.394-0.213V128.956z"/>
				<path fill="#F7F7F7" d="M209.857,132.112c0,3.349-2.023,5.439-4.929,5.439c-3.514,0-4.948-2.708-4.948-5.375
					c0-3.157,1.983-5.418,5.006-5.418C208.129,126.758,209.857,129.169,209.857,132.112z M202.434,132.112
					c0,2.154,0.923,3.52,2.552,3.52c1.257,0,2.416-1.003,2.416-3.456c0-2.005-0.766-3.499-2.533-3.499
					C203.456,128.679,202.434,130,202.434,132.112z"/>
				<path fill="#F7F7F7" d="M219.531,136.869c0,0.107-0.02,0.149-0.099,0.193c-0.668,0.361-1.432,0.49-2.455,0.49
					c-3.278,0-4.889-2.367-4.889-5.331c0-3.157,2.081-5.461,5.302-5.461c1.099,0,1.747,0.235,2.061,0.385
					c0.079,0.063,0.118,0.106,0.118,0.235l-0.021,1.728c0,0.128-0.078,0.149-0.158,0.106c-0.51-0.235-1.041-0.384-1.845-0.384
					c-1.806,0-2.964,1.3-2.964,3.306c0,2.324,1.355,3.285,2.907,3.285c0.921,0,1.453-0.171,1.904-0.405
					c0.099-0.022,0.138,0.022,0.138,0.107V136.869L219.531,136.869z"/>
				<path fill="#F7F7F7" d="M224.081,126.971c0.138,0,0.178,0.042,0.217,0.192c0.099,0.277,0.177,0.833,0.216,1.301
					c0.746-1.11,2.001-1.707,2.964-1.707c0.078,0,0.176,0,0.274,0.021c0.098,0.021,0.117,0.042,0.117,0.213v2.004
					c0,0.106-0.038,0.15-0.156,0.15c-1.119-0.043-2.395,0.469-3.122,1.3v6.719c0,0.128-0.039,0.17-0.157,0.17h-2.081
					c-0.136,0-0.177-0.064-0.177-0.19v-7.169c0-0.875-0.04-2.154-0.099-2.879c-0.02-0.085,0.02-0.129,0.117-0.129h1.885V126.971z"/>
				<path fill="#F7F7F7" d="M229.852,122.833c0-0.81,0.55-1.365,1.354-1.365c0.806,0,1.295,0.554,1.295,1.365
					c0,0.789-0.53,1.345-1.334,1.345C230.382,124.178,229.852,123.644,229.852,122.833z M229.97,127.142
					c0-0.128,0.038-0.171,0.157-0.171h2.1c0.117,0,0.157,0.021,0.157,0.171v10.005c0,0.128-0.041,0.191-0.157,0.191h-2.081
					c-0.117,0-0.177-0.043-0.177-0.191V127.142z"/>
				<path fill="#F7F7F7" d="M235.583,129.446c0-0.746-0.04-1.897-0.079-2.304c-0.02-0.106,0.02-0.171,0.138-0.171h1.826
					c0.137,0,0.196,0.042,0.234,0.15c0.058,0.213,0.099,0.575,0.138,0.875c0.843-0.789,1.963-1.237,3.043-1.237
					c1.589,0,3.317,0.896,3.317,4.416v5.975c0,0.126-0.058,0.19-0.176,0.19h-2.062c-0.118,0-0.177-0.064-0.177-0.19v-5.996
					c0-1.429-0.53-2.262-1.748-2.262c-0.764,0-1.511,0.427-2.042,0.96v7.317c0,0.128-0.059,0.17-0.157,0.17h-2.101
					c-0.099,0-0.156-0.064-0.156-0.19v-7.704H235.583z"/>
				<path fill="#F7F7F7" d="M249.399,132.325c-0.038,1.792,0.982,3.094,3.024,3.094c0.766,0,1.689-0.129,2.554-0.553
					c0.058-0.022,0.117,0,0.117,0.104v1.73c0,0.147-0.021,0.191-0.117,0.254c-0.786,0.405-1.729,0.599-3.063,0.599
					c-3.673,0-4.988-2.667-4.988-5.354c0-3.008,1.688-5.439,4.751-5.439c2.964,0,4.163,2.411,4.163,4.182
					c0,0.96-0.099,1.173-0.177,1.237c-0.256,0.128-0.963,0.147-2.081,0.147H249.399L249.399,132.325z M252.659,130.662
					c0.767,0,0.884-0.084,0.903-0.17c0-0.021,0-0.106,0-0.171c-0.02-0.427-0.412-1.707-2.001-1.707c-1.354,0-2.022,1.003-2.16,2.048
					H252.659z"/>
				<path fill="#F7F7F7" d="M266.769,128.721c-0.942,0-1.198,0.491-1.198,0.896c0,0.533,0.277,0.789,1.748,1.408
					c2.062,0.875,2.983,1.622,2.983,3.262c0,2.092-1.511,3.264-3.75,3.264c-1.04,0-2.258-0.256-3.122-0.831
					c-0.099-0.064-0.138-0.129-0.138-0.234v-1.984c0-0.107,0.079-0.149,0.138-0.107c1.059,0.727,2.218,1.194,3.279,1.194
					c0.942,0,1.256-0.512,1.256-0.96c0-0.534-0.334-0.853-1.805-1.472c-2.101-0.895-2.828-1.727-2.828-3.306
					c0-1.727,1.276-3.093,3.692-3.093c1.218,0,2.081,0.277,2.67,0.641c0.098,0.063,0.098,0.128,0.098,0.256v1.77
					c0,0.129-0.059,0.213-0.156,0.129C268.888,129.125,267.829,128.721,266.769,128.721z"/>
				<path fill="#F7F7F7" d="M274.069,126.971c0.098,0,0.156,0.042,0.176,0.15c1.611,4.586,2.238,6.463,2.454,7.229h0.021
					c0.806-2.261,1.572-4.927,2.179-7.229c0.021-0.106,0.078-0.15,0.196-0.15h1.983c0.157,0,0.157,0.085,0.138,0.192
					c-0.57,2.624-1.984,6.591-3.3,9.535c-1.237,2.708-2.357,4.585-2.944,5.332c-0.099,0.107-0.157,0.17-0.334,0.17h-2.299
					c-0.117,0-0.177-0.128-0.078-0.234c0.924-1.173,2.514-3.732,3.064-4.949c0.037-0.106,0.099-0.234,0.059-0.362
					c-0.511-1.152-3.122-7.722-3.771-9.514c-0.038-0.106,0.021-0.171,0.118-0.171H274.069z"/>
				<path fill="#F7F7F7" d="M286.553,128.721c-0.943,0-1.199,0.491-1.199,0.896c0,0.533,0.275,0.789,1.746,1.408
					c2.062,0.875,2.986,1.622,2.986,3.262c0,2.092-1.513,3.264-3.75,3.264c-1.043,0-2.26-0.256-3.124-0.831
					c-0.098-0.064-0.136-0.129-0.136-0.234v-1.984c0-0.107,0.076-0.149,0.136-0.107c1.061,0.727,2.22,1.194,3.281,1.194
					c0.941,0,1.256-0.512,1.256-0.96c0-0.534-0.335-0.853-1.806-1.472c-2.103-0.895-2.829-1.727-2.829-3.306
					c0-1.727,1.276-3.093,3.693-3.093c1.218,0,2.08,0.277,2.67,0.641c0.098,0.063,0.098,0.128,0.098,0.256v1.77
					c0,0.129-0.059,0.213-0.156,0.129C288.672,129.125,287.614,128.721,286.553,128.721z"/>
				<path fill="#F7F7F7" d="M297.464,136.932c0,0.13-0.021,0.193-0.118,0.256c-0.55,0.278-1.178,0.363-1.826,0.363
					c-1.631,0-2.612-0.853-2.612-2.986v-5.632l-1.236-0.043c-0.117-0.021-0.136-0.084-0.136-0.192v-1.558
					c0-0.128,0.038-0.171,0.156-0.171h1.235c0.021-0.746,0.1-2.133,0.216-2.708c0.021-0.106,0.061-0.15,0.138-0.171l2.042-0.427
					c0.079-0.021,0.138-0.021,0.138,0.106c-0.059,0.726-0.099,2.176-0.118,3.199h2.043c0.098,0,0.137,0.042,0.137,0.15v1.6
					c0,0.129-0.039,0.149-0.137,0.171l-2.062,0.042v5.182c0,0.96,0.276,1.431,1.14,1.431c0.255,0,0.511-0.043,0.864-0.172
					c0.077-0.021,0.135,0,0.135,0.129v1.43H297.464z"/>
				<path fill="#F7F7F7" d="M301.723,132.325c-0.037,1.792,0.981,3.094,3.024,3.094c0.765,0,1.689-0.129,2.553-0.553
					c0.06-0.022,0.118,0,0.118,0.104v1.73c0,0.147-0.02,0.191-0.118,0.254c-0.785,0.405-1.729,0.599-3.062,0.599
					c-3.672,0-4.987-2.667-4.987-5.354c0-3.008,1.688-5.439,4.751-5.439c2.965,0,4.164,2.411,4.164,4.182
					c0,0.96-0.099,1.173-0.178,1.237c-0.255,0.128-0.963,0.147-2.081,0.147H301.723L301.723,132.325z M304.983,130.662
					c0.766,0,0.883-0.084,0.902-0.17c0-0.021,0-0.106,0-0.171c-0.02-0.427-0.411-1.707-2.002-1.707c-1.355,0-2.023,1.003-2.16,2.048
					H304.983z"/>
				<path fill="#F7F7F7" d="M325.418,130.96v6.207c0,0.128-0.079,0.171-0.178,0.171h-2.062c-0.118,0-0.178-0.065-0.178-0.191v-6.101
					c0-1.237-0.433-2.154-1.669-2.154c-0.746,0-1.453,0.363-2.121,0.981c0.061,0.256,0.099,0.662,0.099,1.088v6.188
					c0,0.126-0.038,0.19-0.157,0.19h-2.062c-0.136,0-0.196-0.042-0.196-0.19v-6.102c0-1.429-0.588-2.154-1.668-2.154
					c-0.746,0-1.375,0.363-2.022,0.917v7.359c0,0.106-0.04,0.17-0.157,0.17h-2.102c-0.118,0-0.155-0.064-0.155-0.191v-7.893
					c0-0.854-0.041-1.727-0.079-2.112c-0.02-0.106,0.021-0.171,0.138-0.171h1.845c0.118,0,0.157,0.042,0.216,0.128
					c0.062,0.192,0.119,0.662,0.138,0.938c0.942-0.833,1.924-1.279,3.024-1.279c1.1,0,1.982,0.406,2.571,1.493
					c0.963-0.833,2.003-1.493,3.497-1.493C323.552,126.758,325.418,127.696,325.418,130.96z"/>
			</g>
		</g>
	</g>
</g>
<g>
	<path fill="#F7F7F7" d="M154.582-20.331c-0.628,0-1.238-0.117-1.814-0.35c-1.212-0.482-2.167-1.409-2.683-2.609
		c-0.517-1.201-0.535-2.532-0.049-3.746l2.1-5.264c-2.035-1.736-3.651-3.787-4.814-6.11l-3.997,0.794
		c-0.308,0.062-0.632,0.094-0.961,0.094c-2.323,0-4.338-1.656-4.793-3.938c-0.257-1.282,0.001-2.588,0.728-3.674
		c0.726-1.087,1.832-1.827,3.115-2.081l3.886-0.775c0.118-2.457,0.708-4.855,1.758-7.143l-4.742-6.327
		c-0.785-1.046-1.115-2.335-0.93-3.629c0.185-1.294,0.864-2.437,1.911-3.22c0.855-0.64,1.87-0.979,2.936-0.979
		c1.555,0,2.982,0.715,3.913,1.96l3.328,4.436c1.917-1.378,4.011-2.378,6.242-2.979l-0.003-0.495
		c-0.021-2.7,2.158-4.913,4.856-4.933c2.717,0,4.913,2.179,4.931,4.857l0.005,0.471c2.867,0.725,5.574,2.14,7.886,4.122l4.322-3.701
		c0.891-0.758,2.022-1.174,3.186-1.174c1.431,0,2.785,0.623,3.712,1.71c0.852,0.993,1.265,2.259,1.164,3.562s-0.706,2.489-1.7,3.34
		l-5.031,4.309c0.575,1.573,0.939,3.291,1.088,5.118l6.433,2.334c2.535,0.919,3.852,3.733,2.936,6.272
		c-0.701,1.931-2.551,3.226-4.604,3.226c-0.563,0-1.124-0.099-1.665-0.291l-4.758-1.728c-0.687,1.46-1.604,2.862-2.788,4.261
		l1.196,1.596c0.785,1.043,1.115,2.331,0.931,3.625c-0.186,1.294-0.864,2.44-1.913,3.224c-0.852,0.641-1.866,0.98-2.929,0.98
		c-1.559,0-2.989-0.714-3.921-1.961l-1.283-1.715c-2.251,0.871-4.605,1.313-7.006,1.313c-1.22,0-2.474-0.135-3.823-0.412
		l-1.812,4.543C158.381-21.54,156.596-20.331,154.582-20.331z M148.031-39.822l0.207,0.443c1.156,2.468,2.853,4.623,5.039,6.406
		l0.356,0.29l-2.439,6.11c-0.362,0.905-0.349,1.895,0.037,2.79c0.384,0.893,1.094,1.584,2.001,1.944
		c0.429,0.174,0.882,0.26,1.349,0.26c1.501,0,2.832-0.901,3.386-2.296l2.205-5.531l0.521,0.119c1.457,0.333,2.788,0.495,4.068,0.495
		c2.398,0,4.745-0.471,6.978-1.399l0.449-0.186l1.862,2.487c0.696,0.928,1.76,1.46,2.922,1.46c0.791,0,1.543-0.252,2.181-0.73
		c0.781-0.586,1.287-1.438,1.425-2.403c0.138-0.962-0.108-1.922-0.694-2.699l-1.801-2.404l0.335-0.381
		c1.407-1.596,2.439-3.183,3.151-4.85l0.231-0.543l5.854,2.125c1.872,0.666,4.008-0.354,4.674-2.186
		c0.681-1.891-0.3-3.988-2.188-4.673l-7.199-2.613l-0.025-0.408c-0.125-2.014-0.525-3.884-1.191-5.563l-0.163-0.414l5.704-4.887
		c0.741-0.634,1.192-1.518,1.267-2.489c0.074-0.97-0.234-1.912-0.868-2.654c-1.254-1.467-3.664-1.653-5.142-0.396l-5.15,4.409
		l-0.406-0.369c-2.367-2.143-5.209-3.632-8.216-4.307l-0.484-0.107l-0.015-1.456c-0.015-1.997-1.649-3.62-3.645-3.62
		c-2.038,0.015-3.663,1.664-3.647,3.676l0.011,1.48l-0.481,0.116c-2.44,0.589-4.715,1.684-6.762,3.253l-0.501,0.384l-4.079-5.438
		c-0.695-0.929-1.756-1.46-2.914-1.46c-0.795,0-1.551,0.252-2.187,0.73c-0.78,0.583-1.285,1.434-1.423,2.398
		c-0.138,0.963,0.107,1.924,0.692,2.703l5.195,6.931l-0.165,0.341c-1.148,2.383-1.759,4.898-1.816,7.475l-0.011,0.5l-4.862,0.969
		c-0.957,0.189-1.781,0.74-2.321,1.55c-0.54,0.809-0.732,1.781-0.541,2.737c0.338,1.701,1.839,2.935,3.568,2.935
		c0.246,0,0.485-0.024,0.715-0.069L148.031-39.822z"/>
</g>
<g>
	<path fill="#F7F7F7" d="M246.2,268.006c-0.871,0-1.619-0.592-1.821-1.438l-0.71-2.973c-0.674-0.082-1.327-0.253-1.956-0.508
		l-2.287,2.131c-0.741,0.682-1.971,0.628-2.646-0.093c-0.704-0.754-0.662-1.942,0.094-2.646l1.796-1.676
		c-0.455-0.56-0.821-1.169-1.095-1.819l-1.131,0.195c-1.031,0.183-1.989-0.522-2.16-1.529c-0.085-0.492,0.027-0.987,0.316-1.396
		c0.288-0.407,0.719-0.68,1.211-0.764l1.229-0.21c0.093-0.959,0.354-1.861,0.778-2.687c0.239-0.467,0.524-0.905,0.848-1.31
		l-1.541-1.762c-0.679-0.779-0.597-1.964,0.179-2.644c0.749-0.655,1.992-0.568,2.643,0.183l1.736,1.984
		c0.976-0.406,1.988-0.621,3.035-0.583l0.547-1.925c0.275-0.97,1.343-1.57,2.313-1.289c0.991,0.284,1.567,1.322,1.286,2.314
		l-0.537,1.886c0.834,0.476,1.574,1.109,2.176,1.858l3.515-0.602c1.065-0.174,1.989,0.523,2.161,1.523
		c0.174,1.018-0.511,1.986-1.528,2.162l-2.579,0.441c0.125,0.756,0.134,1.519,0.028,2.28l1.63,0.816
		c0.921,0.465,1.297,1.594,0.832,2.518c-0.447,0.89-1.592,1.285-2.511,0.833l-1.382-0.695c-0.836,1.132-1.97,2.007-3.268,2.526
		l0.618,2.588c0.237,1.003-0.384,2.015-1.386,2.256C246.479,267.992,246.339,268.006,246.2,268.006z M241.475,261.605l0.383,0.182
		c0.738,0.352,1.532,0.553,2.354,0.604l0.462,0.027l0.921,3.858c0.078,0.324,0.358,0.559,0.761,0.461
		c0.325-0.078,0.534-0.416,0.453-0.75l-0.882-3.699l0.556-0.175c1.426-0.444,2.652-1.393,3.457-2.667l0.301-0.479l2.373,1.193
		c0.308,0.151,0.689,0.018,0.837-0.277c0.155-0.311,0.031-0.688-0.276-0.843l-2.471-1.237l0.096-0.471
		c0.195-0.951,0.172-1.911-0.072-2.854l-0.168-0.655l3.885-0.667c0.339-0.058,0.568-0.38,0.509-0.719
		c-0.051-0.297-0.311-0.514-0.617-0.514l-4.377,0.741l-0.227-0.316c-0.599-0.829-1.354-1.483-2.252-1.944l-0.486-0.224l-0.005-0.58
		l0.678-2.383c0.095-0.332-0.099-0.678-0.429-0.772c-0.335-0.093-0.678,0.107-0.771,0.431l-0.826,2.906l-0.513-0.042
		c-0.206-0.02-0.372-0.033-0.539-0.033c-0.962,0-1.901,0.221-2.797,0.657l-0.428,0.209l-2.357-2.693
		c-0.218-0.25-0.63-0.279-0.879-0.061c-0.26,0.225-0.286,0.621-0.06,0.882l2.271,2.595l-0.387,0.414
		c-0.405,0.429-0.749,0.917-1.021,1.45c-0.414,0.807-0.64,1.706-0.675,2.674l-0.019,0.507l-2.211,0.378
		c-0.163,0.028-0.308,0.12-0.405,0.257c-0.095,0.135-0.133,0.3-0.104,0.463c0.052,0.302,0.31,0.521,0.614,0.521l2.272-0.385
		l0.169,0.507c0.291,0.862,0.77,1.647,1.422,2.333l0.437,0.458l-2.703,2.517c-0.252,0.235-0.267,0.632-0.034,0.883
		c0.223,0.24,0.637,0.259,0.886,0.028L241.475,261.605z"/>
</g>
<g>
	<path fill="#F7F7F7" d="M504.676,150.445c-1.112,0-2.1-0.749-2.401-1.816l-1.572-5.557c-0.15,0.011-0.3,0.016-0.453,0.016
		c-2.045,0-4.074-0.342-6.045-1.022l-1.908,3.421c-0.648,1.162-2.233,1.615-3.397,0.964c-1.202-0.671-1.633-2.195-0.962-3.397
		l1.798-3.223c-1.594-1.088-3.004-2.411-4.2-3.937l-3.308,1.192c-1.248,0.446-2.742-0.244-3.195-1.507
		c-0.227-0.625-0.193-1.304,0.09-1.906c0.285-0.604,0.786-1.062,1.415-1.286l2.427-0.874c-0.919-2.209-1.402-4.523-1.434-6.894
		h-2.645c-1.378,0-2.497-1.119-2.497-2.496c0-1.376,1.119-2.496,2.497-2.496h3.269c0.35-1.348,0.847-2.643,1.479-3.862l-6.117-4.01
		c-0.556-0.364-0.939-0.924-1.074-1.577c-0.137-0.653-0.01-1.321,0.357-1.88c0.727-1.112,2.343-1.455,3.455-0.716l6.256,4.103
		c0.783-0.849,1.638-1.621,2.552-2.305l-1.179-2.372c-0.61-1.233-0.105-2.735,1.127-3.349c1.215-0.602,2.748-0.073,3.346,1.126
		l1.066,2.15c1.396-0.55,2.85-0.929,4.335-1.129v-5.73c0-1.376,1.119-2.496,2.497-2.496c1.376,0,2.496,1.12,2.496,2.496v5.73
		c2.425,0.327,4.735,1.124,6.878,2.375l0.835-1.804c0.561-1.209,2.103-1.779,3.313-1.218c0.604,0.28,1.064,0.778,1.295,1.404
		s0.202,1.306-0.078,1.913l-1.322,2.855c1.071,1.102,2,2.319,2.766,3.631l5.965-2.613c1.229-0.542,2.75,0.06,3.289,1.283
		c0.549,1.26-0.028,2.735-1.29,3.291l-6.062,2.656c0.42,1.577,0.633,3.185,0.633,4.787c0,0.208-0.009,0.416-0.023,0.62l3.085,0.372
		c0.66,0.079,1.253,0.412,1.665,0.936c0.41,0.524,0.595,1.178,0.513,1.841c-0.159,1.347-1.348,2.312-2.761,2.182l-3.34-0.402
		c-0.513,1.656-1.245,3.22-2.184,4.661l2.408,2.693c0.916,1.024,0.829,2.606-0.193,3.525c-0.988,0.885-2.647,0.79-3.526-0.197
		l-1.984-2.217c-2.015,1.78-4.4,3.113-6.964,3.89l1.416,5.002c0.183,0.641,0.102,1.315-0.224,1.899
		c-0.324,0.583-0.858,1.003-1.499,1.184C505.137,150.413,504.907,150.445,504.676,150.445z M501.631,141.766l1.847,6.523
		c0.182,0.646,0.903,1.041,1.538,0.859c0.321-0.089,0.589-0.301,0.752-0.591c0.162-0.291,0.201-0.629,0.109-0.951l-1.756-6.211
		l0.611-0.164c2.8-0.746,5.397-2.196,7.51-4.197l0.466-0.442l2.835,3.169c0.441,0.495,1.264,0.544,1.763,0.097
		c0.509-0.458,0.553-1.25,0.095-1.762l-3.056-3.421l0.279-0.405c1.092-1.583,1.911-3.337,2.434-5.21l0.145-0.517l4.379,0.527
		c0.042,0.003,0.098,0.007,0.153,0.007c0.631,0,1.161-0.472,1.235-1.097c0.04-0.332-0.052-0.659-0.256-0.921
		c-0.206-0.263-0.501-0.428-0.833-0.468l-4.261-0.514l0.056-0.801c0.022-0.304,0.044-0.605,0.044-0.915
		c0-1.663-0.245-3.332-0.729-4.962l-0.156-0.528l7.063-3.095c0.631-0.279,0.922-1.016,0.648-1.645
		c-0.268-0.609-1.021-0.912-1.645-0.642l-7.009,3.07l-0.272-0.504c-0.825-1.522-1.881-2.917-3.137-4.149l-0.313-0.308l1.688-3.649
		c0.142-0.303,0.155-0.643,0.04-0.958c-0.115-0.312-0.345-0.562-0.646-0.701c-0.612-0.286-1.379,0.005-1.657,0.609l-1.43,3.084
		l-0.6-0.381c-2.31-1.461-4.834-2.344-7.507-2.622l-0.559-0.058v-6.847c0-0.688-0.559-1.248-1.248-1.248s-1.248,0.56-1.248,1.248
		v6.847l-0.56,0.059c-1.749,0.182-3.458,0.627-5.075,1.326l-0.543,0.234l-1.59-3.198c-0.295-0.598-1.062-0.865-1.674-0.565
		c-0.615,0.306-0.867,1.057-0.562,1.675l1.65,3.324l-0.438,0.309c-1.143,0.805-2.195,1.754-3.129,2.825l-0.357,0.411l-7.159-4.696
		c-0.562-0.373-1.364-0.196-1.725,0.358c-0.186,0.281-0.249,0.614-0.182,0.941c0.069,0.326,0.258,0.605,0.538,0.788l7.083,4.644
		l-0.285,0.508c-0.787,1.407-1.375,2.931-1.746,4.531l-0.114,0.482h-4.252c-0.688,0-1.248,0.56-1.248,1.248
		c0,0.688,0.56,1.248,1.248,1.248h3.922l-0.029,0.992c0,2.502,0.536,4.943,1.594,7.252l0.282,0.617l-3.694,1.329
		c-0.313,0.112-0.564,0.34-0.706,0.644c-0.143,0.302-0.158,0.64-0.045,0.953c0.227,0.634,0.983,0.978,1.596,0.753l4.175-1.501
		l0.277,0.371c1.281,1.722,2.844,3.176,4.646,4.323l0.496,0.317l-2.368,4.243c-0.337,0.6-0.119,1.363,0.481,1.698
		c0.577,0.325,1.373,0.101,1.697-0.483l2.43-4.354l0.502,0.189c2.186,0.821,4.485,1.248,6.716,1.098L501.631,141.766z
		 M501.724,123.341c-2.409,0-4.368-1.96-4.368-4.369c0-2.408,1.959-4.366,4.368-4.366c2.408,0,4.368,1.958,4.368,4.366
		C506.092,121.381,504.131,123.341,501.724,123.341z M501.724,115.854c-1.722,0-3.12,1.399-3.12,3.118
		c0,1.72,1.398,3.121,3.12,3.121c1.721,0,3.12-1.401,3.12-3.121C504.844,117.253,503.445,115.854,501.724,115.854z"/>
</g>
<g>
	<g>
		<g>
			<path fill="#F7F7F7" d="M346.624,210.356C346.623,210.356,346.624,210.356,346.624,210.356c-1.997,0-3.465-1.42-4.363-4.219
				c-1.091-3.398-0.803-6.633,0.858-9.619c4.719-8.491,18.802-12.107,19.399-12.257l0.229-0.058l0.209,0.108
				c0.979,0.504,1.205,1.882,0.668,4.096C361.919,195.448,352.781,210.356,346.624,210.356z M362.512,185.555
				c-2.099,0.583-14.22,4.223-18.303,11.572c-1.483,2.672-1.741,5.575-0.761,8.627c0.715,2.226,1.784,3.354,3.176,3.354
				c5.329,0.002,14.188-14.393,15.788-20.994C362.779,186.592,362.68,185.846,362.512,185.555z"/>
		</g>
		<g>
			<path fill="#F7F7F7" d="M327.092,229.676c-1.409,0-3.088-0.888-5.134-2.714c-9.708-8.671-20.1-20.725-21.068-23.741
				c-0.127-0.396-0.076-0.779,0.145-1.082c0.346-0.474,1.044-0.694,2.195-0.694c4.141,0,13.811,2.887,18.006,5.046
				c5.767,2.962,9.254,11.382,9.399,11.737l0.041,0.156c0.041,0.31,0.962,7.618-1.368,10.271
				C328.715,229.333,327.969,229.676,327.092,229.676z M303.23,202.694c-0.986,0-1.19,0.187-1.193,0.188
				c0.858,2.499,10.668,14.142,20.754,23.149c2.219,1.979,3.563,2.396,4.302,2.396c0.509,0,0.927-0.194,1.278-0.596
				c1.602-1.824,1.328-7.181,1.077-9.204c-0.351-0.827-3.698-8.415-8.783-11.028C316.584,205.504,307.217,202.694,303.23,202.694z"
				/>
		</g>
		<g>
			<path fill="#F7F7F7" d="M335.86,246.764l-0.384-1.187c0.088-0.028,8.578-3.433,1.638-25.051
				c-6.788-21.135-0.665-29.842-0.4-30.202l1.008,0.736c-0.062,0.084-5.986,8.637,0.581,29.086
				C345.733,243.286,335.958,246.733,335.86,246.764z"/>
		</g>
		<g>
			
				<rect x="342.304" y="197.151" transform="matrix(-0.6383 -0.7698 0.7698 -0.6383 402.7999 602.4523)" fill="#F7F7F7" width="1.248" height="18.897"/>
		</g>
		<g>
			<path fill="#F7F7F7" d="M340.904,235.694h-1.248c0-5.217-13.712-13.945-18.996-16.868l0.604-1.092
				C322.066,218.177,340.904,228.676,340.904,235.694z"/>
		</g>
	</g>
	<g>
		<path fill="#F7F7F7" d="M300.742,346.598c-1.812,0-3.347-1.359-3.564-3.16l-0.595-4.887c-1.868-0.177-3.703-0.583-5.467-1.21
			l-5.821,6.537c-1.263,1.427-3.649,1.57-5.074,0.294c-1.479-1.317-1.611-3.593-0.295-5.071l4.75-5.334
			c-0.882-0.691-1.655-1.387-2.354-2.116c-0.493-0.519-0.991-1.102-1.508-1.771l-7.477,3.127c-0.438,0.186-0.904,0.28-1.386,0.28
			c-1.457,0-2.758-0.866-3.317-2.206c-0.763-1.825,0.1-3.935,1.926-4.705l6.759-2.827c-0.796-2.248-1.227-4.625-1.282-7.079
			l-5.195-0.955c-1.95-0.359-3.245-2.236-2.887-4.184c0.356-1.921,2.199-3.26,4.185-2.887l4.862,0.893
			c0.403-1.351,0.919-2.641,1.538-3.842l-7.074-5.171c-0.776-0.564-1.285-1.399-1.432-2.348c-0.148-0.948,0.082-1.896,0.648-2.674
			c1.128-1.542,3.476-1.911,5.023-0.78l7.103,5.187c0.074-0.077,0.148-0.156,0.227-0.23c1.343-1.286,2.837-2.401,4.449-3.324
			l-1.962-2.205c-1.314-1.481-1.181-3.756,0.299-5.071c1.421-1.267,3.805-1.129,5.072,0.299l3.581,4.027
			c1.688-0.754,3.234-1.8,4.608-3.112c4.158-3.977,5.91-9.713,4.69-15.346l-0.23-1.015c-1.429-7.671,1.046-15.417,6.612-20.742
			c3.536-3.381,7.938-5.485,12.764-6.109l-0.029-3.802c-0.015-1.979,1.586-3.604,3.565-3.621c1.993,0,3.605,1.599,3.62,3.566
			l0.031,4.07c1.668,0.31,3.286,0.806,4.826,1.473l2.963-7.792c0.681-1.791,2.828-2.764,4.636-2.083
			c1.853,0.702,2.786,2.783,2.085,4.638l-3.503,9.208c0.442,0.398,0.843,0.783,1.211,1.166c0.512,0.534,1.013,1.126,1.553,1.838
			l5.487-4.372c0.634-0.505,1.429-0.784,2.236-0.784c1.102,0,2.127,0.494,2.811,1.354c0.6,0.752,0.87,1.69,0.761,2.646
			c-0.108,0.955-0.581,1.81-1.333,2.405l-6.477,5.164c0.363,1.042,0.649,2.102,0.854,3.159l6.003,0.354
			c0.957,0.056,1.835,0.479,2.472,1.197c0.639,0.717,0.96,1.64,0.904,2.599c-0.11,1.897-1.686,3.385-3.584,3.385l-0.202-0.006
			l-5.38-0.319c-0.163,1.292-0.435,2.565-0.81,3.795l5.191,2.635c0.857,0.435,1.491,1.175,1.793,2.088
			c0.298,0.913,0.223,1.887-0.213,2.742c-0.618,1.217-1.848,1.97-3.206,1.97c-0.569,0-1.114-0.132-1.623-0.39l-5.11-2.592
			c-0.849,1.202-1.799,2.311-2.838,3.305c-2.555,2.447-5.693,4.289-9.077,5.32l-0.448,0.196c-2.357,0.801-5.284,2.562-7.004,4.205
			c-4.024,3.845-5.386,8.474-4.164,14.147l0.062,0.421l0.12,1.417c0.061,0.285,0.122,0.647,0.175,1.007
			c1.074,7.293-1.461,14.688-6.78,19.777c-3.006,2.874-6.702,4.855-10.722,5.753l0.541,4.448c0.238,1.968-1.167,3.765-3.132,4.006
			C301.023,346.587,300.882,346.598,300.742,346.598z M290.753,335.874l0.4,0.151c1.936,0.73,3.966,1.175,6.031,1.323l0.514,0.036
			l0.718,5.902c0.156,1.274,1.302,2.189,2.627,2.045c1.269-0.153,2.186-1.327,2.03-2.613l-0.681-5.592l0.569-0.112
			c4.005-0.787,7.693-2.706,10.668-5.55c5.027-4.811,7.423-11.8,6.407-18.693c-0.049-0.339-0.107-0.681-0.173-1.017l-0.176-1.789
			c-1.313-6.09,0.167-11.101,4.53-15.269c1.835-1.754,4.957-3.634,7.419-4.468l0.467-0.202c3.263-0.999,6.229-2.737,8.645-5.052
			c1.104-1.058,2.105-2.252,2.979-3.554l0.307-0.459l6.093,3.088c1.121,0.577,2.575,0.095,3.151-1.032
			c0.283-0.558,0.332-1.191,0.136-1.788c-0.195-0.596-0.61-1.08-1.17-1.363l-6.146-3.117l0.171-0.509
			c0.493-1.488,0.825-3.052,0.984-4.639l0.061-0.597l6.694,0.394c1.238,0,2.266-0.97,2.339-2.21
			c0.035-0.626-0.175-1.228-0.591-1.696c-0.416-0.467-0.988-0.744-1.612-0.78l-6.991-0.411l-0.083-0.488
			c-0.218-1.292-0.566-2.587-1.035-3.852l-0.157-0.426l7.183-5.724c0.491-0.389,0.801-0.947,0.869-1.568
			c0.071-0.624-0.104-1.237-0.494-1.729c-0.783-0.98-2.312-1.158-3.297-0.373l-6.502,5.179l-0.384-0.525
			c-0.659-0.904-1.241-1.612-1.835-2.23c-0.429-0.446-0.905-0.898-1.456-1.377l-0.327-0.286l3.81-10.019
			c0.459-1.209-0.148-2.568-1.359-3.025c-1.174-0.442-2.583,0.19-3.026,1.358l-3.439,9.044l-0.61-0.288
			c-1.773-0.833-3.666-1.419-5.627-1.738l-0.521-0.084l-0.039-5.117c-0.012-1.283-1.063-2.327-2.346-2.327
			c-1.31,0.011-2.354,1.071-2.345,2.363l0.036,4.928l-0.562,0.059c-4.767,0.498-9.122,2.517-12.593,5.836
			c-5.263,5.034-7.6,12.356-6.254,19.589l0.226,0.996c1.316,6.066-0.57,12.24-5.045,16.519c-1.596,1.524-3.411,2.715-5.398,3.537
			l-0.411,0.17l-4.176-4.695c-0.826-0.932-2.383-1.025-3.311-0.195c-0.964,0.859-1.053,2.344-0.193,3.31l3.011,3.386l-0.705,0.372
			c-1.775,0.936-3.413,2.114-4.862,3.504c-0.116,0.109-0.222,0.225-0.328,0.34l-0.612,0.642l-7.988-5.835
			c-1.02-0.746-2.537-0.505-3.28,0.512c-0.368,0.505-0.519,1.124-0.422,1.743c0.097,0.618,0.428,1.163,0.935,1.532l7.954,5.811
			l-0.263,0.481c-0.775,1.414-1.396,2.964-1.845,4.608l-0.151,0.552l-5.983-1.098c-1.299-0.241-2.5,0.631-2.73,1.886
			c-0.234,1.271,0.613,2.494,1.886,2.729l6.208,1.141l0.002,0.52c0.003,2.696,0.481,5.292,1.417,7.723l0.219,0.565l-7.868,3.292
			c-1.192,0.503-1.756,1.881-1.258,3.073c0.485,1.165,1.926,1.74,3.066,1.258l8.376-3.506l0.292,0.391
			c0.603,0.808,1.146,1.458,1.706,2.048c0.786,0.821,1.681,1.604,2.735,2.389l0.548,0.407l-5.65,6.343
			c-0.858,0.968-0.772,2.453,0.192,3.312c0.936,0.834,2.485,0.736,3.311-0.189L290.753,335.874z M308.404,325.052
			c-3.618,0-6.563-2.942-6.563-6.56c0-3.62,2.944-6.566,6.563-6.566c3.62,0,6.565,2.944,6.565,6.566
			C314.969,322.11,312.025,325.052,308.404,325.052z M308.404,313.175c-2.933,0-5.315,2.386-5.315,5.317
			c0,2.93,2.383,5.312,5.315,5.312s5.317-2.382,5.317-5.312C313.721,315.561,311.336,313.175,308.404,313.175z M290.052,322.705
			c-3.62,0-6.565-2.943-6.565-6.563c0-3.616,2.944-6.56,6.565-6.56c3.619,0,6.563,2.94,6.563,6.56S293.671,322.705,290.052,322.705z
			 M290.052,310.83c-2.932,0-5.317,2.383-5.317,5.312c0,2.932,2.386,5.315,5.317,5.315s5.315-2.384,5.315-5.315
			C295.367,313.212,292.984,310.83,290.052,310.83z M301.633,309.136c-2.987,0-5.416-2.431-5.416-5.417
			c0-2.987,2.429-5.416,5.416-5.416c2.986,0,5.416,2.429,5.416,5.416C307.049,306.706,304.619,309.136,301.633,309.136z
			 M301.633,299.552c-2.299,0-4.168,1.87-4.168,4.167c0,2.299,1.869,4.169,4.168,4.169c2.298,0,4.167-1.87,4.167-4.169
			C305.8,301.422,303.931,299.552,301.633,299.552z M312.656,293.236c-2.99,0-5.42-2.429-5.42-5.415c0-2.985,2.43-5.412,5.42-5.412
			c2.984,0,5.414,2.427,5.414,5.412C318.071,290.807,315.641,293.236,312.656,293.236z M312.656,283.657
			c-2.301,0-4.172,1.867-4.172,4.164c0,2.298,1.871,4.167,4.172,4.167c2.297,0,4.166-1.869,4.166-4.167
			C316.823,285.524,314.953,283.657,312.656,283.657z M331.179,283.159c-2.989,0-5.42-2.43-5.42-5.416c0-2.983,2.431-5.41,5.42-5.41
			c2.984,0,5.414,2.427,5.414,5.41C336.593,280.729,334.163,283.159,331.179,283.159z M331.179,273.581
			c-2.301,0-4.171,1.866-4.171,4.162c0,2.298,1.87,4.168,4.171,4.168c2.297,0,4.166-1.87,4.166-4.168
			C335.345,275.447,333.476,273.581,331.179,273.581z M318.596,273.262c-3.619,0-6.564-2.944-6.564-6.564
			c0-3.617,2.944-6.562,6.564-6.562c3.618,0,6.563,2.942,6.563,6.562C325.159,270.318,322.214,273.262,318.596,273.262z
			 M318.596,261.386c-2.933,0-5.315,2.383-5.315,5.312c0,2.933,2.383,5.316,5.315,5.316c2.931,0,5.315-2.384,5.315-5.316
			C323.911,263.769,321.527,261.386,318.596,261.386z M335.969,269.823c-2.986,0-5.414-2.429-5.414-5.414
			c0-2.987,2.428-5.418,5.414-5.418s5.417,2.431,5.417,5.418C341.386,267.394,338.955,269.823,335.969,269.823z M335.969,260.24
			c-2.299,0-4.166,1.87-4.166,4.169s1.867,4.166,4.166,4.166s4.169-1.867,4.169-4.166S338.268,260.24,335.969,260.24z"/>
	</g>
</g>
</svg>
