<?xml version="1.0" encoding="utf-8"?>
<!-- Generator: Adobe Illustrator 19.2.0, SVG Export Plug-In . SVG Version: 6.00 Build 0)  -->
<svg version="1.1" id="Isolation_Mode" xmlns="http://www.w3.org/2000/svg" xmlns:xlink="http://www.w3.org/1999/xlink" x="0px"
	 y="0px" viewBox="0 0 672.3 423.1" style="enable-background:new 0 0 672.3 423.1;" xml:space="preserve">
<style type="text/css">
	.st0{fill:#EDEDED;}
	.st1{enable-background:new    ;}
</style>
<g>
	<g>
		<path class="st0" d="M437.3,224c-7.9,0-14.2-2.4-18.6-7.1c-9.5-10.3-8-28.9-7.3-37.9c0.1-1.7,0.2-3.1,0.2-4c0-0.8,0.1-2,0.1-3.5
			c0.6-13.9,2.4-56.4-20.3-79.1c-9.7-9.7-13.5-19.2-11.1-28c2.9-11.1,15.5-20.4,34.4-25.5c5.6-1.5,12.3-2.3,19.4-2.3
			c32.8,0,70.5,16.8,77.7,64c5.1,32.8-6,68.9-29.7,96.5C467.6,213.9,450.8,224,437.3,224z M434.1,37.7c-6.9,0-13.7,0.8-19.1,2.3
			c-18.2,5-30.7,14.2-33.5,24.7c-2.2,8.4,1.4,17.4,10.8,26.8c23.1,23.1,21.3,66,20.7,80.1c-0.1,1.5-0.1,2.7-0.1,3.5
			c0,0.9-0.1,2.3-0.2,4.1c-0.7,8.8-2.1,27.1,7,37c4.1,4.5,10.1,6.7,17.6,6.7c13.2,0,29.6-10,43.9-26.7c23.4-27.3,34.4-63,29.4-95.5
			c-3.4-22.3-13.6-39.1-30.3-50C463.1,39.3,443.9,37.7,434.1,37.7z"/>
	</g>
	<g>
		<path class="st0" d="M417.3,39.2C405.9,33.9,399.3,9,399.1,7.9l1.2-0.3c0.1,0.3,6.7,25.4,17.5,30.5L417.3,39.2z"/>
	</g>
	<g>
		<path class="st0" d="M434.5,37.5l-0.9-0.9c1.5-1.5,3.4-8.2-0.8-16c-5.4-10.2-4.7-18-4.7-18.3l1.2,0.1c0,0.1-0.6,7.8,4.6,17.6
			C438.3,28.2,436.4,35.6,434.5,37.5z"/>
	</g>
	<g>
		<path class="st0" d="M457,40.2c-0.2-0.6-4.6-14.7,1.5-27.1l1.1,0.6c-5.9,12-1.5,26-1.5,26.2L457,40.2z"/>
	</g>
	<g>
		<path class="st0" d="M475.1,46.8l-1.1-0.7c0.1-0.2,12.8-20.9,13.9-30.2l1.2,0.1C488,25.7,475.6,46,475.1,46.8z"/>
	</g>
	<g>
		<path class="st0" d="M493.9,61.3l-1.1-0.7c0.3-0.4,6.6-9.9,25.3-7.7l-0.1,1.2C500.1,52.1,494,61.2,493.9,61.3z"/>
	</g>
	<g>
		<path class="st0" d="M511.2,82.1c-2.9,0-5.5-0.9-5.7-1l0.4-1.2c0.1,0,5.4,1.9,8.9,0.1c1.3-0.6,2.1-1.7,2.6-3.1l1.2,0.4
			c-0.6,1.8-1.6,3.1-3.2,3.9C514.1,81.9,512.6,82.1,511.2,82.1z"/>
	</g>
	<g>
		<path class="st0" d="M511,99.9v-1.2c7.4,0,20.1-10.1,20.3-10.2l0.8,1C531.5,89.8,518.8,99.9,511,99.9z"/>
	</g>
	<g>
		<path class="st0" d="M530.4,127.5c-3.9-2.7-14.7-9.2-17.6-6.4l-0.9-0.9c4.1-4.1,17.7,5.1,19.2,6.2L530.4,127.5z"/>
	</g>
	<g>
		<path class="st0" d="M510.7,138.5l-1-0.7c2.3-3.5,9.4-2.5,17-1.5c6.6,0.9,13.4,1.8,15.8-0.6l0.9,0.9c-2.8,2.8-9.6,1.9-16.8,0.9
			C519.6,136.6,512.6,135.7,510.7,138.5z"/>
	</g>
	<g>
		<path class="st0" d="M532.2,164.6c-2,0-4.3-2.6-7.2-6c-3.7-4.2-8.2-9.4-12.6-9.5c-1.8-0.1-3.4,0.7-5,2.3l-0.9-0.9
			c1.8-1.8,3.8-2.7,5.9-2.6c5,0.2,9.7,5.6,13.5,9.9c2.4,2.8,4.9,5.6,6.3,5.5c0.2,0,0.5-0.1,0.8-0.5l1,0.7c-0.5,0.7-1,1-1.7,1
			C532.3,164.6,532.2,164.6,532.2,164.6z"/>
	</g>
	<g>
		<path class="st0" d="M515.3,172.1c-1.3-3.2-5.5-11.7-9-12.4c-0.8-0.2-1.5,0.1-2.2,0.8l-0.9-0.9c1-1,2.1-1.4,3.3-1.1
			c4.9,1,9.7,12.6,9.9,13.1L515.3,172.1z"/>
	</g>
	<g>
		<path class="st0" d="M504.6,184.2c-1.6-3.3-4.9-8.6-6.9-8.7c-0.3,0-0.7,0.1-1.1,0.8l-1.1-0.6c0.7-1.2,1.6-1.4,2.3-1.4
			c3.4,0.1,7.5,8.5,8,9.4L504.6,184.2z"/>
	</g>
	<g>
		<path class="st0" d="M497.4,194.4c-0.8-0.3-7.8-3.4-8.8-6.4c-0.2-0.7-0.1-1.3,0.3-1.9l1,0.7c-0.2,0.3-0.2,0.5-0.1,0.9
			c0.6,2.1,6,4.8,8,5.6L497.4,194.4z"/>
	</g>
	<g>
		<path class="st0" d="M487.9,206.6c-2.4-1.1-9.1-4.1-11.2-4.1v-1.2c2.8,0,11.3,4,11.7,4.2L487.9,206.6z"/>
	</g>
	<g>
		<path class="st0" d="M492.2,218.7c-0.3,0-0.6-0.2-1.9-1c-3.5-2.2-12.8-8-22.6-6.9l-0.1-1.2c10.2-1.1,19.8,4.8,23.4,7
			c0.6,0.4,1.2,0.8,1.4,0.8L492.2,218.7z"/>
	</g>
	<g>
		<path class="st0" d="M472,227.9c-2.2-3.4-8.7-12.3-11.9-11.6l-0.2-1.2c4.7-0.9,12.4,10.8,13.2,12.2L472,227.9z"/>
	</g>
	<g>
		<path class="st0" d="M448.8,232.2l-1.2-0.4c1.1-3.5,2.3-8.8,1.3-9.8c-0.1-0.1-0.2-0.2-0.6-0.1l-0.3-1.2c0.9-0.3,1.5,0.1,1.8,0.4
			C451.7,223.1,449.3,230.7,448.8,232.2z"/>
	</g>
	<g>
		<path class="st0" d="M430.6,233.1l-1.1-0.5c0.4-0.9,3.6-8.3,4.9-9.7l0.9,0.9C434.3,224.7,432,229.9,430.6,233.1z"/>
	</g>
	<g>
		<path class="st0" d="M408.9,235.4l-0.6-1.1c0.1-0.1,14.1-8.7,14.1-14.7h1.2C423.6,226.4,409.5,235.1,408.9,235.4z"/>
	</g>
	<g>
		<path class="st0" d="M396.4,222.3l-0.2-1.2c5.3-0.7,18.9-3.9,18.9-9.4h1.2C416.4,219.4,397.3,222.1,396.4,222.3z"/>
	</g>
	<g>
		<path class="st0" d="M412.3,204.1c-0.4-1.6-7.5-2.1-13.7-1.6l-0.1-1.2c13.3-1,14.9,1.9,15,2.5L412.3,204.1z"/>
	</g>
	<g>
		<path class="st0" d="M408.6,190.2c-5.9,0-16.7-7.6-17.2-8l0.7-1c3.5,2.5,13.6,8.8,17.5,7.6c0.6-0.2,1.1-0.6,1.3-1.2l1.2,0.4
			c-0.4,1-1.1,1.7-2.1,2C409.6,190.2,409.1,190.2,408.6,190.2z"/>
	</g>
	<g>
		<path class="st0" d="M411.1,170.6c-5.6,0-22.3-11.5-25.8-13.9l0.7-1c8.5,6,23,14.9,25.6,13.6c0.1,0,0.2-0.1,0.3-0.5l1.2,0
			c0,0.9-0.5,1.4-0.9,1.6C411.9,170.6,411.5,170.6,411.1,170.6z"/>
	</g>
	<g>
		<path class="st0" d="M413.1,152.5h-1.2c0-1.9-10.4-8.1-20.4-13l0.5-1.1C412.1,148.2,413.1,151.9,413.1,152.5z"/>
	</g>
	<g>
		<path class="st0" d="M404.3,130.9c-4.5,0-10.2-1.9-10.5-2l0.4-1.2c2.9,1,11,3.1,13.7,1.1c0.6-0.4,0.9-1.1,0.9-1.9
			c0-5-18.9-11.5-26.2-13.5l0.3-1.2c2.8,0.8,27.2,7.8,27.2,14.7c0,1.3-0.5,2.2-1.4,2.9C407.6,130.7,406,130.9,404.3,130.9z"/>
	</g>
	<g>
		<path class="st0" d="M388.9,103.3c-2.4,0-4.6-0.3-5.1-0.4l0.2-1.2c2.7,0.4,10,1,11.6-1.5c0.6-1,0.3-2.4-1-4.4
			c-6.1-9.1-16.6-6.4-17-6.3l-0.3-1.2c0.1,0,11.7-3.1,18.4,6.8c1.6,2.4,1.9,4.3,1,5.7C395.4,102.9,392,103.3,388.9,103.3z"/>
	</g>
	<g>
		<path class="st0" d="M376.3,70.8c-4.6,0-10.8-5.3-11.1-5.5l0.8-0.9c2.1,1.8,8.2,6.2,11.4,5.1c1.1-0.4,1.9-1.4,2.2-3.2
			c1.8-9.2-2.7-21.6-2.7-21.8l1.2-0.4c0.2,0.5,4.6,12.8,2.8,22.4c-0.4,2.2-1.4,3.6-3,4.1C377.4,70.7,376.8,70.8,376.3,70.8z"/>
	</g>
	<g>
		<path class="st0" d="M395.6,46.9c-8.9-14.3-7.9-15.4-7.4-16c0.4-0.4,0.9-0.4,1.3-0.2l-0.6,1.1c0.1,0,0.2-0.1,0.2-0.2
			c-0.1,0.3-0.2,2.3,7.5,14.5L395.6,46.9z"/>
	</g>
	<g>
		<path class="st0" d="M432.9,207.6C432.9,207.6,432.9,207.6,432.9,207.6c-1.5,0-2.6-0.4-3.4-1.1c-7-7-6.1-36.9-5.2-63.3
			c0.2-7.9,0.5-15.3,0.5-21.6c0-15.6-9.2-25.8-16.6-34c-5.5-6.1-10.3-11.4-10.3-17.4c0-6.6,17-14.3,38.9-14.3
			c3.8,0,7.7,0.2,11.5,0.7c26.9,3.3,41.3,36.9,41.5,37.3c12.3,33,0.3,60.8-11.9,78.3c-6.8,9.8-15.7,19-24.8,25.8
			C445,204,437.5,207.6,432.9,207.6z M436.8,57.1c-22.6,0-37.6,7.9-37.6,13.1c0,5.5,4.6,10.6,9.9,16.5c7.5,8.4,16.9,18.8,16.9,34.9
			c0,6.3-0.2,13.8-0.5,21.6c-0.8,24.8-1.7,55.7,4.9,62.3c0.5,0.5,1.4,0.8,2.5,0.8c0,0,0,0,0,0c8.2,0,28.9-13.3,43.9-34.9
			c12-17.3,23.8-44.7,11.7-77.2c-0.1-0.3-14.3-33.3-40.5-36.5C444.4,57.4,440.6,57.1,436.8,57.1z"/>
	</g>
	<g>
		<path class="st0" d="M472.5,115.1c0.2,27.5,1.1,39.7,7.4,33.4c6.3-6.3,8-40.3,2.5-45.8C476.9,97.2,472.4,104.9,472.5,115.1z"/>
	</g>
</g>
<g>
	<g>
		<path class="st0" d="M496.8,329.7c-4.9,0-9.4-4.3-11.4-10.9c-2-6.6-1.4-15.1,4.6-19.2c13.7-9.4,15.2-12.3,15.2-12.5l0.1-0.2
			c0.7-0.7,2.1-1.1,3.6-1.1c2.7,0,6.3,1.2,8.3,4.7c2.3,4,3.1,11.9-6,27.3C505.5,327.6,500.2,329.7,496.8,329.7z M506.4,287.8
			c-0.4,0.8-2.8,4.1-15.6,12.9c-5.5,3.8-6.1,11.7-4.2,17.8c1.9,6.1,5.9,10,10.2,10c4.4,0,9.1-3.9,13.4-11.3c8.8-14.8,8.1-22.3,6-26
			c-1.7-3-4.8-4.1-7.2-4.1C507.9,287.1,506.9,287.3,506.4,287.8z"/>
	</g>
	<g>
		<path class="st0" d="M495.2,320v-1.2c3.1,0,7-2.6,10.5-7.1c3.2-4,5.3-8.8,5.3-11.7c0-2-0.9-2.9-2.7-2.9v-1.2c2.5,0,4,1.5,4,4.2
			c0,3.3-2.2,8.2-5.6,12.5C502.9,317.2,498.7,320,495.2,320z"/>
	</g>
	<g>
		<path class="st0" d="M506.1,339.8C506.1,339.8,506.1,339.8,506.1,339.8c-4.4,0-10.7-3-19.3-9c-8.5-6-12-13.2-10.4-21.5
			c2.7-14.1,20-26.9,28.2-28.9c14.8-3.6,34.3-8,43.1-8c4.6,0,9.6,2.2,14.4,4.4c4.8,2.2,9.8,4.4,14.3,4.4c3.9,0,8.1-2.4,13-5.1
			c6.3-3.5,13.4-7.5,22-7.5c8.6,0,11.4,2.5,14.1,5c2.1,1.9,4.3,3.9,9.5,4.9c1.5,0.3,2.9,0.4,4.2,0.4c4.5,0,7.6-1.6,10.8-3.2
			c2.7-1.4,5.6-2.9,9.4-3.5c8.1-1.2,12.9,12.9,12.9,17.3c0,0.5-0.1,0.9-0.2,1.2c-0.3,0.7-0.8,0.7-1,0.7c-0.4,0-0.8-0.2-1.2-0.6
			c-1-1-1.8-2-2.7-3c-2.5-3-5.1-6.2-10.7-7.8c-0.6-0.2-1.1-0.3-1.6-0.3c-2,0-2.6,1.6-3.6,4.3c-1,2.9-2.3,6.4-6.5,8
			c-0.8,0.3-1.7,0.4-2.7,0.4c-4.6,0-10.7-3-17.2-6.1c-6.4-3.1-13-6.3-17.8-6.3c-5.6,0-10.6,5.9-15.5,11.6
			c-4.2,4.9-8.2,9.6-12.6,10.8c-0.8,0.2-1.7,0.3-2.7,0.3c-4.7,0-10.9-2.4-17.3-4.9c-6.4-2.5-13.1-5.1-18.1-5.1c-0.6,0-1.1,0-1.6,0.1
			c-9.9,1.2-16.6,17.4-21,28.1l-0.9,2.2c-0.7,1.7-1.3,3.5-1.8,5.4C514,334,512.3,339.8,506.1,339.8z M547.6,273.6
			c-8.6,0-28.1,4.3-42.8,7.9c-7.9,1.9-24.7,14.3-27.2,27.9c-1.5,7.7,1.9,14.6,9.9,20.3c8.4,5.9,14.4,8.8,18.6,8.8h0
			c5.3,0,6.8-4.8,8.5-10.4c0.5-1.8,1.1-3.7,1.9-5.5l0.9-2.2c4.6-11,11.5-27.5,22-28.9c0.5-0.1,1.1-0.1,1.7-0.1
			c5.3,0,12.1,2.6,18.6,5.2c6.4,2.5,12.4,4.8,16.9,4.8c0.9,0,1.7-0.1,2.4-0.3c4-1.1,7.9-5.6,11.9-10.4c5-5.9,10.3-12.1,16.4-12.1
			c5.1,0,11.8,3.3,18.4,6.4c6.1,2.9,12.3,6,16.6,6c0.9,0,1.6-0.1,2.3-0.4c3.7-1.3,4.8-4.5,5.7-7.2c0.9-2.6,1.8-5.1,4.8-5.1
			c0.6,0,1.2,0.1,1.9,0.3c5.9,1.7,8.7,5,11.3,8.2c0.9,1,1.7,2,2.6,2.9c0.1,0.1,0.1,0.1,0.2,0.2c0.2-1.1-0.5-5.5-2.9-10
			c-1.4-2.6-4.4-7.2-8.6-6.6c-3.7,0.5-6.4,1.9-9,3.3c-3.2,1.7-6.5,3.4-11.3,3.4c-1.4,0-2.9-0.1-4.4-0.4c-5.5-1-7.9-3.1-10.1-5.2
			c-2.7-2.4-5.2-4.7-13.3-4.7c-8.3,0-15.2,3.9-21.4,7.3c-5,2.8-9.4,5.2-13.6,5.2c-4.8,0-9.9-2.3-14.8-4.5
			C556.8,275.8,551.9,273.6,547.6,273.6z"/>
	</g>
</g>
<g>
	<g>
		<path class="st0" d="M173.3,368.9c-31.2,0-59.8-22.4-74.1-35.8C79.7,314.9,66,294.5,66,287.6c0-3-2.2-8.6-5.1-16.5
			c-9.4-24.9-27-71.2-9.7-121.7c19.1-56,37.3-74.8,84.7-87.7c9.1-2.5,20.5-3.8,32.2-3.8c16.6,0,48.8,2.8,77.7,21.8
			c28.2,18.4,45.4,46.8,51.2,84.3c4.5,28.8,1.6,58.6-8.5,88.4c-8.9,26.2-23,51-40.7,71.7C223.5,352.1,195.7,368.9,173.3,368.9z
			 M168,59c-11.5,0-22.8,1.4-31.8,3.8c-46.9,12.8-64.9,31.5-83.8,86.9c-17.1,50.1,0.4,96.2,9.7,120.9c3,8,5.2,13.8,5.2,16.9
			c0,11.3,50.8,80.1,106,80.1c22,0,49.5-16.6,73.4-44.5c17.7-20.6,31.7-45.3,40.5-71.3c10-29.6,12.9-59.2,8.5-87.8
			c-5.7-37.1-22.8-65.2-50.6-83.5C216.4,61.8,184.5,59,168,59z"/>
	</g>
	<g>
		<path class="st0" d="M140.2,61.7c-7.9-3.7-15.3-13.5-22.2-29.3c-5.1-11.7-7.9-22.4-7.9-22.5l1.2-0.3c0.1,0.4,11.2,42.5,29.4,51
			L140.2,61.7z"/>
	</g>
	<g>
		<path class="st0" d="M168.4,58.9l-0.9-0.9c2.5-2.5,5.8-13.9-1.2-27.2c-8.9-16.9-7.8-29.7-7.8-30.3l1.2,0.1c0,0.1-1,13,7.6,29.6
			C174.5,43.8,171.5,55.7,168.4,58.9z"/>
	</g>
	<g>
		<path class="st0" d="M206.5,63.6c-0.1-0.2-7.6-24.2,2.5-44.8l1.1,0.6c-9.9,20.1-2.5,43.6-2.5,43.8L206.5,63.6z"/>
	</g>
	<g>
		<path class="st0" d="M235.8,74.5l-1.1-0.7C235,73.5,256,39,257.9,23.5l1.2,0.1C257.2,39.4,236.7,73.1,235.8,74.5z"/>
	</g>
	<g>
		<path class="st0" d="M267.1,98.5l-1.1-0.7c0.1-0.2,10.8-16.2,41.6-12.6l-0.1,1.2C277.5,82.9,267.2,98.4,267.1,98.5z"/>
	</g>
	<g>
		<path class="st0" d="M296.2,133c-4.7,0-9-1.5-9.3-1.6l0.4-1.2c0.1,0,9.2,3.2,15.2,0.2c2.2-1.1,3.7-2.9,4.5-5.4l1.2,0.4
			c-0.9,2.8-2.6,4.9-5.2,6.2C300.9,132.6,298.5,133,296.2,133z"/>
	</g>
	<g>
		<path class="st0" d="M295.9,162.5v-1.2c12.5,0,33.8-16.9,34-17l0.8,1C329.7,145.9,308.8,162.5,295.9,162.5z"/>
	</g>
	<g>
		<path class="st0" d="M328.5,208.5c-6.6-4.6-24.8-15.5-29.8-10.5l-0.9-0.9c6.8-6.8,30.4,9.7,31.4,10.4L328.5,208.5z"/>
	</g>
	<g>
		<path class="st0" d="M295.1,226.9l-1-0.7c3.7-5.6,15.4-4,27.8-2.3c11,1.5,22.5,3,26.6-1.1l0.9,0.9c-4.6,4.6-15.8,3.1-27.6,1.5
			C310.2,223.6,298.3,222,295.1,226.9z"/>
	</g>
	<g>
		<path class="st0" d="M331.2,270.1c-3.1,0-6.9-4.3-11.6-9.8c-6.1-7-13.8-15.7-21.3-16c-3.1-0.1-5.9,1.2-8.6,3.9l-0.9-0.9
			c2.9-2.9,6.2-4.4,9.6-4.3c8.1,0.3,15.9,9.2,22.2,16.4c4.2,4.8,8.2,9.4,10.7,9.4c0,0,0.1,0,0.1,0c0.6,0,1.1-0.4,1.6-1l1,0.7
			c-0.7,1-1.5,1.5-2.5,1.5C331.3,270.1,331.2,270.1,331.2,270.1z"/>
	</g>
	<g>
		<path class="st0" d="M303.4,282.9c-0.1-0.2-7.9-19.4-15.2-20.8c-1.5-0.3-2.8,0.2-4,1.4l-0.9-0.9c1.5-1.5,3.3-2.1,5.1-1.7
			c7.9,1.6,15.8,20.8,16.2,21.6L303.4,282.9z"/>
	</g>
	<g>
		<path class="st0" d="M285.6,303c-2-4-7.9-14.6-11.8-14.7c-0.8,0-1.6,0.5-2.2,1.6l-1.1-0.6c0.9-1.5,2-2.2,3.4-2.2
			c5.4,0.2,12.2,13.9,12.9,15.4L285.6,303z"/>
	</g>
	<g>
		<path class="st0" d="M273.5,319.6c-0.5-0.2-12.8-5.4-14.3-10.4c-0.3-1-0.2-2,0.4-2.8l1,0.7c-0.4,0.5-0.4,1.1-0.3,1.8
			c1.1,3.6,10.2,8.2,13.6,9.6L273.5,319.6z"/>
	</g>
	<g>
		<path class="st0" d="M257.6,340c-0.1-0.1-14.5-6.8-18.7-6.8V332c4.6,0,18.7,6.6,19.3,6.9L257.6,340z"/>
	</g>
	<g>
		<path class="st0" d="M264.7,360.1c-0.4,0-1-0.4-3-1.6c-5.9-3.6-21.5-13.3-37.9-11.5l-0.1-1.2c16.9-1.9,32.7,7.9,38.7,11.6
			c1.1,0.7,2.2,1.3,2.4,1.4L264.7,360.1z"/>
	</g>
	<g>
		<path class="st0" d="M231.4,375.7c-3.7-5.8-14.6-20.6-20.3-19.5l-0.2-1.2c7.7-1.4,21,19.2,21.6,20.1L231.4,375.7z"/>
	</g>
	<g>
		<path class="st0" d="M192.1,382.9l-1.2-0.4c1.8-5.4,4-14.8,2.1-16.6c-0.2-0.2-0.5-0.4-1.4-0.2l-0.3-1.2c1.4-0.4,2.2,0.1,2.6,0.5
			C196.9,368,192.6,381.3,192.1,382.9z"/>
	</g>
	<g>
		<path class="st0" d="M161.8,384.3l-1.1-0.5c0.2-0.6,5.8-13.8,8-16l0.9,0.9C167.9,370.4,163.4,380.6,161.8,384.3z"/>
	</g>
	<g>
		<path class="st0" d="M126,388l-0.7-1.1c0.2-0.1,23.6-14.5,23.6-24.8h1.2C150.1,373.1,126.9,387.4,126,388z"/>
	</g>
	<g>
		<path class="st0" d="M76.2,357.7l-0.2-1.2c0.3,0,31.7-4.6,31.7-16h1.2C109,353,77.5,357.5,76.2,357.7z"/>
	</g>
	<g>
		<path class="st0" d="M75.4,307.6c-0.9-3.3-14.8-3.6-23.3-3l-0.1-1.2c2.4-0.2,23-1.5,24.6,3.9L75.4,307.6z"/>
	</g>
	<g>
		<path class="st0" d="M57,279.1c-9.5,0-27.4-12.6-28.3-13.2l0.7-1C29.7,265,51,280.1,59,277.6c1.2-0.4,2-1.1,2.4-2.3l1.2,0.4
			c-0.6,1.5-1.7,2.6-3.2,3C58.7,279,57.9,279.1,57,279.1z"/>
	</g>
	<g>
		<path class="st0" d="M49.1,248.4c-9.4,0-39-20.6-42.6-23.1l0.7-1c10.2,7.2,37.9,25.2,43,22.6c0.3-0.1,0.6-0.4,0.7-1.2l1.2,0
			c0,1.4-0.7,2-1.3,2.3C50.3,248.3,49.7,248.4,49.1,248.4z"/>
	</g>
	<g>
		<path class="st0" d="M45.1,215.9h-1.2c0-3.8-20.9-15.6-34.1-22.1l0.5-1.1C13.9,194.5,45.1,210,45.1,215.9z"/>
	</g>
	<g>
		<path class="st0" d="M36,177c-7.5,0-16.8-3.1-17.4-3.3l0.4-1.2c0.2,0.1,17.6,5.9,23.2,1.8c1.1-0.8,1.7-2,1.7-3.5
			c0-8.7-31.7-19.4-43.9-22.9l0.3-1.2c1.8,0.5,44.9,12.7,44.9,24.1c0,2-0.7,3.5-2.2,4.5C41.3,176.6,38.8,177,36,177z"/>
	</g>
	<g>
		<path class="st0" d="M41.3,141.2c-4.3,0-8-0.6-8.3-0.6l0.2-1.2c0.2,0,16.4,2.5,19.7-2.7c1.1-1.8,0.6-4.4-1.7-7.7
			c-10.4-15.4-28.5-10.7-28.7-10.6l-0.3-1.2c0.2-0.1,19.2-5,30.1,11.2c2.6,3.8,3.1,6.9,1.7,9.1C52,140.5,46.3,141.2,41.3,141.2z"/>
	</g>
	<g>
		<path class="st0" d="M69.2,105.3c-7.5,0-17.7-8.7-18.1-9.1l0.8-0.9c0.1,0.1,12.7,10.8,19.4,8.5c2-0.7,3.3-2.6,3.9-5.6
			c3-15.5-4.5-36.2-4.6-36.4l1.2-0.4c0.1,0.2,7.7,21.3,4.6,37.1c-0.7,3.5-2.3,5.7-4.7,6.5C70.9,105.1,70.1,105.3,69.2,105.3z"/>
	</g>
	<g>
		<path class="st0" d="M104.3,74.5c-14.7-23.5-13-25.3-12.3-26c0.5-0.6,1.3-0.4,1.7-0.2l-0.6,1.1c-0.1,0-0.2-0.1-0.2-0.1
			c-0.1,0.2-1.1,2.7,12.5,24.5L104.3,74.5z"/>
	</g>
	<g>
		<ellipse class="st0" cx="122.5" cy="93.3" rx="3.1" ry="2.5"/>
	</g>
	<g>
		<ellipse class="st0" cx="169.1" cy="93.3" rx="3.1" ry="2.5"/>
	</g>
	<g>
		<ellipse class="st0" cx="108" cy="142.7" rx="3.1" ry="4.6"/>
	</g>
	<g>
		<path class="st0" d="M191.6,152.1c0,1.4-1.1,2.5-2.4,2.5c-1.3,0-2.4-1.1-2.4-2.5c0-1.4,1.1-2.5,2.4-2.5
			C190.5,149.6,191.6,150.7,191.6,152.1z"/>
	</g>
	<g>
		<path class="st0" d="M223.4,202c0,0.9-0.9,1.6-1.9,1.6c-1.1,0-2-0.7-2-1.6c0-0.9,0.9-1.6,2-1.6C222.5,200.5,223.4,201.2,223.4,202
			z"/>
	</g>
	<g>
		<ellipse class="st0" cx="262.9" cy="224.6" rx="3.1" ry="2.5"/>
	</g>
	<g>
		<ellipse class="st0" cx="215.9" cy="115.3" rx="3.1" ry="2.5"/>
	</g>
	<g>
		<ellipse class="st0" cx="262.5" cy="115.3" rx="3.1" ry="2.5"/>
	</g>
	<g>
		<path class="st0" d="M202.1,162.6c0,1.4-0.9,2.5-2,2.5c-1.1,0-2-1.1-2-2.5s0.9-2.5,2-2.5C201.2,160.1,202.1,161.2,202.1,162.6z"/>
	</g>
	<g>
		<ellipse class="st0" cx="102.9" cy="182.8" rx="3" ry="3.6"/>
	</g>
	<g>
		<ellipse class="st0" cx="182.1" cy="210.8" rx="2.5" ry="2"/>
	</g>
	<g>
		<path class="st0" d="M110.7,243.3c0,2.6-1.4,4.6-3.1,4.6c-1.7,0-3.1-2.1-3.1-4.6c0-2.5,1.4-4.6,3.1-4.6
			C109.3,238.7,110.7,240.8,110.7,243.3z"/>
	</g>
	<g>
		<ellipse class="st0" cx="188.8" cy="252.7" rx="2.4" ry="2.5"/>
	</g>
	<g>
		<ellipse class="st0" cx="207.3" cy="154.2" rx="3.1" ry="4.6"/>
	</g>
	<g>
		<ellipse class="st0" cx="220.8" cy="147.2" rx="2.4" ry="2.5"/>
	</g>
	<g>
		<ellipse class="st0" cx="202.2" cy="194.3" rx="3" ry="3.6"/>
	</g>
	<g>
		<path class="st0" d="M216.3,206c0,1.1-1.1,2-2.5,2s-2.5-0.9-2.5-2c0-1.1,1.1-2,2.5-2C215.2,204,216.3,204.9,216.3,206z"/>
	</g>
	<g>
		<path class="st0" d="M210,254.8c0,2.6-1.4,4.6-3.1,4.6c-1.7,0-3.1-2.1-3.1-4.6c0-2.6,1.4-4.6,3.1-4.6
			C208.7,250.2,210,252.3,210,254.8z"/>
	</g>
	<g>
		<path class="st0" d="M222.9,247.8c0,1.4-1.1,2.5-2.4,2.5c-1.3,0-2.4-1.1-2.4-2.5c0-1.4,1.1-2.5,2.4-2.5
			C221.8,245.3,222.9,246.4,222.9,247.8z"/>
	</g>
	<g>
		<ellipse class="st0" cx="199.3" cy="240.5" rx="3.1" ry="4.6"/>
	</g>
	<g>
		<path class="st0" d="M215.2,233.5c0,1.4-1.1,2.5-2.4,2.5c-1.3,0-2.4-1.1-2.4-2.5c0-1.4,1.1-2.5,2.4-2.5
			C214.1,231,215.2,232.1,215.2,233.5z"/>
	</g>
	<g>
		<path class="st0" d="M197.2,280.6c0,2-1.3,3.6-3,3.6c-1.7,0-3-1.6-3-3.6c0-2,1.3-3.6,3-3.6C195.8,276.9,197.2,278.6,197.2,280.6z"
			/>
	</g>
	<g>
		<path class="st0" d="M208.2,292.2c0,1.1-1.1,2-2.5,2c-1.4,0-2.5-0.9-2.5-2c0-1.1,1.1-2,2.5-2C207.1,290.2,208.2,291.1,208.2,292.2
			z"/>
	</g>
	<g>
		<path class="st0" d="M168.1,332.9c0,2.6-1.4,4.6-3.1,4.6c-1.7,0-3.1-2.1-3.1-4.6c0-2.6,1.4-4.6,3.1-4.6
			C166.7,328.3,168.1,330.4,168.1,332.9z"/>
	</g>
	<g>
		<path class="st0" d="M214.8,334.1c0,1.4-1.1,2.5-2.4,2.5c-1.3,0-2.4-1.1-2.4-2.5c0-1.4,1.1-2.5,2.4-2.5
			C213.7,331.6,214.8,332.7,214.8,334.1z"/>
	</g>
	<g>
		<path class="st0" d="M223,302.6c0,0.9-0.9,1.6-2,1.6c-1.1,0-2-0.7-2-1.6c0-0.9,0.9-1.6,2-1.6C222.1,301,223,301.8,223,302.6z"/>
	</g>
	<g>
		<path class="st0" d="M201.7,263.2c0,1.4-0.9,2.5-1.9,2.5c-1.1,0-2-1.1-2-2.5c0-1.4,0.9-2.5,2-2.5
			C200.8,260.7,201.7,261.8,201.7,263.2z"/>
	</g>
	<g>
		<ellipse class="st0" cx="102.5" cy="283.4" rx="3" ry="3.6"/>
	</g>
	<g>
		<ellipse class="st0" cx="82.8" cy="119.9" rx="3.1" ry="4.6"/>
	</g>
	<g>
		<path class="st0" d="M132.6,121.1c0,1.4-1.1,2.5-2.4,2.5c-1.3,0-2.4-1.1-2.4-2.5c0-1.4,1.1-2.5,2.4-2.5
			C131.5,118.6,132.6,119.7,132.6,121.1z"/>
	</g>
	<g>
		<path class="st0" d="M210.8,148c0,1.4-0.9,2.5-1.9,2.5s-2-1.1-2-2.5c0-1.4,0.9-2.5,2-2.5C210,145.5,210.8,146.6,210.8,148z"/>
	</g>
	<g>
		<path class="st0" d="M80.7,160c0,2-1.3,3.6-3,3.6c-1.6,0-3-1.6-3-3.6c0-2,1.3-3.6,3-3.6C79.4,156.4,80.7,158,80.7,160z"/>
	</g>
	<g>
		<path class="st0" d="M125.6,179.8c0,1.1-1.1,2-2.5,2c-1.4,0-2.5-0.9-2.5-2c0-1.1,1.1-2,2.5-2C124.5,177.8,125.6,178.7,125.6,179.8
			z"/>
	</g>
	<g>
		<path class="st0" d="M85.5,220.5c0,2.6-1.4,4.6-3.1,4.6c-1.7,0-3.1-2.1-3.1-4.6c0-2.5,1.4-4.6,3.1-4.6
			C84.1,215.9,85.5,218,85.5,220.5z"/>
	</g>
	<g>
		<ellipse class="st0" cx="129.8" cy="221.7" rx="2.4" ry="2.5"/>
	</g>
	<g>
		<path class="st0" d="M185.3,131.4c0,2.6-1.4,4.6-3.1,4.6c-1.7,0-3.1-2.1-3.1-4.6c0-2.6,1.4-4.6,3.1-4.6
			C183.9,126.8,185.3,128.9,185.3,131.4z"/>
	</g>
	<g>
		<path class="st0" d="M180.1,171.5c0,2-1.3,3.6-3,3.6c-1.6,0-3-1.6-3-3.6c0-2,1.3-3.6,3-3.6C178.8,167.8,180.1,169.5,180.1,171.5z"
			/>
	</g>
	<g>
		<path class="st0" d="M184.9,232c0,2.6-1.4,4.6-3.1,4.6s-3.1-2.1-3.1-4.6c0-2.6,1.4-4.6,3.1-4.6C183.5,227.4,184.9,229.4,184.9,232
			z"/>
	</g>
	<g>
		<path class="st0" d="M177.2,217.7c0,2.6-1.4,4.6-3.1,4.6c-1.7,0-3.1-2.1-3.1-4.6c0-2.6,1.4-4.6,3.1-4.6
			C175.8,213.1,177.2,215.1,177.2,217.7z"/>
	</g>
	<g>
		<ellipse class="st0" cx="169" cy="257.8" rx="3" ry="3.6"/>
	</g>
	<g>
		<path class="st0" d="M210.4,248.6c0,1.4-0.9,2.5-2,2.5c-1.1,0-1.9-1.1-1.9-2.5s0.9-2.5,1.9-2.5
			C209.6,246.1,210.4,247.2,210.4,248.6z"/>
	</g>
	<g>
		<ellipse class="st0" cx="77.3" cy="260.6" rx="3" ry="3.6"/>
	</g>
	<g>
		<ellipse class="st0" cx="164.4" cy="106.7" rx="3.1" ry="4.6"/>
	</g>
	<g>
		<path class="st0" d="M214.2,107.9c0,1.4-1.1,2.5-2.4,2.5c-1.3,0-2.4-1.1-2.4-2.5c0-1.4,1.1-2.5,2.4-2.5
			C213.1,105.4,214.2,106.5,214.2,107.9z"/>
	</g>
	<g>
		<path class="st0" d="M258.5,126.6c0,1.4-0.9,2.5-2,2.5c-1.1,0-2-1.1-2-2.5c0-1.4,0.9-2.5,2-2.5
			C257.6,124.1,258.5,125.2,258.5,126.6z"/>
	</g>
	<g>
		<path class="st0" d="M196.1,154.9c0,2-1.3,3.6-3,3.6c-1.6,0-3-1.6-3-3.6c0-2,1.3-3.6,3-3.6C194.8,151.3,196.1,152.9,196.1,154.9z"
			/>
	</g>
	<g>
		<path class="st0" d="M207.2,166.6c0,1.1-1.1,2-2.5,2c-1.4,0-2.5-0.9-2.5-2c0-1.1,1.1-2,2.5-2C206.1,164.6,207.2,165.5,207.2,166.6
			z"/>
	</g>
	<g>
		<ellipse class="st0" cx="197.8" cy="215.5" rx="3.1" ry="4.6"/>
	</g>
	<g>
		<path class="st0" d="M213.8,208.5c0,1.4-1.1,2.5-2.4,2.5c-1.3,0-2.4-1.1-2.4-2.5c0-1.4,1.1-2.5,2.4-2.5
			C212.7,206,213.8,207.1,213.8,208.5z"/>
	</g>
	<g>
		<ellipse class="st0" cx="229.9" cy="110" rx="3.1" ry="4.6"/>
	</g>
	<g>
		<ellipse class="st0" cx="224.8" cy="150.1" rx="3" ry="3.6"/>
	</g>
	<g>
		<path class="st0" d="M232.6,210.6c0,2.6-1.4,4.6-3.1,4.6c-1.7,0-3.1-2.1-3.1-4.6c0-2.5,1.4-4.6,3.1-4.6
			C231.2,206,232.6,208,232.6,210.6z"/>
	</g>
	<g>
		<path class="st0" d="M224.9,196.3c0,2.6-1.4,4.6-3.1,4.6c-1.7,0-3.1-2.1-3.1-4.6c0-2.6,1.4-4.6,3.1-4.6
			C223.5,191.6,224.9,193.7,224.9,196.3z"/>
	</g>
	<g>
		<ellipse class="st0" cx="216.7" cy="236.3" rx="3" ry="3.6"/>
	</g>
	<g>
		<path class="st0" d="M258.1,227.2c0,1.4-0.9,2.5-1.9,2.5c-1.1,0-2-1.1-2-2.5c0-1.4,0.9-2.5,2-2.5
			C257.3,224.7,258.1,225.8,258.1,227.2z"/>
	</g>
	<g>
		<ellipse class="st0" cx="192.7" cy="255.5" rx="3" ry="3.6"/>
	</g>
	<g>
		<path class="st0" d="M153.5,138.3c0,1.4-1.1,2.5-2.4,2.5c-1.3,0-2.4-1.1-2.4-2.5c0-1.4,1.1-2.5,2.4-2.5
			C152.4,135.7,153.5,136.9,153.5,138.3z"/>
	</g>
	<g>
		<path class="st0" d="M146.5,197c0,1.1-1.1,2-2.5,2c-1.4,0-2.5-0.9-2.5-2s1.1-2,2.5-2C145.4,195,146.5,195.9,146.5,197z"/>
	</g>
	<g>
		<path class="st0" d="M153.1,238.8c0,1.4-1.1,2.5-2.4,2.5c-1.3,0-2.4-1.1-2.4-2.5c0-1.4,1.1-2.5,2.4-2.5
			C152,236.3,153.1,237.5,153.1,238.8z"/>
	</g>
	<g>
		<path class="st0" d="M172.3,140.4c0,2.6-1.4,4.6-3.1,4.6c-1.7,0-3.1-2.1-3.1-4.6s1.4-4.6,3.1-4.6
			C170.9,135.7,172.3,137.8,172.3,140.4z"/>
	</g>
	<g>
		<ellipse class="st0" cx="164.1" cy="180.4" rx="3" ry="3.6"/>
	</g>
	<g>
		<ellipse class="st0" cx="168.8" cy="241" rx="3.1" ry="4.6"/>
	</g>
	<g>
		<path class="st0" d="M164.3,226.7c0,2.6-1.4,4.6-3.1,4.6c-1.7,0-3.1-2.1-3.1-4.6c0-2.6,1.4-4.6,3.1-4.6
			C162.9,222,164.3,224.1,164.3,226.7z"/>
	</g>
	<g>
		<path class="st0" d="M159,266.7c0,2-1.3,3.6-3,3.6c-1.6,0-3-1.6-3-3.6c0-2,1.3-3.6,3-3.6C157.7,263.1,159,264.7,159,266.7z"/>
	</g>
	<g>
		<path class="st0" d="M172.7,134.1c0,1.4-0.9,2.5-2,2.5s-2-1.1-2-2.5c0-1.4,0.9-2.5,2-2.5C171.8,131.6,172.7,132.7,172.7,134.1z"/>
	</g>
	<g>
		<ellipse class="st0" cx="144.1" cy="117.5" rx="3.1" ry="4.6"/>
	</g>
	<g>
		<path class="st0" d="M142,157.6c0,2-1.3,3.6-3,3.6c-1.6,0-3-1.6-3-3.6c0-2,1.3-3.6,3-3.6C140.6,154,142,155.6,142,157.6z"/>
	</g>
	<g>
		<ellipse class="st0" cx="143.7" cy="218.1" rx="3.1" ry="4.6"/>
	</g>
	<g>
		<ellipse class="st0" cx="136" cy="203.8" rx="3.1" ry="4.6"/>
	</g>
	<g>
		<path class="st0" d="M133.9,243.9c0,2-1.3,3.6-3,3.6c-1.6,0-3-1.6-3-3.6c0-2,1.3-3.6,3-3.6C132.6,240.3,133.9,241.9,133.9,243.9z"
			/>
	</g>
	<g>
		<path class="st0" d="M172.3,234.7c0,1.4-0.9,2.5-1.9,2.5c-1.1,0-2-1.1-2-2.5c0-1.4,0.9-2.5,2-2.5
			C171.4,232.2,172.3,233.3,172.3,234.7z"/>
	</g>
	<g>
		<ellipse class="st0" cx="155" cy="141.1" rx="3" ry="3.6"/>
	</g>
	<g>
		<path class="st0" d="M162.8,201.6c0,2.6-1.4,4.6-3.1,4.6c-1.7,0-3.1-2.1-3.1-4.6c0-2.6,1.4-4.6,3.1-4.6
			C161.4,197,162.8,199,162.8,201.6z"/>
	</g>
	<g>
		<ellipse class="st0" cx="154.6" cy="241.7" rx="3" ry="3.6"/>
	</g>
	<g>
		<path class="st0" d="M132.9,214.7c0,1.4-1.1,2.5-2.4,2.5c-1.3,0-2.4-1.1-2.4-2.5c0-1.4,1.1-2.5,2.4-2.5
			C131.9,212.2,132.9,213.3,132.9,214.7z"/>
	</g>
	<g>
		<ellipse class="st0" cx="123.5" cy="273.4" rx="2.5" ry="2"/>
	</g>
	<g>
		<path class="st0" d="M132.5,315.3c0,1.4-1.1,2.5-2.4,2.5c-1.3,0-2.4-1.1-2.4-2.5c0-1.4,1.1-2.5,2.4-2.5
			C131.5,312.8,132.5,313.9,132.5,315.3z"/>
	</g>
	<g>
		<ellipse class="st0" cx="148.7" cy="216.8" rx="3.1" ry="4.6"/>
	</g>
	<g>
		<ellipse class="st0" cx="143.6" cy="256.9" rx="3" ry="3.6"/>
	</g>
	<g>
		<path class="st0" d="M151.4,317.4c0,2.6-1.4,4.6-3.1,4.6c-1.7,0-3.1-2.1-3.1-4.6c0-2.5,1.4-4.6,3.1-4.6
			C150,312.8,151.4,314.9,151.4,317.4z"/>
	</g>
	<g>
		<ellipse class="st0" cx="140.6" cy="303.1" rx="3.1" ry="4.6"/>
	</g>
	<g>
		<ellipse class="st0" cx="135.5" cy="343.2" rx="3" ry="3.6"/>
	</g>
	<g>
		<path class="st0" d="M152.2,210.6c0,1.4-0.9,2.5-2,2.5c-1.1,0-1.9-1.1-1.9-2.5c0-1.4,0.9-2.5,1.9-2.5
			C151.3,208.1,152.2,209.2,152.2,210.6z"/>
	</g>
	<g>
		<path class="st0" d="M126.6,194c0,2.6-1.4,4.6-3.1,4.6c-1.7,0-3.1-2.1-3.1-4.6s1.4-4.6,3.1-4.6C125.2,189.4,126.6,191.5,126.6,194
			z"/>
	</g>
	<g>
		<path class="st0" d="M121.4,234.1c0,2-1.3,3.6-3,3.6c-1.6,0-3-1.6-3-3.6c0-2,1.3-3.6,3-3.6C120.1,230.4,121.4,232.1,121.4,234.1z"
			/>
	</g>
	<g>
		<ellipse class="st0" cx="123.1" cy="294.6" rx="3.1" ry="4.6"/>
	</g>
	<g>
		<ellipse class="st0" cx="115.5" cy="280.3" rx="3.1" ry="4.6"/>
	</g>
	<g>
		<ellipse class="st0" cx="110.4" cy="320.4" rx="3" ry="3.6"/>
	</g>
	<g>
		<ellipse class="st0" cx="149.8" cy="311.2" rx="2" ry="2.5"/>
	</g>
	<g>
		<path class="st0" d="M137.5,217.5c0,2-1.3,3.6-3,3.6c-1.6,0-3-1.6-3-3.6c0-2,1.3-3.6,3-3.6C136.1,213.9,137.5,215.5,137.5,217.5z"
			/>
	</g>
	<g>
		<ellipse class="st0" cx="139.2" cy="278" rx="3.1" ry="4.6"/>
	</g>
	<g>
		<ellipse class="st0" cx="271" cy="269.1" rx="3" ry="3.6"/>
	</g>
	<g>
		<path class="st0" d="M255.1,250.2c0,1.4-1.1,2.5-2.4,2.5c-1.3,0-2.4-1.1-2.4-2.5c0-1.4,1.1-2.5,2.4-2.5
			C254,247.7,255.1,248.8,255.1,250.2z"/>
	</g>
	<g>
		<path class="st0" d="M273.9,252.3c0,2.6-1.4,4.6-3.1,4.6c-1.7,0-3.1-2.1-3.1-4.6c0-2.6,1.4-4.6,3.1-4.6
			C272.5,247.7,273.9,249.8,273.9,252.3z"/>
	</g>
	<g>
		<path class="st0" d="M261,278.1c0,2-1.3,3.6-3,3.6c-1.6,0-3-1.6-3-3.6c0-2,1.3-3.6,3-3.6C259.7,274.4,261,276.1,261,278.1z"/>
	</g>
	<g>
		<ellipse class="st0" cx="232.9" cy="255.2" rx="3" ry="3.6"/>
	</g>
	<g>
		<ellipse class="st0" cx="256.6" cy="253" rx="3" ry="3.6"/>
	</g>
	<g>
		<path class="st0" d="M227.9,284.8c0,1.1-1.1,2-2.5,2c-1.4,0-2.5-0.9-2.5-2s1.1-2,2.5-2C226.8,282.8,227.9,283.7,227.9,284.8z"/>
	</g>
	<g>
		<path class="st0" d="M248.6,268.2c0,2-1.3,3.6-3,3.6c-1.6,0-3-1.6-3-3.6c0-2,1.3-3.6,3-3.6C247.2,264.6,248.6,266.2,248.6,268.2z"
			/>
	</g>
	<g>
		<ellipse class="st0" cx="217.5" cy="291.6" rx="3.1" ry="4.6"/>
	</g>
	<g>
		<ellipse class="st0" cx="241.2" cy="289.4" rx="3.1" ry="4.6"/>
	</g>
	<g>
		<path class="st0" d="M153.3,190.4c0,2-1.3,3.6-3,3.6c-1.6,0-3-1.6-3-3.6c0-2,1.3-3.6,3-3.6C152,186.8,153.3,188.4,153.3,190.4z"/>
	</g>
	<g>
		<ellipse class="st0" cx="132" cy="171.5" rx="2.4" ry="2.5"/>
	</g>
	<g>
		<ellipse class="st0" cx="150.1" cy="173.6" rx="3.1" ry="4.6"/>
	</g>
	<g>
		<ellipse class="st0" cx="137.4" cy="199.4" rx="3" ry="3.6"/>
	</g>
	<g>
		<ellipse class="st0" cx="112.2" cy="176.6" rx="3" ry="3.6"/>
	</g>
	<g>
		<ellipse class="st0" cx="135.9" cy="174.3" rx="3" ry="3.6"/>
	</g>
	<g>
		<path class="st0" d="M107.2,206.1c0,1.1-1.1,2-2.5,2s-2.5-0.9-2.5-2c0-1.1,1.1-2,2.5-2S107.2,205,107.2,206.1z"/>
	</g>
	<g>
		<ellipse class="st0" cx="124.9" cy="189.6" rx="3" ry="3.6"/>
	</g>
	<g>
		<path class="st0" d="M99.8,213c0,2.6-1.4,4.6-3.1,4.6c-1.7,0-3.1-2.1-3.1-4.6c0-2.5,1.4-4.6,3.1-4.6
			C98.5,208.3,99.8,210.4,99.8,213z"/>
	</g>
	<g>
		<path class="st0" d="M123.6,210.7c0,2.6-1.4,4.6-3.1,4.6s-3.1-2.1-3.1-4.6c0-2.6,1.4-4.6,3.1-4.6
			C122.2,206.1,123.6,208.2,123.6,210.7z"/>
	</g>
	<g>
		<ellipse class="st0" cx="134.1" cy="318.1" rx="3" ry="3.6"/>
	</g>
	<g>
		<path class="st0" d="M150.3,303.2c0,1.1-1.1,2-2.5,2c-1.4,0-2.5-0.9-2.5-2c0-1.1,1.1-2,2.5-2C149.2,301.2,150.3,302.1,150.3,303.2
			z"/>
	</g>
	<g>
		<ellipse class="st0" cx="249.3" cy="165.9" rx="3.1" ry="2.5"/>
	</g>
	<g>
		<ellipse class="st0" cx="85.1" cy="208" rx="3.1" ry="2.5"/>
	</g>
</g>
<g>
	<g>
		<g>
			<g class="st1">
				<path class="st0" d="M232,209.4c0,1.8,1,3.1,3,3.1c0.8,0,1.7-0.1,2.6-0.6c0.1,0,0.1,0,0.1,0.1v1.7c0,0.1,0,0.2-0.1,0.3
					c-0.8,0.4-1.7,0.6-3.1,0.6c-3.7,0-5-2.7-5-5.4c0-3,1.7-5.4,4.8-5.4c3,0,4.2,2.4,4.2,4.2c0,1-0.1,1.2-0.2,1.2
					c-0.3,0.1-1,0.1-2.1,0.1L232,209.4L232,209.4z M235.3,207.7c0.8,0,0.9-0.1,0.9-0.2c0,0,0-0.1,0-0.2c0-0.4-0.4-1.7-2-1.7
					c-1.4,0-2,1-2.2,2H235.3z"/>
				<path class="st0" d="M241.1,206.5c0-0.7,0-1.9-0.1-2.3c0-0.1,0-0.2,0.1-0.2h1.8c0.1,0,0.2,0,0.2,0.1c0.1,0.2,0.1,0.6,0.1,0.9
					c0.8-0.8,2-1.2,3-1.2c1.6,0,3.3,0.9,3.3,4.4v6c0,0.1-0.1,0.2-0.2,0.2h-2.1c-0.1,0-0.2-0.1-0.2-0.2v-6c0-1.4-0.5-2.3-1.7-2.3
					c-0.8,0-1.5,0.4-2,1v7.3c0,0.1-0.1,0.2-0.2,0.2h-2.1c-0.1,0-0.2-0.1-0.2-0.2L241.1,206.5L241.1,206.5L241.1,206.5z"/>
				<path class="st0" d="M252.4,209.3c0-3.1,2.1-5.5,5.6-5.5c0.5,0,0.8,0,1.2,0.1v-4.6c0-0.1,0-0.2,0.1-0.2h2.2c0.1,0,0.1,0,0.1,0.1
					v12.6c0,0.5,0,1.1,0.1,1.4c0,0.1,0,0.1-0.1,0.2c-1.3,0.7-2.7,1.1-4,1.1C254.5,214.6,252.4,212.9,252.4,209.3z M259.2,206
					c-0.3-0.1-0.7-0.2-1.2-0.2c-1.8,0-3,1.2-3,3.4c0,2.4,1.3,3.3,2.9,3.3c0.5,0,1-0.1,1.4-0.2V206z"/>
				<path class="st0" d="M274.2,209.1c0,3.3-2,5.4-4.9,5.4c-3.5,0-4.9-2.7-4.9-5.4c0-3.2,2-5.4,5-5.4
					C272.5,203.8,274.2,206.2,274.2,209.1z M266.8,209.1c0,2.2,0.9,3.5,2.6,3.5c1.3,0,2.4-1,2.4-3.5c0-2-0.8-3.5-2.5-3.5
					C267.8,205.7,266.8,207,266.8,209.1z"/>
				<path class="st0" d="M283.9,213.9c0,0.1,0,0.1-0.1,0.2c-0.7,0.4-1.4,0.5-2.5,0.5c-3.3,0-4.9-2.4-4.9-5.3c0-3.2,2.1-5.5,5.3-5.5
					c1.1,0,1.7,0.2,2.1,0.4c0.1,0.1,0.1,0.1,0.1,0.2l0,1.7c0,0.1-0.1,0.1-0.2,0.1c-0.5-0.2-1-0.4-1.8-0.4c-1.8,0-3,1.3-3,3.3
					c0,2.3,1.4,3.3,2.9,3.3c0.9,0,1.5-0.2,1.9-0.4c0.1,0,0.1,0,0.1,0.1L283.9,213.9L283.9,213.9z"/>
				<path class="st0" d="M288.4,204c0.1,0,0.2,0,0.2,0.2c0.1,0.3,0.2,0.8,0.2,1.3c0.7-1.1,2-1.7,3-1.7c0.1,0,0.2,0,0.3,0
					c0.1,0,0.1,0,0.1,0.2v2c0,0.1,0,0.1-0.2,0.1c-1.1,0-2.4,0.5-3.1,1.3v6.7c0,0.1,0,0.2-0.2,0.2h-2.1c-0.1,0-0.2-0.1-0.2-0.2V207
					c0-0.9,0-2.2-0.1-2.9c0-0.1,0-0.1,0.1-0.1L288.4,204L288.4,204L288.4,204z"/>
				<path class="st0" d="M294.2,199.9c0-0.8,0.5-1.4,1.4-1.4c0.8,0,1.3,0.6,1.3,1.4c0,0.8-0.5,1.3-1.3,1.3
					C294.7,201.2,294.2,200.7,294.2,199.9z M294.3,204.2c0-0.1,0-0.2,0.2-0.2h2.1c0.1,0,0.2,0,0.2,0.2v10c0,0.1,0,0.2-0.2,0.2h-2.1
					c-0.1,0-0.2,0-0.2-0.2L294.3,204.2L294.3,204.2z"/>
				<path class="st0" d="M299.9,206.5c0-0.7,0-1.9-0.1-2.3c0-0.1,0-0.2,0.1-0.2h1.8c0.1,0,0.2,0,0.2,0.1c0.1,0.2,0.1,0.6,0.1,0.9
					c0.8-0.8,2-1.2,3-1.2c1.6,0,3.3,0.9,3.3,4.4v6c0,0.1-0.1,0.2-0.2,0.2h-2.1c-0.1,0-0.2-0.1-0.2-0.2v-6c0-1.4-0.5-2.3-1.7-2.3
					c-0.8,0-1.5,0.4-2,1v7.3c0,0.1-0.1,0.2-0.2,0.2h-2.1c-0.1,0-0.2-0.1-0.2-0.2L299.9,206.5L299.9,206.5L299.9,206.5z"/>
				<path class="st0" d="M313.8,209.4c0,1.8,1,3.1,3,3.1c0.8,0,1.7-0.1,2.6-0.6c0.1,0,0.1,0,0.1,0.1v1.7c0,0.1,0,0.2-0.1,0.3
					c-0.8,0.4-1.7,0.6-3.1,0.6c-3.7,0-5-2.7-5-5.4c0-3,1.7-5.4,4.8-5.4c3,0,4.2,2.4,4.2,4.2c0,1-0.1,1.2-0.2,1.2
					c-0.3,0.1-1,0.1-2.1,0.1L313.8,209.4L313.8,209.4z M317,207.7c0.8,0,0.9-0.1,0.9-0.2c0,0,0-0.1,0-0.2c0-0.4-0.4-1.7-2-1.7
					c-1.4,0-2,1-2.2,2H317z"/>
				<path class="st0" d="M331.1,205.7c-0.9,0-1.2,0.5-1.2,0.9c0,0.5,0.3,0.8,1.7,1.4c2.1,0.9,3,1.6,3,3.3c0,2.1-1.5,3.3-3.8,3.3
					c-1,0-2.3-0.3-3.1-0.8c-0.1-0.1-0.1-0.1-0.1-0.2v-2c0-0.1,0.1-0.1,0.1-0.1c1.1,0.7,2.2,1.2,3.3,1.2c0.9,0,1.3-0.5,1.3-1
					c0-0.5-0.3-0.9-1.8-1.5c-2.1-0.9-2.8-1.7-2.8-3.3c0-1.7,1.3-3.1,3.7-3.1c1.2,0,2.1,0.3,2.7,0.6c0.1,0.1,0.1,0.1,0.1,0.3v1.8
					c0,0.1-0.1,0.2-0.2,0.1C333.3,206.2,332.2,205.7,331.1,205.7z"/>
				<path class="st0" d="M338.4,204c0.1,0,0.2,0,0.2,0.1c1.6,4.6,2.2,6.5,2.5,7.2h0c0.8-2.3,1.6-4.9,2.2-7.2c0-0.1,0.1-0.1,0.2-0.1
					h2c0.2,0,0.2,0.1,0.1,0.2c-0.6,2.6-2,6.6-3.3,9.5c-1.2,2.7-2.4,4.6-2.9,5.3c-0.1,0.1-0.2,0.2-0.3,0.2h-2.3
					c-0.1,0-0.2-0.1-0.1-0.2c0.9-1.2,2.5-3.7,3.1-4.9c0-0.1,0.1-0.2,0.1-0.4c-0.5-1.2-3.1-7.7-3.8-9.5c0-0.1,0-0.2,0.1-0.2
					L338.4,204L338.4,204z"/>
				<path class="st0" d="M350.9,205.7c-0.9,0-1.2,0.5-1.2,0.9c0,0.5,0.3,0.8,1.7,1.4c2.1,0.9,3,1.6,3,3.3c0,2.1-1.5,3.3-3.8,3.3
					c-1,0-2.3-0.3-3.1-0.8c-0.1-0.1-0.1-0.1-0.1-0.2v-2c0-0.1,0.1-0.1,0.1-0.1c1.1,0.7,2.2,1.2,3.3,1.2c0.9,0,1.3-0.5,1.3-1
					c0-0.5-0.3-0.9-1.8-1.5c-2.1-0.9-2.8-1.7-2.8-3.3c0-1.7,1.3-3.1,3.7-3.1c1.2,0,2.1,0.3,2.7,0.6c0.1,0.1,0.1,0.1,0.1,0.3v1.8
					c0,0.1-0.1,0.2-0.2,0.1C353,206.2,352,205.7,350.9,205.7z"/>
				<path class="st0" d="M361.8,214c0,0.1,0,0.2-0.1,0.3c-0.5,0.3-1.2,0.4-1.8,0.4c-1.6,0-2.6-0.9-2.6-3V206l-1.2,0
					c-0.1,0-0.1-0.1-0.1-0.2v-1.6c0-0.1,0-0.2,0.2-0.2h1.2c0-0.7,0.1-2.1,0.2-2.7c0-0.1,0.1-0.1,0.1-0.2l2-0.4c0.1,0,0.1,0,0.1,0.1
					c-0.1,0.7-0.1,2.2-0.1,3.2h2c0.1,0,0.1,0,0.1,0.2v1.6c0,0.1,0,0.1-0.1,0.2l-2.1,0v5.2c0,1,0.3,1.4,1.1,1.4c0.3,0,0.5,0,0.9-0.2
					c0.1,0,0.1,0,0.1,0.1L361.8,214L361.8,214L361.8,214z"/>
				<path class="st0" d="M366.1,209.4c0,1.8,1,3.1,3,3.1c0.8,0,1.7-0.1,2.6-0.6c0.1,0,0.1,0,0.1,0.1v1.7c0,0.1,0,0.2-0.1,0.3
					c-0.8,0.4-1.7,0.6-3.1,0.6c-3.7,0-5-2.7-5-5.4c0-3,1.7-5.4,4.8-5.4c3,0,4.2,2.4,4.2,4.2c0,1-0.1,1.2-0.2,1.2
					c-0.3,0.1-1,0.1-2.1,0.1L366.1,209.4L366.1,209.4z M369.3,207.7c0.8,0,0.9-0.1,0.9-0.2c0,0,0-0.1,0-0.2c0-0.4-0.4-1.7-2-1.7
					c-1.4,0-2,1-2.2,2H369.3z"/>
				<path class="st0" d="M389.8,208v6.2c0,0.1-0.1,0.2-0.2,0.2h-2.1c-0.1,0-0.2-0.1-0.2-0.2v-6.1c0-1.2-0.4-2.2-1.7-2.2
					c-0.7,0-1.5,0.4-2.1,1c0.1,0.3,0.1,0.7,0.1,1.1v6.2c0,0.1,0,0.2-0.2,0.2h-2.1c-0.1,0-0.2,0-0.2-0.2v-6.1c0-1.4-0.6-2.2-1.7-2.2
					c-0.7,0-1.4,0.4-2,0.9v7.4c0,0.1,0,0.2-0.2,0.2h-2.1c-0.1,0-0.2-0.1-0.2-0.2v-7.9c0-0.9,0-1.7-0.1-2.1c0-0.1,0-0.2,0.1-0.2h1.8
					c0.1,0,0.2,0,0.2,0.1c0.1,0.2,0.1,0.7,0.1,0.9c0.9-0.8,1.9-1.3,3-1.3c1.1,0,2,0.4,2.6,1.5c1-0.8,2-1.5,3.5-1.5
					C387.9,203.8,389.8,204.7,389.8,208z"/>
			</g>
		</g>
	</g>
</g>
<g>
	<path class="st0" d="M218.9,56.7c-0.6,0-1.2-0.1-1.8-0.4c-1.2-0.5-2.2-1.4-2.7-2.6c-0.5-1.2-0.5-2.5,0-3.7l2.1-5.3
		c-2-1.7-3.7-3.8-4.8-6.1l-4,0.8c-0.3,0.1-0.6,0.1-1,0.1c-2.3,0-4.3-1.7-4.8-3.9c-0.3-1.3,0-2.6,0.7-3.7c0.7-1.1,1.8-1.8,3.1-2.1
		l3.9-0.8c0.1-2.5,0.7-4.9,1.8-7.1l-4.7-6.3c-0.8-1-1.1-2.3-0.9-3.6c0.2-1.3,0.9-2.4,1.9-3.2c0.9-0.6,1.9-1,2.9-1c1.6,0,3,0.7,3.9,2
		l3.3,4.4c1.9-1.4,4-2.4,6.2-3l0-0.5c0-2.7,2.2-4.9,4.9-4.9c2.7,0,4.9,2.2,4.9,4.9l0,0.5c2.9,0.7,5.6,2.1,7.9,4.1l4.3-3.7
		c0.9-0.8,2-1.2,3.2-1.2c1.4,0,2.8,0.6,3.7,1.7c0.9,1,1.3,2.3,1.2,3.6s-0.7,2.5-1.7,3.3l-5,4.3c0.6,1.6,0.9,3.3,1.1,5.1l6.4,2.3
		c2.5,0.9,3.9,3.7,2.9,6.3c-0.7,1.9-2.6,3.2-4.6,3.2c-0.6,0-1.1-0.1-1.7-0.3l-4.8-1.7c-0.7,1.5-1.6,2.9-2.8,4.3l1.2,1.6
		c0.8,1,1.1,2.3,0.9,3.6c-0.2,1.3-0.9,2.4-1.9,3.2c-0.9,0.6-1.9,1-2.9,1c-1.6,0-3-0.7-3.9-2l-1.3-1.7c-2.3,0.9-4.6,1.3-7,1.3
		c-1.2,0-2.5-0.1-3.8-0.4l-1.8,4.5C222.7,55.5,221,56.7,218.9,56.7z M212.4,37.2l0.2,0.4c1.2,2.5,2.9,4.6,5,6.4l0.4,0.3l-2.4,6.1
		c-0.4,0.9-0.3,1.9,0,2.8c0.4,0.9,1.1,1.6,2,1.9c0.4,0.2,0.9,0.3,1.3,0.3c1.5,0,2.8-0.9,3.4-2.3l2.2-5.5l0.5,0.1
		c1.5,0.3,2.8,0.5,4.1,0.5c2.4,0,4.7-0.5,7-1.4l0.4-0.2l1.9,2.5c0.7,0.9,1.8,1.5,2.9,1.5c0.8,0,1.5-0.3,2.2-0.7
		c0.8-0.6,1.3-1.4,1.4-2.4c0.1-1-0.1-1.9-0.7-2.7l-1.8-2.4l0.3-0.4c1.4-1.6,2.4-3.2,3.2-4.8l0.2-0.5l5.9,2.1c1.9,0.7,4-0.4,4.7-2.2
		c0.7-1.9-0.3-4-2.2-4.7l-7.2-2.6l0-0.4c-0.1-2-0.5-3.9-1.2-5.6l-0.2-0.4l5.7-4.9c0.7-0.6,1.2-1.5,1.3-2.5c0.1-1-0.2-1.9-0.9-2.7
		c-1.3-1.5-3.7-1.7-5.1-0.4l-5.1,4.4l-0.4-0.4c-2.4-2.1-5.2-3.6-8.2-4.3l-0.5-0.1l0-1.5c0-2-1.6-3.6-3.6-3.6c-2,0-3.7,1.7-3.6,3.7
		l0,1.5l-0.5,0.1c-2.4,0.6-4.7,1.7-6.8,3.3l-0.5,0.4l-4.1-5.4c-0.7-0.9-1.8-1.5-2.9-1.5c-0.8,0-1.6,0.3-2.2,0.7
		c-0.8,0.6-1.3,1.4-1.4,2.4c-0.1,1,0.1,1.9,0.7,2.7l5.2,6.9l-0.2,0.3c-1.1,2.4-1.8,4.9-1.8,7.5l0,0.5l-4.9,1c-1,0.2-1.8,0.7-2.3,1.5
		c-0.5,0.8-0.7,1.8-0.5,2.7c0.3,1.7,1.8,2.9,3.6,2.9c0.2,0,0.5,0,0.7-0.1L212.4,37.2z"/>
</g>
<g>
	<path class="st0" d="M310.6,345c-0.9,0-1.6-0.6-1.8-1.4l-0.7-3c-0.7-0.1-1.3-0.3-2-0.5l-2.3,2.1c-0.7,0.7-2,0.6-2.6-0.1
		c-0.7-0.8-0.7-1.9,0.1-2.6l1.8-1.7c-0.5-0.6-0.8-1.2-1.1-1.8l-1.1,0.2c-1,0.2-2-0.5-2.2-1.5c-0.1-0.5,0-1,0.3-1.4
		c0.3-0.4,0.7-0.7,1.2-0.8l1.2-0.2c0.1-1,0.4-1.9,0.8-2.7c0.2-0.5,0.5-0.9,0.8-1.3l-1.5-1.8c-0.7-0.8-0.6-2,0.2-2.6
		c0.7-0.7,2-0.6,2.6,0.2l1.7,2c1-0.4,2-0.6,3-0.6l0.5-1.9c0.3-1,1.3-1.6,2.3-1.3c1,0.3,1.6,1.3,1.3,2.3l-0.5,1.9
		c0.8,0.5,1.6,1.1,2.2,1.9l3.5-0.6c1.1-0.2,2,0.5,2.2,1.5c0.2,1-0.5,2-1.5,2.2l-2.6,0.4c0.1,0.8,0.1,1.5,0,2.3l1.6,0.8
		c0.9,0.5,1.3,1.6,0.8,2.5c-0.4,0.9-1.6,1.3-2.5,0.8l-1.4-0.7c-0.8,1.1-2,2-3.3,2.5l0.6,2.6c0.2,1-0.4,2-1.4,2.3
		C310.8,345,310.7,345,310.6,345z M305.8,338.6l0.4,0.2c0.7,0.4,1.5,0.6,2.4,0.6l0.5,0l0.9,3.9c0.1,0.3,0.4,0.6,0.8,0.5
		c0.3-0.1,0.5-0.4,0.5-0.8l-0.9-3.7l0.6-0.2c1.4-0.4,2.7-1.4,3.5-2.7l0.3-0.5l2.4,1.2c0.3,0.2,0.7,0,0.8-0.3c0.2-0.3,0-0.7-0.3-0.8
		l-2.5-1.2l0.1-0.5c0.2-1,0.2-1.9-0.1-2.9l-0.2-0.7l3.9-0.7c0.3-0.1,0.6-0.4,0.5-0.7c-0.1-0.3-0.3-0.5-0.6-0.5l-4.4,0.7l-0.2-0.3
		c-0.6-0.8-1.4-1.5-2.3-1.9l-0.5-0.2l0-0.6l0.7-2.4c0.1-0.3-0.1-0.7-0.4-0.8c-0.3-0.1-0.7,0.1-0.8,0.4l-0.8,2.9l-0.5,0
		c-0.2,0-0.4,0-0.5,0c-1,0-1.9,0.2-2.8,0.7l-0.4,0.2l-2.4-2.7c-0.2-0.2-0.6-0.3-0.9-0.1c-0.3,0.2-0.3,0.6-0.1,0.9l2.3,2.6l-0.4,0.4
		c-0.4,0.4-0.7,0.9-1,1.5c-0.4,0.8-0.6,1.7-0.7,2.7l0,0.5l-2.2,0.4c-0.2,0-0.3,0.1-0.4,0.3c-0.1,0.1-0.1,0.3-0.1,0.5
		c0.1,0.3,0.3,0.5,0.6,0.5l2.3-0.4l0.2,0.5c0.3,0.9,0.8,1.6,1.4,2.3l0.4,0.5l-2.7,2.5c-0.3,0.2-0.3,0.6,0,0.9c0.2,0.2,0.6,0.3,0.9,0
		L305.8,338.6z"/>
</g>
<g>
	<path class="st0" d="M569,227.5c-1.1,0-2.1-0.7-2.4-1.8l-1.6-5.6c-0.1,0-0.3,0-0.5,0c-2,0-4.1-0.3-6-1l-1.9,3.4
		c-0.6,1.2-2.2,1.6-3.4,1c-1.2-0.7-1.6-2.2-1-3.4l1.8-3.2c-1.6-1.1-3-2.4-4.2-3.9l-3.3,1.2c-1.2,0.4-2.7-0.2-3.2-1.5
		c-0.2-0.6-0.2-1.3,0.1-1.9c0.3-0.6,0.8-1.1,1.4-1.3l2.4-0.9c-0.9-2.2-1.4-4.5-1.4-6.9h-2.6c-1.4,0-2.5-1.1-2.5-2.5
		c0-1.4,1.1-2.5,2.5-2.5h3.3c0.3-1.3,0.8-2.6,1.5-3.9l-6.1-4c-0.6-0.4-0.9-0.9-1.1-1.6c-0.1-0.7,0-1.3,0.4-1.9
		c0.7-1.1,2.3-1.5,3.5-0.7l6.3,4.1c0.8-0.8,1.6-1.6,2.6-2.3l-1.2-2.4c-0.6-1.2-0.1-2.7,1.1-3.3c1.2-0.6,2.7-0.1,3.3,1.1l1.1,2.2
		c1.4-0.6,2.8-0.9,4.3-1.1v-5.7c0-1.4,1.1-2.5,2.5-2.5c1.4,0,2.5,1.1,2.5,2.5v5.7c2.4,0.3,4.7,1.1,6.9,2.4l0.8-1.8
		c0.6-1.2,2.1-1.8,3.3-1.2c0.6,0.3,1.1,0.8,1.3,1.4c0.2,0.6,0.2,1.3-0.1,1.9l-1.3,2.9c1.1,1.1,2,2.3,2.8,3.6l6-2.6
		c1.2-0.5,2.8,0.1,3.3,1.3c0.5,1.3,0,2.7-1.3,3.3l-6.1,2.7c0.4,1.6,0.6,3.2,0.6,4.8c0,0.2,0,0.4,0,0.6l3.1,0.4
		c0.7,0.1,1.3,0.4,1.7,0.9c0.4,0.5,0.6,1.2,0.5,1.8c-0.2,1.3-1.3,2.3-2.8,2.2l-3.3-0.4c-0.5,1.7-1.2,3.2-2.2,4.7l2.4,2.7
		c0.9,1,0.8,2.6-0.2,3.5c-1,0.9-2.6,0.8-3.5-0.2l-2-2.2c-2,1.8-4.4,3.1-7,3.9l1.4,5c0.2,0.6,0.1,1.3-0.2,1.9c-0.3,0.6-0.9,1-1.5,1.2
		C569.5,227.4,569.3,227.5,569,227.5z M566,218.8l1.8,6.5c0.2,0.6,0.9,1,1.5,0.9c0.3-0.1,0.6-0.3,0.8-0.6c0.2-0.3,0.2-0.6,0.1-1
		l-1.8-6.2l0.6-0.2c2.8-0.7,5.4-2.2,7.5-4.2l0.5-0.4l2.8,3.2c0.4,0.5,1.3,0.5,1.8,0.1c0.5-0.5,0.6-1.2,0.1-1.8l-3.1-3.4l0.3-0.4
		c1.1-1.6,1.9-3.3,2.4-5.2l0.1-0.5l4.4,0.5c0,0,0.1,0,0.2,0c0.6,0,1.2-0.5,1.2-1.1c0-0.3-0.1-0.7-0.3-0.9c-0.2-0.3-0.5-0.4-0.8-0.5
		l-4.3-0.5l0.1-0.8c0-0.3,0-0.6,0-0.9c0-1.7-0.2-3.3-0.7-5l-0.2-0.5l7.1-3.1c0.6-0.3,0.9-1,0.6-1.6c-0.3-0.6-1-0.9-1.6-0.6l-7,3.1
		l-0.3-0.5c-0.8-1.5-1.9-2.9-3.1-4.1l-0.3-0.3l1.7-3.6c0.1-0.3,0.2-0.6,0-1c-0.1-0.3-0.3-0.6-0.6-0.7c-0.6-0.3-1.4,0-1.7,0.6
		l-1.4,3.1l-0.6-0.4c-2.3-1.5-4.8-2.3-7.5-2.6l-0.6-0.1v-6.8c0-0.7-0.6-1.2-1.2-1.2c-0.7,0-1.2,0.6-1.2,1.2v6.8l-0.6,0.1
		c-1.7,0.2-3.5,0.6-5.1,1.3l-0.5,0.2l-1.6-3.2c-0.3-0.6-1.1-0.9-1.7-0.6c-0.6,0.3-0.9,1.1-0.6,1.7l1.6,3.3l-0.4,0.3
		c-1.1,0.8-2.2,1.8-3.1,2.8l-0.4,0.4l-7.2-4.7c-0.6-0.4-1.4-0.2-1.7,0.4c-0.2,0.3-0.2,0.6-0.2,0.9c0.1,0.3,0.3,0.6,0.5,0.8l7.1,4.6
		l-0.3,0.5c-0.8,1.4-1.4,2.9-1.7,4.5l-0.1,0.5h-4.3c-0.7,0-1.2,0.6-1.2,1.2s0.6,1.2,1.2,1.2h3.9l0,1c0,2.5,0.5,4.9,1.6,7.3l0.3,0.6
		l-3.7,1.3c-0.3,0.1-0.6,0.3-0.7,0.6c-0.1,0.3-0.2,0.6,0,1c0.2,0.6,1,1,1.6,0.8l4.2-1.5l0.3,0.4c1.3,1.7,2.8,3.2,4.6,4.3l0.5,0.3
		l-2.4,4.2c-0.3,0.6-0.1,1.4,0.5,1.7c0.6,0.3,1.4,0.1,1.7-0.5l2.4-4.4l0.5,0.2c2.2,0.8,4.5,1.2,6.7,1.1L566,218.8z M566.1,200.4
		c-2.4,0-4.4-2-4.4-4.4c0-2.4,2-4.4,4.4-4.4c2.4,0,4.4,2,4.4,4.4C570.5,198.4,568.5,200.4,566.1,200.4z M566.1,192.9
		c-1.7,0-3.1,1.4-3.1,3.1c0,1.7,1.4,3.1,3.1,3.1c1.7,0,3.1-1.4,3.1-3.1C569.2,194.3,567.8,192.9,566.1,192.9z"/>
</g>
<g>
	<g>
		<g>
			<path class="st0" d="M411,287.4C411,287.4,411,287.4,411,287.4c-2,0-3.5-1.4-4.4-4.2c-1.1-3.4-0.8-6.6,0.9-9.6
				c4.7-8.5,18.8-12.1,19.4-12.3l0.2-0.1l0.2,0.1c1,0.5,1.2,1.9,0.7,4.1C426.3,272.5,417.1,287.4,411,287.4z M426.9,262.6
				c-2.1,0.6-14.2,4.2-18.3,11.6c-1.5,2.7-1.7,5.6-0.8,8.6c0.7,2.2,1.8,3.4,3.2,3.4c5.3,0,14.2-14.4,15.8-21
				C427.1,263.6,427,262.9,426.9,262.6z"/>
		</g>
		<g>
			<path class="st0" d="M391.5,306.7c-1.4,0-3.1-0.9-5.1-2.7c-9.7-8.7-20.1-20.7-21.1-23.7c-0.1-0.4-0.1-0.8,0.1-1.1
				c0.3-0.5,1-0.7,2.2-0.7c4.1,0,13.8,2.9,18,5c5.8,3,9.3,11.4,9.4,11.7l0,0.2c0,0.3,1,7.6-1.4,10.3
				C393.1,306.4,392.3,306.7,391.5,306.7z M367.6,279.7c-1,0-1.2,0.2-1.2,0.2c0.9,2.5,10.7,14.1,20.8,23.1c2.2,2,3.6,2.4,4.3,2.4
				c0.5,0,0.9-0.2,1.3-0.6c1.6-1.8,1.3-7.2,1.1-9.2c-0.4-0.8-3.7-8.4-8.8-11C381,282.5,371.6,279.7,367.6,279.7z"/>
		</g>
		<g>
			<path class="st0" d="M400.2,323.8l-0.4-1.2c0.1,0,8.6-3.4,1.6-25.1c-6.8-21.1-0.7-29.8-0.4-30.2l1,0.7c-0.1,0.1-6,8.6,0.6,29.1
				C410.1,320.3,400.3,323.8,400.2,323.8z"/>
		</g>
		<g>
			
				<rect x="397.9" y="283" transform="matrix(0.7698 -0.6383 0.6383 0.7698 -87.2668 325.2785)" class="st0" width="18.9" height="1.2"/>
		</g>
		<g>
			<path class="st0" d="M405.3,312.7H404c0-5.2-13.7-13.9-19-16.9l0.6-1.1C386.4,295.2,405.3,305.7,405.3,312.7z"/>
		</g>
	</g>
	<g>
		<path class="st0" d="M365.1,423.6c-1.8,0-3.3-1.4-3.6-3.2l-0.6-4.9c-1.9-0.2-3.7-0.6-5.5-1.2l-5.8,6.5c-1.3,1.4-3.6,1.6-5.1,0.3
			c-1.5-1.3-1.6-3.6-0.3-5.1l4.8-5.3c-0.9-0.7-1.7-1.4-2.4-2.1c-0.5-0.5-1-1.1-1.5-1.8l-7.5,3.1c-0.4,0.2-0.9,0.3-1.4,0.3
			c-1.5,0-2.8-0.9-3.3-2.2c-0.8-1.8,0.1-3.9,1.9-4.7l6.8-2.8c-0.8-2.2-1.2-4.6-1.3-7.1l-5.2-1c-2-0.4-3.2-2.2-2.9-4.2
			c0.4-1.9,2.2-3.3,4.2-2.9l4.9,0.9c0.4-1.4,0.9-2.6,1.5-3.8l-7.1-5.2c-0.8-0.6-1.3-1.4-1.4-2.3c-0.1-0.9,0.1-1.9,0.6-2.7
			c1.1-1.5,3.5-1.9,5-0.8l7.1,5.2c0.1-0.1,0.1-0.2,0.2-0.2c1.3-1.3,2.8-2.4,4.4-3.3l-2-2.2c-1.3-1.5-1.2-3.8,0.3-5.1
			c1.4-1.3,3.8-1.1,5.1,0.3l3.6,4c1.7-0.8,3.2-1.8,4.6-3.1c4.2-4,5.9-9.7,4.7-15.3l-0.2-1c-1.4-7.7,1-15.4,6.6-20.7
			c3.5-3.4,7.9-5.5,12.8-6.1l0-3.8c0-2,1.6-3.6,3.6-3.6c2,0,3.6,1.6,3.6,3.6l0,4.1c1.7,0.3,3.3,0.8,4.8,1.5l3-7.8
			c0.7-1.8,2.8-2.8,4.6-2.1c1.9,0.7,2.8,2.8,2.1,4.6l-3.5,9.2c0.4,0.4,0.8,0.8,1.2,1.2c0.5,0.5,1,1.1,1.6,1.8l5.5-4.4
			c0.6-0.5,1.4-0.8,2.2-0.8c1.1,0,2.1,0.5,2.8,1.4c0.6,0.8,0.9,1.7,0.8,2.6c-0.1,1-0.6,1.8-1.3,2.4l-6.5,5.2c0.4,1,0.6,2.1,0.9,3.2
			l6,0.4c1,0.1,1.8,0.5,2.5,1.2c0.6,0.7,1,1.6,0.9,2.6c-0.1,1.9-1.7,3.4-3.6,3.4l-0.2,0l-5.4-0.3c-0.2,1.3-0.4,2.6-0.8,3.8l5.2,2.6
			c0.9,0.4,1.5,1.2,1.8,2.1c0.3,0.9,0.2,1.9-0.2,2.7c-0.6,1.2-1.8,2-3.2,2c-0.6,0-1.1-0.1-1.6-0.4l-5.1-2.6
			c-0.8,1.2-1.8,2.3-2.8,3.3c-2.6,2.4-5.7,4.3-9.1,5.3l-0.4,0.2c-2.4,0.8-5.3,2.6-7,4.2c-4,3.8-5.4,8.5-4.2,14.1l0.1,0.4l0.1,1.4
			c0.1,0.3,0.1,0.6,0.2,1c1.1,7.3-1.5,14.7-6.8,19.8c-3,2.9-6.7,4.9-10.7,5.8l0.5,4.4c0.2,2-1.2,3.8-3.1,4
			C365.4,423.6,365.2,423.6,365.1,423.6z M355.1,412.9l0.4,0.2c1.9,0.7,4,1.2,6,1.3l0.5,0l0.7,5.9c0.2,1.3,1.3,2.2,2.6,2
			c1.3-0.2,2.2-1.3,2-2.6l-0.7-5.6l0.6-0.1c4-0.8,7.7-2.7,10.7-5.5c5-4.8,7.4-11.8,6.4-18.7c0-0.3-0.1-0.7-0.2-1l-0.2-1.8
			c-1.3-6.1,0.2-11.1,4.5-15.3c1.8-1.8,5-3.6,7.4-4.5l0.5-0.2c3.3-1,6.2-2.7,8.6-5.1c1.1-1.1,2.1-2.3,3-3.6l0.3-0.5l6.1,3.1
			c1.1,0.6,2.6,0.1,3.2-1c0.3-0.6,0.3-1.2,0.1-1.8c-0.2-0.6-0.6-1.1-1.2-1.4l-6.1-3.1l0.2-0.5c0.5-1.5,0.8-3.1,1-4.6l0.1-0.6
			l6.7,0.4c1.2,0,2.3-1,2.3-2.2c0-0.6-0.2-1.2-0.6-1.7c-0.4-0.5-1-0.7-1.6-0.8l-7-0.4l-0.1-0.5c-0.2-1.3-0.6-2.6-1-3.9l-0.2-0.4
			l7.2-5.7c0.5-0.4,0.8-0.9,0.9-1.6c0.1-0.6-0.1-1.2-0.5-1.7c-0.8-1-2.3-1.2-3.3-0.4l-6.5,5.2l-0.4-0.5c-0.7-0.9-1.2-1.6-1.8-2.2
			c-0.4-0.4-0.9-0.9-1.5-1.4l-0.3-0.3l3.8-10c0.5-1.2-0.1-2.6-1.4-3c-1.2-0.4-2.6,0.2-3,1.4l-3.4,9l-0.6-0.3
			c-1.8-0.8-3.7-1.4-5.6-1.7l-0.5-0.1l0-5.1c0-1.3-1.1-2.3-2.3-2.3c-1.3,0-2.4,1.1-2.3,2.4l0,4.9l-0.6,0.1
			c-4.8,0.5-9.1,2.5-12.6,5.8c-5.3,5-7.6,12.4-6.3,19.6l0.2,1c1.3,6.1-0.6,12.2-5,16.5c-1.6,1.5-3.4,2.7-5.4,3.5l-0.4,0.2l-4.2-4.7
			c-0.8-0.9-2.4-1-3.3-0.2c-1,0.9-1.1,2.3-0.2,3.3l3,3.4l-0.7,0.4c-1.8,0.9-3.4,2.1-4.9,3.5c-0.1,0.1-0.2,0.2-0.3,0.3l-0.6,0.6
			l-8-5.8c-1-0.7-2.5-0.5-3.3,0.5c-0.4,0.5-0.5,1.1-0.4,1.7c0.1,0.6,0.4,1.2,0.9,1.5l8,5.8l-0.3,0.5c-0.8,1.4-1.4,3-1.8,4.6
			l-0.2,0.6l-6-1.1c-1.3-0.2-2.5,0.6-2.7,1.9c-0.2,1.3,0.6,2.5,1.9,2.7l6.2,1.1l0,0.5c0,2.7,0.5,5.3,1.4,7.7l0.2,0.6l-7.9,3.3
			c-1.2,0.5-1.8,1.9-1.3,3.1c0.5,1.2,1.9,1.7,3.1,1.3l8.4-3.5l0.3,0.4c0.6,0.8,1.1,1.5,1.7,2c0.8,0.8,1.7,1.6,2.7,2.4l0.5,0.4
			l-5.6,6.3c-0.9,1-0.8,2.5,0.2,3.3c0.9,0.8,2.5,0.7,3.3-0.2L355.1,412.9z M372.8,402.1c-3.6,0-6.6-2.9-6.6-6.6
			c0-3.6,2.9-6.6,6.6-6.6c3.6,0,6.6,2.9,6.6,6.6C379.3,399.1,376.4,402.1,372.8,402.1z M372.8,390.2c-2.9,0-5.3,2.4-5.3,5.3
			c0,2.9,2.4,5.3,5.3,5.3s5.3-2.4,5.3-5.3C378.1,392.6,375.7,390.2,372.8,390.2z M354.4,399.7c-3.6,0-6.6-2.9-6.6-6.6
			c0-3.6,2.9-6.6,6.6-6.6c3.6,0,6.6,2.9,6.6,6.6S358,399.7,354.4,399.7z M354.4,387.9c-2.9,0-5.3,2.4-5.3,5.3c0,2.9,2.4,5.3,5.3,5.3
			s5.3-2.4,5.3-5.3C359.7,390.2,357.4,387.9,354.4,387.9z M366,386.2c-3,0-5.4-2.4-5.4-5.4c0-3,2.4-5.4,5.4-5.4c3,0,5.4,2.4,5.4,5.4
			C371.4,383.7,369,386.2,366,386.2z M366,376.6c-2.3,0-4.2,1.9-4.2,4.2c0,2.3,1.9,4.2,4.2,4.2c2.3,0,4.2-1.9,4.2-4.2
			C370.2,378.4,368.3,376.6,366,376.6z M377,370.3c-3,0-5.4-2.4-5.4-5.4c0-3,2.4-5.4,5.4-5.4c3,0,5.4,2.4,5.4,5.4
			C382.4,367.8,380,370.3,377,370.3z M377,360.7c-2.3,0-4.2,1.9-4.2,4.2c0,2.3,1.9,4.2,4.2,4.2c2.3,0,4.2-1.9,4.2-4.2
			C381.2,362.6,379.3,360.7,377,360.7z M395.5,360.2c-3,0-5.4-2.4-5.4-5.4c0-3,2.4-5.4,5.4-5.4c3,0,5.4,2.4,5.4,5.4
			C401,357.8,398.5,360.2,395.5,360.2z M395.5,350.6c-2.3,0-4.2,1.9-4.2,4.2c0,2.3,1.9,4.2,4.2,4.2c2.3,0,4.2-1.9,4.2-4.2
			C399.7,352.5,397.8,350.6,395.5,350.6z M383,350.3c-3.6,0-6.6-2.9-6.6-6.6c0-3.6,2.9-6.6,6.6-6.6c3.6,0,6.6,2.9,6.6,6.6
			C389.5,347.3,386.6,350.3,383,350.3z M383,338.4c-2.9,0-5.3,2.4-5.3,5.3c0,2.9,2.4,5.3,5.3,5.3c2.9,0,5.3-2.4,5.3-5.3
			C388.3,340.8,385.9,338.4,383,338.4z M400.3,346.9c-3,0-5.4-2.4-5.4-5.4c0-3,2.4-5.4,5.4-5.4s5.4,2.4,5.4,5.4
			C405.8,344.4,403.3,346.9,400.3,346.9z M400.3,337.3c-2.3,0-4.2,1.9-4.2,4.2s1.9,4.2,4.2,4.2s4.2-1.9,4.2-4.2
			S402.6,337.3,400.3,337.3z"/>
	</g>
</g>
</svg>
