<?xml version="1.0" encoding="utf-8"?>
<!-- Generator: Adobe Illustrator 16.0.0, SVG Export Plug-In . SVG Version: 6.00 Build 0)  -->
<!DOCTYPE svg PUBLIC "-//W3C//DTD SVG 1.1//EN" "http://www.w3.org/Graphics/SVG/1.1/DTD/svg11.dtd">
<svg version="1.1" id="Isolation_Mode" xmlns="http://www.w3.org/2000/svg" xmlns:xlink="http://www.w3.org/1999/xlink" x="0px"
	 y="0px" width="690.831px" height="376.834px" viewBox="-83.094 -28.167 690.831 376.834"
	 enable-background="new -83.094 -28.167 690.831 376.834" xml:space="preserve">
<g>
	<g>
		<g>
			<path fill="#F7F7F7" d="M68.987,343.851c-7.33,0-13.977-1.655-19.757-4.914c-19.53-11.021-27.755-39.247-23.158-79.486
				c4.575-40.049,21.298-87.279,47.086-132.991C118.086,46.828,179.658-8.789,222.891-8.789c7.33,0,13.978,1.654,19.759,4.915
				c19.529,11.018,27.753,39.244,23.158,79.481c-4.574,40.049-21.295,87.275-47.083,132.981
				C173.785,288.226,112.211,343.851,68.987,343.851z M222.89-7.523c-20.31,0-46.168,13.16-72.815,37.057
				C122.558,54.212,96.34,87.944,74.26,127.082c-25.709,45.567-42.375,92.628-46.932,132.514
				c-4.535,39.7,3.463,67.483,22.522,78.236c5.587,3.152,12.026,4.752,19.136,4.752c20.309,0,46.167-13.161,72.814-37.062
				c27.514-24.679,53.734-58.413,75.82-97.557c25.708-45.562,42.373-92.619,46.928-132.503c4.535-39.699-3.463-67.483-22.522-78.235
				C236.438-5.925,230-7.523,222.89-7.523z"/>
		</g>
		<g>
			<path fill="#F7F7F7" d="M231.488,338.117c-42.945,0-106.784-51.196-155.248-124.499C47.291,169.84,27.281,123.909,19.896,84.28
				c-7.422-39.812-1.207-68.548,17.498-80.915c6.445-4.261,14.185-6.422,23.002-6.422c42.951,0,106.794,51.196,155.255,124.499
				c59.848,90.521,77.269,184.84,38.833,210.254C248.041,335.956,240.303,338.117,231.488,338.117z M60.396-1.791
				c-8.566,0-16.07,2.09-22.304,6.212C19.839,16.49,13.819,44.769,21.139,84.049c7.356,39.466,27.299,85.232,56.157,128.871
				c48.242,72.969,111.65,123.931,154.192,123.931c8.564,0,16.065-2.09,22.297-6.21c37.854-25.026,20.274-118.562-39.19-208.501
				C166.354,49.171,102.947-1.791,60.396-1.791z"/>
		</g>
		<g>
			<path fill="#F7F7F7" d="M161.654,251.411c-0.002,0-0.001,0-0.004,0c-6.318,0-12.752-0.132-19.123-0.392
				C34.101,246.589-52.582,205.53-50.7,159.493c0.856-20.987,19.997-40.281,53.896-54.327
				C36.71,91.281,81.824,83.632,130.227,83.632c6.317,0,12.75,0.132,19.122,0.392c52.438,2.142,101.395,12.794,137.854,29.995
				c36.626,17.279,56.291,39.131,55.371,61.531c-0.856,20.989-19.996,40.283-53.893,54.328
				C255.171,243.762,210.057,251.411,161.654,251.411z M130.227,84.9c-48.241,0-93.182,7.613-126.547,21.436
				c-33.416,13.845-52.279,32.743-53.116,53.209c-1.852,45.341,84.287,85.807,192.016,90.208c6.354,0.26,12.769,0.392,19.07,0.392
				c48.243,0,93.184-7.611,126.548-21.437c33.415-13.845,52.278-32.742,53.111-53.209c0.898-21.859-18.51-43.287-54.646-60.334
				C250.355,98.033,201.57,87.426,149.298,85.29C142.943,85.031,136.527,84.9,130.227,84.9z"/>
		</g>
		<g>
			<path fill="#F7F7F7" d="M131.469,162.171c4.508-7.986,14.642-10.812,22.633-6.305c7.99,4.51,10.811,14.645,6.306,22.631
				c-4.511,7.995-14.641,10.814-22.639,6.312C129.781,180.294,126.968,170.166,131.469,162.171z"/>
		</g>
		<g>
			<path fill="#F7F7F7" d="M232.88-8.505c2.252-3.999,7.324-5.409,11.315-3.152c3.993,2.254,5.406,7.314,3.153,11.314
				c-2.255,3.994-7.322,5.408-11.314,3.151C232.035,0.555,230.624-4.511,232.88-8.505z"/>
		</g>
		<g>
			<path fill="#F7F7F7" d="M-56.432,150.131c2.256-4,7.324-5.41,11.319-3.153c3.995,2.254,5.406,7.317,3.151,11.315
				c-2.254,3.995-7.32,5.408-11.314,3.152C-57.273,159.19-58.686,154.125-56.432,150.131z"/>
		</g>
		<g>
			<circle fill="#F7F7F7" cx="251.26" cy="332.967" r="8.308"/>
		</g>
	</g>
	<g>
		<path fill="#F7F7F7" d="M211.085,304.645c-0.018,0.141-0.073,0.16-0.184,0.16h-7.524c-0.129,0-0.166-0.061-0.166-0.181v-12.809
			c0-0.14,0.037-0.181,0.147-0.181h7.303c0.13,0,0.147,0.02,0.186,0.14l0.184,1.645c0.02,0.1,0,0.181-0.128,0.181h-5.422v2.904
			h4.905c0.093,0,0.13,0.042,0.13,0.141v1.685c0,0.121-0.056,0.141-0.13,0.141h-4.905v4.369h5.754c0.11,0,0.13,0.061,0.11,0.16
			L211.085,304.645z"/>
		<path fill="#F7F7F7" d="M213.202,296.727h8.999c0.093,0,0.11,0.039,0.11,0.139v1.445c0,0.14-0.019,0.16-0.148,0.16h-8.943
			c-0.11,0-0.166-0.041-0.166-0.16v-1.445C213.054,296.748,213.11,296.727,213.202,296.727z M213.202,300.675h8.981
			c0.093,0,0.128,0.021,0.128,0.161v1.423c0,0.141-0.056,0.16-0.166,0.16h-8.926c-0.11,0-0.166-0.039-0.166-0.16v-1.444
			C213.054,300.696,213.11,300.675,213.202,300.675z"/>
		<path fill="#F7F7F7" d="M238.372,298.813v5.832c0,0.12-0.074,0.16-0.166,0.16h-1.937c-0.11,0-0.166-0.061-0.166-0.181v-5.732
			c0-1.162-0.405-2.026-1.568-2.026c-0.701,0-1.364,0.342-1.992,0.923c0.055,0.241,0.093,0.622,0.093,1.024v5.812
			c0,0.121-0.038,0.182-0.148,0.182h-1.936c-0.129,0-0.185-0.038-0.185-0.182v-5.731c0-1.343-0.554-2.024-1.569-2.024
			c-0.701,0-1.29,0.34-1.9,0.862v6.915c0,0.1-0.036,0.16-0.148,0.16h-1.973c-0.11,0-0.148-0.061-0.148-0.182v-7.416
			c0-0.802-0.036-1.623-0.073-1.984c-0.019-0.099,0.019-0.158,0.128-0.158h1.734c0.11,0,0.148,0.038,0.203,0.118
			c0.055,0.183,0.111,0.623,0.128,0.883c0.886-0.78,1.808-1.201,2.84-1.201c1.033,0,1.864,0.381,2.416,1.401
			c0.903-0.781,1.881-1.401,3.283-1.401C236.619,294.864,238.372,295.746,238.372,298.813z"/>
		<path fill="#F7F7F7" d="M247.956,304.363c0,0.102-0.019,0.141-0.092,0.182c-0.628,0.342-1.348,0.461-2.307,0.461
			c-3.08,0-4.591-2.225-4.591-5.011c0-2.968,1.954-5.131,4.979-5.131c1.033,0,1.643,0.22,1.937,0.358
			c0.076,0.062,0.11,0.101,0.11,0.223l-0.018,1.623c0,0.119-0.074,0.139-0.148,0.1c-0.479-0.222-0.977-0.361-1.734-0.361
			c-1.695,0-2.785,1.224-2.785,3.107c0,2.186,1.273,3.086,2.73,3.086c0.867,0,1.364-0.16,1.789-0.382
			c0.093-0.02,0.13,0.021,0.13,0.102v1.644H247.956z"/>
		<path fill="#F7F7F7" d="M249.65,298.131c-0.077,0-0.086-0.034-0.086-0.106v-0.712c0-0.069,0.009-0.105,0.053-0.139
			c0.462-0.387,1.215-1.053,2.152-2.068c0.87-0.923,1.173-1.461,1.173-2.22c0-0.784-0.505-1.345-1.397-1.345
			c-0.658,0-1.282,0.245-1.786,0.561c-0.053,0.036-0.097,0.013-0.097-0.07v-0.971c0-0.056,0.01-0.079,0.054-0.117
			c0.538-0.338,1.29-0.605,2.118-0.605c1.591,0,2.41,1.097,2.41,2.384c0,0.946-0.345,1.669-1.098,2.513
			c-0.752,0.84-1.301,1.353-1.708,1.752c0.559-0.013,1.279-0.024,1.914-0.024h1.258c0.076,0,0.098,0.012,0.085,0.081l-0.236,0.991
			c-0.011,0.072-0.043,0.094-0.107,0.094h-4.7V298.131z"/>
	</g>
	<g>
		<path fill="#F7F7F7" d="M324.36,41.343c-0.017,0.14-0.072,0.16-0.183,0.16h-7.526c-0.128,0-0.165-0.06-0.165-0.181v-12.81
			c0-0.14,0.037-0.18,0.146-0.18h7.304c0.132,0,0.149,0.021,0.186,0.141l0.185,1.644c0.02,0.1,0,0.18-0.129,0.18h-5.424v2.907h4.906
			c0.093,0,0.13,0.041,0.13,0.141v1.685c0,0.12-0.057,0.141-0.13,0.141h-4.906v4.37h5.756c0.11,0,0.128,0.06,0.11,0.161
			L324.36,41.343z"/>
		<path fill="#F7F7F7" d="M326.476,33.425h9c0.092,0,0.11,0.04,0.11,0.14v1.443c0,0.14-0.019,0.161-0.146,0.161h-8.944
			c-0.111,0-0.165-0.041-0.165-0.161v-1.443C326.33,33.445,326.384,33.425,326.476,33.425z M326.476,37.374h8.982
			c0.091,0,0.129,0.021,0.129,0.159v1.424c0,0.141-0.054,0.161-0.165,0.161h-8.927c-0.111,0-0.165-0.041-0.165-0.161v-1.443
			C326.33,37.394,326.384,37.374,326.476,37.374z"/>
		<path fill="#F7F7F7" d="M351.648,35.509v5.834c0,0.12-0.073,0.16-0.165,0.16h-1.937c-0.11,0-0.165-0.06-0.165-0.181v-5.733
			c0-1.162-0.406-2.025-1.568-2.025c-0.701,0-1.365,0.34-1.992,0.922c0.056,0.241,0.093,0.622,0.093,1.022v5.813
			c0,0.12-0.037,0.181-0.149,0.181h-1.935c-0.13,0-0.185-0.041-0.185-0.181v-5.733c0-1.343-0.554-2.025-1.566-2.025
			c-0.701,0-1.292,0.34-1.9,0.861v6.916c0,0.102-0.036,0.161-0.146,0.161h-1.975c-0.109,0-0.146-0.059-0.146-0.181v-7.417
			c0-0.801-0.037-1.624-0.074-1.984c-0.02-0.1,0.019-0.161,0.128-0.161h1.735c0.11,0,0.146,0.041,0.201,0.121
			c0.057,0.181,0.112,0.622,0.131,0.882c0.885-0.782,1.809-1.202,2.84-1.202s1.863,0.38,2.415,1.403
			c0.905-0.782,1.882-1.403,3.284-1.403C349.896,31.561,351.648,32.443,351.648,35.509z"/>
		<path fill="#F7F7F7" d="M361.232,41.062c0,0.102-0.019,0.14-0.092,0.181c-0.627,0.342-1.346,0.46-2.305,0.46
			c-3.08,0-4.593-2.224-4.593-5.01c0-2.966,1.956-5.132,4.979-5.132c1.033,0,1.642,0.22,1.937,0.36
			c0.074,0.06,0.112,0.1,0.112,0.221l-0.02,1.623c0,0.12-0.075,0.141-0.147,0.1c-0.48-0.22-0.977-0.361-1.733-0.361
			c-1.697,0-2.785,1.223-2.785,3.107c0,2.186,1.272,3.086,2.729,3.086c0.868,0,1.364-0.161,1.789-0.381
			c0.093-0.02,0.129,0.021,0.129,0.101L361.232,41.062L361.232,41.062z"/>
		<path fill="#F7F7F7" d="M362.928,34.83c-0.076,0-0.087-0.036-0.087-0.105v-0.713c0-0.071,0.012-0.105,0.056-0.141
			c0.461-0.386,1.214-1.052,2.15-2.067c0.871-0.923,1.172-1.461,1.172-2.22c0-0.784-0.505-1.344-1.396-1.344
			c-0.657,0-1.282,0.245-1.785,0.56c-0.054,0.035-0.097,0.011-0.097-0.07v-0.969c0-0.059,0.011-0.082,0.053-0.117
			c0.538-0.339,1.291-0.607,2.12-0.607c1.591,0,2.408,1.099,2.408,2.383c0,0.947-0.343,1.67-1.097,2.512
			c-0.753,0.841-1.301,1.355-1.711,1.752c0.559-0.011,1.28-0.024,1.915-0.024h1.259c0.075,0,0.096,0.012,0.085,0.083l-0.236,0.993
			c-0.011,0.07-0.043,0.094-0.108,0.094h-4.7V34.83z"/>
	</g>
	<g>
		<path fill="#F7F7F7" d="M273.731,167.841c0-0.081,0.037-0.141,0.13-0.141c0.738-0.021,2.177-0.04,3.578-0.04
			c3.724,0,4.979,2.083,4.997,4.409c0,3.228-2.471,4.609-5.238,4.609c-0.554,0-1.088,0-1.199-0.02v4.049
			c0,0.1-0.035,0.161-0.146,0.161h-1.992c-0.074,0-0.13-0.039-0.13-0.141V167.841z M275.998,174.716
			c0.148,0,0.425,0.019,1.274,0.019c1.493,0,2.913-0.62,2.913-2.625c0-1.623-0.957-2.506-2.729-2.506
			c-0.756,0-1.309,0.021-1.457,0.04v5.071H275.998z"/>
		<path fill="#F7F7F7" d="M284.405,172.791h8.999c0.092,0,0.111,0.04,0.111,0.14v1.444c0,0.142-0.02,0.161-0.147,0.161h-8.944
			c-0.111,0-0.166-0.041-0.166-0.161v-1.444C284.257,172.812,284.312,172.791,284.405,172.791z M284.405,176.741h8.981
			c0.092,0,0.13,0.02,0.13,0.161v1.421c0,0.141-0.055,0.161-0.166,0.161h-8.927c-0.111,0-0.166-0.039-0.166-0.161v-1.443
			C284.257,176.76,284.312,176.741,284.405,176.741z"/>
	</g>
	<g>
		<path fill="#F7F7F7" d="M508.869,243.75c1.414-0.658,2.667-0.927,3.354-0.871c0.077-0.007,0.121,0.031,0.176,0.149l0.749,1.607
			c0.067,0.142,0.002,0.174-0.074,0.18c-0.864-0.03-1.931,0.121-3.3,0.761c-3.396,1.58-4.577,5.184-2.858,8.875
			c2.281,4.898,6.228,4.616,8.446,3.584c1.396-0.65,2.385-1.483,3.022-2.329c0.064-0.086,0.131-0.06,0.185,0.06l0.708,1.513
			c0.063,0.141,0.076,0.225-0.012,0.321c-0.541,0.828-1.724,1.752-3.355,2.514c-3.482,1.622-8.271,1.175-10.983-4.649
			C502.843,250.991,504.148,245.948,508.869,243.75z"/>
	</g>
	<g>
		<path fill="#F7F7F7" d="M310.515,168.608h0.019c0.223-1.123,0.775-3.787,2.251-10.382c0.019-0.121,0.055-0.159,0.184-0.159h1.976
			c0.11,0,0.147,0.038,0.129,0.179l-3.3,12.87c-0.037,0.1-0.093,0.121-0.186,0.121h-2.121c-0.128,0-0.166-0.04-0.185-0.121
			c-0.591-2.646-1.976-8.76-2.36-10.604h-0.02c-0.388,1.985-1.918,8.017-2.545,10.523c-0.019,0.12-0.073,0.2-0.184,0.2h-2.068
			c-0.11,0-0.165-0.061-0.222-0.182l-3.282-12.808c-0.035-0.12,0.019-0.179,0.111-0.179h2.121c0.092,0,0.166,0,0.202,0.14
			c1.864,7.979,2.158,9.321,2.324,10.403h0.02c0.221-1.141,0.498-2.504,2.359-10.382c0.037-0.141,0.093-0.159,0.203-0.159h2.139
			c0.112,0,0.148,0.038,0.185,0.159L310.515,168.608z"/>
	</g>
	<g>
		<path fill="#F7F7F7" d="M309.207,194.728c0,0.121-0.019,0.183-0.111,0.24c-0.517,0.26-1.105,0.341-1.712,0.341
			c-1.533,0-2.454-0.8-2.454-2.806v-5.292l-1.162-0.04c-0.11-0.021-0.129-0.078-0.129-0.182v-1.463c0-0.12,0.035-0.159,0.146-0.159
			h1.162c0.02-0.703,0.092-2.005,0.203-2.547c0.02-0.1,0.055-0.141,0.129-0.16l1.919-0.4c0.074-0.02,0.129-0.02,0.129,0.1
			c-0.055,0.682-0.092,2.045-0.11,3.008h1.919c0.092,0,0.13,0.039,0.13,0.14v1.503c0,0.119-0.036,0.14-0.13,0.159l-1.937,0.041v4.87
			c0,0.902,0.258,1.346,1.07,1.346c0.239,0,0.479-0.042,0.812-0.161c0.073-0.021,0.129,0,0.129,0.119v1.344H309.207z"/>
	</g>
	<g>
		<rect x="297.972" y="175.756" fill="#F7F7F7" width="16.815" height="1.265"/>
	</g>
	<g>
		<g>
			<path fill="#F7F7F7" d="M-53.456,297.242h0.019c0.221-1.122,0.774-3.788,2.25-10.383c0.017-0.121,0.054-0.162,0.184-0.162h1.974
				c0.11,0,0.148,0.041,0.129,0.181l-3.3,12.87c-0.037,0.101-0.093,0.122-0.186,0.122h-2.121c-0.13,0-0.166-0.04-0.186-0.122
				c-0.589-2.646-1.973-8.76-2.359-10.604h-0.02c-0.387,1.984-1.917,8.017-2.544,10.522c-0.019,0.121-0.073,0.2-0.184,0.2h-2.066
				c-0.11,0-0.166-0.061-0.222-0.181l-3.282-12.81c-0.037-0.12,0.019-0.18,0.11-0.18h2.121c0.093,0,0.166,0,0.203,0.14
				c1.862,7.978,2.158,9.321,2.323,10.402h0.019c0.222-1.141,0.499-2.504,2.36-10.382c0.038-0.139,0.093-0.16,0.203-0.16h2.14
				c0.11,0,0.146,0.039,0.184,0.16L-53.456,297.242z"/>
			<path fill="#F7F7F7" d="M-47.321,291.791h9c0.093,0,0.11,0.038,0.11,0.139v1.444c0,0.141-0.019,0.159-0.148,0.159h-8.944
				c-0.11,0-0.166-0.038-0.166-0.159v-1.444C-47.469,291.808-47.413,291.791-47.321,291.791z M-47.321,295.738h8.982
				c0.092,0,0.129,0.021,0.129,0.161v1.423c0,0.141-0.056,0.16-0.166,0.16h-8.926c-0.111,0-0.167-0.037-0.167-0.16v-1.443
				C-47.469,295.758-47.413,295.738-47.321,295.738z"/>
		</g>
		<g>
			<path fill="#F7F7F7" d="M-30.231,299.708c0,0.121-0.036,0.161-0.147,0.161h-2.01c-0.074,0-0.11-0.062-0.11-0.161V286.86
				c0-0.122,0.037-0.161,0.13-0.161h7.303c0.11,0,0.147,0.039,0.166,0.161l0.185,1.644c0.019,0.101-0.037,0.16-0.148,0.16h-5.367
				v3.649h4.832c0.093,0,0.129,0.039,0.129,0.14v1.683c0,0.08-0.036,0.14-0.129,0.14h-4.832v5.434H-30.231z"/>
			<path fill="#F7F7F7" d="M-18.479,290.271c-0.027-0.077-0.014-0.15,0.084-0.15h1.71c0.098,0,0.127,0.027,0.183,0.12l1.373,2.591
				h0.027l1.458-2.636c0.028-0.062,0.056-0.075,0.126-0.075h1.529c0.07,0,0.099,0.06,0.055,0.135
				c-0.49,0.839-1.611,2.653-2.188,3.491c0.646,1.021,1.85,2.848,2.371,3.655c0.041,0.062,0.014,0.123-0.071,0.123h-1.78
				c-0.084,0-0.155-0.046-0.183-0.123l-1.5-2.62h-0.015l-1.457,2.651c-0.029,0.061-0.071,0.092-0.155,0.092h-1.542
				c-0.084,0-0.114-0.078-0.071-0.153c0.604-0.96,1.599-2.59,2.201-3.534L-18.479,290.271z"/>
			<path fill="#F7F7F7" d="M-4.352,299.006c-0.092-0.061-0.128-0.141-0.128-0.28v-1.945c0-0.101,0.074-0.14,0.147-0.08
				c1.052,0.781,2.491,1.304,3.819,1.304c1.493,0,2.028-0.703,2.028-1.462c0-0.864-0.37-1.284-2.435-2.228
				c-2.601-1.143-3.467-2.185-3.467-4.109c0-1.944,1.476-3.708,4.333-3.708c1.329,0,2.454,0.343,3.118,0.741
				c0.092,0.062,0.11,0.12,0.11,0.261v1.844c0,0.08-0.056,0.161-0.166,0.08c-0.831-0.541-2.011-0.942-3.119-0.942
				c-1.714,0-2.009,0.963-2.009,1.504c0,0.703,0.333,1.242,2.268,2.104c3.025,1.303,3.67,2.465,3.67,4.191
				c0,2.324-1.696,3.787-4.426,3.787C-1.991,300.068-3.43,299.708-4.352,299.006z"/>
		</g>
	</g>
	<g>
		<g>
			<path fill="#F7F7F7" d="M544.471,86.043h0.021c0.222-1.123,0.774-3.79,2.248-10.385c0.021-0.12,0.056-0.159,0.186-0.159h1.975
				c0.11,0,0.147,0.04,0.13,0.18l-3.301,12.869c-0.037,0.102-0.093,0.12-0.184,0.12h-2.123c-0.128,0-0.165-0.041-0.185-0.12
				c-0.589-2.645-1.974-8.759-2.359-10.603h-0.02c-0.388,1.984-1.918,8.018-2.544,10.523c-0.02,0.12-0.076,0.2-0.186,0.2h-2.066
				c-0.11,0-0.166-0.06-0.221-0.181l-3.285-12.809c-0.034-0.12,0.021-0.18,0.113-0.18h2.12c0.092,0,0.166,0,0.203,0.14
				c1.862,7.979,2.158,9.322,2.324,10.404h0.019c0.221-1.142,0.497-2.506,2.36-10.384c0.036-0.14,0.092-0.16,0.202-0.16h2.139
				c0.111,0,0.147,0.04,0.186,0.16L544.471,86.043z"/>
			<path fill="#F7F7F7" d="M550.608,80.591h8.999c0.092,0,0.11,0.041,0.11,0.141v1.442c0,0.141-0.019,0.161-0.146,0.161h-8.943
				c-0.111,0-0.166-0.041-0.166-0.161v-1.442C550.461,80.61,550.516,80.591,550.608,80.591z M550.608,84.54h8.982
				c0.091,0,0.129,0.021,0.129,0.16v1.424c0,0.141-0.056,0.16-0.166,0.16h-8.926c-0.111,0-0.166-0.04-0.166-0.16V84.68
				C550.461,84.56,550.516,84.54,550.608,84.54z"/>
		</g>
		<g>
			<path fill="#F7F7F7" d="M567.698,88.509c0,0.12-0.037,0.16-0.147,0.16h-2.01c-0.074,0-0.11-0.06-0.11-0.16V75.66
				c0-0.12,0.036-0.16,0.129-0.16h7.304c0.111,0,0.147,0.04,0.167,0.16l0.185,1.645c0.02,0.1-0.036,0.159-0.147,0.159h-5.366v3.648
				h4.83c0.092,0,0.131,0.041,0.131,0.141v1.685c0,0.08-0.038,0.141-0.131,0.141h-4.83v5.431H567.698z"/>
			<path fill="#F7F7F7" d="M579.45,79.073c-0.028-0.077-0.016-0.154,0.082-0.154h1.712c0.098,0,0.126,0.031,0.184,0.122l1.373,2.59
				h0.028l1.457-2.636c0.028-0.061,0.056-0.077,0.127-0.077h1.528c0.07,0,0.097,0.061,0.056,0.137
				c-0.491,0.838-1.612,2.652-2.188,3.489c0.646,1.021,1.852,2.849,2.369,3.658c0.043,0.062,0.016,0.122-0.068,0.122h-1.782
				c-0.083,0-0.153-0.045-0.184-0.122l-1.499-2.621h-0.016l-1.456,2.651c-0.027,0.061-0.07,0.091-0.155,0.091h-1.542
				c-0.084,0-0.112-0.076-0.07-0.153c0.604-0.959,1.598-2.589,2.199-3.535L579.45,79.073z"/>
			<path fill="#F7F7F7" d="M593.576,87.807c-0.091-0.059-0.13-0.14-0.13-0.281v-1.943c0-0.101,0.074-0.141,0.149-0.08
				c1.05,0.782,2.488,1.302,3.816,1.302c1.494,0,2.03-0.701,2.03-1.463c0-0.862-0.37-1.283-2.437-2.225
				c-2.6-1.143-3.466-2.186-3.466-4.109c0-1.944,1.477-3.708,4.333-3.708c1.329,0,2.453,0.341,3.117,0.742
				c0.094,0.061,0.111,0.12,0.111,0.261v1.844c0,0.08-0.055,0.161-0.165,0.08c-0.831-0.542-2.011-0.942-3.117-0.942
				c-1.716,0-2.011,0.961-2.011,1.503c0,0.702,0.332,1.243,2.269,2.105c3.024,1.303,3.669,2.465,3.669,4.19
				c0,2.325-1.697,3.788-4.426,3.788C595.938,88.869,594.5,88.509,593.576,87.807z"/>
		</g>
	</g>
	<g>
		<g>
			<path fill="#F7F7F7" d="M404.534,322.034h0.02c0.222-1.122,0.774-3.787,2.249-10.383c0.018-0.119,0.056-0.16,0.185-0.16h1.974
				c0.112,0,0.147,0.041,0.131,0.181l-3.302,12.869c-0.035,0.1-0.091,0.121-0.184,0.121h-2.121c-0.129,0-0.165-0.039-0.186-0.121
				c-0.589-2.646-1.974-8.76-2.36-10.604h-0.019c-0.387,1.985-1.919,8.018-2.544,10.524c-0.021,0.12-0.076,0.198-0.186,0.198h-2.065
				c-0.111,0-0.167-0.059-0.224-0.181l-3.282-12.809c-0.036-0.119,0.019-0.181,0.111-0.181h2.121c0.092,0,0.165,0,0.203,0.141
				c1.862,7.978,2.158,9.321,2.323,10.402h0.018c0.224-1.141,0.5-2.504,2.361-10.382c0.037-0.14,0.093-0.161,0.203-0.161h2.139
				c0.111,0,0.147,0.04,0.184,0.161L404.534,322.034z"/>
			<path fill="#F7F7F7" d="M410.67,316.583h9c0.091,0,0.109,0.039,0.109,0.139v1.443c0,0.141-0.019,0.161-0.146,0.161h-8.944
				c-0.111,0-0.165-0.04-0.165-0.161v-1.443C410.524,316.602,410.577,316.583,410.67,316.583z M410.67,320.532h8.981
				c0.093,0,0.129,0.02,0.129,0.16v1.424c0,0.14-0.054,0.161-0.165,0.161h-8.927c-0.111,0-0.165-0.04-0.165-0.161v-1.444
				C410.524,320.551,410.577,320.532,410.67,320.532z"/>
		</g>
		<g>
			<path fill="#F7F7F7" d="M427.76,324.499c0,0.123-0.036,0.16-0.146,0.16h-2.011c-0.072,0-0.11-0.059-0.11-0.16v-12.848
				c0-0.119,0.038-0.16,0.128-0.16h7.305c0.111,0,0.149,0.041,0.168,0.16l0.185,1.645c0.019,0.1-0.037,0.16-0.148,0.16h-5.365v3.65
				h4.831c0.091,0,0.13,0.037,0.13,0.138v1.684c0,0.079-0.038,0.141-0.13,0.141h-4.831v5.431H427.76z"/>
			<path fill="#F7F7F7" d="M439.511,315.064c-0.026-0.079-0.013-0.154,0.084-0.154h1.712c0.099,0,0.126,0.03,0.182,0.122
				l1.373,2.592h0.029l1.458-2.637c0.028-0.061,0.057-0.077,0.127-0.077h1.526c0.07,0,0.1,0.062,0.058,0.137
				c-0.49,0.839-1.612,2.652-2.188,3.49c0.646,1.022,1.851,2.851,2.368,3.657c0.041,0.062,0.016,0.122-0.069,0.122h-1.781
				c-0.082,0-0.155-0.045-0.183-0.122l-1.5-2.62h-0.016l-1.455,2.651c-0.029,0.061-0.073,0.091-0.155,0.091h-1.543
				c-0.083,0-0.112-0.077-0.07-0.152c0.602-0.96,1.597-2.59,2.2-3.534L439.511,315.064z"/>
			<path fill="#F7F7F7" d="M453.64,323.799c-0.093-0.061-0.131-0.142-0.131-0.281v-1.944c0-0.101,0.075-0.14,0.147-0.081
				c1.052,0.784,2.489,1.305,3.816,1.305c1.496,0,2.031-0.702,2.031-1.463c0-0.864-0.369-1.284-2.435-2.227
				c-2.602-1.143-3.467-2.184-3.467-4.108c0-1.946,1.476-3.709,4.334-3.709c1.327,0,2.454,0.342,3.116,0.742
				c0.093,0.06,0.111,0.119,0.111,0.26v1.844c0,0.079-0.056,0.161-0.166,0.079c-0.829-0.541-2.011-0.941-3.117-0.941
				c-1.714,0-2.01,0.963-2.01,1.505c0,0.703,0.332,1.242,2.269,2.104c3.024,1.302,3.67,2.465,3.67,4.189
				c0,2.326-1.698,3.789-4.426,3.789C456,324.862,454.562,324.499,453.64,323.799z"/>
		</g>
	</g>
	<g>
		<path fill="#F7F7F7" d="M376.374,122.565l-5.691-12.219l86.168-40.125l5.689,12.219L376.374,122.565z M372.365,110.959
			l4.621,9.923l83.873-39.056l-4.622-9.923L372.365,110.959z"/>
	</g>
	<g>
		<path fill="#F7F7F7" d="M431.335,140.446c-3.447,0-7.322-1.569-9.416-6.065c-3.595-7.72,3.151-12.929,5.089-14.222l-8.369-17.973
			l1.147-0.534l8.851,19.006l-0.51,0.289c-0.356,0.202-8.714,5.053-5.06,12.901c2.167,4.651,6.506,5.744,9.846,5.211
			c4.301-0.685,7.633-3.874,8.102-7.753l1.256,0.152c-0.535,4.438-4.302,8.079-9.16,8.852
			C432.541,140.399,431.943,140.446,431.335,140.446z"/>
	</g>
	<g>
		<g>
			
				<rect x="393.478" y="190.78" transform="matrix(-0.4221 -0.9065 0.9065 -0.4221 481.4791 689.7445)" fill="#F7F7F7" width="134.202" height="1.265"/>
		</g>
		<g>
			<g>
				<polygon fill="#F7F7F7" points="482.421,253.26 492.755,260.504 493.862,247.933 				"/>
			</g>
		</g>
	</g>
	<g>
		<path fill="#F7F7F7" d="M458.183,211.677c-9.86,0-18.919-5.773-23.079-14.708c-2.869-6.158-3.167-13.067-0.84-19.454
			c2.33-6.384,7.003-11.479,13.164-14.349c3.396-1.582,7.006-2.384,10.725-2.384c9.859,0,18.919,5.774,23.077,14.708
			c2.87,6.16,3.169,13.069,0.841,19.455c-2.328,6.385-7.002,11.48-13.163,14.349C465.51,210.875,461.901,211.677,458.183,211.677z
			 M458.151,162.048c-3.533,0-6.962,0.763-10.189,2.265c-5.855,2.727-10.297,7.568-12.51,13.637
			c-2.212,6.066-1.929,12.63,0.797,18.484c3.954,8.49,12.563,13.978,21.934,13.978c3.533,0,6.962-0.764,10.19-2.266
			c5.853-2.724,10.296-7.567,12.507-13.635c2.212-6.068,1.93-12.633-0.797-18.487C476.13,167.534,467.522,162.048,458.151,162.048z"
			/>
	</g>
	<g>
		<circle fill="#F7F7F7" cx="458.168" cy="186.23" r="4.388"/>
	</g>
	<g>
		<path fill="#F7F7F7" d="M331.437,337.216l-17.668-15.021l0.645-0.473c0.288-0.214,29.101-21.458,36.581-30.259
			c7.481-8.799,23.814-40.653,23.979-40.973l0.364-0.713l17.669,15.022l-0.637,0.474c-0.289,0.215-28.924,21.619-36.402,30.418
			c-7.479,8.796-24,40.5-24.167,40.819L331.437,337.216z M315.806,322.266l15.242,12.958c2.546-4.862,16.92-32.077,23.955-40.354
			c7.039-8.274,31.586-26.84,35.978-30.135l-15.246-12.959c-2.521,4.896-16.736,32.228-23.773,40.509
			C344.922,300.564,320.232,318.989,315.806,322.266z"/>
	</g>
</g>
</svg>
