<?xml version="1.0" encoding="utf-8"?>
<!-- Generator: Adobe Illustrator 19.2.0, SVG Export Plug-In . SVG Version: 6.00 Build 0)  -->
<svg version="1.1" id="Isolation_Mode" xmlns="http://www.w3.org/2000/svg" xmlns:xlink="http://www.w3.org/1999/xlink" x="0px"
	 y="0px" viewBox="0 0 690.8 376.8" style="enable-background:new 0 0 690.8 376.8;" xml:space="preserve">
<style type="text/css">
	.st0{fill:#EFEFEF;}
</style>
<g>
	<g>
		<g>
			<path class="st0" d="M142.1,369.7c-7.3,0-14-1.7-19.8-4.9c-19.5-11-27.8-39.2-23.2-79.5c4.6-40,21.3-87.3,47.1-133
				C191.2,72.7,252.8,17.1,296,17.1c7.3,0,14,1.7,19.8,4.9c19.5,11,27.8,39.2,23.2,79.5c-4.6,40-21.3,87.3-47.1,133
				C246.9,314.1,185.4,369.7,142.1,369.7z M296,18.4c-20.3,0-46.2,13.2-72.8,37.1c-27.5,24.7-53.7,58.4-75.8,97.5
				c-25.7,45.6-42.4,92.6-46.9,132.5c-4.5,39.7,3.5,67.5,22.5,78.2c5.6,3.2,12,4.8,19.1,4.8c20.3,0,46.2-13.2,72.8-37.1
				c27.5-24.7,53.7-58.4,75.8-97.6c25.7-45.6,42.4-92.6,46.9-132.5c4.5-39.7-3.5-67.5-22.5-78.2C309.6,20,303.2,18.4,296,18.4z"/>
		</g>
		<g>
			<path class="st0" d="M304.6,364c-42.9,0-106.8-51.2-155.2-124.5c-28.9-43.8-49-89.7-56.3-129.3c-7.4-39.8-1.2-68.5,17.5-80.9
				c6.4-4.3,14.2-6.4,23-6.4c43,0,106.8,51.2,155.3,124.5c59.8,90.5,77.3,184.8,38.8,210.3C321.2,361.8,313.5,364,304.6,364z
				 M133.6,24.1c-8.6,0-16.1,2.1-22.3,6.2C93,42.4,87,70.6,94.3,109.9c7.4,39.5,27.3,85.2,56.2,128.9
				c48.2,73,111.6,123.9,154.2,123.9c8.6,0,16.1-2.1,22.3-6.2c37.9-25,20.3-118.6-39.2-208.5C239.5,75,176.1,24.1,133.6,24.1z"/>
		</g>
		<g>
			<path class="st0" d="M234.8,277.3C234.8,277.3,234.8,277.3,234.8,277.3c-6.3,0-12.8-0.1-19.1-0.4
				c-108.4-4.4-195.1-45.5-193.2-91.5c0.9-21,20-40.3,53.9-54.3c33.5-13.9,78.6-21.5,127-21.5c6.3,0,12.8,0.1,19.1,0.4
				c52.4,2.1,101.4,12.8,137.9,30c36.6,17.3,56.3,39.1,55.4,61.5c-0.9,21-20,40.3-53.9,54.3C328.3,269.6,283.2,277.3,234.8,277.3z
				 M203.4,110.8c-48.2,0-93.2,7.6-126.5,21.4c-33.4,13.8-52.3,32.7-53.1,53.2c-1.9,45.3,84.3,85.8,192,90.2
				c6.4,0.3,12.8,0.4,19.1,0.4c48.2,0,93.2-7.6,126.5-21.4c33.4-13.8,52.3-32.7,53.1-53.2c0.9-21.9-18.5-43.3-54.6-60.3
				c-36.3-17.1-85.1-27.7-137.4-29.9C216.1,110.9,209.7,110.8,203.4,110.8z"/>
		</g>
		<g>
			<path class="st0" d="M204.6,188c4.5-8,14.6-10.8,22.6-6.3c8,4.5,10.8,14.6,6.3,22.6c-4.5,8-14.6,10.8-22.6,6.3
				C202.9,206.2,200.1,196,204.6,188z"/>
		</g>
		<g>
			<path class="st0" d="M306,17.4c2.3-4,7.3-5.4,11.3-3.2c4,2.3,5.4,7.3,3.2,11.3c-2.3,4-7.3,5.4-11.3,3.2
				C305.2,26.4,303.8,21.4,306,17.4z"/>
		</g>
		<g>
			<path class="st0" d="M16.7,176c2.3-4,7.3-5.4,11.3-3.2c4,2.3,5.4,7.3,3.2,11.3c-2.3,4-7.3,5.4-11.3,3.2
				C15.9,185.1,14.5,180,16.7,176z"/>
		</g>
		<g>
			<circle class="st0" cx="324.4" cy="358.8" r="8.3"/>
		</g>
	</g>
	<g>
		<path class="st0" d="M284.2,330.5c0,0.1-0.1,0.2-0.2,0.2h-7.5c-0.1,0-0.2-0.1-0.2-0.2v-12.8c0-0.1,0-0.2,0.1-0.2h7.3
			c0.1,0,0.1,0,0.2,0.1l0.2,1.6c0,0.1,0,0.2-0.1,0.2h-5.4v2.9h4.9c0.1,0,0.1,0,0.1,0.1v1.7c0,0.1-0.1,0.1-0.1,0.1h-4.9v4.4h5.8
			c0.1,0,0.1,0.1,0.1,0.2L284.2,330.5z"/>
		<path class="st0" d="M286.4,322.6h9c0.1,0,0.1,0,0.1,0.1v1.4c0,0.1,0,0.2-0.1,0.2h-8.9c-0.1,0-0.2,0-0.2-0.2v-1.4
			C286.2,322.6,286.3,322.6,286.4,322.6z M286.4,326.6h9c0.1,0,0.1,0,0.1,0.2v1.4c0,0.1-0.1,0.2-0.2,0.2h-8.9c-0.1,0-0.2,0-0.2-0.2
			v-1.4C286.2,326.6,286.3,326.6,286.4,326.6z"/>
		<path class="st0" d="M311.5,324.7v5.8c0,0.1-0.1,0.2-0.2,0.2h-1.9c-0.1,0-0.2-0.1-0.2-0.2v-5.7c0-1.2-0.4-2-1.6-2
			c-0.7,0-1.4,0.3-2,0.9c0.1,0.2,0.1,0.6,0.1,1v5.8c0,0.1,0,0.2-0.1,0.2h-1.9c-0.1,0-0.2,0-0.2-0.2v-5.7c0-1.3-0.6-2-1.6-2
			c-0.7,0-1.3,0.3-1.9,0.9v6.9c0,0.1,0,0.2-0.1,0.2h-2c-0.1,0-0.1-0.1-0.1-0.2v-7.4c0-0.8,0-1.6-0.1-2c0-0.1,0-0.2,0.1-0.2h1.7
			c0.1,0,0.1,0,0.2,0.1c0.1,0.2,0.1,0.6,0.1,0.9c0.9-0.8,1.8-1.2,2.8-1.2c1,0,1.9,0.4,2.4,1.4c0.9-0.8,1.9-1.4,3.3-1.4
			C309.8,320.7,311.5,321.6,311.5,324.7z"/>
		<path class="st0" d="M321.1,330.2c0,0.1,0,0.1-0.1,0.2c-0.6,0.3-1.3,0.5-2.3,0.5c-3.1,0-4.6-2.2-4.6-5c0-3,2-5.1,5-5.1
			c1,0,1.6,0.2,1.9,0.4c0.1,0.1,0.1,0.1,0.1,0.2l0,1.6c0,0.1-0.1,0.1-0.1,0.1c-0.5-0.2-1-0.4-1.7-0.4c-1.7,0-2.8,1.2-2.8,3.1
			c0,2.2,1.3,3.1,2.7,3.1c0.9,0,1.4-0.2,1.8-0.4c0.1,0,0.1,0,0.1,0.1V330.2L321.1,330.2L321.1,330.2z"/>
		<path class="st0" d="M322.8,324c-0.1,0-0.1,0-0.1-0.1v-0.7c0-0.1,0-0.1,0.1-0.1c0.5-0.4,1.2-1.1,2.2-2.1c0.9-0.9,1.2-1.5,1.2-2.2
			c0-0.8-0.5-1.3-1.4-1.3c-0.7,0-1.3,0.2-1.8,0.6c-0.1,0-0.1,0-0.1-0.1v-1c0-0.1,0-0.1,0.1-0.1c0.5-0.3,1.3-0.6,2.1-0.6
			c1.6,0,2.4,1.1,2.4,2.4c0,0.9-0.3,1.7-1.1,2.5c-0.8,0.8-1.3,1.4-1.7,1.8c0.6,0,1.3,0,1.9,0h1.3c0.1,0,0.1,0,0.1,0.1l-0.2,1
			c0,0.1,0,0.1-0.1,0.1L322.8,324L322.8,324L322.8,324z"/>
	</g>
	<g>
		<path class="st0" d="M397.5,67.2c0,0.1-0.1,0.2-0.2,0.2h-7.5c-0.1,0-0.2-0.1-0.2-0.2V54.4c0-0.1,0-0.2,0.1-0.2h7.3
			c0.1,0,0.1,0,0.2,0.1l0.2,1.6c0,0.1,0,0.2-0.1,0.2h-5.4v2.9h4.9c0.1,0,0.1,0,0.1,0.1v1.7c0,0.1-0.1,0.1-0.1,0.1h-4.9v4.4h5.8
			c0.1,0,0.1,0.1,0.1,0.2L397.5,67.2z"/>
		<path class="st0" d="M399.6,59.3h9c0.1,0,0.1,0,0.1,0.1v1.4c0,0.1,0,0.2-0.1,0.2h-8.9c-0.1,0-0.2,0-0.2-0.2v-1.4
			C399.5,59.3,399.5,59.3,399.6,59.3z M399.6,63.2h9c0.1,0,0.1,0,0.1,0.2v1.4c0,0.1-0.1,0.2-0.2,0.2h-8.9c-0.1,0-0.2,0-0.2-0.2v-1.4
			C399.5,63.3,399.5,63.2,399.6,63.2z"/>
		<path class="st0" d="M424.8,61.4v5.8c0,0.1-0.1,0.2-0.2,0.2h-1.9c-0.1,0-0.2-0.1-0.2-0.2v-5.7c0-1.2-0.4-2-1.6-2
			c-0.7,0-1.4,0.3-2,0.9c0.1,0.2,0.1,0.6,0.1,1v5.8c0,0.1,0,0.2-0.1,0.2H417c-0.1,0-0.2,0-0.2-0.2v-5.7c0-1.3-0.6-2-1.6-2
			c-0.7,0-1.3,0.3-1.9,0.9v6.9c0,0.1,0,0.2-0.1,0.2h-2c-0.1,0-0.1-0.1-0.1-0.2v-7.4c0-0.8,0-1.6-0.1-2c0-0.1,0-0.2,0.1-0.2h1.7
			c0.1,0,0.1,0,0.2,0.1c0.1,0.2,0.1,0.6,0.1,0.9c0.9-0.8,1.8-1.2,2.8-1.2s1.9,0.4,2.4,1.4c0.9-0.8,1.9-1.4,3.3-1.4
			C423.1,57.4,424.8,58.3,424.8,61.4z"/>
		<path class="st0" d="M434.4,66.9c0,0.1,0,0.1-0.1,0.2c-0.6,0.3-1.3,0.5-2.3,0.5c-3.1,0-4.6-2.2-4.6-5c0-3,2-5.1,5-5.1
			c1,0,1.6,0.2,1.9,0.4c0.1,0.1,0.1,0.1,0.1,0.2l0,1.6c0,0.1-0.1,0.1-0.1,0.1c-0.5-0.2-1-0.4-1.7-0.4c-1.7,0-2.8,1.2-2.8,3.1
			c0,2.2,1.3,3.1,2.7,3.1c0.9,0,1.4-0.2,1.8-0.4c0.1,0,0.1,0,0.1,0.1L434.4,66.9L434.4,66.9z"/>
		<path class="st0" d="M436.1,60.7c-0.1,0-0.1,0-0.1-0.1v-0.7c0-0.1,0-0.1,0.1-0.1c0.5-0.4,1.2-1.1,2.1-2.1c0.9-0.9,1.2-1.5,1.2-2.2
			c0-0.8-0.5-1.3-1.4-1.3c-0.7,0-1.3,0.2-1.8,0.6c-0.1,0-0.1,0-0.1-0.1v-1c0-0.1,0-0.1,0.1-0.1c0.5-0.3,1.3-0.6,2.1-0.6
			c1.6,0,2.4,1.1,2.4,2.4c0,0.9-0.3,1.7-1.1,2.5c-0.8,0.8-1.3,1.4-1.7,1.8c0.6,0,1.3,0,1.9,0h1.3c0.1,0,0.1,0,0.1,0.1l-0.2,1
			c0,0.1,0,0.1-0.1,0.1L436.1,60.7L436.1,60.7L436.1,60.7z"/>
	</g>
	<g>
		<path class="st0" d="M346.9,193.7c0-0.1,0-0.1,0.1-0.1c0.7,0,2.2,0,3.6,0c3.7,0,5,2.1,5,4.4c0,3.2-2.5,4.6-5.2,4.6
			c-0.6,0-1.1,0-1.2,0v4c0,0.1,0,0.2-0.1,0.2h-2c-0.1,0-0.1,0-0.1-0.1V193.7z M349.2,200.6c0.1,0,0.4,0,1.3,0c1.5,0,2.9-0.6,2.9-2.6
			c0-1.6-1-2.5-2.7-2.5c-0.8,0-1.3,0-1.5,0L349.2,200.6L349.2,200.6L349.2,200.6z"/>
		<path class="st0" d="M357.6,198.7h9c0.1,0,0.1,0,0.1,0.1v1.4c0,0.1,0,0.2-0.1,0.2h-8.9c-0.1,0-0.2,0-0.2-0.2v-1.4
			C357.4,198.7,357.5,198.7,357.6,198.7z M357.6,202.6h9c0.1,0,0.1,0,0.1,0.2v1.4c0,0.1-0.1,0.2-0.2,0.2h-8.9c-0.1,0-0.2,0-0.2-0.2
			v-1.4C357.4,202.6,357.5,202.6,357.6,202.6z"/>
	</g>
	<g>
		<path class="st0" d="M582,269.6c1.4-0.7,2.7-0.9,3.4-0.9c0.1,0,0.1,0,0.2,0.1l0.7,1.6c0.1,0.1,0,0.2-0.1,0.2
			c-0.9,0-1.9,0.1-3.3,0.8c-3.4,1.6-4.6,5.2-2.9,8.9c2.3,4.9,6.2,4.6,8.4,3.6c1.4-0.6,2.4-1.5,3-2.3c0.1-0.1,0.1-0.1,0.2,0.1
			l0.7,1.5c0.1,0.1,0.1,0.2,0,0.3c-0.5,0.8-1.7,1.8-3.4,2.5c-3.5,1.6-8.3,1.2-11-4.6C576,276.9,577.3,271.8,582,269.6z"/>
	</g>
	<g>
		<path class="st0" d="M383.7,194.5L383.7,194.5c0.2-1.1,0.8-3.8,2.3-10.4c0-0.1,0.1-0.2,0.2-0.2h2c0.1,0,0.1,0,0.1,0.2l-3.3,12.9
			c0,0.1-0.1,0.1-0.2,0.1h-2.1c-0.1,0-0.2,0-0.2-0.1c-0.6-2.6-2-8.8-2.4-10.6h0c-0.4,2-1.9,8-2.5,10.5c0,0.1-0.1,0.2-0.2,0.2h-2.1
			c-0.1,0-0.2-0.1-0.2-0.2l-3.3-12.8c0-0.1,0-0.2,0.1-0.2h2.1c0.1,0,0.2,0,0.2,0.1c1.9,8,2.2,9.3,2.3,10.4h0
			c0.2-1.1,0.5-2.5,2.4-10.4c0-0.1,0.1-0.2,0.2-0.2h2.1c0.1,0,0.1,0,0.2,0.2L383.7,194.5z"/>
	</g>
	<g>
		<path class="st0" d="M382.4,220.6c0,0.1,0,0.2-0.1,0.2c-0.5,0.3-1.1,0.3-1.7,0.3c-1.5,0-2.5-0.8-2.5-2.8v-5.3l-1.2,0
			c-0.1,0-0.1-0.1-0.1-0.2v-1.5c0-0.1,0-0.2,0.1-0.2h1.2c0-0.7,0.1-2,0.2-2.5c0-0.1,0.1-0.1,0.1-0.2l1.9-0.4c0.1,0,0.1,0,0.1,0.1
			c-0.1,0.7-0.1,2-0.1,3h1.9c0.1,0,0.1,0,0.1,0.1v1.5c0,0.1,0,0.1-0.1,0.2l-1.9,0v4.9c0,0.9,0.3,1.3,1.1,1.3c0.2,0,0.5,0,0.8-0.2
			c0.1,0,0.1,0,0.1,0.1L382.4,220.6L382.4,220.6L382.4,220.6z"/>
	</g>
	<g>
		<rect x="371.1" y="201.6" class="st0" width="16.8" height="1.3"/>
	</g>
	<g>
		<g>
			<path class="st0" d="M19.7,323.1L19.7,323.1c0.2-1.1,0.8-3.8,2.3-10.4c0-0.1,0.1-0.2,0.2-0.2h2c0.1,0,0.1,0,0.1,0.2L21,325.6
				c0,0.1-0.1,0.1-0.2,0.1h-2.1c-0.1,0-0.2,0-0.2-0.1c-0.6-2.6-2-8.8-2.4-10.6h0c-0.4,2-1.9,8-2.5,10.5c0,0.1-0.1,0.2-0.2,0.2h-2.1
				c-0.1,0-0.2-0.1-0.2-0.2l-3.3-12.8c0-0.1,0-0.2,0.1-0.2H10c0.1,0,0.2,0,0.2,0.1c1.9,8,2.2,9.3,2.3,10.4h0
				c0.2-1.1,0.5-2.5,2.4-10.4c0-0.1,0.1-0.2,0.2-0.2h2.1c0.1,0,0.1,0,0.2,0.2L19.7,323.1z"/>
			<path class="st0" d="M25.8,317.7h9c0.1,0,0.1,0,0.1,0.1v1.4c0,0.1,0,0.2-0.1,0.2h-8.9c-0.1,0-0.2,0-0.2-0.2v-1.4
				C25.7,317.7,25.7,317.7,25.8,317.7z M25.8,321.6h9c0.1,0,0.1,0,0.1,0.2v1.4c0,0.1-0.1,0.2-0.2,0.2h-8.9c-0.1,0-0.2,0-0.2-0.2
				v-1.4C25.7,321.6,25.7,321.6,25.8,321.6z"/>
		</g>
		<g>
			<path class="st0" d="M42.9,325.6c0,0.1,0,0.2-0.1,0.2h-2c-0.1,0-0.1-0.1-0.1-0.2v-12.8c0-0.1,0-0.2,0.1-0.2h7.3
				c0.1,0,0.1,0,0.2,0.2l0.2,1.6c0,0.1,0,0.2-0.1,0.2h-5.4v3.6h4.8c0.1,0,0.1,0,0.1,0.1v1.7c0,0.1,0,0.1-0.1,0.1h-4.8L42.9,325.6
				L42.9,325.6L42.9,325.6z"/>
			<path class="st0" d="M54.7,316.1c0-0.1,0-0.1,0.1-0.1h1.7c0.1,0,0.1,0,0.2,0.1l1.4,2.6h0l1.5-2.6c0-0.1,0.1-0.1,0.1-0.1h1.5
				c0.1,0,0.1,0.1,0.1,0.1c-0.5,0.8-1.6,2.7-2.2,3.5c0.6,1,1.9,2.8,2.4,3.7c0,0.1,0,0.1-0.1,0.1h-1.8c-0.1,0-0.2,0-0.2-0.1l-1.5-2.6
				h0l-1.5,2.7c0,0.1-0.1,0.1-0.2,0.1h-1.5c-0.1,0-0.1-0.1-0.1-0.2c0.6-1,1.6-2.6,2.2-3.5L54.7,316.1z"/>
			<path class="st0" d="M68.8,324.9c-0.1-0.1-0.1-0.1-0.1-0.3v-1.9c0-0.1,0.1-0.1,0.1-0.1c1.1,0.8,2.5,1.3,3.8,1.3
				c1.5,0,2-0.7,2-1.5c0-0.9-0.4-1.3-2.4-2.2c-2.6-1.1-3.5-2.2-3.5-4.1c0-1.9,1.5-3.7,4.3-3.7c1.3,0,2.5,0.3,3.1,0.7
				c0.1,0.1,0.1,0.1,0.1,0.3v1.8c0,0.1-0.1,0.2-0.2,0.1c-0.8-0.5-2-0.9-3.1-0.9c-1.7,0-2,1-2,1.5c0,0.7,0.3,1.2,2.3,2.1
				c3,1.3,3.7,2.5,3.7,4.2c0,2.3-1.7,3.8-4.4,3.8C71.2,325.9,69.7,325.6,68.8,324.9z"/>
		</g>
	</g>
	<g>
		<g>
			<path class="st0" d="M617.6,111.9L617.6,111.9c0.2-1.1,0.8-3.8,2.3-10.4c0-0.1,0.1-0.2,0.2-0.2h2c0.1,0,0.1,0,0.1,0.2l-3.3,12.9
				c0,0.1-0.1,0.1-0.2,0.1h-2.1c-0.1,0-0.2,0-0.2-0.1c-0.6-2.6-2-8.8-2.4-10.6h0c-0.4,2-1.9,8-2.5,10.5c0,0.1-0.1,0.2-0.2,0.2h-2.1
				c-0.1,0-0.2-0.1-0.2-0.2l-3.3-12.8c0-0.1,0-0.2,0.1-0.2h2.1c0.1,0,0.2,0,0.2,0.1c1.9,8,2.2,9.3,2.3,10.4h0
				c0.2-1.1,0.5-2.5,2.4-10.4c0-0.1,0.1-0.2,0.2-0.2h2.1c0.1,0,0.1,0,0.2,0.2L617.6,111.9z"/>
			<path class="st0" d="M623.8,106.5h9c0.1,0,0.1,0,0.1,0.1v1.4c0,0.1,0,0.2-0.1,0.2h-8.9c-0.1,0-0.2,0-0.2-0.2v-1.4
				C623.6,106.5,623.7,106.5,623.8,106.5z M623.8,110.4h9c0.1,0,0.1,0,0.1,0.2v1.4c0,0.1-0.1,0.2-0.2,0.2h-8.9c-0.1,0-0.2,0-0.2-0.2
				v-1.4C623.6,110.4,623.7,110.4,623.8,110.4z"/>
		</g>
		<g>
			<path class="st0" d="M640.9,114.4c0,0.1,0,0.2-0.1,0.2h-2c-0.1,0-0.1-0.1-0.1-0.2v-12.8c0-0.1,0-0.2,0.1-0.2h7.3
				c0.1,0,0.1,0,0.2,0.2l0.2,1.6c0,0.1,0,0.2-0.1,0.2h-5.4v3.6h4.8c0.1,0,0.1,0,0.1,0.1v1.7c0,0.1,0,0.1-0.1,0.1h-4.8L640.9,114.4
				L640.9,114.4L640.9,114.4z"/>
			<path class="st0" d="M652.6,104.9c0-0.1,0-0.2,0.1-0.2h1.7c0.1,0,0.1,0,0.2,0.1l1.4,2.6h0l1.5-2.6c0-0.1,0.1-0.1,0.1-0.1h1.5
				c0.1,0,0.1,0.1,0.1,0.1c-0.5,0.8-1.6,2.7-2.2,3.5c0.6,1,1.9,2.8,2.4,3.7c0,0.1,0,0.1-0.1,0.1h-1.8c-0.1,0-0.2,0-0.2-0.1l-1.5-2.6
				h0l-1.5,2.7c0,0.1-0.1,0.1-0.2,0.1h-1.5c-0.1,0-0.1-0.1-0.1-0.2c0.6-1,1.6-2.6,2.2-3.5L652.6,104.9z"/>
			<path class="st0" d="M666.7,113.7c-0.1-0.1-0.1-0.1-0.1-0.3v-1.9c0-0.1,0.1-0.1,0.1-0.1c1,0.8,2.5,1.3,3.8,1.3c1.5,0,2-0.7,2-1.5
				c0-0.9-0.4-1.3-2.4-2.2c-2.6-1.1-3.5-2.2-3.5-4.1c0-1.9,1.5-3.7,4.3-3.7c1.3,0,2.5,0.3,3.1,0.7c0.1,0.1,0.1,0.1,0.1,0.3v1.8
				c0,0.1-0.1,0.2-0.2,0.1c-0.8-0.5-2-0.9-3.1-0.9c-1.7,0-2,1-2,1.5c0,0.7,0.3,1.2,2.3,2.1c3,1.3,3.7,2.5,3.7,4.2
				c0,2.3-1.7,3.8-4.4,3.8C669.1,114.7,667.7,114.4,666.7,113.7z"/>
		</g>
	</g>
	<g>
		<g>
			<path class="st0" d="M477.7,347.9L477.7,347.9c0.2-1.1,0.8-3.8,2.3-10.4c0-0.1,0.1-0.2,0.2-0.2h2c0.1,0,0.1,0,0.1,0.2l-3.3,12.9
				c0,0.1-0.1,0.1-0.2,0.1h-2.1c-0.1,0-0.2,0-0.2-0.1c-0.6-2.6-2-8.8-2.4-10.6h0c-0.4,2-1.9,8-2.5,10.5c0,0.1-0.1,0.2-0.2,0.2h-2.1
				c-0.1,0-0.2-0.1-0.2-0.2l-3.3-12.8c0-0.1,0-0.2,0.1-0.2h2.1c0.1,0,0.2,0,0.2,0.1c1.9,8,2.2,9.3,2.3,10.4h0
				c0.2-1.1,0.5-2.5,2.4-10.4c0-0.1,0.1-0.2,0.2-0.2h2.1c0.1,0,0.1,0,0.2,0.2L477.7,347.9z"/>
			<path class="st0" d="M483.8,342.5h9c0.1,0,0.1,0,0.1,0.1v1.4c0,0.1,0,0.2-0.1,0.2h-8.9c-0.1,0-0.2,0-0.2-0.2v-1.4
				C483.7,342.5,483.7,342.5,483.8,342.5z M483.8,346.4h9c0.1,0,0.1,0,0.1,0.2v1.4c0,0.1-0.1,0.2-0.2,0.2h-8.9c-0.1,0-0.2,0-0.2-0.2
				v-1.4C483.7,346.4,483.7,346.4,483.8,346.4z"/>
		</g>
		<g>
			<path class="st0" d="M500.9,350.4c0,0.1,0,0.2-0.1,0.2h-2c-0.1,0-0.1-0.1-0.1-0.2v-12.8c0-0.1,0-0.2,0.1-0.2h7.3
				c0.1,0,0.1,0,0.2,0.2l0.2,1.6c0,0.1,0,0.2-0.1,0.2h-5.4v3.6h4.8c0.1,0,0.1,0,0.1,0.1v1.7c0,0.1,0,0.1-0.1,0.1h-4.8L500.9,350.4
				L500.9,350.4L500.9,350.4z"/>
			<path class="st0" d="M512.7,340.9c0-0.1,0-0.2,0.1-0.2h1.7c0.1,0,0.1,0,0.2,0.1l1.4,2.6h0l1.5-2.6c0-0.1,0.1-0.1,0.1-0.1h1.5
				c0.1,0,0.1,0.1,0.1,0.1c-0.5,0.8-1.6,2.7-2.2,3.5c0.6,1,1.9,2.9,2.4,3.7c0,0.1,0,0.1-0.1,0.1h-1.8c-0.1,0-0.2,0-0.2-0.1l-1.5-2.6
				h0l-1.5,2.7c0,0.1-0.1,0.1-0.2,0.1h-1.5c-0.1,0-0.1-0.1-0.1-0.2c0.6-1,1.6-2.6,2.2-3.5L512.7,340.9z"/>
			<path class="st0" d="M526.8,349.7c-0.1-0.1-0.1-0.1-0.1-0.3v-1.9c0-0.1,0.1-0.1,0.1-0.1c1.1,0.8,2.5,1.3,3.8,1.3
				c1.5,0,2-0.7,2-1.5c0-0.9-0.4-1.3-2.4-2.2c-2.6-1.1-3.5-2.2-3.5-4.1c0-1.9,1.5-3.7,4.3-3.7c1.3,0,2.5,0.3,3.1,0.7
				c0.1,0.1,0.1,0.1,0.1,0.3v1.8c0,0.1-0.1,0.2-0.2,0.1c-0.8-0.5-2-0.9-3.1-0.9c-1.7,0-2,1-2,1.5c0,0.7,0.3,1.2,2.3,2.1
				c3,1.3,3.7,2.5,3.7,4.2c0,2.3-1.7,3.8-4.4,3.8C529.2,350.7,527.7,350.4,526.8,349.7z"/>
		</g>
	</g>
	<g>
		<path class="st0" d="M449.5,148.4l-5.7-12.2L530,96.1l5.7,12.2L449.5,148.4z M445.5,136.8l4.6,9.9l83.9-39.1l-4.6-9.9L445.5,136.8
			z"/>
	</g>
	<g>
		<path class="st0" d="M504.5,166.3c-3.4,0-7.3-1.6-9.4-6.1c-3.6-7.7,3.2-12.9,5.1-14.2l-8.4-18l1.1-0.5l8.9,19l-0.5,0.3
			c-0.4,0.2-8.7,5.1-5.1,12.9c2.2,4.7,6.5,5.7,9.8,5.2c4.3-0.7,7.6-3.9,8.1-7.8l1.3,0.2c-0.5,4.4-4.3,8.1-9.2,8.9
			C505.7,166.3,505.1,166.3,504.5,166.3z"/>
	</g>
	<g>
		<g>
			
				<rect x="533.1" y="150.2" transform="matrix(0.9065 -0.4221 0.4221 0.9065 -41.8473 245.6121)" class="st0" width="1.3" height="134.2"/>
		</g>
		<g>
			<g>
				<polygon class="st0" points="555.6,279.1 565.9,286.4 567,273.8 				"/>
			</g>
		</g>
	</g>
	<g>
		<path class="st0" d="M531.3,237.6c-9.9,0-18.9-5.8-23.1-14.7c-2.9-6.2-3.2-13.1-0.8-19.5c2.3-6.4,7-11.5,13.2-14.3
			c3.4-1.6,7-2.4,10.7-2.4c9.9,0,18.9,5.8,23.1,14.7c2.9,6.2,3.2,13.1,0.8,19.5c-2.3,6.4-7,11.5-13.2,14.3
			C538.7,236.8,535.1,237.6,531.3,237.6z M531.3,187.9c-3.5,0-7,0.8-10.2,2.3c-5.9,2.7-10.3,7.6-12.5,13.6
			c-2.2,6.1-1.9,12.6,0.8,18.5c4,8.5,12.6,14,21.9,14c3.5,0,7-0.8,10.2-2.3c5.9-2.7,10.3-7.6,12.5-13.6c2.2-6.1,1.9-12.6-0.8-18.5
			C549.3,193.4,540.7,187.9,531.3,187.9z"/>
	</g>
	<g>
		<circle class="st0" cx="531.3" cy="212.1" r="4.4"/>
	</g>
	<g>
		<path class="st0" d="M404.6,363.1l-17.7-15l0.6-0.5c0.3-0.2,29.1-21.5,36.6-30.3c7.5-8.8,23.8-40.7,24-41l0.4-0.7l17.7,15
			l-0.6,0.5c-0.3,0.2-28.9,21.6-36.4,30.4c-7.5,8.8-24,40.5-24.2,40.8L404.6,363.1z M389,348.1l15.2,13c2.5-4.9,16.9-32.1,24-40.4
			c7-8.3,31.6-26.8,36-30.1l-15.2-13c-2.5,4.9-16.7,32.2-23.8,40.5C418.1,326.4,393.4,344.9,389,348.1z"/>
	</g>
</g>
</svg>
