<?xml version="1.0" encoding="utf-8"?>
<!-- Generator: Adobe Illustrator 16.0.0, SVG Export Plug-In . SVG Version: 6.00 Build 0)  -->
<!DOCTYPE svg PUBLIC "-//W3C//DTD SVG 1.1//EN" "http://www.w3.org/Graphics/SVG/1.1/DTD/svg11.dtd">
<svg version="1.1" id="Isolation_Mode" xmlns="http://www.w3.org/2000/svg" xmlns:xlink="http://www.w3.org/1999/xlink" x="0px"
	 y="0px" width="695.736px" height="425.834px" viewBox="0 -77.167 695.736 425.834"
	 enable-background="new 0 -77.167 695.736 425.834" xml:space="preserve">
<g>
	<path fill="#F7F7F7" d="M178.004,169.236c0-4.937,2.112-8.828,5.856-8.828c4.537,0,5.785,4.909,5.785,8.828
		c0,4.518-1.488,8.853-5.762,8.853C179.779,178.088,178.004,174.17,178.004,169.236z M180.932,169.236
		c0,3.865,0.984,6.398,2.952,6.398c1.969,0,2.833-2.298,2.833-6.373c0-4.308-0.937-6.45-2.881-6.45
		C182.205,162.811,180.932,164.874,180.932,169.236z"/>
	<path fill="#F7F7F7" d="M196.853,163.647c-0.864,0.338-2.089,0.757-2.81,0.914c-0.167,0.026-0.215-0.025-0.215-0.182v-1.985
		c0-0.132,0.024-0.183,0.143-0.208c1.081-0.289,2.737-0.915,3.673-1.384c0.12-0.078,0.265-0.13,0.385-0.13h1.632
		c0.096,0,0.144,0.077,0.144,0.156v14.443h2.953c0.144,0,0.191,0.052,0.216,0.208v2.089c0.024,0.185-0.024,0.262-0.169,0.262h-9.121
		c-0.144,0-0.168-0.077-0.144-0.235v-2.141c0.023-0.131,0.071-0.184,0.215-0.184h3.097L196.853,163.647L196.853,163.647z"/>
	<path fill="#F7F7F7" d="M206.243,169.236c0-4.937,2.113-8.828,5.857-8.828c4.537,0,5.785,4.909,5.785,8.828
		c0,4.518-1.487,8.853-5.762,8.853C208.02,178.088,206.243,174.17,206.243,169.236z M209.172,169.236
		c0,3.865,0.983,6.398,2.952,6.398s2.833-2.298,2.833-6.373c0-4.308-0.937-6.45-2.881-6.45
		C210.444,162.811,209.172,164.874,209.172,169.236z"/>
	<path fill="#F7F7F7" d="M225.09,163.647c-0.863,0.338-2.088,0.757-2.809,0.914c-0.168,0.026-0.216-0.025-0.216-0.182v-1.985
		c0-0.132,0.024-0.183,0.144-0.208c1.081-0.289,2.737-0.915,3.673-1.384c0.12-0.078,0.265-0.13,0.385-0.13h1.632
		c0.097,0,0.146,0.077,0.146,0.156v14.443h2.952c0.144,0,0.191,0.052,0.216,0.208v2.089c0.023,0.185-0.024,0.262-0.168,0.262h-9.121
		c-0.145,0-0.17-0.077-0.145-0.235v-2.141c0.023-0.131,0.071-0.184,0.216-0.184h3.096V163.647L225.09,163.647z"/>
	<path fill="#F7F7F7" d="M239.212,163.647c-0.864,0.338-2.089,0.757-2.809,0.914c-0.169,0.026-0.217-0.025-0.217-0.182v-1.985
		c0-0.132,0.024-0.183,0.145-0.208c1.08-0.289,2.736-0.915,3.673-1.384c0.12-0.078,0.264-0.13,0.385-0.13h1.632
		c0.097,0,0.145,0.077,0.145,0.156v14.443h2.952c0.145,0,0.192,0.052,0.218,0.208v2.089c0.024,0.185-0.025,0.262-0.17,0.262h-9.121
		c-0.144,0-0.169-0.077-0.144-0.235v-2.141c0.023-0.131,0.071-0.184,0.215-0.184h3.097V163.647L239.212,163.647z"/>
	<path fill="#F7F7F7" d="M253.331,163.647c-0.864,0.338-2.088,0.757-2.809,0.914c-0.17,0.026-0.218-0.025-0.218-0.182v-1.985
		c0-0.132,0.026-0.183,0.145-0.208c1.08-0.289,2.736-0.915,3.672-1.384c0.121-0.078,0.265-0.13,0.383-0.13h1.633
		c0.096,0,0.145,0.077,0.145,0.156v14.443h2.953c0.144,0,0.191,0.052,0.216,0.208v2.089c0.025,0.185-0.024,0.262-0.168,0.262h-9.122
		c-0.145,0-0.169-0.077-0.145-0.235v-2.141c0.025-0.131,0.073-0.184,0.217-0.184h3.098L253.331,163.647L253.331,163.647z"/>
	<path fill="#F7F7F7" d="M262.721,169.236c0-4.937,2.114-8.828,5.858-8.828c4.537,0,5.785,4.909,5.785,8.828
		c0,4.518-1.487,8.853-5.762,8.853C264.498,178.088,262.721,174.17,262.721,169.236z M265.651,169.236
		c0,3.865,0.983,6.398,2.952,6.398s2.834-2.298,2.834-6.373c0-4.308-0.938-6.45-2.881-6.45
		C266.923,162.811,265.651,164.874,265.651,169.236z"/>
	<path fill="#F7F7F7" d="M276.84,169.236c0-4.937,2.113-8.828,5.858-8.828c4.538,0,5.786,4.909,5.786,8.828
		c0,4.518-1.487,8.853-5.761,8.853C278.616,178.088,276.84,174.17,276.84,169.236z M279.771,169.236
		c0,3.865,0.982,6.398,2.953,6.398c1.967,0,2.831-2.298,2.831-6.373c0-4.308-0.936-6.45-2.88-6.45
		C281.042,162.811,279.771,164.874,279.771,169.236z"/>
	<path fill="#F7F7F7" d="M295.689,163.647c-0.863,0.338-2.088,0.757-2.807,0.914c-0.169,0.026-0.218-0.025-0.218-0.182v-1.985
		c0-0.132,0.023-0.183,0.143-0.208c1.079-0.289,2.735-0.915,3.674-1.384c0.12-0.078,0.262-0.13,0.384-0.13h1.632
		c0.096,0,0.145,0.077,0.145,0.156v14.443h2.952c0.144,0,0.192,0.052,0.215,0.208v2.089c0.024,0.185-0.023,0.262-0.165,0.262h-9.125
		c-0.143,0-0.168-0.077-0.143-0.235v-2.141c0.023-0.131,0.071-0.184,0.214-0.184h3.099L295.689,163.647L295.689,163.647z"/>
	<path fill="#F7F7F7" d="M305.081,169.236c0-4.937,2.112-8.828,5.857-8.828c4.535,0,5.784,4.909,5.784,8.828
		c0,4.518-1.487,8.853-5.762,8.853C306.857,178.088,305.081,174.17,305.081,169.236z M308.008,169.236
		c0,3.865,0.986,6.398,2.953,6.398c1.971,0,2.833-2.298,2.833-6.373c0-4.308-0.938-6.45-2.882-6.45
		C309.282,162.811,308.008,164.874,308.008,169.236z"/>
	<path fill="#F7F7F7" d="M319.198,169.236c0-4.937,2.113-8.828,5.858-8.828c4.537,0,5.787,4.909,5.787,8.828
		c0,4.518-1.488,8.853-5.762,8.853C320.975,178.088,319.198,174.17,319.198,169.236z M322.129,169.236
		c0,3.865,0.984,6.398,2.954,6.398c1.967,0,2.83-2.298,2.83-6.373c0-4.308-0.936-6.45-2.88-6.45
		C323.401,162.811,322.129,164.874,322.129,169.236z"/>
	<path fill="#F7F7F7" d="M333.319,169.236c0-4.937,2.113-8.828,5.859-8.828c4.534,0,5.784,4.909,5.784,8.828
		c0,4.518-1.488,8.853-5.763,8.853C335.096,178.088,333.319,174.17,333.319,169.236z M336.247,169.236
		c0,3.865,0.986,6.398,2.954,6.398c1.97,0,2.833-2.298,2.833-6.373c0-4.308-0.938-6.45-2.883-6.45
		C337.522,162.811,336.247,164.874,336.247,169.236z"/>
	<path fill="#F7F7F7" d="M352.169,163.647c-0.863,0.338-2.089,0.757-2.807,0.914c-0.169,0.026-0.218-0.025-0.218-0.182v-1.985
		c0-0.132,0.023-0.183,0.142-0.208c1.08-0.289,2.736-0.915,3.674-1.384c0.12-0.078,0.263-0.13,0.385-0.13h1.631
		c0.096,0,0.145,0.077,0.145,0.156v14.443h2.952c0.143,0,0.192,0.052,0.216,0.208v2.089c0.024,0.185-0.023,0.262-0.166,0.262h-9.124
		c-0.143,0-0.168-0.077-0.143-0.235v-2.141c0.023-0.131,0.071-0.184,0.214-0.184h3.099L352.169,163.647L352.169,163.647z"/>
</g>
<g>
	<g>
		<path fill="#F7F7F7" d="M528.784,140.881H364.171V33.526h164.613V140.881z M365.576,139.477H527.38V34.931H365.576V139.477z"/>
	</g>
	<g>
		<path fill="#F7F7F7" d="M528.784,233.148H364.171v-73.624h164.613V233.148z M365.576,231.744H527.38v-70.815H365.576V231.744z"/>
	</g>
	<g>
		<path fill="#F7F7F7" d="M403.373,98.563c-11.439,0-20.743-9.305-20.743-20.744c0-11.439,9.305-20.747,20.743-20.747
			c11.436,0,20.742,9.307,20.742,20.747C424.116,89.258,414.809,98.563,403.373,98.563z M403.373,58.478
			c-10.663,0-19.339,8.678-19.339,19.341c0,10.664,8.676,19.339,19.339,19.339c10.662,0,19.338-8.677,19.338-19.339
			C422.711,67.154,414.037,58.478,403.373,58.478z"/>
	</g>
	<g>
		<path fill="#F7F7F7" d="M490.06,98.563c-11.439,0-20.743-9.305-20.743-20.744c0-11.439,9.305-20.747,20.743-20.747
			c11.441,0,20.747,9.307,20.747,20.747C510.807,89.258,501.499,98.563,490.06,98.563z M490.06,58.478
			c-10.664,0-19.34,8.678-19.34,19.341c0,10.664,8.676,19.339,19.34,19.339c10.665,0,19.342-8.677,19.342-19.339
			C509.402,67.154,500.725,58.478,490.06,58.478z"/>
	</g>
	<g>
		<path fill="#F7F7F7" d="M544.785,118.924c-9.6,0-17.405-7.807-17.405-17.403V64.938c0-9.599,7.808-17.408,17.405-17.408
			c9.601,0,17.413,7.81,17.413,17.408v36.584C562.198,111.118,554.386,118.924,544.785,118.924z M544.785,48.933
			c-8.823,0-16.001,7.179-16.001,16.003v36.584c0,8.821,7.178,15.999,16.001,15.999c8.827,0,16.01-7.177,16.01-15.999V64.938
			C560.795,56.112,553.613,48.933,544.785,48.933z"/>
	</g>
	<g>
		<path fill="#F7F7F7" d="M348.172,118.924c-9.597,0-17.407-7.807-17.407-17.403V64.938c0-9.599,7.812-17.408,17.407-17.408
			s17.404,7.81,17.404,17.408v36.584C365.576,111.118,357.767,118.924,348.172,118.924z M348.172,48.933
			c-8.824,0-16.001,7.179-16.001,16.003v36.584c0,8.821,7.177,15.999,16.001,15.999c8.822,0,15.999-7.177,15.999-15.999V64.938
			C364.171,56.112,356.994,48.933,348.172,48.933z"/>
	</g>
	<g>
		<path fill="#F7F7F7" d="M541.449,210.08c-7.76,0-14.069-5.459-14.069-12.17v-25.106c0-6.709,6.311-12.168,14.069-12.168
			c7.754,0,14.063,5.458,14.063,12.168v25.106C555.513,204.621,549.202,210.08,541.449,210.08z M541.449,162.04
			c-6.984,0-12.665,4.828-12.665,10.763v25.105c0,5.938,5.681,10.768,12.665,10.768c6.979,0,12.658-4.83,12.658-10.768v-25.105
			C554.108,166.869,548.429,162.04,541.449,162.04z"/>
	</g>
	<g>
		<path fill="#F7F7F7" d="M351.195,210.08c-7.928,0-14.379-5.459-14.379-12.17v-25.106c0-6.709,6.451-12.168,14.379-12.168
			c7.931,0,14.382,5.458,14.382,12.168v25.106C365.576,204.621,359.125,210.08,351.195,210.08z M351.195,162.04
			c-7.156,0-12.976,4.828-12.976,10.763v25.105c0,5.938,5.819,10.768,12.976,10.768c7.154,0,12.977-4.83,12.977-10.768v-25.105
			C364.171,166.869,358.349,162.04,351.195,162.04z"/>
	</g>
	<g>
		<path fill="#F7F7F7" d="M467.639,21.344c0,7.122-5.769,12.884-12.885,12.884h-8.593c-7.118,0-12.888-5.763-12.888-12.884l0,0
			c0-7.111,5.769-12.882,12.888-12.882h8.593C461.869,8.462,467.639,14.233,467.639,21.344L467.639,21.344z"/>
		<path fill="#F7F7F7" d="M454.754,34.931h-8.593c-7.494,0-13.588-6.095-13.588-13.587c0-7.49,6.094-13.584,13.588-13.584h8.593
			c7.491,0,13.587,6.094,13.587,13.584C468.341,28.836,462.245,34.931,454.754,34.931z M446.161,9.166
			c-6.719,0-12.184,5.464-12.184,12.179c0,6.718,5.464,12.182,12.184,12.182h8.593c6.716,0,12.182-5.464,12.182-12.182
			c0-6.716-5.465-12.179-12.182-12.179H446.161z"/>
	</g>
	<g>
		<path fill="#F7F7F7" d="M472.412,126.241h-54.408c-5.121,0-9.29-4.167-9.29-9.29c0-1.673,0.523-2.525,1.559-2.525
			c0.737,0,1.575,0.507,2.632,1.147c1.437,0.868,3.222,1.946,5.1,1.946h52.012c1.76,0,3.833-0.938,5.661-1.766
			c1.575-0.713,2.935-1.328,4.002-1.328c0.757,0,2.024,0.33,2.024,2.525C481.703,122.074,477.533,126.241,472.412,126.241z
			 M410.273,115.83c-0.009,0.018-0.155,0.25-0.155,1.121c0,4.349,3.538,7.886,7.887,7.886h54.408c4.349,0,7.886-3.539,7.886-7.886
			c0-1.121-0.344-1.121-0.621-1.121c-0.764,0-2.054,0.585-3.42,1.202c-1.959,0.887-4.177,1.892-6.241,1.892h-52.012
			c-2.27,0-4.324-1.242-5.824-2.15C411.449,116.332,410.619,115.831,410.273,115.83z"/>
	</g>
	<g>
		<path fill="#F7F7F7" d="M413.866,287.232h-44.689c-9.336,0-16.929-7.594-16.929-16.926c0-9.312,11.441-20.758,20.749-20.758
			h37.042c9.309,0,20.751,11.445,20.751,20.758C430.791,279.638,423.198,287.232,413.866,287.232z M372.998,250.953
			c-8.5,0-19.345,10.854-19.345,19.354c0,8.559,6.964,15.521,15.525,15.521h44.688c8.559,0,15.521-6.963,15.521-15.521
			c0-8.502-10.849-19.354-19.348-19.354H372.998z"/>
	</g>
	<g>
		<path fill="#F7F7F7" d="M525.221,287.232h-44.687c-9.33,0-16.923-7.594-16.923-16.926c0-9.312,11.443-20.758,20.749-20.758H521.4
			c9.309,0,20.752,11.445,20.752,20.758C542.153,279.638,534.557,287.232,525.221,287.232z M484.362,250.953
			c-8.496,0-19.343,10.854-19.343,19.354c0,8.559,6.962,15.521,15.517,15.521h44.688c8.56,0,15.526-6.963,15.526-15.521
			c0-8.502-10.848-19.354-19.347-19.354H484.362z"/>
	</g>
</g>
<g>
	<g>
		<path fill="#F7F7F7" d="M119.405,340.523c-0.36,0-0.652-0.291-0.652-0.652V61.983c0-0.361,0.292-0.651,0.652-0.651
			s0.651,0.291,0.651,0.651v277.888C120.057,340.232,119.765,340.523,119.405,340.523z"/>
	</g>
	<g>
		<path fill="#F7F7F7" d="M19.937,143.277c-0.17,0-0.343-0.068-0.469-0.2c-0.235-0.244-0.245-0.626-0.022-0.881
			c0.515-0.588,51.554-58.946,70.313-75.717c6.865-6.134,13.397-9.245,19.414-9.245c6.937,0,10.575,4.147,10.726,4.323
			c0.115,0.134,0.172,0.309,0.154,0.484c-0.015,0.176-0.102,0.336-0.24,0.448l-99.466,80.644
			C20.228,143.229,20.082,143.277,19.937,143.277z M109.173,58.54c-5.688,0-11.927,2.998-18.544,8.912
			C75.45,81.022,38.997,121.99,25.532,137.25l92.896-75.314C117.286,60.901,114.129,58.54,109.173,58.54z"/>
	</g>
	<g>
		<path fill="#F7F7F7" d="M115.769,49.984c-0.07,0-0.14-0.013-0.209-0.035c-0.167-0.056-0.304-0.179-0.379-0.338L60.183-66.035
			c-0.145-0.306-0.033-0.672,0.26-0.843c0.291-0.173,0.667-0.091,0.861,0.187c0.45,0.637,45.179,63.968,57.069,86.143
			c4.626,8.632,6.013,16.071,4.124,22.112c-1.863,5.957-6.246,8.253-6.432,8.348C115.972,49.958,115.871,49.984,115.769,49.984z
			 M64.682-59.616l51.364,108.009c1.188-0.81,3.913-3.05,5.216-7.253c1.766-5.689,0.408-12.779-4.039-21.073
			C107.602,2.125,76.347-42.944,64.682-59.616z"/>
	</g>
	<g>
		<path fill="#F7F7F7" d="M153.95,68.4C153.948,68.4,153.952,68.4,153.95,68.4c-1.323,0-2.557-0.015-3.686-0.046
			c-9.79-0.267-16.937-2.755-21.241-7.394c-4.244-4.573-4.061-9.516-4.051-9.725c0.008-0.176,0.087-0.341,0.22-0.458
			c0.132-0.117,0.305-0.181,0.48-0.162l127.688,9.651c0.338,0.025,0.599,0.305,0.602,0.644c0.004,0.338-0.252,0.624-0.588,0.656
			C252.664,61.638,182.111,68.4,153.95,68.4z M126.3,51.973c0.114,1.434,0.703,4.91,3.703,8.127
			c4.062,4.355,10.89,6.694,20.296,6.951c20.361,0.557,74.983-4.209,95.256-6.063L126.3,51.973z"/>
	</g>
	<g>
		<circle fill="#F7F7F7" cx="118.755" cy="55.527" r="9.037"/>
		<path fill="#F7F7F7" d="M118.755,65.218c-5.342,0-9.688-4.348-9.688-9.691s4.346-9.691,9.688-9.691c5.343,0,9.69,4.348,9.69,9.691
			S124.098,65.218,118.755,65.218z M118.755,47.141c-4.623,0-8.384,3.763-8.384,8.386s3.762,8.385,8.384,8.385
			c4.624,0,8.384-3.762,8.384-8.385S123.379,47.141,118.755,47.141z"/>
	</g>
	<g>
		<path fill="#F7F7F7" d="M139.877,340.523H98.933c-0.36,0-0.652-0.291-0.652-0.652c0-0.36,0.292-0.652,0.652-0.652h40.944
			c0.362,0,0.652,0.292,0.652,0.652C140.529,340.232,140.238,340.523,139.877,340.523z"/>
	</g>
</g>
<g>
	<path fill="#F7F7F7" d="M224.389,274.223c-0.866,0.342-2.089,0.759-2.809,0.916c-0.169,0.024-0.217-0.024-0.217-0.184v-1.984
		c0-0.13,0.025-0.183,0.145-0.208c1.081-0.288,2.736-0.915,3.673-1.385c0.119-0.078,0.264-0.129,0.382-0.129h1.633
		c0.096,0,0.144,0.077,0.144,0.155v14.442h2.952c0.144,0,0.192,0.054,0.215,0.211v2.089c0.025,0.182-0.023,0.261-0.167,0.261h-9.122
		c-0.144,0-0.167-0.078-0.144-0.234v-2.143c0.024-0.13,0.072-0.181,0.216-0.181h3.097v-11.627H224.389z"/>
	<path fill="#F7F7F7" d="M238.509,274.223c-0.864,0.342-2.089,0.759-2.81,0.916c-0.168,0.024-0.216-0.024-0.216-0.184v-1.984
		c0-0.13,0.026-0.183,0.144-0.208c1.081-0.288,2.737-0.915,3.673-1.385c0.121-0.078,0.265-0.129,0.384-0.129h1.633
		c0.096,0,0.144,0.077,0.144,0.155v14.442h2.952c0.144,0,0.192,0.054,0.215,0.211v2.089c0.024,0.182-0.023,0.261-0.167,0.261h-9.122
		c-0.144,0-0.167-0.078-0.144-0.234v-2.143c0.024-0.13,0.073-0.181,0.216-0.181h3.096v-11.627H238.509z"/>
	<path fill="#F7F7F7" d="M247.9,279.814c0-4.936,2.112-8.829,5.856-8.829c4.537,0,5.787,4.911,5.787,8.829
		c0,4.517-1.489,8.853-5.762,8.853C249.677,288.667,247.9,284.75,247.9,279.814z M250.829,279.814c0,3.864,0.982,6.398,2.952,6.398
		c1.969,0,2.833-2.299,2.833-6.373c0-4.309-0.937-6.451-2.881-6.451C252.1,273.388,250.829,275.453,250.829,279.814z"/>
	<path fill="#F7F7F7" d="M266.748,274.223c-0.866,0.342-2.089,0.759-2.811,0.916c-0.167,0.024-0.215-0.024-0.215-0.184v-1.984
		c0-0.13,0.024-0.183,0.144-0.208c1.08-0.288,2.737-0.915,3.672-1.385c0.122-0.078,0.266-0.129,0.385-0.129h1.633
		c0.096,0,0.144,0.077,0.144,0.155v14.442h2.952c0.144,0,0.191,0.054,0.215,0.211v2.089c0.026,0.182-0.023,0.261-0.167,0.261h-9.122
		c-0.144,0-0.167-0.078-0.144-0.234v-2.143c0.024-0.13,0.073-0.181,0.215-0.181h3.098v-11.627H266.748z"/>
	<path fill="#F7F7F7" d="M276.139,279.814c0-4.936,2.112-8.829,5.856-8.829c4.537,0,5.785,4.911,5.785,8.829
		c0,4.517-1.488,8.853-5.761,8.853C277.914,288.667,276.139,284.75,276.139,279.814z M279.068,279.814
		c0,3.864,0.983,6.398,2.953,6.398c1.968,0,2.832-2.299,2.832-6.373c0-4.309-0.936-6.451-2.88-6.451
		C280.34,273.388,279.068,275.453,279.068,279.814z"/>
</g>
<g>
	<path fill="#F7F7F7" d="M354.956-6.682c-0.864,0.34-2.089,0.758-2.81,0.915c-0.168,0.026-0.217-0.024-0.217-0.183v-1.984
		c0-0.13,0.025-0.183,0.144-0.209c1.08-0.286,2.736-0.913,3.674-1.383c0.12-0.078,0.264-0.129,0.384-0.129h1.63
		c0.098,0,0.146,0.078,0.146,0.156V4.942h2.953c0.143,0,0.19,0.052,0.217,0.208v2.09c0.024,0.182-0.026,0.261-0.17,0.261h-9.122
		c-0.142,0-0.169-0.079-0.142-0.233V5.125c0.023-0.13,0.071-0.182,0.215-0.182h3.098L354.956-6.682L354.956-6.682z"/>
	<path fill="#F7F7F7" d="M364.347-1.092c0-4.938,2.113-8.829,5.857-8.829c4.536,0,5.785,4.91,5.785,8.829
		c0,4.517-1.489,8.853-5.762,8.853C366.123,7.76,364.347,3.842,364.347-1.092z M367.276-1.092c0,3.865,0.982,6.397,2.952,6.397
		c1.969,0,2.834-2.297,2.834-6.372c0-4.309-0.938-6.452-2.882-6.452C368.547-7.519,367.276-5.456,367.276-1.092z"/>
</g>
<g>
	<path fill="#F7F7F7" d="M55.779,193.958c0-4.936,2.112-8.825,5.857-8.825c4.537,0,5.785,4.909,5.785,8.825
		c0,4.519-1.488,8.853-5.762,8.853C57.554,202.811,55.779,198.894,55.779,193.958z M58.707,193.958c0,3.865,0.985,6.399,2.952,6.399
		c1.969,0,2.832-2.3,2.832-6.373c0-4.309-0.937-6.449-2.881-6.449C59.98,187.533,58.707,189.596,58.707,193.958z"/>
	<path fill="#F7F7F7" d="M74.627,188.371c-0.863,0.338-2.088,0.756-2.807,0.912c-0.168,0.027-0.218-0.024-0.218-0.18v-1.985
		c0-0.13,0.026-0.184,0.144-0.209c1.081-0.288,2.737-0.915,3.673-1.385c0.119-0.076,0.263-0.132,0.385-0.132h1.63
		c0.096,0,0.145,0.08,0.145,0.159v14.442h2.952c0.144,0,0.193,0.052,0.216,0.209v2.09c0.023,0.182-0.023,0.262-0.167,0.262h-9.124
		c-0.143,0-0.168-0.078-0.143-0.236v-2.14c0.023-0.132,0.071-0.184,0.215-0.184h3.096v-11.624H74.627z"/>
	<path fill="#F7F7F7" d="M88.747,188.371c-0.863,0.338-2.088,0.756-2.807,0.912c-0.168,0.027-0.217-0.024-0.217-0.18v-1.985
		c0-0.13,0.025-0.184,0.144-0.209c1.081-0.288,2.737-0.915,3.673-1.385c0.12-0.076,0.263-0.132,0.384-0.132h1.633
		c0.096,0,0.144,0.08,0.144,0.159v14.442h2.952c0.144,0,0.193,0.052,0.216,0.209v2.09c0.024,0.182-0.023,0.262-0.167,0.262h-9.124
		c-0.143,0-0.167-0.078-0.143-0.236v-2.14c0.023-0.132,0.071-0.184,0.215-0.184h3.096L88.747,188.371L88.747,188.371z"/>
	<path fill="#F7F7F7" d="M98.137,193.958c0-4.936,2.111-8.825,5.856-8.825c4.537,0,5.785,4.909,5.785,8.825
		c0,4.519-1.487,8.853-5.761,8.853C99.913,202.811,98.137,198.894,98.137,193.958z M101.066,193.958
		c0,3.865,0.984,6.399,2.954,6.399c1.967,0,2.832-2.3,2.832-6.373c0-4.309-0.937-6.449-2.881-6.449
		C102.339,187.533,101.066,189.596,101.066,193.958z"/>
</g>
<g>
	<g>
		<path fill="#F7F7F7" d="M61.703,271.085H20.391c-2.192,0-3.949-0.816-4.951-2.302c-1.002-1.484-1.103-3.42-0.285-5.453
			l22.523-55.885c0.841-2.089,2.038-3.237,3.369-3.237c1.332,0,2.528,1.148,3.37,3.237l22.522,55.885
			c0.818,2.032,0.718,3.968-0.285,5.453C65.652,270.269,63.894,271.085,61.703,271.085z M41.046,205.512
			c-0.742,0-1.549,0.904-2.159,2.42l-22.522,55.887c-0.652,1.617-0.596,3.122,0.155,4.236c0.752,1.115,2.125,1.728,3.87,1.728
			h41.312c1.744,0,3.119-0.615,3.872-1.728c0.75-1.114,0.806-2.619,0.154-4.236l-22.523-55.887
			C42.595,206.417,41.788,205.512,41.046,205.512z"/>
	</g>
	<g>
		<path fill="#F7F7F7" d="M57.963,266.11H24.133c-1.189,0-2.192-0.473-2.747-1.295c-0.556-0.824-0.619-1.926-0.174-3.03
			l17.847-44.291c0.641-1.586,1.521-1.822,1.987-1.822c0.468,0,1.348,0.236,1.987,1.822l17.851,44.291
			c0.446,1.102,0.381,2.206-0.174,3.029C60.156,265.637,59.154,266.11,57.963,266.11z M41.046,216.976
			c-0.15,0-0.479,0.269-0.777,1.006l-17.848,44.292c-0.284,0.704-0.268,1.349,0.046,1.812c0.313,0.466,0.905,0.722,1.666,0.722
			h33.832c0.76,0,1.352-0.256,1.666-0.722c0.314-0.464,0.33-1.108,0.045-1.812l-17.849-44.293
			C41.527,217.243,41.196,216.976,41.046,216.976z"/>
	</g>
	<g>
		<path fill="#F7F7F7" d="M40.017,236.152c0,0-7.083,14.465-5.744,15.803c1.217,1.218,8.058-1.813,8.058-1.813l-4.125,9.183
			l3.877,0.354c0,0,6.831-13.4,5.31-14.922c-1.628-1.632-7.848,2.19-7.529,1.381c0.72-1.817,3.442-10.504,3.442-10.504
			S41.046,233.497,40.017,236.152z"/>
	</g>
</g>
</svg>
