<?xml version="1.0" encoding="utf-8"?>
<!-- Generator: Adobe Illustrator 19.2.0, SVG Export Plug-In . SVG Version: 6.00 Build 0)  -->
<svg version="1.1" id="Isolation_Mode" xmlns="http://www.w3.org/2000/svg" xmlns:xlink="http://www.w3.org/1999/xlink" x="0px"
	 y="0px" viewBox="0 0 695.7 425.8" style="enable-background:new 0 0 695.7 425.8;" xml:space="preserve">
<style type="text/css">
	.st0{fill:#EDEDED;}
</style>
<g>
	<path class="st0" d="M247.9,248.1c0-4.9,2.1-8.8,5.9-8.8c4.5,0,5.8,4.9,5.8,8.8c0,4.5-1.5,8.9-5.8,8.9
		C249.7,257,247.9,253.1,247.9,248.1z M250.8,248.1c0,3.9,1,6.4,3,6.4c2,0,2.8-2.3,2.8-6.4c0-4.3-0.9-6.4-2.9-6.4
		C252.1,241.7,250.8,243.8,250.8,248.1z"/>
	<path class="st0" d="M266.7,242.5c-0.9,0.3-2.1,0.8-2.8,0.9c-0.2,0-0.2,0-0.2-0.2v-2c0-0.1,0-0.2,0.1-0.2c1.1-0.3,2.7-0.9,3.7-1.4
		c0.1-0.1,0.3-0.1,0.4-0.1h1.6c0.1,0,0.1,0.1,0.1,0.2v14.4h3c0.1,0,0.2,0.1,0.2,0.2v2.1c0,0.2,0,0.3-0.2,0.3h-9.1
		c-0.1,0-0.2-0.1-0.1-0.2v-2.1c0-0.1,0.1-0.2,0.2-0.2h3.1L266.7,242.5L266.7,242.5z"/>
	<path class="st0" d="M276.1,248.1c0-4.9,2.1-8.8,5.9-8.8c4.5,0,5.8,4.9,5.8,8.8c0,4.5-1.5,8.9-5.8,8.9
		C277.9,257,276.1,253.1,276.1,248.1z M279.1,248.1c0,3.9,1,6.4,3,6.4s2.8-2.3,2.8-6.4c0-4.3-0.9-6.4-2.9-6.4
		C280.3,241.7,279.1,243.8,279.1,248.1z"/>
	<path class="st0" d="M295,242.5c-0.9,0.3-2.1,0.8-2.8,0.9c-0.2,0-0.2,0-0.2-0.2v-2c0-0.1,0-0.2,0.1-0.2c1.1-0.3,2.7-0.9,3.7-1.4
		c0.1-0.1,0.3-0.1,0.4-0.1h1.6c0.1,0,0.1,0.1,0.1,0.2v14.4h3c0.1,0,0.2,0.1,0.2,0.2v2.1c0,0.2,0,0.3-0.2,0.3h-9.1
		c-0.1,0-0.2-0.1-0.1-0.2v-2.1c0-0.1,0.1-0.2,0.2-0.2h3.1L295,242.5L295,242.5z"/>
	<path class="st0" d="M309.1,242.5c-0.9,0.3-2.1,0.8-2.8,0.9c-0.2,0-0.2,0-0.2-0.2v-2c0-0.1,0-0.2,0.1-0.2c1.1-0.3,2.7-0.9,3.7-1.4
		c0.1-0.1,0.3-0.1,0.4-0.1h1.6c0.1,0,0.1,0.1,0.1,0.2v14.4h3c0.1,0,0.2,0.1,0.2,0.2v2.1c0,0.2,0,0.3-0.2,0.3h-9.1
		c-0.1,0-0.2-0.1-0.1-0.2v-2.1c0-0.1,0.1-0.2,0.2-0.2h3.1L309.1,242.5L309.1,242.5z"/>
	<path class="st0" d="M323.2,242.5c-0.9,0.3-2.1,0.8-2.8,0.9c-0.2,0-0.2,0-0.2-0.2v-2c0-0.1,0-0.2,0.1-0.2c1.1-0.3,2.7-0.9,3.7-1.4
		c0.1-0.1,0.3-0.1,0.4-0.1h1.6c0.1,0,0.1,0.1,0.1,0.2v14.4h3c0.1,0,0.2,0.1,0.2,0.2v2.1c0,0.2,0,0.3-0.2,0.3h-9.1
		c-0.1,0-0.2-0.1-0.1-0.2v-2.1c0-0.1,0.1-0.2,0.2-0.2h3.1V242.5L323.2,242.5z"/>
	<path class="st0" d="M332.6,248.1c0-4.9,2.1-8.8,5.9-8.8c4.5,0,5.8,4.9,5.8,8.8c0,4.5-1.5,8.9-5.8,8.9
		C334.4,257,332.6,253.1,332.6,248.1z M335.5,248.1c0,3.9,1,6.4,3,6.4s2.8-2.3,2.8-6.4c0-4.3-0.9-6.4-2.9-6.4
		C336.8,241.7,335.5,243.8,335.5,248.1z"/>
	<path class="st0" d="M346.7,248.1c0-4.9,2.1-8.8,5.9-8.8c4.5,0,5.8,4.9,5.8,8.8c0,4.5-1.5,8.9-5.8,8.9
		C348.5,257,346.7,253.1,346.7,248.1z M349.7,248.1c0,3.9,1,6.4,3,6.4c2,0,2.8-2.3,2.8-6.4c0-4.3-0.9-6.4-2.9-6.4
		C350.9,241.7,349.7,243.8,349.7,248.1z"/>
	<path class="st0" d="M365.6,242.5c-0.9,0.3-2.1,0.8-2.8,0.9c-0.2,0-0.2,0-0.2-0.2v-2c0-0.1,0-0.2,0.1-0.2c1.1-0.3,2.7-0.9,3.7-1.4
		c0.1-0.1,0.3-0.1,0.4-0.1h1.6c0.1,0,0.1,0.1,0.1,0.2v14.4h3c0.1,0,0.2,0.1,0.2,0.2v2.1c0,0.2,0,0.3-0.2,0.3h-9.1
		c-0.1,0-0.2-0.1-0.1-0.2v-2.1c0-0.1,0.1-0.2,0.2-0.2h3.1L365.6,242.5L365.6,242.5z"/>
	<path class="st0" d="M375,248.1c0-4.9,2.1-8.8,5.9-8.8c4.5,0,5.8,4.9,5.8,8.8c0,4.5-1.5,8.9-5.8,8.9C376.7,257,375,253.1,375,248.1
		z M377.9,248.1c0,3.9,1,6.4,3,6.4c2,0,2.8-2.3,2.8-6.4c0-4.3-0.9-6.4-2.9-6.4C379.2,241.7,377.9,243.8,377.9,248.1z"/>
	<path class="st0" d="M389.1,248.1c0-4.9,2.1-8.8,5.9-8.8c4.5,0,5.8,4.9,5.8,8.8c0,4.5-1.5,8.9-5.8,8.9
		C390.9,257,389.1,253.1,389.1,248.1z M392,248.1c0,3.9,1,6.4,3,6.4c2,0,2.8-2.3,2.8-6.4c0-4.3-0.9-6.4-2.9-6.4
		C393.3,241.7,392,243.8,392,248.1z"/>
	<path class="st0" d="M403.2,248.1c0-4.9,2.1-8.8,5.9-8.8c4.5,0,5.8,4.9,5.8,8.8c0,4.5-1.5,8.9-5.8,8.9
		C405,257,403.2,253.1,403.2,248.1z M406.1,248.1c0,3.9,1,6.4,3,6.4c2,0,2.8-2.3,2.8-6.4c0-4.3-0.9-6.4-2.9-6.4
		C407.4,241.7,406.1,243.8,406.1,248.1z"/>
	<path class="st0" d="M422.1,242.5c-0.9,0.3-2.1,0.8-2.8,0.9c-0.2,0-0.2,0-0.2-0.2v-2c0-0.1,0-0.2,0.1-0.2c1.1-0.3,2.7-0.9,3.7-1.4
		c0.1-0.1,0.3-0.1,0.4-0.1h1.6c0.1,0,0.1,0.1,0.1,0.2v14.4h3c0.1,0,0.2,0.1,0.2,0.2v2.1c0,0.2,0,0.3-0.2,0.3h-9.1
		c-0.1,0-0.2-0.1-0.1-0.2v-2.1c0-0.1,0.1-0.2,0.2-0.2h3.1L422.1,242.5L422.1,242.5z"/>
</g>
<g>
	<g>
		<path class="st0" d="M598.7,219.8H434.1V112.4h164.6V219.8z M435.5,218.4h161.8V113.8H435.5V218.4z"/>
	</g>
	<g>
		<path class="st0" d="M598.7,312H434.1v-73.6h164.6V312z M435.5,310.6h161.8v-70.8H435.5V310.6z"/>
	</g>
	<g>
		<path class="st0" d="M473.3,177.5c-11.4,0-20.7-9.3-20.7-20.7c0-11.4,9.3-20.7,20.7-20.7c11.4,0,20.7,9.3,20.7,20.7
			C494,168.2,484.7,177.5,473.3,177.5z M473.3,137.4c-10.7,0-19.3,8.7-19.3,19.3c0,10.7,8.7,19.3,19.3,19.3
			c10.7,0,19.3-8.7,19.3-19.3C492.6,146,483.9,137.4,473.3,137.4z"/>
	</g>
	<g>
		<path class="st0" d="M560,177.5c-11.4,0-20.7-9.3-20.7-20.7c0-11.4,9.3-20.7,20.7-20.7c11.4,0,20.7,9.3,20.7,20.7
			C580.7,168.2,571.4,177.5,560,177.5z M560,137.4c-10.7,0-19.3,8.7-19.3,19.3c0,10.7,8.7,19.3,19.3,19.3c10.7,0,19.3-8.7,19.3-19.3
			C579.3,146,570.6,137.4,560,137.4z"/>
	</g>
	<g>
		<path class="st0" d="M614.7,197.8c-9.6,0-17.4-7.8-17.4-17.4v-36.6c0-9.6,7.8-17.4,17.4-17.4c9.6,0,17.4,7.8,17.4,17.4v36.6
			C632.1,190,624.3,197.8,614.7,197.8z M614.7,127.8c-8.8,0-16,7.2-16,16v36.6c0,8.8,7.2,16,16,16c8.8,0,16-7.2,16-16v-36.6
			C630.7,135,623.5,127.8,614.7,127.8z"/>
	</g>
	<g>
		<path class="st0" d="M418.1,197.8c-9.6,0-17.4-7.8-17.4-17.4v-36.6c0-9.6,7.8-17.4,17.4-17.4s17.4,7.8,17.4,17.4v36.6
			C435.5,190,427.7,197.8,418.1,197.8z M418.1,127.8c-8.8,0-16,7.2-16,16v36.6c0,8.8,7.2,16,16,16c8.8,0,16-7.2,16-16v-36.6
			C434.1,135,426.9,127.8,418.1,127.8z"/>
	</g>
	<g>
		<path class="st0" d="M611.3,289c-7.8,0-14.1-5.5-14.1-12.2v-25.1c0-6.7,6.3-12.2,14.1-12.2c7.8,0,14.1,5.5,14.1,12.2v25.1
			C625.4,283.5,619.1,289,611.3,289z M611.3,240.9c-7,0-12.7,4.8-12.7,10.8v25.1c0,5.9,5.7,10.8,12.7,10.8c7,0,12.7-4.8,12.7-10.8
			v-25.1C624,245.8,618.3,240.9,611.3,240.9z"/>
	</g>
	<g>
		<path class="st0" d="M421.1,289c-7.9,0-14.4-5.5-14.4-12.2v-25.1c0-6.7,6.5-12.2,14.4-12.2c7.9,0,14.4,5.5,14.4,12.2v25.1
			C435.5,283.5,429,289,421.1,289z M421.1,240.9c-7.2,0-13,4.8-13,10.8v25.1c0,5.9,5.8,10.8,13,10.8c7.2,0,13-4.8,13-10.8v-25.1
			C434.1,245.8,428.2,240.9,421.1,240.9z"/>
	</g>
	<g>
		<path class="st0" d="M537.5,100.2c0,7.1-5.8,12.9-12.9,12.9h-8.6c-7.1,0-12.9-5.8-12.9-12.9l0,0c0-7.1,5.8-12.9,12.9-12.9h8.6
			C531.8,87.4,537.5,93.1,537.5,100.2L537.5,100.2z"/>
		<path class="st0" d="M524.6,113.8h-8.6c-7.5,0-13.6-6.1-13.6-13.6c0-7.5,6.1-13.6,13.6-13.6h8.6c7.5,0,13.6,6.1,13.6,13.6
			C538.2,107.7,532.1,113.8,524.6,113.8z M516.1,88.1c-6.7,0-12.2,5.5-12.2,12.2c0,6.7,5.5,12.2,12.2,12.2h8.6
			c6.7,0,12.2-5.5,12.2-12.2c0-6.7-5.5-12.2-12.2-12.2C524.6,88.1,516.1,88.1,516.1,88.1z"/>
	</g>
	<g>
		<path class="st0" d="M542.3,205.1h-54.4c-5.1,0-9.3-4.2-9.3-9.3c0-1.7,0.5-2.5,1.6-2.5c0.7,0,1.6,0.5,2.6,1.1
			c1.4,0.9,3.2,1.9,5.1,1.9h52c1.8,0,3.8-0.9,5.7-1.8c1.6-0.7,2.9-1.3,4-1.3c0.8,0,2,0.3,2,2.5C551.6,201,547.4,205.1,542.3,205.1z
			 M480.2,194.7c0,0-0.2,0.2-0.2,1.1c0,4.3,3.5,7.9,7.9,7.9h54.4c4.3,0,7.9-3.5,7.9-7.9c0-1.1-0.3-1.1-0.6-1.1
			c-0.8,0-2.1,0.6-3.4,1.2c-2,0.9-4.2,1.9-6.2,1.9h-52c-2.3,0-4.3-1.2-5.8-2.1C481.3,195.2,480.5,194.7,480.2,194.7z"/>
	</g>
	<g>
		<path class="st0" d="M483.8,366.1h-44.7c-9.3,0-16.9-7.6-16.9-16.9c0-9.3,11.4-20.8,20.7-20.8h37c9.3,0,20.8,11.4,20.8,20.8
			C500.7,358.5,493.1,366.1,483.8,366.1z M442.9,329.8c-8.5,0-19.3,10.9-19.3,19.4c0,8.6,7,15.5,15.5,15.5h44.7
			c8.6,0,15.5-7,15.5-15.5c0-8.5-10.8-19.4-19.3-19.4H442.9z"/>
	</g>
	<g>
		<path class="st0" d="M595.1,366.1h-44.7c-9.3,0-16.9-7.6-16.9-16.9c0-9.3,11.4-20.8,20.7-20.8h37c9.3,0,20.8,11.4,20.8,20.8
			C612,358.5,604.4,366.1,595.1,366.1z M554.3,329.8c-8.5,0-19.3,10.9-19.3,19.4c0,8.6,7,15.5,15.5,15.5h44.7
			c8.6,0,15.5-7,15.5-15.5c0-8.5-10.8-19.4-19.3-19.4H554.3z"/>
	</g>
</g>
<g>
	<g>
		<path class="st0" d="M189.3,419.4c-0.4,0-0.7-0.3-0.7-0.7V140.9c0-0.4,0.3-0.7,0.7-0.7s0.7,0.3,0.7,0.7v277.9
			C189.9,419.1,189.7,419.4,189.3,419.4z"/>
	</g>
	<g>
		<path class="st0" d="M89.8,222.2c-0.2,0-0.3-0.1-0.5-0.2c-0.2-0.2-0.2-0.6,0-0.9c0.5-0.6,51.6-58.9,70.3-75.7
			c6.9-6.1,13.4-9.2,19.4-9.2c6.9,0,10.6,4.1,10.7,4.3c0.1,0.1,0.2,0.3,0.2,0.5c0,0.2-0.1,0.3-0.2,0.4L90.2,222
			C90.1,222.1,90,222.2,89.8,222.2z M179.1,137.4c-5.7,0-11.9,3-18.5,8.9c-15.2,13.6-51.6,54.5-65.1,69.8l92.9-75.3
			C187.2,139.8,184,137.4,179.1,137.4z"/>
	</g>
	<g>
		<path class="st0" d="M185.7,128.9c-0.1,0-0.1,0-0.2,0c-0.2-0.1-0.3-0.2-0.4-0.3l-55-115.6c-0.1-0.3,0-0.7,0.3-0.8
			c0.3-0.2,0.7-0.1,0.9,0.2c0.4,0.6,45.2,64,57.1,86.1c4.6,8.6,6,16.1,4.1,22.1c-1.9,6-6.2,8.3-6.4,8.3
			C185.9,128.9,185.8,128.9,185.7,128.9z M134.6,19.3l51.4,108c1.2-0.8,3.9-3,5.2-7.3c1.8-5.7,0.4-12.8-4-21.1
			C177.5,81,146.2,36,134.6,19.3z"/>
	</g>
	<g>
		<path class="st0" d="M223.8,147.3C223.8,147.3,223.8,147.3,223.8,147.3c-1.3,0-2.6,0-3.7,0c-9.8-0.3-16.9-2.8-21.2-7.4
			c-4.2-4.6-4.1-9.5-4.1-9.7c0-0.2,0.1-0.3,0.2-0.5c0.1-0.1,0.3-0.2,0.5-0.2l127.7,9.7c0.3,0,0.6,0.3,0.6,0.6c0,0.3-0.3,0.6-0.6,0.7
			C322.6,140.5,252,147.3,223.8,147.3z M196.2,130.9c0.1,1.4,0.7,4.9,3.7,8.1c4.1,4.4,10.9,6.7,20.3,7c20.4,0.6,75-4.2,95.3-6.1
			L196.2,130.9z"/>
	</g>
	<g>
		<circle class="st0" cx="188.6" cy="134.4" r="9"/>
		<path class="st0" d="M188.6,144.1c-5.3,0-9.7-4.3-9.7-9.7s4.3-9.7,9.7-9.7c5.3,0,9.7,4.3,9.7,9.7S194,144.1,188.6,144.1z
			 M188.6,126c-4.6,0-8.4,3.8-8.4,8.4s3.8,8.4,8.4,8.4c4.6,0,8.4-3.8,8.4-8.4S193.3,126,188.6,126z"/>
	</g>
	<g>
		<path class="st0" d="M209.8,419.4h-40.9c-0.4,0-0.7-0.3-0.7-0.7c0-0.4,0.3-0.7,0.7-0.7h40.9c0.4,0,0.7,0.3,0.7,0.7
			C210.4,419.1,210.1,419.4,209.8,419.4z"/>
	</g>
</g>
<g>
	<path class="st0" d="M294.3,353.1c-0.9,0.3-2.1,0.8-2.8,0.9c-0.2,0-0.2,0-0.2-0.2v-2c0-0.1,0-0.2,0.1-0.2c1.1-0.3,2.7-0.9,3.7-1.4
		c0.1-0.1,0.3-0.1,0.4-0.1h1.6c0.1,0,0.1,0.1,0.1,0.2v14.4h3c0.1,0,0.2,0.1,0.2,0.2v2.1c0,0.2,0,0.3-0.2,0.3h-9.1
		c-0.1,0-0.2-0.1-0.1-0.2v-2.1c0-0.1,0.1-0.2,0.2-0.2h3.1L294.3,353.1L294.3,353.1L294.3,353.1z"/>
	<path class="st0" d="M308.4,353.1c-0.9,0.3-2.1,0.8-2.8,0.9c-0.2,0-0.2,0-0.2-0.2v-2c0-0.1,0-0.2,0.1-0.2c1.1-0.3,2.7-0.9,3.7-1.4
		c0.1-0.1,0.3-0.1,0.4-0.1h1.6c0.1,0,0.1,0.1,0.1,0.2v14.4h3c0.1,0,0.2,0.1,0.2,0.2v2.1c0,0.2,0,0.3-0.2,0.3h-9.1
		c-0.1,0-0.2-0.1-0.1-0.2v-2.1c0-0.1,0.1-0.2,0.2-0.2h3.1L308.4,353.1L308.4,353.1L308.4,353.1z"/>
	<path class="st0" d="M317.8,358.7c0-4.9,2.1-8.8,5.9-8.8c4.5,0,5.8,4.9,5.8,8.8c0,4.5-1.5,8.9-5.8,8.9
		C319.6,367.6,317.8,363.6,317.8,358.7z M320.7,358.7c0,3.9,1,6.4,3,6.4c2,0,2.8-2.3,2.8-6.4c0-4.3-0.9-6.5-2.9-6.5
		C322,352.3,320.7,354.3,320.7,358.7z"/>
	<path class="st0" d="M336.6,353.1c-0.9,0.3-2.1,0.8-2.8,0.9c-0.2,0-0.2,0-0.2-0.2v-2c0-0.1,0-0.2,0.1-0.2c1.1-0.3,2.7-0.9,3.7-1.4
		c0.1-0.1,0.3-0.1,0.4-0.1h1.6c0.1,0,0.1,0.1,0.1,0.2v14.4h3c0.1,0,0.2,0.1,0.2,0.2v2.1c0,0.2,0,0.3-0.2,0.3h-9.1
		c-0.1,0-0.2-0.1-0.1-0.2v-2.1c0-0.1,0.1-0.2,0.2-0.2h3.1L336.6,353.1L336.6,353.1L336.6,353.1z"/>
	<path class="st0" d="M346,358.7c0-4.9,2.1-8.8,5.9-8.8c4.5,0,5.8,4.9,5.8,8.8c0,4.5-1.5,8.9-5.8,8.9
		C347.8,367.6,346,363.6,346,358.7z M349,358.7c0,3.9,1,6.4,3,6.4c2,0,2.8-2.3,2.8-6.4c0-4.3-0.9-6.5-2.9-6.5
		C350.2,352.3,349,354.3,349,358.7z"/>
</g>
<g>
	<path class="st0" d="M424.8,72.2c-0.9,0.3-2.1,0.8-2.8,0.9c-0.2,0-0.2,0-0.2-0.2v-2c0-0.1,0-0.2,0.1-0.2c1.1-0.3,2.7-0.9,3.7-1.4
		c0.1-0.1,0.3-0.1,0.4-0.1h1.6c0.1,0,0.1,0.1,0.1,0.2v14.4h3c0.1,0,0.2,0.1,0.2,0.2v2.1c0,0.2,0,0.3-0.2,0.3h-9.1
		c-0.1,0-0.2-0.1-0.1-0.2V84c0-0.1,0.1-0.2,0.2-0.2h3.1V72.2L424.8,72.2z"/>
	<path class="st0" d="M434.2,77.8c0-4.9,2.1-8.8,5.9-8.8c4.5,0,5.8,4.9,5.8,8.8c0,4.5-1.5,8.9-5.8,8.9
		C436,86.7,434.2,82.7,434.2,77.8z M437.2,77.8c0,3.9,1,6.4,3,6.4c2,0,2.8-2.3,2.8-6.4c0-4.3-0.9-6.5-2.9-6.5
		C438.4,71.4,437.2,73.4,437.2,77.8z"/>
</g>
<g>
	<path class="st0" d="M125.7,272.9c0-4.9,2.1-8.8,5.9-8.8c4.5,0,5.8,4.9,5.8,8.8c0,4.5-1.5,8.9-5.8,8.9
		C127.4,281.7,125.7,277.8,125.7,272.9z M128.6,272.9c0,3.9,1,6.4,3,6.4c2,0,2.8-2.3,2.8-6.4c0-4.3-0.9-6.4-2.9-6.4
		C129.9,266.4,128.6,268.5,128.6,272.9z"/>
	<path class="st0" d="M144.5,267.3c-0.9,0.3-2.1,0.8-2.8,0.9c-0.2,0-0.2,0-0.2-0.2v-2c0-0.1,0-0.2,0.1-0.2c1.1-0.3,2.7-0.9,3.7-1.4
		c0.1-0.1,0.3-0.1,0.4-0.1h1.6c0.1,0,0.1,0.1,0.1,0.2v14.4h3c0.1,0,0.2,0.1,0.2,0.2v2.1c0,0.2,0,0.3-0.2,0.3h-9.1
		c-0.1,0-0.2-0.1-0.1-0.2v-2.1c0-0.1,0.1-0.2,0.2-0.2h3.1L144.5,267.3L144.5,267.3L144.5,267.3z"/>
	<path class="st0" d="M158.6,267.3c-0.9,0.3-2.1,0.8-2.8,0.9c-0.2,0-0.2,0-0.2-0.2v-2c0-0.1,0-0.2,0.1-0.2c1.1-0.3,2.7-0.9,3.7-1.4
		c0.1-0.1,0.3-0.1,0.4-0.1h1.6c0.1,0,0.1,0.1,0.1,0.2v14.4h3c0.1,0,0.2,0.1,0.2,0.2v2.1c0,0.2,0,0.3-0.2,0.3h-9.1
		c-0.1,0-0.2-0.1-0.1-0.2v-2.1c0-0.1,0.1-0.2,0.2-0.2h3.1L158.6,267.3L158.6,267.3z"/>
	<path class="st0" d="M168,272.9c0-4.9,2.1-8.8,5.9-8.8c4.5,0,5.8,4.9,5.8,8.8c0,4.5-1.5,8.9-5.8,8.9
		C169.8,281.7,168,277.8,168,272.9z M171,272.9c0,3.9,1,6.4,3,6.4c2,0,2.8-2.3,2.8-6.4c0-4.3-0.9-6.4-2.9-6.4
		C172.2,266.4,171,268.5,171,272.9z"/>
</g>
<g>
	<g>
		<path class="st0" d="M131.6,350H90.3c-2.2,0-3.9-0.8-5-2.3c-1-1.5-1.1-3.4-0.3-5.5l22.5-55.9c0.8-2.1,2-3.2,3.4-3.2
			c1.3,0,2.5,1.1,3.4,3.2l22.5,55.9c0.8,2,0.7,4-0.3,5.5C135.5,349.2,133.8,350,131.6,350z M110.9,284.4c-0.7,0-1.5,0.9-2.2,2.4
			l-22.5,55.9c-0.7,1.6-0.6,3.1,0.2,4.2c0.8,1.1,2.1,1.7,3.9,1.7h41.3c1.7,0,3.1-0.6,3.9-1.7c0.8-1.1,0.8-2.6,0.2-4.2l-22.5-55.9
			C112.5,285.3,111.7,284.4,110.9,284.4z"/>
	</g>
	<g>
		<path class="st0" d="M127.9,345H94c-1.2,0-2.2-0.5-2.7-1.3c-0.6-0.8-0.6-1.9-0.2-3l17.8-44.3c0.6-1.6,1.5-1.8,2-1.8
			c0.5,0,1.3,0.2,2,1.8l17.9,44.3c0.4,1.1,0.4,2.2-0.2,3C130,344.5,129,345,127.9,345z M110.9,295.9c-0.2,0-0.5,0.3-0.8,1
			l-17.8,44.3c-0.3,0.7-0.3,1.3,0,1.8c0.3,0.5,0.9,0.7,1.7,0.7h33.8c0.8,0,1.4-0.3,1.7-0.7c0.3-0.5,0.3-1.1,0-1.8l-17.8-44.3
			C111.4,296.1,111.1,295.9,110.9,295.9z"/>
	</g>
	<g>
		<path class="st0" d="M109.9,315c0,0-7.1,14.5-5.7,15.8c1.2,1.2,8.1-1.8,8.1-1.8l-4.1,9.2l3.9,0.4c0,0,6.8-13.4,5.3-14.9
			c-1.6-1.6-7.8,2.2-7.5,1.4c0.7-1.8,3.4-10.5,3.4-10.5S110.9,312.4,109.9,315z"/>
	</g>
</g>
</svg>
