<?xml version="1.0" encoding="utf-8"?>
<!-- Generator: Adobe Illustrator 19.2.0, SVG Export Plug-In . SVG Version: 6.00 Build 0)  -->
<svg version="1.1" id="Isolation_Mode" xmlns="http://www.w3.org/2000/svg" xmlns:xlink="http://www.w3.org/1999/xlink" x="0px"
	 y="0px" viewBox="0 0 663.5 426.4" style="enable-background:new 0 0 663.5 426.4;" xml:space="preserve">
<style type="text/css">
	.st0{fill:none;}
	.st1{fill:#EDEDED;}
</style>
<g>
	<path class="st0" d="M183,68.8c0,0.6,0,1.2,0.1,1.8c0.7,4.2,3.5,7.7,7.4,9.3c0.2,0.1,0.3,0.1,0.5,0.2c1.2,0.4,2.5,0.6,3.8,0.6
		c2.6,0,5.1-0.9,7.2-2.5c2.7-2.1,4.4-5.3,4.6-8.7c0-0.2,0-0.5,0-0.7c0-1.7-0.4-3.4-1.2-5.1l-0.1-0.3c-2-4-6.1-6.5-10.5-6.5
		c-0.9,0-1.9,0.1-2.9,0.4c-4.2,1.1-7.5,4.3-8.6,8.6C183.2,66.8,183,67.8,183,68.8z"/>
	<path class="st0" d="M200.5,104.9c-0.5-0.2-1-0.4-1.6-0.5c-0.9-0.2-1.8-0.4-2.7-0.4h-0.1c-0.1,0-0.2,0-0.3,0
		c-2.7,0.1-5.4,1.2-7.4,3c-2.4,2.2-3.8,5.3-3.8,8.6c0,1.7,0.4,3.3,1.1,4.9c0,0,0,0.1,0,0.1c0,0.1,0,0.2,0,0.3l0.1,0.7l0.4,0.6
		c1.8,2.6,4.6,4.4,7.8,4.9c0.6,0.1,1.3,0.2,1.9,0.2c4.7,0,9-2.8,10.8-7.2c0.6-1.4,0.9-2.9,0.9-4.4
		C207.6,110.9,204.8,106.7,200.5,104.9z"/>
	<path class="st0" d="M144.8,51.4c0.1,0.1,0.1,0.2,0.2,0.4c1,1.8,2.4,3.3,4.1,4.4c0.1,0.1,0.2,0.1,0.3,0.2c0.7,0.4,1.5,0.8,2.3,1
		l0.1,0c0.2,0.1,0.4,0.1,0.6,0.2c1,0.3,2,0.4,2.9,0.4c0.9,0,1.9-0.1,2.9-0.4c0.2,0,0.4-0.1,0.6-0.2l0.1,0c0.8-0.3,1.6-0.6,2.3-1
		c0.1,0,0.1-0.1,0.2-0.1l0.1-0.1c1.7-1.1,3.1-2.6,4.1-4.4c0.1-0.1,0.1-0.2,0.2-0.3c0-0.1,0.1-0.1,0.1-0.2l0,0
		c0.7-1.6,1.1-3.2,1.1-4.9c0-1.4-0.3-2.8-0.8-4.1c-0.8-2.2-2.3-4.1-4.2-5.4c-1.5-1-3.1-1.7-4.9-2c-0.6-0.1-1.2-0.1-1.8-0.1
		c-6.4,0-11.6,5.2-11.6,11.6c0,0.2,0,0.4,0,0.6C143.7,48.5,144.1,50,144.8,51.4z"/>
	<path class="st0" d="M206.2,75.7c-0.2,0.3-0.4,0.6-0.5,0.7c-0.3,0.4-0.6,0.7-1,1.2c-0.1,0.1-0.2,0.2-0.2,0.3l0,0
		c-0.1,0.1-0.2,0.3-0.3,0.3c-0.4,0.4-0.9,0.8-1.4,1.2c-0.1,0.1-0.3,0.2-0.4,0.3l0,0c-0.6,0.4-1.3,0.8-2,1.1c0,0-0.1,0-0.1,0l-0.1,0
		c-0.2,0.1-0.3,0.1-0.5,0.2l-0.4,0.1c-0.1,0-0.3,0.1-0.4,0.2l-2.9,0.8v20.3l3.2,0.7c3.8,1,6.9,3.6,8.5,7.2c0.7,1.6,1.1,3.3,1.1,5.1
		c0,0.2,0,0.5,0,0.7c-0.1,1.6-0.5,3.1-1.1,4.6l-1.4,3.1l18.8,9.4l1.6-1.9c0.1-0.1,0.2-0.2,0.4-0.4c0.4-0.4,0.8-0.9,1.4-1.3
		c0.1-0.1,0.2-0.2,0.3-0.2c0.1-0.1,0.3-0.3,0.4-0.3c0.4-0.3,0.9-0.6,1.5-0.9c0.2-0.1,0.3-0.2,0.5-0.3c0.1-0.1,0.3-0.2,0.4-0.2
		c0.5-0.2,1.1-0.4,1.7-0.6c0.2-0.1,0.4-0.1,0.6-0.2c0.1,0,0.2-0.1,0.2-0.1c0.9-0.2,1.9-0.3,2.8-0.3c0.2,0,0.5,0,0.7,0
		c0.7,0,1.4,0.1,2.1,0.3c0.1,0,0.2,0,0.3,0.1c0.2,0.1,0.4,0.1,0.6,0.2c0.6,0.2,1.2,0.4,1.7,0.6c0.1,0,0.2,0.1,0.4,0.2
		c0.2,0.1,0.3,0.2,0.5,0.3c0.5,0.3,1.1,0.6,1.5,0.9c0.1,0.1,0.3,0.2,0.4,0.3c0.1,0.1,0.2,0.2,0.3,0.2c0.6,0.5,1,0.9,1.4,1.3
		c0.1,0.2,0.3,0.3,0.4,0.4l1.6,1.9l17.7-8.8l-0.6-2.6c-0.2-1-0.3-1.9-0.3-2.8c0-0.8,0.1-1.6,0.3-2.5c0-0.1,0.1-0.2,0.1-0.3
		c0-0.1,0.1-0.3,0.1-0.4c0.2-0.7,0.3-1.1,0.5-1.6c0.1-0.2,0.2-0.5,0.3-0.8l0-0.1c0.2-0.5,0.4-0.9,0.7-1.3c0.1-0.2,0.3-0.5,0.5-0.7
		c0.3-0.4,0.6-0.8,1-1.2c0.1-0.1,0.2-0.2,0.3-0.3c0.1-0.1,0.2-0.2,0.3-0.3c0.4-0.4,0.9-0.8,1.4-1.2c0.1-0.1,0.3-0.2,0.4-0.3l0,0
		c0.6-0.4,1.3-0.8,2-1.1c0,0,0.1,0,0.2-0.1c0.1,0,0.3-0.1,0.5-0.2l0.3-0.1c0.4-0.2,0.8-0.3,1-0.4l2.6-0.7V82.3l-2.6-0.7
		c-0.3-0.1-0.6-0.2-1-0.3l-0.4-0.1c-0.2-0.1-0.3-0.1-0.5-0.2l-0.1,0c-0.7-0.3-1.4-0.7-2-1.1l-0.1,0c-0.1-0.1-0.3-0.2-0.4-0.3
		c-0.6-0.4-1-0.8-1.4-1.2c-0.1-0.1-0.2-0.2-0.3-0.4c-0.1-0.1-0.2-0.2-0.2-0.3c-0.4-0.4-0.7-0.8-1-1.2c-0.1-0.2-0.3-0.4-0.5-0.8
		c-0.3-0.4-0.5-0.8-0.7-1.3l0-0.1c-0.1-0.3-0.3-0.5-0.3-0.8c-0.2-0.4-0.3-0.9-0.5-1.6c0-0.1-0.1-0.3-0.1-0.4c0-0.1-0.1-0.2-0.1-0.3
		c-0.2-0.9-0.3-1.7-0.3-2.5c0-0.9,0.1-1.8,0.3-2.8l0.6-2.6l-29.5-14.7l-29.5,14.8l0.6,2.6c0.2,0.9,0.3,1.9,0.3,2.8
		c0,0.8-0.1,1.6-0.3,2.5c0,0.1,0,0.2-0.1,0.3c0,0.1-0.1,0.3-0.1,0.4c-0.2,0.7-0.3,1.2-0.5,1.6c-0.1,0.2-0.2,0.5-0.3,0.7l0,0.1
		c-0.1,0.1-0.1,0.2-0.2,0.4C206.5,75.1,206.3,75.4,206.2,75.7z"/>
	<path class="st0" d="M289.5,76.5c-0.3,0.4-0.6,0.7-1,1.2c-0.1,0.1-0.2,0.2-0.3,0.3c-0.1,0.1-0.2,0.3-0.3,0.3
		c-0.4,0.4-0.9,0.8-1.4,1.2c-0.1,0.1-0.3,0.2-0.4,0.3l0,0c-0.6,0.4-1.3,0.8-2,1.1c0,0-0.1,0-0.1,0l-0.1,0c-0.2,0.1-0.3,0.1-0.5,0.2
		l-0.4,0.1c-0.4,0.1-0.7,0.3-1,0.3l-2.6,0.7v23.2l2.6,0.7c0.3,0.1,0.7,0.2,1.1,0.4l0.3,0.1c0.1,0.1,0.3,0.1,0.5,0.2
		c0.1,0,0.1,0,0.1,0c0.7,0.3,1.4,0.7,2,1.1l0.1,0c0.1,0.1,0.3,0.2,0.4,0.3c0.6,0.4,1,0.8,1.4,1.2c0.1,0.1,0.2,0.2,0.3,0.3
		c0.1,0.1,0.2,0.2,0.3,0.3c0.4,0.5,0.7,0.8,1,1.2c0.2,0.2,0.4,0.5,0.5,0.8c0.3,0.4,0.5,0.9,0.7,1.3l0,0.1c0.1,0.3,0.2,0.5,0.3,0.8
		c0.2,0.4,0.3,0.9,0.5,1.6c0,0.1,0.1,0.3,0.1,0.4c0,0.1,0.1,0.2,0.1,0.3c0.2,0.9,0.3,1.7,0.3,2.5c0,0.9-0.1,1.8-0.3,2.8l-0.6,2.6
		l17.8,8.9l1.6-1.9c0.1-0.1,0.2-0.2,0.3-0.3c0.4-0.4,0.9-0.9,1.5-1.4c0.1-0.1,0.2-0.2,0.3-0.3c0.1-0.1,0.2-0.2,0.3-0.2
		c0.4-0.3,0.9-0.6,1.6-0.9c0.2-0.1,0.3-0.2,0.5-0.3c0.1-0.1,0.2-0.1,0.3-0.2c0.5-0.2,1.1-0.4,1.9-0.6c0.2-0.1,0.4-0.1,0.6-0.2
		c0.1,0,0.2-0.1,0.2-0.1c0.7-0.2,1.4-0.2,2.1-0.3c1.1-0.1,2.2,0,3.4,0.3c0.1,0,0.1,0,0.2,0.1c0.2,0.1,0.4,0.1,0.6,0.2
		c0.7,0.2,1.3,0.4,1.8,0.6c0.1,0,0.2,0.1,0.3,0.2c0.2,0.1,0.3,0.2,0.5,0.3c0.4,0.2,0.8,0.4,1.2,0.7c0.1,0.1,0.2,0.2,0.4,0.2
		c0.1,0.1,0.2,0.1,0.3,0.2c0.1,0.1,0.2,0.2,0.3,0.3c0.6,0.5,1.1,0.9,1.5,1.4c0.1,0.1,0.2,0.2,0.3,0.3l1.6,1.9l17.8-8.9l-0.6-2.6
		c-0.2-1-0.3-1.9-0.3-2.8c0-6,4.1-11.3,10-12.8l2.6-0.7V69.2l-29.5-14.7l-1.6,1.9c-0.1,0.1-0.2,0.2-0.3,0.3
		c-0.4,0.5-0.9,0.9-1.5,1.4c-0.1,0.1-0.2,0.2-0.3,0.3c-0.1,0.1-0.2,0.2-0.3,0.2c-0.5,0.4-1.1,0.7-1.6,0.9c-0.2,0.1-0.3,0.2-0.5,0.3
		c-0.1,0.1-0.2,0.1-0.3,0.2c-0.1,0.1-0.3,0.1-0.4,0.2c-0.4,0.2-0.9,0.3-1.4,0.4c-0.2,0.1-0.4,0.1-0.6,0.2c-0.1,0-0.1,0.1-0.2,0.1
		c-1,0.2-1.9,0.3-2.8,0.3c-0.9,0-1.8-0.1-2.8-0.3c0,0-0.1,0-0.2-0.1c-0.2-0.1-0.4-0.1-0.6-0.2c-0.2,0-0.3-0.1-0.5-0.1
		c-0.4-0.1-0.9-0.3-1.3-0.4c-0.1,0-0.2-0.1-0.3-0.2c-0.2-0.1-0.3-0.2-0.5-0.3c-0.6-0.3-1.1-0.6-1.6-0.9c-0.1,0-0.2-0.1-0.3-0.2
		c-0.1-0.1-0.2-0.2-0.3-0.3c-0.6-0.5-1.1-0.9-1.5-1.4c-0.1-0.1-0.2-0.2-0.4-0.3l-1.7-1.8l-17.7,8.9l0.6,2.6c0.2,0.9,0.3,1.9,0.3,2.8
		c0,0.8-0.1,1.6-0.3,2.5c0,0.1,0,0.2-0.1,0.3c0,0.1-0.1,0.3-0.1,0.4c-0.2,0.7-0.3,1.1-0.5,1.6c-0.1,0.2-0.2,0.5-0.3,0.7l0,0.1
		c-0.2,0.5-0.5,0.9-0.7,1.3C289.7,76.1,289.6,76.3,289.5,76.5z"/>
	<path class="st0" d="M278.7,80.6c6.5,0,11.9-5.3,11.9-11.9c0-1.7-0.4-3.4-1.2-5.1l-0.1-0.3l0,0c-1.1-2.2-2.9-4-5.1-5.1
		c-0.2-0.1-0.5-0.2-0.7-0.3c-0.5-0.2-1-0.4-1.5-0.5c-1-0.3-2.1-0.5-3.2-0.5c-4.4,0-8.5,2.5-10.5,6.5c-0.1,0.1-0.1,0.2-0.2,0.3
		c-0.8,1.6-1.2,3.3-1.2,5.1C266.9,75.3,272.2,80.6,278.7,80.6z"/>
	<path class="st0" d="M165.6,130.7c0-0.1-0.1-0.1-0.1-0.2c-1-1.8-2.4-3.4-4.1-4.5l-0.1-0.1c-0.1,0-0.1-0.1-0.2-0.1
		c-0.7-0.4-1.4-0.7-2.3-1l-0.1,0c-0.2-0.1-0.4-0.1-0.6-0.2c-2.1-0.5-3.8-0.5-5.8,0c-0.2,0-0.4,0.1-0.5,0.2l-0.1,0
		c-0.9,0.3-1.6,0.6-2.3,1c-0.1,0.1-0.2,0.1-0.3,0.2c-1.8,1.1-3.2,2.7-4.2,4.7c-0.8,1.7-1.3,3.4-1.3,5.2c0,6.4,5.2,11.6,11.6,11.6
		s11.6-5.2,11.6-11.6c0-0.6-0.1-1.3-0.2-1.9c-0.2-1.1-0.5-2.1-1-3.1L165.6,130.7z"/>
	<path class="st0" d="M64,127.6c0.1-0.1,0.2-0.2,0.3-0.3c0.4-0.4,0.8-0.8,1.4-1.3c0.1-0.1,0.2-0.2,0.3-0.2c0.1-0.1,0.3-0.3,0.4-0.3
		c0.1-0.1,0.2-0.1,0.3-0.2c0.3-0.2,0.7-0.4,1.1-0.6c0.2-0.1,0.3-0.2,0.5-0.3c0.1-0.1,0.3-0.2,0.4-0.2c0.5-0.2,1-0.4,1.6-0.5
		c0.2-0.1,0.4-0.1,0.6-0.2c0.1,0,0.2-0.1,0.2-0.1c0.9-0.2,1.8-0.3,2.7-0.3c0.9,0,1.8,0.1,2.7,0.3c0.1,0,0.2,0.1,0.2,0.1
		c0.2,0.1,0.4,0.1,0.6,0.2c0.6,0.2,1.2,0.3,1.7,0.6c0.1,0,0.2,0.1,0.4,0.2c0.2,0.1,0.3,0.2,0.5,0.3c0.5,0.3,1,0.6,1.4,0.9
		c0.1,0.1,0.2,0.2,0.4,0.3c0.1,0.1,0.2,0.1,0.3,0.2c0.5,0.5,1,0.9,1.3,1.2c0.1,0.2,0.3,0.3,0.4,0.4l1.6,1.9l17.3-8.7l-0.6-2.6
		c-0.2-0.9-0.3-1.8-0.3-2.7c0-0.7,0.1-1.5,0.2-2.4c0-0.1,0-0.2,0.1-0.3c0-0.1,0.1-0.3,0.1-0.4c0.2-0.6,0.3-1.1,0.5-1.5
		c0.1-0.2,0.2-0.4,0.3-0.7l0-0.1c0.2-0.4,0.4-0.9,0.7-1.3c0.2-0.3,0.3-0.5,0.5-0.7c0.3-0.4,0.6-0.7,1-1.2c0.1-0.1,0.2-0.2,0.3-0.3
		c0.1-0.1,0.2-0.2,0.3-0.3c0.4-0.4,0.8-0.7,1.4-1.1c0.1-0.1,0.3-0.2,0.4-0.3c0,0,0,0,0,0c0.1-0.1,0.3-0.2,0.4-0.3
		c0.5-0.3,1-0.6,1.5-0.8c0,0,0.1,0,0.2-0.1c0.1,0,0.3-0.1,0.4-0.1l0.3-0.1c0.4-0.1,0.7-0.3,1-0.4l2.6-0.7V79.8l-2.6-0.7
		c-0.3-0.1-0.6-0.2-0.9-0.3l-0.3-0.1c-0.2-0.1-0.3-0.1-0.5-0.2l-0.1,0c-0.7-0.3-1.4-0.7-1.9-1.1l0,0c-0.1-0.1-0.3-0.2-0.4-0.3
		c-0.5-0.4-1-0.8-1.4-1.1c-0.1-0.1-0.2-0.2-0.3-0.4c-0.1-0.1-0.2-0.2-0.2-0.2c-0.4-0.4-0.7-0.8-1-1.1c-0.1-0.2-0.3-0.4-0.5-0.7
		c-0.2-0.4-0.5-0.8-0.7-1.3l0-0.1c-0.1-0.3-0.2-0.5-0.3-0.7c0,0,0-0.1-0.1-0.1c-0.1-0.4-0.3-0.8-0.4-1.4c0-0.1-0.1-0.3-0.1-0.4
		c0-0.1-0.1-0.2-0.1-0.3c-0.2-0.9-0.2-1.7-0.2-2.4c0-0.2,0-0.4,0-0.6c0-0.7,0.1-1.3,0.3-2l0.6-2.6L73.8,47L45.1,61.4l0.6,2.6
		c0.2,0.9,0.3,1.8,0.3,2.7c0,0.8-0.1,1.5-0.2,2.4c0,0.1,0,0.2-0.1,0.3c0,0.1-0.1,0.3-0.1,0.4c-0.2,0.6-0.3,1.1-0.5,1.5
		c-0.1,0.2-0.2,0.5-0.3,0.7l0,0.1c-0.2,0.5-0.5,0.9-0.7,1.3c-0.1,0.2-0.3,0.4-0.4,0.6c0,0.1-0.1,0.1-0.1,0.1
		c-0.3,0.4-0.6,0.7-0.9,1.1c-0.1,0.1-0.2,0.2-0.3,0.3c-0.1,0.1-0.2,0.2-0.3,0.3c-0.4,0.4-0.8,0.7-1.4,1.1c-0.1,0.1-0.3,0.2-0.4,0.3
		l0,0c-0.6,0.4-1.3,0.8-2,1.1c0,0,0,0-0.1,0l-0.1,0c-0.2,0.1-0.3,0.1-0.5,0.2l-0.4,0.1c-0.3,0.1-0.7,0.3-0.9,0.3l-2.6,0.7v35.4
		l28.7,14.3L64,127.6z"/>
	<path class="st0" d="M85.5,135.8c0-1.5-0.3-2.9-0.9-4.3v-0.1l-0.4-0.7c-0.9-1.9-2.4-3.5-4.2-4.7c-0.1-0.1-0.2-0.1-0.4-0.2
		c-0.7-0.4-1.4-0.7-2.2-1l-0.2-0.1c-0.2-0.1-0.4-0.1-0.5-0.2c-2.1-0.5-3.8-0.5-5.8,0c-0.2,0-0.4,0.1-0.6,0.2l-0.2,0.1
		c-0.8,0.3-1.6,0.6-2.2,1c-0.1,0-0.2,0.1-0.4,0.2c-1.7,1.1-3.1,2.6-4.1,4.4c0,0,0,0.1-0.1,0.1l-0.1,0.3c-0.8,1.6-1.2,3.3-1.2,5
		c0,6.4,5.2,11.6,11.6,11.6C80.3,147.4,85.5,142.2,85.5,135.8z"/>
	<path class="st0" d="M73.8,173.1c-6.4,0-11.6,5.2-11.6,11.6c0,6.4,5.2,11.6,11.6,11.6c4.4,0,8.3-2.4,10.3-6.4l0.1-0.3
		c0.8-1.6,1.2-3.3,1.2-5C85.5,177.5,81.1,173.1,73.8,173.1z"/>
	<path class="st0" d="M310,53c0.1,0.1,0.1,0.3,0.2,0.4c1,1.8,2.4,3.4,4.2,4.5c0.1,0.1,0.2,0.1,0.3,0.2c0.7,0.4,1.5,0.8,2.3,1l0.1,0
		c0.2,0.1,0.4,0.1,0.6,0.2c1,0.3,2,0.4,3,0.4c0.9,0,1.9-0.1,3-0.4c0.2,0,0.4-0.1,0.6-0.2l0.1,0c0.8-0.3,1.6-0.6,2.3-1
		c0.1,0,0.1-0.1,0.2-0.1l0.1-0.1c0.2-0.1,0.4-0.3,0.6-0.4c1.5-1.1,2.7-2.5,3.5-4.1c0.1-0.1,0.1-0.2,0.2-0.3c0.6-1.2,1-2.5,1.2-3.9
		c0.1-0.4,0.1-0.9,0.1-1.3c0-6.5-5.3-11.9-11.9-11.9c-6.5,0-11.9,5.3-11.9,11.9c0,0.2,0,0.4,0,0.7C308.9,50,309.3,51.5,310,53z"/>
	<path class="st0" d="M44.8,66.7c0-1.7-0.4-3.4-1.2-5l-0.1-0.3c-2-3.9-6-6.4-10.3-6.4c-6.4,0-11.6,5.2-11.6,11.6
		c0,6.4,5.2,11.6,11.6,11.6C39.5,78.3,44.8,73.1,44.8,66.7z"/>
	<path class="st0" d="M114.5,103.9c-6.4,0-11.6,5.2-11.6,11.6c0,1.8,0.4,3.5,1.3,5.2c1,1.9,2.4,3.5,4.2,4.6c0.1,0.1,0.2,0.1,0.3,0.2
		c0.7,0.4,1.5,0.8,2.3,1l0.1,0c0.2,0.1,0.4,0.1,0.6,0.2c0.8,0.2,1.5,0.3,2.2,0.4c0.2,0,0.5,0,0.7,0c0.2,0,0.5,0,0.7,0
		c0.7,0,1.4-0.2,2.2-0.4c0.2,0,0.4-0.1,0.6-0.2l0.1,0c0.8-0.3,1.6-0.6,2.3-1c0.1,0,0.1-0.1,0.2-0.1l0.1-0.1c1.8-1.1,3.2-2.7,4.2-4.7
		c0.8-1.7,1.3-3.4,1.3-5.2c0-0.6,0-1.2-0.1-1.8C125.2,108.2,120.2,103.9,114.5,103.9z"/>
	<path class="st0" d="M114.5,78.3c5.7,0,10.6-4.2,11.5-9.9c0.1-0.6,0.1-1.2,0.1-1.8c0-1.7-0.4-3.4-1.2-5l-0.1-0.3
		c-2-3.9-6-6.4-10.3-6.4c-0.3,0-0.5,0-0.8,0c-4.1,0.3-7.6,2.6-9.5,6.3c-0.1,0.1-0.1,0.2-0.2,0.3c-0.8,1.6-1.2,3.3-1.2,5
		C102.9,73.1,108.1,78.3,114.5,78.3z"/>
	<path class="st0" d="M142.8,182c0-0.1,0.1-0.3,0.1-0.4c0.2-0.6,0.3-1.1,0.5-1.5c0.1-0.2,0.2-0.5,0.3-0.7l0-0.1
		c0.2-0.4,0.4-0.9,0.7-1.3c0.1-0.2,0.3-0.5,0.5-0.7c0.3-0.4,0.6-0.7,1-1.2c0.1-0.1,0.2-0.2,0.3-0.3c0.1-0.1,0.2-0.2,0.3-0.3
		c0.4-0.4,0.8-0.7,1.4-1.1c0.1-0.1,0.3-0.2,0.4-0.3l0,0c0.6-0.4,1.3-0.8,1.9-1c0,0,0.1,0,0.2-0.1c0.1,0,0.3-0.1,0.4-0.1l0.3-0.1
		c0.4-0.1,0.7-0.3,1-0.4l2.6-0.7V149l-2.6-0.7c-0.3-0.1-0.6-0.2-0.9-0.3l-0.4-0.1c-0.2-0.1-0.3-0.1-0.5-0.2l-0.1,0
		c-0.7-0.3-1.4-0.7-2-1.1l0,0c-0.1-0.1-0.3-0.2-0.4-0.3c-0.5-0.4-1-0.8-1.4-1.1c-0.1-0.1-0.2-0.2-0.3-0.3c-0.1-0.1-0.2-0.2-0.2-0.2
		c-0.4-0.4-0.7-0.8-1-1.1c-0.2-0.2-0.3-0.5-0.5-0.7c-0.2-0.4-0.5-0.8-0.7-1.3l0-0.1c-0.1-0.3-0.2-0.5-0.3-0.7
		c-0.2-0.4-0.3-0.9-0.5-1.5c0-0.1-0.1-0.3-0.1-0.4c0-0.1-0.1-0.2-0.1-0.3c-0.2-0.9-0.2-1.7-0.2-2.4c0-0.9,0.1-1.7,0.3-2.7l0.6-2.6
		l-17.3-8.7l-1.7,1.8c-0.1,0.1-0.2,0.2-0.3,0.3c-0.4,0.4-0.9,0.9-1.4,1.3c-0.1,0.1-0.2,0.2-0.3,0.3c-0.1,0.1-0.2,0.1-0.2,0.2
		c-0.5,0.3-1,0.6-1.5,0.9c-0.2,0.1-0.3,0.2-0.5,0.3c-0.1,0.1-0.2,0.1-0.2,0.1c-0.5,0.2-1.2,0.4-1.8,0.6c-0.2,0.1-0.4,0.1-0.6,0.2
		c-0.1,0-0.1,0-0.2,0.1c-0.9,0.2-1.8,0.3-2.6,0.3c-0.9,0-1.8-0.1-2.6-0.3c0,0-0.1,0-0.2-0.1c-0.2-0.1-0.4-0.1-0.6-0.2
		c-0.6-0.2-1.3-0.4-1.7-0.6c0,0-0.2-0.1-0.3-0.2c-0.2-0.1-0.3-0.2-0.5-0.3c-0.6-0.3-1.1-0.6-1.5-0.9c-0.1,0-0.2-0.1-0.3-0.2
		c-0.1-0.1-0.2-0.2-0.3-0.3c-0.6-0.5-1-0.9-1.4-1.3c-0.1-0.1-0.2-0.2-0.3-0.3l-1.6-1.9l-17.4,8.7l0.5,2.6c0.2,0.9,0.3,1.7,0.3,2.6
		c0,0.8-0.1,1.5-0.2,2.4c0,0.1,0,0.2-0.1,0.3c0,0.1-0.1,0.3-0.1,0.4c-0.2,0.6-0.3,1.1-0.5,1.5c-0.1,0.2-0.2,0.5-0.3,0.7l0,0.1
		c-0.2,0.5-0.5,0.9-0.7,1.3c-0.1,0.2-0.3,0.5-0.5,0.7c-0.2,0.3-0.5,0.7-0.9,1.1c-0.1,0.1-0.2,0.2-0.3,0.3c-0.1,0.1-0.2,0.2-0.3,0.3
		c-0.4,0.4-0.8,0.8-1.4,1.1c-0.1,0.1-0.3,0.2-0.4,0.3l0,0c-0.6,0.4-1.3,0.8-2,1.1c0,0,0,0-0.1,0l-0.1,0c-0.2,0.1-0.3,0.1-0.5,0.2
		l-0.4,0.1c-0.3,0.1-0.7,0.3-0.9,0.3l-2.6,0.7v22.8l2.8,0.6c0.6,0.1,1.2,0.3,1.9,0.5c0.1,0,0.2,0.1,0.3,0.1c0.6,0.2,1.2,0.6,1.9,0.9
		c0,0,0.1,0.1,0.2,0.1c0.1,0.1,0.3,0.2,0.4,0.3c0.4,0.3,0.8,0.6,1.1,0.9c0.1,0.1,0.3,0.3,0.5,0.5l0.1,0.1c0.3,0.4,0.6,0.7,0.8,1
		c0.2,0.2,0.3,0.5,0.5,0.7c0.1,0.1,0.1,0.2,0.2,0.3c0.2,0.3,0.3,0.6,0.5,1l0.1,0.2c0.1,0.2,0.2,0.4,0.2,0.6c0.2,0.5,0.3,1.1,0.4,1.6
		c0,0.2,0.1,0.3,0.1,0.5c0,0.1,0.1,0.2,0.1,0.3c0.2,1,0.2,1.9,0.2,2.8c0,0.9-0.1,1.8-0.3,2.7l-0.6,2.6l28.8,14.4l28.8-14.4l-0.6-2.6
		c-0.2-0.9-0.3-1.8-0.3-2.7c0-0.7,0.1-1.5,0.2-2.4C142.7,182.3,142.7,182.2,142.8,182z"/>
	<path class="st0" d="M402.2,151.8c5.7,0,10.6-4.2,11.5-9.9c0.1-0.6,0.1-1.2,0.1-1.8c0-1.7-0.4-3.4-1.2-5l-0.1-0.3
		c-2-3.9-6-6.4-10.3-6.4c-0.3,0-0.5,0-0.8,0c-4.1,0.3-7.6,2.6-9.5,6.3c-0.1,0.1-0.1,0.2-0.2,0.3c-0.8,1.6-1.2,3.3-1.2,4.9
		C390.6,146.6,395.8,151.8,402.2,151.8z"/>
	<path class="st0" d="M350.9,119c0,1.7,0.4,3.4,1.2,5c0,0,0,0.1,0,0.1c0,0.1,0,0.2,0,0.3l0.1,0.7l0.4,0.6c2.2,3.3,5.9,5.2,9.8,5.2
		c6.5,0,11.9-5.3,11.9-11.9c0-6.4-5.2-11.7-11.7-11.8h-0.1c-0.1,0-0.2,0-0.3,0C355.9,107.5,350.9,112.7,350.9,119z"/>
	<path class="st0" d="M432.5,124.9c0.1,0.1,0.1,0.2,0.2,0.4c1,1.8,2.4,3.3,4.1,4.4c0.1,0.1,0.2,0.1,0.3,0.2c0.7,0.4,1.5,0.8,2.3,1
		l0.1,0c0.2,0.1,0.4,0.1,0.6,0.2c1,0.3,2,0.4,2.9,0.4c0.9,0,1.9-0.1,2.9-0.4c0.2-0.1,0.4-0.1,0.6-0.2l0.1,0c0.8-0.3,1.6-0.6,2.3-1
		c0.1,0,0.1-0.1,0.2-0.1l0.1-0.1c1.7-1.1,3.1-2.6,4.1-4.4c0.1-0.1,0.1-0.2,0.2-0.3c0-0.1,0.1-0.1,0.1-0.2l0,0
		c0.7-1.6,1.1-3.2,1.1-4.9c0-1.4-0.3-2.8-0.8-4.1c-0.8-2.2-2.3-4.1-4.2-5.4c-1.5-1-3.1-1.7-4.9-2c-0.6-0.1-1.2-0.1-1.8-0.1
		c-6.4,0-11.6,5.2-11.6,11.6c0,0.2,0,0.4,0,0.7C431.4,122,431.8,123.4,432.5,124.9z"/>
	<path class="st0" d="M639.8,197.6c0,0.1,0,0.2,0.1,0.3l0.1,0.7l0.4,0.6c2.2,3.3,5.9,5.2,9.8,5.2c6.5,0,11.9-5.3,11.9-11.9
		c0-6.4-5.2-11.7-11.7-11.8h-0.1c-0.1,0-0.2,0-0.3,0c-6.4,0.3-11.4,5.4-11.4,11.8c0,1.7,0.4,3.4,1.2,5
		C639.8,197.5,639.8,197.6,639.8,197.6z"/>
	<path class="st0" d="M470.7,142.2c0,0.6,0,1.2,0.1,1.8c0.7,4.2,3.5,7.7,7.4,9.3c0.2,0.1,0.3,0.1,0.5,0.2c1.2,0.4,2.5,0.6,3.8,0.6
		c2.6,0,5.1-0.9,7.2-2.5c2.7-2.1,4.4-5.3,4.6-8.7c0-0.2,0-0.5,0-0.7c0-1.7-0.4-3.4-1.2-5.1l-0.1-0.3c-2-4-6.1-6.5-10.5-6.5
		c-0.9,0-1.9,0.1-2.9,0.4c-4.2,1.1-7.5,4.3-8.6,8.6C470.8,140.2,470.7,141.2,470.7,142.2z"/>
	<path class="st0" d="M317.3,177.1l2.6-0.7v-22.9l-2.6-0.7c-0.3-0.1-0.6-0.2-1-0.3l-0.4-0.1c-0.2-0.1-0.3-0.1-0.5-0.2l-0.1,0
		c0,0,0,0,0,0c-0.2-0.1-0.4-0.2-0.6-0.3c-0.5-0.3-1-0.5-1.5-0.8l-0.1,0c-0.1-0.1-0.3-0.2-0.4-0.3c-0.6-0.4-1-0.8-1.4-1.2
		c-0.1-0.1-0.2-0.2-0.3-0.4c-0.1-0.1-0.2-0.2-0.2-0.3c-0.4-0.4-0.7-0.8-1-1.2c-0.2-0.3-0.4-0.5-0.5-0.8c-0.3-0.4-0.5-0.8-0.7-1.3
		l0-0.1c-0.1-0.3-0.2-0.5-0.3-0.8c-0.2-0.4-0.3-0.9-0.5-1.6c0-0.1-0.1-0.3-0.1-0.4c0-0.1-0.1-0.2-0.1-0.3c-0.2-0.9-0.3-1.7-0.3-2.5
		c0-0.9,0.1-1.8,0.3-2.8l0.6-2.6l-17.7-8.9l-1.7,1.9c-0.1,0.1-0.2,0.2-0.3,0.3c-0.4,0.5-0.9,0.9-1.5,1.4c-0.1,0.1-0.2,0.2-0.3,0.3
		c-0.1,0.1-0.2,0.2-0.3,0.2c-0.5,0.4-1.1,0.7-1.6,0.9c-0.2,0.1-0.3,0.2-0.5,0.3c-0.1,0.1-0.2,0.1-0.3,0.2c-0.5,0.2-1.2,0.4-1.8,0.6
		c-0.2,0.1-0.4,0.1-0.6,0.2c-0.1,0-0.1,0-0.2,0.1c-1.2,0.3-2.3,0.3-3.4,0.3c-0.7,0-1.4-0.1-2.1-0.3c0,0-0.1,0-0.2-0.1
		c-0.2-0.1-0.4-0.1-0.6-0.2c-0.7-0.2-1.3-0.4-1.8-0.6c-0.1,0-0.2-0.1-0.3-0.2c-0.2-0.1-0.3-0.2-0.5-0.3c-0.6-0.3-1.1-0.6-1.6-0.9
		c-0.1,0-0.2-0.1-0.3-0.2c-0.1-0.1-0.2-0.2-0.3-0.3c-0.6-0.5-1.1-0.9-1.5-1.4c-0.1-0.1-0.2-0.2-0.3-0.3l-1.6-1.9l-17.8,8.9l0.5,2.6
		c0.2,0.9,0.3,1.8,0.3,2.7c0,0.8-0.1,1.6-0.3,2.5c0,0.1-0.1,0.2-0.1,0.3c0,0.1-0.1,0.3-0.1,0.4c-0.2,0.7-0.3,1.2-0.5,1.6
		c-0.1,0.2-0.2,0.5-0.3,0.8l0,0.1c-0.2,0.5-0.5,0.9-0.7,1.3c-0.1,0.2-0.3,0.5-0.5,0.8c-0.3,0.4-0.6,0.7-1,1.2
		c-0.1,0.1-0.2,0.2-0.3,0.3c-0.1,0.1-0.2,0.2-0.3,0.3c-0.4,0.4-0.9,0.8-1.4,1.2c-0.1,0.1-0.3,0.2-0.4,0.3l0,0
		c-0.2,0.1-0.3,0.2-0.5,0.3c-0.5,0.3-1,0.6-1.6,0.8c0,0-0.1,0-0.1,0l-0.1,0c-0.2,0.1-0.3,0.1-0.5,0.2c-0.1,0-0.2,0.1-0.4,0.1
		c-0.4,0.1-0.7,0.3-1,0.3l-2.6,0.7v23.3l2.8,0.6c0.6,0.1,1.2,0.3,2,0.6c0.1,0,0.2,0.1,0.3,0.1c0.6,0.3,1.3,0.6,1.9,1
		c0,0,0.1,0.1,0.2,0.1c0.1,0.1,0.3,0.2,0.4,0.3c0.4,0.3,0.8,0.6,1.2,0.9c0.1,0.1,0.3,0.3,0.5,0.5l0.1,0.1c0.4,0.4,0.6,0.7,0.9,1.1
		c0.2,0.2,0.3,0.5,0.5,0.7c0.2,0.4,0.4,0.8,0.7,1.3l0.1,0.2c0.1,0.2,0.2,0.4,0.3,0.6c0.2,0.5,0.3,1.2,0.4,1.7c0,0.2,0.1,0.3,0.1,0.5
		c0,0.1,0.1,0.3,0.1,0.3c0.2,1,0.2,2,0.2,2.9c0,0.8-0.1,1.6-0.3,2.5l-0.5,2.6l17.7,8.8l1.8-2c2.6-2.9,6.2-4.6,9.9-4.6
		c3,0,6,1.1,8.4,3.1c0.5,0.5,1.1,1,1.5,1.5l1.8,2l17.7-8.8l-0.5-2.6c-0.2-0.9-0.3-1.7-0.3-2.5c0-0.1,0-0.1,0-0.2V190
		c0-0.1,0-0.1,0-0.2C307.4,183.9,311.4,178.6,317.3,177.1z"/>
	<path class="st0" d="M266.9,261.1c0,1.8,0.4,3.6,1.3,5.3c0.1,0.2,0.3,0.5,0.4,0.7c1,1.6,2.3,3,3.9,4c0.1,0.1,0.2,0.1,0.3,0.2
		c0.7,0.4,1.5,0.8,2.3,1l0.1,0c0.2,0.1,0.4,0.1,0.6,0.2c1,0.3,2,0.4,3,0.4c0.9,0,1.9-0.1,3-0.4c0.2,0,0.4-0.1,0.6-0.2l0.1,0
		c0.8-0.3,1.6-0.6,2.3-1c0.1,0,0.1-0.1,0.2-0.1l0.1-0.1c0.7-0.4,1.3-0.9,1.9-1.5c1-0.9,1.8-2,2.4-3.3c0.6-1.3,1-2.6,1.2-3.9
		c0.1-0.4,0.1-0.9,0.1-1.3c0-6.5-5.3-11.9-11.9-11.9C272.2,249.2,266.9,254.6,266.9,261.1z"/>
	<path class="st0" d="M226.5,184.3c-0.2,0.3-0.3,0.6-0.5,1c-0.5,1.2-0.9,2.4-1,3.7c0,0.4-0.1,0.9-0.1,1.3c0,3.8,1.8,7.3,4.9,9.6
		c1.8,1.3,3.9,2.1,6,2.2c0.3,0,0.6,0,0.9,0c0.9,0,1.9-0.1,2.8-0.3c1.5-0.4,2.9-1,4.2-2c1.3-1,2.4-2.2,3.2-3.6
		c0.1-0.2,0.2-0.4,0.3-0.6l0.1-0.3c0.8-1.7,1.2-3.4,1.2-5.1c0-0.3,0-0.7,0-1.1c-0.4-6.7-4.8-10.8-11.8-10.8c-0.7,0-1.5,0.1-2.2,0.2
		C231.2,179.3,228.3,181.3,226.5,184.3z"/>
	<path class="st0" d="M290.5,212.1c0-0.4,0.1-0.9,0.1-1.3c0-0.2,0-0.4,0-0.6c-0.1-1.5-0.5-3-1.2-4.4l-0.1-0.3l0,0
		c-0.8-1.6-2.1-3.1-3.6-4.2c-2-1.5-4.5-2.3-7-2.3c-0.6,0-1.3,0-1.9,0.1c-1.9,0.3-3.6,1-5.1,2.2c-1.5,1.1-2.7,2.5-3.5,4.2
		c-0.1,0.1-0.1,0.2-0.2,0.3c-0.6,1.2-1,2.5-1.1,3.8c-0.1,0.4-0.1,0.9-0.1,1.3c0,0.4,0,0.8,0.1,1.3c0.4,3.7,2.4,6.9,5.6,8.8
		c1.9,1.1,4,1.8,6.2,1.8c1.9,0,3.6-0.4,5.3-1.2C287.6,219.6,290.1,216.2,290.5,212.1z"/>
	<path class="st0" d="M331.2,134.7c0-0.1-0.1-0.1-0.1-0.2c-1-1.9-2.4-3.4-4.2-4.6l-0.1-0.1c-0.1,0-0.1-0.1-0.2-0.1
		c-0.7-0.4-1.4-0.7-2.3-1l-0.1,0c-0.2-0.1-0.4-0.1-0.6-0.2c-1.3-0.3-2.5-0.5-3.7-0.4c-0.7,0.1-1.5,0.2-2.3,0.4
		c-0.2,0-0.4,0.1-0.5,0.2l-0.1,0c-0.9,0.3-1.6,0.6-2.3,1c-0.1,0.1-0.2,0.1-0.3,0.2c-0.7,0.4-1.3,0.9-1.9,1.5c-1,0.9-1.8,2-2.4,3.2
		c-0.5,1.1-0.9,2.2-1.1,3.3c-0.1,0.7-0.2,1.3-0.2,2c0,0.5,0,1,0.1,1.6c0,0.3,0.1,0.5,0.1,0.8c0.7,3.3,2.7,6.2,5.7,7.9
		c1.8,1.1,3.9,1.6,5.9,1.6c0.3,0,0.5,0,0.8,0c1.8-0.1,3.6-0.7,5.2-1.6c2.7-1.6,4.7-4.2,5.5-7.2c0.3-1,0.4-2,0.4-3.1
		c0-1.8-0.4-3.5-1.2-5.2L331.2,134.7z"/>
	<path class="st0" d="M272.4,129.1c0.1,0.1,0.2,0.1,0.3,0.2c0.7,0.4,1.5,0.8,2.3,1l0.1,0c0.2,0.1,0.4,0.1,0.6,0.2c1,0.3,2,0.4,3,0.4
		c0.9,0,1.9-0.1,3-0.4c0.2-0.1,0.4-0.1,0.6-0.2l0.1,0c0.8-0.3,1.6-0.6,2.3-1c0.1,0,0.1-0.1,0.2-0.1l0.1-0.1c1.8-1.2,3.3-2.8,4.3-4.8
		c0.9-1.7,1.3-3.5,1.3-5.3c0-0.2,0-0.4,0-0.6c-0.3-4.9-3.6-9.2-8.3-10.7c-2.3-0.7-4.8-0.7-7,0c-4.7,1.5-8.1,5.8-8.3,10.7
		c0,0.2,0,0.4,0,0.6c0,1.8,0.4,3.6,1.3,5.3C269.1,126.3,270.6,127.9,272.4,129.1z"/>
	<path class="st0" d="M310,195.1c0.1,0.1,0.1,0.2,0.2,0.4c1,1.8,2.4,3.4,4.2,4.5c0.1,0.1,0.2,0.1,0.3,0.2c0.7,0.4,1.5,0.8,2.3,1
		l0.1,0c0.2,0.1,0.4,0.1,0.6,0.2c1,0.3,2,0.4,3,0.4c0.9,0,1.9-0.1,3-0.4c0.2,0,0.4-0.1,0.6-0.2l0.1,0c0.9-0.3,1.6-0.6,2.3-1
		c0.1,0,0.1-0.1,0.2-0.1l0.1-0.1c1.8-1.1,3.2-2.7,4.2-4.5c0.1-0.1,0.1-0.2,0.2-0.3c0.7-1.4,1.1-2.8,1.2-4.2c0-0.2,0-0.4,0-0.6l0-0.1
		l0-0.1c-0.1-6.4-5.4-11.7-11.9-11.7c-2.1,0-4.2,0.6-6.1,1.7c-3.6,2.1-5.7,5.9-5.8,10l0,0.1l0,0.1
		C308.8,191.9,309.2,193.5,310,195.1z"/>
	<path class="st0" d="M247.4,134.7c-1-2-2.4-3.6-4.3-4.8c-0.1-0.1-0.2-0.2-0.4-0.2c-0.7-0.4-1.4-0.7-2.3-1l-0.2-0.1
		c-0.2-0.1-0.4-0.1-0.5-0.2c-1.1-0.3-2-0.4-3-0.4c-0.9,0-1.9,0.1-2.9,0.4c-0.2,0.1-0.4,0.1-0.6,0.2l-0.2,0.1
		c-0.2,0.1-0.4,0.1-0.6,0.2c-0.6,0.2-1.1,0.5-1.7,0.8c-0.1,0.1-0.2,0.1-0.4,0.2c-1.7,1.1-3.2,2.7-4.1,4.5c0,0,0,0,0,0.1l-0.2,0.3
		c-0.1,0.2-0.2,0.4-0.3,0.6c-0.6,1.5-0.9,3-0.9,4.5c0,6.5,5.3,11.9,11.9,11.9c6.5,0,11.9-5.3,11.9-11.9c0-1.5-0.3-3-0.9-4.4v-0.1
		L247.4,134.7z"/>
	<path class="st0" d="M127.1,69.1c0,0.1,0,0.2-0.1,0.3c0,0.1-0.1,0.3-0.1,0.4c0,0.2-0.1,0.3-0.1,0.5c-0.1,0.4-0.2,0.8-0.3,1.1
		c-0.1,0.2-0.2,0.5-0.3,0.7l0,0.1c-0.2,0.5-0.5,0.9-0.7,1.3c-0.1,0.2-0.3,0.5-0.5,0.7c-0.2,0.3-0.6,0.7-0.9,1.1
		c-0.1,0.1-0.2,0.2-0.2,0.3c-0.1,0.1-0.2,0.2-0.3,0.3c-0.4,0.4-0.8,0.7-1.4,1.1c-0.1,0.1-0.3,0.2-0.4,0.3l0,0
		c-0.6,0.4-1.3,0.8-2,1.1c0,0-0.1,0-0.1,0l-0.1,0c-0.2,0.1-0.3,0.1-0.5,0.2l-0.3,0.1c-0.3,0.1-0.7,0.3-0.9,0.3l-2.6,0.7v22.7
		l2.6,0.7c0.3,0.1,0.6,0.2,1,0.4l0.3,0.1c0.1,0.1,0.3,0.1,0.5,0.2l0.1,0c0.7,0.3,1.3,0.7,1.9,1.1l0,0c0.1,0.1,0.3,0.2,0.4,0.3
		c0.5,0.4,1,0.8,1.4,1.1c0.1,0.1,0.2,0.2,0.3,0.3c0.1,0.1,0.2,0.2,0.3,0.3c0.4,0.5,0.7,0.8,1,1.1c0.2,0.2,0.4,0.5,0.5,0.7
		c0.3,0.4,0.5,0.8,0.7,1.3l0,0.1c0.1,0.3,0.2,0.5,0.3,0.7c0.2,0.4,0.3,0.9,0.5,1.5c0,0.1,0.1,0.3,0.1,0.4c0,0.1,0.1,0.2,0.1,0.3
		c0.2,0.9,0.2,1.6,0.2,2.4c0,0.9-0.1,1.8-0.3,2.7l-0.6,2.6l17.4,8.7l1.6-1.9c0.1-0.1,0.2-0.2,0.3-0.3c0.4-0.4,0.9-0.9,1.4-1.3
		c0.1-0.1,0.2-0.2,0.3-0.3c0.1-0.1,0.2-0.2,0.3-0.2c0.4-0.3,0.9-0.6,1.5-0.9c0.2-0.1,0.3-0.2,0.5-0.3c0.1-0.1,0.2-0.1,0.3-0.2
		c0.5-0.2,1.1-0.4,1.8-0.6c0.2-0.1,0.4-0.1,0.5-0.2c0.1,0,0.1-0.1,0.2-0.1c1.1-0.2,2.2-0.3,3.3-0.3c0.7,0,1.3,0.1,2,0.3
		c0,0,0.1,0,0.2,0.1c0.2,0.1,0.4,0.1,0.6,0.2c0.6,0.2,1.2,0.3,1.7,0.6c0.1,0,0.2,0.1,0.3,0.2c0.2,0.1,0.3,0.2,0.5,0.3
		c0.5,0.3,1.1,0.6,1.5,0.9c0.1,0.1,0.2,0.1,0.3,0.2c0.1,0.1,0.2,0.2,0.3,0.3c0.6,0.5,1,0.9,1.4,1.3c0.1,0.1,0.2,0.2,0.3,0.3l1.6,1.9
		l17.4-8.7l-0.6-2.6c-0.2-0.9-0.3-1.8-0.3-2.7c0-1,0.1-2,0.4-3c0.1-0.3,0.2-0.6,0.3-0.9c0.3-0.9,0.7-1.8,1.2-2.7
		c1.6-2.6,4-4.5,6.8-5.5l2.6-0.8l0-20.5l-2.8-0.7c-5.9-1.5-10-6.8-10-12.8c0-1.4,0.2-2.7,0.7-4.1c0.1-0.2,0.1-0.4,0.2-0.6l1.1-2.9
		l-17-8.5l-1.6,1.9c-0.1,0.1-0.2,0.2-0.3,0.3c-0.4,0.4-0.9,0.9-1.4,1.3c-0.1,0.1-0.2,0.2-0.3,0.3c-0.1,0.1-0.2,0.2-0.2,0.2
		c-0.5,0.3-1,0.6-1.5,0.9c-0.2,0.1-0.3,0.2-0.5,0.3c-0.1,0.1-0.2,0.1-0.3,0.1c-0.5,0.2-1.1,0.4-1.8,0.6c-0.2,0.1-0.4,0.1-0.6,0.2
		c-0.1,0-0.1,0-0.2,0.1c-1.1,0.2-2.2,0.3-3.3,0.3c-0.7,0-1.3-0.1-2-0.3c0,0-0.1,0-0.2-0.1c-0.2-0.1-0.4-0.1-0.6-0.2
		c-0.6-0.2-1.3-0.4-1.7-0.6c-0.1,0-0.2-0.1-0.3-0.2c-0.2-0.1-0.3-0.2-0.5-0.3c-0.6-0.3-1.1-0.6-1.5-0.9c-0.1,0-0.2-0.1-0.2-0.2
		c-0.1-0.1-0.2-0.2-0.3-0.3c-0.6-0.5-1-0.9-1.4-1.3c-0.1-0.1-0.2-0.2-0.3-0.3l-1.7-1.8l-17.3,8.7l0.6,2.6c0.2,0.9,0.3,1.8,0.3,2.7
		c0,0.2,0,0.4,0,0.6C127.3,67.9,127.2,68.5,127.1,69.1z"/>
	<path class="st0" d="M609.1,225.3c1.8-0.1,3.6-0.7,5.2-1.6c2.7-1.6,4.7-4.2,5.5-7.2c0.3-1,0.4-2,0.4-3.1c0-1.8-0.4-3.5-1.2-5.2
		l-0.1-0.1c0-0.1-0.1-0.1-0.1-0.2c-1-1.9-2.4-3.4-4.2-4.6l-0.1-0.1c-0.1,0-0.1-0.1-0.2-0.1c-0.7-0.4-1.4-0.7-2.3-1l-0.1,0
		c-0.2-0.1-0.4-0.1-0.6-0.2c-1.3-0.3-2.5-0.5-3.7-0.4c-0.7,0-1.5,0.2-2.3,0.4c-0.2,0-0.4,0.1-0.5,0.2l-0.1,0c-0.9,0.3-1.6,0.6-2.3,1
		c-0.1,0.1-0.2,0.1-0.3,0.2c-0.7,0.4-1.3,0.9-1.9,1.5c-1,0.9-1.8,2-2.4,3.2c-0.5,1.1-0.9,2.2-1.1,3.3c-0.1,0.7-0.2,1.3-0.2,2
		c0,0.5,0,1,0.1,1.6c0,0.3,0.1,0.5,0.1,0.8c0.7,3.3,2.8,6.2,5.7,7.9c1.8,1.1,3.9,1.6,5.9,1.6C608.5,225.3,608.8,225.3,609.1,225.3z"
		/>
	<path class="st0" d="M597.7,268.5c0.1,0.1,0.1,0.2,0.2,0.4c1,1.8,2.4,3.4,4.2,4.5c0.1,0.1,0.2,0.1,0.3,0.2c0.7,0.4,1.5,0.8,2.3,1
		l0.1,0c0.2,0.1,0.4,0.1,0.6,0.2c1,0.3,2,0.4,3,0.4c1,0,1.9-0.1,3-0.4c0.2,0,0.4-0.1,0.6-0.2l0.1,0c0.8-0.3,1.6-0.6,2.3-1
		c0.1,0,0.1-0.1,0.2-0.1l0.1-0.1c1.8-1.1,3.2-2.7,4.2-4.5c0.1-0.1,0.1-0.2,0.2-0.3c0.7-1.4,1.1-2.8,1.2-4.2c0-0.2,0-0.4,0-0.6l0-0.1
		l0-0.1c-0.1-6.4-5.4-11.7-11.9-11.7c-2.1,0-4.2,0.6-6.1,1.7c-3.5,2.1-5.7,5.9-5.8,10l0,0.1l0,0.1
		C596.5,265.3,596.9,266.9,597.7,268.5z"/>
	<path class="st0" d="M571.7,294.9c3.6-1.8,6.1-5.3,6.5-9.3c0-0.4,0.1-0.9,0.1-1.3c0-0.2,0-0.4,0-0.6c-0.1-1.5-0.5-3-1.2-4.4
		l-0.1-0.3l0,0c-0.8-1.6-2.1-3.1-3.6-4.2c-2-1.5-4.5-2.3-7-2.3c-0.6,0-1.3,0.1-1.9,0.1c-1.9,0.3-3.6,1-5.1,2.2
		c-1.5,1.1-2.7,2.5-3.5,4.2c-0.1,0.1-0.1,0.2-0.2,0.3c-0.6,1.2-1,2.5-1.1,3.8c-0.1,0.4-0.1,0.9-0.1,1.3c0,0.4,0,0.8,0.1,1.3
		c0.4,3.7,2.4,6.9,5.6,8.8c1.9,1.1,4,1.8,6.2,1.8C568.2,296.1,570,295.7,571.7,294.9z"/>
	<path class="st0" d="M524.5,393.9c-6.5,0-11.9,5.3-11.9,11.9c0,6.5,5.3,11.9,11.9,11.9c4.5,0,8.5-2.5,10.5-6.5l0.1-0.3
		c0.8-1.7,1.2-3.4,1.2-5.1c0-1.1-0.1-2.2-0.3-3.2C534.9,397.1,530.7,393.9,524.5,393.9z"/>
	<path class="st0" d="M569.9,181.1c-2.3-0.7-4.8-0.7-7,0c-4.7,1.5-8.1,5.8-8.3,10.7c0,0.2,0,0.4,0,0.6c0,1.8,0.4,3.6,1.3,5.3
		c1,2,2.5,3.6,4.3,4.7c0.1,0.1,0.2,0.1,0.3,0.2c0.7,0.4,1.5,0.8,2.3,1l0.1,0c0.2,0.1,0.4,0.1,0.6,0.2c1,0.3,2,0.4,3,0.4
		c0.9,0,1.9-0.1,3-0.4c0.2,0,0.4-0.1,0.6-0.2l0.1,0c0.8-0.3,1.6-0.6,2.3-1c0.1,0,0.1-0.1,0.2-0.1l0.1-0.1c1.8-1.2,3.3-2.8,4.3-4.8
		c0.9-1.7,1.3-3.5,1.3-5.3c0-0.2,0-0.4,0-0.6C578,186.9,574.6,182.6,569.9,181.1z"/>
	<path class="st0" d="M495.2,189c0-4.7-2.8-8.9-7.1-10.7c-0.5-0.2-1-0.4-1.6-0.5c-0.9-0.2-1.8-0.4-2.7-0.4h-0.1c-0.1,0-0.2,0-0.3,0
		c-2.7,0.1-5.4,1.2-7.4,3c-2.4,2.2-3.8,5.3-3.8,8.6c0,1.7,0.4,3.3,1.1,4.9c0,0,0,0.1,0,0.1c0,0.1,0,0.2,0,0.3l0.1,0.7l0.4,0.6
		c1.8,2.6,4.6,4.4,7.8,4.9c0.6,0.1,1.3,0.2,1.9,0.2c4.7,0,9-2.8,10.8-7.2C494.9,192,495.2,190.5,495.2,189z"/>
	<path class="st0" d="M535.4,208.8l-0.4-0.7c-1-2-2.4-3.6-4.3-4.8c-0.1-0.1-0.2-0.2-0.4-0.2c-0.7-0.4-1.4-0.7-2.3-1L528,202
		c-0.2-0.1-0.4-0.1-0.5-0.2c-1.1-0.3-2-0.4-3-0.4c-0.9,0-1.9,0.1-2.9,0.4c-0.2,0.1-0.4,0.1-0.6,0.2l-0.2,0.1
		c-0.2,0.1-0.4,0.1-0.6,0.2c-0.6,0.2-1.1,0.5-1.7,0.8c-0.1,0-0.2,0.1-0.4,0.2c-1.7,1.1-3.2,2.7-4.1,4.5c0,0,0,0,0,0.1l-0.2,0.3
		c-0.1,0.2-0.2,0.4-0.3,0.6c-0.6,1.5-0.9,3-0.9,4.5c0,6.5,5.3,11.9,11.9,11.9c6.5,0,11.9-5.3,11.9-11.9
		C536.3,211.8,536,210.3,535.4,208.8L535.4,208.8L535.4,208.8z"/>
	<path class="st0" d="M471.4,185.1c0.3-0.9,0.7-1.8,1.2-2.7c1.6-2.6,4-4.5,6.8-5.5l2.6-0.8l0-20.5l-2.8-0.7c-5.9-1.5-10-6.8-10-12.8
		c0-1.4,0.2-2.7,0.7-4.1c0.1-0.2,0.1-0.4,0.2-0.6l1.1-2.9l-17-8.5l-1.6,1.9c-0.1,0.1-0.2,0.2-0.3,0.3c-0.4,0.4-0.9,0.9-1.4,1.3
		c-0.1,0.1-0.2,0.2-0.3,0.3c-0.1,0.1-0.2,0.2-0.2,0.2c-0.5,0.3-1,0.6-1.5,0.9c-0.2,0.1-0.3,0.2-0.5,0.3c-0.1,0.1-0.2,0.1-0.3,0.1
		c-0.5,0.2-1.1,0.4-1.8,0.6c-0.2,0.1-0.4,0.1-0.6,0.2c-0.1,0-0.1,0-0.2,0.1c-1.1,0.2-2.2,0.3-3.3,0.3c-0.7,0-1.3-0.1-2-0.3
		c0,0-0.1,0-0.2-0.1c-0.2-0.1-0.4-0.1-0.6-0.2c-0.6-0.2-1.2-0.4-1.7-0.6c0,0-0.2-0.1-0.3-0.2c-0.2-0.1-0.3-0.2-0.5-0.3
		c-0.6-0.3-1.1-0.6-1.5-0.9c-0.1,0-0.1-0.1-0.2-0.2c-0.1-0.1-0.2-0.2-0.3-0.3c-0.6-0.5-1-0.9-1.4-1.3c-0.1-0.1-0.2-0.2-0.3-0.3
		l-1.7-1.8l-17.3,8.7l0.6,2.6c0.2,0.9,0.3,1.8,0.3,2.7c0,0.2,0,0.4,0,0.6c0,0.6-0.1,1.2-0.2,1.8c0,0.1,0,0.2-0.1,0.3
		c0,0.1-0.1,0.3-0.1,0.4c0,0.2-0.1,0.3-0.1,0.5c-0.1,0.4-0.2,0.8-0.3,1.1c-0.1,0.2-0.2,0.5-0.3,0.7l0,0.1c-0.2,0.5-0.5,0.9-0.7,1.3
		c-0.1,0.2-0.3,0.5-0.5,0.7c-0.3,0.3-0.6,0.7-0.9,1.1c-0.1,0.1-0.2,0.2-0.2,0.3c-0.1,0.1-0.2,0.2-0.3,0.3c-0.4,0.4-0.8,0.7-1.4,1.1
		c-0.1,0.1-0.3,0.2-0.4,0.3l0,0c-0.6,0.4-1.3,0.8-2,1.1c0,0-0.1,0-0.1,0l-0.1,0c-0.2,0.1-0.3,0.1-0.5,0.2l-0.4,0.1
		c-0.3,0.1-0.7,0.3-0.9,0.3l-2.6,0.7v22.7l2.6,0.7c0.3,0.1,0.6,0.2,1,0.4l0.3,0.1c0.1,0.1,0.3,0.1,0.5,0.2l0.1,0
		c0.7,0.3,1.4,0.7,1.9,1.1l0,0c0.1,0.1,0.3,0.2,0.4,0.3c0.5,0.4,1,0.8,1.4,1.1c0.1,0.1,0.2,0.2,0.3,0.3c0.1,0.1,0.2,0.2,0.3,0.3
		c0.4,0.5,0.7,0.8,1,1.1c0.2,0.2,0.4,0.5,0.5,0.7c0.3,0.4,0.5,0.8,0.7,1.3l0,0.1c0.1,0.3,0.2,0.5,0.3,0.7c0.2,0.4,0.3,0.9,0.5,1.5
		c0,0.1,0.1,0.3,0.1,0.4c0,0.1,0.1,0.2,0.1,0.3c0.2,0.9,0.2,1.6,0.2,2.4c0,0.9-0.1,1.8-0.3,2.7l-0.6,2.6l17.4,8.7l1.6-1.9
		c0.1-0.1,0.2-0.2,0.3-0.3c0.4-0.4,0.9-0.9,1.4-1.3c0.1-0.1,0.2-0.2,0.3-0.3c0.1-0.1,0.2-0.2,0.3-0.2c0.4-0.3,0.9-0.6,1.5-0.9
		c0.2-0.1,0.3-0.2,0.5-0.3c0.1-0.1,0.2-0.1,0.3-0.1c0.5-0.2,1.1-0.4,1.8-0.6c0.2-0.1,0.4-0.1,0.5-0.2c0.1,0,0.1-0.1,0.2-0.1
		c1.1-0.2,2.2-0.3,3.3-0.3c0.7,0,1.3,0.1,2,0.3c0,0,0.1,0,0.2,0.1c0.2,0.1,0.4,0.1,0.6,0.2c0.6,0.2,1.2,0.4,1.7,0.6
		c0.1,0,0.2,0.1,0.3,0.2c0.2,0.1,0.3,0.2,0.5,0.3c0.5,0.3,1.1,0.6,1.5,0.9c0.1,0.1,0.2,0.1,0.3,0.2c0.1,0.1,0.2,0.2,0.3,0.3
		c0.6,0.5,1,0.9,1.4,1.3c0.1,0.1,0.2,0.2,0.3,0.3l1.6,1.9l17.4-8.7l-0.6-2.6c-0.2-0.9-0.3-1.8-0.3-2.7c0-1,0.1-2,0.4-3
		C471.3,185.7,471.3,185.4,471.4,185.1z"/>
	<path class="st0" d="M166,180.5c-1.8-4.5-6-7.3-10.8-7.3c-6.4,0-11.6,5.2-11.6,11.6c0,1.7,0.4,3.3,1.2,4.9c0,0.1,0.1,0.2,0.2,0.3
		c1.9,3.7,5.4,6,9.5,6.3c0.3,0,0.5,0,0.8,0c3,0,5.9-1.2,8.1-3.3c2-1.9,3.2-4.4,3.5-7.2c0-0.4,0.1-0.8,0.1-1.2c0-0.2,0-0.4,0-0.6
		C166.8,182.9,166.5,181.7,166,180.5z"/>
	<path class="st0" d="M650.4,322.7L650.4,322.7c-0.2,0-0.3,0-0.4,0c-6,0.2-10.7,4.7-11.3,10.6c0,0.4-0.1,0.8-0.1,1.2
		c0,1.7,0.4,3.4,1.2,5c0,0,0,0.1,0,0.1c0,0.1,0,0.2,0.1,0.3l0.1,0.7l0.4,0.6c2.2,3.3,5.9,5.2,9.8,5.2c6.5,0,11.9-5.3,11.9-11.9
		C662,328.1,656.8,322.8,650.4,322.7z"/>
	<path class="st0" d="M566.4,322.7c-6.5,0-11.9,5.3-11.9,11.9c0,1.8,0.4,3.6,1.3,5.3c0.1,0.2,0.3,0.5,0.4,0.7c1,1.6,2.3,3,3.9,4
		c0.1,0.1,0.2,0.1,0.3,0.2c0.7,0.4,1.5,0.8,2.3,1l0.1,0c0.2,0.1,0.4,0.1,0.6,0.2c1,0.3,2,0.4,3,0.4c0.9,0,1.9-0.1,3-0.4
		c0.2-0.1,0.4-0.1,0.6-0.2l0.1,0c0.8-0.3,1.6-0.6,2.3-1c0.1,0,0.1-0.1,0.2-0.1l0.1-0.1c0.7-0.4,1.3-0.9,1.9-1.5c1-0.9,1.8-2,2.4-3.3
		c0.6-1.3,1-2.6,1.2-3.9c0.1-0.4,0.1-0.9,0.1-1.3C578.2,328,572.9,322.7,566.4,322.7z"/>
	<path class="st0" d="M596.4,405.8c0,1.7,0.4,3.4,1.2,5.1c0,0.1,0.1,0.2,0.2,0.3c2,4,6.1,6.5,10.5,6.5c6.5,0,11.9-5.3,11.9-11.9
		c0-6.5-5.3-11.9-11.9-11.9C601.7,393.9,596.4,399.2,596.4,405.8z"/>
	<path class="st0" d="M618.9,350.3l-0.1-0.1c0-0.1-0.1-0.1-0.1-0.2c-1-1.9-2.4-3.4-4.2-4.6l-0.1-0.1c-0.1,0-0.1-0.1-0.2-0.1
		c-0.7-0.4-1.4-0.7-2.3-1l-0.1,0c-0.2-0.1-0.4-0.1-0.6-0.2c-2.1-0.5-3.8-0.5-6,0c-0.2,0-0.4,0.1-0.5,0.2l-0.1,0
		c-0.9,0.3-1.6,0.6-2.3,1c-0.1,0.1-0.2,0.1-0.3,0.2c-1.8,1.2-3.3,2.8-4.3,4.7c-0.9,1.7-1.3,3.5-1.3,5.3c0,6.5,5.3,11.9,11.9,11.9
		c6.5,0,11.9-5.3,11.9-11.9c0-1.5-0.3-3.1-0.9-4.5C619.1,350.8,619,350.6,618.9,350.3z"/>
	<path class="st0" d="M646.9,321.8l2.6-0.7v-36L620,270.3l-1.8,2c-0.5,0.5-1,1.1-1.5,1.5c-2.4,2-5.4,3.1-8.4,3.1
		c-1.2,0-2.3-0.2-3.5-0.5c-2.5-0.7-4.7-2.1-6.5-4.1l-1.8-2l-17.7,8.8l0.5,2.6c0.2,0.9,0.2,1.7,0.2,2.5c0,0.8-0.1,1.6-0.3,2.5
		c0,0.1,0,0.2-0.1,0.3c0,0.1-0.1,0.3-0.1,0.4c-0.2,0.7-0.3,1.1-0.5,1.6c-0.1,0.2-0.2,0.5-0.3,0.7l0,0.1c-0.2,0.5-0.5,0.9-0.7,1.3
		c-0.1,0.2-0.3,0.5-0.5,0.8c-0.3,0.4-0.6,0.7-1,1.2c-0.1,0.1-0.2,0.2-0.3,0.3c-0.1,0.1-0.2,0.3-0.3,0.3c-0.4,0.4-0.9,0.8-1.4,1.2
		c-0.1,0.1-0.3,0.2-0.4,0.3l0,0c-0.6,0.4-1.3,0.8-2,1.1c0,0-0.1,0-0.1,0l-0.1,0c-0.2,0.1-0.3,0.1-0.5,0.2l-0.4,0.1
		c-0.4,0.1-0.7,0.3-1,0.3l-2.6,0.7V321l2.6,0.7c0.3,0.1,0.7,0.2,1.1,0.4l0.3,0.1c0.1,0.1,0.3,0.1,0.5,0.2c0.1,0,0.1,0,0.1,0
		c0.7,0.3,1.4,0.7,2,1.1l0.1,0c0.1,0.1,0.3,0.2,0.4,0.3c0.6,0.4,1,0.8,1.4,1.2c0.1,0.1,0.2,0.2,0.3,0.3c0.1,0.1,0.2,0.2,0.3,0.3
		c0.4,0.5,0.7,0.8,1,1.2c0.2,0.2,0.4,0.5,0.5,0.8c0.3,0.4,0.5,0.9,0.7,1.3l0,0.1c0.1,0.3,0.3,0.5,0.3,0.8c0.2,0.4,0.3,0.9,0.5,1.6
		c0,0.1,0.1,0.3,0.1,0.4c0,0.1,0.1,0.2,0.1,0.3c0.2,0.9,0.3,1.7,0.3,2.5c0,0.9-0.1,1.8-0.3,2.8l-0.6,2.6l17.8,8.9l1.6-1.9
		c0.1-0.1,0.2-0.2,0.3-0.3c0.4-0.4,0.9-0.9,1.5-1.4c0.1-0.1,0.2-0.2,0.3-0.3c0.1-0.1,0.2-0.2,0.3-0.2c0.4-0.3,0.9-0.6,1.6-0.9
		c0.2-0.1,0.3-0.2,0.5-0.3c0.1-0.1,0.2-0.1,0.3-0.2c0.5-0.2,1.1-0.4,1.8-0.6c0.2-0.1,0.4-0.1,0.6-0.2c0.1,0,0.2-0.1,0.2-0.1
		c0.9-0.2,1.9-0.3,2.8-0.3c0.9,0,1.8,0.1,2.8,0.3c0,0,0.1,0,0.2,0.1c0.2,0.1,0.4,0.1,0.6,0.2c0.7,0.2,1.3,0.4,1.8,0.6
		c0.1,0,0.2,0.1,0.3,0.2c0.2,0.1,0.3,0.2,0.5,0.3c0.5,0.3,1.1,0.6,1.6,0.9c0.1,0.1,0.2,0.1,0.3,0.2c0.1,0.1,0.2,0.2,0.3,0.3
		c0.6,0.5,1.1,0.9,1.5,1.4c0.1,0.1,0.2,0.2,0.3,0.3l1.6,1.9l17.8-8.9l-0.6-2.6c-0.2-1-0.3-1.9-0.3-2.8
		C636.9,328.5,641,323.3,646.9,321.8z"/>
	<path class="st0" d="M359.2,248.3l2.6-0.7v-25.1c0,0-0.1,0-0.1,0c-0.3,0-0.5,0-0.8,0v-0.3l-2.6-0.7c-5.7-1.5-9.6-6.5-9.6-12.3
		c0-0.9,0.1-1.7,0.3-2.6l0.3-1.3l-16.9-8.5l-1.8,2c-0.5,0.5-1,1.1-1.5,1.5c-2.4,2-5.4,3.1-8.4,3.1c-1.2,0-2.3-0.2-3.5-0.5
		c-2.5-0.7-4.7-2.1-6.5-4.1l-1.8-2l-17.7,8.8l0.5,2.6c0.2,0.9,0.3,1.7,0.3,2.5c0,0.8-0.1,1.6-0.3,2.5c0,0.1,0,0.2-0.1,0.3
		c0,0.1-0.1,0.3-0.1,0.4c-0.2,0.7-0.3,1.1-0.5,1.6c-0.1,0.2-0.2,0.5-0.3,0.7l0,0.1c-0.2,0.5-0.5,0.9-0.7,1.3
		c-0.1,0.2-0.3,0.5-0.5,0.8c-0.3,0.4-0.6,0.7-1,1.2c-0.1,0.1-0.2,0.2-0.3,0.3c-0.1,0.1-0.2,0.3-0.3,0.3c-0.4,0.4-0.9,0.8-1.4,1.2
		c-0.1,0.1-0.3,0.2-0.4,0.3l0,0c-0.6,0.4-1.3,0.8-2,1.1c0,0-0.1,0-0.1,0l-0.1,0c-0.2,0.1-0.3,0.1-0.5,0.2l-0.4,0.1
		c-0.4,0.1-0.7,0.3-1,0.3l-2.6,0.7v23.2l2.6,0.7c0.3,0.1,0.7,0.2,1.1,0.4l0.3,0.1c0.1,0.1,0.3,0.1,0.5,0.2c0.1,0,0.1,0,0.1,0
		c0.7,0.3,1.4,0.7,2,1.1l0.1,0c0.1,0.1,0.3,0.2,0.4,0.3c0.6,0.4,1,0.8,1.4,1.2c0.1,0.1,0.2,0.2,0.3,0.3c0.1,0.1,0.2,0.2,0.3,0.3
		c0.4,0.5,0.7,0.8,1,1.2c0.2,0.2,0.4,0.5,0.5,0.8c0.3,0.4,0.5,0.9,0.7,1.3l0,0.1c0.1,0.3,0.3,0.5,0.3,0.8c0.2,0.4,0.3,0.9,0.5,1.6
		c0,0.1,0.1,0.3,0.1,0.4c0,0.1,0.1,0.2,0.1,0.3c0.2,0.9,0.3,1.7,0.3,2.5c0,0.9-0.1,1.8-0.3,2.8l-0.6,2.6l17.8,8.9l1.6-1.9
		c0.1-0.1,0.2-0.2,0.3-0.3c0.4-0.4,0.9-0.9,1.5-1.4c0.1-0.1,0.2-0.2,0.3-0.3c0.1-0.1,0.2-0.2,0.3-0.2c0.4-0.3,0.9-0.6,1.6-0.9
		c0.2-0.1,0.3-0.2,0.5-0.3c0.1-0.1,0.2-0.1,0.3-0.2c0.5-0.2,1.1-0.4,1.9-0.6c0.2-0.1,0.4-0.1,0.6-0.2c0.1,0,0.2-0.1,0.2-0.1
		c0.9-0.2,1.9-0.3,2.8-0.3c0.9,0,1.8,0.1,2.8,0.3c0,0,0.1,0,0.2,0.1c0.2,0.1,0.4,0.1,0.6,0.2c0.7,0.2,1.3,0.4,1.8,0.6
		c0.1,0,0.2,0.1,0.3,0.2c0.2,0.1,0.3,0.2,0.5,0.3c0.5,0.3,1.1,0.6,1.6,0.9c0.1,0.1,0.2,0.1,0.3,0.2c0.1,0.1,0.2,0.2,0.3,0.3
		c0.6,0.5,1.1,0.9,1.5,1.4c0.1,0.1,0.2,0.2,0.3,0.3l1.6,1.9l17.8-8.9l-0.6-2.6c-0.2-1-0.3-1.9-0.3-2.8
		C349.2,255.1,353.3,249.8,359.2,248.3z"/>
	<path class="st0" d="M248.7,282c0-1.5-0.3-3-0.9-4.4v-0.1l-0.4-0.7c-1-2-2.4-3.6-4.3-4.8c-0.1-0.1-0.2-0.1-0.4-0.2
		c-0.7-0.4-1.4-0.7-2.3-1l-0.2-0.1c-0.2-0.1-0.4-0.1-0.5-0.2c-1.1-0.3-2-0.4-3-0.4c-0.9,0-1.9,0.1-2.9,0.4c-0.2,0-0.4,0.1-0.6,0.2
		l-0.2,0.1c-0.8,0.3-1.6,0.6-2.3,1c-0.1,0.1-0.2,0.1-0.4,0.2c-1.7,1.1-3.2,2.7-4.1,4.5c0,0,0,0.1-0.1,0.1l-0.1,0.3
		c-0.8,1.7-1.2,3.4-1.2,5.1c0,6.5,5.3,11.9,11.9,11.9C243.4,293.8,248.7,288.5,248.7,282z"/>
	<path class="st0" d="M236.8,320.5c-6.5,0-11.9,5.3-11.9,11.9c0,6.5,5.3,11.9,11.9,11.9c4.5,0,8.5-2.5,10.5-6.5l0.1-0.3
		c0.8-1.7,1.2-3.4,1.2-5.1c0-1.1-0.1-2.2-0.3-3.2C247.3,323.6,243,320.5,236.8,320.5z"/>
	<path class="st0" d="M308.8,332.3c0,1.7,0.4,3.4,1.2,5.1c0,0.1,0.1,0.2,0.2,0.3c2.1,4,6.1,6.5,10.5,6.5c6.5,0,11.9-5.3,11.9-11.9
		c0-6.5-5.3-11.9-11.9-11.9C314.1,320.5,308.8,325.8,308.8,332.3z"/>
	<path class="st0" d="M309.9,324.6c0.3-0.4,0.6-0.8,1-1.2c0.1-0.1,0.2-0.2,0.3-0.3c0.1-0.1,0.2-0.2,0.3-0.3c0.4-0.4,0.9-0.8,1.4-1.2
		c0.1-0.1,0.3-0.2,0.4-0.3l0,0c0.6-0.4,1.3-0.8,2-1.1c0,0,0.1,0,0.2-0.1c0.1,0,0.3-0.1,0.5-0.1l0.3-0.1c0.4-0.1,0.7-0.3,1-0.4
		l2.6-0.7v-23.2l-2.6-0.7c-0.3-0.1-0.6-0.2-1-0.3l-0.4-0.1c-0.2-0.1-0.3-0.1-0.5-0.2l-0.1,0c0,0,0,0,0,0c-0.7-0.3-1.4-0.7-2-1.1
		l-0.1,0c-0.1-0.1-0.3-0.2-0.4-0.3c-0.6-0.4-1-0.8-1.4-1.2c-0.1-0.1-0.2-0.2-0.3-0.4c-0.1-0.1-0.2-0.2-0.2-0.3
		c-0.4-0.4-0.7-0.8-1-1.2c-0.2-0.3-0.4-0.5-0.5-0.8c-0.3-0.4-0.5-0.8-0.7-1.3l0-0.1c-0.1-0.3-0.2-0.5-0.3-0.8
		c-0.2-0.4-0.3-0.9-0.5-1.6c0-0.1-0.1-0.3-0.1-0.4c0-0.1-0.1-0.2-0.1-0.3c-0.2-0.9-0.3-1.7-0.3-2.5c0-0.9,0.1-1.8,0.3-2.8l0.6-2.6
		l-17.7-8.9l-1.7,1.9c-0.1,0.1-0.2,0.2-0.3,0.3c-0.4,0.5-0.9,0.9-1.5,1.4c-0.1,0.1-0.2,0.2-0.3,0.3c-0.1,0.1-0.2,0.2-0.3,0.2
		c-0.5,0.3-1.1,0.7-1.6,0.9c-0.2,0.1-0.3,0.2-0.5,0.3c-0.1,0.1-0.2,0.1-0.3,0.2c-0.5,0.2-1.2,0.4-1.8,0.6c-0.2,0.1-0.4,0.1-0.6,0.2
		c-0.1,0-0.1,0.1-0.2,0.1c-1.2,0.3-2.3,0.3-3.4,0.3c-0.7,0-1.4-0.1-2.1-0.3c0,0-0.1,0-0.2-0.1c-0.2-0.1-0.4-0.1-0.6-0.2
		c-0.7-0.2-1.3-0.4-1.8-0.6c-0.1,0-0.2-0.1-0.3-0.2c-0.2-0.1-0.3-0.2-0.5-0.3c-0.6-0.3-1.1-0.6-1.6-0.9c-0.1-0.1-0.2-0.1-0.3-0.2
		c-0.1-0.1-0.2-0.2-0.3-0.3c-0.6-0.5-1.1-0.9-1.5-1.4c-0.1-0.1-0.2-0.2-0.3-0.3l-1.6-1.9l-17.8,8.9l0.5,2.6c0.2,0.9,0.3,1.8,0.3,2.7
		c0,0.2,0,0.4,0,0.6c0,0.6-0.1,1.2-0.2,1.9c0,0.1-0.1,0.2-0.1,0.3c0,0.1-0.1,0.3-0.1,0.4c-0.2,0.7-0.3,1.1-0.5,1.6
		c-0.1,0.2-0.2,0.5-0.3,0.8l0,0.1c-0.2,0.5-0.5,0.9-0.7,1.3c-0.1,0.2-0.3,0.5-0.5,0.8c-0.3,0.4-0.6,0.7-1,1.2
		c-0.1,0.1-0.2,0.2-0.3,0.3c-0.1,0.1-0.2,0.2-0.3,0.3c-0.4,0.4-0.9,0.8-1.4,1.2c-0.1,0.1-0.3,0.2-0.4,0.3l-0.1,0
		c-0.6,0.4-1.3,0.8-2,1.1c0,0-0.1,0-0.1,0l-0.1,0c-0.2,0.1-0.3,0.1-0.5,0.2l-0.4,0.1c-0.4,0.1-0.7,0.3-1,0.3l-2.6,0.7v23.3l2.8,0.6
		c0.6,0.1,1.2,0.3,2,0.6c0.1,0.1,0.2,0.1,0.3,0.1c0.6,0.3,1.3,0.6,1.9,1c0,0,0.1,0.1,0.2,0.1c0.1,0.1,0.3,0.2,0.4,0.3
		c0.4,0.3,0.8,0.6,1.2,0.9c0.1,0.1,0.3,0.3,0.5,0.5l0.1,0.1c0.4,0.4,0.6,0.7,0.9,1.1c0.2,0.2,0.3,0.5,0.5,0.7
		c0.2,0.4,0.4,0.8,0.7,1.3l0.1,0.2c0.1,0.2,0.2,0.4,0.3,0.6c0.2,0.5,0.3,1.2,0.4,1.7c0,0.2,0.1,0.3,0.1,0.5c0,0.1,0.1,0.3,0.1,0.3
		c0.2,1,0.2,2,0.2,2.9c0,0.9-0.1,1.8-0.3,2.8l-0.6,2.6l29.5,14.7l29.5-14.7l-0.6-2.6c-0.2-1-0.3-1.9-0.3-2.8c0-0.8,0.1-1.6,0.3-2.5
		c0-0.1,0.1-0.2,0.1-0.3c0-0.1,0.1-0.3,0.1-0.4c0.2-0.7,0.3-1.1,0.5-1.6c0.1-0.2,0.2-0.5,0.3-0.7l0-0.1c0.2-0.5,0.5-0.9,0.7-1.3
		C309.5,325.1,309.7,324.9,309.9,324.6z"/>
	<path class="st0" d="M186.7,200.5c0.5-0.4,1-0.7,1.5-1c0.2-0.1,0.4-0.2,0.5-0.3c1.9-1.1,4-1.6,6.2-1.6c3,0,6,1.1,8.4,3.1
		c0.6,0.5,1.1,1,1.5,1.5l1.8,2l17.7-8.8l-0.5-2.6c-0.2-0.9-0.3-1.7-0.3-2.5c0-6,4.1-11.3,10-12.8l2.6-0.7v-23.4l-2.6-0.7
		c-5.1-1.3-8.9-5.5-9.8-10.6c-0.1-0.7-0.2-1.5-0.2-2.2c0-0.9,0.1-1.8,0.3-2.7l0.5-2.6l-19.4-9.7l-1.7,1.2c-1.6,1.1-3.4,1.9-5.4,2.2
		c-0.6,0.1-1.3,0.1-2,0.1c-3.6,0-7.1-1.6-9.6-4.4l-1.8-2l-17.4,8.7l0.6,2.6c0.2,0.9,0.3,1.8,0.3,2.7c0,0.4,0,0.7,0,1.1
		c-0.5,5.4-4.3,9.9-9.6,11.3l-2.6,0.7v22.8l2.6,0.7c5.7,1.5,9.6,6.5,9.6,12.3c0,0.8-0.1,1.6-0.2,2.4l-0.4,2.1l17.2,12.9L186.7,200.5
		z"/>
	<path class="st0" d="M206.7,212.1c0-0.4,0.1-0.9,0.1-1.3c0-0.6-0.1-1.3-0.2-1.9c-0.2-1.1-0.5-2.1-1-3.1l-0.1-0.3
		c-0.8-1.6-2-3-3.4-4.1c0,0-0.1-0.1-0.1-0.1c-2-1.5-4.5-2.3-7-2.3c-3.7,0-7.2,1.7-9.5,4.7c-1.6,2.1-2.4,4.6-2.4,7.1
		c0,1.2,0.2,2.4,0.5,3.5c1.5,4.7,5.8,8.1,10.7,8.3c0.2,0,0.4,0,0.6,0c1.3,0,2.6-0.2,3.8-0.6C203.1,220.6,206.2,216.7,206.7,212.1z"
		/>
	<path class="st0" d="M453.3,204.3l-0.1-0.1c0-0.1-0.1-0.1-0.1-0.2c-1-1.8-2.4-3.4-4.1-4.5l-0.1-0.1c-0.1,0-0.1-0.1-0.2-0.1
		c-0.7-0.4-1.4-0.7-2.3-1l-0.1,0c-0.2-0.1-0.4-0.1-0.6-0.2c-2.1-0.5-3.8-0.5-5.8,0c-0.2,0-0.4,0.1-0.5,0.2l-0.1,0
		c-0.9,0.3-1.6,0.6-2.3,1c-0.1,0.1-0.2,0.1-0.3,0.2c-1.8,1.1-3.2,2.7-4.2,4.7c-0.8,1.7-1.3,3.4-1.3,5.2c0,6.4,5.2,11.6,11.6,11.6
		c6.4,0,11.6-5.2,11.6-11.6c0-0.6-0.1-1.3-0.2-1.9C454.2,206.4,453.8,205.3,453.3,204.3z"/>
	<path class="st0" d="M226.7,273.5c0.1-0.1,0.2-0.2,0.4-0.3c0.4-0.4,0.8-0.9,1.4-1.3c0.1-0.1,0.2-0.2,0.3-0.2
		c0.1-0.1,0.3-0.3,0.4-0.3c0.4-0.3,0.9-0.6,1.5-0.9c0.2-0.1,0.3-0.2,0.5-0.3c0.1-0.1,0.3-0.2,0.4-0.2c0.5-0.2,1.1-0.4,1.7-0.6
		c0.2-0.1,0.4-0.1,0.6-0.2c0.1,0,0.2-0.1,0.2-0.1c0.9-0.2,1.9-0.3,2.8-0.3c0.9,0,1.8,0.1,2.8,0.3c0.1,0,0.2,0.1,0.3,0.1
		c0.2,0.1,0.4,0.1,0.6,0.2c0.6,0.2,1.2,0.4,1.7,0.6c0.1,0,0.2,0.1,0.4,0.2c0.2,0.1,0.3,0.2,0.5,0.3c0.5,0.3,1.1,0.6,1.5,0.9
		c0.1,0.1,0.2,0.2,0.4,0.3c0.1,0.1,0.2,0.2,0.3,0.2c0.6,0.5,1,0.9,1.4,1.3c0.1,0.2,0.3,0.3,0.4,0.4l1.6,1.9l17.7-8.8l-0.6-2.6
		c-0.2-1-0.3-1.9-0.3-2.8c0-0.8,0.1-1.6,0.3-2.5c0-0.1,0.1-0.2,0.1-0.3c0-0.1,0.1-0.3,0.1-0.4c0.2-0.7,0.3-1.1,0.5-1.6
		c0.1-0.2,0.2-0.5,0.3-0.8l0-0.1c0.2-0.5,0.4-0.9,0.7-1.3c0.1-0.2,0.3-0.5,0.5-0.7c0.3-0.4,0.6-0.8,1-1.2c0.1-0.1,0.2-0.2,0.3-0.3
		c0.1-0.1,0.2-0.2,0.3-0.3c0.4-0.4,0.9-0.8,1.4-1.2c0.1-0.1,0.3-0.2,0.4-0.3l0,0c0.6-0.4,1.3-0.8,2-1.1c0,0,0.1,0,0.2-0.1
		c0.1,0,0.3-0.1,0.5-0.1l0.3-0.1c0.4-0.1,0.8-0.3,1.1-0.4l2.6-0.7v-23.2l-2.6-0.7c-0.3-0.1-0.6-0.2-1-0.3l-0.4-0.1
		c-0.2-0.1-0.3-0.1-0.5-0.2l-0.1,0c0,0,0,0,0,0c-0.7-0.3-1.4-0.7-2-1.1l-0.1,0c-0.1-0.1-0.3-0.2-0.4-0.3c-0.6-0.4-1-0.8-1.4-1.2
		c-0.1-0.1-0.2-0.2-0.3-0.4c-0.1-0.1-0.2-0.2-0.2-0.3c-0.4-0.4-0.7-0.8-1-1.2c-0.2-0.3-0.4-0.5-0.5-0.8c-0.3-0.4-0.5-0.8-0.7-1.3
		l0-0.1c-0.1-0.3-0.2-0.5-0.3-0.8c-0.2-0.4-0.3-0.9-0.5-1.6c0-0.1-0.1-0.3-0.1-0.4c0-0.1-0.1-0.2-0.1-0.3c-0.2-0.9-0.3-1.7-0.3-2.5
		c0-0.2,0-0.4,0-0.6c0-0.6,0.1-1.2,0.2-1.9l0.5-2.6l-17.7-8.8l-1.8,2c-0.5,0.5-1,1.1-1.5,1.5c-2.4,2-5.4,3.1-8.4,3.1
		c-3.8,0-7.4-1.7-9.9-4.6l-1.8-2l-17.7,8.8l0.5,2.6c0.1,0.7,0.2,1.3,0.2,1.9c0,0.2,0,0.4,0,0.6c0,0.2,0,0.4,0,0.6
		c0,0.6-0.1,1.2-0.2,1.9c0,0.1,0,0.2-0.1,0.3c0,0.1-0.1,0.3-0.1,0.4c-0.2,0.7-0.3,1.2-0.5,1.6c-0.1,0.2-0.2,0.5-0.3,0.7l0,0.1
		c-0.1,0.1-0.1,0.2-0.2,0.4c-0.2,0.3-0.4,0.7-0.6,1c-0.2,0.3-0.4,0.6-0.5,0.8c-0.3,0.4-0.6,0.7-1,1.2c-0.1,0.1-0.2,0.2-0.3,0.3
		c-0.1,0.1-0.2,0.3-0.3,0.3c-0.4,0.4-0.9,0.8-1.4,1.2c-0.1,0.1-0.3,0.2-0.4,0.3l0,0c-0.6,0.4-1.3,0.8-2,1.1c0,0-0.1,0-0.1,0l-0.1,0
		c-0.2,0.1-0.3,0.1-0.5,0.2l-0.4,0.1c-0.4,0.1-0.7,0.3-1,0.3l-2.6,0.7v36.3l29.4,14.7L226.7,273.5z"/>
	<path class="st0" d="M372.3,204.9l-0.4-0.7c-0.9-1.9-2.4-3.5-4.2-4.7c-0.1-0.1-0.2-0.1-0.4-0.2c-0.7-0.4-1.4-0.7-2.2-1l-0.2-0.1
		c-0.2-0.1-0.4-0.1-0.5-0.2c-2.1-0.5-3.8-0.5-5.8,0c-0.2,0-0.4,0.1-0.6,0.2l-0.2,0.1c-0.8,0.3-1.6,0.6-2.2,1c-0.1,0-0.2,0.1-0.4,0.2
		c-1.7,1.1-3.1,2.6-4.1,4.4c0,0,0,0.1-0.1,0.1l-0.1,0.3c-0.8,1.6-1.2,3.3-1.2,5c0,6.4,5.2,11.6,11.6,11.6c6.4,0,11.6-5.2,11.6-11.6
		C373.1,207.8,372.8,206.3,372.3,204.9L372.3,204.9L372.3,204.9z"/>
	<path class="st0" d="M402.2,177.4c-6.4,0-11.6,5.2-11.6,11.6c0,1.8,0.4,3.5,1.3,5.2c1,1.9,2.4,3.5,4.2,4.6c0.1,0.1,0.2,0.1,0.3,0.2
		c0.7,0.4,1.5,0.8,2.3,1l0.1,0c0.2,0.1,0.4,0.1,0.6,0.2c0.8,0.2,1.5,0.3,2.2,0.4c0.2,0,0.5,0,0.7,0c0.2,0,0.5,0,0.7,0
		c0.7-0.1,1.4-0.2,2.2-0.4c0.2-0.1,0.4-0.1,0.6-0.2l0.1,0c0.8-0.3,1.6-0.6,2.3-1c0.1,0,0.1-0.1,0.2-0.1l0.1-0.1
		c1.8-1.1,3.2-2.7,4.2-4.7c0.8-1.7,1.3-3.4,1.3-5.2c0-0.6,0-1.2-0.1-1.8C412.8,181.6,407.9,177.4,402.2,177.4z"/>
	<path class="st0" d="M331.3,276.9l-0.1-0.1c0-0.1-0.1-0.1-0.1-0.2c-1-1.9-2.4-3.4-4.2-4.6l-0.1-0.1c-0.1,0-0.1-0.1-0.2-0.1
		c-0.7-0.4-1.4-0.7-2.3-1l-0.1,0c-0.2-0.1-0.4-0.1-0.6-0.2c-2.1-0.5-3.8-0.5-6,0c-0.2,0-0.4,0.1-0.5,0.2l-0.1,0
		c-0.9,0.3-1.6,0.6-2.3,1c-0.1,0.1-0.2,0.1-0.3,0.2c-1.8,1.2-3.3,2.8-4.3,4.7c-0.9,1.7-1.3,3.5-1.3,5.3c0,6.5,5.3,11.9,11.9,11.9
		c6.5,0,11.9-5.3,11.9-11.9c0-1.5-0.3-3.1-0.9-4.5C331.5,277.3,331.4,277.1,331.3,276.9z"/>
	<path class="st0" d="M362.7,249.3c-0.1,0-0.2,0-0.3,0c-6,0.2-10.7,4.7-11.3,10.6c0,0.4-0.1,0.8-0.1,1.2c0,1.7,0.4,3.4,1.2,5
		c0,0,0,0.1,0,0.1c0,0.1,0,0.2,0,0.3l0.1,0.7l0.4,0.6c2.2,3.3,5.9,5.2,9.8,5.2c6.5,0,11.9-5.3,11.9-11.9
		C374.4,254.7,369.2,249.4,362.7,249.3L362.7,249.3L362.7,249.3L362.7,249.3z"/>
	<path class="st0" d="M389.7,186.3c0-0.1,0.1-0.3,0.1-0.4c0.2-0.6,0.3-1.1,0.5-1.5c0.1-0.2,0.2-0.4,0.3-0.7l0-0.1
		c0.2-0.4,0.4-0.9,0.7-1.3c0.2-0.3,0.3-0.5,0.5-0.7c0.3-0.4,0.6-0.7,1-1.2c0.1-0.1,0.2-0.2,0.3-0.3c0.1-0.1,0.2-0.2,0.3-0.3
		c0.4-0.4,0.8-0.7,1.4-1.1c0.1-0.1,0.3-0.2,0.4-0.3c0,0,0,0,0,0c0.1-0.1,0.3-0.2,0.4-0.3c0.5-0.3,1-0.6,1.5-0.8c0,0,0.1,0,0.2-0.1
		c0.1,0,0.3-0.1,0.4-0.1l0.3-0.1c0.4-0.1,0.7-0.3,1-0.4l2.6-0.7v-22.7l-2.6-0.7c-0.3-0.1-0.6-0.2-0.9-0.3l-0.4-0.1
		c-0.2-0.1-0.3-0.1-0.5-0.2l-0.1,0c-0.7-0.3-1.4-0.7-1.9-1l0,0c-0.1-0.1-0.3-0.2-0.4-0.3c-0.5-0.4-1-0.8-1.4-1.1
		c-0.1-0.1-0.2-0.2-0.3-0.4c-0.1-0.1-0.1-0.2-0.2-0.2c-0.4-0.4-0.7-0.8-0.9-1.1c-0.1-0.2-0.3-0.4-0.5-0.7c-0.2-0.4-0.5-0.8-0.7-1.3
		l0-0.1c-0.1-0.3-0.2-0.5-0.3-0.7c0,0,0-0.1-0.1-0.1c-0.1-0.4-0.3-0.8-0.4-1.4c0-0.1-0.1-0.3-0.1-0.4c0-0.1-0.1-0.2-0.1-0.3
		c-0.2-0.9-0.2-1.7-0.2-2.4c0-0.2,0-0.4,0-0.6c0-0.7,0.1-1.3,0.3-2l0.6-2.6l-16.7-8.4c-2.4,3.5-6.4,5.9-11,5.9
		c-3.8,0-7.4-1.7-9.9-4.6l-1.7-1.9l-17.8,8.9l0.5,2.5c0.2,0.9,0.3,1.9,0.3,2.8c0,6-4.1,11.3-10,12.8l-2.5,0.7v23l2.5,0.7
		c5.9,1.5,9.9,6.8,10,12.8c0,0.1,0,0.1,0,0.2v0.1l0,0.2c0,0.8-0.1,1.6-0.2,2.5l-0.5,2.6l16.8,8.4c0.2-0.4,0.4-0.9,0.6-1.3l1.2-1.4
		c0.1-0.1,0.2-0.2,0.3-0.3c0.4-0.4,0.8-0.8,1.4-1.3c0.1-0.1,0.2-0.2,0.3-0.2c0.1-0.1,0.3-0.3,0.4-0.3c0.1-0.1,0.2-0.1,0.3-0.2
		c0.3-0.2,0.7-0.4,1.1-0.6c0.2-0.1,0.3-0.2,0.5-0.3c0.1-0.1,0.3-0.2,0.4-0.2c0.5-0.2,1-0.4,1.6-0.5c0.2-0.1,0.4-0.1,0.6-0.2
		c0.1,0,0.2-0.1,0.2-0.1c0.9-0.2,1.8-0.3,2.7-0.3c0.9,0,1.8,0.1,2.7,0.3c0.1,0,0.2,0.1,0.2,0.1c0.2,0.1,0.4,0.1,0.6,0.2
		c0.6,0.2,1.2,0.3,1.7,0.6c0.1,0,0.2,0.1,0.4,0.2c0.2,0.1,0.3,0.2,0.5,0.3c0.5,0.3,1,0.6,1.4,0.9c0.1,0.1,0.2,0.2,0.4,0.3
		c0.1,0.1,0.2,0.1,0.3,0.2c0.5,0.5,1,0.9,1.3,1.2c0.1,0.2,0.3,0.3,0.4,0.4l1.6,1.9l17.3-8.7l-0.6-2.6c-0.2-0.9-0.3-1.8-0.3-2.7
		c0-0.7,0.1-1.5,0.2-2.4C389.7,186.5,389.7,186.4,389.7,186.3z"/>
	<path class="st1" d="M653.5,321.8l-2.6-0.7v-36.8c0-0.3-0.1-0.5-0.4-0.6l-29.7-14.9l0.5-2.6c0.2-0.9,0.2-1.7,0.2-2.5l0-0.2l0-0.1
		c0,0,0-0.1,0-0.2c0-6-4.1-11.2-10-12.8l-2.6-0.7v-23l2.6-0.7c5.9-1.5,10-6.8,10-12.8c0-0.9-0.1-1.8-0.3-2.8l-0.6-2.6l17.8-8.9
		l1.8,2c2.6,2.9,6.2,4.6,10,4.6c7.3,0,13.3-6,13.3-13.3c0-6-4.1-11.3-10-12.8l-2.6-0.7v-0.5c-0.5,0-0.9,0-1.4,0v0.5l-2.6,0.7
		c-5.9,1.5-10,6.8-10,12.8c0,0.9,0.1,1.8,0.3,2.8l0.6,2.6l-17.8,8.9l-1.6-1.9c-0.1-0.1-0.2-0.2-0.3-0.3c-0.4-0.4-0.9-0.9-1.4-1.4
		c-0.1-0.1-0.2-0.2-0.3-0.3c-0.1-0.1-0.2-0.2-0.3-0.3c-0.1-0.1-0.2-0.2-0.4-0.2c-0.4-0.3-0.8-0.5-1.2-0.7c-0.2-0.1-0.3-0.2-0.5-0.3
		c-0.1-0.1-0.2-0.1-0.3-0.2c-0.5-0.2-1.1-0.4-1.8-0.6c-0.2-0.1-0.4-0.1-0.6-0.2c-0.1,0-0.1-0.1-0.2-0.1c-1.2-0.3-2.3-0.3-3.4-0.3
		c-0.7,0-1.4,0.1-2.1,0.3c0,0-0.1,0-0.2,0.1c-0.2,0.1-0.4,0.1-0.6,0.2c-0.7,0.2-1.3,0.4-1.9,0.6c-0.1,0-0.2,0.1-0.3,0.2
		c-0.2,0.1-0.3,0.2-0.5,0.3c-0.6,0.3-1.2,0.6-1.6,0.9c-0.1,0.1-0.2,0.2-0.3,0.2c-0.1,0.1-0.2,0.2-0.3,0.3c-0.6,0.5-1.1,0.9-1.5,1.4
		c-0.1,0.1-0.2,0.2-0.3,0.3l-1.6,1.9l-17.8-8.9l0.6-2.6c0.2-0.9,0.3-1.9,0.3-2.8c0-0.8-0.1-1.6-0.3-2.5c0-0.1-0.1-0.2-0.1-0.3
		c0-0.1-0.1-0.3-0.1-0.4c-0.2-0.7-0.3-1.2-0.5-1.6c-0.1-0.2-0.2-0.5-0.3-0.8l0-0.1c-0.2-0.5-0.5-0.9-0.7-1.3
		c-0.1-0.2-0.3-0.5-0.5-0.8c-0.2-0.3-0.6-0.7-1-1.2c-0.1-0.1-0.2-0.2-0.3-0.3c-0.1-0.1-0.2-0.2-0.3-0.3c-0.4-0.4-0.9-0.8-1.4-1.2
		c-0.1-0.1-0.2-0.2-0.4-0.3l0,0c-0.6-0.4-1.3-0.8-2-1.1c0,0-0.1,0-0.1,0c-0.2-0.1-0.3-0.1-0.5-0.2l-0.3-0.1
		c-0.4-0.2-0.8-0.3-1.1-0.4l-2.3-0.6c-0.4,0-0.8,0.1-1.2,0.1c-0.3,0-0.6,0-0.9,0l-2.2,0.6c-0.3,0.1-0.7,0.2-1,0.4l-0.3,0.1
		c-0.2,0.1-0.3,0.1-0.5,0.1c-0.1,0-0.1,0-0.2,0.1c-0.7,0.3-1.4,0.7-2,1.1l0,0c-0.1,0.1-0.3,0.2-0.4,0.3c-0.6,0.4-1,0.8-1.4,1.2
		c-0.1,0.1-0.2,0.2-0.3,0.3c-0.1,0.1-0.2,0.2-0.3,0.3c-0.4,0.4-0.7,0.8-1,1.2c-0.2,0.2-0.3,0.5-0.5,0.7c-0.3,0.4-0.5,0.9-0.7,1.3
		l0,0.1c-0.1,0.3-0.3,0.5-0.3,0.8c-0.2,0.4-0.3,0.9-0.5,1.6c0,0.2-0.1,0.3-0.1,0.4c0,0.1-0.1,0.2-0.1,0.3c-0.2,0.9-0.3,1.7-0.3,2.5
		c0,0.9,0.1,1.8,0.3,2.8l0.6,2.6l-17.7,8.8l-1.6-1.9c-0.1-0.1-0.2-0.2-0.4-0.4c-0.4-0.4-0.8-0.8-1.4-1.3c-0.1-0.1-0.2-0.2-0.3-0.2
		c-0.2-0.1-0.3-0.3-0.4-0.3c-0.4-0.3-0.9-0.6-1.5-0.9c-0.1-0.1-0.3-0.2-0.5-0.3c-0.1-0.1-0.3-0.2-0.4-0.2c-0.5-0.2-1.1-0.4-1.7-0.6
		c-0.2-0.1-0.4-0.1-0.6-0.2c-0.1,0-0.2-0.1-0.2-0.1c-0.7-0.2-1.4-0.2-2.1-0.3c-0.2,0-0.5,0-0.7,0c-0.9,0-1.8,0.1-2.8,0.3
		c-0.1,0-0.2,0.1-0.2,0.1c-0.2,0.1-0.4,0.1-0.6,0.2c-0.6,0.2-1.2,0.4-1.7,0.6c-0.1,0-0.2,0.1-0.4,0.2c-0.2,0.1-0.3,0.2-0.5,0.3
		c-0.5,0.3-1,0.6-1.5,0.9c-0.1,0.1-0.2,0.2-0.4,0.3c-0.1,0.1-0.2,0.2-0.3,0.2c-0.6,0.5-1,0.9-1.4,1.3c-0.1,0.1-0.2,0.2-0.4,0.3
		l-1.7,1.9l-18.8-9.4l1.4-3.1c0.7-1.5,1-3,1.1-4.6c0-0.2,0-0.5,0-0.7c0-1.8-0.4-3.5-1.1-5.1c-1.6-3.6-4.7-6.2-8.5-7.2l-3.2-0.7
		v-20.3l2.9-0.8c0.1,0,0.3-0.1,0.4-0.2l0.4-0.1c0.1-0.1,0.3-0.1,0.5-0.2l0.1,0c0,0,0.1,0,0.1,0c0.7-0.3,1.4-0.7,2-1.1l0,0
		c0.2-0.1,0.3-0.2,0.4-0.3c0.5-0.4,1-0.8,1.4-1.2c0.1-0.1,0.2-0.2,0.3-0.3l0,0c0.1-0.1,0.2-0.2,0.2-0.3c0.4-0.4,0.7-0.8,1-1.2
		c0.1-0.2,0.3-0.4,0.5-0.8c0.2-0.3,0.4-0.6,0.6-1c0.1-0.1,0.1-0.2,0.2-0.4l0-0.1c0.1-0.3,0.2-0.5,0.3-0.7c0.2-0.4,0.3-0.9,0.5-1.6
		c0-0.2,0.1-0.3,0.1-0.4c0-0.1,0.1-0.3,0.1-0.3c0.2-0.9,0.3-1.7,0.3-2.5c0-0.9-0.1-1.8-0.3-2.8l-0.6-2.6l0.3-0.2
		c-0.2-0.4-0.4-0.9-0.5-1.3l-0.5,0.2l-1.8-2c-2.6-2.9-6.2-4.6-9.9-4.6c-3,0-5.8,1-8.2,3l-0.1,0.1l-1.1,2.3l-18.3-9.1l0.6-2.6
		c0.2-0.9,0.3-1.8,0.3-2.7c0,0,0-0.1,0-0.1v0l0-0.1c-0.1-5.6-4.1-10.6-9.6-12l-2.6-0.7V75c0-0.3-0.3-0.6-0.6-0.6s-0.6,0.3-0.6,0.6
		v31.8l-2.6,0.7c-5.7,1.5-9.6,6.5-9.6,12.3c0,0.9,0.1,1.7,0.3,2.7l0.6,2.6l-17.4,8.7l-1.8-2c-2.5-2.8-6-4.4-9.6-4.4
		c-3.6,0-7.1,1.6-9.6,4.4l-1.8,2l-16.7-8.4c1.1-1.9,1.7-4.1,1.7-6.4c0-6-4.1-11.3-10-12.8l-2.6-0.7V68.7c0-0.3-0.1-0.5-0.4-0.6
		L333,53.2l0.6-2.6c0.2-0.9,0.3-1.9,0.3-2.8c0-6-4.1-11.3-10-12.8l-2.6-0.7V1.7c0-0.4-0.3-0.7-0.7-0.7c-0.4,0-0.7,0.3-0.7,0.7v32.6
		l-2.6,0.7c-5.9,1.5-10,6.8-10,12.8c0,0.9,0.1,1.8,0.3,2.8l0.6,2.6l-17.8,8.9l-1.8-2c-2.6-2.9-6.2-4.6-9.9-4.6
		c-3.8,0-7.4,1.7-9.9,4.6l-1.8,2l-29.9-14.9c-0.2-0.1-0.4-0.1-0.6,0l-29.9,14.9l-1.8-2c-2.6-2.9-6.2-4.6-9.9-4.6c-3,0-5.8,1-8.2,3
		l-0.1,0.1l-1.1,2.3l-18.3-9.1l0.6-2.6c0.2-0.9,0.3-1.8,0.3-2.7c0,0,0-0.1,0-0.1v0l0-0.1c-0.1-5.6-4.1-10.6-9.6-12l-2.6-0.7V1.6
		c0-0.3-0.3-0.6-0.6-0.6s-0.6,0.3-0.6,0.6v31.8l-2.6,0.7c-5.7,1.5-9.6,6.5-9.6,12.3c0,0.9,0.1,1.7,0.3,2.7l0.6,2.6l-17.4,8.7l-1.8-2
		c-2.5-2.8-6-4.4-9.6-4.4c-3.6,0-7.1,1.6-9.6,4.4l-1.8,2L74.1,45.8c-0.2-0.1-0.4-0.1-0.5,0L44.5,60.4l-1.8-2c-2.5-2.8-6-4.4-9.6-4.4
		c-2.9,0-5.6,1-7.9,2.8l-2.1,1.7L0.9,41.8c-0.3-0.2-0.6-0.1-0.8,0.1C0,42.1,0,42.2,0,42.4c0,0.2,0.1,0.3,0.2,0.4l22.1,16.6l-1,2.5
		c-0.6,1.6-1,3.2-1,4.9c0,5.8,3.9,10.9,9.6,12.3l2.6,0.7v35.8c0,0.2,0.1,0.4,0.3,0.5l29,14.5l-0.5,2.6c-0.2,0.9-0.3,1.7-0.3,2.6
		c0,5.8,4,10.9,9.6,12.3l2.6,0.7v22.9l-2.6,0.7c-5.7,1.5-9.6,6.5-9.6,12.3c0,0.9,0.1,1.7,0.3,2.7l0.6,2.6l-29,14.5
		c-0.1,0.1-0.2,0.2-0.3,0.3c0,0.2,0,0.3,0,0.4c0.1,0.3,0.5,0.4,0.8,0.3l29.1-14.5l1.8,2c2.5,2.8,6,4.4,9.6,4.4
		c3.6,0,7.1-1.6,9.6-4.4l1.8-2l29.1,14.5c0.1,0.1,0.4,0.1,0.5,0l29.1-14.5l1.8,2c2.5,2.8,6,4.4,9.6,4.4c3.7,0,7.1-1.6,9.6-4.4
		l2.1-2.4l16.7,12.6l-1,2.5c-0.7,1.6-1,3.3-1,5c0,6,4.1,11.3,10,12.8l2.6,0.7v36.8c0,0.3,0.1,0.5,0.4,0.6l29.8,14.9l-0.5,2.6
		c-0.2,0.9-0.3,1.8-0.3,2.7c0,6,4.1,11.3,10,12.8l2.6,0.7v23.4l-2.6,0.7c-5.9,1.5-10,6.8-10,12.8c0,0.9,0.1,1.8,0.3,2.8l0.6,2.6
		l-29.8,14.9c-0.2,0.1-0.3,0.2-0.4,0.4c-0.1,0.2,0,0.4,0,0.5c0.2,0.3,0.6,0.5,1,0.3l29.9-14.9l1.8,2c2.6,2.9,6.2,4.6,9.9,4.6
		s7.4-1.7,9.9-4.6l1.8-2l29.9,14.9c0.2,0.1,0.5,0.1,0.6,0l29.9-14.9l1.8,2c2.6,2.9,6.2,4.6,9.9,4.6c3.8,0,7.4-1.7,9.9-4.6l1.8-2
		l29.9,14.9c0.1,0,0.2,0.1,0.3,0.1c0.3,0,0.5-0.1,0.6-0.4c0.1-0.2,0.1-0.4,0-0.5c-0.1-0.2-0.2-0.3-0.4-0.4L333,337.8l0.6-2.6
		c0.2-0.9,0.3-1.9,0.3-2.8c0-6-4.1-11.3-10-12.8l-2.6-0.7v-23.3l2.6-0.7c5.9-1.5,10-6.8,10-12.8c0-0.9-0.1-1.8-0.3-2.8l-0.6-2.6
		l17.8-8.9l1.8,2c2.6,2.9,6.2,4.6,9.9,4.6c7.3,0,13.3-6,13.3-13.3c0-6-4.1-11.3-10-12.8l-2.6-0.7V222l1.5-0.4
		c0.3-0.1,0.6-0.2,0.9-0.3l0.4-0.1c0.1-0.1,0.3-0.1,0.5-0.2l0.1,0c0,0,0,0,0.1,0c0.7-0.3,1.4-0.7,2-1.1l0,0c0.1-0.1,0.3-0.2,0.4-0.3
		c0.5-0.4,1-0.8,1.4-1.1c0.1-0.1,0.2-0.2,0.3-0.3c0.1-0.1,0.2-0.2,0.3-0.3c0.4-0.4,0.7-0.8,0.9-1.1c0.2-0.2,0.4-0.5,0.5-0.7
		c0.2-0.4,0.5-0.8,0.7-1.3l0-0.1c0.1-0.3,0.2-0.5,0.3-0.7c0.2-0.4,0.3-0.9,0.5-1.5c0-0.2,0.1-0.3,0.1-0.4c0-0.1,0.1-0.2,0.1-0.3
		c0.2-0.9,0.3-1.7,0.3-2.4c0-0.9-0.1-1.7-0.3-2.6l-0.5-2.6l17.4-8.7l1.6,1.9c0.1,0.1,0.2,0.2,0.3,0.3c0.4,0.4,0.8,0.9,1.4,1.3
		c0.1,0.1,0.2,0.2,0.3,0.3c0.1,0.1,0.2,0.2,0.3,0.2c0.4,0.3,0.9,0.6,1.5,0.9c0.2,0.1,0.3,0.2,0.5,0.3c0.1,0.1,0.2,0.1,0.3,0.2
		c0.5,0.2,1.1,0.4,1.7,0.6c0.2,0.1,0.4,0.1,0.6,0.2c0.1,0,0.1,0,0.2,0.1c0.9,0.2,1.8,0.3,2.6,0.3c0.9,0,1.7-0.1,2.6-0.3
		c0,0,0.1,0,0.2-0.1c0.2-0.1,0.4-0.1,0.6-0.2c0.6-0.2,1.3-0.4,1.8-0.6c0,0,0.1-0.1,0.2-0.1c0.2-0.1,0.3-0.2,0.5-0.3
		c0.5-0.3,1.1-0.6,1.5-0.9c0.1-0.1,0.2-0.1,0.2-0.2c0.1-0.1,0.2-0.2,0.3-0.3c0.6-0.4,1-0.9,1.4-1.3c0.1-0.1,0.2-0.2,0.3-0.3l1.7-1.8
		L431,204l-0.6,2.6c-0.2,0.9-0.3,1.8-0.3,2.7c0,0.7,0.1,1.5,0.2,2.4c0,0.1,0,0.2,0.1,0.3c0,0.1,0.1,0.3,0.1,0.4
		c0.2,0.7,0.3,1.1,0.5,1.5c0.1,0.2,0.2,0.5,0.3,0.7l0,0.1c0.2,0.5,0.4,0.9,0.7,1.3c0.2,0.2,0.3,0.5,0.5,0.7c0.3,0.3,0.6,0.7,1,1.1
		c0.1,0.1,0.1,0.2,0.2,0.2c0.1,0.1,0.2,0.3,0.3,0.3c0.4,0.4,0.8,0.7,1.4,1.1c0.1,0.1,0.3,0.2,0.4,0.3l0,0c0.6,0.4,1.3,0.8,2,1.1
		l0.1,0c0.2,0.1,0.3,0.1,0.5,0.2l0.4,0.1c0.4,0.1,0.7,0.3,0.9,0.3l2.1,0.5c0.5-0.1,1-0.1,1.6-0.1c0.2,0,0.4,0,0.6,0l2.1-0.5
		c5.3-1.4,9.1-5.9,9.6-11.3c0-0.4,0-0.7,0-1.1c0-0.9-0.1-1.8-0.3-2.7l-0.6-2.6l17.4-8.7l1.8,2c2.5,2.8,6,4.4,9.6,4.4
		c0.7,0,1.3-0.1,2-0.1c1.9-0.3,3.7-1,5.4-2.2l1.7-1.2L512,208l-0.5,2.6c-0.2,0.9-0.3,1.8-0.3,2.7c0,0.7,0.1,1.5,0.2,2.2
		c0.9,5.1,4.7,9.3,9.8,10.6l2.3,0.6c0.5-0.1,1-0.1,1.5-0.1c0.3,0,0.6,0,1,0l1.9-0.5c0.3-0.1,0.6-0.2,1-0.3c0.1,0,0.2-0.1,0.4-0.1
		c0.1-0.1,0.3-0.1,0.5-0.2l0.1,0c0,0,0.1,0,0.1,0c0.5-0.2,1.1-0.5,1.6-0.8c0.2-0.1,0.3-0.2,0.5-0.3l0,0c0.1-0.1,0.3-0.2,0.4-0.3
		c0.5-0.4,1-0.8,1.4-1.2c0.1-0.1,0.2-0.2,0.3-0.3c0.1-0.1,0.2-0.2,0.3-0.3c0.4-0.5,0.7-0.8,1-1.2c0.2-0.3,0.4-0.5,0.5-0.8
		c0.3-0.4,0.5-0.8,0.7-1.3l0-0.1c0.1-0.3,0.3-0.5,0.3-0.8c0.2-0.4,0.3-0.9,0.5-1.6c0-0.2,0.1-0.3,0.1-0.4c0-0.1,0.1-0.2,0.1-0.3
		c0.2-0.9,0.3-1.7,0.3-2.5c0-0.9-0.1-1.8-0.3-2.7l-0.5-2.6l17.8-8.9l1.6,1.9c0.1,0.1,0.2,0.2,0.3,0.3c0.4,0.4,0.9,0.9,1.5,1.4
		c0.1,0.1,0.2,0.2,0.3,0.3c0.1,0.1,0.2,0.2,0.3,0.2c0.4,0.3,1,0.6,1.6,0.9c0.2,0.1,0.3,0.2,0.5,0.3c0.1,0.1,0.3,0.1,0.3,0.2
		c0.5,0.2,1.1,0.4,1.8,0.6c0.2,0.1,0.4,0.1,0.6,0.2c0.1,0,0.1,0,0.2,0.1c0.7,0.1,1.4,0.2,2.1,0.3c1.2,0.1,2.3,0,3.4-0.3
		c0,0,0.1,0,0.2-0.1c0.2-0.1,0.4-0.1,0.6-0.2c0.6-0.2,1.3-0.4,1.8-0.6c0,0,0.2-0.1,0.3-0.2c0.2-0.1,0.3-0.2,0.5-0.3
		c0.5-0.3,1.1-0.6,1.6-0.9c0.1,0,0.2-0.1,0.3-0.2c0.1-0.1,0.2-0.2,0.3-0.3c0.6-0.5,1.1-0.9,1.5-1.4c0.1-0.1,0.2-0.2,0.3-0.3l1.7-1.9
		l17.7,8.9l-0.6,2.6c-0.2,1-0.3,1.9-0.3,2.8c0,0.8,0.1,1.6,0.3,2.5c0,0.1,0,0.2,0.1,0.3c0,0.1,0.1,0.3,0.1,0.4
		c0.2,0.7,0.3,1.2,0.5,1.6c0.1,0.2,0.2,0.5,0.3,0.8l0,0.1c0.2,0.5,0.5,0.9,0.7,1.3c0.2,0.2,0.3,0.5,0.5,0.8c0.3,0.4,0.6,0.8,1,1.2
		c0.1,0.1,0.2,0.2,0.2,0.3c0.1,0.1,0.2,0.3,0.3,0.4c0.4,0.4,0.9,0.8,1.4,1.2c0.1,0.1,0.3,0.2,0.4,0.3l0.1,0c0.5,0.3,1,0.6,1.5,0.8
		c0.2,0.1,0.4,0.2,0.6,0.3c0,0,0,0,0,0l0.1,0c0.2,0.1,0.3,0.1,0.5,0.2l0.4,0.1c0.4,0.1,0.7,0.3,1,0.3l2.6,0.7v22.9l-2.6,0.7
		c-5.9,1.5-10,6.8-10,12.8c0,0.1,0,0.1,0,0.2v0.1c0,0.1,0,0.1,0,0.2c0,0.8,0.1,1.6,0.3,2.5l0.5,2.6l-17.7,8.8l-1.8-2
		c-0.5-0.5-1-1.1-1.5-1.5c-2.4-2-5.4-3.1-8.4-3.1c-3.8,0-7.4,1.7-9.9,4.6l-1.7,2c-0.3,0.8-0.6,1.6-1,2.4l-0.3,1.8
		c-0.1,0.7-0.2,1.3-0.2,1.9c0,0.2,0,0.4,0,0.6c0,0.8,0.1,1.6,0.3,2.5c0,0.1,0,0.2,0.1,0.3c0,0.1,0.1,0.3,0.1,0.4
		c0.2,0.7,0.3,1.2,0.5,1.6c0.1,0.2,0.2,0.5,0.3,0.8l0,0.1c0.2,0.5,0.5,0.9,0.7,1.3c0.2,0.2,0.3,0.5,0.5,0.8c0.3,0.4,0.6,0.8,1,1.2
		c0.1,0.1,0.2,0.2,0.2,0.3c0.1,0.1,0.2,0.3,0.3,0.4c0.4,0.4,0.9,0.8,1.4,1.2c0.1,0.1,0.3,0.2,0.4,0.3l0.1,0c0.6,0.4,1.3,0.8,2,1.1
		c0,0,0,0,0,0l0.1,0c0.2,0.1,0.3,0.1,0.5,0.2l0.4,0.1c0.4,0.1,0.7,0.3,1,0.3l2.6,0.7V321l-2.6,0.7c-0.3,0.1-0.7,0.2-1,0.4l-0.3,0.1
		c-0.2,0.1-0.3,0.1-0.5,0.1c-0.1,0-0.1,0-0.2,0.1c-0.7,0.3-1.4,0.7-2,1.1l0,0c-0.1,0.1-0.3,0.2-0.4,0.3c-0.6,0.4-1,0.8-1.4,1.2
		c-0.1,0.1-0.2,0.2-0.3,0.3c-0.1,0.1-0.2,0.2-0.3,0.3c-0.4,0.4-0.7,0.8-1,1.2c-0.2,0.2-0.4,0.5-0.5,0.7c-0.3,0.4-0.5,0.9-0.7,1.3
		l0,0.1c-0.1,0.3-0.3,0.5-0.3,0.8c-0.2,0.4-0.3,0.9-0.5,1.6c0,0.2-0.1,0.3-0.1,0.4c0,0.1-0.1,0.2-0.1,0.3c-0.2,0.9-0.3,1.7-0.3,2.5
		c0,0.9,0.1,1.8,0.3,2.8l0.5,2.2c0.4,0.6,0.8,1.3,1.1,2l1.4,1.6c0.1,0.1,0.2,0.2,0.3,0.3c0.4,0.4,0.9,0.9,1.5,1.4
		c0.1,0.1,0.2,0.2,0.3,0.3c0.1,0.1,0.2,0.2,0.3,0.2c0.4,0.3,1,0.6,1.6,0.9c0.2,0.1,0.3,0.2,0.5,0.3c0.1,0.1,0.3,0.1,0.3,0.2
		c0.5,0.2,1.1,0.4,1.8,0.6c0.2,0.1,0.4,0.1,0.6,0.2c0.1,0,0.1,0,0.2,0.1c0.7,0.1,1.4,0.2,2.1,0.3c1.2,0.1,2.3,0,3.4-0.3
		c0,0,0.1,0,0.2-0.1c0.2-0.1,0.4-0.1,0.6-0.2c0.6-0.2,1.3-0.4,1.8-0.6c0,0,0.2-0.1,0.3-0.2c0.2-0.1,0.3-0.2,0.5-0.3
		c0.5-0.3,1.1-0.6,1.6-0.9c0.1-0.1,0.2-0.1,0.3-0.2c0.1-0.1,0.2-0.2,0.3-0.3c0.6-0.5,1.1-0.9,1.5-1.4c0.1-0.1,0.2-0.2,0.3-0.3
		l1.7-1.9l17.7,8.9l-0.6,2.6c-0.2,1-0.3,1.9-0.3,2.8c0,0.8,0.1,1.6,0.3,2.5c0,0.1,0,0.2,0.1,0.3c0,0.1,0.1,0.3,0.1,0.4
		c0.2,0.7,0.3,1.2,0.5,1.6c0.1,0.2,0.2,0.5,0.3,0.8l0,0.1c0.2,0.5,0.5,0.9,0.7,1.3c0.2,0.3,0.3,0.5,0.5,0.8c0.3,0.4,0.6,0.8,1,1.2
		c0.1,0.1,0.1,0.2,0.2,0.2c0.1,0.1,0.2,0.3,0.3,0.4c0.4,0.4,0.9,0.8,1.4,1.2c0.1,0.1,0.3,0.2,0.4,0.3l0,0c0.6,0.4,1.3,0.8,2,1.1
		c0,0,0,0,0,0l0.1,0c0.2,0.1,0.3,0.1,0.5,0.2l0.4,0.1c0.4,0.1,0.7,0.3,1,0.3l2.6,0.7v23.2l-2.6,0.7c-0.3,0.1-0.7,0.2-1,0.4l-0.3,0.1
		c-0.2,0.1-0.3,0.1-0.5,0.1c-0.1,0-0.1,0-0.2,0.1c-0.7,0.3-1.4,0.7-2,1.1l0,0c-0.1,0.1-0.3,0.2-0.4,0.3c-0.5,0.4-1,0.8-1.4,1.2
		c-0.1,0.1-0.2,0.2-0.3,0.3c-0.1,0.1-0.2,0.2-0.3,0.3c-0.4,0.4-0.7,0.8-1,1.2c-0.2,0.2-0.3,0.5-0.5,0.7c-0.3,0.4-0.5,0.9-0.7,1.3
		l0,0.1c-0.1,0.3-0.2,0.5-0.3,0.7c-0.2,0.4-0.3,0.9-0.5,1.6c0,0.2-0.1,0.3-0.1,0.4c0,0.1-0.1,0.2-0.1,0.3c-0.2,0.9-0.3,1.7-0.3,2.5
		c0,0.9,0.1,1.8,0.3,2.8l0.6,2.6l-29.5,14.7l-29.5-14.8l0.6-2.6c0.2-0.9,0.3-1.9,0.3-2.8c0-0.9-0.1-1.8-0.2-2.9c0-0.1,0-0.2-0.1-0.3
		c0-0.2-0.1-0.3-0.1-0.5c-0.1-0.5-0.3-1.1-0.4-1.7c-0.1-0.2-0.2-0.4-0.3-0.6l-0.1-0.2c-0.2-0.5-0.4-0.9-0.7-1.3
		c-0.1-0.2-0.3-0.5-0.5-0.7c-0.2-0.3-0.5-0.7-0.9-1.1l-0.1-0.1c-0.2-0.2-0.3-0.4-0.5-0.5c-0.4-0.3-0.8-0.7-1.2-0.9
		c-0.1-0.1-0.3-0.2-0.4-0.3c-0.1,0-0.1-0.1-0.2-0.1c-0.7-0.4-1.3-0.7-1.9-1c-0.1,0-0.2-0.1-0.3-0.1c-0.7-0.3-1.4-0.4-2-0.6l-2.7-0.5
		c-0.1,0-0.2,0-0.3,0c-0.4,0-0.8,0-1.2-0.1v0.1l-2.6,0.7c-5.9,1.5-10,6.8-10,12.8c0,0.9,0.1,1.8,0.3,2.8l0.6,2.6l-29.8,14.9
		c-0.2,0.1-0.3,0.2-0.4,0.4c-0.1,0.2,0,0.4,0,0.5c0.2,0.3,0.6,0.5,1,0.3l29.9-14.9l1.8,2c2.6,2.9,6.2,4.6,9.9,4.6s7.4-1.7,9.9-4.6
		l1.8-2l29.9,14.9c0.2,0.1,0.5,0.1,0.6,0l29.9-14.9l1.8,2c2.6,2.9,6.2,4.6,9.9,4.6c3.8,0,7.4-1.7,9.9-4.6l1.8-2l29.9,14.9
		c0.1,0,0.2,0.1,0.3,0.1c0.3,0,0.5-0.1,0.6-0.4c0.1-0.2,0.1-0.4,0-0.5c-0.1-0.2-0.2-0.3-0.4-0.4l-29.8-14.9l0.6-2.6
		c0.2-0.9,0.3-1.9,0.3-2.8c0-6-4.1-11.3-10-12.8l-2.6-0.7V369l2.6-0.7c5.9-1.5,10-6.8,10-12.8c0-0.9-0.1-1.8-0.3-2.8l-0.6-2.6
		l17.8-8.9l1.8,2c2.6,2.9,6.2,4.6,10,4.6c7.3,0,13.3-6,13.3-13.3C663.5,328.5,659.4,323.3,653.5,321.8z M650,180.6
		c0.1,0,0.2,0,0.3,0h0.1c6.4,0.1,11.7,5.4,11.7,11.8c0,6.5-5.3,11.9-11.9,11.9c-3.9,0-7.6-1.9-9.8-5.2l-0.4-0.6l-0.1-0.7
		c0-0.1,0-0.2,0-0.3c0,0,0-0.1,0-0.1c-0.8-1.6-1.2-3.3-1.2-5C638.6,186.1,643.6,180.9,650,180.6z M479.7,130.7
		c1-0.2,1.9-0.4,2.9-0.4c4.5,0,8.5,2.5,10.5,6.5l0.1,0.3c0.8,1.6,1.2,3.3,1.2,5.1c0,0.2,0,0.5,0,0.7c-0.2,3.4-1.9,6.6-4.6,8.7
		c-2.1,1.6-4.6,2.5-7.2,2.5c-1.3,0-2.6-0.2-3.8-0.6c-0.2-0.1-0.3-0.1-0.5-0.2c-3.9-1.5-6.8-5.1-7.4-9.3c-0.1-0.6-0.1-1.2-0.1-1.8
		c0-1,0.1-1.9,0.4-2.9C472.2,135,475.5,131.7,479.7,130.7z M442.9,108.2c0.6,0,1.2,0,1.8,0.1c1.8,0.3,3.4,0.9,4.9,2
		c1.9,1.3,3.4,3.2,4.2,5.4c0.5,1.3,0.8,2.7,0.8,4.1c0,1.7-0.4,3.3-1.1,4.9l0,0c0,0.1-0.1,0.1-0.1,0.2c-0.1,0.1-0.1,0.2-0.2,0.3
		c-1,1.8-2.4,3.3-4.1,4.4l-0.1,0.1c-0.1,0-0.1,0.1-0.2,0.1c-0.7,0.4-1.5,0.7-2.3,1l-0.1,0c-0.2,0.1-0.4,0.1-0.6,0.2
		c-1,0.3-2,0.4-2.9,0.4c-0.9,0-1.9-0.1-2.9-0.4c-0.2-0.1-0.4-0.1-0.6-0.2l-0.1,0c-0.8-0.3-1.6-0.6-2.3-1c-0.1-0.1-0.2-0.1-0.3-0.2
		c-1.7-1.1-3.1-2.6-4.1-4.4c-0.1-0.1-0.1-0.2-0.2-0.4c-0.7-1.4-1.1-2.9-1.2-4.4c0-0.2,0-0.4,0-0.7
		C431.3,113.4,436.5,108.2,442.9,108.2z M391.8,135.2c0-0.1,0.1-0.2,0.2-0.3c1.9-3.7,5.4-6,9.5-6.3c0.3,0,0.5,0,0.8,0
		c4.4,0,8.3,2.4,10.3,6.4l0.1,0.3c0.8,1.6,1.2,3.3,1.2,5c0,0.6,0,1.2-0.1,1.8c-0.9,5.6-5.8,9.9-11.5,9.9c-6.4,0-11.6-5.2-11.6-11.6
		C390.6,138.5,391,136.8,391.8,135.2z M362.7,107.2L362.7,107.2c6.5,0.1,11.7,5.4,11.7,11.8c0,6.5-5.3,11.9-11.9,11.9
		c-3.9,0-7.6-1.9-9.8-5.2l-0.4-0.6l-0.1-0.7c0-0.1,0-0.2,0-0.3c0,0,0-0.1,0-0.1c-0.8-1.6-1.2-3.3-1.2-5c0-6.4,5-11.6,11.4-11.8
		C362.4,107.2,362.6,107.2,362.7,107.2z M307.3,190L307.3,190c0,0.1,0,0.2,0,0.2c0,0.8,0.1,1.6,0.3,2.5l0.5,2.6l-17.7,8.8l-1.8-2
		c-0.5-0.5-1-1.1-1.5-1.5c-2.4-2-5.4-3.1-8.4-3.1c-3.8,0-7.4,1.7-9.9,4.6l-1.8,2l-17.7-8.8l0.5-2.6c0.2-0.9,0.3-1.7,0.3-2.5
		c0-0.9-0.1-1.8-0.2-2.9c0-0.1,0-0.2-0.1-0.3c0-0.2-0.1-0.3-0.1-0.5c-0.1-0.5-0.3-1.1-0.4-1.7c-0.1-0.2-0.2-0.4-0.3-0.6l-0.1-0.2
		c-0.2-0.5-0.4-0.9-0.7-1.3c-0.1-0.2-0.3-0.5-0.5-0.7c-0.2-0.3-0.5-0.7-0.9-1.1l-0.1-0.1c-0.2-0.2-0.3-0.4-0.5-0.5
		c-0.4-0.3-0.8-0.7-1.2-0.9c-0.1-0.1-0.3-0.2-0.4-0.3c-0.1-0.1-0.1-0.1-0.2-0.1c-0.7-0.4-1.3-0.7-1.9-1c-0.1,0-0.2-0.1-0.3-0.1
		c-0.7-0.3-1.4-0.4-2-0.6l-2.8-0.6v-23.3l2.6-0.7c0.3-0.1,0.6-0.2,1-0.3c0.1,0,0.2-0.1,0.4-0.1c0.1-0.1,0.3-0.1,0.5-0.2l0.1,0
		c0,0,0.1,0,0.1,0c0.5-0.2,1.1-0.5,1.6-0.8c0.2-0.1,0.3-0.2,0.5-0.3l0,0c0.1-0.1,0.3-0.2,0.4-0.3c0.5-0.4,1-0.8,1.4-1.2
		c0.1-0.1,0.2-0.2,0.3-0.3c0.1-0.1,0.2-0.2,0.3-0.3c0.4-0.5,0.7-0.8,1-1.2c0.2-0.3,0.4-0.5,0.5-0.8c0.3-0.4,0.5-0.8,0.7-1.3l0-0.1
		c0.1-0.3,0.3-0.5,0.3-0.8c0.2-0.4,0.3-0.9,0.5-1.6c0-0.2,0.1-0.3,0.1-0.4c0-0.1,0.1-0.2,0.1-0.3c0.2-0.9,0.3-1.7,0.3-2.5
		c0-0.9-0.1-1.8-0.3-2.7l-0.5-2.6l17.8-8.9l1.6,1.9c0.1,0.1,0.2,0.2,0.3,0.3c0.4,0.4,0.9,0.9,1.5,1.4c0.1,0.1,0.2,0.2,0.3,0.3
		c0.1,0.1,0.2,0.2,0.3,0.2c0.4,0.3,1,0.6,1.6,0.9c0.2,0.1,0.3,0.2,0.5,0.3c0.1,0.1,0.3,0.1,0.3,0.2c0.5,0.2,1.1,0.4,1.8,0.6
		c0.2,0.1,0.4,0.1,0.6,0.2c0.1,0,0.1,0,0.2,0.1c0.7,0.1,1.4,0.2,2.1,0.3c1.2,0.1,2.3,0,3.4-0.3c0,0,0.1,0,0.2-0.1
		c0.2-0.1,0.4-0.1,0.6-0.2c0.6-0.2,1.3-0.4,1.8-0.6c0,0,0.2-0.1,0.3-0.1c0.2-0.1,0.3-0.2,0.5-0.3c0.5-0.3,1.1-0.6,1.6-0.9
		c0.1,0,0.2-0.1,0.3-0.2c0.1-0.1,0.2-0.2,0.3-0.3c0.6-0.5,1.1-0.9,1.5-1.4c0.1-0.1,0.2-0.2,0.3-0.3l1.7-1.9l17.7,8.9l-0.6,2.6
		c-0.2,1-0.3,1.9-0.3,2.8c0,0.8,0.1,1.6,0.3,2.5c0,0.1,0.1,0.2,0.1,0.3c0,0.1,0.1,0.3,0.1,0.4c0.2,0.7,0.3,1.2,0.5,1.6
		c0.1,0.2,0.2,0.5,0.3,0.8l0,0.1c0.2,0.5,0.5,0.9,0.7,1.3c0.1,0.2,0.3,0.5,0.5,0.8c0.3,0.4,0.6,0.8,1,1.2c0.1,0.1,0.2,0.2,0.2,0.3
		c0.1,0.1,0.2,0.3,0.3,0.4c0.4,0.4,0.9,0.8,1.4,1.2c0.1,0.1,0.3,0.2,0.4,0.3l0.1,0c0.5,0.3,1,0.6,1.5,0.8c0.2,0.1,0.4,0.2,0.6,0.3
		c0,0,0,0,0,0l0.1,0c0.2,0.1,0.3,0.1,0.5,0.2l0.4,0.1c0.4,0.1,0.7,0.3,1,0.3l2.6,0.7v22.9l-2.6,0.7c-5.9,1.5-10,6.8-10,12.8
		C307.3,189.9,307.3,190,307.3,190z M272.5,220.9c-3.1-1.9-5.2-5.2-5.6-8.8c0-0.4-0.1-0.9-0.1-1.3c0-0.4,0-0.9,0.1-1.3
		c0.1-1.3,0.5-2.5,1.1-3.8c0-0.1,0.1-0.2,0.2-0.3c0.8-1.6,2.1-3.1,3.5-4.2c1.5-1.1,3.3-1.9,5.1-2.2c0.6-0.1,1.2-0.1,1.9-0.1
		c2.5,0,4.9,0.8,7,2.3c1.5,1.1,2.7,2.5,3.6,4.2l0,0l0.1,0.3c0.7,1.4,1.1,2.9,1.2,4.4c0,0.2,0,0.4,0,0.6c0,0.4,0,0.8-0.1,1.3
		c-0.4,4-2.9,7.5-6.5,9.3c-1.7,0.8-3.4,1.2-5.3,1.2C276.5,222.7,274.4,222.1,272.5,220.9z M290.6,261.1c0,0.4,0,0.9-0.1,1.3
		c-0.2,1.3-0.6,2.7-1.2,3.9c-0.6,1.2-1.4,2.3-2.4,3.3c-0.6,0.6-1.2,1.1-1.9,1.5l-0.1,0.1c-0.1,0-0.2,0.1-0.2,0.1
		c-0.7,0.4-1.5,0.8-2.3,1l-0.1,0c-0.2,0.1-0.4,0.1-0.6,0.2c-1.1,0.3-2,0.4-3,0.4s-1.9-0.1-3-0.4c-0.2-0.1-0.4-0.1-0.6-0.2l-0.1,0
		c-0.8-0.3-1.6-0.6-2.3-1c-0.1-0.1-0.2-0.1-0.3-0.2c-1.6-1-2.9-2.4-3.9-4c-0.1-0.2-0.3-0.5-0.4-0.7c-0.9-1.7-1.3-3.5-1.3-5.3
		c0-6.5,5.3-11.9,11.9-11.9C285.3,249.3,290.6,254.6,290.6,261.1z M248.7,139.9c0,6.5-5.3,11.9-11.9,11.9c-6.5,0-11.9-5.3-11.9-11.9
		c0-1.5,0.3-3,0.9-4.5c0.1-0.2,0.2-0.4,0.3-0.6l0.2-0.3c0,0,0,0,0-0.1c1-1.8,2.4-3.4,4.1-4.5c0.1-0.1,0.3-0.2,0.4-0.2
		c0.5-0.3,1.1-0.6,1.7-0.8c0.2-0.1,0.4-0.1,0.6-0.2l0.2-0.1c0.2-0.1,0.4-0.1,0.6-0.2c1-0.3,2-0.4,2.9-0.4c0.9,0,1.9,0.1,3,0.4
		c0.2,0,0.3,0.1,0.5,0.2l0.2,0.1c0.9,0.3,1.6,0.6,2.3,1c0.1,0.1,0.3,0.1,0.4,0.2c1.8,1.2,3.3,2.8,4.3,4.8l0.4,0.7v0.1
		C248.4,136.9,248.7,138.4,248.7,139.9z M248.6,189.2c0,0.4,0,0.8,0,1.1c0,1.7-0.4,3.4-1.2,5.1l-0.1,0.3c-0.1,0.2-0.2,0.4-0.3,0.6
		c-0.8,1.4-1.9,2.6-3.2,3.6c-1.3,0.9-2.7,1.6-4.2,2c-0.9,0.2-1.8,0.3-2.8,0.3c-0.3,0-0.6,0-0.9,0c-2.2-0.2-4.3-0.9-6-2.2
		c-3.1-2.2-4.9-5.8-4.9-9.6c0-0.4,0-0.8,0.1-1.3c0.1-1.3,0.5-2.5,1-3.7c0.1-0.3,0.3-0.6,0.5-1c1.7-3,4.7-5.1,8.1-5.7
		c0.7-0.1,1.5-0.2,2.2-0.2C243.8,178.4,248.2,182.4,248.6,189.2z M266.9,119c0-0.2,0-0.4,0-0.6c0.3-4.9,3.6-9.2,8.3-10.7
		c2.3-0.7,4.8-0.7,7,0c4.7,1.5,8.1,5.8,8.3,10.7c0,0.2,0,0.4,0,0.6c0,1.8-0.4,3.6-1.3,5.3c-1,2-2.5,3.6-4.3,4.8l-0.1,0.1
		c-0.1,0-0.2,0.1-0.2,0.1c-0.7,0.4-1.5,0.8-2.3,1l-0.1,0c-0.2,0.1-0.4,0.1-0.6,0.2c-1.1,0.3-2,0.4-3,0.4c-0.9,0-1.9-0.1-3-0.4
		c-0.2-0.1-0.4-0.1-0.6-0.2l-0.1,0c-0.8-0.3-1.6-0.6-2.3-1c-0.1-0.1-0.2-0.1-0.3-0.2c-1.8-1.2-3.3-2.8-4.3-4.7
		C267.3,122.6,266.9,120.8,266.9,119z M332.5,140c0,1-0.1,2.1-0.4,3.1c-0.8,3-2.8,5.6-5.5,7.2c-1.6,0.9-3.4,1.5-5.2,1.6
		c-0.3,0-0.5,0-0.8,0c-2.1,0-4.1-0.6-5.9-1.6c-2.9-1.7-5-4.6-5.7-7.9c-0.1-0.3-0.1-0.5-0.1-0.8c-0.1-0.5-0.1-1-0.1-1.6
		c0-0.7,0.1-1.4,0.2-2c0.2-1.1,0.6-2.2,1.1-3.3c0.6-1.2,1.4-2.3,2.4-3.2c0.6-0.6,1.2-1.1,1.9-1.5c0.1-0.1,0.2-0.1,0.3-0.2
		c0.7-0.4,1.5-0.7,2.3-1l0.1,0c0.2-0.1,0.4-0.1,0.5-0.2c0.8-0.2,1.5-0.3,2.3-0.4c1.2-0.1,2.4,0,3.7,0.4c0.2,0.1,0.4,0.1,0.6,0.2
		l0.1,0c0.9,0.3,1.6,0.6,2.3,1c0.1,0,0.1,0.1,0.2,0.1l0.1,0.1c1.8,1.1,3.2,2.7,4.2,4.6c0,0.1,0.1,0.1,0.1,0.2l0.1,0.1
		C332.1,136.5,332.5,138.2,332.5,140z M308.8,190.1c0.1-4.1,2.2-7.8,5.8-10c1.8-1.1,3.9-1.7,6.1-1.7c6.4,0,11.7,5.2,11.9,11.7v0.1
		l0,0.1c0,0.2,0,0.4,0,0.6c-0.1,1.5-0.5,2.9-1.2,4.2c-0.1,0.1-0.1,0.2-0.2,0.3c-1,1.9-2.4,3.4-4.2,4.5l-0.1,0.1
		c-0.1,0-0.1,0.1-0.2,0.1c-0.7,0.4-1.5,0.8-2.3,1l-0.1,0c-0.2,0.1-0.4,0.1-0.6,0.2c-1.1,0.3-2,0.4-3,0.4c-0.9,0-1.9-0.1-3-0.4
		c-0.2-0.1-0.4-0.1-0.6-0.2l-0.1,0c-0.8-0.3-1.6-0.6-2.3-1c-0.1-0.1-0.2-0.1-0.3-0.2c-1.7-1.1-3.2-2.6-4.2-4.5
		c-0.1-0.1-0.1-0.2-0.2-0.4c-0.8-1.6-1.2-3.2-1.2-4.8L308.8,190.1L308.8,190.1z M320.6,35.9c6.5,0,11.9,5.3,11.9,11.9
		c0,0.4,0,0.9-0.1,1.3c-0.2,1.3-0.5,2.6-1.2,3.9c-0.1,0.1-0.1,0.2-0.2,0.3c-0.9,1.6-2.1,3-3.5,4.1c-0.2,0.2-0.4,0.3-0.6,0.4
		l-0.1,0.1c-0.1,0-0.1,0.1-0.2,0.1c-0.7,0.4-1.5,0.8-2.3,1l-0.1,0c-0.2,0.1-0.4,0.1-0.6,0.2c-1.1,0.3-2,0.4-3,0.4
		c-1,0-1.9-0.1-3-0.4c-0.2-0.1-0.4-0.1-0.6-0.2l-0.1,0c-0.8-0.3-1.6-0.6-2.3-1c-0.1-0.1-0.2-0.1-0.3-0.2c-1.7-1.1-3.2-2.6-4.2-4.5
		c-0.1-0.1-0.1-0.2-0.2-0.4c-0.7-1.5-1.1-3-1.2-4.5c0-0.2,0-0.4,0-0.7C308.8,41.3,314.1,35.9,320.6,35.9z M290.7,74.3
		c0.1-0.3,0.2-0.5,0.3-0.7c0.2-0.4,0.3-0.9,0.5-1.6c0-0.2,0.1-0.3,0.1-0.4c0-0.1,0.1-0.2,0.1-0.3c0.2-0.9,0.3-1.7,0.3-2.5
		c0-0.9-0.1-1.8-0.3-2.8l-0.6-2.6l17.7-8.9l1.7,1.8c0.1,0.1,0.2,0.2,0.4,0.3c0.4,0.4,0.9,0.9,1.5,1.4c0.1,0.1,0.2,0.2,0.3,0.3
		c0.1,0.1,0.2,0.2,0.3,0.2c0.4,0.3,1,0.6,1.6,0.9c0.2,0.1,0.3,0.2,0.5,0.3c0.1,0.1,0.3,0.1,0.3,0.2c0.4,0.2,0.9,0.3,1.3,0.4
		c0.2,0,0.3,0.1,0.5,0.1c0.2,0.1,0.4,0.1,0.6,0.2c0.1,0,0.1,0,0.2,0.1c0.9,0.2,1.9,0.3,2.8,0.3c0.9,0,1.8-0.1,2.8-0.3
		c0,0,0.1,0,0.2-0.1c0.2-0.1,0.4-0.1,0.6-0.2c0.5-0.1,1-0.3,1.4-0.4c0.1-0.1,0.3-0.1,0.4-0.2c0,0,0.2-0.1,0.3-0.2
		c0.2-0.1,0.3-0.2,0.5-0.3c0.5-0.3,1.1-0.6,1.6-0.9c0.1-0.1,0.2-0.1,0.3-0.2c0.1-0.1,0.2-0.2,0.3-0.3c0.6-0.5,1.1-0.9,1.5-1.4
		c0.1-0.1,0.2-0.2,0.3-0.3l1.6-1.9l29.5,14.7v36.4l-2.6,0.7c-5.9,1.5-10,6.8-10,12.8c0,0.9,0.1,1.8,0.3,2.8l0.6,2.6l-17.8,8.9
		l-1.6-1.9c-0.1-0.1-0.2-0.2-0.3-0.3c-0.4-0.4-0.9-0.9-1.5-1.4c-0.1-0.1-0.2-0.2-0.3-0.3c-0.1-0.1-0.2-0.2-0.3-0.2
		c-0.1-0.1-0.2-0.2-0.4-0.2c-0.4-0.3-0.8-0.5-1.2-0.7c-0.2-0.1-0.3-0.2-0.5-0.3c-0.1-0.1-0.2-0.1-0.3-0.2c-0.5-0.2-1.1-0.4-1.8-0.6
		c-0.2-0.1-0.4-0.1-0.6-0.2c-0.1,0-0.1,0-0.2-0.1c-1.2-0.3-2.3-0.3-3.4-0.3c-0.7,0-1.4,0.1-2.1,0.3c0,0-0.1,0-0.2,0.1
		c-0.2,0.1-0.4,0.1-0.6,0.2c-0.7,0.2-1.3,0.4-1.9,0.6c-0.1,0-0.2,0.1-0.3,0.2c-0.2,0.1-0.3,0.2-0.5,0.3c-0.6,0.3-1.2,0.6-1.6,0.9
		c-0.1,0.1-0.2,0.1-0.3,0.2c-0.1,0.1-0.2,0.2-0.3,0.3c-0.6,0.5-1.1,0.9-1.5,1.4c-0.1,0.1-0.2,0.2-0.3,0.3l-1.6,1.9l-17.8-8.9
		l0.6-2.6c0.2-0.9,0.3-1.9,0.3-2.8c0-0.8-0.1-1.6-0.3-2.5c0-0.1-0.1-0.2-0.1-0.3c0-0.1-0.1-0.3-0.1-0.4c-0.2-0.7-0.3-1.2-0.5-1.6
		c-0.1-0.2-0.2-0.5-0.3-0.8l0-0.1c-0.2-0.5-0.5-0.9-0.7-1.3c-0.1-0.2-0.3-0.5-0.5-0.8c-0.2-0.3-0.6-0.7-1-1.2
		c-0.1-0.1-0.2-0.2-0.3-0.3c-0.1-0.1-0.2-0.2-0.3-0.3c-0.4-0.4-0.9-0.8-1.4-1.2c-0.1-0.1-0.2-0.2-0.4-0.3l-0.1,0
		c-0.6-0.4-1.3-0.8-2-1.1c0,0-0.1,0-0.1,0c-0.2-0.1-0.3-0.1-0.5-0.2l-0.3-0.1c-0.4-0.1-0.8-0.3-1.1-0.4l-2.6-0.7V82.3l2.6-0.7
		c0.3-0.1,0.6-0.2,1-0.3l0.4-0.1c0.1-0.1,0.3-0.1,0.5-0.2l0.1,0c0,0,0.1,0,0.1,0c0.7-0.3,1.4-0.7,2-1.1l0,0c0.1-0.1,0.3-0.2,0.4-0.3
		c0.5-0.4,1-0.8,1.4-1.2c0.1-0.1,0.2-0.2,0.3-0.3c0.1-0.1,0.2-0.2,0.3-0.3c0.4-0.4,0.7-0.8,1-1.2c0.1-0.2,0.3-0.4,0.5-0.8
		C290.2,75.3,290.5,74.9,290.7,74.3L290.7,74.3z M268,63.7c0-0.1,0.1-0.2,0.2-0.3c2-4,6.1-6.5,10.5-6.5c1.1,0,2.2,0.2,3.2,0.5
		c0.5,0.1,1,0.3,1.5,0.5c0.2,0.1,0.5,0.2,0.7,0.3c2.2,1.1,3.9,2.9,5.1,5.1l0,0l0.1,0.3c0.8,1.6,1.2,3.3,1.2,5.1
		c0,6.5-5.3,11.9-11.9,11.9c-6.5,0-11.9-5.3-11.9-11.9C266.9,67,267.3,65.3,268,63.7z M206.9,74.3c0.1-0.3,0.2-0.5,0.3-0.7
		c0.2-0.4,0.3-0.9,0.5-1.6c0-0.2,0.1-0.3,0.1-0.4c0-0.1,0.1-0.2,0.1-0.3c0.2-0.9,0.3-1.7,0.3-2.5c0-0.9-0.1-1.8-0.3-2.8l-0.6-2.6
		l29.5-14.8l29.5,14.7l-0.6,2.6c-0.2,1-0.3,1.9-0.3,2.8c0,0.8,0.1,1.6,0.3,2.5c0,0.1,0,0.2,0.1,0.3c0,0.1,0.1,0.3,0.1,0.4
		c0.2,0.7,0.3,1.2,0.5,1.6c0.1,0.2,0.2,0.5,0.3,0.8l0,0.1c0.2,0.5,0.5,0.9,0.7,1.3c0.2,0.3,0.4,0.6,0.5,0.8c0.3,0.4,0.6,0.8,1,1.2
		c0.1,0.1,0.2,0.2,0.2,0.3c0.1,0.1,0.2,0.3,0.3,0.4c0.4,0.4,0.9,0.8,1.4,1.2c0.1,0.1,0.3,0.2,0.4,0.3l0.1,0c0.6,0.4,1.3,0.8,2,1.1
		l0.1,0c0.2,0.1,0.3,0.1,0.5,0.2l0.4,0.1c0.4,0.1,0.7,0.3,1,0.3l2.6,0.7v23.2l-2.6,0.7c-0.3,0.1-0.7,0.2-1,0.4l-0.3,0.1
		c-0.2,0.1-0.3,0.1-0.5,0.2c-0.1,0-0.1,0-0.2,0.1c-0.7,0.3-1.4,0.7-2,1.1l0,0c-0.1,0.1-0.3,0.2-0.4,0.3c-0.6,0.4-1,0.8-1.4,1.2
		c-0.1,0.1-0.2,0.2-0.3,0.3c-0.1,0.1-0.2,0.2-0.3,0.3c-0.4,0.4-0.7,0.8-1,1.2c-0.2,0.2-0.3,0.5-0.5,0.7c-0.3,0.4-0.5,0.9-0.7,1.3
		l0,0.1c-0.1,0.3-0.3,0.5-0.3,0.8c-0.2,0.4-0.3,0.9-0.5,1.6c0,0.2-0.1,0.3-0.1,0.4c0,0.1-0.1,0.2-0.1,0.3c-0.2,0.9-0.3,1.7-0.3,2.5
		c0,0.9,0.1,1.8,0.3,2.8l0.6,2.6l-17.7,8.8l-1.6-1.9c-0.1-0.1-0.2-0.2-0.4-0.4c-0.4-0.4-0.8-0.8-1.4-1.3c-0.1-0.1-0.2-0.2-0.3-0.2
		c-0.2-0.1-0.3-0.3-0.4-0.3c-0.4-0.3-0.9-0.6-1.5-0.9c-0.1-0.1-0.3-0.2-0.5-0.3c-0.1-0.1-0.3-0.2-0.4-0.2c-0.5-0.2-1.1-0.4-1.7-0.6
		c-0.2-0.1-0.4-0.1-0.6-0.2c-0.1,0-0.2-0.1-0.3-0.1c-0.7-0.2-1.4-0.2-2.1-0.3c-0.2,0-0.5,0-0.7,0c-0.9,0-1.8,0.1-2.8,0.3
		c-0.1,0-0.2,0-0.2,0.1c-0.2,0.1-0.4,0.1-0.6,0.2c-0.6,0.2-1.2,0.4-1.7,0.6c-0.1,0-0.2,0.1-0.4,0.2c-0.2,0.1-0.3,0.2-0.5,0.3
		c-0.5,0.3-1,0.6-1.5,0.9c-0.1,0.1-0.2,0.2-0.4,0.3c-0.1,0.1-0.2,0.2-0.3,0.2c-0.6,0.5-1,0.9-1.4,1.3c-0.1,0.1-0.2,0.2-0.4,0.4
		l-1.7,1.9l-18.8-9.4l1.4-3.1c0.7-1.5,1-3,1.1-4.6c0-0.2,0-0.5,0-0.7c0-1.8-0.4-3.5-1.1-5.1c-1.6-3.6-4.7-6.2-8.5-7.2l-3.2-0.7V82.3
		l2.9-0.8c0.1,0,0.3-0.1,0.4-0.2l0.4-0.1c0.1-0.1,0.3-0.1,0.5-0.2l0.1,0c0,0,0.1,0,0.1,0c0.7-0.3,1.4-0.7,2-1.1l0,0
		c0.2-0.1,0.3-0.2,0.4-0.3c0.5-0.4,1-0.8,1.4-1.2c0.1-0.1,0.2-0.2,0.3-0.3l0,0c0.1-0.1,0.2-0.2,0.2-0.3c0.4-0.4,0.7-0.8,1-1.2
		c0.1-0.2,0.3-0.4,0.5-0.8c0.2-0.3,0.4-0.6,0.6-1C206.8,74.6,206.8,74.5,206.9,74.3L206.9,74.3z M196,127.2c-0.6,0-1.2-0.1-1.9-0.2
		c-3.1-0.5-6-2.3-7.8-4.9l-0.4-0.6l-0.1-0.7c0-0.1,0-0.2,0-0.3c0,0,0-0.1,0-0.1c-0.7-1.6-1.1-3.2-1.1-4.9c0-3.3,1.4-6.4,3.8-8.6
		c2-1.8,4.6-2.9,7.4-3c0.1,0,0.2,0,0.3,0h0.1c0.9,0,1.8,0.1,2.7,0.4c0.5,0.1,1.1,0.3,1.6,0.5c4.3,1.8,7.1,6,7.1,10.7
		c0,1.5-0.3,3-0.9,4.4C204.9,124.3,200.7,127.2,196,127.2z M192,57.3c1-0.2,1.9-0.4,2.9-0.4c4.5,0,8.5,2.5,10.5,6.5l0.1,0.3
		c0.8,1.6,1.2,3.3,1.2,5.1c0,0.2,0,0.5,0,0.7c-0.2,3.4-1.9,6.6-4.6,8.7c-2.1,1.6-4.6,2.5-7.2,2.5c-1.3,0-2.6-0.2-3.8-0.6
		c-0.2-0.1-0.3-0.1-0.5-0.2c-3.9-1.5-6.8-5.1-7.4-9.3c-0.1-0.6-0.1-1.2-0.1-1.8c0-1,0.1-1.9,0.4-2.9C184.5,61.6,187.8,58.3,192,57.3
		z M155.2,34.7c0.6,0,1.2,0,1.8,0.1c1.8,0.3,3.4,0.9,4.9,2c1.9,1.3,3.4,3.2,4.2,5.4c0.5,1.3,0.8,2.7,0.8,4.1c0,1.7-0.4,3.3-1.1,4.9
		l0,0c0,0.1-0.1,0.1-0.1,0.2c-0.1,0.1-0.1,0.2-0.2,0.3c-1,1.8-2.4,3.3-4.1,4.4l-0.1,0.1c-0.1,0-0.1,0.1-0.2,0.1
		c-0.7,0.4-1.4,0.7-2.3,1l-0.1,0c-0.2,0.1-0.4,0.1-0.6,0.2c-1,0.3-2,0.4-2.9,0.4c-0.9,0-1.9-0.1-2.9-0.4c-0.2-0.1-0.4-0.1-0.6-0.2
		l-0.1,0c-0.8-0.3-1.6-0.6-2.3-1c-0.1-0.1-0.2-0.1-0.3-0.2c-1.7-1.1-3.1-2.6-4.1-4.4c-0.1-0.1-0.1-0.2-0.2-0.4
		c-0.7-1.4-1.1-2.9-1.2-4.4c0-0.2,0-0.4,0-0.7C143.6,40,148.8,34.7,155.2,34.7z M127.1,64l-0.6-2.6l17.3-8.7l1.7,1.8
		c0.1,0.1,0.2,0.2,0.3,0.3c0.4,0.4,0.8,0.9,1.4,1.3c0.1,0.1,0.2,0.2,0.3,0.3c0.1,0.1,0.2,0.2,0.2,0.2c0.4,0.3,0.9,0.6,1.5,0.9
		c0.2,0.1,0.3,0.2,0.5,0.3c0.1,0.1,0.2,0.1,0.3,0.2c0.5,0.2,1.1,0.4,1.7,0.6c0.2,0.1,0.4,0.1,0.6,0.2c0.1,0,0.1,0,0.2,0.1
		c0.7,0.1,1.3,0.2,2,0.3c1.1,0.1,2.2,0,3.3-0.3c0,0,0.1,0,0.2-0.1c0.2-0.1,0.4-0.1,0.6-0.2c0.6-0.2,1.3-0.4,1.8-0.6
		c0,0,0.1-0.1,0.3-0.1c0.2-0.1,0.3-0.2,0.5-0.3c0.5-0.3,1.1-0.6,1.5-0.9c0.1-0.1,0.2-0.1,0.2-0.2c0.1-0.1,0.2-0.2,0.3-0.3
		c0.6-0.4,1-0.9,1.4-1.3c0.1-0.1,0.2-0.2,0.3-0.3l1.6-1.9l17,8.5l-1.1,2.9c-0.1,0.2-0.1,0.4-0.2,0.6c-0.4,1.3-0.7,2.7-0.7,4.1
		c0,6,4.1,11.3,10,12.8l2.8,0.7l0,20.5l-2.6,0.8c-2.9,1-5.3,2.9-6.8,5.5c-0.5,0.8-0.9,1.7-1.2,2.7c-0.1,0.3-0.2,0.6-0.3,0.9
		c-0.2,1-0.4,2-0.4,3c0,0.9,0.1,1.7,0.3,2.7l0.6,2.6l-17.4,8.7l-1.6-1.9c-0.1-0.1-0.2-0.2-0.3-0.3c-0.4-0.4-0.8-0.8-1.4-1.3
		c-0.1-0.1-0.2-0.2-0.3-0.3c-0.1-0.1-0.2-0.2-0.3-0.2c-0.5-0.3-1-0.6-1.5-0.9c-0.2-0.1-0.3-0.2-0.5-0.3c-0.1-0.1-0.2-0.1-0.3-0.2
		c-0.5-0.2-1.1-0.4-1.7-0.6c-0.2-0.1-0.4-0.1-0.6-0.2c-0.1,0-0.1,0-0.2-0.1c-0.7-0.1-1.3-0.2-2-0.3c-1.1-0.1-2.2,0-3.3,0.3
		c0,0-0.1,0-0.2,0.1c-0.2,0.1-0.4,0.1-0.5,0.2c-0.7,0.2-1.3,0.4-1.8,0.6c-0.1,0-0.2,0.1-0.3,0.2c-0.2,0.1-0.3,0.2-0.5,0.3
		c-0.6,0.3-1.1,0.6-1.5,0.9c-0.1,0.1-0.2,0.1-0.3,0.2c-0.1,0.1-0.2,0.2-0.3,0.3c-0.6,0.5-1,0.9-1.4,1.3c-0.1,0.1-0.2,0.2-0.3,0.3
		l-1.6,1.9l-17.4-8.7l0.6-2.6c0.2-0.9,0.3-1.8,0.3-2.7c0-0.8-0.1-1.5-0.2-2.4c0-0.1,0-0.2-0.1-0.3c0-0.1-0.1-0.3-0.1-0.4
		c-0.2-0.7-0.3-1.1-0.5-1.5c-0.1-0.2-0.2-0.5-0.3-0.7l0-0.1c-0.2-0.5-0.4-0.9-0.7-1.3c-0.1-0.2-0.3-0.5-0.5-0.7
		c-0.2-0.3-0.5-0.7-1-1.1c-0.1-0.1-0.2-0.2-0.3-0.3c-0.1-0.1-0.2-0.2-0.3-0.3c-0.4-0.4-0.8-0.7-1.4-1.1c-0.1-0.1-0.2-0.2-0.4-0.3
		l0,0c-0.6-0.4-1.2-0.8-1.9-1.1l-0.1,0c-0.2-0.1-0.3-0.1-0.5-0.2l-0.3-0.1c-0.4-0.1-0.7-0.3-1-0.4l-2.6-0.7V79.8l2.6-0.7
		c0.3-0.1,0.6-0.2,0.9-0.3l0.3-0.1c0.1-0.1,0.3-0.1,0.5-0.2l0.1,0c0,0,0.1,0,0.1,0c0.7-0.3,1.3-0.7,2-1.1l0,0
		c0.1-0.1,0.3-0.2,0.4-0.3c0.5-0.4,1-0.7,1.4-1.1c0.1-0.1,0.2-0.2,0.3-0.3c0.1-0.1,0.2-0.2,0.2-0.3c0.4-0.4,0.7-0.8,0.9-1.1
		c0.2-0.2,0.3-0.5,0.5-0.7c0.2-0.4,0.5-0.8,0.7-1.3l0-0.1c0.1-0.3,0.2-0.5,0.3-0.7c0.1-0.3,0.2-0.6,0.3-1.1c0-0.1,0.1-0.3,0.1-0.5
		c0-0.2,0.1-0.3,0.1-0.4c0-0.1,0.1-0.2,0.1-0.3c0.1-0.7,0.2-1.3,0.2-1.8c0-0.2,0-0.4,0-0.6C127.3,65.8,127.2,64.9,127.1,64z
		 M166.9,135.9c0,6.4-5.2,11.6-11.6,11.6c-6.4,0-11.6-5.2-11.6-11.6c0-1.8,0.4-3.5,1.3-5.2c1-1.9,2.4-3.5,4.2-4.7
		c0.1-0.1,0.2-0.1,0.3-0.2c0.7-0.4,1.4-0.7,2.3-1l0.1,0c0.2-0.1,0.3-0.1,0.5-0.2c2.1-0.5,3.8-0.5,5.8,0c0.2,0.1,0.4,0.1,0.6,0.2
		l0.1,0c0.9,0.3,1.6,0.6,2.3,1c0.1,0,0.1,0.1,0.2,0.1l0.1,0.1c1.7,1.1,3.2,2.6,4.1,4.5c0,0.1,0.1,0.1,0.1,0.2l0.1,0.1
		c0.5,1,0.8,2.1,1,3.1C166.8,134.6,166.9,135.3,166.9,135.9z M126.2,115.6c0,1.8-0.4,3.5-1.3,5.2c-1,1.9-2.4,3.5-4.2,4.7l-0.1,0.1
		c-0.1,0-0.2,0.1-0.2,0.1c-0.7,0.4-1.5,0.7-2.3,1l-0.1,0c-0.2,0.1-0.4,0.1-0.6,0.2c-0.8,0.2-1.5,0.3-2.2,0.4c-0.2,0-0.5,0-0.7,0
		s-0.5,0-0.7,0c-0.7,0-1.4-0.2-2.2-0.4c-0.2-0.1-0.4-0.1-0.6-0.2l-0.1,0c-0.8-0.3-1.6-0.6-2.3-1c-0.1-0.1-0.2-0.1-0.3-0.2
		c-1.8-1.1-3.2-2.7-4.2-4.6c-0.8-1.7-1.3-3.4-1.3-5.2c0-6.4,5.2-11.6,11.6-11.6c5.7,0,10.6,4.2,11.5,9.9
		C126.1,114.4,126.2,115,126.2,115.6z M104.1,61.8c0-0.1,0.1-0.2,0.2-0.3c1.9-3.7,5.4-6,9.5-6.3c0.3,0,0.5,0,0.8,0
		c4.4,0,8.3,2.4,10.3,6.4l0.1,0.3c0.8,1.6,1.2,3.3,1.2,5c0,0.6,0,1.2-0.1,1.8c-0.9,5.6-5.8,9.9-11.5,9.9c-6.4,0-11.6-5.2-11.6-11.6
		C102.9,65,103.3,63.4,104.1,61.8z M21.5,66.7c0-6.4,5.2-11.6,11.6-11.6c4.4,0,8.3,2.4,10.3,6.4l0.1,0.3c0.8,1.6,1.2,3.3,1.2,5
		c0,6.4-5.2,11.6-11.6,11.6C26.7,78.3,21.5,73.1,21.5,66.7z M33.7,115.2V79.8l2.6-0.7c0.3-0.1,0.6-0.2,0.9-0.3l0.4-0.1
		c0.1-0.1,0.3-0.1,0.5-0.2l0.1,0c0,0,0,0,0.1,0c0.7-0.3,1.3-0.7,2-1.1l0,0c0.1-0.1,0.3-0.2,0.4-0.3c0.5-0.4,1-0.7,1.4-1.1
		c0.1-0.1,0.2-0.2,0.3-0.3c0.1-0.1,0.2-0.2,0.3-0.3c0.4-0.4,0.7-0.8,0.9-1.1c0,0,0.1-0.1,0.1-0.1c0.1-0.2,0.2-0.3,0.4-0.6
		c0.2-0.4,0.5-0.8,0.7-1.3l0-0.1c0.1-0.3,0.2-0.5,0.3-0.7c0.2-0.4,0.3-0.9,0.5-1.5c0-0.2,0.1-0.3,0.1-0.4c0-0.1,0.1-0.2,0.1-0.3
		c0.2-0.9,0.2-1.7,0.2-2.4c0-0.9-0.1-1.8-0.3-2.7l-0.6-2.6L73.8,47l28.8,14.4L102,64c-0.2,0.7-0.2,1.4-0.3,2c0,0.2,0,0.4,0,0.6
		c0,0.7,0.1,1.5,0.2,2.4c0,0.1,0,0.2,0.1,0.3c0,0.1,0.1,0.3,0.1,0.4c0.1,0.6,0.3,1,0.4,1.4c0,0.1,0,0.1,0.1,0.1
		c0.1,0.2,0.2,0.5,0.3,0.7l0,0.1c0.2,0.5,0.4,0.9,0.7,1.3c0.2,0.3,0.4,0.6,0.5,0.7c0.3,0.3,0.6,0.7,0.9,1.1c0.1,0.1,0.1,0.2,0.2,0.2
		c0.1,0.1,0.2,0.3,0.3,0.4c0.4,0.4,0.8,0.7,1.4,1.1c0.1,0.1,0.3,0.2,0.4,0.3l0,0c0.6,0.4,1.2,0.7,1.9,1l0.1,0
		c0.2,0.1,0.3,0.1,0.5,0.2l0.3,0.1c0.4,0.1,0.7,0.3,0.9,0.3l2.6,0.7v22.7l-2.6,0.7c-0.3,0.1-0.6,0.2-1,0.4l-0.3,0.1
		c-0.2,0.1-0.3,0.1-0.4,0.1c-0.1,0-0.1,0-0.2,0.1c-0.5,0.2-1,0.5-1.5,0.8c-0.1,0.1-0.3,0.2-0.4,0.3c0,0,0,0,0,0
		c-0.1,0.1-0.3,0.2-0.4,0.3c-0.5,0.4-1,0.8-1.4,1.1c-0.1,0.1-0.2,0.2-0.3,0.3c-0.1,0.1-0.2,0.2-0.3,0.3c-0.4,0.4-0.7,0.8-1,1.2
		c-0.1,0.2-0.3,0.4-0.5,0.7c-0.3,0.4-0.5,0.8-0.7,1.3l0,0.1c-0.1,0.3-0.2,0.5-0.3,0.7c-0.2,0.4-0.3,0.9-0.5,1.5
		c0,0.2-0.1,0.3-0.1,0.4c0,0.1-0.1,0.2-0.1,0.3c-0.2,0.9-0.2,1.7-0.2,2.4c0,0.9,0.1,1.7,0.3,2.7l0.6,2.6l-17.3,8.7l-1.6-1.9
		c-0.1-0.1-0.2-0.2-0.4-0.4c-0.4-0.4-0.8-0.8-1.3-1.2c-0.1-0.1-0.2-0.2-0.3-0.2c-0.2-0.1-0.3-0.3-0.4-0.3c-0.4-0.3-0.9-0.6-1.4-0.9
		c-0.1-0.1-0.3-0.2-0.5-0.3c-0.1-0.1-0.3-0.2-0.4-0.2c-0.5-0.2-1-0.4-1.7-0.6c-0.2-0.1-0.4-0.1-0.6-0.2c-0.1,0-0.2-0.1-0.2-0.1
		c-0.9-0.2-1.8-0.3-2.7-0.3c-0.9,0-1.8,0.1-2.7,0.3c0,0-0.1,0-0.2,0.1c-0.2,0.1-0.4,0.1-0.6,0.2c-0.6,0.2-1.2,0.3-1.6,0.5
		c-0.1,0-0.2,0.1-0.4,0.2c-0.2,0.1-0.3,0.2-0.5,0.3c-0.4,0.2-0.8,0.4-1.1,0.6c-0.1,0.1-0.2,0.1-0.3,0.2c-0.1,0.1-0.2,0.2-0.4,0.3
		c-0.1,0.1-0.2,0.2-0.3,0.2c-0.5,0.5-1,0.9-1.4,1.3c-0.1,0.1-0.2,0.2-0.3,0.3l-1.6,1.9L33.7,115.2z M62.2,135.8c0-1.7,0.4-3.4,1.2-5
		l0.1-0.3c0,0,0-0.1,0.1-0.1c0.9-1.8,2.4-3.3,4.1-4.4c0.1-0.1,0.3-0.2,0.4-0.2c0.7-0.4,1.4-0.7,2.2-1l0.2-0.1
		c0.2-0.1,0.4-0.1,0.6-0.2c2-0.5,3.7-0.5,5.8,0c0.1,0,0.3,0.1,0.5,0.2l0.2,0.1c0.8,0.3,1.6,0.6,2.2,1c0.1,0.1,0.2,0.1,0.4,0.2
		c1.8,1.1,3.2,2.8,4.2,4.7l0.4,0.7v0.1c0.6,1.4,0.9,2.9,0.9,4.3c0,6.4-5.2,11.6-11.6,11.6C67.4,147.4,62.2,142.2,62.2,135.8z
		 M84.3,189.7l-0.1,0.3c-2,3.9-6,6.4-10.3,6.4c-6.4,0-11.6-5.2-11.6-11.6c0-6.4,5.2-11.6,11.6-11.6c7.3,0,11.6,4.3,11.6,11.6
		C85.5,186.4,85.1,188.1,84.3,189.7z M142.7,187.4l0.6,2.6l-28.8,14.4l-28.8-14.4l0.6-2.6c0.2-0.9,0.3-1.8,0.3-2.7
		c0-0.9-0.1-1.8-0.2-2.8c0-0.1,0-0.2-0.1-0.3c0-0.2-0.1-0.3-0.1-0.5c-0.1-0.5-0.2-1.1-0.4-1.6c-0.1-0.2-0.1-0.4-0.2-0.6l-0.1-0.2
		c-0.2-0.4-0.3-0.7-0.5-1c-0.1-0.1-0.1-0.2-0.2-0.3c-0.1-0.2-0.3-0.5-0.5-0.7c-0.2-0.3-0.5-0.7-0.8-1l-0.1-0.1
		c-0.2-0.2-0.3-0.4-0.5-0.5c-0.3-0.3-0.8-0.6-1.1-0.9c-0.1-0.1-0.3-0.2-0.4-0.3c-0.1,0-0.1-0.1-0.2-0.1c-0.6-0.4-1.2-0.7-1.9-0.9
		c-0.1,0-0.2-0.1-0.3-0.1c-0.7-0.3-1.3-0.4-1.9-0.5l-2.8-0.6v-22.8l2.6-0.7c0.3-0.1,0.6-0.2,0.9-0.3l0.4-0.1
		c0.1-0.1,0.3-0.1,0.5-0.2l0.1,0c0,0,0,0,0.1,0c0.7-0.3,1.4-0.7,2-1.1l0,0c0.1-0.1,0.3-0.2,0.4-0.3c0.5-0.4,1-0.8,1.4-1.1
		c0.1-0.1,0.2-0.2,0.3-0.3c0.1-0.1,0.2-0.2,0.3-0.3c0.4-0.4,0.7-0.8,0.9-1.1c0.2-0.2,0.4-0.5,0.5-0.7c0.2-0.4,0.5-0.8,0.7-1.3l0-0.1
		c0.1-0.3,0.2-0.5,0.3-0.7c0.2-0.4,0.3-0.9,0.5-1.5c0-0.2,0.1-0.3,0.1-0.4c0-0.1,0.1-0.2,0.1-0.3c0.2-0.9,0.2-1.7,0.2-2.4
		c0-0.9-0.1-1.7-0.3-2.6l-0.5-2.6l17.4-8.7l1.6,1.9c0.1,0.1,0.2,0.2,0.3,0.3c0.4,0.4,0.8,0.9,1.4,1.3c0.1,0.1,0.2,0.2,0.3,0.3
		c0.1,0.1,0.2,0.2,0.3,0.2c0.4,0.3,0.9,0.6,1.5,0.9c0.2,0.1,0.3,0.2,0.5,0.3c0.1,0.1,0.2,0.1,0.3,0.2c0.5,0.2,1.1,0.4,1.7,0.6
		c0.2,0.1,0.4,0.1,0.6,0.2c0.1,0,0.1,0,0.2,0.1c0.9,0.2,1.8,0.3,2.6,0.3c0.9,0,1.7-0.1,2.6-0.3c0,0,0.1,0,0.2-0.1
		c0.2-0.1,0.4-0.1,0.6-0.2c0.6-0.2,1.3-0.4,1.8-0.6c0,0,0.1-0.1,0.2-0.1c0.2-0.1,0.3-0.2,0.5-0.3c0.5-0.3,1.1-0.6,1.5-0.9
		c0.1-0.1,0.2-0.1,0.2-0.2c0.1-0.1,0.2-0.2,0.3-0.3c0.6-0.5,1-0.9,1.4-1.3c0.1-0.1,0.2-0.2,0.3-0.3l1.7-1.9l17.3,8.7l-0.6,2.6
		c-0.2,0.9-0.3,1.8-0.3,2.7c0,0.7,0.1,1.5,0.2,2.4c0,0.1,0,0.2,0.1,0.3c0,0.1,0.1,0.3,0.1,0.4c0.2,0.7,0.3,1.1,0.5,1.5
		c0.1,0.2,0.2,0.5,0.3,0.7l0,0.1c0.2,0.5,0.4,0.9,0.7,1.3c0.2,0.2,0.3,0.5,0.5,0.7c0.3,0.3,0.6,0.7,1,1.1c0.1,0.1,0.1,0.2,0.2,0.2
		c0.1,0.1,0.2,0.3,0.3,0.3c0.4,0.4,0.8,0.7,1.4,1.1c0.1,0.1,0.3,0.2,0.4,0.3l0,0c0.6,0.4,1.2,0.8,2,1.1l0.1,0
		c0.2,0.1,0.3,0.1,0.5,0.2l0.4,0.1c0.3,0.1,0.7,0.3,0.9,0.3l2.6,0.7v22.7l-2.6,0.7c-0.3,0.1-0.6,0.2-1,0.4l-0.3,0.1
		c-0.2,0.1-0.3,0.1-0.4,0.1c-0.1,0-0.1,0-0.2,0.1c-0.7,0.3-1.3,0.6-1.9,1l0,0c-0.1,0.1-0.3,0.2-0.4,0.3c-0.5,0.4-1,0.8-1.4,1.1
		c-0.1,0.1-0.2,0.2-0.3,0.3c-0.1,0.1-0.2,0.2-0.3,0.3c-0.4,0.4-0.7,0.8-1,1.2c-0.2,0.2-0.3,0.5-0.5,0.7c-0.3,0.4-0.5,0.8-0.7,1.3
		l0,0.1c-0.1,0.3-0.2,0.5-0.3,0.7c-0.2,0.4-0.3,0.9-0.5,1.5c0,0.2-0.1,0.3-0.1,0.4c0,0.1-0.1,0.2-0.1,0.3c-0.2,0.9-0.2,1.7-0.2,2.4
		C142.5,185.6,142.5,186.5,142.7,187.4z M166.8,185.9c-0.3,2.7-1.5,5.2-3.5,7.1c-2.2,2.1-5.1,3.3-8.1,3.3c-0.3,0-0.5,0-0.8,0
		c-4.1-0.3-7.6-2.6-9.5-6.3c-0.1-0.1-0.1-0.2-0.2-0.3c-0.8-1.6-1.2-3.3-1.2-4.9c0-6.4,5.2-11.6,11.6-11.6c4.8,0,9,2.9,10.8,7.3
		c0.5,1.2,0.8,2.5,0.8,3.7c0,0.2,0,0.4,0,0.6C166.9,185.1,166.9,185.5,166.8,185.9z M167.4,189.3l0.4-2.1c0.2-0.8,0.2-1.6,0.2-2.4
		c0-5.8-3.9-10.9-9.6-12.3l-2.6-0.7v-22.8l2.6-0.7c5.3-1.4,9.1-5.9,9.6-11.3c0-0.4,0-0.7,0-1.1c0-0.9-0.1-1.8-0.3-2.7l-0.6-2.6
		l17.4-8.7l1.8,2c2.5,2.8,6,4.4,9.6,4.4c0.7,0,1.3-0.1,2-0.1c1.9-0.3,3.7-1,5.4-2.2l1.7-1.2l19.4,9.7l-0.5,2.6
		c-0.2,0.9-0.3,1.8-0.3,2.7c0,0.7,0.1,1.5,0.2,2.2c0.9,5.1,4.7,9.3,9.8,10.6l2.6,0.7v23.4l-2.6,0.7c-5.9,1.5-10,6.8-10,12.8
		c0,0.8,0.1,1.6,0.3,2.5l0.5,2.6l-17.7,8.8l-1.8-2c-0.5-0.5-1-1.1-1.5-1.5c-2.4-2-5.4-3.1-8.4-3.1c-2.2,0-4.2,0.5-6.2,1.6
		c-0.2,0.1-0.4,0.2-0.5,0.3c-0.5,0.3-1,0.7-1.5,1l-2.1,1.7L167.4,189.3z M194.3,222.7c-4.9-0.2-9.2-3.6-10.7-8.3
		c-0.4-1.1-0.5-2.3-0.5-3.5c0-2.6,0.8-5.1,2.4-7.1c2.3-3,5.7-4.7,9.5-4.7c2.5,0,4.9,0.8,7,2.3c0.1,0,0.1,0.1,0.1,0.1
		c1.4,1.1,2.6,2.5,3.4,4.1l0.1,0.3c0.5,1,0.8,2.1,1,3.1c0.1,0.6,0.2,1.3,0.2,1.9c0,0.4,0,0.8-0.1,1.3c-0.5,4.6-3.6,8.5-8,10
		c-1.2,0.4-2.5,0.6-3.8,0.6C194.7,222.7,194.5,222.7,194.3,222.7z M195.6,260.7v-36.3l2.6-0.7c0.3-0.1,0.6-0.2,1-0.3l0.4-0.1
		c0.1-0.1,0.3-0.1,0.5-0.2l0.1,0c0,0,0.1,0,0.1,0c0.7-0.3,1.4-0.7,2-1.1l0,0c0.1-0.1,0.3-0.2,0.4-0.3c0.5-0.4,1-0.8,1.4-1.2
		c0.1-0.1,0.2-0.2,0.3-0.3c0.1-0.1,0.2-0.2,0.3-0.3c0.4-0.4,0.7-0.8,1-1.2c0.1-0.2,0.3-0.4,0.5-0.8c0.2-0.3,0.4-0.6,0.6-1
		c0.1-0.1,0.1-0.2,0.2-0.4l0-0.1c0.1-0.3,0.3-0.5,0.3-0.7c0.2-0.4,0.3-0.9,0.5-1.6c0-0.2,0.1-0.3,0.1-0.4c0-0.1,0.1-0.3,0.1-0.3
		c0.1-0.7,0.2-1.3,0.2-1.9c0-0.2,0-0.4,0-0.6c0-0.2,0-0.4,0-0.6c0-0.6-0.1-1.2-0.2-1.9l-0.5-2.6l17.7-8.8l1.8,2
		c2.6,2.9,6.2,4.6,9.9,4.6c3,0,6-1.1,8.4-3.1c0.6-0.5,1.1-1,1.5-1.5l1.8-2l17.7,8.8l-0.5,2.6c-0.1,0.7-0.2,1.3-0.2,1.9
		c0,0.2,0,0.4,0,0.6c0,0.8,0.1,1.6,0.3,2.5c0,0.1,0,0.2,0.1,0.3c0,0.1,0.1,0.3,0.1,0.4c0.2,0.7,0.3,1.2,0.5,1.6
		c0.1,0.2,0.2,0.5,0.3,0.8l0,0.1c0.2,0.5,0.5,0.9,0.7,1.3c0.1,0.2,0.3,0.5,0.5,0.8c0.3,0.4,0.6,0.8,1,1.2c0.1,0.1,0.2,0.2,0.2,0.3
		c0.1,0.1,0.2,0.3,0.3,0.4c0.4,0.4,0.9,0.8,1.4,1.2c0.1,0.1,0.3,0.2,0.4,0.3l0.1,0c0.6,0.4,1.3,0.8,2,1.1c0,0,0,0,0,0l0.1,0
		c0.2,0.1,0.3,0.1,0.5,0.2l0.4,0.1c0.4,0.1,0.7,0.3,1,0.3l2.6,0.7v23.2l-2.6,0.7c-0.3,0.1-0.7,0.2-1.1,0.4l-0.3,0.1
		c-0.2,0.1-0.3,0.1-0.5,0.2c-0.1,0-0.1,0-0.2,0.1c-0.7,0.3-1.4,0.7-2,1.1l0,0c-0.1,0.1-0.3,0.2-0.4,0.3c-0.6,0.4-1,0.8-1.4,1.2
		c-0.1,0.1-0.2,0.2-0.3,0.3c-0.1,0.1-0.2,0.2-0.3,0.3c-0.4,0.4-0.7,0.8-1,1.2c-0.2,0.2-0.3,0.5-0.5,0.7c-0.3,0.4-0.5,0.9-0.7,1.3
		l0,0.1c-0.1,0.3-0.3,0.5-0.3,0.8c-0.2,0.4-0.3,0.9-0.5,1.6c0,0.2-0.1,0.3-0.1,0.4c0,0.1-0.1,0.2-0.1,0.3c-0.2,0.9-0.3,1.7-0.3,2.5
		c0,0.9,0.1,1.8,0.3,2.8l0.6,2.6l-17.7,8.8l-1.6-1.9c-0.1-0.1-0.2-0.2-0.4-0.4c-0.4-0.4-0.8-0.8-1.4-1.3c-0.1-0.1-0.2-0.2-0.3-0.2
		c-0.2-0.1-0.3-0.3-0.4-0.3c-0.4-0.3-0.9-0.6-1.5-0.9c-0.1-0.1-0.3-0.2-0.5-0.3c-0.1-0.1-0.3-0.2-0.4-0.2c-0.5-0.2-1.1-0.4-1.7-0.6
		c-0.2-0.1-0.4-0.1-0.6-0.2c-0.1,0-0.2-0.1-0.3-0.1c-0.9-0.2-1.9-0.3-2.8-0.3c-0.9,0-1.8,0.1-2.8,0.3c-0.1,0-0.2,0.1-0.2,0.1
		c-0.2,0.1-0.4,0.1-0.6,0.2c-0.6,0.2-1.2,0.4-1.7,0.6c-0.1,0-0.2,0.1-0.4,0.2c-0.2,0.1-0.3,0.2-0.5,0.3c-0.5,0.3-1,0.6-1.5,0.9
		c-0.1,0.1-0.2,0.2-0.4,0.3c-0.1,0.1-0.2,0.2-0.3,0.2c-0.6,0.5-1,0.9-1.4,1.3c-0.1,0.1-0.3,0.3-0.4,0.3l-1.6,1.9L195.6,260.7z
		 M225,282c0-1.7,0.4-3.5,1.2-5.1l0.1-0.3c0,0,0-0.1,0.1-0.1c1-1.8,2.4-3.4,4.1-4.5c0.1-0.1,0.3-0.2,0.4-0.2c0.7-0.4,1.4-0.7,2.3-1
		l0.2-0.1c0.2-0.1,0.4-0.1,0.6-0.2c1-0.3,2-0.4,2.9-0.4c0.9,0,1.9,0.1,3,0.4c0.2,0,0.3,0.1,0.5,0.2l0.2,0.1c0.9,0.3,1.6,0.6,2.3,1
		c0.1,0.1,0.3,0.1,0.4,0.2c1.8,1.2,3.3,2.8,4.3,4.8l0.4,0.7v0.1c0.6,1.4,0.9,2.9,0.9,4.4c0,6.5-5.3,11.9-11.9,11.9
		C230.3,293.8,225,288.5,225,282z M247.5,337.4l-0.1,0.3c-2,4-6.1,6.5-10.5,6.5c-6.5,0-11.9-5.3-11.9-11.9c0-6.5,5.3-11.9,11.9-11.9
		c6.2,0,10.4,3.1,11.6,8.6c0.2,1,0.3,2.1,0.3,3.2C248.7,334.1,248.3,335.8,247.5,337.4z M308.6,326.8c-0.1,0.3-0.2,0.5-0.3,0.7
		c-0.2,0.4-0.3,0.9-0.5,1.6c0,0.2-0.1,0.3-0.1,0.4c0,0.1-0.1,0.3-0.1,0.3c-0.2,0.9-0.3,1.7-0.3,2.5c0,0.9,0.1,1.8,0.3,2.8l0.6,2.6
		l-29.5,14.7l-29.5-14.7l0.6-2.6c0.2-0.9,0.3-1.9,0.3-2.8c0-0.9-0.1-1.8-0.2-2.9c0-0.1,0-0.2-0.1-0.3c0-0.2-0.1-0.3-0.1-0.5
		c-0.1-0.5-0.3-1.1-0.4-1.7c-0.1-0.2-0.2-0.4-0.3-0.6l-0.1-0.2c-0.2-0.5-0.4-0.9-0.7-1.3c-0.1-0.2-0.3-0.5-0.5-0.7
		c-0.2-0.3-0.5-0.7-0.9-1.1l-0.1-0.1c-0.2-0.2-0.3-0.4-0.5-0.5c-0.4-0.3-0.8-0.7-1.2-0.9c-0.1-0.1-0.3-0.2-0.4-0.3
		c-0.1-0.1-0.1-0.1-0.2-0.1c-0.7-0.4-1.3-0.7-1.9-1c-0.1,0-0.2-0.1-0.3-0.1c-0.7-0.3-1.4-0.4-2-0.6l-2.8-0.6v-23.3l2.6-0.7
		c0.3-0.1,0.6-0.2,1-0.3l0.4-0.1c0.1-0.1,0.3-0.1,0.5-0.2l0.1,0c0,0,0.1,0,0.1,0c0.7-0.3,1.4-0.7,2-1.1l0.1,0
		c0.1-0.1,0.3-0.2,0.4-0.3c0.5-0.4,1-0.8,1.4-1.2c0.1-0.1,0.2-0.2,0.3-0.3c0.1-0.1,0.2-0.2,0.3-0.3c0.4-0.5,0.7-0.8,1-1.2
		c0.2-0.3,0.4-0.5,0.5-0.8c0.3-0.4,0.5-0.8,0.7-1.3l0-0.1c0.1-0.3,0.3-0.5,0.3-0.8c0.2-0.4,0.3-0.9,0.5-1.6c0-0.2,0.1-0.3,0.1-0.4
		c0-0.1,0.1-0.2,0.1-0.3c0.1-0.7,0.2-1.3,0.2-1.9c0-0.2,0-0.4,0-0.6c0-0.9-0.1-1.8-0.3-2.7l-0.5-2.6l17.8-8.9l1.6,1.9
		c0.1,0.1,0.2,0.2,0.3,0.3c0.4,0.4,0.9,0.9,1.5,1.4c0.1,0.1,0.2,0.2,0.3,0.3c0.1,0.1,0.2,0.2,0.3,0.2c0.4,0.3,1,0.6,1.6,0.9
		c0.2,0.1,0.3,0.2,0.5,0.3c0.1,0.1,0.2,0.1,0.3,0.2c0.5,0.2,1.1,0.4,1.8,0.6c0.2,0.1,0.4,0.1,0.6,0.2c0.1,0,0.1,0,0.2,0.1
		c0.7,0.1,1.4,0.2,2.1,0.3c1.2,0.1,2.3,0,3.4-0.3c0,0,0.1,0,0.2-0.1c0.2-0.1,0.4-0.1,0.6-0.2c0.6-0.2,1.3-0.4,1.8-0.6
		c0,0,0.2-0.1,0.3-0.2c0.2-0.1,0.3-0.2,0.5-0.3c0.5-0.3,1.1-0.6,1.6-0.9c0.1-0.1,0.2-0.1,0.3-0.2c0.1-0.1,0.2-0.2,0.3-0.3
		c0.6-0.5,1.1-0.9,1.5-1.4c0.1-0.1,0.2-0.2,0.3-0.3l1.7-1.9l17.7,8.9l-0.6,2.6c-0.2,1-0.3,1.9-0.3,2.8c0,0.8,0.1,1.6,0.3,2.5
		c0,0.1,0,0.2,0.1,0.3c0,0.1,0.1,0.3,0.1,0.4c0.2,0.7,0.3,1.2,0.5,1.6c0.1,0.2,0.2,0.5,0.3,0.8l0,0.1c0.2,0.5,0.5,0.9,0.7,1.3
		c0.2,0.3,0.3,0.5,0.5,0.8c0.3,0.4,0.6,0.8,1,1.2c0.1,0.1,0.1,0.2,0.2,0.3c0.1,0.1,0.2,0.3,0.3,0.4c0.4,0.4,0.9,0.8,1.4,1.2
		c0.1,0.1,0.3,0.2,0.4,0.3l0.1,0c0.6,0.4,1.3,0.8,2,1.1c0,0,0,0,0,0l0.1,0c0.2,0.1,0.3,0.1,0.5,0.2l0.4,0.1c0.4,0.1,0.7,0.3,1,0.3
		l2.6,0.7v23.2l-2.6,0.7c-0.3,0.1-0.7,0.2-1,0.4l-0.3,0.1c-0.2,0.1-0.3,0.1-0.5,0.1c-0.1,0-0.1,0-0.2,0.1c-0.7,0.3-1.4,0.7-2,1.1
		l0,0c-0.1,0.1-0.3,0.2-0.4,0.3c-0.5,0.4-1,0.8-1.4,1.2c-0.1,0.1-0.2,0.2-0.3,0.3c-0.1,0.1-0.2,0.2-0.3,0.3c-0.4,0.4-0.7,0.8-1,1.2
		c-0.2,0.2-0.3,0.5-0.5,0.7C309.1,325.8,308.9,326.2,308.6,326.8L308.6,326.8z M332.5,332.3c0,6.5-5.3,11.9-11.9,11.9
		c-4.4,0-8.5-2.5-10.5-6.5c-0.1-0.1-0.1-0.2-0.2-0.3c-0.8-1.6-1.2-3.3-1.2-5.1c0-6.5,5.3-11.9,11.9-11.9
		C327.2,320.5,332.5,325.8,332.5,332.3z M320.6,293.9c-6.5,0-11.9-5.3-11.9-11.9c0-1.8,0.4-3.6,1.3-5.3c1-1.9,2.5-3.6,4.3-4.7
		c0.1-0.1,0.2-0.1,0.3-0.2c0.7-0.4,1.5-0.7,2.3-1l0.1,0c0.2-0.1,0.4-0.1,0.5-0.2c2.1-0.6,3.9-0.6,6,0c0.2,0.1,0.4,0.1,0.6,0.2l0.1,0
		c0.9,0.3,1.6,0.6,2.3,1c0.1,0,0.1,0.1,0.2,0.1l0.1,0.1c1.8,1.1,3.2,2.7,4.2,4.6c0,0.1,0.1,0.1,0.1,0.2l0.1,0.1
		c0.1,0.2,0.2,0.4,0.3,0.6c0.6,1.5,0.9,3,0.9,4.5C332.5,288.6,327.2,293.9,320.6,293.9z M349.5,263.9l0.6,2.6l-17.8,8.9l-1.6-1.9
		c-0.1-0.1-0.2-0.2-0.3-0.3c-0.4-0.4-0.9-0.9-1.5-1.4c-0.1-0.1-0.2-0.2-0.3-0.3c-0.1-0.1-0.2-0.2-0.3-0.2c-0.5-0.3-1-0.7-1.6-0.9
		c-0.2-0.1-0.3-0.2-0.5-0.3c-0.1-0.1-0.2-0.1-0.3-0.2c-0.5-0.2-1.1-0.4-1.8-0.6c-0.2-0.1-0.4-0.1-0.6-0.2c-0.1,0-0.1-0.1-0.2-0.1
		c-1-0.2-1.9-0.3-2.8-0.3c-0.9,0-1.8,0.1-2.8,0.3c0,0-0.1,0-0.2,0.1c-0.2,0.1-0.4,0.1-0.5,0.2c-0.7,0.2-1.3,0.4-1.9,0.6
		c-0.1,0-0.2,0.1-0.3,0.2c-0.2,0.1-0.3,0.2-0.5,0.3c-0.6,0.3-1.2,0.6-1.6,0.9c-0.1,0.1-0.2,0.1-0.3,0.2c-0.1,0.1-0.2,0.2-0.3,0.3
		c-0.6,0.5-1.1,0.9-1.5,1.4c-0.1,0.1-0.2,0.2-0.3,0.3l-1.6,1.9l-17.8-8.9l0.6-2.6c0.2-0.9,0.3-1.9,0.3-2.8c0-0.8-0.1-1.6-0.3-2.5
		c0-0.1-0.1-0.2-0.1-0.3c0-0.1-0.1-0.3-0.1-0.4c-0.2-0.7-0.3-1.2-0.5-1.6c-0.1-0.2-0.2-0.5-0.3-0.8l0-0.1c-0.2-0.5-0.5-0.9-0.7-1.3
		c-0.1-0.2-0.3-0.5-0.5-0.8c-0.2-0.3-0.6-0.7-1-1.2c-0.1-0.1-0.2-0.2-0.3-0.3c-0.1-0.1-0.2-0.2-0.3-0.3c-0.4-0.4-0.9-0.8-1.4-1.2
		c-0.1-0.1-0.2-0.2-0.4-0.3l-0.1,0c-0.6-0.4-1.3-0.8-2-1.1c0,0-0.1,0-0.1,0c-0.2-0.1-0.3-0.1-0.5-0.2l-0.3-0.1
		c-0.4-0.1-0.8-0.3-1.1-0.4l-2.6-0.7v-23.2l2.6-0.7c0.3-0.1,0.6-0.2,1-0.3l0.4-0.1c0.1-0.1,0.3-0.1,0.5-0.2l0.1,0c0,0,0.1,0,0.1,0
		c0.7-0.3,1.4-0.7,2-1.1l0,0c0.1-0.1,0.3-0.2,0.4-0.3c0.5-0.4,1-0.8,1.4-1.2c0.1-0.1,0.2-0.2,0.3-0.3c0.1-0.1,0.2-0.2,0.3-0.3
		c0.4-0.4,0.7-0.8,1-1.2c0.2-0.2,0.3-0.5,0.5-0.8c0.3-0.4,0.5-0.8,0.7-1.3l0-0.1c0.1-0.3,0.2-0.5,0.3-0.7c0.2-0.4,0.3-0.9,0.5-1.6
		c0-0.2,0.1-0.3,0.1-0.4c0-0.1,0.1-0.2,0.1-0.3c0.2-0.9,0.3-1.7,0.3-2.5c0-0.8-0.1-1.6-0.3-2.5l-0.5-2.6l17.7-8.8l1.8,2
		c1.7,2,4,3.4,6.5,4.1c1.1,0.3,2.3,0.5,3.5,0.5c3,0,6-1.1,8.4-3.1c0.6-0.5,1.1-1,1.5-1.5l1.8-2l16.9,8.5l-0.3,1.3
		c-0.2,0.9-0.3,1.7-0.3,2.6c0,5.8,3.9,10.9,9.6,12.3l2.6,0.7v0.3c0.3,0,0.5,0,0.8,0c0,0,0.1,0,0.1,0v25.1l-2.6,0.7
		c-5.9,1.5-10,6.8-10,12.8C349.2,262,349.3,262.9,349.5,263.9z M374.4,261.1c0,6.5-5.3,11.9-11.9,11.9c-3.9,0-7.6-1.9-9.8-5.2
		l-0.4-0.6l-0.1-0.7c0-0.1,0-0.2,0-0.3c0,0,0-0.1,0-0.1c-0.8-1.6-1.2-3.3-1.2-5c0-0.4,0-0.8,0.1-1.2c0.6-5.9,5.3-10.4,11.3-10.6
		c0.1,0,0.2,0,0.3,0h0.1C369.2,249.4,374.4,254.7,374.4,261.1z M361.5,220.9c-6.4,0-11.6-5.2-11.6-11.6c0-1.7,0.4-3.4,1.2-5l0.1-0.3
		c0,0,0-0.1,0.1-0.1c1-1.8,2.4-3.3,4.1-4.4c0.1-0.1,0.3-0.2,0.4-0.2c0.7-0.4,1.4-0.7,2.2-1l0.2-0.1c0.2-0.1,0.4-0.1,0.6-0.2
		c2-0.5,3.7-0.5,5.8,0c0.1,0,0.3,0.1,0.5,0.2l0.2,0.1c0.8,0.3,1.6,0.6,2.3,1c0.1,0.1,0.2,0.1,0.4,0.2c1.8,1.1,3.2,2.8,4.2,4.7
		l0.4,0.7v0.1c0.6,1.4,0.9,2.9,0.9,4.3C373.1,215.7,367.9,220.9,361.5,220.9z M389.7,191.7l0.6,2.6L373,203l-1.6-1.9
		c-0.1-0.1-0.2-0.2-0.4-0.4c-0.4-0.4-0.8-0.8-1.3-1.2c-0.1-0.1-0.2-0.2-0.3-0.2c-0.2-0.1-0.3-0.3-0.4-0.3c-0.4-0.3-0.9-0.6-1.4-0.9
		c-0.1-0.1-0.3-0.2-0.5-0.3c-0.1-0.1-0.3-0.2-0.4-0.2c-0.5-0.2-1.1-0.4-1.7-0.6c-0.2-0.1-0.4-0.1-0.6-0.2c-0.1,0-0.2-0.1-0.2-0.1
		c-0.9-0.2-1.8-0.3-2.7-0.3c-0.9,0-1.8,0.1-2.7,0.3c0,0-0.1,0-0.2,0.1c-0.2,0.1-0.4,0.1-0.6,0.2c-0.6,0.2-1.2,0.3-1.6,0.5
		c-0.1,0-0.2,0.1-0.4,0.2c-0.2,0.1-0.3,0.2-0.5,0.3c-0.4,0.2-0.8,0.4-1.1,0.6c-0.1,0.1-0.2,0.1-0.3,0.2c-0.1,0.1-0.2,0.2-0.4,0.3
		c-0.1,0.1-0.2,0.2-0.3,0.2c-0.6,0.5-1,0.9-1.4,1.3c-0.1,0.1-0.2,0.2-0.3,0.3l-1.2,1.4c-0.2,0.5-0.4,0.9-0.6,1.3l-16.8-8.4l0.5-2.6
		c0.2-0.9,0.3-1.7,0.3-2.5l0-0.2V190c0,0,0-0.1,0-0.2c0-6-4.1-11.2-10-12.8l-2.5-0.7v-23l2.5-0.7c5.9-1.5,10-6.8,10-12.8
		c0-0.9-0.1-1.8-0.3-2.8l-0.5-2.5l17.8-8.9l1.7,1.9c2.6,2.9,6.2,4.6,9.9,4.6c4.6,0,8.6-2.3,11-5.9l16.7,8.4l-0.6,2.6
		c-0.1,0.7-0.2,1.4-0.3,2c0,0.2,0,0.4,0,0.7c0,0.7,0.1,1.5,0.2,2.4c0,0.1,0,0.2,0.1,0.3c0,0.1,0.1,0.3,0.1,0.4
		c0.1,0.6,0.3,1,0.4,1.4c0,0.1,0,0.1,0.1,0.1c0.1,0.2,0.2,0.5,0.3,0.7l0,0.1c0.2,0.5,0.4,0.9,0.7,1.3c0.2,0.3,0.4,0.6,0.5,0.7
		c0.3,0.3,0.6,0.7,0.9,1.1c0.1,0.1,0.1,0.2,0.2,0.2c0.1,0.1,0.2,0.3,0.3,0.4c0.4,0.4,0.8,0.7,1.4,1.1c0.1,0.1,0.3,0.2,0.4,0.3l0,0
		c0.6,0.4,1.2,0.7,1.9,1l0.1,0c0.2,0.1,0.3,0.1,0.5,0.2l0.4,0.1c0.4,0.1,0.7,0.3,0.9,0.3l2.6,0.7v22.7l-2.6,0.7
		c-0.3,0.1-0.6,0.2-1,0.4l-0.3,0.1c-0.2,0.1-0.3,0.1-0.4,0.1c-0.1,0-0.1,0-0.2,0.1c-0.5,0.2-1,0.5-1.5,0.8c-0.1,0.1-0.3,0.2-0.4,0.3
		c0,0,0,0,0,0c-0.1,0.1-0.3,0.2-0.4,0.3c-0.5,0.4-1,0.8-1.4,1.1c-0.1,0.1-0.2,0.2-0.3,0.3c-0.1,0.1-0.2,0.2-0.3,0.3
		c-0.4,0.4-0.7,0.8-1,1.2c-0.1,0.2-0.3,0.4-0.5,0.7c-0.3,0.4-0.5,0.8-0.7,1.3l0,0.1c-0.1,0.3-0.2,0.5-0.3,0.7
		c-0.2,0.4-0.3,0.9-0.5,1.5c0,0.2-0.1,0.3-0.1,0.4c0,0.1-0.1,0.2-0.1,0.3c-0.2,0.9-0.2,1.7-0.2,2.4
		C389.4,189.9,389.5,190.7,389.7,191.7z M412.6,194.2c-1,1.9-2.4,3.5-4.2,4.7l-0.1,0.1c-0.1,0-0.1,0.1-0.2,0.1
		c-0.7,0.4-1.5,0.7-2.3,1l-0.1,0c-0.2,0.1-0.4,0.1-0.6,0.2c-0.8,0.2-1.5,0.3-2.2,0.4c-0.2,0-0.5,0-0.7,0c-0.2,0-0.5,0-0.7,0
		c-0.7-0.1-1.4-0.2-2.2-0.4c-0.2-0.1-0.4-0.1-0.6-0.2l-0.1,0c-0.8-0.3-1.6-0.6-2.3-1c-0.1-0.1-0.2-0.1-0.3-0.2
		c-1.8-1.1-3.2-2.7-4.2-4.6c-0.8-1.7-1.3-3.4-1.3-5.2c0-6.4,5.2-11.6,11.6-11.6c5.7,0,10.6,4.2,11.5,9.9c0.1,0.6,0.1,1.2,0.1,1.8
		C413.8,190.7,413.4,192.5,412.6,194.2z M442.9,221c-6.4,0-11.6-5.2-11.6-11.6c0-1.8,0.4-3.5,1.3-5.2c1-1.9,2.4-3.5,4.2-4.7
		c0.1-0.1,0.2-0.1,0.3-0.2c0.7-0.4,1.4-0.7,2.3-1l0.1,0c0.2-0.1,0.4-0.1,0.5-0.2c2.1-0.5,3.8-0.5,5.8,0c0.2,0.1,0.4,0.1,0.6,0.2
		l0.1,0c0.9,0.3,1.6,0.6,2.3,1c0.1,0,0.1,0.1,0.2,0.1l0.1,0.1c1.7,1.1,3.2,2.6,4.1,4.5c0,0.1,0.1,0.1,0.1,0.2l0.1,0.1
		c0.5,1,0.8,2.1,1,3.1c0.1,0.6,0.2,1.3,0.2,1.9C454.5,215.7,449.3,221,442.9,221z M471.1,191.7l0.6,2.6l-17.4,8.7l-1.6-1.9
		c-0.1-0.1-0.2-0.2-0.3-0.3c-0.4-0.4-0.8-0.8-1.4-1.3c-0.1-0.1-0.2-0.2-0.3-0.3c-0.1-0.1-0.2-0.2-0.3-0.2c-0.5-0.3-1-0.6-1.5-0.9
		c-0.2-0.1-0.3-0.2-0.5-0.3c-0.1-0.1-0.2-0.1-0.3-0.2c-0.5-0.2-1.1-0.4-1.7-0.6c-0.2-0.1-0.4-0.1-0.6-0.2c-0.1,0-0.1,0-0.2-0.1
		c-0.7-0.1-1.3-0.2-2-0.3c-1.1-0.1-2.2,0-3.3,0.3c0,0-0.1,0-0.2,0.1c-0.2,0.1-0.4,0.1-0.5,0.2c-0.7,0.2-1.3,0.4-1.8,0.6
		c-0.1,0-0.2,0.1-0.3,0.1c-0.2,0.1-0.3,0.2-0.5,0.3c-0.6,0.3-1.1,0.6-1.5,0.9c-0.1,0.1-0.2,0.1-0.3,0.2c-0.1,0.1-0.2,0.2-0.3,0.3
		c-0.6,0.5-1,0.9-1.4,1.3c-0.1,0.1-0.2,0.2-0.3,0.3l-1.6,1.9l-17.4-8.7l0.6-2.6c0.2-0.9,0.3-1.8,0.3-2.7c0-0.8-0.1-1.5-0.2-2.4
		c0-0.1,0-0.2-0.1-0.3c0-0.1-0.1-0.3-0.1-0.4c-0.2-0.7-0.3-1.1-0.5-1.5c-0.1-0.2-0.2-0.5-0.3-0.7l0-0.1c-0.2-0.5-0.4-0.9-0.7-1.3
		c-0.1-0.2-0.3-0.5-0.5-0.7c-0.2-0.3-0.5-0.7-1-1.1c-0.1-0.1-0.2-0.2-0.3-0.3c-0.1-0.1-0.2-0.2-0.3-0.3c-0.4-0.4-0.8-0.7-1.4-1.1
		c-0.1-0.1-0.2-0.2-0.4-0.3l0,0c-0.6-0.4-1.2-0.8-1.9-1.1l-0.1,0c-0.2-0.1-0.3-0.1-0.5-0.2l-0.3-0.1c-0.4-0.1-0.7-0.3-1-0.4
		l-2.6-0.7v-22.7l2.6-0.7c0.3-0.1,0.6-0.2,0.9-0.3l0.4-0.1c0.1-0.1,0.3-0.1,0.5-0.2l0.1,0c0,0,0.1,0,0.1,0c0.7-0.3,1.3-0.7,2-1.1
		l0,0c0.1-0.1,0.3-0.2,0.4-0.3c0.5-0.4,1-0.8,1.4-1.1c0.1-0.1,0.2-0.2,0.3-0.3c0.1-0.1,0.2-0.2,0.2-0.3c0.4-0.4,0.7-0.8,0.9-1.1
		c0.2-0.2,0.3-0.5,0.5-0.7c0.2-0.4,0.5-0.8,0.7-1.3l0-0.1c0.1-0.3,0.2-0.5,0.3-0.7c0.1-0.3,0.2-0.6,0.3-1.1c0-0.1,0.1-0.3,0.1-0.5
		c0-0.2,0.1-0.3,0.1-0.4c0-0.1,0.1-0.2,0.1-0.3c0.1-0.7,0.2-1.3,0.2-1.8c0-0.2,0-0.4,0-0.6c0-0.9-0.1-1.8-0.3-2.7l-0.6-2.6l17.3-8.7
		l1.7,1.8c0.1,0.1,0.2,0.2,0.3,0.3c0.4,0.4,0.8,0.8,1.4,1.3c0.1,0.1,0.2,0.2,0.3,0.3c0.1,0.1,0.2,0.2,0.2,0.2
		c0.4,0.3,0.9,0.6,1.5,0.9c0.2,0.1,0.3,0.2,0.5,0.3c0.1,0.1,0.2,0.1,0.3,0.2c0.5,0.2,1.1,0.4,1.7,0.6c0.2,0.1,0.4,0.1,0.6,0.2
		c0.1,0,0.1,0,0.2,0.1c0.7,0.1,1.3,0.2,2,0.3c1.1,0.1,2.2,0,3.3-0.3c0,0,0.1,0,0.2-0.1c0.2-0.1,0.4-0.1,0.6-0.2
		c0.6-0.2,1.3-0.4,1.8-0.6c0,0,0.1-0.1,0.3-0.1c0.2-0.1,0.3-0.2,0.5-0.3c0.5-0.3,1.1-0.6,1.5-0.9c0.1-0.1,0.2-0.1,0.2-0.2
		c0.1-0.1,0.2-0.2,0.3-0.3c0.6-0.4,1-0.9,1.4-1.3c0.1-0.1,0.2-0.2,0.3-0.3l1.6-1.9l17,8.5l-1.1,2.9c-0.1,0.2-0.1,0.4-0.2,0.6
		c-0.4,1.3-0.7,2.7-0.7,4.1c0,6,4.1,11.3,10,12.8l2.8,0.7l0,20.5l-2.6,0.8c-2.9,1-5.3,2.9-6.8,5.5c-0.5,0.8-0.9,1.7-1.2,2.7
		c-0.1,0.3-0.2,0.6-0.3,0.9c-0.2,1-0.4,2-0.4,3C470.8,189.9,470.9,190.7,471.1,191.7z M483.6,200.6c-0.6,0-1.2-0.1-1.9-0.2
		c-3.1-0.5-6-2.3-7.8-4.9l-0.4-0.6l-0.1-0.7c0-0.1,0-0.2-0.1-0.3c0,0,0-0.1,0-0.1c-0.7-1.6-1.1-3.2-1.1-4.9c0-3.3,1.4-6.4,3.8-8.6
		c2-1.8,4.6-2.9,7.4-3c0.1,0,0.2,0,0.3,0h0.1c0.9,0,1.8,0.1,2.7,0.4c0.5,0.1,1.1,0.3,1.6,0.5c4.3,1.8,7.1,6,7.1,10.7
		c0,1.5-0.3,3-0.9,4.4C492.6,197.8,488.4,200.6,483.6,200.6z M524.5,225.2c-6.5,0-11.9-5.3-11.9-11.9c0-1.5,0.3-3,0.9-4.5
		c0.1-0.2,0.2-0.4,0.3-0.6l0.2-0.3c0,0,0,0,0-0.1c1-1.9,2.4-3.4,4.1-4.5c0.1-0.1,0.3-0.2,0.4-0.2c0.5-0.3,1.1-0.6,1.7-0.8
		c0.2-0.1,0.4-0.2,0.6-0.2l0.2-0.1c0.2-0.1,0.4-0.1,0.6-0.2c1-0.3,2-0.4,2.9-0.4c0.9,0,1.9,0.1,3,0.4c0.2,0,0.3,0.1,0.5,0.2l0.2,0.1
		c0.9,0.3,1.6,0.6,2.3,1c0.1,0.1,0.3,0.1,0.4,0.2c1.8,1.2,3.3,2.8,4.3,4.8l0.4,0.7v0.1c0.6,1.5,0.9,2.9,0.9,4.4
		C536.3,219.9,531,225.2,524.5,225.2z M577,197.7c-1,2-2.5,3.6-4.3,4.8l-0.1,0.1c-0.1,0.1-0.2,0.1-0.2,0.1c-0.7,0.4-1.5,0.8-2.3,1
		l-0.1,0c-0.2,0.1-0.4,0.1-0.6,0.2c-1.1,0.3-2,0.4-3,0.4c-0.9,0-1.9-0.1-3-0.4c-0.2-0.1-0.4-0.1-0.6-0.2l-0.1,0
		c-0.8-0.3-1.6-0.6-2.3-1c-0.1-0.1-0.2-0.1-0.3-0.2c-1.8-1.2-3.3-2.8-4.3-4.7c-0.9-1.7-1.3-3.5-1.3-5.3c0-0.2,0-0.4,0-0.6
		c0.3-4.9,3.6-9.2,8.3-10.7c2.3-0.7,4.8-0.7,7,0c4.7,1.5,8.1,5.8,8.3,10.7c0,0.2,0,0.4,0,0.6C578.2,194.3,577.8,196,577,197.7z
		 M535.1,410.9l-0.1,0.3c-2,4-6.1,6.5-10.5,6.5c-6.5,0-11.9-5.3-11.9-11.9s5.3-11.9,11.9-11.9c6.2,0,10.4,3.1,11.6,8.6
		c0.2,1,0.3,2.1,0.3,3.2C536.3,407.5,535.9,409.2,535.1,410.9z M602.3,223.7c-2.9-1.7-5-4.6-5.7-7.9c-0.1-0.3-0.1-0.5-0.1-0.8
		c-0.1-0.5-0.1-1-0.1-1.6c0-0.7,0.1-1.4,0.2-2c0.2-1.1,0.6-2.2,1.1-3.3c0.6-1.2,1.4-2.3,2.4-3.2c0.6-0.6,1.2-1.1,1.9-1.5
		c0.1-0.1,0.2-0.1,0.3-0.2c0.7-0.4,1.5-0.8,2.3-1l0.1,0c0.2-0.1,0.4-0.1,0.5-0.2c0.8-0.2,1.5-0.3,2.3-0.4c1.2-0.1,2.4,0,3.7,0.4
		c0.2,0,0.4,0.1,0.6,0.2l0.1,0c0.9,0.3,1.6,0.6,2.3,1c0.1,0,0.1,0.1,0.2,0.1l0.1,0.1c1.8,1.1,3.2,2.7,4.2,4.6c0,0.1,0.1,0.1,0.1,0.2
		l0.1,0.1c0.8,1.7,1.2,3.4,1.2,5.2c0,1-0.1,2.1-0.4,3.1c-0.8,3-2.8,5.6-5.5,7.2c-1.6,0.9-3.4,1.5-5.2,1.6c-0.3,0-0.5,0-0.8,0
		C606.2,225.3,604.2,224.7,602.3,223.7z M596.4,263.5c0.1-4.1,2.2-7.8,5.8-10c1.8-1.1,3.9-1.7,6.1-1.7c6.4,0,11.7,5.2,11.9,11.7
		l0,0.1l0,0.1c0,0.2,0,0.4,0,0.6c-0.1,1.5-0.5,2.9-1.2,4.2c-0.1,0.1-0.1,0.2-0.2,0.3c-1,1.9-2.4,3.4-4.2,4.5l-0.1,0.1
		c-0.1,0-0.1,0.1-0.2,0.1c-0.7,0.4-1.5,0.8-2.3,1l-0.1,0c-0.2,0.1-0.4,0.1-0.6,0.2c-1.1,0.3-2,0.4-3,0.4c-0.9,0-1.9-0.1-3-0.4
		c-0.2-0.1-0.4-0.1-0.6-0.2l-0.1,0c-0.9-0.3-1.6-0.6-2.3-1c-0.1-0.1-0.2-0.1-0.3-0.2c-1.7-1.1-3.2-2.6-4.2-4.5
		c-0.1-0.1-0.1-0.2-0.2-0.4c-0.8-1.6-1.2-3.2-1.2-4.8L596.4,263.5L596.4,263.5z M560.2,294.4c-3.1-1.9-5.2-5.2-5.6-8.8
		c0-0.4-0.1-0.9-0.1-1.3c0-0.4,0-0.9,0.1-1.3c0.1-1.3,0.5-2.5,1.1-3.8c0-0.1,0.1-0.2,0.2-0.3c0.8-1.6,2.1-3.1,3.5-4.2
		c1.5-1.1,3.3-1.9,5.1-2.2c0.6-0.1,1.2-0.1,1.9-0.1c2.5,0,4.9,0.8,7,2.3c1.5,1.1,2.7,2.5,3.6,4.2l0,0l0.1,0.3
		c0.7,1.4,1.1,2.9,1.2,4.4c0,0.2,0,0.4,0,0.6c0,0.4,0,0.8-0.1,1.3c-0.4,4-2.9,7.5-6.5,9.3c-1.7,0.8-3.4,1.2-5.3,1.2
		C564.2,296.1,562,295.5,560.2,294.4z M578.2,335.9c-0.2,1.3-0.6,2.7-1.2,3.9c-0.6,1.2-1.4,2.3-2.4,3.3c-0.6,0.6-1.2,1.1-1.9,1.5
		l-0.1,0.1c-0.1,0-0.2,0.1-0.2,0.1c-0.7,0.4-1.5,0.8-2.3,1l-0.1,0c-0.2,0.1-0.4,0.1-0.6,0.2c-1.1,0.3-2,0.4-3,0.4
		c-0.9,0-1.9-0.1-3-0.4c-0.2-0.1-0.4-0.1-0.6-0.2l-0.1,0c-0.8-0.3-1.6-0.6-2.3-1c-0.1-0.1-0.2-0.1-0.3-0.2c-1.6-1-2.9-2.4-3.9-4
		c-0.1-0.2-0.3-0.5-0.4-0.7c-0.9-1.7-1.3-3.5-1.3-5.3c0-6.5,5.3-11.9,11.9-11.9c6.5,0,11.9,5.3,11.9,11.9
		C578.2,335,578.2,335.4,578.2,335.9z M620.1,405.8c0,6.5-5.3,11.9-11.9,11.9c-4.4,0-8.5-2.5-10.5-6.5c-0.1-0.1-0.1-0.2-0.2-0.3
		c-0.8-1.6-1.2-3.3-1.2-5.1c0-6.5,5.3-11.9,11.9-11.9C614.8,393.9,620.1,399.2,620.1,405.8z M608.3,367.4c-6.5,0-11.9-5.3-11.9-11.9
		c0-1.8,0.4-3.6,1.3-5.3c1-1.9,2.5-3.6,4.3-4.7c0.1-0.1,0.2-0.1,0.3-0.2c0.7-0.4,1.5-0.7,2.3-1l0.1,0c0.2-0.1,0.4-0.1,0.5-0.2
		c2.1-0.6,3.9-0.6,6,0c0.2,0.1,0.4,0.1,0.6,0.2l0.1,0c0.9,0.3,1.6,0.6,2.3,1c0.1,0,0.1,0.1,0.2,0.1l0.1,0.1c1.8,1.1,3.2,2.7,4.2,4.6
		c0,0.1,0.1,0.1,0.1,0.2l0.1,0.1c0.1,0.2,0.2,0.4,0.3,0.6c0.6,1.5,0.9,3,0.9,4.5C620.1,362,614.8,367.4,608.3,367.4z M637.2,337.3
		l0.6,2.6l-17.8,8.9l-1.6-1.9c-0.1-0.1-0.2-0.2-0.3-0.3c-0.4-0.4-0.9-0.9-1.5-1.4c-0.1-0.1-0.2-0.2-0.3-0.3
		c-0.1-0.1-0.2-0.2-0.3-0.2c-0.5-0.3-1-0.7-1.6-0.9c-0.2-0.1-0.3-0.2-0.5-0.3c-0.1-0.1-0.2-0.1-0.3-0.2c-0.5-0.2-1.1-0.4-1.8-0.6
		c-0.2-0.1-0.4-0.1-0.6-0.2c-0.1,0-0.1,0-0.2-0.1c-1-0.2-1.9-0.3-2.8-0.3c-0.9,0-1.8,0.1-2.8,0.3c0,0-0.1,0-0.2,0.1
		c-0.2,0.1-0.4,0.1-0.6,0.2c-0.7,0.2-1.3,0.4-1.8,0.6c-0.1,0-0.2,0.1-0.3,0.2c-0.2,0.1-0.3,0.2-0.5,0.3c-0.6,0.3-1.2,0.6-1.6,0.9
		c-0.1,0.1-0.2,0.1-0.3,0.2c-0.1,0.1-0.2,0.2-0.3,0.3c-0.6,0.5-1.1,0.9-1.5,1.4c-0.1,0.1-0.2,0.2-0.3,0.3l-1.6,1.9l-17.8-8.9
		l0.6-2.6c0.2-0.9,0.3-1.9,0.3-2.8c0-0.8-0.1-1.6-0.3-2.5c0-0.1-0.1-0.2-0.1-0.3c0-0.1-0.1-0.3-0.1-0.4c-0.2-0.7-0.3-1.2-0.5-1.6
		c-0.1-0.2-0.2-0.5-0.3-0.8l0-0.1c-0.2-0.5-0.5-0.9-0.7-1.3c-0.1-0.2-0.3-0.5-0.5-0.8c-0.2-0.3-0.6-0.7-1-1.2
		c-0.1-0.1-0.2-0.2-0.3-0.3c-0.1-0.1-0.2-0.2-0.3-0.3c-0.4-0.4-0.9-0.8-1.4-1.2c-0.1-0.1-0.2-0.2-0.4-0.3l-0.1,0
		c-0.6-0.4-1.3-0.8-2-1.1c0,0-0.1,0-0.1,0c-0.2-0.1-0.3-0.1-0.5-0.2l-0.3-0.1c-0.4-0.2-0.8-0.3-1.1-0.4l-2.6-0.7v-23.2l2.6-0.7
		c0.3-0.1,0.6-0.2,1-0.3l0.4-0.1c0.1-0.1,0.3-0.1,0.5-0.2l0.1,0c0,0,0.1,0,0.1,0c0.7-0.3,1.4-0.7,2-1.1l0,0c0.1-0.1,0.3-0.2,0.4-0.3
		c0.5-0.4,1-0.8,1.4-1.2c0.1-0.1,0.2-0.2,0.3-0.3c0.1-0.1,0.2-0.2,0.3-0.3c0.4-0.4,0.7-0.8,1-1.2c0.2-0.2,0.4-0.5,0.5-0.8
		c0.3-0.4,0.5-0.8,0.7-1.3l0-0.1c0.1-0.3,0.2-0.5,0.3-0.7c0.2-0.4,0.3-0.9,0.5-1.6c0-0.2,0.1-0.3,0.1-0.4c0-0.1,0.1-0.2,0.1-0.3
		c0.2-0.9,0.3-1.7,0.3-2.5c0-0.8-0.1-1.6-0.3-2.5l-0.5-2.6l17.7-8.8l1.8,2c1.7,2,4,3.4,6.5,4.1c1.1,0.3,2.3,0.5,3.5,0.5
		c3,0,6-1.1,8.4-3.1c0.6-0.5,1.1-1,1.5-1.5l1.8-2l29.5,14.7v36l-2.6,0.7c-5.9,1.5-10,6.8-10,12.8C636.9,335.4,637,336.4,637.2,337.3
		z M650.2,346.4c-3.9,0-7.6-1.9-9.8-5.2l-0.4-0.6l-0.1-0.7c0-0.1,0-0.2-0.1-0.3c0,0,0-0.1,0-0.1c-0.8-1.6-1.2-3.3-1.2-5
		c0-0.4,0-0.8,0.1-1.2c0.6-5.9,5.3-10.4,11.3-10.6c0.1,0,0.2,0,0.3,0h0.1c6.4,0.1,11.7,5.4,11.7,11.8
		C662,341.1,656.7,346.4,650.2,346.4z"/>
</g>
</svg>
