<?xml version="1.0" encoding="utf-8"?>
<!-- Generator: Adobe Illustrator 16.0.0, SVG Export Plug-In . SVG Version: 6.00 Build 0)  -->
<!DOCTYPE svg PUBLIC "-//W3C//DTD SVG 1.1//EN" "http://www.w3.org/Graphics/SVG/1.1/DTD/svg11.dtd">
<svg version="1.1" xmlns="http://www.w3.org/2000/svg" xmlns:xlink="http://www.w3.org/1999/xlink" x="0px" y="0px" width="260px"
	 height="220px" viewBox="0 0 260 220" enable-background="new 0 0 260 220" xml:space="preserve">
<g id="Others">
	<g>
		<g>
			<g>
				<path fill="#D6EFF9" d="M168.105,194.819h-1.5c-0.828,0-1.5-0.672-1.5-1.5s0.672-1.5,1.5-1.5h1.5c0.828,0,1.5,0.672,1.5,1.5
					S168.934,194.819,168.105,194.819z"/>
			</g>
			<g>
				<path fill="#D6EFF9" d="M162.542,194.819h-3.047c-0.829,0-1.5-0.672-1.5-1.5s0.671-1.5,1.5-1.5h3.047c0.829,0,1.5,0.672,1.5,1.5
					S163.371,194.819,162.542,194.819z M155.432,194.819h-3.047c-0.829,0-1.5-0.672-1.5-1.5s0.671-1.5,1.5-1.5h3.047
					c0.829,0,1.5,0.672,1.5,1.5S156.26,194.819,155.432,194.819z M148.321,194.819h-3.047c-0.829,0-1.5-0.672-1.5-1.5
					s0.671-1.5,1.5-1.5h3.047c0.829,0,1.5,0.672,1.5,1.5S149.149,194.819,148.321,194.819z M141.21,194.819h-3.047
					c-0.829,0-1.5-0.672-1.5-1.5s0.671-1.5,1.5-1.5h3.047c0.829,0,1.5,0.672,1.5,1.5S142.039,194.819,141.21,194.819z
					 M134.099,194.819h-3.047c-0.829,0-1.5-0.672-1.5-1.5s0.671-1.5,1.5-1.5h3.047c0.829,0,1.5,0.672,1.5,1.5
					S134.928,194.819,134.099,194.819z M126.989,194.819h-3.048c-0.829,0-1.5-0.672-1.5-1.5s0.671-1.5,1.5-1.5h3.048
					c0.829,0,1.5,0.672,1.5,1.5S127.817,194.819,126.989,194.819z M119.878,194.819h-3.048c-0.829,0-1.5-0.672-1.5-1.5
					s0.671-1.5,1.5-1.5h3.048c0.829,0,1.5,0.672,1.5,1.5S120.707,194.819,119.878,194.819z M112.767,194.819h-3.048
					c-0.829,0-1.5-0.672-1.5-1.5s0.671-1.5,1.5-1.5h3.048c0.829,0,1.5,0.672,1.5,1.5S113.596,194.819,112.767,194.819z
					 M105.656,194.819h-3.047c-0.829,0-1.5-0.672-1.5-1.5s0.671-1.5,1.5-1.5h3.047c0.829,0,1.5,0.672,1.5,1.5
					S106.485,194.819,105.656,194.819z M98.545,194.819h-3.047c-0.829,0-1.5-0.672-1.5-1.5s0.671-1.5,1.5-1.5h3.047
					c0.829,0,1.5,0.672,1.5,1.5S99.374,194.819,98.545,194.819z M91.435,194.819H91.32c-0.929,0-1.989-0.091-3.15-0.271
					c-0.819-0.127-1.38-0.893-1.253-1.712c0.126-0.817,0.892-1.374,1.711-1.253c1.01,0.156,1.916,0.235,2.692,0.235h0.114
					c0.829,0,1.5,0.672,1.5,1.5S92.263,194.819,91.435,194.819z M84.436,193.675c-0.139,0-0.281-0.02-0.421-0.061
					c-1.092-0.319-2.114-0.678-3.036-1.065c-0.764-0.321-1.123-1.201-0.801-1.965s1.2-1.123,1.964-0.801
					c0.818,0.344,1.731,0.664,2.715,0.952c0.795,0.232,1.251,1.065,1.019,1.86C85.684,193.25,85.085,193.675,84.436,193.675z
					 M77.949,190.803c-0.242,0-0.488-0.059-0.716-0.183l-2.676-1.458c-0.728-0.396-0.996-1.308-0.6-2.035
					c0.396-0.727,1.306-0.996,2.035-0.6l2.676,1.458c0.728,0.396,0.996,1.308,0.6,2.035C78.995,190.52,78.48,190.803,77.949,190.803
					z M71.705,187.4c-0.243,0-0.489-0.059-0.717-0.183l-2.676-1.459c-0.727-0.397-0.995-1.309-0.599-2.035
					c0.396-0.729,1.308-0.995,2.035-0.6l2.676,1.459c0.727,0.397,0.995,1.309,0.599,2.035C72.751,187.118,72.236,187.4,71.705,187.4
					z M65.461,183.997c-0.242,0-0.488-0.059-0.716-0.183l-2.676-1.458c-0.728-0.396-0.996-1.308-0.6-2.035
					c0.396-0.726,1.306-0.996,2.035-0.6l2.676,1.458c0.728,0.396,0.996,1.308,0.6,2.035
					C66.507,183.714,65.993,183.997,65.461,183.997z"/>
			</g>
			<g>
				<path fill="#D6EFF9" d="M59.217,180.594c-0.243,0-0.488-0.059-0.716-0.183l-1.317-0.718c-0.728-0.396-0.996-1.308-0.599-2.035
					c0.396-0.729,1.306-0.994,2.035-0.6l1.317,0.718c0.728,0.396,0.996,1.308,0.599,2.035
					C60.263,180.312,59.749,180.594,59.217,180.594z"/>
			</g>
		</g>
		<g>
			<ellipse fill="#D6EFF9" cx="180.129" cy="211.585" rx="53.707" ry="5.264"/>
		</g>
		<g>
			<g>
				<ellipse fill="#D1EDF8" cx="58.541" cy="166.097" rx="38.252" ry="3.75"/>
			</g>
			<g>
				<path fill="#D1EDF8" d="M58.541,170.347c-0.388,0-38.752-0.049-38.752-4.25s38.365-4.25,38.752-4.25s38.752,0.049,38.752,4.25
					S58.929,170.347,58.541,170.347z M58.541,162.847c-23.318,0-37.128,1.943-37.759,3.287c0.631,1.27,14.44,3.213,37.759,3.213
					s37.128-1.943,37.759-3.287C95.669,164.79,81.859,162.847,58.541,162.847z"/>
			</g>
		</g>
		<g>
			<path fill="#66C7F1" d="M32.473,123.387c-1.844,1.2-3.352,3.982-3.352,6.183v31.92c0,2.2,1.8,4,4,4h50.214c2.2,0,4-1.8,4-4
				v-31.92c0-2.2-1.508-4.982-3.352-6.183l-22.402-14.59c-1.844-1.2-4.86-1.2-6.704,0L32.473,123.387z"/>
		</g>
		<g>
			<g>
				<path fill="#4FB2E5" d="M32.473,123.387c-1.844,1.2-3.352,3.982-3.352,6.183v31.92c0,2.2,1.8,4,4,4h21.102c2.2,0,4-1.8,4-4
					v-50.871c0-2.2-1.508-3.018-3.352-1.817L32.473,123.387z"/>
			</g>
		</g>
		<g>
			<path fill="#2C1A4D" d="M94.552,131.372c-0.233,0-0.468-0.064-0.678-0.2l-32.967-21.334c-1.427-0.924-3.931-0.924-5.357,0
				l-32.967,21.334c-0.579,0.373-1.354,0.209-1.729-0.371c-0.375-0.579-0.209-1.354,0.37-1.729l32.967-21.334
				c2.264-1.465,5.811-1.465,8.074,0l32.967,21.334c0.58,0.375,0.745,1.149,0.37,1.729
				C95.363,131.171,94.962,131.372,94.552,131.372z"/>
		</g>
		<g>
			<g>
				<path fill="#AEDFE9" d="M41.544,142.267c-1.1,0-2,0.9-2,2v20.416h7.776v-22.416H41.544z"/>
			</g>
			<g>
				<path fill="#D1EDF8" d="M55.095,144.267c0-1.1-0.9-2-2-2H47.32v22.416h7.775V144.267z"/>
			</g>
		</g>
		<g>
			<path fill="#2C1A4D" d="M55.095,165.933c-0.69,0-1.25-0.56-1.25-1.25v-20.416c0-0.406-0.343-0.75-0.75-0.75H41.544
				c-0.407,0-0.75,0.344-0.75,0.75v20.416c0,0.69-0.56,1.25-1.25,1.25s-1.25-0.56-1.25-1.25v-20.416c0-1.792,1.458-3.25,3.25-3.25
				h11.551c1.792,0,3.25,1.458,3.25,3.25v20.416C56.345,165.373,55.786,165.933,55.095,165.933z"/>
		</g>
		<g>
			<path fill="#2C1A4D" d="M75.577,143.517h-7.825c-1.792,0-3.25-1.458-3.25-3.25v-8.145c0-1.792,1.458-3.25,3.25-3.25h7.825
				c1.792,0,3.25,1.458,3.25,3.25v8.145C78.827,142.059,77.369,143.517,75.577,143.517z M67.752,131.372
				c-0.407,0-0.75,0.344-0.75,0.75v8.145c0,0.406,0.343,0.75,0.75,0.75h7.825c0.407,0,0.75-0.344,0.75-0.75v-8.145
				c0-0.406-0.343-0.75-0.75-0.75H67.752z"/>
		</g>
		<g>
			<path fill="#2C1A4D" d="M34.651,123.003c-0.829,0-1.5-0.672-1.5-1.5v-8.291c0-0.828,0.671-1.5,1.5-1.5s1.5,0.672,1.5,1.5v8.291
				C36.151,122.331,35.48,123.003,34.651,123.003z"/>
		</g>
		<g>
			<path fill="#FFFFFF" d="M80.694,162.085H75.51c-0.917,0-1.661-0.743-1.661-1.66s0.744-1.66,1.661-1.66h5.184
				c0.184,0,0.339-0.156,0.339-0.34v-8.041c0-0.917,0.744-1.66,1.661-1.66s1.661,0.743,1.661,1.66v8.041
				C84.354,160.443,82.712,162.085,80.694,162.085z"/>
		</g>
		<g>
			<path fill="#2C1A4D" d="M83.335,166.739H33.121c-2.895,0-5.25-2.355-5.25-5.25v-35.92c0-0.69,0.56-1.25,1.25-1.25
				s1.25,0.56,1.25,1.25v35.92c0,1.517,1.234,2.75,2.75,2.75h50.214c1.516,0,2.75-1.233,2.75-2.75v-35.92
				c0-0.69,0.56-1.25,1.25-1.25s1.25,0.56,1.25,1.25v35.92C88.585,164.384,86.23,166.739,83.335,166.739z"/>
		</g>
		<g>
			<path fill="#FFFFFF" d="M79.285,127.906c-0.298,0-0.599-0.08-0.871-0.249l-10.959-6.771c-0.78-0.481-1.022-1.505-0.54-2.285
				c0.482-0.779,1.505-1.024,2.285-0.539l10.959,6.771c0.78,0.481,1.022,1.505,0.54,2.285
				C80.385,127.626,79.841,127.906,79.285,127.906z"/>
		</g>
		<g>
			<path fill="#2C1A4D" d="M180.447,212.231c-0.828,0-1.5-0.672-1.5-1.5V87.741c0-0.828,0.672-1.5,1.5-1.5s1.5,0.672,1.5,1.5v122.99
				C181.947,211.56,181.275,212.231,180.447,212.231z"/>
		</g>
	</g>
</g>
<g id="borblis_mrgvali_foni">
	<g>
		<path fill="#D6EFF9" d="M230.039,78.827c-0.582,0-1.103-0.407-1.224-0.999c-4.677-22.851-25.027-39.436-48.389-39.436
			c-4.434,0-8.826,0.587-13.055,1.743c-0.666,0.183-1.354-0.21-1.536-0.876c-0.182-0.666,0.21-1.354,0.876-1.535
			c4.444-1.215,9.059-1.832,13.715-1.832c24.544,0,45.924,17.426,50.838,41.434c0.139,0.677-0.298,1.337-0.974,1.476
			C230.206,78.819,230.122,78.827,230.039,78.827z"/>
	</g>
	<g>
		<g>
			<path fill="#D6EFF9" d="M136.395,114.063c-0.435,0-0.856-0.227-1.087-0.631c-4.431-7.777-6.772-16.646-6.772-25.648
				c0-1.815,0.095-3.648,0.283-5.448c0.071-0.688,0.687-1.189,1.373-1.113c0.687,0.071,1.186,0.687,1.114,1.373
				c-0.179,1.714-0.269,3.46-0.269,5.188c0,8.569,2.228,17.01,6.444,24.41c0.342,0.601,0.133,1.363-0.467,1.705
				C136.817,114.011,136.605,114.063,136.395,114.063z"/>
		</g>
		<g>
			<path fill="#D6EFF9" d="M132.941,71.4c-0.145,0-0.292-0.025-0.436-0.078c-0.647-0.24-0.977-0.96-0.736-1.607
				c3.739-10.063,10.715-18.927,19.645-24.959c0.572-0.386,1.349-0.236,1.735,0.337c0.387,0.571,0.236,1.349-0.336,1.735
				c-8.501,5.742-15.142,14.179-18.701,23.758C133.926,71.089,133.448,71.4,132.941,71.4z"/>
		</g>
	</g>
	<g>
		<g>
			<path fill="#D6EFF9" d="M173.604,139.218c-0.056,0-0.112-0.004-0.169-0.011c-3.386-0.457-6.737-1.252-9.961-2.365
				c-0.652-0.226-0.998-0.938-0.773-1.59c0.226-0.652,0.939-0.998,1.59-0.773c3.067,1.06,6.257,1.816,9.479,2.25
				c0.685,0.093,1.164,0.722,1.072,1.406C174.757,138.762,174.221,139.218,173.604,139.218z"/>
		</g>
		<g>
			<path fill="#D6EFF9" d="M155.5,133.126c-0.209,0-0.42-0.052-0.615-0.162c-2.965-1.681-5.778-3.664-8.361-5.896
				c-0.522-0.451-0.581-1.241-0.129-1.764c0.452-0.521,1.242-0.579,1.763-0.129c2.459,2.125,5.138,4.013,7.96,5.612
				c0.602,0.341,0.812,1.104,0.472,1.704C156.359,132.898,155.936,133.126,155.5,133.126z"/>
		</g>
	</g>
	<g>
		<path fill="#D6EFF9" d="M187.151,139.231c-0.617,0-1.153-0.457-1.237-1.086c-0.091-0.684,0.391-1.312,1.075-1.403
			c2.923-0.388,5.822-1.042,8.619-1.944c0.66-0.214,1.361,0.148,1.573,0.806s-0.148,1.361-0.806,1.573
			c-2.939,0.948-5.987,1.636-9.059,2.044C187.262,139.228,187.206,139.231,187.151,139.231z M213.326,127.534
			c-0.354,0-0.704-0.148-0.951-0.438c-0.448-0.524-0.387-1.313,0.138-1.763c7.516-6.429,12.878-14.833,15.509-24.305
			c0.185-0.665,0.875-1.055,1.539-0.869c0.665,0.185,1.054,0.873,0.869,1.539c-2.764,9.952-8.397,18.782-16.292,25.535
			C213.902,127.436,213.613,127.534,213.326,127.534z"/>
	</g>
	<g>
		<g>
			<path fill="#D6EFF9" d="M200.195,51.978c-0.199,0-0.4-0.047-0.589-0.147c-5.858-3.133-12.49-4.788-19.18-4.788
				c-3.557,0-7.083,0.458-10.479,1.36c-0.663,0.177-1.352-0.219-1.529-0.887c-0.178-0.667,0.22-1.353,0.887-1.529
				c3.606-0.958,7.349-1.444,11.122-1.444c7.099,0,14.139,1.758,20.359,5.083c0.608,0.326,0.838,1.083,0.513,1.692
				C201.073,51.738,200.642,51.978,200.195,51.978z"/>
		</g>
		<g>
			<path fill="#D6EFF9" d="M221.96,82.812c-0.608,0-1.143-0.445-1.234-1.066c-1.517-10.207-6.823-19.389-14.94-25.853
				c-0.54-0.43-0.63-1.216-0.199-1.756c0.429-0.54,1.217-0.631,1.756-0.199c8.615,6.859,14.246,16.604,15.856,27.44
				c0.102,0.683-0.37,1.318-1.053,1.42C222.083,82.808,222.021,82.812,221.96,82.812z"/>
		</g>
	</g>
	<g>
		<g>
			<path fill="#D6EFF9" d="M143.945,109.843c-0.434,0-0.855-0.226-1.086-0.63c-2.572-4.501-4.294-9.375-5.119-14.487
				c-0.11-0.682,0.353-1.323,1.035-1.434c0.685-0.108,1.323,0.354,1.433,1.035c0.777,4.814,2.399,9.405,4.822,13.646
				c0.342,0.6,0.134,1.363-0.465,1.705C144.368,109.79,144.155,109.843,143.945,109.843z"/>
		</g>
		<g>
			<path fill="#D6EFF9" d="M146.363,64.471c-0.254,0-0.51-0.077-0.731-0.236c-0.56-0.404-0.686-1.186-0.281-1.745
				c3.033-4.2,6.754-7.79,11.059-10.672c0.572-0.383,1.35-0.23,1.734,0.344c0.384,0.574,0.23,1.351-0.344,1.734
				c-4.058,2.716-7.565,6.1-10.423,10.057C147.133,64.291,146.751,64.471,146.363,64.471z"/>
		</g>
	</g>
	<g>
		<path fill="#D6EFF9" d="M173.962,130.53c-0.063,0-0.128-0.005-0.192-0.015c-8.086-1.249-15.626-4.77-21.807-10.18
			c-0.52-0.454-0.572-1.244-0.117-1.764c0.455-0.52,1.244-0.572,1.764-0.117c5.824,5.097,12.927,8.413,20.542,9.59
			c0.683,0.105,1.15,0.744,1.045,1.426C175.1,130.089,174.567,130.53,173.962,130.53z"/>
	</g>
	<g>
		<g>
			<path fill="#D6EFF9" d="M215.104,112.723c-0.243,0-0.489-0.07-0.705-0.219c-0.569-0.39-0.716-1.168-0.325-1.737
				c2.764-4.039,4.755-8.484,5.917-13.214c0.164-0.671,0.843-1.079,1.512-0.916c0.671,0.165,1.081,0.842,0.916,1.512
				c-1.234,5.022-3.348,9.743-6.282,14.03C215.894,112.532,215.502,112.723,215.104,112.723z"/>
		</g>
		<g>
			<path fill="#D6EFF9" d="M186.802,130.544c-0.606,0-1.14-0.443-1.233-1.062c-0.104-0.683,0.364-1.32,1.047-1.424
				c4.827-0.735,9.435-2.318,13.694-4.705c0.603-0.338,1.364-0.121,1.702,0.479c0.337,0.603,0.122,1.364-0.479,1.702
				c-4.524,2.533-9.416,4.214-14.54,4.994C186.928,130.539,186.864,130.544,186.802,130.544z"/>
		</g>
	</g>
</g>
<g id="Qaris_borbali">
	<g>
		<path fill="#DCDBDB" d="M231.799,118.245l-48.744-28.92c0,0-3.385,6.098,6.553,11.365
			C199.547,105.954,231.799,118.245,231.799,118.245z"/>
	</g>
	<g>
		<path fill="#DCDBDB" d="M129.66,119.009l49.297-27.964c0,0-3.609-5.968-13.115,0.047
			C156.336,97.105,129.66,119.009,129.66,119.009z"/>
	</g>
	<g>
		<path fill="#DCDBDB" d="M195.242,31.397l-16.646,54.177c0,0,6.723,1.858,9.504-9.038
			C190.881,65.636,195.242,31.397,195.242,31.397z"/>
	</g>
	<g>
		<g>
			<path fill="#B5B6B6" d="M189.645,101.056c2.062,1.047,5.083,2.379,8.568,3.824l2.456-4.943l-17.774-10.125
				C182.895,89.812,179.615,95.968,189.645,101.056z"/>
		</g>
		<g>
			<path fill="#B5B6B6" d="M165.437,90.714c-1.942,1.254-4.617,3.189-7.622,5.471l3.03,4.613l17.706-10.242
				C178.551,90.556,174.891,84.618,165.437,90.714z"/>
		</g>
		<g>
			<path fill="#B5B6B6" d="M188.1,76.536c0.572-2.242,1.211-5.48,1.865-9.197l-5.359-1.32l-6.01,19.556
				C178.596,85.574,185.318,87.433,188.1,76.536z"/>
		</g>
		<g>
			<path fill="#DCDBDB" d="M195.242,31.397l-10.637,34.621l5.359,1.32C192.491,52.991,195.242,31.397,195.242,31.397z"/>
		</g>
	</g>
	<g>
		<path fill="#2C1A4D" d="M194.545,30.362c0.274-0.186,0.617-0.26,0.961-0.186c0.635,0.137,1.059,0.736,0.977,1.379
			c-0.178,1.4-4.404,34.439-7.172,45.289c-1.066,4.183-2.834,7.125-5.246,8.746c-2.912,1.955-5.685,1.22-5.802,1.188
			c-0.323-0.09-0.601-0.307-0.763-0.604c-0.161-0.296-0.198-0.646-0.098-0.969l16.646-54.174
			C194.135,30.747,194.315,30.516,194.545,30.362z M182.67,83.515c1.888-1.268,3.307-3.719,4.218-7.288
			c1.528-5.993,3.565-19.28,5.067-29.869L180.26,84.418C180.927,84.345,181.781,84.112,182.67,83.515z"/>
	</g>
	<g>
		<path fill="#2C1A4D" d="M182.357,88.287c0.113-0.075,0.238-0.133,0.371-0.169c0.324-0.088,0.672-0.039,0.964,0.131l48.745,28.92
			c0.557,0.332,0.769,1.033,0.486,1.619c-0.279,0.585-0.964,0.855-1.57,0.624c-1.32-0.503-32.438-12.377-42.332-17.616
			c-4.066-2.156-6.57-4.741-7.442-7.684c-0.899-3.031,0.33-5.298,0.383-5.396C182.059,88.544,182.195,88.396,182.357,88.287z
			 M218.035,111.53l-34.248-20.317c-0.227,1.792,0.355,5.167,6.406,8.374C195.657,102.481,208.097,107.583,218.035,111.53z"/>
	</g>
	<g>
		<path fill="#2C1A4D" d="M163.784,90.942L163.784,90.942c0.495-0.332,0.96-0.637,1.39-0.908c3.89-2.461,7.376-3.352,10.361-2.649
			c3.078,0.726,4.436,2.92,4.492,3.013c0.174,0.289,0.226,0.637,0.14,0.964c-0.085,0.325-0.292,0.608-0.593,0.769l-49.296,27.965
			c-0.565,0.32-1.281,0.156-1.648-0.379c-0.368-0.533-0.263-1.262,0.239-1.674C129.112,117.842,153.399,97.919,163.784,90.942z
			 M176.958,90.742c-1.438-1.083-4.657-2.259-10.448,1.405c-5.237,3.309-15.832,11.574-24.193,18.244L176.958,90.742z"/>
	</g>
	<g>
		<circle fill="#DCDBDB" cx="180.428" cy="87.786" r="4.001"/>
		<path fill="#2C1A4D" d="M177.5,83.427c2.403-1.613,5.672-0.971,7.285,1.432c1.615,2.402,0.973,5.673-1.43,7.285
			c-2.403,1.615-5.672,0.973-7.285-1.431C174.455,88.311,175.098,85.041,177.5,83.427z M181.961,90.069
			c1.26-0.846,1.596-2.558,0.75-3.816c-0.847-1.26-2.557-1.596-3.816-0.75c-1.259,0.846-1.596,2.557-0.75,3.816
			S180.703,90.915,181.961,90.069z"/>
	</g>
</g>
<g id="light">
	<path fill="#F9D136" d="M67.752,131.372c-0.407,0-0.75,0.344-0.75,0.75v8.145c0,0.406,0.343,0.75,0.75,0.75h7.825
		c0.407,0,0.75-0.344,0.75-0.75v-8.145c0-0.406-0.343-0.75-0.75-0.75H67.752z"/>
</g>
</svg>
